<svg width="24" height="24" viewBox="0 0 24 24" fill="none" xmlns="http://www.w3.org/2000/svg">
	<path d="M12 22C17.5228 22 22 17.5228 22 12C22 6.47715 17.5228 2 12 2C6.47715 2 2 6.47715 2 12C2 17.5228 6.47715 22 12 22Z" stroke="currentcolor" stroke-width="1.5" />
	<path d="M17.52 8.49609H12.5577C11.741 8.49609 11.501 8.53609 11.34 9.36014L10.179 13.9694C9.8469 15.2975 9.67558 15.4935 9.34492 15.5201C8.98492 15.4001 8.81469 15.0925 8.20492 13.8401L8.05508 13.5001C7.79243 12.9607 7.70552 12.7332 7.44 12.6601C7.10104 12.5669 6.80716 12.8049 6.5 13.0041" stroke="currentcolor" stroke-width="1.5" stroke-linecap="round" stroke-linejoin="round" />
	<path d="M12.9746 11.4956C13.3946 11.4817 13.8506 11.4636 14.1002 11.8796C14.3402 12.5396 14.8163 13.5828 15.0182 14.0328C15.1192 14.2059 15.2402 14.4316 15.5402 14.4756C15.8402 14.5196 16.1402 14.5036 16.1402 14.5036" stroke="currentcolor" stroke-width="1.5" stroke-linecap="round" />
	<path d="M16.3313 11.5078C15.4851 11.5078 14.9993 12.4798 14.5193 13.0198C14.3513 13.293 13.6193 14.5198 12.7793 14.5038" stroke="currentcolor" stroke-width="1.5" stroke-linecap="round" />
</svg>
