<svg width="844" height="772" viewBox="0 0 844 772" fill="none" xmlns="http://www.w3.org/2000/svg">
<g clip-path="url(#clip0_2005_91)">
<path d="M463.977 38.9284L438.031 43.0946L118.365 94.4227L92.4181 98.5888C79.8226 100.626 68.5494 107.576 61.0718 117.914C53.5941 128.253 50.5227 141.135 52.5314 153.735L122.585 590.022C124.622 602.618 131.572 613.891 141.91 621.369C152.249 628.846 165.131 631.918 177.731 629.909L177.798 629.898L549.223 570.26L549.29 570.249C561.886 568.212 573.159 561.262 580.636 550.923C588.114 540.585 591.185 527.703 589.177 515.103L519.123 78.8153C517.086 66.2198 510.136 54.9466 499.798 47.4689C489.46 39.9912 476.577 36.9198 463.977 38.9284Z" fill="#F2F2F2"/>
<path d="M466.174 52.6073L435.442 57.5419L125.346 107.333L94.6145 112.268C85.6449 113.718 77.617 118.668 72.292 126.03C66.967 133.392 64.7797 142.566 66.2101 151.539L136.264 587.826C137.714 596.795 142.664 604.823 150.026 610.148C157.388 615.473 166.562 617.661 175.535 616.23L175.602 616.219L547.027 556.581L547.094 556.57C556.064 555.119 564.091 550.17 569.416 542.808C574.741 535.445 576.928 526.272 575.498 517.299L505.444 81.0117C503.994 72.0422 499.045 64.0143 491.683 58.6893C484.321 53.3643 475.147 51.177 466.174 52.6073Z" fill="white"/>
<path d="M430.624 188.447L242.729 218.617C240.63 218.954 238.484 218.443 236.762 217.198C235.039 215.952 233.883 214.073 233.546 211.975C233.209 209.876 233.719 207.73 234.965 206.007C236.21 204.285 238.089 203.128 240.188 202.791L428.083 172.621C430.18 172.287 432.325 172.798 434.046 174.044C435.767 175.29 436.922 177.167 437.259 179.265C437.596 181.362 437.086 183.507 435.842 185.229C434.598 186.951 432.721 188.108 430.624 188.447Z" fill="#F2F2F2"/>
<path d="M467.552 209.912L247.017 245.322C244.918 245.659 242.772 245.149 241.05 243.903C239.327 242.658 238.171 240.779 237.834 238.68C237.497 236.582 238.007 234.435 239.253 232.713C240.498 230.991 242.377 229.834 244.476 229.497L465.011 194.086C467.109 193.749 469.256 194.26 470.978 195.505C472.7 196.751 473.857 198.63 474.194 200.728C474.531 202.827 474.021 204.973 472.775 206.696C471.529 208.418 469.651 209.575 467.552 209.912Z" fill="#F2F2F2"/>
<path d="M449.841 308.127L261.946 338.297C260.907 338.464 259.845 338.425 258.821 338.181C257.797 337.938 256.831 337.495 255.978 336.878C255.126 336.261 254.403 335.483 253.851 334.586C253.299 333.69 252.929 332.694 252.762 331.655C252.596 330.616 252.635 329.554 252.879 328.53C253.122 327.506 253.565 326.54 254.182 325.688C254.798 324.835 255.577 324.112 256.473 323.56C257.369 323.008 258.366 322.639 259.405 322.472L447.3 292.302C448.339 292.135 449.4 292.174 450.424 292.418C451.448 292.662 452.414 293.104 453.267 293.721C454.12 294.338 454.842 295.117 455.394 296.013C455.946 296.909 456.316 297.905 456.483 298.944C456.65 299.983 456.61 301.045 456.367 302.069C456.123 303.093 455.68 304.059 455.064 304.911C454.447 305.764 453.668 306.487 452.772 307.039C451.876 307.591 450.88 307.961 449.841 308.127Z" fill="#F2F2F2"/>
<path d="M486.769 329.592L266.234 365.003C265.195 365.17 264.133 365.13 263.109 364.887C262.085 364.643 261.119 364.2 260.266 363.584C259.414 362.967 258.691 362.188 258.139 361.292C257.587 360.396 257.217 359.4 257.05 358.361C256.884 357.321 256.923 356.26 257.167 355.236C257.41 354.212 257.853 353.246 258.47 352.393C259.086 351.541 259.865 350.818 260.761 350.266C261.657 349.714 262.654 349.344 263.693 349.177L484.228 313.766C486.326 313.429 488.473 313.94 490.195 315.186C491.917 316.431 493.074 318.31 493.411 320.409C493.748 322.507 493.237 324.654 491.992 326.376C490.746 328.098 488.867 329.255 486.769 329.592Z" fill="#F2F2F2"/>
<path d="M469.057 427.808L281.163 457.978C279.065 458.313 276.919 457.802 275.198 456.556C273.477 455.31 272.322 453.432 271.985 451.335C271.648 449.237 272.158 447.091 273.402 445.37C274.647 443.648 276.524 442.49 278.621 442.152L466.516 411.982C468.615 411.645 470.761 412.156 472.484 413.402C474.206 414.647 475.363 416.526 475.7 418.625C476.037 420.723 475.526 422.87 474.28 424.592C473.035 426.314 471.156 427.471 469.057 427.808Z" fill="#F2F2F2"/>
<path d="M505.986 449.272L285.451 484.683C284.411 484.851 283.349 484.812 282.324 484.57C281.299 484.327 280.333 483.884 279.479 483.267C278.626 482.651 277.902 481.872 277.35 480.975C276.797 480.079 276.427 479.082 276.26 478.042C276.093 477.002 276.133 475.94 276.377 474.916C276.621 473.891 277.064 472.925 277.681 472.072C278.299 471.219 279.079 470.496 279.976 469.945C280.873 469.393 281.87 469.024 282.909 468.858L503.445 433.447C505.543 433.11 507.69 433.62 509.412 434.866C511.134 436.112 512.291 437.991 512.628 440.089C512.965 442.188 512.454 444.334 511.209 446.056C509.963 447.779 508.084 448.935 505.986 449.272Z" fill="#F2F2F2"/>
<path d="M206.874 264.204L140.38 274.881C139.374 275.041 138.345 274.796 137.519 274.199C136.694 273.602 136.139 272.701 135.976 271.696L126.472 212.507C126.312 211.5 126.557 210.472 127.154 209.646C127.751 208.821 128.652 208.266 129.657 208.103L196.152 197.426C197.158 197.266 198.186 197.511 199.012 198.108C199.837 198.705 200.392 199.605 200.555 200.611L210.059 259.8C210.219 260.806 209.974 261.835 209.377 262.661C208.78 263.486 207.88 264.041 206.874 264.204Z" fill="#E6E6E6"/>
<path d="M226.091 383.884L159.597 394.561C158.59 394.722 157.562 394.476 156.736 393.879C155.911 393.282 155.356 392.382 155.193 391.376L145.689 332.187C145.529 331.181 145.774 330.152 146.371 329.327C146.968 328.501 147.868 327.946 148.874 327.784L215.368 317.107C216.375 316.946 217.403 317.192 218.229 317.789C219.054 318.386 219.609 319.286 219.772 320.292L229.276 379.481C229.436 380.487 229.191 381.516 228.594 382.341C227.997 383.167 227.096 383.722 226.091 383.884Z" fill="#E6E6E6"/>
<path d="M245.308 503.565L178.813 514.242C177.807 514.402 176.779 514.157 175.953 513.56C175.128 512.963 174.573 512.062 174.41 511.057L164.906 451.867C164.746 450.861 164.991 449.833 165.588 449.007C166.185 448.182 167.085 447.627 168.091 447.464L234.585 436.787C235.591 436.627 236.62 436.872 237.446 437.469C238.271 438.066 238.826 438.966 238.989 439.972L248.493 499.161C248.653 500.167 248.408 501.196 247.811 502.022C247.214 502.847 246.313 503.402 245.308 503.565Z" fill="#E6E6E6"/>
<path d="M706.932 170.565L332.246 135.553C319.541 134.38 306.89 138.295 297.067 146.439C287.245 154.582 281.054 166.29 279.853 178.992L238.742 618.951C237.569 631.656 241.483 644.308 249.627 654.13C257.771 663.953 269.478 670.144 282.18 671.345L656.866 706.357C669.572 707.53 682.223 703.615 692.045 695.471C701.868 687.328 708.059 675.62 709.26 662.918L750.371 222.959C751.544 210.254 747.629 197.602 739.486 187.78C731.342 177.957 719.635 171.766 706.932 170.565Z" fill="#E6E6E6"/>
<path d="M705.644 184.359L330.957 149.347C321.91 148.512 312.9 151.3 305.906 157.099C298.911 162.898 294.502 171.235 293.647 180.281L252.535 620.24C251.7 629.288 254.488 638.297 260.287 645.292C266.087 652.287 274.424 656.695 283.469 657.551L658.156 692.563C667.203 693.398 676.213 690.61 683.207 684.811C690.202 679.012 694.611 670.675 695.466 661.629L736.577 221.67C737.413 212.622 734.625 203.613 728.826 196.618C723.027 189.623 714.69 185.215 705.644 184.359Z" fill="white"/>
<path d="M626.663 420.846L437.187 403.141C436.138 403.044 435.119 402.742 434.187 402.251C433.255 401.759 432.429 401.09 431.757 400.279C431.084 399.469 430.578 398.534 430.267 397.528C429.956 396.521 429.846 395.464 429.944 394.415C430.042 393.367 430.346 392.348 430.838 391.416C431.33 390.485 432.001 389.66 432.812 388.988C433.623 388.317 434.558 387.811 435.565 387.501C436.572 387.192 437.629 387.083 438.678 387.182L628.154 404.887C630.269 405.087 632.217 406.119 633.572 407.754C634.927 409.39 635.577 411.497 635.379 413.612C635.181 415.726 634.152 417.676 632.518 419.033C630.884 420.389 628.778 421.041 626.663 420.846Z" fill="#E6E6E6"/>
<path d="M657.061 450.852L434.67 430.071C433.621 429.974 432.602 429.672 431.67 429.181C430.739 428.69 429.913 428.02 429.24 427.21C428.568 426.399 428.061 425.464 427.75 424.458C427.439 423.452 427.329 422.394 427.427 421.345C427.525 420.297 427.829 419.278 428.321 418.347C428.813 417.415 429.484 416.59 430.295 415.919C431.106 415.247 432.042 414.742 433.049 414.432C434.055 414.122 435.113 414.013 436.161 414.113L658.552 434.893C660.669 435.091 662.62 436.121 663.976 437.758C665.333 439.394 665.984 441.502 665.786 443.618C665.588 445.735 664.558 447.686 662.922 449.042C661.286 450.399 659.178 451.05 657.061 450.852Z" fill="#E6E6E6"/>
<path d="M615.385 541.534L425.909 523.829C424.86 523.732 423.841 523.429 422.909 522.938C421.978 522.447 421.152 521.777 420.479 520.967C419.807 520.157 419.3 519.222 418.989 518.215C418.678 517.209 418.569 516.151 418.667 515.103C418.764 514.054 419.068 513.035 419.56 512.104C420.052 511.173 420.723 510.348 421.534 509.676C422.345 509.004 423.281 508.499 424.288 508.189C425.294 507.879 426.352 507.771 427.4 507.87L616.877 525.575C618.993 525.773 620.944 526.803 622.301 528.44C623.657 530.076 624.308 532.184 624.11 534.3C623.913 536.416 622.882 538.367 621.246 539.724C619.61 541.081 617.502 541.732 615.385 541.534Z" fill="#E6E6E6"/>
<path d="M645.784 571.54L423.393 550.759C422.344 550.662 421.325 550.36 420.393 549.869C419.461 549.378 418.635 548.708 417.963 547.897C417.29 547.087 416.784 546.152 416.473 545.146C416.162 544.139 416.052 543.082 416.15 542.033C416.248 540.985 416.552 539.966 417.044 539.034C417.536 538.103 418.207 537.278 419.018 536.606C419.829 535.935 420.765 535.429 421.771 535.12C422.778 534.81 423.835 534.701 424.884 534.8L647.275 555.581C648.324 555.678 649.343 555.981 650.275 556.472C651.207 556.963 652.032 557.633 652.705 558.443C653.378 559.253 653.884 560.188 654.195 561.195C654.506 562.201 654.616 563.258 654.518 564.307C654.42 565.356 654.116 566.375 653.624 567.306C653.132 568.237 652.461 569.062 651.65 569.734C650.839 570.405 649.903 570.911 648.897 571.221C647.89 571.531 646.832 571.639 645.784 571.54Z" fill="#E6E6E6"/>
<path d="M391.084 438.33L324.03 432.065C323.016 431.969 322.081 431.474 321.431 430.69C320.78 429.906 320.468 428.896 320.562 427.881L326.139 368.194C326.235 367.179 326.729 366.245 327.513 365.594C328.298 364.944 329.308 364.632 330.323 364.725L397.376 370.991C398.391 371.087 399.326 371.581 399.976 372.365C400.626 373.15 400.939 374.16 400.845 375.175L395.268 434.862C395.172 435.876 394.677 436.811 393.893 437.461C393.109 438.111 392.098 438.424 391.084 438.33Z" fill="#E6E6E6"/>
<path d="M379.807 559.018L312.753 552.752C311.738 552.657 310.804 552.162 310.153 551.378C309.503 550.594 309.19 549.583 309.284 548.569L314.862 488.882C314.957 487.867 315.452 486.932 316.236 486.282C317.02 485.632 318.031 485.319 319.045 485.413L386.099 491.679C387.113 491.775 388.048 492.269 388.698 493.053C389.349 493.838 389.661 494.848 389.568 495.862L383.99 555.55C383.894 556.564 383.4 557.499 382.616 558.149C381.831 558.799 380.821 559.112 379.807 559.018Z" fill="#E6E6E6"/>
<path d="M639.427 286.517L499.734 273.463C497.618 273.265 495.667 272.235 494.31 270.599C492.954 268.963 492.303 266.855 492.5 264.738C492.698 262.622 493.728 260.671 495.365 259.314C497.001 257.958 499.109 257.307 501.225 257.505L640.918 270.558C643.035 270.756 644.986 271.786 646.342 273.422C647.699 275.058 648.35 277.167 648.152 279.283C647.954 281.399 646.924 283.35 645.288 284.707C643.651 286.063 641.543 286.714 639.427 286.517Z" fill="#CCCCCC"/>
<path d="M669.826 316.523L497.218 300.393C496.17 300.296 495.151 299.992 494.221 299.501C493.29 299.009 492.465 298.339 491.794 297.529C491.122 296.719 490.616 295.784 490.306 294.779C489.995 293.773 489.886 292.716 489.984 291.669C490.082 290.621 490.385 289.602 490.877 288.672C491.368 287.741 492.038 286.916 492.848 286.245C493.658 285.573 494.593 285.067 495.598 284.757C496.604 284.446 497.661 284.337 498.709 284.435L671.317 300.564C673.433 300.762 675.384 301.792 676.741 303.428C678.097 305.064 678.748 307.173 678.55 309.289C678.353 311.405 677.322 313.356 675.686 314.713C674.05 316.069 671.942 316.72 669.826 316.523Z" fill="#CCCCCC"/>
<path d="M463.252 330.141L334.467 318.107C333.452 318.011 332.517 317.517 331.867 316.732C331.217 315.948 330.904 314.938 330.998 313.923L340.39 213.414C340.486 212.4 340.98 211.465 341.765 210.814C342.549 210.164 343.559 209.852 344.574 209.945L473.359 221.979C474.373 222.075 475.308 222.57 475.958 223.354C476.608 224.138 476.921 225.148 476.827 226.163L467.435 326.672C467.339 327.687 466.845 328.622 466.061 329.272C465.276 329.922 464.266 330.235 463.252 330.141Z" fill="#6C63FF"/>
</g>
<defs>
<clipPath id="clip0_2005_91">
<rect width="782.044" height="701.88" fill="white" transform="translate(65.3467 0.142334) rotate(5.33839)"/>
</clipPath>
</defs>
</svg>
