<svg width="216" height="164" viewBox="0 0 216 164" fill="none" xmlns="http://www.w3.org/2000/svg">
<g clip-path="url(#clip0_3693_87059)">
<g filter="url(#filter0_ddddi_3693_87059)">
<path d="M3.14738 55.8007C2.06347 51.4533 1.52151 49.2796 1.95356 47.4082C2.3336 45.7621 3.22502 44.2785 4.50005 43.1702C5.94957 41.9101 8.12323 41.3682 12.4706 40.2843L91.5415 20.5697C93.4076 20.1044 94.3406 19.8718 95.2722 19.8601C96.0982 19.8498 96.9208 19.9675 97.7108 20.209C98.6017 20.4814 99.4321 20.9663 101.093 21.9362L140.789 45.1174C142.507 46.1211 143.367 46.623 144.059 47.2913C144.672 47.8837 145.187 48.5705 145.584 49.3255C146.031 50.1772 146.272 51.1429 146.753 53.0741L178.277 179.508C179.361 183.855 179.903 186.029 179.471 187.9C179.091 189.546 178.199 191.03 176.924 192.138C175.475 193.398 173.301 193.94 168.954 195.024L57.9519 222.7C53.6045 223.784 51.4309 224.326 49.5595 223.894C47.9133 223.514 46.4298 222.622 45.3214 221.347C44.0614 219.898 43.5194 217.724 42.4355 213.377L3.14738 55.8007Z" fill="white"/>
<path d="M3.14738 55.8007C2.06347 51.4533 1.52151 49.2796 1.95356 47.4082C2.3336 45.7621 3.22502 44.2785 4.50005 43.1702C5.94957 41.9101 8.12323 41.3682 12.4706 40.2843L91.5415 20.5697C93.4076 20.1044 94.3406 19.8718 95.2722 19.8601C96.0982 19.8498 96.9208 19.9675 97.7108 20.209C98.6017 20.4814 99.4321 20.9663 101.093 21.9362L140.789 45.1174C142.507 46.1211 143.367 46.623 144.059 47.2913C144.672 47.8837 145.187 48.5705 145.584 49.3255C146.031 50.1772 146.272 51.1429 146.753 53.0741L178.277 179.508C179.361 183.855 179.903 186.029 179.471 187.9C179.091 189.546 178.199 191.03 176.924 192.138C175.475 193.398 173.301 193.94 168.954 195.024L57.9519 222.7C53.6045 223.784 51.4309 224.326 49.5595 223.894C47.9133 223.514 46.4298 222.622 45.3214 221.347C44.0614 219.898 43.5194 217.724 42.4355 213.377L3.14738 55.8007Z" fill="url(#paint0_linear_3693_87059)" fill-opacity="0.12"/>
<path d="M3.63253 55.6797C3.08858 53.498 2.68827 51.8908 2.47537 50.5949C2.26343 49.3048 2.24548 48.3665 2.44075 47.5207C2.79703 45.9775 3.63274 44.5866 4.82808 43.5475C5.48318 42.9781 6.32006 42.5534 7.55869 42.1349C8.80287 41.7144 10.4099 41.3134 12.5915 40.7694L91.6624 21.0548C93.5512 20.5839 94.4186 20.3708 95.2784 20.3601C96.0528 20.3504 96.824 20.4608 97.5646 20.6872C98.3869 20.9386 99.1598 21.3863 100.841 22.3679L140.536 45.5492C142.276 46.5651 143.073 47.0341 143.711 47.6509C144.287 48.2064 144.769 48.8502 145.141 49.5581C145.554 50.3442 145.781 51.2403 146.268 53.1951L177.792 179.629C178.336 181.81 178.736 183.417 178.949 184.713C179.161 186.003 179.179 186.942 178.984 187.788C178.627 189.331 177.792 190.722 176.596 191.761C175.941 192.33 175.104 192.755 173.866 193.173C172.621 193.594 171.014 193.995 168.833 194.539L57.8309 222.215C55.6492 222.759 54.0421 223.159 52.7462 223.372C51.456 223.584 50.5177 223.602 49.672 223.406L49.5595 223.894L49.672 223.406C48.1287 223.05 46.7379 222.215 45.6988 221.019C45.1293 220.364 44.7046 219.527 44.2861 218.289C43.8657 217.044 43.4646 215.437 42.9206 213.256L3.63253 55.6797Z" stroke="white"/>
</g>
<mask id="mask0_3693_87059" style="mask-type:alpha" maskUnits="userSpaceOnUse" x="1" y="19" width="179" height="206">
<path d="M3.14738 55.8007C2.06347 51.4533 1.52151 49.2796 1.95356 47.4082C2.3336 45.7621 3.22502 44.2785 4.50005 43.1702C5.94957 41.9101 8.12323 41.3682 12.4706 40.2843L91.0552 20.6909C92.9217 20.2255 93.8549 19.9929 94.7867 19.9813C95.6129 19.971 96.4357 20.0888 97.2258 20.3304C98.1169 20.6029 98.9474 21.0881 100.608 22.0584L140.911 45.6024C142.629 46.6062 143.488 47.1081 144.18 47.7763C144.794 48.3687 145.308 49.0554 145.705 49.8103C146.152 50.6619 146.393 51.6273 146.874 53.5581L178.277 179.508C179.361 183.855 179.903 186.029 179.471 187.9C179.091 189.546 178.199 191.03 176.924 192.138C175.475 193.398 173.301 193.94 168.954 195.024L57.9519 222.7C53.6045 223.784 51.4309 224.326 49.5595 223.894C47.9133 223.514 46.4298 222.622 45.3214 221.347C44.0614 219.898 43.5194 217.724 42.4355 213.377L3.14738 55.8007Z" fill="white"/>
</mask>
<g mask="url(#mask0_3693_87059)">
<g filter="url(#filter1_dd_3693_87059)">
<path d="M94.1699 19.9141C95.4141 19.6039 96.7302 19.7923 97.8374 20.4391L143.843 47.3144C144.947 47.9595 145.744 49.023 146.053 50.2638C144.596 48.1476 141.978 47.1574 139.485 47.779L120.634 52.4791C116.287 53.563 114.113 54.105 112.242 53.6729C110.596 53.2929 109.112 52.4015 108.004 51.1264C106.744 49.6769 106.202 47.5032 105.118 43.1559L100.647 25.225C99.8976 22.2187 97.2648 20.06 94.1699 19.9141Z" fill="white"/>
<path d="M94.1699 19.9141C95.4141 19.6039 96.7302 19.7923 97.8374 20.4391L143.843 47.3144C144.947 47.9595 145.744 49.023 146.053 50.2638C144.596 48.1476 141.978 47.1574 139.485 47.779L120.634 52.4791C116.287 53.563 114.113 54.105 112.242 53.6729C110.596 53.2929 109.112 52.4015 108.004 51.1264C106.744 49.6769 106.202 47.5032 105.118 43.1559L100.647 25.225C99.8976 22.2187 97.2648 20.06 94.1699 19.9141Z" fill="url(#paint1_linear_3693_87059)" fill-opacity="0.5"/>
</g>
</g>
<path d="M17.1158 52.9272C16.7509 51.4637 17.6394 49.9821 19.1004 49.6178L34.311 45.8254C35.772 45.4611 37.2521 46.3522 37.617 47.8156C37.9819 49.2791 37.0933 50.7607 35.6324 51.125L20.4218 54.9174C18.9608 55.2817 17.4806 54.3906 17.1158 52.9272Z" fill="black" fill-opacity="0.16"/>
<path d="M18.9326 60.2142C18.5677 58.7507 19.4563 57.269 20.9173 56.9048L36.1279 53.1124C37.5889 52.7481 39.069 53.6392 39.4339 55.1026C39.7988 56.5661 38.9102 58.0477 37.4492 58.412L22.2386 62.2044C20.7776 62.5687 19.2975 61.6776 18.9326 60.2142Z" fill="black" fill-opacity="0.05"/>
<path d="M40.7565 54.7728C40.3917 53.3094 41.2802 51.8277 42.7412 51.4635L60.9278 46.929C62.3888 46.5648 63.8689 47.4558 64.2338 48.9193C64.5987 50.3828 63.7101 51.8644 62.2492 52.2287L44.0625 56.7631C42.6016 57.1274 41.1214 56.2363 40.7565 54.7728Z" fill="black" fill-opacity="0.05"/>
<path d="M65.5565 48.5895C65.1916 47.1261 66.0801 45.6444 67.5411 45.2802L75.1464 43.3839C76.6074 43.0197 78.0875 43.9107 78.4524 45.3742C78.8173 46.8377 77.9288 48.3193 76.4678 48.6836L68.8625 50.5798C67.4015 50.944 65.9213 50.053 65.5565 48.5895Z" fill="black" fill-opacity="0.05"/>
<path d="M79.7751 45.0444C79.4102 43.581 80.2988 42.0993 81.7597 41.7351L95.9784 38.19C97.4393 37.8257 98.9195 38.7168 99.2844 40.1802C99.6492 41.6437 98.7607 43.1253 97.2997 43.4896L83.0811 47.0347C81.6201 47.3989 80.14 46.5079 79.7751 45.0444Z" fill="black" fill-opacity="0.05"/>
<path d="M100.607 39.8504C100.242 38.387 101.131 36.9053 102.592 36.5411L117.802 32.7486C119.263 32.3844 120.743 33.2754 121.108 34.7389C121.473 36.2023 120.585 37.684 119.124 38.0483L103.913 41.8407C102.452 42.205 100.972 41.3139 100.607 39.8504Z" fill="black" fill-opacity="0.05"/>
<path d="M122.431 34.4091C122.066 32.9457 122.955 31.464 124.416 31.0997L130.368 29.6158C131.829 29.2515 133.309 30.1426 133.674 31.606C134.038 33.0695 133.15 34.5511 131.689 34.9154L125.737 36.3994C124.276 36.7636 122.796 35.8726 122.431 34.4091Z" fill="black" fill-opacity="0.05"/>
<path d="M20.7495 67.5012C20.3846 66.0377 21.2731 64.556 22.7341 64.1918L41.9127 59.41C43.3737 59.0458 44.8538 59.9368 45.2187 61.4003C45.5836 62.8637 44.695 64.3454 43.2341 64.7097L24.0555 69.4914C22.5945 69.8557 21.1143 68.9646 20.7495 67.5012Z" fill="black" fill-opacity="0.05"/>
<path d="M46.5414 61.0705C46.1765 59.6071 47.0651 58.1254 48.526 57.7611L54.1474 56.3596C55.6083 55.9953 57.0885 56.8864 57.4533 58.3498C57.8182 59.8133 56.9297 61.295 55.4687 61.6592L49.8474 63.0608C48.3864 63.425 46.9063 62.534 46.5414 61.0705Z" fill="black" fill-opacity="0.05"/>
<path d="M58.776 58.0201C58.4111 56.5566 59.2997 55.075 60.7607 54.7107L68.366 52.8145C69.8269 52.4502 71.3071 53.3413 71.672 54.8047C72.0369 56.2682 71.1483 57.7499 69.6873 58.1141L62.082 60.0103C60.621 60.3746 59.1409 59.4835 58.776 58.0201Z" fill="black" fill-opacity="0.05"/>
<path d="M72.9946 54.475C72.6298 53.0115 73.5183 51.5299 74.9793 51.1656L95.1499 46.1365C96.6109 45.7722 98.091 46.6633 98.4559 48.1268C98.8208 49.5902 97.9322 51.0719 96.4712 51.4361L76.3006 56.4652C74.8397 56.8295 73.3595 55.9384 72.9946 54.475Z" fill="black" fill-opacity="0.05"/>
<path d="M99.7786 47.797C99.4137 46.3335 100.302 44.8519 101.763 44.4876L119.95 39.9532C121.411 39.5889 122.891 40.48 123.256 41.9434C123.621 43.4069 122.732 44.8886 121.271 45.2528L103.085 49.7873C101.624 50.1515 100.143 49.2604 99.7786 47.797Z" fill="black" fill-opacity="0.05"/>
<path d="M24.0528 80.7502C23.6879 79.2868 24.5765 77.8051 26.0375 77.4409L55.1361 70.1858C56.597 69.8215 58.0772 70.7126 58.4421 72.176C58.8069 73.6395 57.9184 75.1212 56.4574 75.4854L27.3588 82.7405C25.8979 83.1048 24.4177 82.2137 24.0528 80.7502Z" fill="black" fill-opacity="0.16"/>
<path d="M25.8697 88.0372C25.5048 86.5738 26.3934 85.0921 27.8543 84.7279L31.161 83.9034C32.622 83.5392 34.1021 84.4302 34.467 85.8937C34.8319 87.3571 33.9433 88.8388 32.4823 89.2031L29.1757 90.0275C27.7147 90.3918 26.2346 89.5007 25.8697 88.0372Z" fill="black" fill-opacity="0.05"/>
<path d="M35.7896 85.5639C35.4248 84.1005 36.3133 82.6188 37.7743 82.2545L52.9849 78.4621C54.4459 78.0978 55.926 78.9889 56.2909 80.4524C56.6558 81.9158 55.7672 83.3975 54.3063 83.7617L39.0956 87.5542C37.6347 87.9184 36.1545 87.0274 35.7896 85.5639Z" fill="black" fill-opacity="0.05"/>
<path d="M57.6136 80.1226C57.2487 78.6591 58.1373 77.1775 59.5982 76.8132L80.4302 71.6192C81.8911 71.255 83.3713 72.1461 83.7362 73.6095C84.1011 75.073 83.2125 76.5546 81.7515 76.9189L60.9196 82.1129C59.4586 82.4771 57.9785 81.5861 57.6136 80.1226Z" fill="black" fill-opacity="0.05"/>
<path d="M85.0588 73.2797C84.694 71.8163 85.5825 70.3346 87.0435 69.9704L99.9395 66.755C101.4 66.3908 102.881 67.2818 103.245 68.7453C103.61 70.2087 102.722 71.6904 101.261 72.0547L88.3648 75.27C86.9039 75.6343 85.4237 74.7432 85.0588 73.2797Z" fill="black" fill-opacity="0.05"/>
<path d="M104.568 68.4155C104.203 66.9521 105.092 65.4704 106.553 65.1061L120.11 61.7259C121.571 61.3617 123.051 62.2527 123.416 63.7162C123.781 65.1797 122.892 66.6613 121.431 67.0256L107.874 70.4058C106.413 70.77 104.933 69.879 104.568 68.4155Z" fill="black" fill-opacity="0.05"/>
<path d="M124.739 63.3864C124.374 61.923 125.262 60.4413 126.723 60.077L133.337 58.4282C134.798 58.0639 136.278 58.955 136.643 60.4184C137.008 61.8819 136.119 63.3635 134.658 63.7278L128.045 65.3767C126.584 65.7409 125.104 64.8499 124.739 63.3864Z" fill="black" fill-opacity="0.05"/>
<path d="M27.6865 95.3242C27.3217 93.8608 28.2102 92.3791 29.6712 92.0149L33.6392 91.0255C35.1001 90.6613 36.5803 91.5523 36.9452 93.0158C37.3101 94.4793 36.4215 95.9609 34.9605 96.3252L30.9925 97.3145C29.5316 97.6788 28.0514 96.7877 27.6865 95.3242Z" fill="black" fill-opacity="0.05"/>
<path d="M38.2678 92.686C37.903 91.2226 38.7915 89.7409 40.2525 89.3767L45.5431 88.0575C47.0041 87.6933 48.4843 88.5844 48.8491 90.0478C49.214 91.5113 48.3255 92.9929 46.8645 93.3572L41.5738 94.6763C40.1129 95.0406 38.6327 94.1495 38.2678 92.686Z" fill="black" fill-opacity="0.05"/>
<path d="M30.9899 108.573C30.625 107.11 31.5136 105.628 32.9746 105.264L66.3718 96.9371C67.8328 96.5728 69.3129 97.4639 69.6778 98.9274C70.0427 100.391 69.1541 101.872 67.6931 102.237L34.2959 110.564C32.8349 110.928 31.3548 110.037 30.9899 108.573Z" fill="black" fill-opacity="0.16"/>
<path d="M32.8068 115.86C32.4419 114.397 33.3304 112.915 34.7914 112.551L52.978 108.017C54.439 107.652 55.9191 108.543 56.284 110.007C56.6489 111.47 55.7603 112.952 54.2994 113.316L36.1128 117.851C34.6518 118.215 33.1716 117.324 32.8068 115.86Z" fill="black" fill-opacity="0.05"/>
<path d="M57.6067 109.677C57.2418 108.214 58.1304 106.732 59.5913 106.368L65.5433 104.884C67.0043 104.519 68.4844 105.41 68.8493 106.874C69.2142 108.337 68.3256 109.819 66.8647 110.183L60.9127 111.667C59.4517 112.032 57.9716 111.14 57.6067 109.677Z" fill="black" fill-opacity="0.05"/>
<path d="M70.172 106.544C69.8071 105.081 70.6957 103.599 72.1566 103.235L86.3753 99.6897C87.8362 99.3254 89.3164 100.216 89.6813 101.68C90.0461 103.143 89.1576 104.625 87.6966 104.989L73.478 108.534C72.017 108.899 70.5369 108.008 70.172 106.544Z" fill="black" fill-opacity="0.05"/>
<path d="M91.0039 101.35C90.639 99.8867 91.5276 98.405 92.9886 98.0408L104.231 95.2377C105.692 94.8734 107.172 95.7645 107.537 97.2279C107.902 98.6914 107.014 100.173 105.553 100.537L94.3099 103.34C92.8489 103.705 91.3688 102.814 91.0039 101.35Z" fill="black" fill-opacity="0.05"/>
<path d="M108.86 96.8982C108.495 95.4347 109.384 93.953 110.845 93.5888L129.362 88.9719C130.823 88.6076 132.303 89.4987 132.668 90.9622C133.033 92.4256 132.144 93.9073 130.683 94.2715L112.166 98.8884C110.705 99.2527 109.225 98.3616 108.86 96.8982Z" fill="black" fill-opacity="0.05"/>
<path d="M34.6236 123.147C34.2587 121.684 35.1473 120.202 36.6083 119.838L47.8509 117.035C49.3119 116.671 50.792 117.562 51.1569 119.025C51.5218 120.489 50.6332 121.97 49.1722 122.334L37.9296 125.138C36.4686 125.502 34.9885 124.611 34.6236 123.147Z" fill="black" fill-opacity="0.05"/>
<path d="M52.4796 118.695C52.1147 117.232 53.0032 115.75 54.4642 115.386L71.9895 111.016C73.4505 110.652 74.9306 111.543 75.2955 113.007C75.6604 114.47 74.7718 115.952 73.3108 116.316L55.7856 120.686C54.3246 121.05 52.8444 120.159 52.4796 118.695Z" fill="black" fill-opacity="0.05"/>
<path d="M36.4405 130.434C36.0756 128.971 36.9641 127.489 38.4251 127.125L59.5877 121.849C61.0487 121.484 62.5288 122.375 62.8937 123.839C63.2586 125.302 62.37 126.784 60.9091 127.148L39.7465 132.425C38.2855 132.789 36.8053 131.898 36.4405 130.434Z" fill="black" fill-opacity="0.05"/>
<path d="M64.2164 123.509C63.8515 122.046 64.7401 120.564 66.201 120.2L72.8143 118.551C74.2753 118.186 75.7555 119.078 76.1203 120.541C76.4852 122.004 75.5967 123.486 74.1357 123.85L67.5224 125.499C66.0614 125.864 64.5813 124.972 64.2164 123.509Z" fill="black" fill-opacity="0.05"/>
<path d="M39.7438 143.683C39.3789 142.22 40.2675 140.738 41.7285 140.374L60.9071 135.592C62.3681 135.228 63.8482 136.119 64.2131 137.583C64.578 139.046 63.6894 140.528 62.2284 140.892L43.0498 145.674C41.5889 146.038 40.1087 145.147 39.7438 143.683Z" fill="black" fill-opacity="0.16"/>
<path d="M41.5607 150.97C41.1958 149.507 42.0844 148.025 43.5453 147.661L62.3933 142.962C63.8542 142.597 65.3344 143.489 65.6993 144.952C66.0642 146.415 65.1756 147.897 63.7146 148.261L44.8667 152.961C43.4057 153.325 41.9256 152.434 41.5607 150.97Z" fill="black" fill-opacity="0.05"/>
<path d="M67.0219 144.622C66.6571 143.159 67.5456 141.677 69.0066 141.313L78.2652 139.004C79.7262 138.64 81.2063 139.531 81.5712 140.995C81.9361 142.458 81.0475 143.94 79.5866 144.304L70.3279 146.612C68.867 146.977 67.3868 146.086 67.0219 144.622Z" fill="black" fill-opacity="0.05"/>
<path d="M82.8939 140.665C82.529 139.201 83.4176 137.72 84.8785 137.356L96.7825 134.388C98.2435 134.023 99.7236 134.914 100.089 136.378C100.453 137.841 99.5648 139.323 98.1039 139.687L86.1999 142.655C84.7389 143.019 83.2588 142.128 82.8939 140.665Z" fill="black" fill-opacity="0.05"/>
<path d="M101.411 136.048C101.046 134.585 101.935 133.103 103.396 132.739L118.606 128.946C120.067 128.582 121.548 129.473 121.912 130.936C122.277 132.4 121.389 133.882 119.928 134.246L104.717 138.038C103.256 138.403 101.776 137.511 101.411 136.048Z" fill="black" fill-opacity="0.05"/>
<path d="M123.235 130.607C122.87 129.143 123.759 127.662 125.22 127.297L138.777 123.917C140.238 123.553 141.718 124.444 142.083 125.907C142.448 127.371 141.559 128.852 140.098 129.217L126.541 132.597C125.08 132.961 123.6 132.07 123.235 130.607Z" fill="black" fill-opacity="0.05"/>
<path d="M43.3775 158.257C43.0127 156.794 43.9012 155.312 45.3622 154.948L62.2261 150.743C63.6871 150.379 65.1673 151.27 65.5321 152.734C65.897 154.197 65.0085 155.679 63.5475 156.043L46.6835 160.248C45.2226 160.612 43.7424 159.721 43.3775 158.257Z" fill="black" fill-opacity="0.05"/>
<path d="M66.8548 152.404C66.4899 150.94 67.3785 149.459 68.8394 149.094L83.0581 145.549C84.519 145.185 85.9992 146.076 86.3641 147.54C86.729 149.003 85.8404 150.485 84.3794 150.849L70.1608 154.394C68.6998 154.758 67.2197 153.867 66.8548 152.404Z" fill="black" fill-opacity="0.05"/>
<path d="M87.6867 147.21C87.3219 145.746 88.2104 144.265 89.6714 143.901L103.559 140.438C105.02 140.074 106.5 140.965 106.865 142.428C107.23 143.892 106.342 145.373 104.881 145.737L90.9927 149.2C89.5318 149.564 88.0516 148.673 87.6867 147.21Z" fill="black" fill-opacity="0.05"/>
<path d="M46.6809 171.506C46.316 170.043 47.2046 168.561 48.6656 168.197L80.7401 160.2C82.2011 159.836 83.6812 160.727 84.0461 162.19C84.411 163.654 83.5224 165.135 82.0615 165.5L49.9869 173.497C48.5259 173.861 47.0458 172.97 46.6809 171.506Z" fill="black" fill-opacity="0.16"/>
<path d="M48.4978 178.793C48.1329 177.33 49.0214 175.848 50.4824 175.484L58.749 173.423C60.21 173.059 61.6902 173.95 62.055 175.413C62.4199 176.877 61.5314 178.358 60.0704 178.723L51.8038 180.784C50.3428 181.148 48.8626 180.257 48.4978 178.793Z" fill="black" fill-opacity="0.05"/>
<path d="M63.3777 175.083C63.0128 173.62 63.9014 172.138 65.3624 171.774L84.2103 167.075C85.6713 166.711 87.1514 167.602 87.5163 169.065C87.8812 170.529 86.9926 172.01 85.5317 172.374L66.6837 177.074C65.2227 177.438 63.7426 176.547 63.3777 175.083Z" fill="black" fill-opacity="0.05"/>
<path d="M88.839 168.735C88.4741 167.272 89.3626 165.79 90.8236 165.426L104.381 162.046C105.842 161.681 107.322 162.573 107.687 164.036C108.052 165.499 107.163 166.981 105.702 167.345L92.145 170.726C90.684 171.09 89.2038 170.199 88.839 168.735Z" fill="black" fill-opacity="0.05"/>
<path d="M109.01 163.706C108.645 162.243 109.533 160.761 110.994 160.397L117.277 158.83C118.738 158.466 120.218 159.357 120.583 160.821C120.948 162.284 120.059 163.766 118.598 164.13L112.316 165.696C110.855 166.061 109.374 165.17 109.01 163.706Z" fill="black" fill-opacity="0.05"/>
<path d="M121.906 160.491C121.541 159.027 122.429 157.546 123.89 157.182L144.061 152.152C145.522 151.788 147.002 152.679 147.367 154.143C147.732 155.606 146.843 157.088 145.382 157.452L125.212 162.481C123.751 162.845 122.27 161.954 121.906 160.491Z" fill="black" fill-opacity="0.05"/>
<path d="M50.3146 186.08C49.9497 184.617 50.8383 183.135 52.2993 182.771L70.8165 178.154C72.2775 177.79 73.7577 178.681 74.1225 180.145C74.4874 181.608 73.5989 183.09 72.1379 183.454L53.6206 188.071C52.1596 188.435 50.6795 187.544 50.3146 186.08Z" fill="black" fill-opacity="0.05"/>
<path d="M75.4452 179.815C75.0803 178.351 75.9689 176.87 77.4298 176.505L94.9551 172.136C96.4161 171.772 97.8963 172.663 98.2611 174.126C98.626 175.59 97.7375 177.071 96.2765 177.435L78.7512 181.805C77.2902 182.169 75.8101 181.278 75.4452 179.815Z" fill="black" fill-opacity="0.05"/>
<path d="M99.5838 173.796C99.2189 172.333 100.107 170.851 101.568 170.487L106.528 169.25C107.989 168.886 109.47 169.777 109.834 171.241C110.199 172.704 109.311 174.186 107.85 174.55L102.89 175.787C101.429 176.151 99.9487 175.26 99.5838 173.796Z" fill="black" fill-opacity="0.05"/>
<path d="M52.1315 193.367C51.7666 191.904 52.6551 190.422 54.1161 190.058L69.3267 186.266C70.7877 185.901 72.2678 186.792 72.6327 188.256C72.9976 189.719 72.1091 191.201 70.6481 191.565L55.4375 195.358C53.9765 195.722 52.4963 194.831 52.1315 193.367Z" fill="black" fill-opacity="0.05"/>
<path d="M73.9554 187.926C73.5905 186.463 74.4791 184.981 75.94 184.617L83.876 182.638C85.337 182.274 86.8171 183.165 87.182 184.628C87.5469 186.092 86.6583 187.574 85.1974 187.938L77.2614 189.916C75.8004 190.281 74.3203 189.39 73.9554 187.926Z" fill="black" fill-opacity="0.05"/>
<path d="M55.4348 206.617C55.0699 205.153 55.9585 203.671 57.4195 203.307L85.5261 196.299C86.987 195.935 88.4672 196.826 88.8321 198.29C89.1969 199.753 88.3084 201.235 86.8474 201.599L58.7408 208.607C57.2799 208.971 55.7997 208.08 55.4348 206.617Z" fill="black" fill-opacity="0.16"/>
<path d="M57.2517 213.904C56.8868 212.44 57.7754 210.958 59.2363 210.594L74.7776 206.719C76.2386 206.355 77.7187 207.246 78.0836 208.71C78.4485 210.173 77.5599 211.655 76.099 212.019L60.5577 215.894C59.0967 216.258 57.6166 215.367 57.2517 213.904Z" fill="black" fill-opacity="0.05"/>
<path d="M79.4063 208.38C79.0414 206.916 79.93 205.435 81.3909 205.07L90.3189 202.844C91.7799 202.48 93.26 203.371 93.6249 204.835C93.9898 206.298 93.1012 207.78 91.6403 208.144L82.7123 210.37C81.2513 210.734 79.7712 209.843 79.4063 208.38Z" fill="black" fill-opacity="0.05"/>
<path d="M94.9476 204.505C94.5827 203.041 95.4712 201.56 96.9322 201.196L108.836 198.228C110.297 197.863 111.777 198.754 112.142 200.218C112.507 201.681 111.619 203.163 110.158 203.527L98.2536 206.495C96.7926 206.859 95.3124 205.968 94.9476 204.505Z" fill="black" fill-opacity="0.05"/>
<path d="M113.465 199.888C113.1 198.425 113.989 196.943 115.449 196.579L125.7 194.023C127.161 193.659 128.641 194.55 129.006 196.013C129.371 197.477 128.482 198.958 127.021 199.323L116.771 201.878C115.31 202.243 113.83 201.352 113.465 199.888Z" fill="black" fill-opacity="0.05"/>
<path d="M59.0685 221.191C58.7037 219.727 59.5922 218.245 61.0532 217.881L64.6905 216.974C66.1515 216.61 67.6316 217.501 67.9965 218.965C68.3614 220.428 67.4728 221.91 66.0119 222.274L62.3745 223.181C60.9136 223.545 59.4334 222.654 59.0685 221.191Z" fill="black" fill-opacity="0.05"/>
<path d="M69.3192 218.635C68.9543 217.171 69.8428 215.69 71.3038 215.325L80.2318 213.099C81.6928 212.735 83.1729 213.626 83.5378 215.09C83.9027 216.553 83.0141 218.035 81.5531 218.399L72.6252 220.625C71.1642 220.989 69.684 220.098 69.3192 218.635Z" fill="black" fill-opacity="0.05"/>
<path d="M84.8605 214.76C84.4956 213.296 85.3841 211.815 86.8451 211.451L101.725 207.741C103.186 207.376 104.666 208.267 105.031 209.731C105.396 211.194 104.507 212.676 103.046 213.04L88.1665 216.75C86.7055 217.114 85.2253 216.223 84.8605 214.76Z" fill="black" fill-opacity="0.05"/>
<path d="M60.8854 228.478C60.5205 227.014 61.4091 225.532 62.87 225.168L75.1047 222.118C76.5656 221.753 78.0458 222.645 78.4107 224.108C78.7755 225.571 77.887 227.053 76.426 227.417L64.1914 230.468C62.7304 230.832 61.2503 229.941 60.8854 228.478Z" fill="black" fill-opacity="0.05"/>
<path d="M79.7333 223.778C79.3684 222.315 80.257 220.833 81.718 220.469L97.5899 216.512C99.0509 216.147 100.531 217.038 100.896 218.502C101.261 219.965 100.372 221.447 98.9113 221.811L83.0393 225.769C81.5784 226.133 80.0982 225.242 79.7333 223.778Z" fill="black" fill-opacity="0.05"/>
</g>
<g filter="url(#filter2_ddddi_3693_87059)">
<path d="M34.221 22.5349C33.9085 18.0654 33.7522 15.8307 34.5027 14.0627C35.1628 12.5076 36.2983 11.2014 37.7464 10.3312C39.3927 9.34204 41.6274 9.18577 46.0969 8.87323L127.39 3.18867C129.309 3.05451 130.268 2.98743 131.187 3.13775C132.002 3.27104 132.792 3.52979 133.528 3.9048C134.358 4.32774 135.092 4.94949 136.559 6.193L171.626 35.9151C173.145 37.2021 173.904 37.8455 174.469 38.6238C174.971 39.3138 175.358 40.0796 175.618 40.892C175.911 41.8085 175.98 42.8012 176.119 44.7867L185.208 174.773C185.521 179.243 185.677 181.478 184.927 183.246C184.267 184.801 183.131 186.107 181.683 186.977C180.037 187.966 177.802 188.123 173.332 188.435L59.2112 196.415C54.7417 196.728 52.5069 196.884 50.739 196.134C49.1838 195.474 47.8776 194.338 47.0075 192.89C46.0183 191.244 45.862 189.009 45.5495 184.539L34.221 22.5349Z" fill="white"/>
<path d="M34.221 22.5349C33.9085 18.0654 33.7522 15.8307 34.5027 14.0627C35.1628 12.5076 36.2983 11.2014 37.7464 10.3312C39.3927 9.34204 41.6274 9.18577 46.0969 8.87323L127.39 3.18867C129.309 3.05451 130.268 2.98743 131.187 3.13775C132.002 3.27104 132.792 3.52979 133.528 3.9048C134.358 4.32774 135.092 4.94949 136.559 6.193L171.626 35.9151C173.145 37.2021 173.904 37.8455 174.469 38.6238C174.971 39.3138 175.358 40.0796 175.618 40.892C175.911 41.8085 175.98 42.8012 176.119 44.7867L185.208 174.773C185.521 179.243 185.677 181.478 184.927 183.246C184.267 184.801 183.131 186.107 181.683 186.977C180.037 187.966 177.802 188.123 173.332 188.435L59.2112 196.415C54.7417 196.728 52.5069 196.884 50.739 196.134C49.1838 195.474 47.8776 194.338 47.0075 192.89C46.0183 191.244 45.862 189.009 45.5495 184.539L34.221 22.5349Z" fill="url(#paint2_linear_3693_87059)" fill-opacity="0.1"/>
<path d="M34.7198 22.5001C34.5629 20.2571 34.4478 18.6048 34.4632 17.2916C34.4785 15.9843 34.6237 15.0571 34.9629 14.2581C35.5818 12.8002 36.6463 11.5756 38.0039 10.7598C38.7479 10.3128 39.6458 10.0399 40.9383 9.84277C42.2366 9.64478 43.8888 9.52886 46.1318 9.37201L127.425 3.68745C129.367 3.55166 130.258 3.49246 131.107 3.6312C131.871 3.75616 132.611 3.99873 133.301 4.35031C134.067 4.74067 134.751 5.31581 136.236 6.57442L171.303 36.2966C172.84 37.5991 173.543 38.1994 174.065 38.9177C174.535 39.5646 174.898 40.2825 175.142 41.0442C175.412 41.89 175.48 42.8119 175.62 44.8216L184.71 174.808C184.866 177.051 184.982 178.704 184.966 180.017C184.951 181.324 184.806 182.251 184.467 183.05C183.848 184.508 182.783 185.733 181.426 186.549C180.681 186.996 179.784 187.268 178.491 187.466C177.193 187.664 175.541 187.78 173.298 187.936L59.1763 195.916C56.9333 196.073 55.281 196.188 53.9678 196.173C52.6605 196.158 51.7333 196.013 50.9343 195.673L50.739 196.134L50.9343 195.673C49.4764 195.055 48.2518 193.99 47.436 192.632C46.989 191.888 46.7161 190.99 46.519 189.698C46.321 188.4 46.2051 186.747 46.0482 184.504L34.7198 22.5001Z" stroke="white"/>
</g>
<mask id="mask1_3693_87059" style="mask-type:alpha" maskUnits="userSpaceOnUse" x="33" y="3" width="153" height="194">
<path d="M34.221 22.5349C33.9085 18.0654 33.7522 15.8307 34.5027 14.0627C35.1628 12.5076 36.2983 11.2014 37.7464 10.3312C39.3927 9.34204 41.6274 9.18577 46.0969 8.87323L126.89 3.22363C128.809 3.08944 129.768 3.02235 130.688 3.17274C131.504 3.30609 132.293 3.56495 133.029 3.94012C133.86 4.36324 134.593 4.98524 136.061 6.22923L171.663 36.414C173.18 37.7009 173.939 38.3444 174.505 39.1226C175.006 39.8125 175.393 40.5781 175.653 41.3904C175.945 42.3067 176.015 43.2993 176.154 45.2844L185.208 174.773C185.521 179.243 185.677 181.478 184.927 183.246C184.267 184.801 183.131 186.107 181.683 186.977C180.037 187.966 177.802 188.123 173.332 188.435L59.2112 196.415C54.7417 196.728 52.5069 196.884 50.739 196.134C49.1838 195.474 47.8776 194.338 47.0075 192.89C46.0183 191.244 45.862 189.009 45.5495 184.539L34.221 22.5349Z" fill="white"/>
</mask>
<g mask="url(#mask1_3693_87059)">
<g filter="url(#filter3_dd_3693_87059)">
<path d="M130.092 2.99951C131.371 2.91007 132.634 3.32415 133.612 4.15338L174.252 38.6092C175.227 39.4362 175.828 40.6219 175.917 41.8977C174.849 39.5604 172.443 38.1308 169.88 38.3101L150.499 39.6653C146.03 39.9778 143.795 40.1341 142.027 39.3836C140.472 38.7235 139.166 37.588 138.295 36.1399C137.306 34.4936 137.15 32.2589 136.837 27.7893L135.548 9.35451C135.332 6.26372 133.114 3.68063 130.092 2.99951Z" fill="white"/>
<path d="M130.092 2.99951C131.371 2.91007 132.634 3.32415 133.612 4.15338L174.252 38.6092C175.227 39.4362 175.828 40.6219 175.917 41.8977C174.849 39.5604 172.443 38.1308 169.88 38.3101L150.499 39.6653C146.03 39.9778 143.795 40.1341 142.027 39.3836C140.472 38.7235 139.166 37.588 138.295 36.1399C137.306 34.4936 137.15 32.2589 136.837 27.7893L135.548 9.35451C135.332 6.26372 133.114 3.68063 130.092 2.99951Z" fill="url(#paint3_linear_3693_87059)" fill-opacity="0.5"/>
</g>
</g>
<mask id="mask2_3693_87059" style="mask-type:alpha" maskUnits="userSpaceOnUse" x="33" y="3" width="153" height="194">
<path d="M34.221 22.5349C33.9085 18.0654 33.7522 15.8307 34.5027 14.0627C35.1628 12.5076 36.2983 11.2014 37.7464 10.3312C39.3927 9.34204 41.6274 9.18577 46.0969 8.87323L126.89 3.22363C128.809 3.08944 129.768 3.02235 130.688 3.17274C131.504 3.30609 132.293 3.56495 133.029 3.94012C133.86 4.36324 134.593 4.98524 136.061 6.22923L171.663 36.414C173.18 37.7009 173.939 38.3444 174.505 39.1226C175.006 39.8125 175.393 40.5781 175.653 41.3904C175.945 42.3067 176.015 43.2993 176.154 45.2844L185.208 174.773C185.521 179.243 185.677 181.478 184.927 183.246C184.267 184.801 183.131 186.107 181.683 186.977C180.037 187.966 177.802 188.123 173.332 188.435L59.2112 196.415C54.7417 196.728 52.5069 196.884 50.739 196.134C49.1838 195.474 47.8776 194.338 47.0075 192.89C46.0183 191.244 45.862 189.009 45.5495 184.539L34.221 22.5349Z" fill="white"/>
</mask>
<g mask="url(#mask2_3693_87059)">
<path d="M49.0792 31.2814C48.974 29.7768 50.1063 28.472 51.6083 28.367L67.2464 27.2734C68.7485 27.1684 70.0514 28.303 70.1566 29.8075C70.2618 31.3121 69.1295 32.617 67.6274 32.722L51.9893 33.8155C50.4873 33.9206 49.1844 32.786 49.0792 31.2814Z" fill="black" fill-opacity="0.16"/>
<path d="M49.603 38.7732C49.4978 37.2686 50.6302 35.9638 52.1322 35.8587L67.7703 34.7652C69.2723 34.6602 70.5753 35.7947 70.6805 37.2993C70.7857 38.8039 69.6533 40.1088 68.1513 40.2138L52.5132 41.3073C51.0112 41.4123 49.7083 40.2778 49.603 38.7732Z" fill="black" fill-opacity="0.05"/>
<path d="M72.0403 37.2042C71.9351 35.6997 73.0674 34.3948 74.5695 34.2898L93.2672 32.9823C94.7692 32.8773 96.0721 34.0118 96.1774 35.5164C96.2826 37.021 95.1502 38.3258 93.6482 38.4309L74.9505 39.7383C73.4484 39.8434 72.1455 38.7088 72.0403 37.2042Z" fill="black" fill-opacity="0.05"/>
<path d="M97.5372 35.4213C97.432 33.9167 98.5643 32.6119 100.066 32.5069L107.885 31.9601C109.387 31.8551 110.69 32.9896 110.796 34.4942C110.901 35.9988 109.768 37.3036 108.266 37.4087L100.447 37.9554C98.9453 38.0605 97.6424 36.9259 97.5372 35.4213Z" fill="black" fill-opacity="0.05"/>
<path d="M112.155 34.3991C112.05 32.8945 113.183 31.5897 114.685 31.4847L129.303 30.4624C130.805 30.3574 132.108 31.492 132.213 32.9966C132.318 34.5011 131.186 35.806 129.684 35.911L115.066 36.9332C113.564 37.0383 112.261 35.9037 112.155 34.3991Z" fill="black" fill-opacity="0.05"/>
<path d="M133.573 32.9015C133.468 31.3969 134.6 30.092 136.102 29.987L151.74 28.8935C153.242 28.7884 154.545 29.923 154.65 31.4276C154.755 32.9322 153.623 34.237 152.121 34.3421L136.483 35.4356C134.981 35.5406 133.678 34.406 133.573 32.9015Z" fill="black" fill-opacity="0.05"/>
<path d="M156.01 31.3325C155.905 29.8279 157.037 28.5231 158.539 28.418L164.658 27.9901C166.16 27.8851 167.463 29.0197 167.569 30.5242C167.674 32.0288 166.541 33.3337 165.039 33.4387L158.92 33.8666C157.418 33.9716 156.115 32.8371 156.01 31.3325Z" fill="black" fill-opacity="0.05"/>
<path d="M50.1269 46.265C50.0217 44.7604 51.1541 43.4556 52.6561 43.3505L72.3737 41.9717C73.8757 41.8667 75.1786 43.0013 75.2839 44.5058C75.3891 46.0104 74.2567 47.3153 72.7547 47.4203L53.0371 48.7991C51.5351 48.9041 50.2321 47.7696 50.1269 46.265Z" fill="black" fill-opacity="0.05"/>
<path d="M76.6437 44.4108C76.5385 42.9062 77.6708 41.6013 79.1729 41.4963L84.9521 41.0922C86.4542 40.9871 87.7571 42.1217 87.8623 43.6263C87.9675 45.1309 86.8352 46.4357 85.3331 46.5407L79.5539 46.9449C78.0518 47.0499 76.7489 45.9153 76.6437 44.4108Z" fill="black" fill-opacity="0.05"/>
<path d="M89.2221 43.5312C89.1169 42.0266 90.2493 40.7217 91.7513 40.6167L99.5704 40.07C101.072 39.9649 102.375 41.0995 102.481 42.6041C102.586 44.1086 101.453 45.4135 99.9514 45.5185L92.1323 46.0653C90.6303 46.1703 89.3274 45.0358 89.2221 43.5312Z" fill="black" fill-opacity="0.05"/>
<path d="M103.84 42.509C103.735 41.0044 104.867 39.6995 106.37 39.5945L127.107 38.1444C128.609 38.0394 129.912 39.1739 130.017 40.6785C130.122 42.1831 128.99 43.4879 127.488 43.593L106.751 45.0431C105.248 45.1481 103.946 44.0136 103.84 42.509Z" fill="black" fill-opacity="0.05"/>
<path d="M131.377 40.5834C131.272 39.0788 132.404 37.774 133.906 37.669L152.604 36.3615C154.106 36.2565 155.409 37.391 155.514 38.8956C155.619 40.4002 154.487 41.705 152.985 41.8101L134.287 43.1175C132.785 43.2226 131.482 42.088 131.377 40.5834Z" fill="black" fill-opacity="0.05"/>
<path d="M51.0794 59.8864C50.9742 58.3818 52.1066 57.077 53.6086 56.972L83.5249 54.88C85.027 54.775 86.3299 55.9095 86.4351 57.4141C86.5403 58.9187 85.408 60.2235 83.9059 60.3286L53.9896 62.4205C52.4876 62.5256 51.1846 61.391 51.0794 59.8864Z" fill="black" fill-opacity="0.16"/>
<path d="M51.6033 67.3782C51.4981 65.8736 52.6304 64.5688 54.1325 64.4637L57.5321 64.226C59.0341 64.121 60.337 65.2555 60.4422 66.7601C60.5474 68.2647 59.4151 69.5696 57.9131 69.6746L54.5135 69.9123C53.0114 70.0173 51.7085 68.8828 51.6033 67.3782Z" fill="black" fill-opacity="0.05"/>
<path d="M61.8021 66.665C61.6968 65.1605 62.8292 63.8556 64.3312 63.7506L79.9693 62.657C81.4713 62.552 82.7743 63.6866 82.8795 65.1912C82.9847 66.6957 81.8523 68.0006 80.3503 68.1056L64.7122 69.1991C63.2102 69.3042 61.9073 68.1696 61.8021 66.665Z" fill="black" fill-opacity="0.05"/>
<path d="M84.2393 65.0961C84.1341 63.5915 85.2665 62.2866 86.7685 62.1816L108.186 60.684C109.688 60.5789 110.991 61.7135 111.096 63.2181C111.201 64.7226 110.069 66.0275 108.567 66.1325L87.1495 67.6302C85.6475 67.7352 84.3445 66.6006 84.2393 65.0961Z" fill="black" fill-opacity="0.05"/>
<path d="M112.456 63.123C112.351 61.6184 113.483 60.3135 114.985 60.2085L128.243 59.2814C129.745 59.1764 131.048 60.3109 131.154 61.8155C131.259 63.3201 130.126 64.6249 128.624 64.73L115.366 65.6571C113.864 65.7621 112.561 64.6276 112.456 63.123Z" fill="black" fill-opacity="0.05"/>
<path d="M132.513 61.7204C132.408 60.2158 133.541 58.911 135.043 58.806L148.981 57.8313C150.483 57.7263 151.786 58.8608 151.891 60.3654C151.996 61.87 150.864 63.1748 149.362 63.2799L135.424 64.2545C133.922 64.3596 132.619 63.225 132.513 61.7204Z" fill="black" fill-opacity="0.05"/>
<path d="M153.251 60.2703C153.146 58.7657 154.278 57.4609 155.78 57.3558L162.579 56.8804C164.081 56.7754 165.384 57.9099 165.489 59.4145C165.595 60.9191 164.462 62.2239 162.96 62.329L156.161 62.8044C154.659 62.9094 153.356 61.7749 153.251 60.2703Z" fill="black" fill-opacity="0.05"/>
<path d="M52.1272 74.87C52.022 73.3654 53.1543 72.0606 54.6563 71.9555L58.7359 71.6703C60.2379 71.5652 61.5408 72.6998 61.646 74.2044C61.7512 75.7089 60.6189 77.0138 59.1169 77.1188L55.0374 77.4041C53.5353 77.5091 52.2324 76.3746 52.1272 74.87Z" fill="black" fill-opacity="0.05"/>
<path d="M63.0059 74.1093C62.9006 72.6047 64.033 71.2998 65.535 71.1948L70.9744 70.8145C72.4764 70.7094 73.7793 71.844 73.8845 73.3486C73.9897 74.8531 72.8574 76.158 71.3554 76.263L65.916 76.6434C64.414 76.7484 63.1111 75.6139 63.0059 74.1093Z" fill="black" fill-opacity="0.05"/>
<path d="M53.0797 88.4914C52.9745 86.9868 54.1068 85.682 55.6089 85.5769L89.9447 83.176C91.4467 83.0709 92.7496 84.2055 92.8548 85.7101C92.96 87.2146 91.8277 88.5195 90.3257 88.6245L55.9899 91.0255C54.4878 91.1306 53.1849 89.996 53.0797 88.4914Z" fill="black" fill-opacity="0.16"/>
<path d="M53.6036 95.9832C53.4984 94.4786 54.6307 93.1738 56.1327 93.0687L74.8304 91.7613C76.3325 91.6562 77.6354 92.7908 77.7406 94.2954C77.8458 95.8 76.7135 97.1048 75.2114 97.2098L56.5137 98.5173C55.0117 98.6223 53.7088 97.4878 53.6036 95.9832Z" fill="black" fill-opacity="0.05"/>
<path d="M79.1004 94.2003C78.9952 92.6957 80.1276 91.3909 81.6296 91.2858L87.7489 90.8579C89.2509 90.7529 90.5538 91.8874 90.659 93.392C90.7642 94.8966 89.6319 96.2015 88.1299 96.3065L82.0106 96.7344C80.5086 96.8394 79.2057 95.7049 79.1004 94.2003Z" fill="black" fill-opacity="0.05"/>
<path d="M92.0189 93.2969C91.9137 91.7924 93.046 90.4875 94.548 90.3825L109.166 89.3603C110.668 89.2552 111.971 90.3898 112.076 91.8944C112.182 93.399 111.049 94.7038 109.547 94.8088L94.929 95.831C93.427 95.9361 92.1241 94.8015 92.0189 93.2969Z" fill="black" fill-opacity="0.05"/>
<path d="M113.436 91.7993C113.331 90.2947 114.463 88.9899 115.965 88.8848L127.524 88.0766C129.026 87.9715 130.329 89.1061 130.434 90.6107C130.539 92.1153 129.407 93.4201 127.905 93.5251L116.346 94.3334C114.844 94.4384 113.541 93.3039 113.436 91.7993Z" fill="black" fill-opacity="0.05"/>
<path d="M131.794 90.5156C131.689 89.011 132.821 87.7062 134.323 87.6011L153.361 86.2699C154.863 86.1649 156.166 87.2994 156.271 88.804C156.376 90.3086 155.244 91.6134 153.742 91.7185L134.704 93.0497C133.202 93.1547 131.899 92.0202 131.794 90.5156Z" fill="black" fill-opacity="0.05"/>
<path d="M54.1274 103.475C54.0222 101.97 55.1546 100.666 56.6566 100.561L68.2152 99.7523C69.7172 99.6472 71.0202 100.782 71.1254 102.286C71.2306 103.791 70.0982 105.096 68.5962 105.201L57.0376 106.009C55.5356 106.114 54.2326 104.98 54.1274 103.475Z" fill="black" fill-opacity="0.05"/>
<path d="M72.4852 102.191C72.38 100.687 73.5123 99.3819 75.0144 99.2768L93.0322 98.0169C94.5342 97.9119 95.8371 99.0464 95.9423 100.551C96.0475 102.056 94.9152 103.36 93.4132 103.465L75.3954 104.725C73.8933 104.83 72.5904 103.696 72.4852 102.191Z" fill="black" fill-opacity="0.05"/>
<path d="M54.6513 110.967C54.5461 109.462 55.6785 108.157 57.1805 108.052L78.9378 106.531C80.4399 106.426 81.7428 107.56 81.848 109.065C81.9532 110.57 80.8209 111.874 79.3188 111.979L57.5615 113.501C56.0595 113.606 54.7565 112.471 54.6513 110.967Z" fill="black" fill-opacity="0.05"/>
<path d="M83.2078 108.97C83.1026 107.465 84.235 106.16 85.737 106.055L92.5362 105.58C94.0382 105.475 95.3411 106.61 95.4463 108.114C95.5515 109.619 94.4192 110.924 92.9172 111.029L86.118 111.504C84.616 111.609 83.313 110.474 83.2078 108.97Z" fill="black" fill-opacity="0.05"/>
<path d="M55.6038 124.588C55.4986 123.084 56.631 121.779 58.133 121.674L77.8506 120.295C79.3526 120.19 80.6555 121.324 80.7607 122.829C80.866 124.334 79.7336 125.638 78.2316 125.744L58.514 127.122C57.012 127.227 55.709 126.093 55.6038 124.588Z" fill="black" fill-opacity="0.16"/>
<path d="M56.1277 132.08C56.0225 130.575 57.1548 129.271 58.6569 129.166L78.0345 127.811C79.5365 127.705 80.8395 128.84 80.9447 130.345C81.0499 131.849 79.9175 133.154 78.4155 133.259L59.0379 134.614C57.5358 134.719 56.2329 133.585 56.1277 132.08Z" fill="black" fill-opacity="0.05"/>
<path d="M82.3045 130.25C82.1993 128.745 83.3316 127.44 84.8337 127.335L94.3525 126.669C95.8545 126.564 97.1575 127.699 97.2627 129.204C97.3679 130.708 96.2355 132.013 94.7335 132.118L85.2147 132.784C83.7126 132.889 82.4097 131.754 82.3045 130.25Z" fill="black" fill-opacity="0.05"/>
<path d="M98.6225 129.108C98.5173 127.604 99.6496 126.299 101.152 126.194L113.39 125.338C114.892 125.233 116.195 126.368 116.3 127.872C116.406 129.377 115.273 130.682 113.771 130.787L101.533 131.643C100.031 131.748 98.7277 130.613 98.6225 129.108Z" fill="black" fill-opacity="0.05"/>
<path d="M117.66 127.777C117.555 126.273 118.687 124.968 120.189 124.863L135.827 123.769C137.329 123.664 138.632 124.799 138.738 126.303C138.843 127.808 137.71 129.113 136.208 129.218L120.57 130.311C119.068 130.416 117.765 129.282 117.66 127.777Z" fill="black" fill-opacity="0.05"/>
<path d="M140.097 126.208C139.992 124.704 141.125 123.399 142.627 123.294L156.565 122.319C158.067 122.214 159.37 123.349 159.475 124.853C159.58 126.358 158.448 127.663 156.946 127.768L143.008 128.742C141.506 128.847 140.203 127.713 140.097 126.208Z" fill="black" fill-opacity="0.05"/>
<path d="M56.6516 139.572C56.5464 138.067 57.6787 136.762 59.1807 136.657L76.5186 135.445C78.0207 135.34 79.3236 136.474 79.4288 137.979C79.534 139.484 78.4017 140.788 76.8996 140.893L59.5617 142.106C58.0597 142.211 56.7568 141.076 56.6516 139.572Z" fill="black" fill-opacity="0.05"/>
<path d="M80.7886 137.884C80.6834 136.379 81.8158 135.075 83.3178 134.969L97.936 133.947C99.438 133.842 100.741 134.977 100.846 136.481C100.951 137.986 99.819 139.291 98.317 139.396L83.6988 140.418C82.1968 140.523 80.8938 139.389 80.7886 137.884Z" fill="black" fill-opacity="0.05"/>
<path d="M102.206 136.386C102.101 134.882 103.233 133.577 104.735 133.472L119.013 132.473C120.515 132.368 121.818 133.503 121.924 135.008C122.029 136.512 120.896 137.817 119.394 137.922L105.116 138.92C103.614 139.025 102.311 137.891 102.206 136.386Z" fill="black" fill-opacity="0.05"/>
<path d="M57.6041 153.193C57.4989 151.689 58.6312 150.384 60.1332 150.279L93.1092 147.973C94.6112 147.868 95.9142 149.002 96.0194 150.507C96.1246 152.012 94.9922 153.316 93.4902 153.421L60.5142 155.727C59.0122 155.832 57.7093 154.698 57.6041 153.193Z" fill="black" fill-opacity="0.16"/>
<path d="M58.128 160.685C58.0227 159.18 59.1551 157.876 60.6571 157.771L69.1561 157.176C70.6581 157.071 71.961 158.206 72.0662 159.71C72.1715 161.215 71.0391 162.52 69.5371 162.625L61.0381 163.219C59.5361 163.324 58.2332 162.19 58.128 160.685Z" fill="black" fill-opacity="0.05"/>
<path d="M73.4261 159.615C73.3209 158.111 74.4532 156.806 75.9552 156.701L95.3329 155.346C96.8349 155.241 98.1378 156.375 98.243 157.88C98.3483 159.384 97.2159 160.689 95.7139 160.794L76.3362 162.149C74.8342 162.254 73.5313 161.12 73.4261 159.615Z" fill="black" fill-opacity="0.05"/>
<path d="M99.6029 157.785C99.4977 156.28 100.63 154.975 102.132 154.87L116.07 153.896C117.572 153.791 118.875 154.925 118.981 156.43C119.086 157.934 117.953 159.239 116.451 159.344L102.513 160.319C101.011 160.424 99.7081 159.289 99.6029 157.785Z" fill="black" fill-opacity="0.05"/>
<path d="M120.34 156.335C120.235 154.83 121.367 153.525 122.87 153.42L129.329 152.969C130.831 152.864 132.134 153.998 132.239 155.503C132.344 157.007 131.212 158.312 129.71 158.417L123.251 158.869C121.748 158.974 120.446 157.839 120.34 156.335Z" fill="black" fill-opacity="0.05"/>
<path d="M133.599 155.408C133.494 153.903 134.626 152.598 136.128 152.493L156.865 151.043C158.367 150.938 159.67 152.073 159.776 153.577C159.881 155.082 158.748 156.387 157.246 156.492L136.509 157.942C135.007 158.047 133.704 156.912 133.599 155.408Z" fill="black" fill-opacity="0.05"/>
<path d="M58.6518 168.177C58.5466 166.672 59.679 165.367 61.181 165.262L80.2187 163.931C81.7207 163.826 83.0236 164.961 83.1288 166.465C83.234 167.97 82.1017 169.275 80.5997 169.38L61.562 170.711C60.06 170.816 58.757 169.681 58.6518 168.177Z" fill="black" fill-opacity="0.05"/>
<path d="M84.4887 166.37C84.3835 164.865 85.5158 163.561 87.0178 163.456L105.036 162.196C106.538 162.091 107.841 163.225 107.946 164.73C108.051 166.234 106.919 167.539 105.417 167.644L87.3988 168.904C85.8968 169.009 84.5939 167.875 84.4887 166.37Z" fill="black" fill-opacity="0.05"/>
<path d="M109.306 164.635C109.2 163.13 110.333 161.825 111.835 161.72L116.934 161.364C118.436 161.259 119.739 162.393 119.844 163.898C119.95 165.402 118.817 166.707 117.315 166.812L112.216 167.169C110.714 167.274 109.411 166.139 109.306 164.635Z" fill="black" fill-opacity="0.05"/>
<path d="M59.1757 175.669C59.0705 174.164 60.2028 172.859 61.7049 172.754L77.343 171.661C78.845 171.556 80.1479 172.69 80.2531 174.195C80.3583 175.699 79.226 177.004 77.724 177.109L62.0859 178.203C60.5838 178.308 59.2809 177.173 59.1757 175.669Z" fill="black" fill-opacity="0.05"/>
<path d="M81.613 174.1C81.5078 172.595 82.6401 171.29 84.1421 171.185L92.3011 170.615C93.8032 170.51 95.1061 171.644 95.2113 173.149C95.3165 174.653 94.1842 175.958 92.6821 176.063L84.5231 176.634C83.0211 176.739 81.7182 175.604 81.613 174.1Z" fill="black" fill-opacity="0.05"/>
<path d="M60.1282 189.29C60.023 187.785 61.1553 186.481 62.6574 186.376L91.5538 184.355C93.0559 184.25 94.3588 185.384 94.464 186.889C94.5692 188.394 93.4369 189.698 91.9348 189.803L63.0384 191.824C61.5363 191.929 60.2334 190.795 60.1282 189.29Z" fill="black" fill-opacity="0.16"/>
<path d="M60.6521 196.782C60.5469 195.277 61.6792 193.972 63.1813 193.867L79.1593 192.75C80.6613 192.645 81.9643 193.78 82.0695 195.284C82.1747 196.789 81.0423 198.094 79.5403 198.199L63.5623 199.316C62.0602 199.421 60.7573 198.286 60.6521 196.782Z" fill="black" fill-opacity="0.05"/>
<path d="M83.4293 195.189C83.3241 193.684 84.4564 192.38 85.9585 192.275L95.1373 191.633C96.6394 191.528 97.9423 192.662 98.0475 194.167C98.1527 195.671 97.0204 196.976 95.5183 197.081L86.3395 197.723C84.8374 197.828 83.5345 196.694 83.4293 195.189Z" fill="black" fill-opacity="0.05"/>
<path d="M99.4073 194.072C99.3021 192.567 100.434 191.262 101.937 191.157L114.175 190.301C115.677 190.196 116.98 191.331 117.085 192.836C117.19 194.34 116.058 195.645 114.556 195.75L102.318 196.606C100.815 196.711 99.5126 195.576 99.4073 194.072Z" fill="black" fill-opacity="0.05"/>
<path d="M118.445 192.74C118.34 191.236 119.472 189.931 120.974 189.826L131.513 189.089C133.015 188.984 134.318 190.119 134.423 191.623C134.528 193.128 133.396 194.433 131.894 194.538L121.355 195.275C119.853 195.38 118.55 194.245 118.445 192.74Z" fill="black" fill-opacity="0.05"/>
<path d="M61.176 204.274C61.0708 202.769 62.2031 201.464 63.7051 201.359L67.4447 201.098C68.9467 200.993 70.2496 202.127 70.3548 203.632C70.46 205.136 69.3277 206.441 67.8257 206.546L64.0861 206.808C62.5841 206.913 61.2812 205.778 61.176 204.274Z" fill="black" fill-opacity="0.05"/>
<path d="M71.7147 203.537C71.6095 202.032 72.7418 200.727 74.2438 200.622L83.4227 199.98C84.9247 199.875 86.2277 201.01 86.3329 202.514C86.4381 204.019 85.3057 205.324 83.8037 205.429L74.6248 206.071C73.1228 206.176 71.8199 205.041 71.7147 203.537Z" fill="black" fill-opacity="0.05"/>
<path d="M87.6927 202.419C87.5875 200.915 88.7199 199.61 90.2219 199.505L105.52 198.435C107.022 198.33 108.325 199.465 108.43 200.969C108.535 202.474 107.403 203.779 105.901 203.884L90.6029 204.953C89.1009 205.058 87.7979 203.924 87.6927 202.419Z" fill="black" fill-opacity="0.05"/>
<path d="M61.6998 211.765C61.5946 210.261 62.727 208.956 64.229 208.851L76.8075 207.971C78.3095 207.866 79.6124 209.001 79.7176 210.505C79.8228 212.01 78.6905 213.315 77.1885 213.42L64.61 214.299C63.108 214.404 61.805 213.27 61.6998 211.765Z" fill="black" fill-opacity="0.05"/>
<path d="M81.0775 210.41C80.9723 208.906 82.1046 207.601 83.6066 207.496L99.9246 206.355C101.427 206.25 102.73 207.384 102.835 208.889C102.94 210.393 101.808 211.698 100.306 211.803L83.9876 212.944C82.4856 213.049 81.1827 211.915 81.0775 210.41Z" fill="black" fill-opacity="0.05"/>
<g filter="url(#filter4_dd_3693_87059)">
<path d="M130.092 2.99951C131.371 2.91007 132.634 3.32415 133.612 4.15338L174.252 38.6092C175.227 39.4362 175.828 40.6219 175.917 41.8977C174.849 39.5604 172.443 38.1308 169.88 38.3101L150.499 39.6653C146.03 39.9778 143.795 40.1341 142.027 39.3836C140.472 38.7235 139.166 37.588 138.295 36.1399C137.306 34.4936 137.15 32.2589 136.837 27.7893L135.548 9.35451C135.332 6.26372 133.114 3.68063 130.092 2.99951Z" fill="white"/>
<path d="M130.092 2.99951C131.371 2.91007 132.634 3.32415 133.612 4.15338L174.252 38.6092C175.227 39.4362 175.828 40.6219 175.917 41.8977C174.849 39.5604 172.443 38.1308 169.88 38.3101L150.499 39.6653C146.03 39.9778 143.795 40.1341 142.027 39.3836C140.472 38.7235 139.166 37.588 138.295 36.1399C137.306 34.4936 137.15 32.2589 136.837 27.7893L135.548 9.35451C135.332 6.26372 133.114 3.68063 130.092 2.99951Z" fill="url(#paint4_linear_3693_87059)" fill-opacity="0.5"/>
</g>
</g>
<g filter="url(#filter5_ddddi_3693_87059)">
<path d="M71.5884 24.0608C71.7448 19.5831 71.823 17.3442 72.7541 15.6644C73.5732 14.1868 74.839 13.0064 76.3701 12.2924C78.1108 11.4807 80.3497 11.5589 84.8274 11.7153L166.269 14.5593C168.191 14.6264 169.152 14.66 170.051 14.9056C170.848 15.1233 171.606 15.4632 172.299 15.9131C173.08 16.4205 173.745 17.1155 175.074 18.5056L206.842 51.7304C208.218 53.169 208.906 53.8883 209.387 54.7214C209.813 55.4601 210.119 56.2621 210.292 57.0973C210.487 58.0393 210.452 59.0339 210.383 61.023L205.835 191.248C205.679 195.725 205.601 197.964 204.67 199.644C203.851 201.122 202.585 202.302 201.054 203.016C199.313 203.828 197.074 203.75 192.597 203.593L78.2663 199.601C73.7886 199.444 71.5497 199.366 69.8699 198.435C68.3923 197.616 67.2119 196.35 66.4979 194.819C65.6862 193.078 65.7644 190.84 65.9208 186.362L71.5884 24.0608Z" fill="white"/>
<path d="M71.5884 24.0608C71.7448 19.5831 71.823 17.3442 72.7541 15.6644C73.5732 14.1868 74.839 13.0064 76.3701 12.2924C78.1108 11.4807 80.3497 11.5589 84.8274 11.7153L166.269 14.5593C168.191 14.6264 169.152 14.66 170.051 14.9056C170.848 15.1233 171.606 15.4632 172.299 15.9131C173.08 16.4205 173.745 17.1155 175.074 18.5056L206.842 51.7304C208.218 53.169 208.906 53.8883 209.387 54.7214C209.813 55.4601 210.119 56.2621 210.292 57.0973C210.487 58.0393 210.452 59.0339 210.383 61.023L205.835 191.248C205.679 195.725 205.601 197.964 204.67 199.644C203.851 201.122 202.585 202.302 201.054 203.016C199.313 203.828 197.074 203.75 192.597 203.593L78.2663 199.601C73.7886 199.444 71.5497 199.366 69.8699 198.435C68.3923 197.616 67.2119 196.35 66.4979 194.819C65.6862 193.078 65.7644 190.84 65.9208 186.362L71.5884 24.0608Z" fill="url(#paint5_linear_3693_87059)" fill-opacity="0.08"/>
<path d="M72.0881 24.0782C72.1666 21.8311 72.2248 20.1759 72.3774 18.8715C72.5292 17.5729 72.7706 16.666 73.1914 15.9068C73.9593 14.5215 75.146 13.4149 76.5815 12.7456C77.3681 12.3787 78.2897 12.2012 79.5957 12.1403C80.9075 12.0791 82.5628 12.1365 84.8099 12.215L166.252 15.059C168.197 15.1269 169.09 15.1612 169.919 15.3879C170.666 15.592 171.377 15.9107 172.027 16.3324C172.748 16.8008 173.367 17.4442 174.713 18.8511L206.481 52.076C207.873 53.5321 208.51 54.2025 208.954 54.9715C209.353 55.6639 209.64 56.4159 209.802 57.1988C209.983 58.0683 209.954 58.9922 209.883 61.0056L205.336 191.23C205.257 193.477 205.199 195.133 205.047 196.437C204.895 197.736 204.653 198.643 204.232 199.402C203.465 200.787 202.278 201.894 200.842 202.563C200.056 202.93 199.134 203.107 197.828 203.168C196.516 203.229 194.861 203.172 192.614 203.094L78.2837 199.101C76.0366 199.023 74.3814 198.964 73.077 198.812C71.7784 198.66 70.8715 198.419 70.1123 197.998L69.8699 198.435L70.1123 197.998C68.727 197.23 67.6204 196.043 66.9511 194.608C66.5842 193.821 66.4067 192.9 66.3458 191.594C66.2846 190.282 66.342 188.626 66.4205 186.379L72.0881 24.0782Z" stroke="white"/>
</g>
<mask id="mask3_3693_87059" style="mask-type:alpha" maskUnits="userSpaceOnUse" x="65" y="11" width="146" height="193">
<path d="M71.5884 24.0608C71.7448 19.5831 71.823 17.3442 72.7541 15.6644C73.5732 14.1868 74.839 13.0064 76.3701 12.2924C78.1108 11.4807 80.3497 11.5589 84.8274 11.7153L165.768 14.5418C167.691 14.6089 168.652 14.6425 169.551 14.8882C170.348 15.106 171.106 15.446 171.799 15.8961C172.581 16.4037 173.245 17.099 174.575 18.4895L206.826 52.2304C208.201 53.6689 208.889 54.3881 209.37 55.2212C209.796 55.9597 210.101 56.7616 210.275 57.5966C210.47 58.5385 210.435 59.5328 210.366 61.5216L205.835 191.248C205.679 195.725 205.601 197.964 204.67 199.644C203.851 201.122 202.585 202.302 201.054 203.016C199.313 203.828 197.074 203.75 192.597 203.593L78.2663 199.601C73.7886 199.444 71.5497 199.366 69.8699 198.435C68.3923 197.616 67.2119 196.35 66.4979 194.819C65.6862 193.078 65.7644 190.84 65.9208 186.362L71.5884 24.0608Z" fill="white"/>
</mask>
<g mask="url(#mask3_3693_87059)">
<g filter="url(#filter6_dd_3693_87059)">
<path d="M168.977 14.6533C170.258 14.6981 171.471 15.242 172.357 16.1689L209.172 54.6839C210.056 55.6083 210.529 56.8503 210.485 58.1284C209.667 55.6924 207.424 54.0191 204.856 53.9294L185.44 53.2514C180.962 53.095 178.723 53.0168 177.043 52.0857C175.566 51.2666 174.385 50.0008 173.671 48.4697C172.86 46.729 172.938 44.4902 173.094 40.0125L173.739 21.5439C173.847 18.4474 171.911 15.6467 168.977 14.6533Z" fill="white"/>
<path d="M168.977 14.6533C170.258 14.6981 171.471 15.242 172.357 16.1689L209.172 54.6839C210.056 55.6083 210.529 56.8503 210.485 58.1284C209.667 55.6924 207.424 54.0191 204.856 53.9294L185.44 53.2514C180.962 53.095 178.723 53.0168 177.043 52.0857C175.566 51.2666 174.385 50.0008 173.671 48.4697C172.86 46.729 172.938 44.4902 173.094 40.0125L173.739 21.5439C173.847 18.4474 171.911 15.6467 168.977 14.6533Z" fill="url(#paint6_linear_3693_87059)" fill-opacity="0.5"/>
</g>
</g>
<mask id="mask4_3693_87059" style="mask-type:alpha" maskUnits="userSpaceOnUse" x="65" y="11" width="146" height="193">
<path d="M71.5884 24.0608C71.7448 19.5831 71.823 17.3442 72.7541 15.6644C73.5732 14.1868 74.839 13.0064 76.3701 12.2924C78.1108 11.4807 80.3497 11.5589 84.8274 11.7153L165.768 14.5418C167.691 14.6089 168.652 14.6425 169.551 14.8882C170.348 15.106 171.106 15.446 171.799 15.8961C172.581 16.4037 173.245 17.099 174.575 18.4895L206.826 52.2304C208.201 53.6689 208.889 54.3881 209.37 55.2212C209.796 55.9597 210.101 56.7616 210.275 57.5966C210.47 58.5385 210.435 59.5328 210.366 61.5216L205.835 191.248C205.679 195.725 205.601 197.964 204.67 199.644C203.851 201.122 202.585 202.302 201.054 203.016C199.313 203.828 197.074 203.75 192.597 203.593L78.2663 199.601C73.7886 199.444 71.5497 199.366 69.8699 198.435C68.3923 197.616 67.2119 196.35 66.4979 194.819C65.6862 193.078 65.7644 190.84 65.9208 186.362L71.5884 24.0608Z" fill="white"/>
</mask>
<g mask="url(#mask4_3693_87059)">
<path d="M83.4379 35.9275C83.4905 34.4202 84.7531 33.2408 86.2579 33.2934L101.925 33.8405C103.429 33.893 104.607 35.1576 104.554 36.6649C104.501 38.1722 103.239 39.3516 101.734 39.299L86.0672 38.7519C84.5625 38.6994 83.3853 37.4349 83.4379 35.9275Z" fill="black" fill-opacity="0.16"/>
<path d="M83.1758 43.433C83.2284 41.9257 84.491 40.7463 85.9958 40.7989L101.662 41.346C103.167 41.3985 104.344 42.6631 104.292 44.1704C104.239 45.6777 102.977 46.8571 101.472 46.8045L85.8051 46.2574C84.3004 46.2049 83.1232 44.9404 83.1758 43.433Z" fill="black" fill-opacity="0.05"/>
<path d="M105.654 44.218C105.707 42.7106 106.969 41.5313 108.474 41.5839L127.206 42.238C128.711 42.2905 129.888 43.5551 129.835 45.0624C129.783 46.5697 128.52 47.7491 127.015 47.6965L108.283 47.0424C106.779 46.9899 105.602 45.7253 105.654 44.218Z" fill="black" fill-opacity="0.05"/>
<path d="M131.198 45.11C131.25 43.6026 132.513 42.4233 134.018 42.4759L141.851 42.7494C143.356 42.802 144.533 44.0665 144.48 45.5738C144.428 47.0812 143.165 48.2605 141.66 48.208L133.827 47.9344C132.322 47.8819 131.145 46.6173 131.198 45.11Z" fill="black" fill-opacity="0.05"/>
<path d="M145.843 45.6214C145.895 44.1141 147.158 42.9347 148.663 42.9873L163.308 43.4987C164.812 43.5512 165.99 44.8158 165.937 46.3231C165.884 47.8304 164.622 49.0098 163.117 48.9572L148.472 48.4458C146.967 48.3933 145.79 47.1287 145.843 45.6214Z" fill="black" fill-opacity="0.05"/>
<path d="M167.299 46.3707C167.352 44.8633 168.614 43.684 170.119 43.7366L185.786 44.2836C187.291 44.3362 188.468 45.6007 188.415 47.1081C188.363 48.6154 187.1 49.7947 185.595 49.7422L169.929 49.1951C168.424 49.1426 167.247 47.878 167.299 46.3707Z" fill="black" fill-opacity="0.05"/>
<path d="M189.778 47.1556C189.83 45.6483 191.093 44.469 192.598 44.5215L198.728 44.7356C200.233 44.7881 201.41 46.0527 201.357 47.56C201.305 49.0673 200.042 50.2467 198.537 50.1941L192.407 49.9801C190.902 49.9275 189.725 48.663 189.778 47.1556Z" fill="black" fill-opacity="0.05"/>
<path d="M82.9137 50.9385C82.9663 49.4312 84.2289 48.2518 85.7337 48.3044L105.487 48.9942C106.992 49.0468 108.169 50.3113 108.117 51.8186C108.064 53.326 106.802 54.5053 105.297 54.4528L85.543 53.7629C84.0383 53.7104 82.8611 52.4459 82.9137 50.9385Z" fill="black" fill-opacity="0.05"/>
<path d="M109.479 51.8662C109.532 50.3589 110.794 49.1795 112.299 49.2321L118.089 49.4343C119.594 49.4868 120.771 50.7514 120.718 52.2587C120.666 53.766 119.403 54.9454 117.898 54.8928L112.108 54.6906C110.604 54.6381 109.426 53.3735 109.479 51.8662Z" fill="black" fill-opacity="0.05"/>
<path d="M122.081 52.3063C122.133 50.7989 123.396 49.6196 124.9 49.6721L132.734 49.9457C134.239 49.9982 135.416 51.2628 135.363 52.7701C135.311 54.2774 134.048 55.4568 132.543 55.4042L124.71 55.1307C123.205 55.0781 122.028 53.8136 122.081 52.3063Z" fill="black" fill-opacity="0.05"/>
<path d="M136.725 52.8177C136.778 51.3103 138.041 50.131 139.545 50.1835L160.321 50.909C161.826 50.9616 163.003 52.2261 162.95 53.7335C162.898 55.2408 161.635 56.4201 160.13 56.3676L139.355 55.6421C137.85 55.5895 136.673 54.325 136.725 52.8177Z" fill="black" fill-opacity="0.05"/>
<path d="M164.313 53.781C164.365 52.2737 165.628 51.0944 167.133 51.1469L185.864 51.801C187.369 51.8536 188.546 53.1181 188.494 54.6255C188.441 56.1328 187.179 57.3121 185.674 57.2596L166.942 56.6055C165.437 56.5529 164.26 55.2884 164.313 53.781Z" fill="black" fill-opacity="0.05"/>
<path d="M82.4372 64.5849C82.4898 63.0776 83.7523 61.8982 85.2571 61.9508L115.228 62.9974C116.733 63.0499 117.91 64.3145 117.858 65.8218C117.805 67.3291 116.542 68.5085 115.038 68.4559L85.0665 67.4093C83.5617 67.3568 82.3845 66.0922 82.4372 64.5849Z" fill="black" fill-opacity="0.16"/>
<path d="M82.1751 72.0904C82.2277 70.5831 83.4902 69.4037 84.995 69.4563L88.4008 69.5752C89.9056 69.6278 91.0828 70.8923 91.0302 72.3996C90.9775 73.907 89.715 75.0863 88.2102 75.0338L84.8044 74.9148C83.2996 74.8623 82.1224 73.5977 82.1751 72.0904Z" fill="black" fill-opacity="0.05"/>
<path d="M92.3925 72.4472C92.4451 70.9399 93.7077 69.7605 95.2124 69.8131L110.879 70.3602C112.384 70.4127 113.561 71.6773 113.509 73.1846C113.456 74.6919 112.193 75.8713 110.689 75.8187L95.0218 75.2716C93.517 75.2191 92.3399 73.9545 92.3925 72.4472Z" fill="black" fill-opacity="0.05"/>
<path d="M114.871 73.2322C114.923 71.7248 116.186 70.5455 117.691 70.598L139.147 71.3473C140.652 71.3999 141.829 72.6644 141.777 74.1717C141.724 75.6791 140.462 76.8584 138.957 76.8059L117.5 76.0566C115.995 76.004 114.818 74.7395 114.871 73.2322Z" fill="black" fill-opacity="0.05"/>
<path d="M143.139 74.2193C143.192 72.712 144.454 71.5326 145.959 71.5852L159.242 72.049C160.746 72.1016 161.924 73.3661 161.871 74.8734C161.818 76.3808 160.556 77.5601 159.051 77.5076L145.768 77.0437C144.264 76.9912 143.086 75.7266 143.139 74.2193Z" fill="black" fill-opacity="0.05"/>
<path d="M163.233 74.921C163.286 73.4137 164.549 72.2343 166.053 72.2869L180.017 72.7745C181.522 72.8271 182.699 74.0916 182.646 75.5989C182.594 77.1063 181.331 78.2856 179.826 78.2331L165.863 77.7454C164.358 77.6929 163.181 76.4284 163.233 74.921Z" fill="black" fill-opacity="0.05"/>
<path d="M184.009 75.6465C184.061 74.1392 185.324 72.9598 186.829 73.0124L193.64 73.2503C195.145 73.3028 196.322 74.5673 196.27 76.0747C196.217 77.582 194.955 78.7614 193.45 78.7088L186.638 78.4709C185.133 78.4184 183.956 77.1539 184.009 75.6465Z" fill="black" fill-opacity="0.05"/>
<path d="M81.913 79.5959C81.9656 78.0886 83.2281 76.9092 84.7329 76.9618L88.8199 77.1045C90.3247 77.157 91.5019 78.4216 91.4492 79.9289C91.3966 81.4363 90.1341 82.6156 88.6293 82.563L84.5423 82.4203C83.0375 82.3678 81.8603 81.1032 81.913 79.5959Z" fill="black" fill-opacity="0.05"/>
<path d="M92.8116 79.9765C92.8642 78.4692 94.1267 77.2898 95.6315 77.3424L101.081 77.5327C102.586 77.5852 103.763 78.8497 103.71 80.3571C103.658 81.8644 102.395 83.0438 100.89 82.9912L95.4409 82.8009C93.9361 82.7484 92.7589 81.4838 92.8116 79.9765Z" fill="black" fill-opacity="0.05"/>
<path d="M81.4364 93.2423C81.4891 91.7349 82.7516 90.5556 84.2564 90.6082L118.655 91.8094C120.16 91.8619 121.337 93.1265 121.284 94.6338C121.232 96.1411 119.969 97.3205 118.464 97.2679L84.0658 96.0667C82.561 96.0142 81.3838 94.7496 81.4364 93.2423Z" fill="black" fill-opacity="0.16"/>
<path d="M81.1743 100.748C81.227 99.2404 82.4895 98.0611 83.9943 98.1137L102.726 98.7678C104.231 98.8203 105.408 100.085 105.356 101.592C105.303 103.1 104.04 104.279 102.536 104.226L83.8037 103.572C82.2989 103.52 81.1217 102.255 81.1743 100.748Z" fill="black" fill-opacity="0.05"/>
<path d="M106.718 101.64C106.771 100.132 108.033 98.9531 109.538 99.0057L115.668 99.2197C117.173 99.2723 118.35 100.537 118.298 102.044C118.245 103.551 116.982 104.731 115.478 104.678L109.347 104.464C107.842 104.412 106.665 103.147 106.718 101.64Z" fill="black" fill-opacity="0.05"/>
<path d="M119.66 102.092C119.713 100.584 120.975 99.4051 122.48 99.4576L137.125 99.969C138.63 100.022 139.807 101.286 139.754 102.793C139.702 104.301 138.439 105.48 136.934 105.428L122.289 104.916C120.785 104.864 119.607 103.599 119.66 102.092Z" fill="black" fill-opacity="0.05"/>
<path d="M141.117 102.841C141.169 101.334 142.432 100.154 143.937 100.207L155.516 100.611C157.021 100.664 158.198 101.928 158.146 103.436C158.093 104.943 156.83 106.122 155.326 106.07L143.746 105.665C142.241 105.613 141.064 104.348 141.117 102.841Z" fill="black" fill-opacity="0.05"/>
<path d="M159.508 103.483C159.561 101.976 160.823 100.797 162.328 100.849L181.4 101.515C182.905 101.568 184.082 102.832 184.03 104.34C183.977 105.847 182.715 107.026 181.21 106.974L162.137 106.308C160.633 106.255 159.455 104.991 159.508 103.483Z" fill="black" fill-opacity="0.05"/>
<path d="M80.9122 108.253C80.9649 106.746 82.2274 105.567 83.7322 105.619L95.3119 106.024C96.8167 106.076 97.9939 107.341 97.9413 108.848C97.8886 110.355 96.6261 111.535 95.1213 111.482L83.5416 111.078C82.0368 111.025 80.8596 109.761 80.9122 108.253Z" fill="black" fill-opacity="0.05"/>
<path d="M99.3036 108.896C99.3562 107.388 100.619 106.209 102.124 106.261L120.174 106.892C121.679 106.944 122.856 108.209 122.804 109.716C122.751 111.224 121.489 112.403 119.984 112.35L101.933 111.72C100.428 111.667 99.251 110.403 99.3036 108.896Z" fill="black" fill-opacity="0.05"/>
<path d="M80.6501 115.759C80.7028 114.251 81.9653 113.072 83.4701 113.125L105.267 113.886C106.772 113.938 107.949 115.203 107.897 116.71C107.844 118.218 106.581 119.397 105.077 119.344L83.2795 118.583C81.7747 118.531 80.5975 117.266 80.6501 115.759Z" fill="black" fill-opacity="0.05"/>
<path d="M109.259 116.758C109.312 115.25 110.574 114.071 112.079 114.124L118.891 114.362C120.395 114.414 121.572 115.679 121.52 117.186C121.467 118.693 120.205 119.873 118.7 119.82L111.888 119.582C110.383 119.53 109.206 118.265 109.259 116.758Z" fill="black" fill-opacity="0.05"/>
<path d="M80.1736 129.405C80.2262 127.898 81.4888 126.718 82.9935 126.771L102.747 127.461C104.252 127.513 105.429 128.778 105.377 130.285C105.324 131.793 104.061 132.972 102.557 132.919L82.8029 132.23C81.2981 132.177 80.1209 130.913 80.1736 129.405Z" fill="black" fill-opacity="0.16"/>
<path d="M79.9115 136.911C79.9641 135.403 81.2267 134.224 82.7314 134.277L102.145 134.954C103.649 135.007 104.827 136.272 104.774 137.779C104.721 139.286 103.459 140.466 101.954 140.413L82.5408 139.735C81.036 139.683 79.8588 138.418 79.9115 136.911Z" fill="black" fill-opacity="0.05"/>
<path d="M106.136 137.826C106.189 136.319 107.451 135.14 108.956 135.192L118.492 135.525C119.997 135.578 121.174 136.842 121.122 138.35C121.069 139.857 119.807 141.036 118.302 140.984L108.766 140.651C107.261 140.598 106.084 139.334 106.136 137.826Z" fill="black" fill-opacity="0.05"/>
<path d="M122.484 138.397C122.537 136.89 123.799 135.711 125.304 135.763L137.565 136.191C139.07 136.244 140.247 137.508 140.194 139.016C140.142 140.523 138.879 141.702 137.374 141.65L125.113 141.222C123.609 141.169 122.431 139.905 122.484 138.397Z" fill="black" fill-opacity="0.05"/>
<path d="M141.557 139.063C141.609 137.556 142.872 136.377 144.377 136.429L160.043 136.976C161.548 137.029 162.725 138.293 162.673 139.801C162.62 141.308 161.357 142.487 159.853 142.435L144.186 141.888C142.681 141.835 141.504 140.571 141.557 139.063Z" fill="black" fill-opacity="0.05"/>
<path d="M164.035 139.848C164.088 138.341 165.35 137.162 166.855 137.214L180.819 137.702C182.324 137.754 183.501 139.019 183.448 140.526C183.395 142.034 182.133 143.213 180.628 143.16L166.664 142.673C165.16 142.62 163.982 141.356 164.035 139.848Z" fill="black" fill-opacity="0.05"/>
<path d="M79.6494 144.416C79.702 142.909 80.9646 141.73 82.4693 141.782L99.839 142.389C101.344 142.441 102.521 143.706 102.468 145.213C102.416 146.72 101.153 147.9 99.6484 147.847L82.2787 147.241C80.7739 147.188 79.5968 145.924 79.6494 144.416Z" fill="black" fill-opacity="0.05"/>
<path d="M103.831 145.261C103.883 143.753 105.146 142.574 106.651 142.626L121.296 143.138C122.8 143.19 123.978 144.455 123.925 145.962C123.872 147.47 122.61 148.649 121.105 148.596L106.46 148.085C104.955 148.032 103.778 146.768 103.831 145.261Z" fill="black" fill-opacity="0.05"/>
<path d="M125.287 146.01C125.34 144.503 126.602 143.323 128.107 143.376L142.412 143.875C143.916 143.928 145.094 145.192 145.041 146.7C144.988 148.207 143.726 149.386 142.221 149.334L127.917 148.834C126.412 148.782 125.235 147.517 125.287 146.01Z" fill="black" fill-opacity="0.05"/>
<path d="M79.1728 158.063C79.2255 156.555 80.488 155.376 81.9928 155.428L115.029 156.582C116.534 156.635 117.711 157.899 117.658 159.406C117.606 160.914 116.343 162.093 114.839 162.041L81.8022 160.887C80.2974 160.834 79.1202 159.57 79.1728 158.063Z" fill="black" fill-opacity="0.16"/>
<path d="M78.9107 165.568C78.9634 164.061 80.2259 162.881 81.7307 162.934L90.2452 163.231C91.75 163.284 92.9272 164.548 92.8746 166.056C92.8219 167.563 91.5594 168.742 90.0546 168.69L81.5401 168.392C80.0353 168.34 78.8581 167.075 78.9107 165.568Z" fill="black" fill-opacity="0.05"/>
<path d="M94.2369 166.103C94.2895 164.596 95.5521 163.417 97.0568 163.469L116.47 164.147C117.975 164.2 119.152 165.464 119.099 166.971C119.047 168.479 117.784 169.658 116.279 169.606L96.8662 168.928C95.3614 168.875 94.1843 167.611 94.2369 166.103Z" fill="black" fill-opacity="0.05"/>
<path d="M120.462 167.019C120.514 165.512 121.777 164.332 123.282 164.385L137.245 164.873C138.75 164.925 139.927 166.19 139.875 167.697C139.822 169.204 138.56 170.384 137.055 170.331L123.091 169.843C121.586 169.791 120.409 168.526 120.462 167.019Z" fill="black" fill-opacity="0.05"/>
<path d="M141.237 167.745C141.29 166.237 142.552 165.058 144.057 165.11L150.528 165.336C152.033 165.389 153.21 166.653 153.157 168.161C153.105 169.668 151.842 170.847 150.337 170.795L143.866 170.569C142.362 170.516 141.184 169.252 141.237 167.745Z" fill="black" fill-opacity="0.05"/>
<path d="M154.52 168.208C154.572 166.701 155.835 165.522 157.34 165.574L178.115 166.3C179.62 166.352 180.797 167.617 180.744 169.124C180.692 170.631 179.429 171.811 177.925 171.758L157.149 171.033C155.644 170.98 154.467 169.716 154.52 168.208Z" fill="black" fill-opacity="0.05"/>
<path d="M78.6486 173.074C78.7013 171.566 79.9638 170.387 81.4686 170.439L100.541 171.105C102.046 171.158 103.223 172.423 103.17 173.93C103.118 175.437 101.855 176.617 100.351 176.564L81.278 175.898C79.7732 175.845 78.596 174.581 78.6486 173.074Z" fill="black" fill-opacity="0.05"/>
<path d="M104.533 173.977C104.585 172.47 105.848 171.291 107.353 171.343L125.404 171.974C126.908 172.026 128.086 173.291 128.033 174.798C127.98 176.305 126.718 177.485 125.213 177.432L107.162 176.802C105.657 176.749 104.48 175.485 104.533 173.977Z" fill="black" fill-opacity="0.05"/>
<path d="M129.395 174.846C129.448 173.338 130.71 172.159 132.215 172.212L137.324 172.39C138.829 172.442 140.006 173.707 139.953 175.214C139.901 176.722 138.638 177.901 137.133 177.848L132.025 177.67C130.52 177.618 129.343 176.353 129.395 174.846Z" fill="black" fill-opacity="0.05"/>
<path d="M78.3866 180.579C78.4392 179.072 79.7017 177.892 81.2065 177.945L96.8732 178.492C98.378 178.545 99.5552 179.809 99.5026 181.316C99.4499 182.824 98.1874 184.003 96.6826 183.951L81.0159 183.403C79.5111 183.351 78.3339 182.086 78.3866 180.579Z" fill="black" fill-opacity="0.05"/>
<path d="M100.865 181.364C100.918 179.857 102.18 178.677 103.685 178.73L111.859 179.015C113.364 179.068 114.541 180.332 114.488 181.84C114.435 183.347 113.173 184.526 111.668 184.474L103.494 184.188C101.989 184.136 100.812 182.871 100.865 181.364Z" fill="black" fill-opacity="0.05"/>
<path d="M77.91 194.225C77.9626 192.718 79.2252 191.539 80.73 191.591L109.679 192.602C111.184 192.655 112.361 193.919 112.309 195.427C112.256 196.934 110.994 198.113 109.489 198.061L80.5393 197.05C79.0346 196.997 77.8574 195.733 77.91 194.225Z" fill="black" fill-opacity="0.16"/>
<path d="M77.6479 201.731C77.7005 200.224 78.9631 199.044 80.4679 199.097L96.4752 199.656C97.98 199.708 99.1572 200.973 99.1045 202.48C99.0519 203.988 97.7893 205.167 96.2846 205.114L80.2773 204.555C78.7725 204.503 77.5953 203.238 77.6479 201.731Z" fill="black" fill-opacity="0.05"/>
<path d="M100.467 202.528C100.519 201.02 101.782 199.841 103.287 199.894L112.482 200.215C113.987 200.267 115.164 201.532 115.112 203.039C115.059 204.547 113.797 205.726 112.292 205.673L103.096 205.352C101.591 205.3 100.414 204.035 100.467 202.528Z" fill="black" fill-opacity="0.05"/>
<path d="M116.474 203.087C116.527 201.579 117.789 200.4 119.294 200.453L131.555 200.881C133.06 200.933 134.237 202.198 134.184 203.705C134.132 205.213 132.869 206.392 131.364 206.339L119.103 205.911C117.599 205.859 116.422 204.594 116.474 203.087Z" fill="black" fill-opacity="0.05"/>
<path d="M135.547 203.753C135.599 202.245 136.862 201.066 138.367 201.119L148.925 201.487C150.429 201.54 151.607 202.804 151.554 204.312C151.501 205.819 150.239 206.998 148.734 206.946L138.176 206.577C136.671 206.525 135.494 205.26 135.547 203.753Z" fill="black" fill-opacity="0.05"/>
<path d="M77.3858 209.236C77.4385 207.729 78.701 206.55 80.2058 206.602L83.9522 206.733C85.4569 206.786 86.6341 208.05 86.5815 209.558C86.5289 211.065 85.2663 212.244 83.7615 212.192L80.0152 212.061C78.5104 212.008 77.3332 210.744 77.3858 209.236Z" fill="black" fill-opacity="0.05"/>
<path d="M87.9438 209.605C87.9965 208.098 89.259 206.918 90.7638 206.971L99.9595 207.292C101.464 207.345 102.641 208.609 102.589 210.117C102.536 211.624 101.274 212.803 99.7689 212.751L90.5732 212.43C89.0684 212.377 87.8912 211.112 87.9438 209.605Z" fill="black" fill-opacity="0.05"/>
<path d="M103.951 210.164C104.004 208.657 105.266 207.477 106.771 207.53L122.097 208.065C123.602 208.118 124.779 209.382 124.727 210.89C124.674 212.397 123.411 213.576 121.907 213.524L106.58 212.989C105.076 212.936 103.898 211.671 103.951 210.164Z" fill="black" fill-opacity="0.05"/>
<path d="M77.1237 216.742C77.1764 215.235 78.4389 214.055 79.9437 214.108L92.5452 214.548C94.05 214.6 95.2271 215.865 95.1745 217.372C95.1219 218.88 93.8593 220.059 92.3546 220.006L79.7531 219.566C78.2483 219.514 77.0711 218.249 77.1237 216.742Z" fill="black" fill-opacity="0.05"/>
<path d="M96.5368 217.42C96.5895 215.913 97.852 214.733 99.3568 214.786L115.705 215.357C117.209 215.409 118.387 216.674 118.334 218.181C118.281 219.688 117.019 220.868 115.514 220.815L99.1662 220.244C97.6614 220.192 96.4842 218.927 96.5368 217.42Z" fill="black" fill-opacity="0.05"/>
<g filter="url(#filter7_dd_3693_87059)">
<path d="M168.977 14.6533C170.258 14.6981 171.471 15.242 172.357 16.1689L209.172 54.6839C210.056 55.6083 210.529 56.8503 210.485 58.1284C209.667 55.6924 207.424 54.0191 204.856 53.9294L185.44 53.2514C180.962 53.095 178.723 53.0168 177.043 52.0857C175.566 51.2666 174.385 50.0008 173.671 48.4697C172.86 46.729 172.938 44.4902 173.094 40.0125L173.739 21.5439C173.847 18.4474 171.911 15.6467 168.977 14.6533Z" fill="white"/>
<path d="M168.977 14.6533C170.258 14.6981 171.471 15.242 172.357 16.1689L209.172 54.6839C210.056 55.6083 210.529 56.8503 210.485 58.1284C209.667 55.6924 207.424 54.0191 204.856 53.9294L185.44 53.2514C180.962 53.095 178.723 53.0168 177.043 52.0857C175.566 51.2666 174.385 50.0008 173.671 48.4697C172.86 46.729 172.938 44.4902 173.094 40.0125L173.739 21.5439C173.847 18.4474 171.911 15.6467 168.977 14.6533Z" fill="url(#paint7_linear_3693_87059)" fill-opacity="0.5"/>
</g>
</g>
<defs>
<filter id="filter0_ddddi_3693_87059" x="-3.19531" y="18.8594" width="187.814" height="222.183" filterUnits="userSpaceOnUse" color-interpolation-filters="sRGB">
<feFlood flood-opacity="0" result="BackgroundImageFix"/>
<feColorMatrix in="SourceAlpha" type="matrix" values="0 0 0 0 0 0 0 0 0 0 0 0 0 0 0 0 0 0 127 0" result="hardAlpha"/>
<feOffset dy="1"/>
<feGaussianBlur stdDeviation="0.5"/>
<feComposite in2="hardAlpha" operator="out"/>
<feColorMatrix type="matrix" values="0 0 0 0 0.0666667 0 0 0 0 0.00784314 0 0 0 0 0.231373 0 0 0 0.04 0"/>
<feBlend mode="normal" in2="BackgroundImageFix" result="effect1_dropShadow_3693_87059"/>
<feColorMatrix in="SourceAlpha" type="matrix" values="0 0 0 0 0 0 0 0 0 0 0 0 0 0 0 0 0 0 127 0" result="hardAlpha"/>
<feOffset dy="1"/>
<feGaussianBlur stdDeviation="1"/>
<feComposite in2="hardAlpha" operator="out"/>
<feColorMatrix type="matrix" values="0 0 0 0 0.0666667 0 0 0 0 0.00784314 0 0 0 0 0.231373 0 0 0 0.04 0"/>
<feBlend mode="normal" in2="effect1_dropShadow_3693_87059" result="effect2_dropShadow_3693_87059"/>
<feColorMatrix in="SourceAlpha" type="matrix" values="0 0 0 0 0 0 0 0 0 0 0 0 0 0 0 0 0 0 127 0" result="hardAlpha"/>
<feOffset dy="3"/>
<feGaussianBlur stdDeviation="1.5"/>
<feComposite in2="hardAlpha" operator="out"/>
<feColorMatrix type="matrix" values="0 0 0 0 0.0666667 0 0 0 0 0.00784314 0 0 0 0 0.231373 0 0 0 0.04 0"/>
<feBlend mode="normal" in2="effect2_dropShadow_3693_87059" result="effect3_dropShadow_3693_87059"/>
<feColorMatrix in="SourceAlpha" type="matrix" values="0 0 0 0 0 0 0 0 0 0 0 0 0 0 0 0 0 0 127 0" result="hardAlpha"/>
<feOffset dy="12"/>
<feGaussianBlur stdDeviation="2.5"/>
<feComposite in2="hardAlpha" operator="out"/>
<feColorMatrix type="matrix" values="0 0 0 0 0.0666667 0 0 0 0 0.00784314 0 0 0 0 0.231373 0 0 0 0.01 0"/>
<feBlend mode="normal" in2="effect3_dropShadow_3693_87059" result="effect4_dropShadow_3693_87059"/>
<feBlend mode="normal" in="SourceGraphic" in2="effect4_dropShadow_3693_87059" result="shape"/>
<feColorMatrix in="SourceAlpha" type="matrix" values="0 0 0 0 0 0 0 0 0 0 0 0 0 0 0 0 0 0 127 0" result="hardAlpha"/>
<feMorphology radius="2" operator="erode" in="SourceAlpha" result="effect5_innerShadow_3693_87059"/>
<feOffset/>
<feGaussianBlur stdDeviation="2"/>
<feComposite in2="hardAlpha" operator="arithmetic" k2="-1" k3="1"/>
<feColorMatrix type="matrix" values="0 0 0 0 1 0 0 0 0 1 0 0 0 0 1 0 0 0 0.25 0"/>
<feBlend mode="normal" in2="shape" result="effect5_innerShadow_3693_87059"/>
</filter>
<filter id="filter1_dd_3693_87059" x="77.6993" y="14.2779" width="84.824" height="66.9949" filterUnits="userSpaceOnUse" color-interpolation-filters="sRGB">
<feFlood flood-opacity="0" result="BackgroundImageFix"/>
<feColorMatrix in="SourceAlpha" type="matrix" values="0 0 0 0 0 0 0 0 0 0 0 0 0 0 0 0 0 0 127 0" result="hardAlpha"/>
<feOffset dy="1.37255"/>
<feGaussianBlur stdDeviation="2.7451"/>
<feColorMatrix type="matrix" values="0 0 0 0 0 0 0 0 0 0 0 0 0 0 0 0 0 0 0.16 0"/>
<feBlend mode="normal" in2="BackgroundImageFix" result="effect1_dropShadow_3693_87059"/>
<feColorMatrix in="SourceAlpha" type="matrix" values="0 0 0 0 0 0 0 0 0 0 0 0 0 0 0 0 0 0 127 0" result="hardAlpha"/>
<feOffset dy="10.9804"/>
<feGaussianBlur stdDeviation="8.23529"/>
<feColorMatrix type="matrix" values="0 0 0 0 0 0 0 0 0 0 0 0 0 0 0 0 0 0 0.08 0"/>
<feBlend mode="normal" in2="effect1_dropShadow_3693_87059" result="effect2_dropShadow_3693_87059"/>
<feBlend mode="normal" in="SourceGraphic" in2="effect2_dropShadow_3693_87059" result="shape"/>
</filter>
<filter id="filter2_ddddi_3693_87059" x="28.9609" y="2.05225" width="161.506" height="211.622" filterUnits="userSpaceOnUse" color-interpolation-filters="sRGB">
<feFlood flood-opacity="0" result="BackgroundImageFix"/>
<feColorMatrix in="SourceAlpha" type="matrix" values="0 0 0 0 0 0 0 0 0 0 0 0 0 0 0 0 0 0 127 0" result="hardAlpha"/>
<feOffset dy="1"/>
<feGaussianBlur stdDeviation="0.5"/>
<feComposite in2="hardAlpha" operator="out"/>
<feColorMatrix type="matrix" values="0 0 0 0 0.0666667 0 0 0 0 0.00784314 0 0 0 0 0.231373 0 0 0 0.04 0"/>
<feBlend mode="normal" in2="BackgroundImageFix" result="effect1_dropShadow_3693_87059"/>
<feColorMatrix in="SourceAlpha" type="matrix" values="0 0 0 0 0 0 0 0 0 0 0 0 0 0 0 0 0 0 127 0" result="hardAlpha"/>
<feOffset dy="1"/>
<feGaussianBlur stdDeviation="1"/>
<feComposite in2="hardAlpha" operator="out"/>
<feColorMatrix type="matrix" values="0 0 0 0 0.0666667 0 0 0 0 0.00784314 0 0 0 0 0.231373 0 0 0 0.04 0"/>
<feBlend mode="normal" in2="effect1_dropShadow_3693_87059" result="effect2_dropShadow_3693_87059"/>
<feColorMatrix in="SourceAlpha" type="matrix" values="0 0 0 0 0 0 0 0 0 0 0 0 0 0 0 0 0 0 127 0" result="hardAlpha"/>
<feOffset dy="3"/>
<feGaussianBlur stdDeviation="1.5"/>
<feComposite in2="hardAlpha" operator="out"/>
<feColorMatrix type="matrix" values="0 0 0 0 0.0666667 0 0 0 0 0.00784314 0 0 0 0 0.231373 0 0 0 0.04 0"/>
<feBlend mode="normal" in2="effect2_dropShadow_3693_87059" result="effect3_dropShadow_3693_87059"/>
<feColorMatrix in="SourceAlpha" type="matrix" values="0 0 0 0 0 0 0 0 0 0 0 0 0 0 0 0 0 0 127 0" result="hardAlpha"/>
<feOffset dy="12"/>
<feGaussianBlur stdDeviation="2.5"/>
<feComposite in2="hardAlpha" operator="out"/>
<feColorMatrix type="matrix" values="0 0 0 0 0.0666667 0 0 0 0 0.00784314 0 0 0 0 0.231373 0 0 0 0.01 0"/>
<feBlend mode="normal" in2="effect3_dropShadow_3693_87059" result="effect4_dropShadow_3693_87059"/>
<feBlend mode="normal" in="SourceGraphic" in2="effect4_dropShadow_3693_87059" result="shape"/>
<feColorMatrix in="SourceAlpha" type="matrix" values="0 0 0 0 0 0 0 0 0 0 0 0 0 0 0 0 0 0 127 0" result="hardAlpha"/>
<feMorphology radius="2" operator="erode" in="SourceAlpha" result="effect5_innerShadow_3693_87059"/>
<feOffset/>
<feGaussianBlur stdDeviation="2"/>
<feComposite in2="hardAlpha" operator="arithmetic" k2="-1" k3="1"/>
<feColorMatrix type="matrix" values="0 0 0 0 1 0 0 0 0 1 0 0 0 0 1 0 0 0 0.25 0"/>
<feBlend mode="normal" in2="shape" result="effect5_innerShadow_3693_87059"/>
</filter>
<filter id="filter3_dd_3693_87059" x="113.621" y="-2.50289" width="78.7654" height="71.8513" filterUnits="userSpaceOnUse" color-interpolation-filters="sRGB">
<feFlood flood-opacity="0" result="BackgroundImageFix"/>
<feColorMatrix in="SourceAlpha" type="matrix" values="0 0 0 0 0 0 0 0 0 0 0 0 0 0 0 0 0 0 127 0" result="hardAlpha"/>
<feOffset dy="1.37255"/>
<feGaussianBlur stdDeviation="2.7451"/>
<feColorMatrix type="matrix" values="0 0 0 0 0 0 0 0 0 0 0 0 0 0 0 0 0 0 0.16 0"/>
<feBlend mode="normal" in2="BackgroundImageFix" result="effect1_dropShadow_3693_87059"/>
<feColorMatrix in="SourceAlpha" type="matrix" values="0 0 0 0 0 0 0 0 0 0 0 0 0 0 0 0 0 0 127 0" result="hardAlpha"/>
<feOffset dy="10.9804"/>
<feGaussianBlur stdDeviation="8.23529"/>
<feColorMatrix type="matrix" values="0 0 0 0 0 0 0 0 0 0 0 0 0 0 0 0 0 0 0.08 0"/>
<feBlend mode="normal" in2="effect1_dropShadow_3693_87059" result="effect2_dropShadow_3693_87059"/>
<feBlend mode="normal" in="SourceGraphic" in2="effect2_dropShadow_3693_87059" result="shape"/>
</filter>
<filter id="filter4_dd_3693_87059" x="113.621" y="-2.50289" width="78.7654" height="71.8513" filterUnits="userSpaceOnUse" color-interpolation-filters="sRGB">
<feFlood flood-opacity="0" result="BackgroundImageFix"/>
<feColorMatrix in="SourceAlpha" type="matrix" values="0 0 0 0 0 0 0 0 0 0 0 0 0 0 0 0 0 0 127 0" result="hardAlpha"/>
<feOffset dy="1.37255"/>
<feGaussianBlur stdDeviation="2.7451"/>
<feColorMatrix type="matrix" values="0 0 0 0 0 0 0 0 0 0 0 0 0 0 0 0 0 0 0.16 0"/>
<feBlend mode="normal" in2="BackgroundImageFix" result="effect1_dropShadow_3693_87059"/>
<feColorMatrix in="SourceAlpha" type="matrix" values="0 0 0 0 0 0 0 0 0 0 0 0 0 0 0 0 0 0 127 0" result="hardAlpha"/>
<feOffset dy="10.9804"/>
<feGaussianBlur stdDeviation="8.23529"/>
<feColorMatrix type="matrix" values="0 0 0 0 0 0 0 0 0 0 0 0 0 0 0 0 0 0 0.08 0"/>
<feBlend mode="normal" in2="effect1_dropShadow_3693_87059" result="effect2_dropShadow_3693_87059"/>
<feBlend mode="normal" in="SourceGraphic" in2="effect2_dropShadow_3693_87059" result="shape"/>
</filter>
<filter id="filter5_ddddi_3693_87059" x="60.8203" y="10.6147" width="154.617" height="210.079" filterUnits="userSpaceOnUse" color-interpolation-filters="sRGB">
<feFlood flood-opacity="0" result="BackgroundImageFix"/>
<feColorMatrix in="SourceAlpha" type="matrix" values="0 0 0 0 0 0 0 0 0 0 0 0 0 0 0 0 0 0 127 0" result="hardAlpha"/>
<feOffset dy="1"/>
<feGaussianBlur stdDeviation="0.5"/>
<feComposite in2="hardAlpha" operator="out"/>
<feColorMatrix type="matrix" values="0 0 0 0 0.0666667 0 0 0 0 0.00784314 0 0 0 0 0.231373 0 0 0 0.04 0"/>
<feBlend mode="normal" in2="BackgroundImageFix" result="effect1_dropShadow_3693_87059"/>
<feColorMatrix in="SourceAlpha" type="matrix" values="0 0 0 0 0 0 0 0 0 0 0 0 0 0 0 0 0 0 127 0" result="hardAlpha"/>
<feOffset dy="1"/>
<feGaussianBlur stdDeviation="1"/>
<feComposite in2="hardAlpha" operator="out"/>
<feColorMatrix type="matrix" values="0 0 0 0 0.0666667 0 0 0 0 0.00784314 0 0 0 0 0.231373 0 0 0 0.04 0"/>
<feBlend mode="normal" in2="effect1_dropShadow_3693_87059" result="effect2_dropShadow_3693_87059"/>
<feColorMatrix in="SourceAlpha" type="matrix" values="0 0 0 0 0 0 0 0 0 0 0 0 0 0 0 0 0 0 127 0" result="hardAlpha"/>
<feOffset dy="3"/>
<feGaussianBlur stdDeviation="1.5"/>
<feComposite in2="hardAlpha" operator="out"/>
<feColorMatrix type="matrix" values="0 0 0 0 0.0666667 0 0 0 0 0.00784314 0 0 0 0 0.231373 0 0 0 0.04 0"/>
<feBlend mode="normal" in2="effect2_dropShadow_3693_87059" result="effect3_dropShadow_3693_87059"/>
<feColorMatrix in="SourceAlpha" type="matrix" values="0 0 0 0 0 0 0 0 0 0 0 0 0 0 0 0 0 0 127 0" result="hardAlpha"/>
<feOffset dy="12"/>
<feGaussianBlur stdDeviation="2.5"/>
<feComposite in2="hardAlpha" operator="out"/>
<feColorMatrix type="matrix" values="0 0 0 0 0.0666667 0 0 0 0 0.00784314 0 0 0 0 0.231373 0 0 0 0.01 0"/>
<feBlend mode="normal" in2="effect3_dropShadow_3693_87059" result="effect4_dropShadow_3693_87059"/>
<feBlend mode="normal" in="SourceGraphic" in2="effect4_dropShadow_3693_87059" result="shape"/>
<feColorMatrix in="SourceAlpha" type="matrix" values="0 0 0 0 0 0 0 0 0 0 0 0 0 0 0 0 0 0 127 0" result="hardAlpha"/>
<feMorphology radius="2" operator="erode" in="SourceAlpha" result="effect5_innerShadow_3693_87059"/>
<feOffset/>
<feGaussianBlur stdDeviation="2"/>
<feComposite in2="hardAlpha" operator="arithmetic" k2="-1" k3="1"/>
<feColorMatrix type="matrix" values="0 0 0 0 1 0 0 0 0 1 0 0 0 0 1 0 0 0 0.25 0"/>
<feBlend mode="normal" in2="shape" result="effect5_innerShadow_3693_87059"/>
</filter>
<filter id="filter6_dd_3693_87059" x="152.506" y="9.16312" width="74.4529" height="76.4163" filterUnits="userSpaceOnUse" color-interpolation-filters="sRGB">
<feFlood flood-opacity="0" result="BackgroundImageFix"/>
<feColorMatrix in="SourceAlpha" type="matrix" values="0 0 0 0 0 0 0 0 0 0 0 0 0 0 0 0 0 0 127 0" result="hardAlpha"/>
<feOffset dy="1.37255"/>
<feGaussianBlur stdDeviation="2.7451"/>
<feColorMatrix type="matrix" values="0 0 0 0 0 0 0 0 0 0 0 0 0 0 0 0 0 0 0.16 0"/>
<feBlend mode="normal" in2="BackgroundImageFix" result="effect1_dropShadow_3693_87059"/>
<feColorMatrix in="SourceAlpha" type="matrix" values="0 0 0 0 0 0 0 0 0 0 0 0 0 0 0 0 0 0 127 0" result="hardAlpha"/>
<feOffset dy="10.9804"/>
<feGaussianBlur stdDeviation="8.23529"/>
<feColorMatrix type="matrix" values="0 0 0 0 0 0 0 0 0 0 0 0 0 0 0 0 0 0 0.08 0"/>
<feBlend mode="normal" in2="effect1_dropShadow_3693_87059" result="effect2_dropShadow_3693_87059"/>
<feBlend mode="normal" in="SourceGraphic" in2="effect2_dropShadow_3693_87059" result="shape"/>
</filter>
<filter id="filter7_dd_3693_87059" x="152.506" y="9.16312" width="74.4529" height="76.4163" filterUnits="userSpaceOnUse" color-interpolation-filters="sRGB">
<feFlood flood-opacity="0" result="BackgroundImageFix"/>
<feColorMatrix in="SourceAlpha" type="matrix" values="0 0 0 0 0 0 0 0 0 0 0 0 0 0 0 0 0 0 127 0" result="hardAlpha"/>
<feOffset dy="1.37255"/>
<feGaussianBlur stdDeviation="2.7451"/>
<feColorMatrix type="matrix" values="0 0 0 0 0.235294 0 0 0 0 0.235294 0 0 0 0 0.262745 0 0 0 0.12 0"/>
<feBlend mode="normal" in2="BackgroundImageFix" result="effect1_dropShadow_3693_87059"/>
<feColorMatrix in="SourceAlpha" type="matrix" values="0 0 0 0 0 0 0 0 0 0 0 0 0 0 0 0 0 0 127 0" result="hardAlpha"/>
<feOffset dy="10.9804"/>
<feGaussianBlur stdDeviation="8.23529"/>
<feColorMatrix type="matrix" values="0 0 0 0 0.235294 0 0 0 0 0.235294 0 0 0 0 0.262745 0 0 0 0.08 0"/>
<feBlend mode="normal" in2="effect1_dropShadow_3693_87059" result="effect2_dropShadow_3693_87059"/>
<feBlend mode="normal" in="SourceGraphic" in2="effect2_dropShadow_3693_87059" result="shape"/>
</filter>
<linearGradient id="paint0_linear_3693_87059" x1="135.892" y1="9.5118" x2="43.6453" y2="225.406" gradientUnits="userSpaceOnUse">
<stop stop-color="#3C3C43"/>
<stop offset="0.778176" stop-color="#3C3C43" stop-opacity="0"/>
</linearGradient>
<linearGradient id="paint1_linear_3693_87059" x1="122.121" y1="32.4312" x2="108.349" y2="55.351" gradientUnits="userSpaceOnUse">
<stop stop-color="#F2F2F2"/>
<stop offset="1" stop-color="#F2F2F2" stop-opacity="0"/>
</linearGradient>
<linearGradient id="paint2_linear_3693_87059" x1="172.987" y1="0.000206351" x2="44.6521" y2="196.596" gradientUnits="userSpaceOnUse">
<stop stop-color="#3C3C43"/>
<stop offset="0.778176" stop-color="#3C3C43" stop-opacity="0"/>
</linearGradient>
<linearGradient id="paint3_linear_3693_87059" x1="155.445" y1="20.1801" x2="137.902" y2="40.3603" gradientUnits="userSpaceOnUse">
<stop stop-color="#F2F2F2"/>
<stop offset="1" stop-color="#F2F2F2" stop-opacity="0"/>
</linearGradient>
<linearGradient id="paint4_linear_3693_87059" x1="155.445" y1="20.1801" x2="137.902" y2="40.3603" gradientUnits="userSpaceOnUse">
<stop stop-color="#F2F2F2"/>
<stop offset="1" stop-color="#F2F2F2" stop-opacity="0"/>
</linearGradient>
<linearGradient id="paint5_linear_3693_87059" x1="211.95" y1="16.1545" x2="63.7681" y2="198.258" gradientUnits="userSpaceOnUse">
<stop stop-color="#3C3C43"/>
<stop offset="0.778176" stop-color="#3C3C43" stop-opacity="0"/>
</linearGradient>
<linearGradient id="paint6_linear_3693_87059" x1="192.395" y1="34.3899" x2="172.839" y2="52.6259" gradientUnits="userSpaceOnUse">
<stop stop-color="#F2F2F2"/>
<stop offset="1" stop-color="#F2F2F2" stop-opacity="0"/>
</linearGradient>
<linearGradient id="paint7_linear_3693_87059" x1="192.395" y1="34.3899" x2="172.839" y2="52.6259" gradientUnits="userSpaceOnUse">
<stop stop-color="#F2F2F2"/>
<stop offset="1" stop-color="#F2F2F2" stop-opacity="0"/>
</linearGradient>
<clipPath id="clip0_3693_87059">
<rect width="140" height="188" fill="white" transform="translate(0.0507812 43.3809) rotate(-14)"/>
</clipPath>
</defs>
</svg>
