<svg width="16" height="17" viewBox="0 0 16 17" fill="none" xmlns="http://www.w3.org/2000/svg">
<path d="M7.24996 6.5C7.24996 6.91421 7.58575 7.25 7.99996 7.25C8.41418 7.25 8.74996 6.91421 8.74996 6.5H7.24996ZM9.3961 4.94482C9.64174 5.27834 10.1112 5.34959 10.4448 5.10396C10.7783 4.85833 10.8495 4.38883 10.6039 4.05531L9.3961 4.94482ZM5.39609 4.05534C5.15047 4.38887 5.22173 4.85837 5.55526 5.10399C5.88879 5.34961 6.35829 5.27835 6.60391 4.94482L5.39609 4.05534ZM8.74996 6.5V2.5H7.24996V6.5H8.74996ZM7.99996 3.25C7.85696 3.25 7.79271 3.19371 7.85 3.22825C7.8867 3.25037 7.94949 3.29616 8.03821 3.37454C8.21391 3.5298 8.42237 3.7511 8.63129 3.99174C8.83698 4.22865 9.02892 4.46775 9.17035 4.64897C9.24075 4.73919 9.29793 4.81415 9.3372 4.86615C9.35683 4.89213 9.37194 4.91233 9.38196 4.92578C9.38697 4.9325 9.39071 4.93753 9.39309 4.94074C9.39428 4.94235 9.39513 4.9435 9.39564 4.94419C9.39589 4.94453 9.39606 4.94476 9.39613 4.94486C9.39617 4.94492 9.39619 4.94494 9.39618 4.94493C9.39618 4.94493 9.39616 4.9449 9.39616 4.9449C9.39613 4.94486 9.3961 4.94482 10 4.50007C10.6039 4.05531 10.6039 4.05525 10.6038 4.05518C10.6038 4.05515 10.6037 4.05508 10.6037 4.05502C10.6036 4.05489 10.6035 4.05473 10.6033 4.05454C10.6031 4.05416 10.6027 4.05366 10.6022 4.05304C10.6013 4.0518 10.6 4.05009 10.5984 4.04791C10.5952 4.04356 10.5906 4.03736 10.5847 4.02943C10.5729 4.01358 10.5558 3.9908 10.5342 3.9621C10.4908 3.90472 10.4288 3.82343 10.3529 3.72614C10.2016 3.53235 9.99239 3.27144 9.76395 3.00833C9.53875 2.74895 9.28013 2.47024 9.03142 2.25048C8.90792 2.14136 8.76918 2.03089 8.62444 1.94363C8.5003 1.86879 8.27472 1.75 7.99997 1.75L7.99996 3.25ZM6 4.50008C6.60391 4.94482 6.60388 4.94486 6.60385 4.9449C6.60385 4.9449 6.60383 4.94493 6.60383 4.94493C6.60382 4.94494 6.60384 4.94491 6.60388 4.94486C6.60396 4.94475 6.60412 4.94453 6.60438 4.94419C6.60488 4.9435 6.60574 4.94235 6.60693 4.94074C6.60931 4.93753 6.61304 4.9325 6.61805 4.92578C6.62807 4.91233 6.64318 4.89213 6.66281 4.86615C6.70208 4.81415 6.75926 4.73919 6.82966 4.64897C6.97108 4.46774 7.163 4.22864 7.36868 3.99173C7.5776 3.75109 7.78605 3.52979 7.96174 3.37453C8.05045 3.29615 8.11324 3.25037 8.14994 3.22824C8.20722 3.19371 8.14296 3.25 7.99996 3.25L7.99997 1.75C7.72521 1.75 7.49963 1.86879 7.37548 1.94364C7.23075 2.03089 7.092 2.14136 6.96851 2.25049C6.7198 2.47025 6.4612 2.74896 6.236 3.00835C6.00757 3.27146 5.79833 3.53238 5.6471 3.72616C5.57118 3.82346 5.50917 3.90475 5.46583 3.96213C5.44415 3.99084 5.42711 4.01361 5.41529 4.02946C5.40938 4.03739 5.40478 4.04359 5.40156 4.04795C5.39994 4.05012 5.39868 4.05184 5.39776 4.05307C5.39731 4.05369 5.39694 4.05419 5.39666 4.05457C5.39652 4.05476 5.3964 4.05492 5.39631 4.05505C5.39626 4.05511 5.3962 4.05519 5.39618 4.05522C5.39613 4.05528 5.39609 4.05534 6 4.50008Z" fill="#454545"/>
<path d="M6 9.24985C6.41421 9.24985 6.75 8.91406 6.75 8.49985C6.75 8.08563 6.41421 7.74985 6 7.74985V9.24985ZM3.55519 11.1039C3.8887 11.3495 4.35821 11.2783 4.60386 10.9448C4.84951 10.6113 4.77828 10.1418 4.44478 9.89613L3.55519 11.1039ZM4.44473 7.10392C4.77826 6.8583 4.84953 6.38881 4.60392 6.05527C4.3583 5.72174 3.88881 5.65047 3.55527 5.89608L4.44473 7.10392ZM6 7.74985H2V9.24985H6V7.74985ZM1.25 8.49985C1.25 8.7746 1.36878 9.00016 1.44362 9.12431C1.53087 9.26904 1.64133 9.40779 1.75044 9.5313C1.97019 9.78002 2.24889 10.0386 2.50826 10.2639C2.77136 10.4923 3.03226 10.7016 3.22604 10.8528C3.32332 10.9288 3.40461 10.9908 3.46199 11.0341C3.49069 11.0558 3.51346 11.0729 3.52932 11.0847C3.53724 11.0906 3.54344 11.0952 3.5478 11.0984C3.54997 11.1 3.55169 11.1013 3.55293 11.1022C3.55355 11.1027 3.55405 11.103 3.55442 11.1033C3.55461 11.1034 3.55477 11.1036 3.5549 11.1037C3.55496 11.1037 3.55504 11.1038 3.55507 11.1038C3.55514 11.1038 3.55519 11.1039 3.99998 10.5C4.44478 9.89613 4.44482 9.89616 4.44485 9.89619C4.44486 9.89619 4.44488 9.89621 4.44489 9.89621C4.44489 9.89622 4.44487 9.8962 4.44482 9.89616C4.44471 9.89608 4.44449 9.89592 4.44414 9.89566C4.44346 9.89516 4.4423 9.8943 4.4407 9.89311C4.43748 9.89073 4.43245 9.887 4.42573 9.88199C4.41229 9.87197 4.39209 9.85685 4.36611 9.83722C4.31411 9.79794 4.23915 9.74076 4.14894 9.67035C3.96772 9.52892 3.72863 9.33697 3.49173 9.13126C3.2511 8.92232 3.0298 8.71385 2.87455 8.53813C2.79617 8.44941 2.75039 8.38661 2.72826 8.34991C2.69372 8.29261 2.75 8.35686 2.75 8.49984L1.25 8.49985ZM4 6.5C3.55527 5.89608 3.55521 5.89612 3.55515 5.89617C3.55512 5.8962 3.55504 5.89625 3.55498 5.8963C3.55485 5.89639 3.55469 5.89651 3.5545 5.89665C3.55412 5.89693 3.55362 5.8973 3.55301 5.89775C3.55177 5.89867 3.55005 5.89994 3.54788 5.90155C3.54352 5.90477 3.53732 5.90937 3.52939 5.91528C3.51354 5.9271 3.49077 5.94414 3.46206 5.96582C3.40469 6.00915 3.32339 6.07116 3.22611 6.14708C3.03232 6.29829 2.77142 6.50752 2.50832 6.73594C2.24894 6.96112 1.97024 7.21971 1.75048 7.4684C1.64136 7.59189 1.53089 7.73064 1.44363 7.87537C1.36879 7.99952 1.25 8.22509 1.25 8.49985L2.75 8.49984C2.75 8.64284 2.69371 8.7071 2.72824 8.64982C2.75036 8.61313 2.79614 8.55035 2.87452 8.46165C3.02976 8.28596 3.25106 8.07753 3.49168 7.86863C3.72858 7.66297 3.96767 7.47105 4.14889 7.32965C4.2391 7.25925 4.31406 7.20208 4.36606 7.16281C4.39204 7.14319 4.41224 7.12807 4.42568 7.11806C4.4324 7.11305 4.43743 7.10932 4.44065 7.10693C4.44226 7.10574 4.44341 7.10489 4.4441 7.10439C4.44444 7.10413 4.44466 7.10397 4.44477 7.10389C4.44482 7.10385 4.44484 7.10383 4.44484 7.10384C4.44483 7.10384 4.44481 7.10386 4.44481 7.10386C4.44477 7.10389 4.44473 7.10392 4 6.5Z" fill="#454545"/>
<path d="M10 7.74992C9.58579 7.74992 9.25 8.08571 9.25 8.49992C9.25 8.91414 9.58579 9.24992 10 9.24992V7.74992ZM12.4448 5.8961C12.1113 5.65047 11.6418 5.72172 11.3962 6.05525C11.1505 6.38877 11.2218 6.85827 11.5553 7.1039L12.4448 5.8961ZM11.5553 9.89612C11.2218 10.1418 11.1505 10.6113 11.3962 10.9448C11.6418 11.2783 12.1113 11.3495 12.4448 11.1039L11.5553 9.89612ZM14 7.74992H10V9.24992H14V7.74992ZM14.75 8.49992C14.75 8.22517 14.6312 7.9996 14.5564 7.87546C14.4691 7.73073 14.3587 7.59198 14.2495 7.46849C14.0298 7.21978 13.7511 6.96118 13.4917 6.73599C13.2286 6.50757 12.9678 6.29833 12.774 6.14711C12.6767 6.07119 12.5954 6.00917 12.538 5.96584C12.5093 5.94416 12.4866 5.92712 12.4707 5.9153C12.4628 5.90939 12.4566 5.90479 12.4522 5.90157C12.45 5.89996 12.4483 5.89869 12.4471 5.89777C12.4465 5.89732 12.446 5.89695 12.4456 5.89667C12.4454 5.89653 12.4452 5.89641 12.4451 5.89632C12.4451 5.89627 12.445 5.89622 12.4449 5.89619C12.4449 5.89614 12.4448 5.8961 12.0001 6.5C11.5553 7.1039 11.5553 7.10387 11.5552 7.10384C11.5552 7.10384 11.5552 7.10382 11.5552 7.10382C11.5552 7.10381 11.5552 7.10383 11.5553 7.10387C11.5554 7.10395 11.5556 7.10411 11.5559 7.10437C11.5566 7.10487 11.5578 7.10572 11.5594 7.10692C11.5626 7.1093 11.5676 7.11303 11.5744 7.11804C11.5878 7.12806 11.608 7.14317 11.634 7.16279C11.686 7.20207 11.7609 7.25924 11.8511 7.32964C12.0324 7.47105 12.2714 7.66297 12.5083 7.86865C12.7489 8.07756 12.9702 8.286 13.1255 8.46169C13.2039 8.5504 13.2496 8.61319 13.2718 8.64988C13.3063 8.70716 13.25 8.64291 13.25 8.49993L14.75 8.49992ZM12.0001 10.5C12.4448 11.1039 12.4449 11.1038 12.445 11.1038C12.445 11.1038 12.4451 11.1037 12.4451 11.1037C12.4453 11.1036 12.4454 11.1035 12.4456 11.1033C12.446 11.103 12.4465 11.1027 12.4471 11.1022C12.4483 11.1013 12.4501 11.1 12.4522 11.0984C12.4566 11.0952 12.4628 11.0906 12.4707 11.0847C12.4866 11.0729 12.5093 11.0558 12.538 11.0341C12.5954 10.9908 12.6767 10.9288 12.774 10.8528C12.9678 10.7016 13.2287 10.4924 13.4918 10.2639C13.7511 10.0387 14.0298 9.78008 14.2496 9.53136C14.3587 9.40786 14.4691 9.26911 14.5564 9.12438C14.6312 9.00023 14.75 8.77466 14.75 8.49992L13.25 8.49993C13.25 8.35694 13.3063 8.29269 13.2717 8.34998C13.2496 8.38668 13.2038 8.44948 13.1255 8.53819C12.9702 8.7139 12.7489 8.92236 12.5083 9.13129C12.2714 9.33699 12.0323 9.52893 11.8511 9.67036C11.7609 9.74076 11.6859 9.79794 11.6339 9.83722C11.608 9.85685 11.5878 9.87196 11.5743 9.88198C11.5676 9.88699 11.5626 9.89072 11.5594 9.89311C11.5577 9.8943 11.5566 9.89515 11.5559 9.89565C11.5556 9.89591 11.5553 9.89607 11.5552 9.89615C11.5552 9.89619 11.5552 9.89621 11.5552 9.8962C11.5552 9.8962 11.5552 9.89618 11.5552 9.89618C11.5552 9.89615 11.5553 9.89612 12.0001 10.5Z" fill="#454545"/>
<path d="M8.74996 10.5C8.74996 10.0858 8.41418 9.75 7.99996 9.75C7.58575 9.75 7.24996 10.0858 7.24996 10.5H8.74996ZM6.60389 12.0553C6.35825 11.7218 5.88875 11.6506 5.55523 11.8962C5.22172 12.1418 5.15047 12.6113 5.39611 12.9449L6.60389 12.0553ZM10.6039 12.9449C10.8495 12.6113 10.7783 12.1418 10.4448 11.8962C10.1113 11.6506 9.64176 11.7218 9.39612 12.0553L10.6039 12.9449ZM8.74996 14.5V10.5H7.24996V14.5H8.74996ZM7.99997 13.75C8.14295 13.75 8.2072 13.8063 8.14992 13.7717C8.11322 13.7496 8.05043 13.7038 7.96172 13.6255C7.78602 13.4702 7.57758 13.2489 7.36866 13.0083C7.16298 12.7714 6.97105 12.5324 6.82964 12.3512C6.75924 12.2609 6.70206 12.186 6.66279 12.134C6.64316 12.108 6.62805 12.0878 6.61803 12.0744C6.61302 12.0677 6.60929 12.0626 6.60691 12.0594C6.60572 12.0578 6.60486 12.0566 6.60436 12.056C6.6041 12.0556 6.60394 12.0554 6.60386 12.0553C6.60382 12.0552 6.6038 12.0552 6.60381 12.0552C6.60381 12.0552 6.60383 12.0553 6.60383 12.0553C6.60386 12.0553 6.60389 12.0553 6 12.5001C5.39611 12.9449 5.39615 12.9449 5.3962 12.945C5.39622 12.945 5.39628 12.9451 5.39633 12.9452C5.39642 12.9453 5.39654 12.9454 5.39668 12.9456C5.39696 12.946 5.39732 12.9465 5.39778 12.9471C5.3987 12.9484 5.39996 12.9501 5.40158 12.9523C5.4048 12.9566 5.4094 12.9628 5.41531 12.9707C5.42713 12.9866 5.44417 13.0094 5.46585 13.0381C5.50919 13.0954 5.5712 13.1767 5.64712 13.274C5.79835 13.4678 6.00759 13.7287 6.23602 13.9918C6.46122 14.2511 6.71982 14.5298 6.96853 14.7496C7.09203 14.8587 7.23077 14.9691 7.3755 15.0564C7.49965 15.1312 7.72522 15.25 7.99996 15.25L7.99997 13.75ZM10 12.5001C9.39612 12.0553 9.39615 12.0553 9.39618 12.0552C9.39618 12.0552 9.3962 12.0552 9.3962 12.0552C9.3962 12.0552 9.39619 12.0552 9.39615 12.0553C9.39607 12.0554 9.3959 12.0556 9.39565 12.0559C9.39515 12.0566 9.39429 12.0578 9.3931 12.0594C9.39072 12.0626 9.38699 12.0676 9.38198 12.0743C9.37196 12.0878 9.35684 12.108 9.33722 12.134C9.29794 12.186 9.24077 12.2609 9.17036 12.3511C9.02894 12.5323 8.837 12.7714 8.63131 13.0083C8.42239 13.2489 8.21393 13.4702 8.03823 13.6255C7.94952 13.7038 7.88672 13.7496 7.85002 13.7717C7.79274 13.8063 7.85699 13.75 7.99997 13.75L7.99996 15.25C8.2747 15.25 8.50027 15.1312 8.62442 15.0564C8.76915 14.9691 8.9079 14.8587 9.0314 14.7496C9.28011 14.5298 9.53873 14.2511 9.76393 13.9918C9.99237 13.7287 10.2016 13.4678 10.3529 13.274C10.4288 13.1767 10.4908 13.0954 10.5341 13.0381C10.5558 13.0094 10.5729 12.9866 10.5847 12.9707C10.5906 12.9628 10.5952 12.9566 10.5984 12.9523C10.6 12.9501 10.6013 12.9484 10.6022 12.9471C10.6027 12.9465 10.603 12.946 10.6033 12.9456C10.6035 12.9454 10.6036 12.9453 10.6037 12.9451C10.6037 12.9451 10.6038 12.945 10.6038 12.945C10.6038 12.9449 10.6039 12.9449 10 12.5001Z" fill="#454545"/>
</svg>
