<svg width="24" height="24" viewBox="0 0 24 24" fill="none" xmlns="http://www.w3.org/2000/svg">
	<path d="M11.2499 9C11.2499 9.41421 11.5857 9.75 11.9999 9.75C12.4142 9.75 12.7499 9.41421 12.7499 9H11.2499ZM14.3961 6.44485C14.6417 6.77838 15.1112 6.84963 15.4448 6.60399C15.7783 6.35836 15.8495 5.88886 15.6039 5.55534L14.3961 6.44485ZM8.39609 5.55538C8.15047 5.88891 8.22173 6.35841 8.55526 6.60403C8.88879 6.84965 9.35829 6.77839 9.60391 6.44486L8.39609 5.55538ZM12.7499 9V3H11.2499V9H12.7499ZM11.9999 3.75C11.8899 3.75 11.866 3.70934 11.9686 3.77122C12.0507 3.82069 12.1638 3.90554 12.3056 4.0308C12.5874 4.27981 12.9126 4.62612 13.2301 4.99176C13.5443 5.35367 13.8366 5.71778 14.0512 5.99275C14.1581 6.12984 14.2451 6.24387 14.305 6.32321C14.335 6.36287 14.3581 6.39381 14.3736 6.41458C14.3814 6.42496 14.3872 6.4328 14.391 6.43791C14.3929 6.44046 14.3942 6.44233 14.3951 6.4435C14.3955 6.44408 14.3958 6.44449 14.396 6.44471C14.3961 6.44483 14.3961 6.4449 14.3962 6.44492C14.3962 6.44493 14.3961 6.44491 14.3962 6.44492C14.3961 6.44489 14.3961 6.44485 15 6.0001C15.6039 5.55534 15.6039 5.55528 15.6038 5.55521C15.6038 5.55517 15.6037 5.55508 15.6036 5.555C15.6035 5.55484 15.6034 5.55464 15.6032 5.55439C15.6028 5.55389 15.6023 5.55321 15.6017 5.55235C15.6004 5.55063 15.5986 5.5482 15.5963 5.54508C15.5917 5.53883 15.585 5.52982 15.5764 5.51823C15.5591 5.49505 15.534 5.46154 15.502 5.41916C15.438 5.33444 15.3462 5.21408 15.2337 5.06991C15.0093 4.78237 14.6997 4.39646 14.3628 4.00835C14.029 3.62396 13.6536 3.22025 13.2988 2.90674C13.1223 2.75074 12.9331 2.6012 12.7431 2.48661C12.5736 2.38442 12.3076 2.25 12 2.25L11.9999 3.75ZM9 6.00012C9.60391 6.44486 9.60388 6.4449 9.60386 6.44493C9.60387 6.44492 9.60385 6.44494 9.60386 6.44492C9.60388 6.4449 9.60393 6.44483 9.60401 6.44472C9.60418 6.44449 9.60448 6.44409 9.60491 6.4435C9.60577 6.44234 9.60716 6.44047 9.60905 6.43791C9.61283 6.4328 9.61865 6.42497 9.62638 6.41458C9.64186 6.39381 9.66502 6.36287 9.69497 6.32322C9.75489 6.24387 9.84186 6.12985 9.94885 5.99275C10.1634 5.71777 10.4556 5.35366 10.7699 4.99175C11.0873 4.62611 11.4125 4.27979 11.6943 4.03079C11.8361 3.90553 11.9492 3.82068 12.0313 3.77121C12.1339 3.70933 12.11 3.75 11.9999 3.75L12 2.25C11.6922 2.25 11.4263 2.38442 11.2568 2.48661C11.0667 2.60121 10.8776 2.75074 10.7011 2.90674C10.3463 3.22026 9.9709 3.62398 9.63717 4.00837C9.30022 4.39649 8.99068 4.7824 8.76629 5.06995C8.65379 5.21412 8.56198 5.33448 8.49799 5.4192C8.46598 5.46158 8.4409 5.49509 8.42363 5.51827C8.41499 5.52986 8.4083 5.53887 8.40368 5.54512C8.40136 5.54824 8.39957 5.55067 8.3983 5.55239C8.39766 5.55325 8.39716 5.55393 8.39679 5.55443C8.39661 5.55468 8.39646 5.55488 8.39634 5.55504C8.39628 5.55512 8.39622 5.55521 8.39619 5.55525C8.39614 5.55532 8.39609 5.55538 9 6.00012Z" fill="currentcolor" />
	<path d="M9 12.7498C9.41421 12.7498 9.75 12.414 9.75 11.9998C9.75 11.5856 9.41421 11.2498 9 11.2498V12.7498ZM5.55519 15.6039C5.8887 15.8495 6.3582 15.7783 6.60385 15.4448C6.8495 15.1113 6.77828 14.6418 6.44477 14.3961L5.55519 15.6039ZM6.44473 9.60392C6.77826 9.3583 6.84953 8.88881 6.60392 8.55527C6.3583 8.22174 5.88881 8.15047 5.55527 8.39608L6.44473 9.60392ZM9 11.2498H3V12.7498H9V11.2498ZM2.25 11.9998C2.25 12.3075 2.38441 12.5734 2.48659 12.7429C2.60118 12.933 2.7507 13.1221 2.90669 13.2987C3.22019 13.6535 3.62389 14.0289 4.00826 14.3626C4.39635 14.6996 4.78225 15.0092 5.06978 15.2336C5.21394 15.3461 5.33429 15.438 5.41901 15.502C5.46139 15.534 5.4949 15.5591 5.51808 15.5763C5.52967 15.585 5.53868 15.5917 5.54492 15.5963C5.54804 15.5986 5.55048 15.6004 5.55219 15.6017C5.55305 15.6023 5.55373 15.6028 5.55423 15.6032C5.55448 15.6034 5.55469 15.6035 5.55485 15.6036C5.55493 15.6037 5.55501 15.6037 5.55505 15.6038C5.55512 15.6038 5.55519 15.6039 5.99998 15C6.44477 14.3961 6.44481 14.3962 6.44483 14.3962C6.44483 14.3962 6.44484 14.3962 6.44483 14.3962C6.44481 14.3962 6.44474 14.3961 6.44463 14.396C6.4444 14.3959 6.44399 14.3956 6.44341 14.3951C6.44225 14.3943 6.44037 14.3929 6.43782 14.391C6.43271 14.3872 6.42488 14.3814 6.41449 14.3737C6.39372 14.3582 6.36279 14.335 6.32313 14.3051C6.24379 14.2451 6.12977 14.1581 5.99268 14.0511C5.71772 13.8365 5.35362 13.5443 4.99172 13.23C4.6261 12.9126 4.2798 12.5873 4.0308 12.3055C3.90555 12.1637 3.8207 12.0505 3.77123 11.9685C3.70935 11.8658 3.75 11.8897 3.75 11.9998L2.25 11.9998ZM6 9C5.55527 8.39608 5.55521 8.39613 5.55514 8.39618C5.5551 8.39621 5.55501 8.39627 5.55493 8.39633C5.55477 8.39645 5.55457 8.3966 5.55432 8.39678C5.55382 8.39715 5.55314 8.39765 5.55228 8.39829C5.55056 8.39956 5.54813 8.40136 5.54501 8.40367C5.53876 8.40829 5.52975 8.41498 5.51816 8.42362C5.49499 8.44089 5.46147 8.46597 5.41909 8.49798C5.33438 8.56196 5.21402 8.65376 5.06986 8.76626C4.78232 8.99063 4.39642 9.30014 4.00832 9.63708C3.62394 9.97078 3.22023 10.3461 2.90673 10.7009C2.75073 10.8775 2.6012 11.0666 2.4866 11.2567C2.38441 11.4262 2.25 11.6921 2.25 11.9998L3.75 11.9998C3.75 12.1098 3.70934 12.1338 3.77121 12.0311C3.82067 11.9491 3.90551 11.8359 4.03077 11.6942C4.27976 11.4124 4.62605 11.0872 4.99168 10.7698C5.35358 10.4556 5.71767 10.1634 5.99264 9.94883C6.12973 9.84185 6.24375 9.75489 6.32309 9.69497C6.36275 9.66502 6.39368 9.64187 6.41445 9.62639C6.42484 9.61865 6.43267 9.61284 6.43778 9.60905C6.44033 9.60716 6.4422 9.60578 6.44337 9.60492C6.44395 9.60449 6.44436 9.60419 6.44459 9.60402C6.4447 9.60394 6.44477 9.60389 6.44479 9.60387C6.4448 9.60386 6.44479 9.60387 6.44479 9.60387C6.44477 9.60389 6.44473 9.60392 6 9Z" fill="currentcolor" />
	<path d="M15 11.2499C14.5858 11.2499 14.25 11.5857 14.25 11.9999C14.25 12.4141 14.5858 12.7499 15 12.7499V11.2499ZM18.4449 8.3961C18.1113 8.15047 17.6418 8.22172 17.3962 8.55525C17.1506 8.88877 17.2218 9.35827 17.5554 9.6039L18.4449 8.3961ZM17.5553 14.3961C17.2218 14.6418 17.1506 15.1113 17.3962 15.4448C17.6419 15.7783 18.1114 15.8495 18.4449 15.6039L17.5553 14.3961ZM21 11.2499H15V12.7499H21V11.2499ZM21.75 11.9999C21.75 11.6922 21.6156 11.4263 21.5134 11.2568C21.3988 11.0667 21.2493 10.8776 21.0933 10.701C20.7798 10.3462 20.3761 9.97087 19.9918 9.63715C19.6037 9.3002 19.2178 8.99067 18.9303 8.76629C18.7861 8.6538 18.6657 8.56199 18.581 8.498C18.5387 8.46599 18.5051 8.44091 18.482 8.42364C18.4704 8.415 18.4614 8.40831 18.4551 8.40369C18.452 8.40138 18.4496 8.39958 18.4479 8.39831C18.447 8.39767 18.4463 8.39717 18.4458 8.3968C18.4456 8.39662 18.4454 8.39647 18.4452 8.39635C18.4451 8.39629 18.445 8.39623 18.445 8.3962C18.4449 8.39615 18.4449 8.3961 18.0001 9C17.5554 9.6039 17.5553 9.60387 17.5553 9.60385C17.5553 9.60385 17.5553 9.60384 17.5553 9.60385C17.5553 9.60387 17.5554 9.60392 17.5555 9.604C17.5557 9.60417 17.5561 9.60447 17.5567 9.6049C17.5579 9.60576 17.5597 9.60714 17.5623 9.60904C17.5674 9.61282 17.5752 9.61863 17.5856 9.62637C17.6064 9.64185 17.6373 9.665 17.677 9.69495C17.7563 9.75488 17.8703 9.84185 18.0074 9.94882C18.2824 10.1634 18.6465 10.4556 19.0083 10.7698C19.374 11.0872 19.7202 11.4124 19.9692 11.6942C20.0945 11.836 20.1793 11.9492 20.2288 12.0312C20.2907 12.1339 20.25 12.1099 20.25 11.9999L21.75 11.9999ZM18.0001 15C18.4449 15.6039 18.4449 15.6038 18.445 15.6038C18.445 15.6038 18.4451 15.6037 18.4452 15.6036C18.4454 15.6035 18.4456 15.6034 18.4458 15.6032C18.4463 15.6028 18.447 15.6023 18.4479 15.6017C18.4496 15.6004 18.452 15.5986 18.4551 15.5963C18.4614 15.5917 18.4704 15.585 18.482 15.5763C18.5051 15.5591 18.5387 15.534 18.581 15.502C18.6658 15.438 18.7861 15.3462 18.9303 15.2336C19.2178 15.0092 19.6037 14.6997 19.9918 14.3627C20.3761 14.029 20.7798 13.6536 21.0933 13.2988C21.2493 13.1222 21.3988 12.9331 21.5134 12.743C21.6156 12.5735 21.75 12.3076 21.75 11.9999L20.25 11.9999C20.25 11.8898 20.2907 11.8659 20.2288 11.9686C20.1793 12.0506 20.0945 12.1638 19.9692 12.3056C19.7202 12.5874 19.3739 12.9126 19.0083 13.2301C18.6464 13.5443 18.2823 13.8366 18.0074 14.0512C17.8703 14.1581 17.7563 14.2451 17.6769 14.3051C17.6373 14.335 17.6063 14.3582 17.5856 14.3736C17.5752 14.3814 17.5674 14.3872 17.5622 14.391C17.5597 14.3929 17.5578 14.3943 17.5567 14.3951C17.5561 14.3955 17.5557 14.3958 17.5554 14.396C17.5553 14.3961 17.5553 14.3962 17.5552 14.3962C17.5552 14.3962 17.5552 14.3962 17.5552 14.3962C17.5553 14.3961 17.5553 14.3961 18.0001 15Z" fill="currentcolor" />
	<path d="M12.7499 15C12.7499 14.5858 12.4142 14.25 11.9999 14.25C11.5857 14.25 11.2499 14.5858 11.2499 15H12.7499ZM9.60389 17.5554C9.35825 17.2219 8.88875 17.1506 8.55523 17.3963C8.22172 17.6419 8.15047 18.1114 8.39611 18.4449L9.60389 17.5554ZM15.6039 18.4449C15.8495 18.1114 15.7783 17.6419 15.4448 17.3962C15.1113 17.1506 14.6418 17.2218 14.3961 17.5553L15.6039 18.4449ZM12.7499 21V15H11.2499V21H12.7499ZM12 20.25C12.11 20.25 12.1339 20.2907 12.0313 20.2288C11.9492 20.1793 11.836 20.0945 11.6943 19.9692C11.4125 19.7202 11.0873 19.374 10.7698 19.0084C10.4556 18.6465 10.1634 18.2824 9.94883 18.0074C9.84184 17.8704 9.75487 17.7563 9.69495 17.677C9.665 17.6374 9.64184 17.6064 9.62636 17.5857C9.61863 17.5753 9.61281 17.5674 9.60903 17.5623C9.60714 17.5598 9.60575 17.5579 9.60489 17.5567C9.60446 17.5562 9.60416 17.5557 9.60399 17.5555C9.60391 17.5554 9.60386 17.5553 9.60384 17.5553C9.60383 17.5553 9.60385 17.5553 9.60384 17.5553C9.60386 17.5553 9.60389 17.5554 9 18.0001C8.39611 18.4449 8.39615 18.445 8.39621 18.445C8.39624 18.4451 8.3963 18.4452 8.39636 18.4452C8.39648 18.4454 8.39663 18.4456 8.39681 18.4459C8.39718 18.4464 8.39768 18.447 8.39832 18.4479C8.39959 18.4496 8.40138 18.4521 8.4037 18.4552C8.40832 18.4614 8.41501 18.4704 8.42365 18.482C8.44092 18.5052 8.466 18.5387 8.49801 18.5811C8.562 18.6658 8.65381 18.7861 8.76631 18.9303C8.9907 19.2178 9.30024 19.6037 9.6372 19.9918C9.97092 20.3761 10.3463 20.7798 10.7011 21.0933C10.8776 21.2493 11.0668 21.3988 11.2569 21.5134C11.4264 21.6156 11.6923 21.75 11.9999 21.75L12 20.25ZM15 18.0001C14.3961 17.5553 14.3961 17.5553 14.3962 17.5553C14.3962 17.5553 14.3962 17.5553 14.3962 17.5553C14.3961 17.5553 14.3961 17.5554 14.396 17.5555C14.3958 17.5557 14.3955 17.5561 14.3951 17.5567C14.3943 17.5579 14.3929 17.5597 14.391 17.5623C14.3872 17.5674 14.3814 17.5752 14.3736 17.5856C14.3582 17.6064 14.335 17.6373 14.3051 17.677C14.2451 17.7563 14.1582 17.8703 14.0512 18.0074C13.8366 18.2824 13.5443 18.6465 13.2301 19.0083C12.9127 19.374 12.5874 19.7202 12.3056 19.9692C12.1639 20.0945 12.0507 20.1793 11.9686 20.2288C11.866 20.2907 11.8899 20.25 12 20.25L11.9999 21.75C12.3076 21.75 12.5735 21.6156 12.743 21.5134C12.9331 21.3988 13.1223 21.2493 13.2988 21.0933C13.6536 20.7798 14.029 20.3761 14.3627 19.9918C14.6997 19.6037 15.0093 19.2178 15.2337 18.9303C15.3462 18.7861 15.438 18.6658 15.502 18.5811C15.534 18.5387 15.5591 18.5052 15.5763 18.482C15.585 18.4704 15.5917 18.4614 15.5963 18.4552C15.5986 18.452 15.6004 18.4496 15.6017 18.4479C15.6023 18.447 15.6028 18.4463 15.6032 18.4458C15.6034 18.4456 15.6035 18.4454 15.6036 18.4452C15.6037 18.4452 15.6038 18.4451 15.6038 18.445C15.6038 18.445 15.6039 18.4449 15 18.0001Z" fill="currentcolor" />
</svg>
