<svg width="16" height="17" viewBox="0 0 16 17" fill="none" xmlns="http://www.w3.org/2000/svg">
<path d="M4.66602 7.16722V3.13306C4.66602 2.75004 4.66602 2.55854 4.51241 2.51088C4.17472 2.4061 3.66602 3.16699 3.66602 3.16699M4.66602 7.16722H3.66602M4.66602 7.16722H5.66602" stroke="#454545" stroke-width="1.2" stroke-linecap="round" stroke-linejoin="round"/>
<path d="M5.99967 12.1673V11.0007C5.99967 10.4507 5.99967 10.1757 5.80441 10.0048C5.60915 9.83398 5.29488 9.83398 4.66634 9.83398C4.0378 9.83398 3.72353 9.83398 3.52827 10.0048C3.33301 10.1757 3.33301 10.4507 3.33301 11.0007C3.33301 11.5506 3.33301 11.8256 3.52827 11.9965C3.72353 12.1673 4.0378 12.1673 4.66634 12.1673H5.99967ZM5.99967 12.1673V12.7507C5.99967 13.5756 5.99967 13.9881 5.70678 14.2444C5.41389 14.5007 4.94248 14.5007 3.99967 14.5007H3.33301" stroke="#454545" stroke-width="1.2" stroke-linecap="round" stroke-linejoin="round"/>
<path d="M10.9997 13.8337V3.16699M10.9997 13.8337C10.5329 13.8337 9.66069 12.5041 9.33301 12.167M10.9997 13.8337C11.4665 13.8337 12.3387 12.5041 12.6663 12.167" stroke="#454545" stroke-width="1.2" stroke-linecap="round" stroke-linejoin="round"/>
</svg>
