<svg width="491" height="306" viewBox="0 0 491 306" fill="none" xmlns="http://www.w3.org/2000/svg">
<mask id="path-1-inside-1_1_42" fill="white">
<path d="M305.662 207.759L314.792 210.239L323.302 211.489L332.012 215.039L336.932 217.859L342.182 218.849L343.252 218.709L346.572 221.509L351.902 223.739L353.042 222.639L353.132 221.279L348.432 209.639L348.352 207.119L349.372 204.259L350.612 202.849L354.562 200.649L355.942 200.369L358.532 200.189L361.212 200.629L371.302 204.349L378.162 205.899L383.042 206.309L387.002 206.089L387.012 205.389L398.802 214.319L395.012 220.289L396.912 220.859L403.032 218.229L410.502 217.279L418.682 217.759L426.162 219.529L431.302 224.429L435.742 230.079L444.112 237.649L443.972 238.299L445.142 239.659L444.882 240.699L445.442 242.479L444.852 245.709L442.472 251.599L442.762 257.519L441.842 258.949L438.752 260.889L435.312 264.139L432.002 270.299L429.892 281.799L430.502 282.529L430.172 283.609L430.142 292.369L428.242 300.559L427.522 300.859L425.402 300.129L424.622 301.549L424.722 303.549L421.902 305.289L420.112 305.509L417.332 305.069L416.682 303.519L411.802 296.889L406.272 291.159L404.782 290.439L401.692 290.219L392.122 292.459L387.742 292.019L386.532 291.129L387.192 286.359L386.632 284.719L377.992 279.339L372.562 277.649L370.452 277.579L368.142 278.169L366.032 278.839L364.512 280.039L365.282 284.539L362.142 286.459L359.012 287.289L355.172 287.149L353.112 286.479L351.192 286.929L349.832 288.679L347.472 290.639L344.482 291.129L342.782 288.859L341.942 284.599L340.182 283.299L339.162 285.609L335.752 285.979L333.982 288.859L332.062 289.789L329.112 289.539L325.662 289.939L324.412 298.169L323.422 300.219L322.012 300.809L320.232 300.069L316.222 296.389L315.572 294.849L315.742 293.939L318.022 287.519L317.122 281.899L315.702 279.759L314.182 278.609L311.372 278.259L309.162 280.369L307.062 281.099L304.142 279.579L300.562 276.819L297.672 273.469L294.932 266.959L295.062 266.429L295.472 265.929L296.312 266.509L299.682 269.799L300.502 269.699L301.852 270.749H303.612L303.952 266.329L304.912 264.889L311.352 261.769L314.652 258.659L316.592 252.829L317.012 248.899L317.482 247.609L318.712 246.399L319.072 244.589L317.592 244.119L314.282 244.439L313.012 243.389L311.772 237.859L311.202 231.049L311.192 224.149L310.462 222.299L307.762 219.689L305.882 216.469L305.342 210.599L305.662 207.759Z"/>
</mask>
<path d="M305.662 207.759L314.792 210.239L323.302 211.489L332.012 215.039L336.932 217.859L342.182 218.849L343.252 218.709L346.572 221.509L351.902 223.739L353.042 222.639L353.132 221.279L348.432 209.639L348.352 207.119L349.372 204.259L350.612 202.849L354.562 200.649L355.942 200.369L358.532 200.189L361.212 200.629L371.302 204.349L378.162 205.899L383.042 206.309L387.002 206.089L387.012 205.389L398.802 214.319L395.012 220.289L396.912 220.859L403.032 218.229L410.502 217.279L418.682 217.759L426.162 219.529L431.302 224.429L435.742 230.079L444.112 237.649L443.972 238.299L445.142 239.659L444.882 240.699L445.442 242.479L444.852 245.709L442.472 251.599L442.762 257.519L441.842 258.949L438.752 260.889L435.312 264.139L432.002 270.299L429.892 281.799L430.502 282.529L430.172 283.609L430.142 292.369L428.242 300.559L427.522 300.859L425.402 300.129L424.622 301.549L424.722 303.549L421.902 305.289L420.112 305.509L417.332 305.069L416.682 303.519L411.802 296.889L406.272 291.159L404.782 290.439L401.692 290.219L392.122 292.459L387.742 292.019L386.532 291.129L387.192 286.359L386.632 284.719L377.992 279.339L372.562 277.649L370.452 277.579L368.142 278.169L366.032 278.839L364.512 280.039L365.282 284.539L362.142 286.459L359.012 287.289L355.172 287.149L353.112 286.479L351.192 286.929L349.832 288.679L347.472 290.639L344.482 291.129L342.782 288.859L341.942 284.599L340.182 283.299L339.162 285.609L335.752 285.979L333.982 288.859L332.062 289.789L329.112 289.539L325.662 289.939L324.412 298.169L323.422 300.219L322.012 300.809L320.232 300.069L316.222 296.389L315.572 294.849L315.742 293.939L318.022 287.519L317.122 281.899L315.702 279.759L314.182 278.609L311.372 278.259L309.162 280.369L307.062 281.099L304.142 279.579L300.562 276.819L297.672 273.469L294.932 266.959L295.062 266.429L295.472 265.929L296.312 266.509L299.682 269.799L300.502 269.699L301.852 270.749H303.612L303.952 266.329L304.912 264.889L311.352 261.769L314.652 258.659L316.592 252.829L317.012 248.899L317.482 247.609L318.712 246.399L319.072 244.589L317.592 244.119L314.282 244.439L313.012 243.389L311.772 237.859L311.202 231.049L311.192 224.149L310.462 222.299L307.762 219.689L305.882 216.469L305.342 210.599L305.662 207.759Z" fill="#FFDDA1" stroke="#D6A246" stroke-width="2" mask="url(#path-1-inside-1_1_42)"/>
<mask id="path-2-inside-2_1_42" fill="white">
<path d="M215.652 163.919L217.852 164.489L220.622 166.069L224.142 169.319L226.912 173.639L229.462 181.889L233.172 184.189L235.882 186.879L241.352 194.149L244.072 196.689L245.702 196.939L246.032 196.589L246.652 193.699L247.892 191.169L248.082 190.909L249.072 191.789L249.532 191.699L249.592 188.729L253.162 186.989L254.282 183.739L261.742 183.889L263.142 183.429L262.542 186.069L260.992 188.729V189.589L261.812 191.279L264.002 193.939L264.542 200.109L263.372 204.819L263.332 209.509L261.722 211.179L260.872 213.299L260.702 217.039L261.392 217.599L265.652 214.649L274.912 210.579L287.312 207.209L294.382 206.509L297.962 207.189L305.662 207.759L305.342 210.599L305.882 216.469L307.762 219.689L310.462 222.299L311.192 224.149L311.202 231.049L311.772 237.859L313.012 243.389L314.282 244.439L317.592 244.119L319.072 244.589L318.712 246.399L317.482 247.609L317.012 248.899L316.592 252.829L314.652 258.659L311.352 261.769L304.912 264.889L303.952 266.329L303.612 270.749H301.852L300.502 269.699L299.682 269.799L296.312 266.509L295.472 265.929L295.062 266.429L293.952 264.809L291.512 264.059L288.202 264.819L286.062 266.919L283.622 267.829L277.442 275.249L271.462 279.109L266.492 284.499L265.252 284.829L264.562 284.489L263.232 282.479L262.492 282.429L262.312 280.149L261.402 279.899L258.672 284.909L257.332 286.779L255.792 287.639L253.552 289.949L252.312 294.069L252.252 296.799L250.412 299.309L248.982 300.199L245.392 299.539L243.722 300.309L242.692 294.279L241.282 292.269L240.392 289.669L241.322 284.149L240.042 281.999L242.202 278.449L244.112 273.629L244.052 269.469L245.672 265.529L245.982 263.609L245.832 260.199L245.042 258.189L243.592 257.109L243.042 254.989L241.292 253.579L239.422 253.989L237.962 254.979L237.532 254.599L233.782 255.439L233.122 253.809L233.362 253.299L232.622 252.739L232.142 250.999L231.292 250.389L231.222 249.169L230.162 247.159L227.602 247.009L226.862 247.519L224.602 247.709L222.642 245.479L222.092 245.539L220.832 244.129L220.182 244.199L218.622 242.099L212.682 245.029L210.552 244.499L209.472 243.719L209.192 242.669L209.422 240.739L210.382 238.889L210.112 238.089L207.932 238.339L207.472 237.689L207.852 236.799L207.572 236.119L206.872 235.759L205.122 236.129L204.352 235.489L204.122 234.709L199.382 230.539L197.342 227.839L198.052 223.699L195.542 223.269L190.922 224.149L184.102 221.759L182.252 220.069L180.972 220.039L179.652 219.079L178.332 215.329L178.412 213.769L180.702 210.759L182.042 210.119L182.322 208.749L181.762 208.049L179.452 207.779L175.782 208.419L173.302 209.839L172.752 209.389L172.782 205.109L173.872 204.689L174.622 203.249L173.802 200.839L169.042 198.259L168.912 197.669L166.492 195.859L166.422 195.189L164.012 192.739L162.092 189.039L162.262 188.049L164.402 185.619L166.692 181.709L170.402 177.669L174.002 175.379L175.772 177.999L177.942 179.759L184.982 182.769L186.822 182.849L189.582 183.929L193.292 183.719L195.422 184.409L199.342 184.289L205.642 185.809L208.672 185.309L210.242 181.549L210.882 175.059L213.192 167.269L215.652 163.919Z"/>
</mask>
<path d="M215.652 163.919L217.852 164.489L220.622 166.069L224.142 169.319L226.912 173.639L229.462 181.889L233.172 184.189L235.882 186.879L241.352 194.149L244.072 196.689L245.702 196.939L246.032 196.589L246.652 193.699L247.892 191.169L248.082 190.909L249.072 191.789L249.532 191.699L249.592 188.729L253.162 186.989L254.282 183.739L261.742 183.889L263.142 183.429L262.542 186.069L260.992 188.729V189.589L261.812 191.279L264.002 193.939L264.542 200.109L263.372 204.819L263.332 209.509L261.722 211.179L260.872 213.299L260.702 217.039L261.392 217.599L265.652 214.649L274.912 210.579L287.312 207.209L294.382 206.509L297.962 207.189L305.662 207.759L305.342 210.599L305.882 216.469L307.762 219.689L310.462 222.299L311.192 224.149L311.202 231.049L311.772 237.859L313.012 243.389L314.282 244.439L317.592 244.119L319.072 244.589L318.712 246.399L317.482 247.609L317.012 248.899L316.592 252.829L314.652 258.659L311.352 261.769L304.912 264.889L303.952 266.329L303.612 270.749H301.852L300.502 269.699L299.682 269.799L296.312 266.509L295.472 265.929L295.062 266.429L293.952 264.809L291.512 264.059L288.202 264.819L286.062 266.919L283.622 267.829L277.442 275.249L271.462 279.109L266.492 284.499L265.252 284.829L264.562 284.489L263.232 282.479L262.492 282.429L262.312 280.149L261.402 279.899L258.672 284.909L257.332 286.779L255.792 287.639L253.552 289.949L252.312 294.069L252.252 296.799L250.412 299.309L248.982 300.199L245.392 299.539L243.722 300.309L242.692 294.279L241.282 292.269L240.392 289.669L241.322 284.149L240.042 281.999L242.202 278.449L244.112 273.629L244.052 269.469L245.672 265.529L245.982 263.609L245.832 260.199L245.042 258.189L243.592 257.109L243.042 254.989L241.292 253.579L239.422 253.989L237.962 254.979L237.532 254.599L233.782 255.439L233.122 253.809L233.362 253.299L232.622 252.739L232.142 250.999L231.292 250.389L231.222 249.169L230.162 247.159L227.602 247.009L226.862 247.519L224.602 247.709L222.642 245.479L222.092 245.539L220.832 244.129L220.182 244.199L218.622 242.099L212.682 245.029L210.552 244.499L209.472 243.719L209.192 242.669L209.422 240.739L210.382 238.889L210.112 238.089L207.932 238.339L207.472 237.689L207.852 236.799L207.572 236.119L206.872 235.759L205.122 236.129L204.352 235.489L204.122 234.709L199.382 230.539L197.342 227.839L198.052 223.699L195.542 223.269L190.922 224.149L184.102 221.759L182.252 220.069L180.972 220.039L179.652 219.079L178.332 215.329L178.412 213.769L180.702 210.759L182.042 210.119L182.322 208.749L181.762 208.049L179.452 207.779L175.782 208.419L173.302 209.839L172.752 209.389L172.782 205.109L173.872 204.689L174.622 203.249L173.802 200.839L169.042 198.259L168.912 197.669L166.492 195.859L166.422 195.189L164.012 192.739L162.092 189.039L162.262 188.049L164.402 185.619L166.692 181.709L170.402 177.669L174.002 175.379L175.772 177.999L177.942 179.759L184.982 182.769L186.822 182.849L189.582 183.929L193.292 183.719L195.422 184.409L199.342 184.289L205.642 185.809L208.672 185.309L210.242 181.549L210.882 175.059L213.192 167.269L215.652 163.919Z" fill="#FFDDA1" stroke="#D6A246" stroke-width="2" mask="url(#path-2-inside-2_1_42)"/>
<mask id="path-3-inside-3_1_42" fill="white">
<path d="M58.3616 76.3587L63.7416 75.4387L75.0616 75.0887L78.6816 76.0187L92.6616 91.8787L94.6516 94.9787L100.262 101.459L102.552 103.039L104.252 102.859L105.292 103.339L105.562 106.279L104.832 110.929L104.892 116.309L105.772 119.989L107.072 120.379L114.642 119.589L115.482 120.329L115.912 121.949L115.722 125.379L116.072 126.779L116.732 127.799L119.942 130.209L122.982 130.599L124.052 131.149L124.952 133.259L125.692 138.709L127.582 140.029L129.582 140.019L138.742 136.459L141.152 136.299L147.502 139.309L148.922 140.409L155.272 147.639L157.522 148.329L161.482 147.169L166.002 147.979L169.732 149.589L170.372 149.319L182.142 156.639L187.332 160.309L188.262 161.799L189.722 162.509L191.562 163.109L196.482 163.429L199.872 162.519L207.392 162.209L215.652 163.919L213.192 167.269L210.882 175.059L210.242 181.549L208.672 185.309L205.642 185.809L199.342 184.289L195.422 184.409L193.292 183.719L189.582 183.929L186.822 182.849L184.982 182.769L177.942 179.759L175.772 177.999L174.002 175.379L170.402 177.669L166.692 181.709L164.402 185.619L162.262 188.049L162.092 189.039L164.012 192.739L166.422 195.189L166.492 195.859L168.912 197.669L169.042 198.259L173.802 200.839L174.622 203.249L173.872 204.689L168.112 204.779L164.002 206.119L163.182 208.339L163.472 208.969L162.432 211.129L161.142 210.579L159.192 211.159L156.892 210.539L154.562 210.769L153.612 210.279L152.142 208.219L151.192 207.849L146.712 209.099L145.682 208.609L145.072 206.939L144.662 207.109L144.272 206.569L142.602 207.369L139.112 207.499L137.632 204.329L135.452 203.749L130.712 205.449L128.062 205.069L128.142 205.949L127.962 205.099L127.602 205.189L124.052 206.799L121.452 207.109L113.182 206.889L112.692 206.229L111.242 206.159L110.532 205.219L108.632 200.409L108.242 197.639L107.462 196.979L107.432 196.179L103.972 193.929L101.022 189.689L99.8016 186.249L99.7116 184.149L98.9216 181.379L96.9516 178.749L93.9516 171.639L92.2916 169.729L90.9716 164.439L90.1616 162.859L91.1916 158.359L93.2716 156.809L93.6216 155.209L94.1916 154.619L97.3516 152.529L99.6916 149.369L99.5316 148.069L98.2216 147.289L95.3916 149.089L93.1816 149.169L89.3516 148.089L88.2516 148.219L85.8516 146.679L80.1516 144.939L76.9016 142.519L75.2116 140.479L74.6716 137.999L70.5916 135.539L68.5516 135.629L64.7316 137.709L63.0416 141.419L63.0216 144.069L62.5716 145.179L58.1516 148.609L51.5116 151.529L45.7216 154.829L43.2316 156.769L42.1016 157.029L39.0916 159.239L32.0916 162.499L31.1616 162.649L30.6316 161.899L30.1816 162.009L29.2716 160.879L28.5816 160.689L26.0116 160.959L19.0816 166.489L17.4216 167.149L13.5116 170.589L13.3216 171.579L11.8216 172.369L7.74164 173.089L4.57165 173.109L1.38165 175.889L1.94165 174.109L1.35165 172.749L1.34165 169.209L0.631645 168.309L0.871645 166.869L1.42165 165.479L1.03165 162.769L0.0616455 160.979L0.801645 159.579L2.23165 158.669L1.83165 155.329L2.52165 155.099L2.86165 153.379L2.66165 152.759L2.68165 151.879L3.37165 150.239L3.80165 148.679L3.39165 147.919L3.12165 147.149L2.77165 146.369L2.90165 145.199L3.15165 143.469L3.31165 142.779L8.68165 142.959L9.39165 142.799L10.4416 141.619L13.9916 141.059L14.6516 141.879L15.8916 142.329L17.3816 142.229L22.3316 140.499L22.5816 138.739L24.5316 134.859L24.7016 131.119L26.6116 129.239L26.2716 123.419L24.9916 119.409L25.3016 117.989L26.4616 116.109L28.9316 114.729L29.7516 112.899L32.3416 109.279L33.1916 106.179L34.2316 105.589L36.3716 105.839L38.4616 104.109L38.5616 102.889L37.2216 100.329L36.9016 98.3987L37.2716 97.0587L38.3816 95.8387L45.1316 93.1387L48.5216 93.3787L49.6616 93.0787L51.6816 91.0187L51.8016 89.7187L54.1616 87.1287L54.7316 84.7187L54.9816 79.7487L55.8316 78.6487L57.9116 77.7887L58.3616 76.3587Z"/>
</mask>
<path d="M58.3616 76.3587L63.7416 75.4387L75.0616 75.0887L78.6816 76.0187L92.6616 91.8787L94.6516 94.9787L100.262 101.459L102.552 103.039L104.252 102.859L105.292 103.339L105.562 106.279L104.832 110.929L104.892 116.309L105.772 119.989L107.072 120.379L114.642 119.589L115.482 120.329L115.912 121.949L115.722 125.379L116.072 126.779L116.732 127.799L119.942 130.209L122.982 130.599L124.052 131.149L124.952 133.259L125.692 138.709L127.582 140.029L129.582 140.019L138.742 136.459L141.152 136.299L147.502 139.309L148.922 140.409L155.272 147.639L157.522 148.329L161.482 147.169L166.002 147.979L169.732 149.589L170.372 149.319L182.142 156.639L187.332 160.309L188.262 161.799L189.722 162.509L191.562 163.109L196.482 163.429L199.872 162.519L207.392 162.209L215.652 163.919L213.192 167.269L210.882 175.059L210.242 181.549L208.672 185.309L205.642 185.809L199.342 184.289L195.422 184.409L193.292 183.719L189.582 183.929L186.822 182.849L184.982 182.769L177.942 179.759L175.772 177.999L174.002 175.379L170.402 177.669L166.692 181.709L164.402 185.619L162.262 188.049L162.092 189.039L164.012 192.739L166.422 195.189L166.492 195.859L168.912 197.669L169.042 198.259L173.802 200.839L174.622 203.249L173.872 204.689L168.112 204.779L164.002 206.119L163.182 208.339L163.472 208.969L162.432 211.129L161.142 210.579L159.192 211.159L156.892 210.539L154.562 210.769L153.612 210.279L152.142 208.219L151.192 207.849L146.712 209.099L145.682 208.609L145.072 206.939L144.662 207.109L144.272 206.569L142.602 207.369L139.112 207.499L137.632 204.329L135.452 203.749L130.712 205.449L128.062 205.069L128.142 205.949L127.962 205.099L127.602 205.189L124.052 206.799L121.452 207.109L113.182 206.889L112.692 206.229L111.242 206.159L110.532 205.219L108.632 200.409L108.242 197.639L107.462 196.979L107.432 196.179L103.972 193.929L101.022 189.689L99.8016 186.249L99.7116 184.149L98.9216 181.379L96.9516 178.749L93.9516 171.639L92.2916 169.729L90.9716 164.439L90.1616 162.859L91.1916 158.359L93.2716 156.809L93.6216 155.209L94.1916 154.619L97.3516 152.529L99.6916 149.369L99.5316 148.069L98.2216 147.289L95.3916 149.089L93.1816 149.169L89.3516 148.089L88.2516 148.219L85.8516 146.679L80.1516 144.939L76.9016 142.519L75.2116 140.479L74.6716 137.999L70.5916 135.539L68.5516 135.629L64.7316 137.709L63.0416 141.419L63.0216 144.069L62.5716 145.179L58.1516 148.609L51.5116 151.529L45.7216 154.829L43.2316 156.769L42.1016 157.029L39.0916 159.239L32.0916 162.499L31.1616 162.649L30.6316 161.899L30.1816 162.009L29.2716 160.879L28.5816 160.689L26.0116 160.959L19.0816 166.489L17.4216 167.149L13.5116 170.589L13.3216 171.579L11.8216 172.369L7.74164 173.089L4.57165 173.109L1.38165 175.889L1.94165 174.109L1.35165 172.749L1.34165 169.209L0.631645 168.309L0.871645 166.869L1.42165 165.479L1.03165 162.769L0.0616455 160.979L0.801645 159.579L2.23165 158.669L1.83165 155.329L2.52165 155.099L2.86165 153.379L2.66165 152.759L2.68165 151.879L3.37165 150.239L3.80165 148.679L3.39165 147.919L3.12165 147.149L2.77165 146.369L2.90165 145.199L3.15165 143.469L3.31165 142.779L8.68165 142.959L9.39165 142.799L10.4416 141.619L13.9916 141.059L14.6516 141.879L15.8916 142.329L17.3816 142.229L22.3316 140.499L22.5816 138.739L24.5316 134.859L24.7016 131.119L26.6116 129.239L26.2716 123.419L24.9916 119.409L25.3016 117.989L26.4616 116.109L28.9316 114.729L29.7516 112.899L32.3416 109.279L33.1916 106.179L34.2316 105.589L36.3716 105.839L38.4616 104.109L38.5616 102.889L37.2216 100.329L36.9016 98.3987L37.2716 97.0587L38.3816 95.8387L45.1316 93.1387L48.5216 93.3787L49.6616 93.0787L51.6816 91.0187L51.8016 89.7187L54.1616 87.1287L54.7316 84.7187L54.9816 79.7487L55.8316 78.6487L57.9116 77.7887L58.3616 76.3587Z" fill="#FFDDA1" stroke="#D6A246" stroke-width="2" mask="url(#path-3-inside-3_1_42)"/>
<mask id="path-4-inside-4_1_42" fill="white">
<path d="M303.242 127.469L304.582 126.449L305.332 126.559L305.932 128.439L306.632 129.229L308.132 128.619L309.062 128.759L311.502 130.549L312.842 130.299L314.592 131.359H315.692L318.002 129.259L318.942 126.719L320.592 124.599L321.602 124.249L322.702 124.639L325.632 127.309L325.952 130.559L330.172 132.999L331.202 134.609L331.152 144.309L331.552 145.619L332.892 146.579L334.042 146.369L336.392 144.769L340.552 140.019L341.442 138.119L342.732 137.139L344.062 137.359L345.562 138.609L349.372 138.849L354.712 144.759L355.312 146.659L357.782 146.789L359.392 146.369L360.212 145.649L363.522 140.249L366.172 134.639L367.262 134.069L368.952 135.719L371.372 135.829L373.452 136.679L374.082 141.159L376.012 144.569L378.172 145.549L383.492 146.109H387.192L389.962 144.759L391.002 145.319L393.012 147.529L392.222 150.459L389.522 154.469L387.412 156.449L386.002 156.649L384.542 157.699L382.992 160.559L381.442 161.919L381.122 164.169L381.762 165.889L383.852 168.319L384.172 169.559L383.872 174.969L385.312 177.039L390.462 179.749L394.122 181.049L402.312 180.899L412.072 178.109L422.432 182.439L424.952 184.509L426.412 187.189L423.832 190.869L421.092 191.689L416.582 190.739L416.252 190.329L414.732 190.559L413.732 189.489L412.002 188.589H410.142L408.862 189.449L407.532 191.589L406.802 194.449L408.512 195.809L410.542 198.319L410.892 201.199L410.352 201.849L411.352 204.529L411.242 205.719L400.012 212.929L398.802 214.319L387.012 205.389L387.002 206.089L383.042 206.309L378.162 205.899L371.302 204.349L361.212 200.629L358.532 200.189L355.942 200.369L354.562 200.649L350.612 202.849L349.372 204.259L348.352 207.119L348.432 209.639L353.132 221.279L353.042 222.639L351.902 223.739L346.572 221.509L343.252 218.709L342.182 218.849L336.932 217.859L332.012 215.039L323.302 211.489L314.792 210.239L305.662 207.759L297.962 207.189L294.382 206.509L287.312 207.209L274.912 210.579L265.652 214.649L261.392 217.599L260.702 217.039L260.872 213.299L261.722 211.179L263.332 209.509L263.372 204.819L264.542 200.109L264.002 193.939L261.812 191.279L260.992 189.589V188.729L262.542 186.069L263.142 183.429L274.272 181.679L277.182 180.479L281.812 179.419L288.772 175.779L292.552 171.159L293.592 169.519L294.672 166.119L295.462 165.759L296.982 157.809L298.962 152.539L299.512 145.539L299.002 143.349L299.082 137.729L301.192 131.209L301.722 130.599L302.752 130.529L303.172 129.909L303.242 127.469Z"/>
</mask>
<path d="M303.242 127.469L304.582 126.449L305.332 126.559L305.932 128.439L306.632 129.229L308.132 128.619L309.062 128.759L311.502 130.549L312.842 130.299L314.592 131.359H315.692L318.002 129.259L318.942 126.719L320.592 124.599L321.602 124.249L322.702 124.639L325.632 127.309L325.952 130.559L330.172 132.999L331.202 134.609L331.152 144.309L331.552 145.619L332.892 146.579L334.042 146.369L336.392 144.769L340.552 140.019L341.442 138.119L342.732 137.139L344.062 137.359L345.562 138.609L349.372 138.849L354.712 144.759L355.312 146.659L357.782 146.789L359.392 146.369L360.212 145.649L363.522 140.249L366.172 134.639L367.262 134.069L368.952 135.719L371.372 135.829L373.452 136.679L374.082 141.159L376.012 144.569L378.172 145.549L383.492 146.109H387.192L389.962 144.759L391.002 145.319L393.012 147.529L392.222 150.459L389.522 154.469L387.412 156.449L386.002 156.649L384.542 157.699L382.992 160.559L381.442 161.919L381.122 164.169L381.762 165.889L383.852 168.319L384.172 169.559L383.872 174.969L385.312 177.039L390.462 179.749L394.122 181.049L402.312 180.899L412.072 178.109L422.432 182.439L424.952 184.509L426.412 187.189L423.832 190.869L421.092 191.689L416.582 190.739L416.252 190.329L414.732 190.559L413.732 189.489L412.002 188.589H410.142L408.862 189.449L407.532 191.589L406.802 194.449L408.512 195.809L410.542 198.319L410.892 201.199L410.352 201.849L411.352 204.529L411.242 205.719L400.012 212.929L398.802 214.319L387.012 205.389L387.002 206.089L383.042 206.309L378.162 205.899L371.302 204.349L361.212 200.629L358.532 200.189L355.942 200.369L354.562 200.649L350.612 202.849L349.372 204.259L348.352 207.119L348.432 209.639L353.132 221.279L353.042 222.639L351.902 223.739L346.572 221.509L343.252 218.709L342.182 218.849L336.932 217.859L332.012 215.039L323.302 211.489L314.792 210.239L305.662 207.759L297.962 207.189L294.382 206.509L287.312 207.209L274.912 210.579L265.652 214.649L261.392 217.599L260.702 217.039L260.872 213.299L261.722 211.179L263.332 209.509L263.372 204.819L264.542 200.109L264.002 193.939L261.812 191.279L260.992 189.589V188.729L262.542 186.069L263.142 183.429L274.272 181.679L277.182 180.479L281.812 179.419L288.772 175.779L292.552 171.159L293.592 169.519L294.672 166.119L295.462 165.759L296.982 157.809L298.962 152.539L299.512 145.539L299.002 143.349L299.082 137.729L301.192 131.209L301.722 130.599L302.752 130.529L303.172 129.909L303.242 127.469Z" fill="#FFDDA1" stroke="#D6A246" stroke-width="2" mask="url(#path-4-inside-4_1_42)"/>
<mask id="path-5-inside-5_1_42" fill="white">
<path d="M61.0017 13.8987L61.8917 13.3787L64.7817 13.7387L75.8217 19.8187L79.3117 21.2387L81.1717 21.5287L93.3417 20.7187L99.5317 21.0787L104.032 20.2287L106.972 20.1587L112.212 21.8487L120.612 27.5487L122.192 27.4487L125.082 28.5087L125.592 29.2487L125.392 33.2987L122.962 44.0087L118.342 48.4387L114.422 49.8787L112.942 50.8887L111.102 52.8887L109.642 56.1487L109.462 62.4687L110.582 64.8787L113.512 67.5387L113.222 71.4787L112.192 74.7587L112.212 77.0387L113.632 78.0287L117.952 78.4887L118.512 78.0087L119.012 72.1587L126.432 69.6587L129.812 69.3987L132.452 67.8287L134.222 65.6987L134.502 64.1687L133.752 61.7287L131.892 58.6987L130.082 56.7287L128.832 53.8987L129.282 52.5287L129.322 42.9387L130.222 42.1887L131.772 41.7687L136.772 42.2887L141.992 39.6487L145.792 38.6787L146.802 37.1887L146.872 35.1187L145.702 33.7587L142.962 32.1287L142.472 30.6787L143.102 29.2087L145.282 27.7587L145.532 26.6887L144.412 20.1287L143.632 19.3887L141.922 19.4187L140.872 17.4087L135.512 16.8787L130.112 14.6887L126.482 12.6787L125.612 11.4187L125.452 9.87874L126.822 7.80875L131.672 5.21873L136.102 3.59874L143.972 1.76874L153.832 0.178741L157.472 0.218735L160.312 0.928741L162.002 2.52875L162.982 9.03874L163.792 10.2987L167.542 12.7687L168.022 14.5487L167.652 19.3587L168.012 23.3787L169.652 24.6287L180.322 23.9387L192.422 18.8587L196.352 18.4487L197.632 16.2487L201.052 13.4887L202.902 13.8487L204.262 14.9487L207.582 19.3487L211.382 25.9887L212.972 30.0787L212.902 30.9187L209.862 36.2987L209.462 41.0887L210.902 43.4687L211.042 44.9487L210.302 46.9487L210.542 50.7587L208.702 52.5587L208.372 54.8687L208.592 56.2387L211.642 58.2387L212.862 61.7587L214.292 62.3587L215.702 61.4687L221.082 54.4587L226.672 49.9587L229.132 48.4587L231.232 47.8487L234.142 47.7187L235.162 48.7187L236.202 51.3787L243.832 48.5187L247.802 49.0787L248.442 48.0987L247.772 45.7087L248.952 44.5087L253.682 45.0087L254.292 45.5187L254.772 47.4387L255.052 51.9387L256.442 52.0787L258.692 51.4087L260.302 51.8487L262.282 55.6487L262.232 58.2187L260.882 62.3587L265.712 64.0187L268.942 65.7687L268.632 67.7487L267.612 69.5387L263.372 72.1387L262.522 73.6187L260.902 75.2987L258.732 76.6587L257.822 77.8987L258.852 79.8787L260.562 81.5387L267.232 84.0287L280.102 83.9487L281.472 84.6187L281.802 85.6287L281.962 90.6887L282.882 94.5687L282.982 97.6588L282.352 99.1687L279.122 99.5787L278.242 99.9987L277.952 100.639L278.122 101.549L279.252 102.319L282.872 103.679L282.042 106.699L285.042 108.319L285.622 110.199L282.532 113.369L281.932 116.159L281.142 117.029L278.692 118.319L278.132 119.249L278.042 121.569L281.432 124.349L280.052 128.479L282.512 127.879L283.742 128.299L275.092 140.639L274.152 140.879L264.962 132.779L263.202 132.149L252.172 132.619L249.492 132.949L249.152 133.329L248.792 146.989L249.542 177.199L249.082 178.569L251.032 183.479L252.452 183.949L254.282 183.739L253.162 186.989L249.592 188.729L249.532 191.699L249.072 191.789L248.082 190.909L247.892 191.169L246.652 193.699L246.032 196.589L245.702 196.939L244.072 196.689L241.352 194.149L235.882 186.879L233.172 184.189L229.462 181.889L226.912 173.639L224.142 169.319L220.622 166.069L217.852 164.489L215.652 163.919L207.392 162.209L199.872 162.519L196.482 163.429L191.562 163.109L189.722 162.509L188.262 161.799L187.332 160.309L182.142 156.639L170.372 149.319L169.732 149.589L166.002 147.979L161.482 147.169L157.522 148.329L155.272 147.639L148.922 140.409L147.502 139.309L141.152 136.299L138.742 136.459L129.582 140.019L127.582 140.029L125.692 138.709L124.952 133.259L124.052 131.149L122.982 130.599L119.942 130.209L116.732 127.799L116.072 126.779L115.722 125.379L115.912 121.949L115.482 120.329L114.642 119.589L107.072 120.379L105.772 119.989L104.892 116.309L104.832 110.929L105.562 106.279L105.292 103.339L104.252 102.859L102.552 103.039L100.262 101.459L94.6517 94.9787L92.6617 91.8787L78.6817 76.0187L75.0617 75.0887L63.7417 75.4387L58.3617 76.3587L58.8517 73.3387L56.8917 72.6387L54.7917 70.6187L53.0417 67.0787L56.1217 60.1087L55.9817 58.4187L56.8717 57.2787L59.4517 55.9487L65.5317 59.1387L66.5317 56.0187L66.7817 53.0287L69.6017 46.5987L68.9417 40.3987L66.2517 38.4987L63.2817 32.8987L64.4917 28.2987L64.6217 26.2587L63.3917 21.2087L61.2617 20.3887L61.6817 18.4387L61.4017 16.4887L61.9117 14.5387L61.0017 13.8987Z"/>
</mask>
<path d="M61.0017 13.8987L61.8917 13.3787L64.7817 13.7387L75.8217 19.8187L79.3117 21.2387L81.1717 21.5287L93.3417 20.7187L99.5317 21.0787L104.032 20.2287L106.972 20.1587L112.212 21.8487L120.612 27.5487L122.192 27.4487L125.082 28.5087L125.592 29.2487L125.392 33.2987L122.962 44.0087L118.342 48.4387L114.422 49.8787L112.942 50.8887L111.102 52.8887L109.642 56.1487L109.462 62.4687L110.582 64.8787L113.512 67.5387L113.222 71.4787L112.192 74.7587L112.212 77.0387L113.632 78.0287L117.952 78.4887L118.512 78.0087L119.012 72.1587L126.432 69.6587L129.812 69.3987L132.452 67.8287L134.222 65.6987L134.502 64.1687L133.752 61.7287L131.892 58.6987L130.082 56.7287L128.832 53.8987L129.282 52.5287L129.322 42.9387L130.222 42.1887L131.772 41.7687L136.772 42.2887L141.992 39.6487L145.792 38.6787L146.802 37.1887L146.872 35.1187L145.702 33.7587L142.962 32.1287L142.472 30.6787L143.102 29.2087L145.282 27.7587L145.532 26.6887L144.412 20.1287L143.632 19.3887L141.922 19.4187L140.872 17.4087L135.512 16.8787L130.112 14.6887L126.482 12.6787L125.612 11.4187L125.452 9.87874L126.822 7.80875L131.672 5.21873L136.102 3.59874L143.972 1.76874L153.832 0.178741L157.472 0.218735L160.312 0.928741L162.002 2.52875L162.982 9.03874L163.792 10.2987L167.542 12.7687L168.022 14.5487L167.652 19.3587L168.012 23.3787L169.652 24.6287L180.322 23.9387L192.422 18.8587L196.352 18.4487L197.632 16.2487L201.052 13.4887L202.902 13.8487L204.262 14.9487L207.582 19.3487L211.382 25.9887L212.972 30.0787L212.902 30.9187L209.862 36.2987L209.462 41.0887L210.902 43.4687L211.042 44.9487L210.302 46.9487L210.542 50.7587L208.702 52.5587L208.372 54.8687L208.592 56.2387L211.642 58.2387L212.862 61.7587L214.292 62.3587L215.702 61.4687L221.082 54.4587L226.672 49.9587L229.132 48.4587L231.232 47.8487L234.142 47.7187L235.162 48.7187L236.202 51.3787L243.832 48.5187L247.802 49.0787L248.442 48.0987L247.772 45.7087L248.952 44.5087L253.682 45.0087L254.292 45.5187L254.772 47.4387L255.052 51.9387L256.442 52.0787L258.692 51.4087L260.302 51.8487L262.282 55.6487L262.232 58.2187L260.882 62.3587L265.712 64.0187L268.942 65.7687L268.632 67.7487L267.612 69.5387L263.372 72.1387L262.522 73.6187L260.902 75.2987L258.732 76.6587L257.822 77.8987L258.852 79.8787L260.562 81.5387L267.232 84.0287L280.102 83.9487L281.472 84.6187L281.802 85.6287L281.962 90.6887L282.882 94.5687L282.982 97.6588L282.352 99.1687L279.122 99.5787L278.242 99.9987L277.952 100.639L278.122 101.549L279.252 102.319L282.872 103.679L282.042 106.699L285.042 108.319L285.622 110.199L282.532 113.369L281.932 116.159L281.142 117.029L278.692 118.319L278.132 119.249L278.042 121.569L281.432 124.349L280.052 128.479L282.512 127.879L283.742 128.299L275.092 140.639L274.152 140.879L264.962 132.779L263.202 132.149L252.172 132.619L249.492 132.949L249.152 133.329L248.792 146.989L249.542 177.199L249.082 178.569L251.032 183.479L252.452 183.949L254.282 183.739L253.162 186.989L249.592 188.729L249.532 191.699L249.072 191.789L248.082 190.909L247.892 191.169L246.652 193.699L246.032 196.589L245.702 196.939L244.072 196.689L241.352 194.149L235.882 186.879L233.172 184.189L229.462 181.889L226.912 173.639L224.142 169.319L220.622 166.069L217.852 164.489L215.652 163.919L207.392 162.209L199.872 162.519L196.482 163.429L191.562 163.109L189.722 162.509L188.262 161.799L187.332 160.309L182.142 156.639L170.372 149.319L169.732 149.589L166.002 147.979L161.482 147.169L157.522 148.329L155.272 147.639L148.922 140.409L147.502 139.309L141.152 136.299L138.742 136.459L129.582 140.019L127.582 140.029L125.692 138.709L124.952 133.259L124.052 131.149L122.982 130.599L119.942 130.209L116.732 127.799L116.072 126.779L115.722 125.379L115.912 121.949L115.482 120.329L114.642 119.589L107.072 120.379L105.772 119.989L104.892 116.309L104.832 110.929L105.562 106.279L105.292 103.339L104.252 102.859L102.552 103.039L100.262 101.459L94.6517 94.9787L92.6617 91.8787L78.6817 76.0187L75.0617 75.0887L63.7417 75.4387L58.3617 76.3587L58.8517 73.3387L56.8917 72.6387L54.7917 70.6187L53.0417 67.0787L56.1217 60.1087L55.9817 58.4187L56.8717 57.2787L59.4517 55.9487L65.5317 59.1387L66.5317 56.0187L66.7817 53.0287L69.6017 46.5987L68.9417 40.3987L66.2517 38.4987L63.2817 32.8987L64.4917 28.2987L64.6217 26.2587L63.3917 21.2087L61.2617 20.3887L61.6817 18.4387L61.4017 16.4887L61.9117 14.5387L61.0017 13.8987Z" fill="#FFDDA1" stroke="#D6A246" stroke-width="2" mask="url(#path-5-inside-5_1_42)"/>
<mask id="path-6-inside-6_1_42" fill="white">
<path d="M375.002 63.4987L376.532 63.0087L379.712 63.0887L382.492 63.9687L385.102 68.1287L385.882 72.9287L385.842 85.3087L396.812 83.1187L397.872 83.3287L399.672 85.2487L400.642 88.3787L400.902 94.3187L400.672 95.4887L398.292 99.9587L398.202 101.649L398.802 102.499L402.722 103.919L403.512 104.629L404.412 105.789L406.062 109.859L407.622 111.199L409.132 111.729L413.932 111.999L419.402 113.479L429.442 112.889L433.832 111.479L436.722 106.269L441.482 104.969L441.982 103.299L441.712 101.559L438.542 97.4987L438.842 96.0587L441.872 94.2787L449.472 98.2287L452.042 98.7387L461.302 103.669L472.372 108.409L478.552 112.449L484.912 115.879L486.472 119.819L486.682 121.969L486.172 126.049L486.932 132.009L489.232 135.869L490.282 141.889L489.732 143.219L490.032 145.469H490.462L490.672 151.009L488.892 154.089L476.712 159.949L474.812 159.839L465.292 161.939L462.802 163.379L460.742 167.569L456.002 173.289L448.892 177.049L441.212 184.699L438.782 185.889L434.372 186.899L430.262 187.439L426.412 187.189L424.952 184.509L422.432 182.439L412.072 178.109L402.312 180.899L394.122 181.049L390.462 179.749L385.312 177.039L383.872 174.969L384.172 169.559L383.852 168.319L381.762 165.889L381.122 164.169L381.442 161.919L382.992 160.559L384.542 157.699L386.002 156.649L387.412 156.449L389.522 154.469L392.222 150.459L393.012 147.529L391.002 145.319L389.962 144.759L387.192 146.109H383.492L378.172 145.549L376.012 144.569L374.082 141.159L373.452 136.679L371.372 135.829L368.952 135.719L367.262 134.069L368.932 130.129L368.812 126.719L367.812 124.629L366.102 123.419L363.532 120.339L360.272 115.059L360.172 113.899L361.222 112.499L361.012 107.759L362.772 106.479L363.172 103.399L365.082 101.849L365.502 100.779L364.972 98.6787L365.672 90.8687L365.492 88.8987L365.832 87.7987L368.222 85.8287L367.472 82.3087L366.112 79.4887L366.332 76.7787L368.462 71.8087L370.362 70.4087L372.552 69.6787L373.872 68.1187L374.422 66.6887L374.632 63.7887L375.002 63.4987Z"/>
</mask>
<path d="M375.002 63.4987L376.532 63.0087L379.712 63.0887L382.492 63.9687L385.102 68.1287L385.882 72.9287L385.842 85.3087L396.812 83.1187L397.872 83.3287L399.672 85.2487L400.642 88.3787L400.902 94.3187L400.672 95.4887L398.292 99.9587L398.202 101.649L398.802 102.499L402.722 103.919L403.512 104.629L404.412 105.789L406.062 109.859L407.622 111.199L409.132 111.729L413.932 111.999L419.402 113.479L429.442 112.889L433.832 111.479L436.722 106.269L441.482 104.969L441.982 103.299L441.712 101.559L438.542 97.4987L438.842 96.0587L441.872 94.2787L449.472 98.2287L452.042 98.7387L461.302 103.669L472.372 108.409L478.552 112.449L484.912 115.879L486.472 119.819L486.682 121.969L486.172 126.049L486.932 132.009L489.232 135.869L490.282 141.889L489.732 143.219L490.032 145.469H490.462L490.672 151.009L488.892 154.089L476.712 159.949L474.812 159.839L465.292 161.939L462.802 163.379L460.742 167.569L456.002 173.289L448.892 177.049L441.212 184.699L438.782 185.889L434.372 186.899L430.262 187.439L426.412 187.189L424.952 184.509L422.432 182.439L412.072 178.109L402.312 180.899L394.122 181.049L390.462 179.749L385.312 177.039L383.872 174.969L384.172 169.559L383.852 168.319L381.762 165.889L381.122 164.169L381.442 161.919L382.992 160.559L384.542 157.699L386.002 156.649L387.412 156.449L389.522 154.469L392.222 150.459L393.012 147.529L391.002 145.319L389.962 144.759L387.192 146.109H383.492L378.172 145.549L376.012 144.569L374.082 141.159L373.452 136.679L371.372 135.829L368.952 135.719L367.262 134.069L368.932 130.129L368.812 126.719L367.812 124.629L366.102 123.419L363.532 120.339L360.272 115.059L360.172 113.899L361.222 112.499L361.012 107.759L362.772 106.479L363.172 103.399L365.082 101.849L365.502 100.779L364.972 98.6787L365.672 90.8687L365.492 88.8987L365.832 87.7987L368.222 85.8287L367.472 82.3087L366.112 79.4887L366.332 76.7787L368.462 71.8087L370.362 70.4087L372.552 69.6787L373.872 68.1187L374.422 66.6887L374.632 63.7887L375.002 63.4987Z" fill="#FFDDA1" stroke="#D6A246" stroke-width="2" mask="url(#path-6-inside-6_1_42)"/>
<path d="M294.338 129.275L294.622 129.434L294.882 129.238L296.012 128.388L296.091 128.329L296.141 128.245L297.877 125.329L298.606 124.957L299.283 125.23L300.67 128.162L300.761 128.356L300.965 128.424L301.905 128.734L302.137 128.81L302.34 128.674L302.714 128.424L302.676 129.749L302.474 130.046L301.688 130.1L301.48 130.114L301.344 130.271L300.814 130.881L300.747 130.958L300.716 131.055L298.606 137.575L298.583 137.646L298.582 137.722L298.502 143.342L298.501 143.403L298.515 143.462L299.007 145.577L298.469 152.429L296.514 157.633L296.499 157.673L296.491 157.715L295.019 165.411L294.464 165.664L294.262 165.756L294.195 165.967L293.135 169.306L292.146 170.865L288.449 175.383L281.637 178.946L277.07 179.991L277.029 180.001L276.991 180.016L274.136 181.194L263.064 182.935L263.024 182.941L262.986 182.954L261.667 183.387L254.292 183.239L254.258 183.238L254.225 183.242L252.504 183.439L251.41 183.077L249.614 178.554L250.016 177.358L250.044 177.274L250.042 177.186L249.292 146.989L249.647 133.525L249.739 133.422L252.213 133.117L263.125 132.652L264.703 133.217L273.821 141.254L274.019 141.429L274.275 141.363L275.215 141.123L275.395 141.077L275.501 140.926L284.02 128.773L289.862 128.171L292.908 128.476L294.338 129.275Z" fill="#FFDDA1" stroke="#D6A246"/>
</svg>
