<svg width="371" height="451" viewBox="0 0 371 451" fill="none" xmlns="http://www.w3.org/2000/svg">
<mask id="path-1-inside-1_1_44" fill="white">
<path d="M309.642 176.169L309.512 177.999L308.692 179.759L307.672 181.329L306.572 182.159L304.802 185.059L303.442 189.949L300.782 192.399L300.302 193.499L299.692 196.509L300.412 200.119L301.182 201.179V202.879L299.572 204.539L299.312 209.149L298.342 210.819L298.472 214.269L297.692 216.209L295.642 218.779L295.382 221.799L293.772 222.839L292.332 225.449L286.462 226.609L282.282 232.489L282.432 233.469L283.972 235.089L284.012 235.729L282.862 238.469L281.012 239.859L280.982 241.629L281.672 243.229L284.362 244.559L285.372 246.149L283.212 249.239L283.082 251.489L282.542 252.779L282.812 253.889L281.732 255.359L282.062 256.139L281.842 257.549L282.272 258.179L281.532 260.379L280.512 262.019L279.542 261.889L277.842 263.209L269.832 264.029L267.082 266.189L265.462 266.479L261.702 269.869L257.942 271.849L258.032 273.189L260.402 273.459L260.892 273.879L260.982 281.359L260.252 282.049L259.422 286.459L260.262 288.529L259.102 292.559L259.402 293.879L256.592 298.679L253.952 300.979L253.942 301.979L254.652 302.969L253.832 305.019L255.102 308.939L253.972 310.789L252.882 311.169L251.212 310.939L249.752 311.479L249.182 312.579L249.022 315.309L248.042 316.049L247.052 317.899L244.872 318.089L241.472 320.849L240.642 320.969L234.762 319.329L234.102 319.989L233.862 321.699L232.682 322.859L231.872 325.909L230.102 328.249L227.772 328.389L226.652 329.279L224.182 328.999L222.332 330.209L220.422 330.539L219.702 331.359L219.022 335.399L220.462 340.619L221.042 346.389L220.982 347.429L220.212 347.989L217.782 352.499L218.402 355.009L218.622 358.739L214.492 365.089L211.002 368.179L209.242 371.189L208.762 373.189L207.642 374.659L207.232 378.109L206.122 379.669L206.812 385.809L207.462 387.609L204.532 389.089L202.572 389.359L199.822 392.499L198.602 391.619L198.652 390.059L196.712 385.439L196.332 381.899L195.592 380.169L196.172 374.679L195.132 372.659L192.982 370.059L188.662 366.219L186.162 363.069L184.642 361.949L183.222 361.519L181.582 361.899L178.752 365.909L176.032 367.899L173.322 365.449L170.412 360.749L167.892 354.019L168.712 352.439L172.852 347.659L176.652 344.439L181.732 338.959L190.362 327.439L196.482 322.219L196.922 320.139L196.542 314.359L202.532 302.919L203.532 299.299L203.272 297.489L201.252 293.649L197.112 292.179L194.452 289.239L194.112 285.399L194.572 283.229L189.312 273.409L187.232 272.119L182.582 271.039L181.122 269.119L175.672 258.939L181.872 258.029L185.242 256.599L194.642 250.939L200.392 246.939L201.492 244.609L200.972 240.909L201.652 230.679L207.992 231.649L210.692 231.459L215.262 230.139L217.002 229.069L218.702 227.169L222.432 221.619L228.632 214.559L231.142 213.689L237.432 213.199L243.332 210.979L245.772 208.359L246.592 205.699L249.912 205.559L252.262 204.419L254.482 200.719L256.582 198.559L259.092 197.089L267.612 197.879L270.482 198.909L273.062 200.459L275.902 203.569L278.332 204.719L280.712 205.739L285.102 205.729L286.242 204.509L287.722 196.749L290.432 191.069L291.652 187.429L292.532 183.329L292.812 175.319L295.902 174.889L296.522 175.629L300.272 176.769L304.132 176.479L309.752 174.739L309.642 176.169Z"/>
</mask>
<path d="M309.642 176.169L309.512 177.999L308.692 179.759L307.672 181.329L306.572 182.159L304.802 185.059L303.442 189.949L300.782 192.399L300.302 193.499L299.692 196.509L300.412 200.119L301.182 201.179V202.879L299.572 204.539L299.312 209.149L298.342 210.819L298.472 214.269L297.692 216.209L295.642 218.779L295.382 221.799L293.772 222.839L292.332 225.449L286.462 226.609L282.282 232.489L282.432 233.469L283.972 235.089L284.012 235.729L282.862 238.469L281.012 239.859L280.982 241.629L281.672 243.229L284.362 244.559L285.372 246.149L283.212 249.239L283.082 251.489L282.542 252.779L282.812 253.889L281.732 255.359L282.062 256.139L281.842 257.549L282.272 258.179L281.532 260.379L280.512 262.019L279.542 261.889L277.842 263.209L269.832 264.029L267.082 266.189L265.462 266.479L261.702 269.869L257.942 271.849L258.032 273.189L260.402 273.459L260.892 273.879L260.982 281.359L260.252 282.049L259.422 286.459L260.262 288.529L259.102 292.559L259.402 293.879L256.592 298.679L253.952 300.979L253.942 301.979L254.652 302.969L253.832 305.019L255.102 308.939L253.972 310.789L252.882 311.169L251.212 310.939L249.752 311.479L249.182 312.579L249.022 315.309L248.042 316.049L247.052 317.899L244.872 318.089L241.472 320.849L240.642 320.969L234.762 319.329L234.102 319.989L233.862 321.699L232.682 322.859L231.872 325.909L230.102 328.249L227.772 328.389L226.652 329.279L224.182 328.999L222.332 330.209L220.422 330.539L219.702 331.359L219.022 335.399L220.462 340.619L221.042 346.389L220.982 347.429L220.212 347.989L217.782 352.499L218.402 355.009L218.622 358.739L214.492 365.089L211.002 368.179L209.242 371.189L208.762 373.189L207.642 374.659L207.232 378.109L206.122 379.669L206.812 385.809L207.462 387.609L204.532 389.089L202.572 389.359L199.822 392.499L198.602 391.619L198.652 390.059L196.712 385.439L196.332 381.899L195.592 380.169L196.172 374.679L195.132 372.659L192.982 370.059L188.662 366.219L186.162 363.069L184.642 361.949L183.222 361.519L181.582 361.899L178.752 365.909L176.032 367.899L173.322 365.449L170.412 360.749L167.892 354.019L168.712 352.439L172.852 347.659L176.652 344.439L181.732 338.959L190.362 327.439L196.482 322.219L196.922 320.139L196.542 314.359L202.532 302.919L203.532 299.299L203.272 297.489L201.252 293.649L197.112 292.179L194.452 289.239L194.112 285.399L194.572 283.229L189.312 273.409L187.232 272.119L182.582 271.039L181.122 269.119L175.672 258.939L181.872 258.029L185.242 256.599L194.642 250.939L200.392 246.939L201.492 244.609L200.972 240.909L201.652 230.679L207.992 231.649L210.692 231.459L215.262 230.139L217.002 229.069L218.702 227.169L222.432 221.619L228.632 214.559L231.142 213.689L237.432 213.199L243.332 210.979L245.772 208.359L246.592 205.699L249.912 205.559L252.262 204.419L254.482 200.719L256.582 198.559L259.092 197.089L267.612 197.879L270.482 198.909L273.062 200.459L275.902 203.569L278.332 204.719L280.712 205.739L285.102 205.729L286.242 204.509L287.722 196.749L290.432 191.069L291.652 187.429L292.532 183.329L292.812 175.319L295.902 174.889L296.522 175.629L300.272 176.769L304.132 176.479L309.752 174.739L309.642 176.169Z" fill="#A6E1A8" stroke="#21CE27" stroke-width="2" mask="url(#path-1-inside-1_1_44)"/>
<mask id="path-2-inside-2_1_44" fill="white">
<path d="M118.942 76.5187L126.682 82.7087L127.822 85.6387L128.592 92.7187L128.402 94.5287L131.562 99.1887L131.772 105.929L132.102 108.629L133.052 111.339L133.252 115.209L141.602 136.119L141.372 141.039L140.322 143.759L139.332 150.539L140.962 152.069L144.002 152.439L143.202 152.679L140.492 156.439L134.452 159.719L131.882 163.419L129.872 165.169L128.382 165.929L124.472 166.809L123.032 168.169L121.652 170.199L120.682 175.139L118.072 182.569L114.462 187.639L114.262 189.019L121.642 192.009L122.782 193.719L123.652 200.869L124.532 202.019L131.732 204.639L133.812 209.579L133.332 218.209L133.732 221.069L132.902 222.829L129.002 223.459L127.012 224.379L125.702 226.289L126.032 227.909L130.322 232.289L132.822 233.699L141.972 240.789L143.202 244.579L143.812 250.769L146.392 256.049L148.082 258.169L147.952 259.119L147.372 259.279L143.382 259.249L136.942 258.159L126.352 263.009L120.502 262.229L115.912 264.879L109.552 261.449L103.372 257.409L92.3016 252.669L83.0417 247.739L80.4716 247.229L72.8716 243.279L69.8416 245.059L69.5417 246.499L72.7116 250.559L72.9817 252.299L72.4817 253.969L67.7216 255.269L64.8317 260.479L60.4417 261.889L50.4016 262.479L44.9316 260.999L40.1317 260.729L38.6216 260.199L37.0616 258.859L35.4117 254.789L34.5117 253.629L33.7216 252.919L29.8016 251.499L29.2017 250.649L29.2917 248.959L31.6717 244.489L31.9016 243.319L31.6417 237.379L30.6717 234.249L28.8716 232.329L27.8116 232.119L16.8416 234.309L16.8817 221.929L16.1017 217.129L13.4916 212.969L10.7116 212.089L7.53165 212.009L6.00165 212.499L3.47165 209.789L0.681641 208.039L0.411652 207.309L2.76166 203.109L3.29166 199.149L4.28165 198.589L6.87164 194.499L8.20166 190.649L8.12164 188.649L7.35165 186.979L3.49164 182.649L3.04166 180.659L2.64166 173.769L3.09164 170.269L4.69165 165.699L5.71164 165.269L8.41165 165.429L10.4517 164.919L13.1917 161.709L15.8416 157.599L20.5817 153.429L21.2516 152.329L23.7317 150.759L25.4217 150.459L26.5616 151.529L27.7017 151.619L33.2216 149.449L34.2216 149.259L40.2216 150.359L47.6516 152.769L51.0016 151.309L53.3016 152.039L55.0817 155.709L58.2116 155.919L65.9117 155.439L69.4817 154.529L70.6216 154.829L73.2917 159.729L73.8317 161.879L73.0016 169.729L73.8116 171.779L75.1617 173.139L80.8617 174.329L86.4616 172.939L88.0216 173.109L89.8817 174.469L92.3416 175.089L94.2017 174.519L93.0916 171.089L93.1317 169.289L94.6617 167.379L97.1917 166.019L101.232 165.029L102.672 164.249L104.522 162.859L105.622 160.139L104.582 158.679L95.7116 158.119L89.9916 156.849L83.6017 156.079L80.6117 154.229L75.3116 146.809L74.2617 144.309L73.7917 141.739L69.9517 142.679L68.7716 141.569L68.2216 139.829L70.7317 134.829L70.2116 130.509L68.7516 126.089L66.9417 125.589L64.1917 125.859L62.0717 126.889L59.4616 126.929L58.1117 126.299L58.6017 122.039L61.8217 117.499L67.9817 117.039L73.4517 113.999L84.3917 110.269L90.6216 107.759L91.8116 106.819L91.7816 104.569L91.2116 102.689L97.9217 82.0987L102.462 80.1487L105.942 79.5987L106.932 80.4187L107.762 82.0587L107.882 83.4487L118.942 76.5187Z"/>
</mask>
<path d="M118.942 76.5187L126.682 82.7087L127.822 85.6387L128.592 92.7187L128.402 94.5287L131.562 99.1887L131.772 105.929L132.102 108.629L133.052 111.339L133.252 115.209L141.602 136.119L141.372 141.039L140.322 143.759L139.332 150.539L140.962 152.069L144.002 152.439L143.202 152.679L140.492 156.439L134.452 159.719L131.882 163.419L129.872 165.169L128.382 165.929L124.472 166.809L123.032 168.169L121.652 170.199L120.682 175.139L118.072 182.569L114.462 187.639L114.262 189.019L121.642 192.009L122.782 193.719L123.652 200.869L124.532 202.019L131.732 204.639L133.812 209.579L133.332 218.209L133.732 221.069L132.902 222.829L129.002 223.459L127.012 224.379L125.702 226.289L126.032 227.909L130.322 232.289L132.822 233.699L141.972 240.789L143.202 244.579L143.812 250.769L146.392 256.049L148.082 258.169L147.952 259.119L147.372 259.279L143.382 259.249L136.942 258.159L126.352 263.009L120.502 262.229L115.912 264.879L109.552 261.449L103.372 257.409L92.3016 252.669L83.0417 247.739L80.4716 247.229L72.8716 243.279L69.8416 245.059L69.5417 246.499L72.7116 250.559L72.9817 252.299L72.4817 253.969L67.7216 255.269L64.8317 260.479L60.4417 261.889L50.4016 262.479L44.9316 260.999L40.1317 260.729L38.6216 260.199L37.0616 258.859L35.4117 254.789L34.5117 253.629L33.7216 252.919L29.8016 251.499L29.2017 250.649L29.2917 248.959L31.6717 244.489L31.9016 243.319L31.6417 237.379L30.6717 234.249L28.8716 232.329L27.8116 232.119L16.8416 234.309L16.8817 221.929L16.1017 217.129L13.4916 212.969L10.7116 212.089L7.53165 212.009L6.00165 212.499L3.47165 209.789L0.681641 208.039L0.411652 207.309L2.76166 203.109L3.29166 199.149L4.28165 198.589L6.87164 194.499L8.20166 190.649L8.12164 188.649L7.35165 186.979L3.49164 182.649L3.04166 180.659L2.64166 173.769L3.09164 170.269L4.69165 165.699L5.71164 165.269L8.41165 165.429L10.4517 164.919L13.1917 161.709L15.8416 157.599L20.5817 153.429L21.2516 152.329L23.7317 150.759L25.4217 150.459L26.5616 151.529L27.7017 151.619L33.2216 149.449L34.2216 149.259L40.2216 150.359L47.6516 152.769L51.0016 151.309L53.3016 152.039L55.0817 155.709L58.2116 155.919L65.9117 155.439L69.4817 154.529L70.6216 154.829L73.2917 159.729L73.8317 161.879L73.0016 169.729L73.8116 171.779L75.1617 173.139L80.8617 174.329L86.4616 172.939L88.0216 173.109L89.8817 174.469L92.3416 175.089L94.2017 174.519L93.0916 171.089L93.1317 169.289L94.6617 167.379L97.1917 166.019L101.232 165.029L102.672 164.249L104.522 162.859L105.622 160.139L104.582 158.679L95.7116 158.119L89.9916 156.849L83.6017 156.079L80.6117 154.229L75.3116 146.809L74.2617 144.309L73.7917 141.739L69.9517 142.679L68.7716 141.569L68.2216 139.829L70.7317 134.829L70.2116 130.509L68.7516 126.089L66.9417 125.589L64.1917 125.859L62.0717 126.889L59.4616 126.929L58.1117 126.299L58.6017 122.039L61.8217 117.499L67.9817 117.039L73.4517 113.999L84.3917 110.269L90.6216 107.759L91.8116 106.819L91.7816 104.569L91.2116 102.689L97.9217 82.0987L102.462 80.1487L105.942 79.5987L106.932 80.4187L107.762 82.0587L107.882 83.4487L118.942 76.5187Z" fill="#A6E1A8" stroke="#21CE27" stroke-width="2" mask="url(#path-2-inside-2_1_44)"/>
<mask id="path-3-inside-3_1_44" fill="white">
<path d="M289.152 0.078743L289.852 5.72874L289.022 8.72874L292.512 14.9887L292.312 17.5087L291.852 17.9987L292.132 15.8287L291.092 17.1587L290.872 19.0787L293.252 21.6287L295.712 22.2387L295.062 22.9087L295.342 23.4487L296.122 23.6387L300.582 31.1687L303.412 34.2487L304.462 34.4687L306.182 35.4287L307.812 36.6287L311.682 37.3787L311.942 38.2387L311.362 38.2287L310.802 39.3287L310.602 38.2887L309.942 38.8687L309.202 38.8287L310.642 40.4287L310.912 42.1887L314.792 41.0287L317.102 38.4187L319.572 36.3987L321.172 35.7287L320.092 37.4887L320.242 37.9387L320.892 37.7487L321.462 40.0887L321.132 40.3087L320.462 38.9287L319.612 39.4087L319.042 40.6387L317.022 41.2087L317.692 43.0887L316.502 44.2187L314.642 47.9487L315.052 48.7187L316.422 48.2687L316.352 50.7087L315.772 51.8587L316.622 51.8987L316.282 53.2587L315.132 54.7987L315.532 55.3687L317.102 54.9387L317.392 55.4887L314.762 56.8787L316.732 57.3787L316.582 58.2687L317.782 58.3187L317.032 59.1687L315.712 59.4987L315.832 59.9187L317.072 59.6887L317.192 60.2887L316.712 60.7287L316.482 60.3587L315.472 60.5887L315.712 61.3387L316.452 61.2187L315.602 62.8887L317.112 63.0987L317.332 64.4387L316.762 65.1787L317.022 66.4287L317.992 66.6487L318.522 67.8587L318.282 69.0087L320.232 69.5587L320.572 71.0187L321.182 71.5387L322.792 70.5887L323.252 70.7887L323.962 72.6987L325.182 73.4087L325.492 74.4887L327.652 75.2587L327.622 76.3587L328.292 77.3587L327.922 78.5487L328.632 79.1887L329.742 79.7387L331.152 79.2387L333.152 79.4987L332.882 80.5387L333.712 80.5987L334.102 79.9087L335.912 79.8387L337.382 79.0287L339.842 78.9487L340.012 80.1687L341.082 80.2587L340.962 81.1687L339.712 81.4887L339.932 82.0187L339.552 82.6587L340.502 82.9387L342.752 85.5487L346.172 85.0187L347.202 84.9687L347.632 85.7787L349.352 84.9087L352.282 85.7787L355.782 85.4287L356.462 85.7387L357.312 85.8587L358.922 86.1987L359.712 87.3987L360.982 87.7387L361.322 88.6087L360.652 88.6287L360.732 89.7487L362.902 90.7587L363.602 92.1287L362.882 93.5187L365.872 94.2887L366.632 95.7887L366.092 96.2487L367.222 96.7887L368.002 96.9087L368.122 96.4187L369.092 96.3387L369.602 95.8287L370.932 98.3387L369.562 99.6287L369.242 101.429L368.502 102.299L369.182 104.299L367.462 105.459L367.402 107.029L369.602 110.809L368.392 112.549L368.622 113.899L366.302 116.669L366.312 118.169L366.602 121.959L365.902 123.189L363.092 125.339L363.032 125.889L364.292 127.609L366.302 128.739L368.462 130.919L368.902 133.079L368.282 137.759L367.022 138.689L360.662 141.259L356.782 142.159L355.082 145.249L346.992 148.419L343.712 150.489L341.782 153.139L337.322 155.079L335.002 155.119L332.282 152.749L329.762 152.309L328.692 151.479L327.622 151.639L327.012 152.399L326.432 154.719L324.352 157.079L323.572 159.759L322.852 160.809L321.392 161.769L321.632 163.259L320.982 163.469L319.902 165.149L317.582 167.189L316.372 170.099L313.132 171.709L310.712 172.249L309.942 172.999L309.752 174.739L304.132 176.479L300.272 176.769L296.522 175.629L295.902 174.889L292.812 175.319L292.532 183.329L291.652 187.429L290.432 191.069L287.722 196.749L286.242 204.509L285.102 205.729L280.712 205.739L278.332 204.719L275.902 203.569L273.062 200.459L270.482 198.909L267.612 197.879L259.092 197.089L256.582 198.559L254.482 200.719L252.262 204.419L249.912 205.559L246.592 205.699L245.772 208.359L243.332 210.979L237.432 213.199L231.142 213.689L228.632 214.559L222.432 221.619L218.702 227.169L217.002 229.069L215.262 230.139L210.692 231.459L207.992 231.649L201.652 230.679L197.742 228.479L195.932 226.879L192.802 220.709L187.142 218.369L185.312 216.549L182.882 213.039L182.072 210.209L187.252 202.649L187.872 199.629L186.522 196.329L189.562 195.639L192.972 191.109L192.692 182.719L193.302 179.949L195.022 177.119L197.682 175.199L208.892 172.179L215.002 168.529L217.092 165.449L217.332 162.509L216.572 158.359L216.532 155.389L217.432 152.529L220.322 149.179L223.622 143.279L228.162 138.849L229.152 136.739L228.312 133.409L225.182 129.659L220.272 129.869L219.632 129.509L219.482 127.569L224.202 118.429L222.512 110.989L222.642 107.489L225.182 91.1987L225.232 85.4087L223.512 81.5787L224.062 79.3787L231.122 73.0687L233.492 69.9887L235.332 65.7787L234.852 62.0387L230.052 58.1987L228.602 56.3787L227.372 52.5287L228.862 44.5087L228.942 40.2987L230.392 40.1787L234.772 41.0587L234.802 39.8687L235.392 39.4587L235.462 38.7187L235.652 37.0087L237.132 35.6787L238.272 35.9187L239.622 35.1887L239.282 34.0287L240.012 32.9487L239.782 32.6287L238.892 32.4387L239.292 31.3087L240.062 29.9787L240.862 28.1987L241.502 27.5987L243.782 27.9487L245.162 27.0787L246.122 27.1687L246.732 27.9087L247.692 26.7987L247.922 25.3587L249.262 25.1287L250.732 24.8387L251.022 24.3787L250.682 23.9787L251.662 22.8087L253.772 22.3287L254.392 21.0887L255.762 20.3087L255.922 19.5187L256.502 18.7787L256.902 18.0387L256.882 17.1787L257.982 16.7487L258.412 15.7287L257.602 15.4187L258.172 14.8087L259.402 15.4387L259.112 13.8687L260.212 13.9887L260.272 14.4587L261.122 14.7487L262.222 14.6087L264.092 12.9387L265.112 12.5687L265.432 12.9487L267.412 12.8487L268.802 11.5187L269.822 12.0087L269.872 10.9287L270.952 10.5687L271.972 10.6587L271.082 11.8287L272.552 12.6187L273.472 11.3087L274.822 12.3487L274.622 11.0387L276.102 10.5287L275.792 12.6087L276.712 12.7287L277.162 11.7587L278.312 11.5087L279.232 12.8987L280.192 10.3687L281.852 9.52874L281.872 9.08874L281.322 8.89874L281.512 8.18874L282.702 8.38874L283.342 7.58874L282.702 7.41874L282.302 6.39874L283.982 4.79874L283.922 4.21874L285.412 3.54874L285.362 2.61874L286.412 1.55874L287.652 1.31874L288.042 0.258743L289.152 0.078743Z"/>
</mask>
<path d="M289.152 0.078743L289.852 5.72874L289.022 8.72874L292.512 14.9887L292.312 17.5087L291.852 17.9987L292.132 15.8287L291.092 17.1587L290.872 19.0787L293.252 21.6287L295.712 22.2387L295.062 22.9087L295.342 23.4487L296.122 23.6387L300.582 31.1687L303.412 34.2487L304.462 34.4687L306.182 35.4287L307.812 36.6287L311.682 37.3787L311.942 38.2387L311.362 38.2287L310.802 39.3287L310.602 38.2887L309.942 38.8687L309.202 38.8287L310.642 40.4287L310.912 42.1887L314.792 41.0287L317.102 38.4187L319.572 36.3987L321.172 35.7287L320.092 37.4887L320.242 37.9387L320.892 37.7487L321.462 40.0887L321.132 40.3087L320.462 38.9287L319.612 39.4087L319.042 40.6387L317.022 41.2087L317.692 43.0887L316.502 44.2187L314.642 47.9487L315.052 48.7187L316.422 48.2687L316.352 50.7087L315.772 51.8587L316.622 51.8987L316.282 53.2587L315.132 54.7987L315.532 55.3687L317.102 54.9387L317.392 55.4887L314.762 56.8787L316.732 57.3787L316.582 58.2687L317.782 58.3187L317.032 59.1687L315.712 59.4987L315.832 59.9187L317.072 59.6887L317.192 60.2887L316.712 60.7287L316.482 60.3587L315.472 60.5887L315.712 61.3387L316.452 61.2187L315.602 62.8887L317.112 63.0987L317.332 64.4387L316.762 65.1787L317.022 66.4287L317.992 66.6487L318.522 67.8587L318.282 69.0087L320.232 69.5587L320.572 71.0187L321.182 71.5387L322.792 70.5887L323.252 70.7887L323.962 72.6987L325.182 73.4087L325.492 74.4887L327.652 75.2587L327.622 76.3587L328.292 77.3587L327.922 78.5487L328.632 79.1887L329.742 79.7387L331.152 79.2387L333.152 79.4987L332.882 80.5387L333.712 80.5987L334.102 79.9087L335.912 79.8387L337.382 79.0287L339.842 78.9487L340.012 80.1687L341.082 80.2587L340.962 81.1687L339.712 81.4887L339.932 82.0187L339.552 82.6587L340.502 82.9387L342.752 85.5487L346.172 85.0187L347.202 84.9687L347.632 85.7787L349.352 84.9087L352.282 85.7787L355.782 85.4287L356.462 85.7387L357.312 85.8587L358.922 86.1987L359.712 87.3987L360.982 87.7387L361.322 88.6087L360.652 88.6287L360.732 89.7487L362.902 90.7587L363.602 92.1287L362.882 93.5187L365.872 94.2887L366.632 95.7887L366.092 96.2487L367.222 96.7887L368.002 96.9087L368.122 96.4187L369.092 96.3387L369.602 95.8287L370.932 98.3387L369.562 99.6287L369.242 101.429L368.502 102.299L369.182 104.299L367.462 105.459L367.402 107.029L369.602 110.809L368.392 112.549L368.622 113.899L366.302 116.669L366.312 118.169L366.602 121.959L365.902 123.189L363.092 125.339L363.032 125.889L364.292 127.609L366.302 128.739L368.462 130.919L368.902 133.079L368.282 137.759L367.022 138.689L360.662 141.259L356.782 142.159L355.082 145.249L346.992 148.419L343.712 150.489L341.782 153.139L337.322 155.079L335.002 155.119L332.282 152.749L329.762 152.309L328.692 151.479L327.622 151.639L327.012 152.399L326.432 154.719L324.352 157.079L323.572 159.759L322.852 160.809L321.392 161.769L321.632 163.259L320.982 163.469L319.902 165.149L317.582 167.189L316.372 170.099L313.132 171.709L310.712 172.249L309.942 172.999L309.752 174.739L304.132 176.479L300.272 176.769L296.522 175.629L295.902 174.889L292.812 175.319L292.532 183.329L291.652 187.429L290.432 191.069L287.722 196.749L286.242 204.509L285.102 205.729L280.712 205.739L278.332 204.719L275.902 203.569L273.062 200.459L270.482 198.909L267.612 197.879L259.092 197.089L256.582 198.559L254.482 200.719L252.262 204.419L249.912 205.559L246.592 205.699L245.772 208.359L243.332 210.979L237.432 213.199L231.142 213.689L228.632 214.559L222.432 221.619L218.702 227.169L217.002 229.069L215.262 230.139L210.692 231.459L207.992 231.649L201.652 230.679L197.742 228.479L195.932 226.879L192.802 220.709L187.142 218.369L185.312 216.549L182.882 213.039L182.072 210.209L187.252 202.649L187.872 199.629L186.522 196.329L189.562 195.639L192.972 191.109L192.692 182.719L193.302 179.949L195.022 177.119L197.682 175.199L208.892 172.179L215.002 168.529L217.092 165.449L217.332 162.509L216.572 158.359L216.532 155.389L217.432 152.529L220.322 149.179L223.622 143.279L228.162 138.849L229.152 136.739L228.312 133.409L225.182 129.659L220.272 129.869L219.632 129.509L219.482 127.569L224.202 118.429L222.512 110.989L222.642 107.489L225.182 91.1987L225.232 85.4087L223.512 81.5787L224.062 79.3787L231.122 73.0687L233.492 69.9887L235.332 65.7787L234.852 62.0387L230.052 58.1987L228.602 56.3787L227.372 52.5287L228.862 44.5087L228.942 40.2987L230.392 40.1787L234.772 41.0587L234.802 39.8687L235.392 39.4587L235.462 38.7187L235.652 37.0087L237.132 35.6787L238.272 35.9187L239.622 35.1887L239.282 34.0287L240.012 32.9487L239.782 32.6287L238.892 32.4387L239.292 31.3087L240.062 29.9787L240.862 28.1987L241.502 27.5987L243.782 27.9487L245.162 27.0787L246.122 27.1687L246.732 27.9087L247.692 26.7987L247.922 25.3587L249.262 25.1287L250.732 24.8387L251.022 24.3787L250.682 23.9787L251.662 22.8087L253.772 22.3287L254.392 21.0887L255.762 20.3087L255.922 19.5187L256.502 18.7787L256.902 18.0387L256.882 17.1787L257.982 16.7487L258.412 15.7287L257.602 15.4187L258.172 14.8087L259.402 15.4387L259.112 13.8687L260.212 13.9887L260.272 14.4587L261.122 14.7487L262.222 14.6087L264.092 12.9387L265.112 12.5687L265.432 12.9487L267.412 12.8487L268.802 11.5187L269.822 12.0087L269.872 10.9287L270.952 10.5687L271.972 10.6587L271.082 11.8287L272.552 12.6187L273.472 11.3087L274.822 12.3487L274.622 11.0387L276.102 10.5287L275.792 12.6087L276.712 12.7287L277.162 11.7587L278.312 11.5087L279.232 12.8987L280.192 10.3687L281.852 9.52874L281.872 9.08874L281.322 8.89874L281.512 8.18874L282.702 8.38874L283.342 7.58874L282.702 7.41874L282.302 6.39874L283.982 4.79874L283.922 4.21874L285.412 3.54874L285.362 2.61874L286.412 1.55874L287.652 1.31874L288.042 0.258743L289.152 0.078743Z" fill="#A6E1A8" stroke="#21CE27" stroke-width="2" mask="url(#path-3-inside-3_1_44)"/>
<path d="M144.145 152.918L144.262 152.883L144.349 152.798L145.182 151.992L149.159 150.552L153.029 150.715L155.892 151.686L158.005 152.936L166.415 159.137L171.12 165.477L171.139 165.502L171.16 165.524L174.307 168.818L173.522 170.026L174.213 170.719L175.468 169.908L178.731 172.905L179.368 177.538L178.174 189.328L178.169 189.383L178.175 189.438L178.945 195.888L178.958 195.992L179.011 196.082L179.311 196.592L179.456 196.839L179.742 196.839L186.186 196.829L187.351 199.677L186.782 202.449L181.659 209.926L181.526 210.12L181.591 210.346L182.401 213.176L182.424 213.256L182.471 213.323L184.901 216.833L184.927 216.871L184.959 216.903L186.789 218.723L186.859 218.793L186.951 218.831L192.439 221.1L195.486 227.105L195.529 227.19L195.6 227.253L197.41 228.853L197.45 228.888L197.496 228.915L201.132 230.96L200.473 240.876L200.469 240.927L200.477 240.978L200.976 244.53L199.997 246.605L194.37 250.519L185.014 256.152L181.735 257.543L175.617 258.441L169.284 258.909L156.842 258.889L156.817 258.889L156.791 258.891L150.966 259.484L148.474 258.988L148.577 258.237L148.606 258.024L148.473 257.857L146.817 255.78L144.3 250.63L143.699 244.53L143.694 244.476L143.677 244.424L142.447 240.634L142.4 240.488L142.278 240.394L133.128 233.304L133.099 233.281L133.067 233.263L130.629 231.888L126.492 227.664L126.234 226.397L127.346 224.775L129.149 223.941L132.981 223.322L133.241 223.28L133.354 223.042L134.184 221.282L134.247 221.147L134.227 220.999L133.834 218.188L134.311 209.607L134.317 209.491L134.272 209.385L132.192 204.445L132.108 204.244L131.903 204.169L124.84 201.599L124.132 200.673L123.278 193.658L123.264 193.54L123.198 193.441L122.058 191.731L121.972 191.603L121.829 191.545L114.813 188.703L114.939 187.83L118.479 182.859L118.52 182.801L118.543 182.734L121.153 175.304L121.165 175.27L121.172 175.235L122.123 170.395L123.415 168.495L124.715 167.266L128.491 166.417L128.553 166.403L128.609 166.374L130.099 165.614L130.154 165.586L130.2 165.546L132.21 163.796L132.257 163.755L132.292 163.704L134.795 160.101L140.73 156.878L140.831 156.824L140.897 156.731L143.508 153.109L144.145 152.918Z" fill="#A6E1A8" stroke="#21CE27"/>
<mask id="path-5-inside-4_1_44" fill="white">
<path d="M115.912 264.879L120.502 262.229L126.352 263.009L136.942 258.159L143.382 259.249L147.372 259.279L150.942 259.989L156.842 259.389L169.302 259.409L175.672 258.939L181.122 269.119L182.582 271.039L187.232 272.119L189.312 273.409L194.572 283.229L194.112 285.399L194.452 289.239L197.112 292.179L201.252 293.649L203.272 297.489L203.532 299.299L202.532 302.919L196.542 314.359L196.922 320.139L196.482 322.219L190.362 327.439L181.732 338.959L176.652 344.439L172.852 347.659L168.712 352.439L167.892 354.019L170.412 360.749L173.322 365.449L176.032 367.899L178.752 365.909L181.582 361.899L183.222 361.519L184.642 361.949L186.162 363.069L188.662 366.219L192.982 370.059L195.132 372.659L196.172 374.679L195.592 380.169L196.332 381.899L196.712 385.439L198.652 390.059L198.602 391.619L199.822 392.499L194.882 397.979L193.792 399.919L192.902 402.839L193.282 408.759L194.202 412.079L195.532 414.199L195.352 415.489L194.372 416.219L190.332 415.869L189.652 416.329L187.592 416.389L187.412 418.029L185.692 418.779L184.152 420.709L182.242 421.139L181.152 425.349L179.032 425.999L177.662 428.719L177.722 429.219L178.662 429.169L179.122 429.609L179.212 431.379L180.092 431.489L180.282 432.379L179.292 432.809L178.672 433.959L179.612 435.479L179.532 436.519L177.612 437.629L177.392 440.849L175.932 442.289L175.362 444.199L173.552 444.979L171.782 444.149L171.182 444.689L169.942 444.839L169.482 445.479L169.942 446.359L169.762 448.089L169.322 448.589L165.572 449.269L165.152 449.489L164.952 450.859L163.582 450.679L160.552 448.649L158.302 449.659L157.632 448.959L154.622 448.299L153.202 447.079L152.622 447.129L151.402 448.539L149.372 448.459L149.612 439.729L147.582 437.569L145.342 437.459L142.982 439.599L140.142 439.119L138.282 438.269L136.852 434.889L135.672 432.699L134.452 431.889L133.282 431.819L131.972 429.709L131.852 428.979L133.512 424.189L130.852 422.349L129.362 422.149L128.762 422.889L127.072 420.739L126.042 420.659L124.542 419.049L123.772 418.979L123.412 417.459L122.162 416.829L121.762 417.289L120.292 416.929L118.442 415.349L118.962 413.419L118.562 411.329L116.912 410.019L116.152 414.779L116.232 417.669L114.842 423.689L113.962 424.689L112.292 425.259L111.952 426.129L111.312 426.239L110.372 425.269L94.6816 426.789L92.0417 423.709L92.6617 421.959L91.8116 419.899L91.6216 418.719L91.6917 417.909L90.8016 417.589L82.6017 424.989L81.9616 426.109L79.5216 427.829L78.4016 429.669L73.7816 434.299L72.4417 433.579L70.2416 433.479L68.6417 433.259L67.8416 432.649L66.9417 434.779L67.2416 435.569L66.4817 436.539L66.1017 438.339L66.4616 440.369L66.1816 441.439L65.5817 441.809L64.5616 444.629L63.2116 449.999L62.7116 450.389L62.0316 450.049L60.7116 450.419L59.6816 449.099L59.2416 449.559L61.1417 441.369L61.1717 432.609L61.5016 431.529L60.8917 430.799L63.0016 419.299L66.3116 413.139L69.7516 409.889L72.8416 407.949L73.7617 406.519L73.4716 400.599L75.8517 394.709L76.4417 391.479L75.8817 389.699L76.1417 388.659L74.9716 387.299L75.1117 386.649L66.7416 379.079L62.3016 373.429L57.1617 368.529L49.6816 366.759L41.5016 366.279L34.0316 367.229L27.9117 369.859L26.0117 369.289L29.8016 363.319L31.0117 361.929L42.2416 354.719L42.3517 353.529L41.3517 350.849L41.8917 350.199L41.5417 347.319L39.5117 344.809L37.8016 343.449L38.5316 340.589L39.8617 338.449L41.1417 337.589H43.0016L44.7317 338.489L45.7317 339.559L47.2516 339.329L47.5817 339.739L52.0916 340.689L54.8317 339.869L57.4117 336.189L61.2617 336.439L65.3716 335.899L69.7816 334.889L72.2116 333.699L79.8917 326.049L87.0016 322.289L91.7416 316.569L93.8016 312.379L96.2917 310.939L105.812 308.839L107.712 308.949L119.892 303.089L121.672 300.009L121.462 294.469H121.032L120.732 292.219L121.282 290.889L120.232 284.869L117.932 281.009L117.172 275.049L117.682 270.969L117.472 268.819L115.912 264.879Z"/>
</mask>
<path d="M115.912 264.879L120.502 262.229L126.352 263.009L136.942 258.159L143.382 259.249L147.372 259.279L150.942 259.989L156.842 259.389L169.302 259.409L175.672 258.939L181.122 269.119L182.582 271.039L187.232 272.119L189.312 273.409L194.572 283.229L194.112 285.399L194.452 289.239L197.112 292.179L201.252 293.649L203.272 297.489L203.532 299.299L202.532 302.919L196.542 314.359L196.922 320.139L196.482 322.219L190.362 327.439L181.732 338.959L176.652 344.439L172.852 347.659L168.712 352.439L167.892 354.019L170.412 360.749L173.322 365.449L176.032 367.899L178.752 365.909L181.582 361.899L183.222 361.519L184.642 361.949L186.162 363.069L188.662 366.219L192.982 370.059L195.132 372.659L196.172 374.679L195.592 380.169L196.332 381.899L196.712 385.439L198.652 390.059L198.602 391.619L199.822 392.499L194.882 397.979L193.792 399.919L192.902 402.839L193.282 408.759L194.202 412.079L195.532 414.199L195.352 415.489L194.372 416.219L190.332 415.869L189.652 416.329L187.592 416.389L187.412 418.029L185.692 418.779L184.152 420.709L182.242 421.139L181.152 425.349L179.032 425.999L177.662 428.719L177.722 429.219L178.662 429.169L179.122 429.609L179.212 431.379L180.092 431.489L180.282 432.379L179.292 432.809L178.672 433.959L179.612 435.479L179.532 436.519L177.612 437.629L177.392 440.849L175.932 442.289L175.362 444.199L173.552 444.979L171.782 444.149L171.182 444.689L169.942 444.839L169.482 445.479L169.942 446.359L169.762 448.089L169.322 448.589L165.572 449.269L165.152 449.489L164.952 450.859L163.582 450.679L160.552 448.649L158.302 449.659L157.632 448.959L154.622 448.299L153.202 447.079L152.622 447.129L151.402 448.539L149.372 448.459L149.612 439.729L147.582 437.569L145.342 437.459L142.982 439.599L140.142 439.119L138.282 438.269L136.852 434.889L135.672 432.699L134.452 431.889L133.282 431.819L131.972 429.709L131.852 428.979L133.512 424.189L130.852 422.349L129.362 422.149L128.762 422.889L127.072 420.739L126.042 420.659L124.542 419.049L123.772 418.979L123.412 417.459L122.162 416.829L121.762 417.289L120.292 416.929L118.442 415.349L118.962 413.419L118.562 411.329L116.912 410.019L116.152 414.779L116.232 417.669L114.842 423.689L113.962 424.689L112.292 425.259L111.952 426.129L111.312 426.239L110.372 425.269L94.6816 426.789L92.0417 423.709L92.6617 421.959L91.8116 419.899L91.6216 418.719L91.6917 417.909L90.8016 417.589L82.6017 424.989L81.9616 426.109L79.5216 427.829L78.4016 429.669L73.7816 434.299L72.4417 433.579L70.2416 433.479L68.6417 433.259L67.8416 432.649L66.9417 434.779L67.2416 435.569L66.4817 436.539L66.1017 438.339L66.4616 440.369L66.1816 441.439L65.5817 441.809L64.5616 444.629L63.2116 449.999L62.7116 450.389L62.0316 450.049L60.7116 450.419L59.6816 449.099L59.2416 449.559L61.1417 441.369L61.1717 432.609L61.5016 431.529L60.8917 430.799L63.0016 419.299L66.3116 413.139L69.7516 409.889L72.8416 407.949L73.7617 406.519L73.4716 400.599L75.8517 394.709L76.4417 391.479L75.8817 389.699L76.1417 388.659L74.9716 387.299L75.1117 386.649L66.7416 379.079L62.3016 373.429L57.1617 368.529L49.6816 366.759L41.5016 366.279L34.0316 367.229L27.9117 369.859L26.0117 369.289L29.8016 363.319L31.0117 361.929L42.2416 354.719L42.3517 353.529L41.3517 350.849L41.8917 350.199L41.5417 347.319L39.5117 344.809L37.8016 343.449L38.5316 340.589L39.8617 338.449L41.1417 337.589H43.0016L44.7317 338.489L45.7317 339.559L47.2516 339.329L47.5817 339.739L52.0916 340.689L54.8317 339.869L57.4117 336.189L61.2617 336.439L65.3716 335.899L69.7816 334.889L72.2116 333.699L79.8917 326.049L87.0016 322.289L91.7416 316.569L93.8016 312.379L96.2917 310.939L105.812 308.839L107.712 308.949L119.892 303.089L121.672 300.009L121.462 294.469H121.032L120.732 292.219L121.282 290.889L120.232 284.869L117.932 281.009L117.172 275.049L117.682 270.969L117.472 268.819L115.912 264.879Z" fill="#A6E1A8" stroke="#21CE27" stroke-width="2" mask="url(#path-5-inside-4_1_44)"/>
<mask id="path-6-inside-5_1_44" fill="white">
<path d="M153.422 21.4487L165.872 21.6387L175.432 22.8387L186.192 27.0187L197.882 29.5687L200.612 31.0787L206.702 36.2487L211.482 39.2487L213.062 39.3887L213.362 38.5687L214.362 38.2887L216.012 38.9387L216.632 38.4187L216.082 37.2387L217.572 37.3987L219.272 38.3387L220.932 37.9187L221.762 38.6287L222.392 39.6987L223.432 39.0787L226.282 39.6887L227.022 40.1887L227.952 40.3087L228.942 40.2987L228.862 44.5087L227.372 52.5287L228.602 56.3787L230.052 58.1987L234.852 62.0387L235.332 65.7787L233.492 69.9887L231.122 73.0687L224.062 79.3787L223.512 81.5787L225.232 85.4087L225.182 91.1987L222.642 107.489L222.512 110.989L224.202 118.429L219.482 127.569L219.632 129.509L220.272 129.869L225.182 129.659L228.312 133.409L229.152 136.739L228.162 138.849L223.622 143.279L220.322 149.179L217.432 152.529L216.532 155.389L216.572 158.359L217.332 162.509L217.092 165.449L215.002 168.529L208.892 172.179L197.682 175.199L195.022 177.119L193.302 179.949L192.692 182.719L192.972 191.109L189.562 195.639L186.522 196.329L179.742 196.339L179.442 195.829L178.672 189.379L179.872 177.529L179.202 172.659L175.522 169.279L173.942 170.299L174.942 168.759L171.522 165.179L166.772 158.779L158.282 152.519L156.102 151.229L153.122 150.219L149.082 150.049L144.912 151.559L144.002 152.439L140.962 152.069L139.332 150.539L140.322 143.759L141.372 141.039L141.602 136.119L133.252 115.209L133.052 111.339L132.102 108.629L131.772 105.929L131.562 99.1887L128.402 94.5287L128.592 92.7187L127.822 85.6387L126.682 82.7087L118.942 76.5187L118.072 73.6187L116.312 62.0887L114.102 58.6887L112.252 57.8087L110.222 58.4187L105.232 56.1987L99.3716 58.0587L98.2516 58.7787L96.7917 56.2487L96.1017 51.8987L93.9716 47.1187L91.7617 45.8687L85.4316 47.8287L82.6117 49.1987L79.4517 49.8287L74.1317 52.4187L72.0316 56.4087L68.8917 58.2087L62.8917 57.4787L61.1017 56.2987L68.4817 48.7987L71.7317 44.1987L75.8116 40.6887L81.0016 34.8387L84.9817 32.2987L94.0316 28.2387L110.092 27.2987L122.642 22.5987L142.222 21.5287L153.422 21.4487Z"/>
</mask>
<path d="M153.422 21.4487L165.872 21.6387L175.432 22.8387L186.192 27.0187L197.882 29.5687L200.612 31.0787L206.702 36.2487L211.482 39.2487L213.062 39.3887L213.362 38.5687L214.362 38.2887L216.012 38.9387L216.632 38.4187L216.082 37.2387L217.572 37.3987L219.272 38.3387L220.932 37.9187L221.762 38.6287L222.392 39.6987L223.432 39.0787L226.282 39.6887L227.022 40.1887L227.952 40.3087L228.942 40.2987L228.862 44.5087L227.372 52.5287L228.602 56.3787L230.052 58.1987L234.852 62.0387L235.332 65.7787L233.492 69.9887L231.122 73.0687L224.062 79.3787L223.512 81.5787L225.232 85.4087L225.182 91.1987L222.642 107.489L222.512 110.989L224.202 118.429L219.482 127.569L219.632 129.509L220.272 129.869L225.182 129.659L228.312 133.409L229.152 136.739L228.162 138.849L223.622 143.279L220.322 149.179L217.432 152.529L216.532 155.389L216.572 158.359L217.332 162.509L217.092 165.449L215.002 168.529L208.892 172.179L197.682 175.199L195.022 177.119L193.302 179.949L192.692 182.719L192.972 191.109L189.562 195.639L186.522 196.329L179.742 196.339L179.442 195.829L178.672 189.379L179.872 177.529L179.202 172.659L175.522 169.279L173.942 170.299L174.942 168.759L171.522 165.179L166.772 158.779L158.282 152.519L156.102 151.229L153.122 150.219L149.082 150.049L144.912 151.559L144.002 152.439L140.962 152.069L139.332 150.539L140.322 143.759L141.372 141.039L141.602 136.119L133.252 115.209L133.052 111.339L132.102 108.629L131.772 105.929L131.562 99.1887L128.402 94.5287L128.592 92.7187L127.822 85.6387L126.682 82.7087L118.942 76.5187L118.072 73.6187L116.312 62.0887L114.102 58.6887L112.252 57.8087L110.222 58.4187L105.232 56.1987L99.3716 58.0587L98.2516 58.7787L96.7917 56.2487L96.1017 51.8987L93.9716 47.1187L91.7617 45.8687L85.4316 47.8287L82.6117 49.1987L79.4517 49.8287L74.1317 52.4187L72.0316 56.4087L68.8917 58.2087L62.8917 57.4787L61.1017 56.2987L68.4817 48.7987L71.7317 44.1987L75.8116 40.6887L81.0016 34.8387L84.9817 32.2987L94.0316 28.2387L110.092 27.2987L122.642 22.5987L142.222 21.5287L153.422 21.4487Z" fill="#A6E1A8" stroke="#21CE27" stroke-width="2" mask="url(#path-6-inside-5_1_44)"/>
</svg>
