<svg width="55" height="38" viewBox="0 0 55 38" fill="none" xmlns="http://www.w3.org/2000/svg">
<path d="M47.2329 8.61407L47.4493 8.75664L48.1745 8.84484L48.554 8.62736L48.8078 8.14527L49.4508 7.83234L49.8327 7.75622L50.1735 7.5907L50.9386 7.35388L51.2057 7.50491L51.4632 8.08245L51.5466 8.60803L51.723 8.91371L51.8584 8.82672L52.5667 8.60199L53.1698 8.87022L53.4151 8.79651L53.6387 8.90284L53.9058 9.31364L54.1185 10.7067L54.2237 11.0571L52.8869 11.8944L52.8724 11.7265L52.7721 11.5283L52.6525 11.4293L52.2319 11.4957L51.6831 11.7313L50.8721 14.2191L50.941 14.4462L50.9447 14.7181L50.8008 14.8316L50.0478 15.1349L48.7256 15.5856L48.0645 15.9529L47.3199 16.0085L46.9308 16.557L46.8715 17.0717L47.0347 17.1478L47.3502 17.143L47.6064 17.0185L47.9388 16.9859L48.1575 17.0463L48.334 17.5804L48.3968 18.1023L48.0935 18.7064L48.16 18.9167L48.3026 19.0508L48.7667 18.9372L48.8235 19.2477L48.9504 19.5498L49.591 20.4463L49.9524 20.6698L50.7247 20.7629L51.416 20.9163L52.4881 20.984L52.6138 21.1604L52.4808 21.489L52.2572 21.6569L52.0832 21.7512L51.5949 21.8708L51.2891 22.0351L51.1042 22.2659L51.0994 22.4834L51.2335 22.8978L51.0087 22.9667L50.7114 22.8918L50.4866 22.7274L50.298 22.7069L49.6212 22.8748L48.9323 22.7311L48.7691 22.5667L48.6712 22.3191L48.7715 21.3706L48.7063 21.1108L48.3835 20.5188L48.2458 20.4825L47.8143 20.5925L46.8836 20.6505L46.5053 20.6251L46.2902 20.1817L46.0122 20.0935L45.6073 20.2699L44.7093 19.9787L43.9841 19.8458L43.8632 19.8688L43.8536 19.5981L43.9841 19.1487L44.8447 18.3174L44.7371 18.1784L44.4845 18.1144L44.1424 17.7954L43.9636 17.4632L43.9031 17.2215L43.7714 17.1019L43.1598 17.12L43.1356 16.8832L43.1961 16.6307L43.6022 16.064L43.6251 15.8163L43.7533 15.594L43.7303 15.2968L43.4547 14.4293L43.3036 14.4933L43.126 14.7048L42.8456 14.8763L42.6256 14.8981L42.46 14.8679L42.4588 14.5574L42.3899 14.3834L42.0104 14.4136L41.7808 14.5574V14.4329L41.5813 14.3459L41.6454 14.1381L41.788 13.9702L41.7977 13.2923L41.701 12.9371L41.5898 12.8393L41.3662 12.7716L40.7087 12.7039L40.6084 12.6532L40.4851 12.4852L40.554 12.2424L40.421 11.8703L39.9605 11.6141L39.824 11.4474L39.7696 10.7321L38.8293 10.488L38.3736 10.5303L37.8914 10.7635L37.6823 10.9266L37.6073 11.2408L37.3813 11.6769L37.252 11.5416L37.2399 11.3048L36.8157 10.546L36.6658 10.2295L36.5655 10.1449L35.9684 10.1304L35.6227 10.018L35.5514 9.93104L35.543 9.46587L35.6336 9.05507L35.6312 8.73006L35.6868 8.69381L36.9426 8.52708L37.5916 8.64669L38.706 8.55245L38.8474 8.70106L39.0178 9.26652L39.1 9.38009L39.4215 9.58186L39.662 9.64469L39.9787 9.46225L40.056 9.65073L40.2361 9.73531L40.6809 9.66886L41.1861 9.45862L41.5717 9.1469L41.6962 8.82913L41.7663 8.73852L42.008 8.63219L42.0092 8.52828L42.1627 8.48116L43.3786 8.53433L44.4688 8.7059L45.1021 8.61528L45.8345 8.70952L47.0468 8.76389L47.2329 8.61407Z" fill="#8F89FC" stroke="#574EFA" stroke-width="0.6"/>
<path d="M33.025 19.7419L33.3984 19.7443L33.6933 19.6634L34.1985 19.2006L34.7787 18.8575H34.9781L35.4712 18.7076L35.6187 18.7306L35.7553 18.8297L35.7939 18.9807L35.5389 19.4664L35.603 19.7769L35.7287 19.9195L36.1553 20.1406L36.6086 20.2892L37.0328 20.7882L37.2177 20.8547L37.5537 20.851L37.8498 20.9223L38.5001 21.4576L38.934 22.2333L38.9799 22.7021L38.8578 22.9969L38.7358 23.5901L38.8808 24.3211L38.8566 24.5301L38.7696 24.663L38.3405 24.779L38.2741 24.8745L38.3466 25.1258L38.4747 25.2551L39.3232 25.3723L39.5625 25.7045L39.7559 25.8314L40.1185 25.9087L40.2454 25.8737L40.1813 26.3521L39.8973 26.8596L39.9299 26.9478L40.2671 27.1592L40.5729 27.4867L40.5282 27.5217L40.5028 27.8721L40.4363 28.0449L40.2768 28.2334L40.0121 28.3216L39.7824 28.4907L39.525 29.0912L39.4984 29.4186L39.6628 29.7594L39.7534 30.1847L39.4646 30.4227L39.4235 30.5556L39.4452 30.7936L39.3606 31.7372L39.4247 31.991L39.3739 32.1202L39.1431 32.3075L39.0947 32.6797L38.882 32.8343L38.9074 33.407L38.7805 33.5762L38.7926 33.7163L39.1866 34.3543L39.4972 34.7264L39.7039 34.8726L39.8248 35.1251L39.8393 35.5371L39.6374 36.0132L39.5057 36.082L39.1854 36.7599L38.7853 37.4123L38.6862 37.4993L38.4916 37.55L38.1931 37.5343L38.1206 37.3048L37.4752 36.5907L37.0147 36.5617L36.8334 36.4107L36.6726 36.3841L36.5167 36.5025L36.4091 36.7321L35.9063 37.306L35.6223 37.4993L35.4833 37.5247L35.3214 37.4087L35.273 37.2504L35.2791 36.0784L35.1546 35.8839L34.6445 35.5891L34.6059 35.1964L34.2517 34.8738L34.1188 34.8267L33.9967 34.869L33.7973 35.1251L33.6837 35.432L33.4045 35.6857H33.2715L33.06 35.5577L32.898 35.5879L32.6031 35.3716L32.4907 35.3547L32.3094 35.4284L32.2248 35.3329L32.1523 35.1058L32.0617 35.0925L31.8997 35.2157L31.7571 35.3112L31.6435 35.2737L31.4658 34.898L31.3365 34.846L31.2084 34.9113L30.9896 35.2786L30.853 35.3813L30.6693 35.2786L30.2825 35.2399L29.5429 35.316L29.3942 35.2653L29.0969 35.3378L29.2637 34.8388L28.8539 34.5029L28.8648 34.2226L28.9325 34.1102L29.2286 33.9543L29.3241 33.8492L29.3966 33.5121L29.7701 33.1291L29.7 32.902L29.3374 32.7062L29.4377 32.3413L29.0002 32.177L28.8636 32.084L28.8431 31.974L28.8781 31.8967L28.9845 31.846L29.3749 31.7964L29.451 31.614L29.4389 31.2406L29.3277 30.7719L29.3084 30.1605L29.2685 30.0385L29.1029 29.9575L27.5474 29.9672L26.7412 29.6663L26.5346 29.4657L26.4101 29.2265L26.5201 29.0767L26.7823 28.9124L26.9781 28.7094L27.0809 28.5306L27.5933 28.2164L27.7166 28.0002L27.7541 27.7609L27.3637 27.5495L26.7799 27.3489L26.9431 26.8487L26.9491 26.5382L26.7098 26.0791L26.5152 26.0259L26.2433 26.1069L26.0753 26.0899L26.0414 25.5462L25.9834 25.3143L25.9097 25.2526L25.338 25.1922L25.1954 25.3372L25.2764 25.626L25.199 25.7444L24.7192 25.6767L23.797 26.0223L23.6713 25.7009L23.548 25.5801L23.1963 25.5958L22.9425 25.6695L22.6452 25.8507L21.9695 26.3944L21.3193 27.2414L21.1489 27.3489L20.976 27.2764L20.8286 26.8511L20.4599 26.6095L20.4333 26.444L20.4732 26.1649L20.6956 25.9474L20.6666 25.487L20.7561 25.2454L20.7391 25.0666L20.5651 24.779L20.6134 24.2003L20.9809 23.5502L21.1839 23.5357L21.3386 23.4439L21.6843 22.9413L22.3212 22.3722L23.0029 22.2574L23.9626 22.3263L24.5318 22.2514L24.8135 22.0689L25.1809 21.6944L25.3634 21.3041L25.4407 20.8752L25.6474 20.4632L25.7502 20.3255L26.0825 20.1116L26.3654 19.824L26.4874 19.8277L27.0204 19.934L27.2549 19.9123L27.4193 20.021L27.5148 20.2312L27.487 20.3605L27.1377 20.6855L27.0905 20.845L27.858 21.0782L28.3717 21.5965L28.5832 21.6243L28.9083 21.4407L29.0751 21.2099L28.8564 20.8039L28.8419 20.5574L29.2588 20.4257L29.4945 20.439L29.8293 20.5719L29.9985 20.5611L30.0686 20.4958L30.0674 20.3279L30.2124 19.969L30.5823 19.6561L30.7503 19.6223L31.5697 19.899L31.8175 20.108L31.9348 20.2989L32.1245 20.3931L32.8038 20.1225L32.9053 19.8748L33.025 19.7419Z" fill="#8F89FC" stroke="#574EFA" stroke-width="0.6"/>
<path d="M5.73666 5.64416L6.53678 5.62725L6.76158 5.71666L7.32118 5.52576L7.41304 5.56321L7.61246 5.81936L7.99802 6.03926L8.12614 6.17216L9.2816 6.54913L9.63814 6.79923L10.008 6.88139L10.228 6.82944L10.3041 6.76178L10.6051 6.31594L10.7453 6.27849L10.8758 6.38481L10.9241 6.53584L10.7283 7.01068L10.7392 7.30065L10.5676 7.6607L10.5168 8.10775L10.7416 8.36752L10.9592 8.88464L10.9374 9.28578L10.7803 10.018L10.7851 10.2644L10.9882 10.9314L10.9592 11.9004L10.8818 12.0889L10.7586 12.0937L10.3754 11.8472L10.0515 11.8496L9.57409 11.9922L9.41938 12.171L9.29731 12.6278L9.28039 13.8287L9.37587 15.4055L9.11964 16.5883L8.80418 17.2686L8.66398 17.8449L8.97218 18.2859L9.06404 18.3475L9.40004 18.3826L9.60672 18.2195L9.89679 17.857L11.3472 17.1985L11.5514 17.184L11.7799 17.2879L12.0264 17.2009L12.1195 17.4124L12.2331 17.4208L12.4289 17.3036L12.5328 17.2456H12.7528L13.2496 17.5175L14.0158 17.3411L14.1149 17.0608L14.2431 16.9858L14.3385 16.9677L14.4485 17.0451L14.7011 17.0825L15.1375 17.004L15.268 17.0728L15.4722 17.4716L15.8191 17.4848L16.2603 17.776L16.9214 17.6842L17.3795 17.7446L17.6804 17.6733L17.8279 17.5755L18.4141 17.6504L18.9398 17.8642L19.1102 18.124L19.109 18.4224L18.8613 19.2066V19.3516L19.5115 19.679L19.7448 20.0427L19.9116 20.9585L19.937 21.6206L19.7726 21.4877L19.549 21.4442L19.1356 21.7777L18.9809 22.0435L18.5059 22.0931L17.0435 22.7068L15.7539 22.7902L15.5556 22.6392L15.5121 22.1535L15.5568 21.5723L15.4988 21.3572L15.0456 21.0588L14.9477 20.9066L14.8292 20.12L14.625 19.9267L14.2817 19.8409L13.8418 19.8361L12.6501 20.0282L11.6989 20.2493L11.1634 20.445L10.5773 20.758L10.4117 21.0081L10.431 21.1941L10.5362 21.3464L10.9749 21.5892L11.6276 21.8538L12.2754 21.9179L12.4023 22.1607L12.609 22.1571L12.7033 22.2465L12.8386 23.0391L12.8084 23.1684L12.5449 23.3436L12.4688 23.5212L12.528 23.6964L12.8592 23.8933L13.0006 24.0576L12.9921 24.3077L12.87 24.4878L12.4108 24.605L11.7799 24.9239L11.1755 24.8611L10.9882 24.9119L10.8794 25.0025L10.8746 26.1612L10.8202 26.3267L10.9713 26.6686L11.19 26.9066L11.4148 27.2727L11.5055 27.5676L11.4716 27.7524L11.2577 28.0098L10.9386 28.1995L10.5301 28.2309L9.63331 28.5329L9.57288 29.2397L9.50519 29.2977L8.98306 29.2422L8.81143 29.1225L8.80902 28.8471L8.93351 28.4508L8.96856 27.9747L8.61443 27.6533L8.47906 27.3622L8.50081 26.5985L8.67728 26.2047L8.89966 25.963L9.07854 25.841L9.55233 25.667L10.1107 25.1318L10.4044 23.8377L10.4286 23.3484L10.367 23.259L10.0177 23.1309L9.82669 23.143L8.81143 22.4543L8.17811 22.2501L7.82277 22.2586L7.27888 22.3613L6.53073 22.3178L5.05982 22.4156L4.83501 22.3806L4.4132 22.209L3.07886 21.4744L2.72956 21.4309L2.62199 21.4938L2.46608 21.4926L1 20.2505L1.52334 17.7869L1.77957 17.2178L2.3706 16.7128L2.27149 16.3189L1.979 16.099L1.91011 15.5106L2.29324 15.0466L2.00801 13.9882L2.05514 13.3575L2.20864 12.838L2.09624 10.9229L3.40398 9.79565L4.33826 9.06467L5.49009 7.29823L5.74149 6.13471L5.73666 5.64416Z" fill="#8F89FC" stroke="#574EFA" stroke-width="0.6"/>
<path d="M36.8157 10.546L37.2399 11.3048L37.252 11.5416L37.3813 11.6769L37.6073 11.2408L37.6822 10.9266L37.8913 10.7635L38.3736 10.5303L38.8292 10.488L39.7696 10.7321L39.824 11.4474L39.9605 11.6141L40.421 11.8703L40.554 12.2424L40.4851 12.4852L40.6084 12.6532L40.7087 12.7039L41.3662 12.7716L41.5898 12.8393L41.701 12.9371L41.7977 13.2923L41.788 13.9702L41.6454 14.1381L41.5813 14.3459L41.7807 14.4329V14.5574L42.0104 14.4136L42.3899 14.3834L42.4588 14.5574L42.46 14.8679L42.6256 14.8981L42.8456 14.8763L43.126 14.7048L43.3036 14.4933L43.4547 14.4293L43.7303 15.2968L43.7532 15.594L43.6251 15.8163L43.6022 16.064L43.1961 16.6307L43.1356 16.8832L43.1598 17.12L43.7714 17.1019L43.9031 17.2215L43.9635 17.4632L44.1424 17.7954L44.4845 18.1144L44.7371 18.1784L44.8446 18.3174L43.9841 19.1487L43.8536 19.5981L43.8632 19.8688L43.1961 20.1309L43.0583 20.1201L42.9205 19.9908L42.7162 20.027L42.4165 20.2167L42.3355 20.3496L41.7626 20.8535L41.4423 21.3501L41.1112 21.7379L40.8646 21.7995L40.5383 21.7802L40.415 21.8321L40.2216 22.3843L40.1672 22.8072L40.2156 23.6397L40.2699 23.8801L40.7365 24.4033L40.8295 24.605L40.8392 24.8467L40.6785 25.3119L40.3654 25.806L40.2458 25.8737L40.1189 25.9087L39.7563 25.8314L39.5629 25.7045L39.3236 25.3723L38.4751 25.2551L38.347 25.1258L38.2745 24.8745L38.341 24.779L38.77 24.663L38.857 24.5301L38.8812 24.3211L38.7362 23.5901L38.8583 22.9969L38.9803 22.7021L38.9344 22.2333L38.5005 21.4576L37.8502 20.9223L37.5541 20.8511L37.2181 20.8547L37.0332 20.7882L36.609 20.2892L36.1557 20.1406L35.7291 19.9195L35.6034 19.7769L35.5393 19.4664L35.7944 18.9807L35.7557 18.8297L35.6191 18.7306L35.4716 18.7076L34.9785 18.8575H34.7791L34.1989 19.2006L33.6937 19.6634L33.3988 19.7443L33.0254 19.7419L32.5903 19.4181L32.4561 19.145L32.3618 18.7089L32.5455 18.3863L32.554 18.1192L32.774 17.9223L33.2272 17.7978L33.5233 17.5924L33.8509 17.584L33.9657 17.5139L33.5862 16.5715L33.6671 16.0809L33.4145 15.5276L33.5185 14.7628L33.4339 13.2742L33.4665 12.925L33.73 12.6496L34.2437 12.3632L35.1671 12.0757L35.6118 11.8425L35.7061 11.7398L35.8427 11.2094L36.1013 10.6524L36.2561 10.5895L36.8157 10.546Z" fill="#8F89FC" stroke="#574EFA" stroke-width="0.6"/>
<path d="M33.7639 4.72833L34.8711 4.89144L35.4983 5.05818L35.931 5.29258L36.284 5.59464L36.6139 5.68284L37.8093 6.84757L38.2069 6.74125L38.5598 6.78716L38.926 6.97444L39.2028 7.18588L39.4264 7.44082L39.5521 7.73563L39.9099 7.90115L40.5456 8.0546L42.0093 8.52823L42.0081 8.63213L41.7663 8.73846L41.6962 8.82908L41.5718 9.14684L41.1862 9.45857L40.681 9.6688L40.2362 9.73525L40.0561 9.65068L39.9788 9.46219L39.6621 9.64463L39.4216 9.58181L39.1001 9.38003L39.0179 9.26646L38.8475 8.701L38.7061 8.55239L37.5917 8.64663L36.9427 8.52702L35.6869 8.69375L35.6313 8.73L35.6337 9.05502L35.5431 9.46582L35.5515 9.93098L35.6228 10.018L35.9685 10.1303L36.5656 10.1448L36.6659 10.2294L36.8158 10.546L36.2562 10.5895L36.1015 10.6523L35.8428 11.2093L35.7062 11.7397L35.612 11.8424L35.1672 12.0756L34.2438 12.3632L33.7301 12.6495L33.4666 12.925L33.434 13.2742L33.5186 14.7627L33.4146 15.5275L33.6673 16.0809L33.5863 16.5714L33.9658 17.5139L33.851 17.5839L33.5234 17.5924L33.2273 17.7978L32.7741 17.9222L32.5541 18.1192L32.5456 18.3862L32.3619 18.7088L32.4562 19.145L32.5904 19.418L33.0255 19.7418L32.9058 19.8747L32.8043 20.1224L32.125 20.3931L31.9353 20.2988L31.818 20.1079L31.5703 19.8989L30.7508 19.6222L30.5828 19.6561L30.213 19.969L30.0679 20.3278L30.0691 20.4958L29.999 20.561L29.8298 20.5719L29.495 20.439L29.2593 20.4257L28.8424 20.5574L28.8569 20.8039L29.0756 21.2098L28.9088 21.4406L28.5837 21.6243L28.3722 21.5965L27.8585 21.0781L27.0911 20.845L27.1382 20.6855L27.4875 20.3605L27.5153 20.2312L27.4198 20.0209L27.2554 19.9122L27.0209 19.9339L26.4879 19.8276L26.4904 19.5461L26.6414 18.8091L26.5327 18.3632L26.3018 18.1337L26.2825 18.0044L26.3369 17.5501L26.5254 17.0499L26.604 16.5666L26.7853 16.4651L27.5842 16.4494L27.7389 16.5545L28.3287 16.0749L28.3952 15.6882L28.7989 15.7861L29.0273 15.5903L28.9669 15.3547L28.8267 15.182L28.5027 14.9053L28.197 14.7651L28.0447 14.6189L28.2646 14.1803L28.3964 13.5569L28.2816 13.2585L28.2973 13.0555L28.2139 12.687L27.9117 12.0587L27.9601 11.6273L27.8017 11.2395L27.7546 10.6656L27.6337 10.0409L27.6422 9.30995L27.5225 8.56447L27.6966 7.25716L28.284 7.06747L28.9221 6.41986L29.9737 6.5141L30.4063 6.42469L33.2346 4.71504L33.3893 4.67517L33.7639 4.72833Z" fill="#8F89FC" stroke="#574EFA" stroke-width="0.6"/>
<path d="M16.3317 0.510424L17.8885 1.1967L20.3698 2.07267L20.8533 2.3566L21.4141 2.17658L21.8552 2.17416L22.8874 2.67195L24.8067 4.55196L25.5295 5.81094L25.1633 6.12508L24.3051 6.60838L23.1557 6.45372L22.9261 6.37398L22.7206 6.12629L22.4463 6.04413L21.8456 6.02118L21.7742 6.68329L21.686 6.91164L21.6256 6.93823L21.2993 6.76424H20.962L20.3759 6.95272L20.1208 7.17262L20.1075 7.2572L20.2018 7.87823L20.2103 8.89798L20.0471 9.0188L19.5588 9.21695L18.3478 9.3124L17.6117 9.42719L16.9071 10.4639L16.6798 10.6898L16.3088 10.9206L16.316 11.2685L16.4889 11.8292L16.5674 12.3427L16.478 12.7087L16.1807 12.9141L15.4422 12.9782L15.2875 12.9431L14.7073 13.0205L14.3883 12.983L13.848 13.0229L12.7203 12.8211L12.6091 12.8936L12.4967 13.4385L12.5088 15.6387L12.4291 17.3037L12.2333 17.4209L12.1196 17.4124L12.0266 17.201L11.78 17.288L11.5516 17.184L11.3473 17.1985L9.89695 17.857L9.60688 18.2195L9.4002 18.3826L9.0642 18.3476L8.97234 18.286L8.66414 17.8449L8.80434 17.2686L9.1198 16.5884L9.37603 15.4055L9.28055 13.8288L9.29747 12.6278L9.41954 12.1711L9.57425 11.9923L10.0517 11.8497L10.3756 11.8473L10.7587 12.0938L10.882 12.0889L10.9593 11.9004L10.9884 10.9314L10.7853 10.2645L10.7805 10.018L10.9376 9.28582L10.9593 8.88469L10.7418 8.36757L10.517 8.1078L10.5677 7.66075L10.7394 7.30069L10.7285 7.01072L10.9243 6.53588L10.876 6.38485L10.7454 6.27853L10.6052 6.31598L10.3043 6.76182L10.2281 6.82948L10.0081 6.88144L9.6383 6.79928L9.28175 6.54917L8.1263 6.17221L7.99818 6.0393L7.61262 5.8194L7.4132 5.56326L7.32134 5.5258L6.76174 5.7167L6.53694 5.62729L5.73682 5.64421L5.74769 3.65787L6.24807 3.65546L8.24958 1.89385L11.2857 1.28853L11.577 1.54709L12.2671 1.60508L13.0467 1.51809L13.6329 1.58575L14.2771 1.56642L14.9116 0.810066L16.1928 0.450012" fill="#8F89FC"/>
<path d="M16.3317 0.510424L17.8885 1.1967L20.3698 2.07267L20.8533 2.3566L21.4141 2.17658L21.8552 2.17416L22.8874 2.67195L24.8067 4.55196L25.5295 5.81094L25.1633 6.12508L24.3051 6.60838L23.1557 6.45372L22.9261 6.37398L22.7206 6.12629L22.4463 6.04413L21.8456 6.02118L21.7742 6.68329L21.686 6.91164L21.6256 6.93823L21.2993 6.76424H20.962L20.3759 6.95272L20.1208 7.17262L20.1075 7.2572L20.2018 7.87823L20.2103 8.89798L20.0471 9.0188L19.5588 9.21695L18.3478 9.3124L17.6117 9.42719L16.9071 10.4638L16.6798 10.6898L16.3088 10.9206L16.316 11.2685L16.4889 11.8292L16.5674 12.3427L16.478 12.7087L16.1807 12.9141L15.4422 12.9782L15.2875 12.9431L14.7073 13.0205L14.3883 12.983L13.848 13.0229L12.7203 12.8211L12.6091 12.8936L12.4967 13.4385L12.5088 15.6387L12.4291 17.3037L12.2333 17.4209L12.1196 17.4124L12.0266 17.201L11.78 17.288L11.5516 17.184L11.3473 17.1985L9.89695 17.857L9.60688 18.2195L9.4002 18.3826L9.0642 18.3476L8.97234 18.286L8.66414 17.8449L8.80434 17.2686L9.1198 16.5884L9.37603 15.4055L9.28055 13.8288L9.29747 12.6278L9.41954 12.1711L9.57425 11.9923L10.0517 11.8497L10.3756 11.8473L10.7587 12.0938L10.882 12.0889L10.9593 11.9004L10.9884 10.9314L10.7853 10.2645L10.7805 10.018L10.9376 9.28582L10.9593 8.88469L10.7418 8.36756L10.517 8.1078L10.5677 7.66075L10.7394 7.3007L10.7285 7.01072L10.9243 6.53588L10.876 6.38485L10.7454 6.27853L10.6052 6.31598L10.3043 6.76182L10.2281 6.82948L10.0081 6.88144L9.6383 6.79928L9.28176 6.54917L8.1263 6.17221L7.99818 6.0393L7.61262 5.8194L7.4132 5.56326L7.32134 5.5258L6.76174 5.7167L6.53694 5.62729L5.73682 5.64421L5.74769 3.65787L6.24807 3.65546L8.24958 1.89385L11.2857 1.28853L11.577 1.54709L12.2671 1.60508L13.0467 1.51809L13.6329 1.58575L14.2771 1.56642L14.9116 0.810066L16.1928 0.450012" stroke="#574EFA" stroke-width="0.6"/>
<path d="M26.0199 6.55639L26.6786 7.34416L27.2926 7.33087L27.6962 7.25717L27.5222 8.56448L27.6419 9.30996L27.6334 10.0409L27.7543 10.6656L27.8014 11.2395L27.9597 11.6273L27.9114 12.0587L28.2135 12.687L28.2969 13.0555L28.2812 13.2585L28.396 13.5569L28.2643 14.1803L28.0443 14.6189L28.1966 14.7651L28.5024 14.9053L28.8263 15.182L28.9665 15.3547L29.027 15.5904L28.7985 15.7861L28.3948 15.6882L28.3284 16.0749L27.7385 16.5545L27.5838 16.4494L26.7849 16.4651L26.6036 16.5666L26.5251 17.0499L26.3365 17.5501L26.2821 18.0044L26.3015 18.1337L26.5323 18.3632L26.6411 18.8091L26.49 19.5461L26.4876 19.8276L26.3655 19.824L26.0827 20.1116L25.7503 20.3254L25.6476 20.4632L25.4409 20.8752L25.3636 21.3041L25.1811 21.6943L24.8136 22.0689L24.532 22.2513L23.9628 22.3263L23.0031 22.2574L22.3214 22.3722L21.6845 22.9412L21.3388 23.4439L21.1841 23.5357L20.981 23.5502L20.9895 23.4487L20.7973 22.9545L20.338 22.1523L19.9368 21.6206L19.9114 20.9585L19.7446 20.0427L19.5113 19.679L18.8611 19.3516V19.2066L19.1089 18.4225L19.1101 18.124L18.9397 17.8642L18.4139 17.6504L17.8277 17.5755L17.6802 17.6733L17.3793 17.7446L16.9212 17.6842L16.2601 17.776L15.8189 17.4849L15.4721 17.4716L15.2678 17.0729L15.1373 17.004L14.701 17.0825L14.4483 17.0451L14.3384 16.9677L14.2429 16.9859L14.1148 17.0608L14.0157 17.3411L13.2494 17.5175L12.7526 17.2456H12.5327L12.4287 17.3036L12.5085 15.6387L12.4964 13.4385L12.6088 12.8936L12.72 12.8211L13.8477 13.0229L14.3879 12.983L14.707 13.0204L15.2871 12.9431L15.4418 12.9782L16.1803 12.9141L16.4777 12.7087L16.5671 12.3426L16.4885 11.8291L16.3157 11.2685L16.3084 10.9205L16.6795 10.6898L16.9067 10.4638L17.6114 9.42716L18.3474 9.31237L19.5585 9.21692L20.0468 9.01877L20.2099 8.89795L20.2015 7.8782L20.1072 7.25717L20.1205 7.17259L20.3755 6.95269L20.9617 6.76421H21.2989L21.6252 6.93819L21.6857 6.91161L21.7739 6.68326L21.8452 6.02115L22.4459 6.0441L22.7203 6.12626L22.9257 6.37395L23.1554 6.45369L24.3048 6.60835L25.1629 6.12505L25.5292 5.81091L26.0199 6.55639Z" fill="#8F89FC" stroke="#574EFA" stroke-width="0.6"/>
</svg>
