<svg width="441" height="307" viewBox="0 0 441 307" fill="none" xmlns="http://www.w3.org/2000/svg">
<mask id="path-1-inside-1_1_40" fill="white">
<path d="M383.102 67.2987L384.892 68.4787L390.892 69.2087L394.032 67.4087L396.132 63.4187L401.452 60.8287L404.612 60.1987L407.432 58.8287L413.762 56.8687L415.972 58.1187L418.102 62.8987L418.792 67.2487L420.252 69.7787L421.372 69.0587L427.232 67.1987L432.222 69.4187L434.252 68.8087L436.102 69.6887L438.312 73.0887L440.072 84.6187L440.942 87.5187L429.882 94.4487L429.762 93.0587L428.932 91.4187L427.942 90.5987L424.462 91.1487L419.922 93.0987L413.212 113.689L413.782 115.569L413.812 117.819L412.622 118.759L406.392 121.269L395.452 124.999L389.982 128.039L383.822 128.499L380.602 133.039L380.112 137.299L381.462 137.929L384.072 137.889L386.192 136.859L388.942 136.589L390.752 137.089L392.212 141.509L392.732 145.829L390.222 150.829L390.772 152.569L391.952 153.679L395.792 152.739L396.262 155.309L397.312 157.809L402.612 165.229L405.602 167.079L411.992 167.849L417.712 169.119L426.582 169.679L427.622 171.139L426.522 173.859L424.672 175.249L423.232 176.029L419.192 177.019L416.662 178.379L415.132 180.289L415.092 182.089L416.202 185.519L414.342 186.089L411.882 185.469L410.022 184.109L408.462 183.939L402.862 185.329L397.162 184.139L395.812 182.779L395.002 180.729L395.832 172.879L395.292 170.729L392.622 165.829L391.482 165.529L387.912 166.439L380.212 166.919L377.082 166.709L375.302 163.039L373.002 162.309L369.652 163.769L362.222 161.359L356.222 160.259L355.222 160.449L355.142 158.209L356.222 154.489L363.342 147.609L362.452 146.459L360.362 145.929L357.532 143.289L356.052 140.539L355.552 138.539L354.462 137.549L349.402 137.699L349.202 135.739L349.702 133.649L353.062 128.959L353.252 126.909L354.312 125.069L354.122 122.609L351.842 115.429L350.592 115.959L349.122 117.709L346.802 119.129L344.982 119.309L343.612 119.059L343.602 116.489L343.032 115.049L339.892 115.299L337.992 116.489V115.459L336.342 114.739L336.872 113.019L338.052 111.629L338.132 106.019L337.332 103.079L336.412 102.269L334.562 101.709L329.122 101.149L328.292 100.729L327.272 99.3387L327.842 97.3287L326.742 94.2487L322.932 92.1287L321.802 90.7487L321.352 84.8287L313.572 82.8087L309.802 83.1587L305.812 85.0887L304.082 86.4387L303.462 89.0387L301.592 92.6487L300.522 91.5287L300.422 89.5687L296.912 83.2887L295.672 80.6687L294.842 79.9687L289.902 79.8487L287.042 78.9187L286.452 78.1987L286.382 74.3487L287.132 70.9487L287.112 68.2587L287.572 67.9587L297.962 66.5787L303.332 67.5687L312.552 66.7887L313.722 68.0187L315.132 72.6987L315.812 73.6387L318.472 75.3087L320.462 75.8287L323.082 74.3187L323.722 75.8787L325.212 76.5787L328.892 76.0287L333.072 74.2887L336.262 71.7087L337.292 69.0787L337.872 68.3287L339.872 67.4487L339.882 66.5887L341.152 66.1987L351.212 66.6387L360.232 68.0587L365.472 67.3087L371.532 68.0887L381.562 68.5387L383.102 67.2987Z"/>
</mask>
<path d="M383.102 67.2987L384.892 68.4787L390.892 69.2087L394.032 67.4087L396.132 63.4187L401.452 60.8287L404.612 60.1987L407.432 58.8287L413.762 56.8687L415.972 58.1187L418.102 62.8987L418.792 67.2487L420.252 69.7787L421.372 69.0587L427.232 67.1987L432.222 69.4187L434.252 68.8087L436.102 69.6887L438.312 73.0887L440.072 84.6187L440.942 87.5187L429.882 94.4487L429.762 93.0587L428.932 91.4187L427.942 90.5987L424.462 91.1487L419.922 93.0987L413.212 113.689L413.782 115.569L413.812 117.819L412.622 118.759L406.392 121.269L395.452 124.999L389.982 128.039L383.822 128.499L380.602 133.039L380.112 137.299L381.462 137.929L384.072 137.889L386.192 136.859L388.942 136.589L390.752 137.089L392.212 141.509L392.732 145.829L390.222 150.829L390.772 152.569L391.952 153.679L395.792 152.739L396.262 155.309L397.312 157.809L402.612 165.229L405.602 167.079L411.992 167.849L417.712 169.119L426.582 169.679L427.622 171.139L426.522 173.859L424.672 175.249L423.232 176.029L419.192 177.019L416.662 178.379L415.132 180.289L415.092 182.089L416.202 185.519L414.342 186.089L411.882 185.469L410.022 184.109L408.462 183.939L402.862 185.329L397.162 184.139L395.812 182.779L395.002 180.729L395.832 172.879L395.292 170.729L392.622 165.829L391.482 165.529L387.912 166.439L380.212 166.919L377.082 166.709L375.302 163.039L373.002 162.309L369.652 163.769L362.222 161.359L356.222 160.259L355.222 160.449L355.142 158.209L356.222 154.489L363.342 147.609L362.452 146.459L360.362 145.929L357.532 143.289L356.052 140.539L355.552 138.539L354.462 137.549L349.402 137.699L349.202 135.739L349.702 133.649L353.062 128.959L353.252 126.909L354.312 125.069L354.122 122.609L351.842 115.429L350.592 115.959L349.122 117.709L346.802 119.129L344.982 119.309L343.612 119.059L343.602 116.489L343.032 115.049L339.892 115.299L337.992 116.489V115.459L336.342 114.739L336.872 113.019L338.052 111.629L338.132 106.019L337.332 103.079L336.412 102.269L334.562 101.709L329.122 101.149L328.292 100.729L327.272 99.3387L327.842 97.3287L326.742 94.2487L322.932 92.1287L321.802 90.7487L321.352 84.8287L313.572 82.8087L309.802 83.1587L305.812 85.0887L304.082 86.4387L303.462 89.0387L301.592 92.6487L300.522 91.5287L300.422 89.5687L296.912 83.2887L295.672 80.6687L294.842 79.9687L289.902 79.8487L287.042 78.9187L286.452 78.1987L286.382 74.3487L287.132 70.9487L287.112 68.2587L287.572 67.9587L297.962 66.5787L303.332 67.5687L312.552 66.7887L313.722 68.0187L315.132 72.6987L315.812 73.6387L318.472 75.3087L320.462 75.8287L323.082 74.3187L323.722 75.8787L325.212 76.5787L328.892 76.0287L333.072 74.2887L336.262 71.7087L337.292 69.0787L337.872 68.3287L339.872 67.4487L339.882 66.5887L341.152 66.1987L351.212 66.6387L360.232 68.0587L365.472 67.3087L371.532 68.0887L381.562 68.5387L383.102 67.2987Z" fill="#ABA7FD" stroke="#3E25DA" mask="url(#path-1-inside-1_1_40)"/>
<mask id="path-2-inside-2_1_40" fill="white">
<path d="M265.552 159.399L268.642 159.419L271.082 158.749L275.262 154.919L280.062 152.079H281.712L285.792 150.839L287.012 151.029L288.142 151.849L288.462 153.099L286.352 157.119L286.882 159.689L287.922 160.869L291.452 162.699L295.202 163.929L298.712 168.059L300.242 168.609L303.022 168.579L305.472 169.169L310.852 173.599L314.442 180.019L314.822 183.899L313.812 186.339L312.802 191.249L314.002 197.299L313.802 199.029L313.082 200.129L309.532 201.089L308.982 201.879L309.582 203.959L310.642 205.029L317.662 205.999L319.642 208.749L321.242 209.799L324.242 210.439L325.292 210.149L324.762 214.109L322.412 218.309L322.682 219.039L325.472 220.789L328.002 223.499L327.632 223.789L327.422 226.689L326.872 228.119L325.552 229.679L323.362 230.409L321.462 231.809L319.332 236.779L319.112 239.489L320.472 242.309L321.222 245.829L318.832 247.799L318.492 248.899L318.672 250.869L317.972 258.679L318.502 260.779L318.082 261.849L316.172 263.399L315.772 266.479L314.012 267.759L314.222 272.499L313.172 273.899L313.272 275.059L316.532 280.339L319.102 283.419L320.812 284.629L321.812 286.719L321.932 290.129L320.262 294.069L319.172 294.639L316.522 300.249L313.212 305.649L312.392 306.369L310.782 306.789L308.312 306.659L307.712 304.759L302.372 298.849L298.562 298.609L297.062 297.359L295.732 297.139L294.442 298.119L293.552 300.019L289.392 304.769L287.042 306.369L285.892 306.579L284.552 305.619L284.152 304.309L284.202 294.609L283.172 292.999L278.952 290.559L278.632 287.309L275.702 284.639L274.602 284.249L273.592 284.599L271.942 286.719L271.002 289.259L268.692 291.359H267.592L265.842 290.299L264.502 290.549L262.062 288.759L261.132 288.619L259.632 289.229L258.932 288.439L258.332 286.559L257.582 286.449L256.242 287.469L255.062 288.259L254.122 287.949L252.652 284.839L251.582 284.409L250.522 284.949L248.712 287.989L247.582 288.839L246.062 287.989L242.862 287.669L236.742 288.299L235.512 287.879L233.052 288.479L234.432 284.349L231.042 281.569L231.132 279.249L231.692 278.319L234.142 277.029L234.932 276.159L235.532 273.369L238.622 270.199L238.042 268.319L235.042 266.699L235.872 263.679L232.252 262.319L231.122 261.549L230.952 260.639L231.242 259.999L232.122 259.579L235.352 259.169L235.982 257.659L235.882 254.569L234.962 250.689L234.802 245.629L234.472 244.619L233.102 243.949L220.232 244.029L213.562 241.539L211.852 239.879L210.822 237.899L211.732 236.659L213.902 235.299L215.522 233.619L216.372 232.139L220.612 229.539L221.632 227.749L221.942 225.769L218.712 224.019L213.882 222.359L215.232 218.219L215.282 215.649L213.302 211.849L211.692 211.409L209.442 212.079L208.052 211.939L207.772 207.439L207.292 205.519L206.682 205.009L201.952 204.509L200.772 205.709L201.442 208.099L200.802 209.079L196.832 208.519L189.202 211.379L188.162 208.719L187.142 207.719L184.232 207.849L182.132 208.459L179.672 209.959L174.082 214.459L168.702 221.469L167.292 222.359L165.862 221.759L164.642 218.239L161.592 216.239L161.372 214.869L161.702 212.559L163.542 210.759L163.302 206.949L164.042 204.949L163.902 203.469L162.462 201.089L162.862 196.299L165.902 190.919L167.582 190.799L168.862 190.039L171.722 185.879L176.992 181.169L182.632 180.219L190.572 180.789L195.282 180.169L197.612 178.659L200.652 175.559L202.162 172.329L202.802 168.779L204.512 165.369L205.362 164.229L208.112 162.459L210.452 160.079L211.462 160.109L215.872 160.989L217.812 160.809L219.172 161.709L219.962 163.449L219.732 164.519L216.842 167.209L216.452 168.529L222.802 170.459L227.052 174.749L228.802 174.979L231.492 173.459L232.872 171.549L231.062 168.189L230.942 166.149L234.392 165.059L236.342 165.169L239.112 166.269L240.512 166.179L241.092 165.639L241.082 164.249L242.282 161.279L245.342 158.689L246.732 158.409L253.512 160.699L255.562 162.429L256.532 164.009L258.102 164.789L263.722 162.549L264.562 160.499L265.552 159.399Z"/>
</mask>
<path d="M265.552 159.399L268.642 159.419L271.082 158.749L275.262 154.919L280.062 152.079H281.712L285.792 150.839L287.012 151.029L288.142 151.849L288.462 153.099L286.352 157.119L286.882 159.689L287.922 160.869L291.452 162.699L295.202 163.929L298.712 168.059L300.242 168.609L303.022 168.579L305.472 169.169L310.852 173.599L314.442 180.019L314.822 183.899L313.812 186.339L312.802 191.249L314.002 197.299L313.802 199.029L313.082 200.129L309.532 201.089L308.982 201.879L309.582 203.959L310.642 205.029L317.662 205.999L319.642 208.749L321.242 209.799L324.242 210.439L325.292 210.149L324.762 214.109L322.412 218.309L322.682 219.039L325.472 220.789L328.002 223.499L327.632 223.789L327.422 226.689L326.872 228.119L325.552 229.679L323.362 230.409L321.462 231.809L319.332 236.779L319.112 239.489L320.472 242.309L321.222 245.829L318.832 247.799L318.492 248.899L318.672 250.869L317.972 258.679L318.502 260.779L318.082 261.849L316.172 263.399L315.772 266.479L314.012 267.759L314.222 272.499L313.172 273.899L313.272 275.059L316.532 280.339L319.102 283.419L320.812 284.629L321.812 286.719L321.932 290.129L320.262 294.069L319.172 294.639L316.522 300.249L313.212 305.649L312.392 306.369L310.782 306.789L308.312 306.659L307.712 304.759L302.372 298.849L298.562 298.609L297.062 297.359L295.732 297.139L294.442 298.119L293.552 300.019L289.392 304.769L287.042 306.369L285.892 306.579L284.552 305.619L284.152 304.309L284.202 294.609L283.172 292.999L278.952 290.559L278.632 287.309L275.702 284.639L274.602 284.249L273.592 284.599L271.942 286.719L271.002 289.259L268.692 291.359H267.592L265.842 290.299L264.502 290.549L262.062 288.759L261.132 288.619L259.632 289.229L258.932 288.439L258.332 286.559L257.582 286.449L256.242 287.469L255.062 288.259L254.122 287.949L252.652 284.839L251.582 284.409L250.522 284.949L248.712 287.989L247.582 288.839L246.062 287.989L242.862 287.669L236.742 288.299L235.512 287.879L233.052 288.479L234.432 284.349L231.042 281.569L231.132 279.249L231.692 278.319L234.142 277.029L234.932 276.159L235.532 273.369L238.622 270.199L238.042 268.319L235.042 266.699L235.872 263.679L232.252 262.319L231.122 261.549L230.952 260.639L231.242 259.999L232.122 259.579L235.352 259.169L235.982 257.659L235.882 254.569L234.962 250.689L234.802 245.629L234.472 244.619L233.102 243.949L220.232 244.029L213.562 241.539L211.852 239.879L210.822 237.899L211.732 236.659L213.902 235.299L215.522 233.619L216.372 232.139L220.612 229.539L221.632 227.749L221.942 225.769L218.712 224.019L213.882 222.359L215.232 218.219L215.282 215.649L213.302 211.849L211.692 211.409L209.442 212.079L208.052 211.939L207.772 207.439L207.292 205.519L206.682 205.009L201.952 204.509L200.772 205.709L201.442 208.099L200.802 209.079L196.832 208.519L189.202 211.379L188.162 208.719L187.142 207.719L184.232 207.849L182.132 208.459L179.672 209.959L174.082 214.459L168.702 221.469L167.292 222.359L165.862 221.759L164.642 218.239L161.592 216.239L161.372 214.869L161.702 212.559L163.542 210.759L163.302 206.949L164.042 204.949L163.902 203.469L162.462 201.089L162.862 196.299L165.902 190.919L167.582 190.799L168.862 190.039L171.722 185.879L176.992 181.169L182.632 180.219L190.572 180.789L195.282 180.169L197.612 178.659L200.652 175.559L202.162 172.329L202.802 168.779L204.512 165.369L205.362 164.229L208.112 162.459L210.452 160.079L211.462 160.109L215.872 160.989L217.812 160.809L219.172 161.709L219.962 163.449L219.732 164.519L216.842 167.209L216.452 168.529L222.802 170.459L227.052 174.749L228.802 174.979L231.492 173.459L232.872 171.549L231.062 168.189L230.942 166.149L234.392 165.059L236.342 165.169L239.112 166.269L240.512 166.179L241.092 165.639L241.082 164.249L242.282 161.279L245.342 158.689L246.732 158.409L253.512 160.699L255.562 162.429L256.532 164.009L258.102 164.789L263.722 162.549L264.562 160.499L265.552 159.399Z" fill="#ABA7FD" stroke="#3E25DA" mask="url(#path-2-inside-2_1_40)"/>
<mask id="path-3-inside-3_1_40" fill="white">
<path d="M39.7717 42.7187L46.3917 42.5787L48.2517 43.3187L52.8817 41.7387L53.6417 42.0487L55.2917 44.1687L58.4817 45.9887L59.5417 47.0887L69.1017 50.2087L72.0517 52.2787L75.1117 52.9587L76.9317 52.5287L77.5617 51.9687L80.0517 48.2787L81.2117 47.9687L82.2917 48.8487L82.6917 50.0987L81.0717 54.0287L81.1617 56.4287L79.7417 59.4087L79.3217 63.1087L81.1817 65.2587L82.9817 69.5387L82.8017 72.8587L81.5017 78.9187L81.5417 80.9587L83.2217 86.4787L82.9817 94.4987L82.3417 96.0587L81.3217 96.0987L78.1517 94.0587L75.4717 94.0787L71.5217 95.2587L70.2417 96.7387L69.2317 100.519L69.0917 110.459L69.8817 123.509L67.7617 133.299L65.1517 138.929L63.9917 143.699L66.5417 147.349L67.3017 147.859L70.0817 148.149L71.7917 146.799L74.1917 143.799L86.1917 138.349L87.8817 138.229L89.7717 139.089L91.8117 138.369L92.5817 140.119L93.5217 140.189L95.1417 139.219L96.0017 138.739H97.8217L101.932 140.989L108.272 139.529L109.092 137.209L110.152 136.589L110.942 136.439L111.852 137.079L113.942 137.389L117.552 136.739L118.632 137.309L120.322 140.609L123.192 140.719L126.842 143.129L132.312 142.369L136.102 142.869L138.592 142.279L139.812 141.469L144.662 142.089L149.012 143.859L150.422 146.009L150.412 148.479L148.362 154.969V156.169L153.742 158.879L155.672 161.889L157.052 169.469L157.262 174.949L155.902 173.849L154.052 173.489L150.632 176.249L149.352 178.449L145.422 178.859L133.322 183.939L122.652 184.629L121.012 183.379L120.652 179.359L121.022 174.549L120.542 172.769L116.792 170.299L115.982 169.039L115.002 162.529L113.312 160.929L110.472 160.219L106.832 160.179L96.9717 161.769L89.1017 163.599L84.6717 165.219L79.8217 167.809L78.4517 169.879L78.6117 171.419L79.4817 172.679L83.1117 174.689L88.5117 176.879L93.8717 177.409L94.9217 179.419L96.6317 179.389L97.4117 180.129L98.5317 186.689L98.2817 187.759L96.1017 189.209L95.4717 190.679L95.9617 192.129L98.7017 193.759L99.8717 195.119L99.8017 197.189L98.7917 198.679L94.9917 199.649L89.7717 202.289L84.7717 201.769L83.2217 202.189L82.3217 202.939L82.2817 212.529L81.8317 213.899L83.0817 216.729L84.8917 218.699L86.7517 221.729L87.5017 224.169L87.2217 225.699L85.4517 227.829L82.8117 229.399L79.4317 229.659L72.0117 232.159L71.5117 238.009L70.9517 238.489L66.6317 238.029L65.2117 237.039L65.1917 234.759L66.2217 231.479L66.5117 227.539L63.5817 224.879L62.4617 222.469L62.6417 216.149L64.1017 212.889L65.9417 210.889L67.4217 209.879L71.3417 208.439L75.9617 204.009L78.3917 193.299L78.5917 189.249L78.0817 188.509L75.1917 187.449L73.6117 187.549L65.2117 181.849L59.9717 180.159L57.0317 180.229L52.5317 181.079L46.3417 180.719L34.1717 181.529L32.3117 181.239L28.8217 179.819L17.7817 173.739L14.8917 173.379L14.0017 173.899L12.7117 173.889L0.581665 163.609L4.91167 143.219L7.03167 138.509L11.9217 134.329L11.1017 131.069L8.68167 129.249L8.11167 124.379L11.2817 120.539L8.92167 111.779L9.31166 106.559L10.5817 102.259L9.65166 86.4087L20.4717 77.0787L28.2017 71.0287L37.7317 56.4087L39.8117 46.7787L39.7717 42.7187Z"/>
</mask>
<path d="M39.7717 42.7187L46.3917 42.5787L48.2517 43.3187L52.8817 41.7387L53.6417 42.0487L55.2917 44.1687L58.4817 45.9887L59.5417 47.0887L69.1017 50.2087L72.0517 52.2787L75.1117 52.9587L76.9317 52.5287L77.5617 51.9687L80.0517 48.2787L81.2117 47.9687L82.2917 48.8487L82.6917 50.0987L81.0717 54.0287L81.1617 56.4287L79.7417 59.4087L79.3217 63.1087L81.1817 65.2587L82.9817 69.5387L82.8017 72.8587L81.5017 78.9187L81.5417 80.9587L83.2217 86.4787L82.9817 94.4987L82.3417 96.0587L81.3217 96.0987L78.1517 94.0587L75.4717 94.0787L71.5217 95.2587L70.2417 96.7387L69.2317 100.519L69.0917 110.459L69.8817 123.509L67.7617 133.299L65.1517 138.929L63.9917 143.699L66.5417 147.349L67.3017 147.859L70.0817 148.149L71.7917 146.799L74.1917 143.799L86.1917 138.349L87.8817 138.229L89.7717 139.089L91.8117 138.369L92.5817 140.119L93.5217 140.189L95.1417 139.219L96.0017 138.739H97.8217L101.932 140.989L108.272 139.529L109.092 137.209L110.152 136.589L110.942 136.439L111.852 137.079L113.942 137.389L117.552 136.739L118.632 137.309L120.322 140.609L123.192 140.719L126.842 143.129L132.312 142.369L136.102 142.869L138.592 142.279L139.812 141.469L144.662 142.089L149.012 143.859L150.422 146.009L150.412 148.479L148.362 154.969V156.169L153.742 158.879L155.672 161.889L157.052 169.469L157.262 174.949L155.902 173.849L154.052 173.489L150.632 176.249L149.352 178.449L145.422 178.859L133.322 183.939L122.652 184.629L121.012 183.379L120.652 179.359L121.022 174.549L120.542 172.769L116.792 170.299L115.982 169.039L115.002 162.529L113.312 160.929L110.472 160.219L106.832 160.179L96.9717 161.769L89.1017 163.599L84.6717 165.219L79.8217 167.809L78.4517 169.879L78.6117 171.419L79.4817 172.679L83.1117 174.689L88.5117 176.879L93.8717 177.409L94.9217 179.419L96.6317 179.389L97.4117 180.129L98.5317 186.689L98.2817 187.759L96.1017 189.209L95.4717 190.679L95.9617 192.129L98.7017 193.759L99.8717 195.119L99.8017 197.189L98.7917 198.679L94.9917 199.649L89.7717 202.289L84.7717 201.769L83.2217 202.189L82.3217 202.939L82.2817 212.529L81.8317 213.899L83.0817 216.729L84.8917 218.699L86.7517 221.729L87.5017 224.169L87.2217 225.699L85.4517 227.829L82.8117 229.399L79.4317 229.659L72.0117 232.159L71.5117 238.009L70.9517 238.489L66.6317 238.029L65.2117 237.039L65.1917 234.759L66.2217 231.479L66.5117 227.539L63.5817 224.879L62.4617 222.469L62.6417 216.149L64.1017 212.889L65.9417 210.889L67.4217 209.879L71.3417 208.439L75.9617 204.009L78.3917 193.299L78.5917 189.249L78.0817 188.509L75.1917 187.449L73.6117 187.549L65.2117 181.849L59.9717 180.159L57.0317 180.229L52.5317 181.079L46.3417 180.719L34.1717 181.529L32.3117 181.239L28.8217 179.819L17.7817 173.739L14.8917 173.379L14.0017 173.899L12.7117 173.889L0.581665 163.609L4.91167 143.219L7.03167 138.509L11.9217 134.329L11.1017 131.069L8.68167 129.249L8.11167 124.379L11.2817 120.539L8.92167 111.779L9.31166 106.559L10.5817 102.259L9.65166 86.4087L20.4717 77.0787L28.2017 71.0287L37.7317 56.4087L39.8117 46.7787L39.7717 42.7187Z" fill="#ABA7FD" stroke="#3E25DA" mask="url(#path-3-inside-3_1_40)"/>
<mask id="path-4-inside-4_1_40" fill="white">
<path d="M296.912 83.2887L300.422 89.5687L300.522 91.5287L301.592 92.6487L303.462 89.0387L304.082 86.4387L305.812 85.0887L309.802 83.1587L313.572 82.8087L321.352 84.8287L321.802 90.7487L322.932 92.1287L326.742 94.2487L327.842 97.3287L327.272 99.3387L328.292 100.729L329.122 101.149L334.562 101.709L336.412 102.269L337.332 103.079L338.132 106.019L338.052 111.629L336.872 113.019L336.342 114.739L337.992 115.459V116.489L339.892 115.299L343.032 115.049L343.602 116.489L343.612 119.059L344.982 119.309L346.802 119.129L349.122 117.709L350.592 115.959L351.842 115.429L354.122 122.609L354.312 125.069L353.252 126.909L353.062 128.959L349.702 133.649L349.202 135.739L349.402 137.699L354.462 137.549L355.552 138.539L356.052 140.539L357.532 143.289L360.362 145.929L362.452 146.459L363.342 147.609L356.222 154.489L355.142 158.209L355.222 160.449L349.702 162.619L348.562 162.529L347.422 161.459L345.732 161.759L343.252 163.329L342.582 164.429L337.842 168.599L335.192 172.709L332.452 175.919L330.412 176.429L327.712 176.269L326.692 176.699L325.092 181.269L324.642 184.769L325.042 191.659L325.492 193.649L329.352 197.979L330.122 199.649L330.202 201.649L328.872 205.499L326.282 209.589L325.292 210.149L324.242 210.439L321.242 209.799L319.642 208.749L317.662 205.999L310.642 205.029L309.582 203.959L308.982 201.879L309.532 201.089L313.082 200.129L313.802 199.029L314.002 197.299L312.802 191.249L313.812 186.339L314.822 183.899L314.442 180.019L310.852 173.599L305.472 169.169L303.022 168.579L300.242 168.609L298.712 168.059L295.202 163.929L291.452 162.699L287.922 160.869L286.882 159.689L286.352 157.119L288.462 153.099L288.142 151.849L287.012 151.029L285.792 150.839L281.712 152.079H280.062L275.262 154.919L271.082 158.749L268.642 159.419L265.552 159.399L261.952 156.719L260.842 154.459L260.062 150.849L261.582 148.179L261.652 145.969L263.472 144.339L267.222 143.309L269.672 141.609L272.382 141.539L273.332 140.959L270.192 133.159L270.862 129.099L268.772 124.519L269.632 118.189L268.932 105.869L269.202 102.979L271.382 100.699L275.632 98.3287L283.272 95.9487L286.952 94.0187L287.732 93.1687L288.862 88.7787L291.002 84.1687L292.282 83.6487L296.912 83.2887Z"/>
</mask>
<path d="M296.912 83.2887L300.422 89.5687L300.522 91.5287L301.592 92.6487L303.462 89.0387L304.082 86.4387L305.812 85.0887L309.802 83.1587L313.572 82.8087L321.352 84.8287L321.802 90.7487L322.932 92.1287L326.742 94.2487L327.842 97.3287L327.272 99.3387L328.292 100.729L329.122 101.149L334.562 101.709L336.412 102.269L337.332 103.079L338.132 106.019L338.052 111.629L336.872 113.019L336.342 114.739L337.992 115.459V116.489L339.892 115.299L343.032 115.049L343.602 116.489L343.612 119.059L344.982 119.309L346.802 119.129L349.122 117.709L350.592 115.959L351.842 115.429L354.122 122.609L354.312 125.069L353.252 126.909L353.062 128.959L349.702 133.649L349.202 135.739L349.402 137.699L354.462 137.549L355.552 138.539L356.052 140.539L357.532 143.289L360.362 145.929L362.452 146.459L363.342 147.609L356.222 154.489L355.142 158.209L355.222 160.449L349.702 162.619L348.562 162.529L347.422 161.459L345.732 161.759L343.252 163.329L342.582 164.429L337.842 168.599L335.192 172.709L332.452 175.919L330.412 176.429L327.712 176.269L326.692 176.699L325.092 181.269L324.642 184.769L325.042 191.659L325.492 193.649L329.352 197.979L330.122 199.649L330.202 201.649L328.872 205.499L326.282 209.589L325.292 210.149L324.242 210.439L321.242 209.799L319.642 208.749L317.662 205.999L310.642 205.029L309.582 203.959L308.982 201.879L309.532 201.089L313.082 200.129L313.802 199.029L314.002 197.299L312.802 191.249L313.812 186.339L314.822 183.899L314.442 180.019L310.852 173.599L305.472 169.169L303.022 168.579L300.242 168.609L298.712 168.059L295.202 163.929L291.452 162.699L287.922 160.869L286.882 159.689L286.352 157.119L288.462 153.099L288.142 151.849L287.012 151.029L285.792 150.839L281.712 152.079H280.062L275.262 154.919L271.082 158.749L268.642 159.419L265.552 159.399L261.952 156.719L260.842 154.459L260.062 150.849L261.582 148.179L261.652 145.969L263.472 144.339L267.222 143.309L269.672 141.609L272.382 141.539L273.332 140.959L270.192 133.159L270.862 129.099L268.772 124.519L269.632 118.189L268.932 105.869L269.202 102.979L271.382 100.699L275.632 98.3287L283.272 95.9487L286.952 94.0187L287.732 93.1687L288.862 88.7787L291.002 84.1687L292.282 83.6487L296.912 83.2887Z" fill="#ABA7FD" stroke="#3E25DA" mask="url(#path-4-inside-4_1_40)"/>
<mask id="path-5-inside-5_1_40" fill="white">
<path d="M271.662 35.1387L280.822 36.4887L286.012 37.8687L289.592 39.8087L292.512 42.3087L295.242 43.0387L305.132 52.6787L308.422 51.7987L311.342 52.1787L314.372 53.7287L316.662 55.4787L318.512 57.5887L319.552 60.0287L322.512 61.3987L327.772 62.6687L339.882 66.5887L339.872 67.4487L337.872 68.3287L337.292 69.0787L336.262 71.7087L333.072 74.2887L328.892 76.0287L325.212 76.5787L323.722 75.8787L323.082 74.3187L320.462 75.8287L318.472 75.3087L315.812 73.6387L315.132 72.6987L313.722 68.0187L312.552 66.7887L303.332 67.5687L297.962 66.5787L287.572 67.9587L287.112 68.2587L287.132 70.9487L286.382 74.3487L286.452 78.1987L287.042 78.9187L289.902 79.8487L294.842 79.9687L295.672 80.6687L296.912 83.2887L292.282 83.6487L291.002 84.1687L288.862 88.7787L287.732 93.1687L286.952 94.0187L283.272 95.9487L275.632 98.3287L271.382 100.699L269.202 102.979L268.932 105.869L269.632 118.189L268.772 124.519L270.862 129.099L270.192 133.159L273.332 140.959L272.382 141.539L269.672 141.609L267.222 143.309L263.472 144.339L261.652 145.969L261.582 148.179L260.062 150.849L260.842 154.459L261.952 156.719L265.552 159.399L264.562 160.499L263.722 162.549L258.102 164.789L256.532 164.009L255.562 162.429L253.512 160.699L246.732 158.409L245.342 158.689L242.282 161.279L241.082 164.249L241.092 165.639L240.512 166.179L239.112 166.269L236.342 165.169L234.392 165.059L230.942 166.149L231.062 168.189L232.872 171.549L231.492 173.459L228.802 174.979L227.052 174.749L222.802 170.459L216.452 168.529L216.842 167.209L219.732 164.519L219.962 163.449L219.172 161.709L217.812 160.809L215.872 160.989L211.462 160.109L211.482 157.779L212.732 151.679L211.832 147.989L209.922 146.089L209.762 145.019L210.212 141.259L211.772 137.119L212.422 133.119L213.922 132.279L220.532 132.149L221.812 133.019L226.692 129.049L227.242 125.849L230.582 126.659L232.472 125.039L231.972 123.089L230.812 121.659L228.132 119.369L225.602 118.209L224.342 116.999L226.162 113.369L227.252 108.209L226.302 105.739L226.432 104.059L225.742 101.009L223.242 95.8087L223.642 92.2387L222.332 89.0287L221.942 84.2787L220.942 79.1087L221.012 73.0587L220.022 66.8887L221.462 56.0687L226.322 54.4987L231.602 49.1387L240.302 49.9187L243.882 49.1787L267.282 35.0287L268.562 34.6987L271.662 35.1387Z"/>
</mask>
<path d="M271.662 35.1387L280.822 36.4887L286.012 37.8687L289.592 39.8087L292.512 42.3087L295.242 43.0387L305.132 52.6787L308.422 51.7987L311.342 52.1787L314.372 53.7287L316.662 55.4787L318.512 57.5887L319.552 60.0287L322.512 61.3987L327.772 62.6687L339.882 66.5887L339.872 67.4487L337.872 68.3287L337.292 69.0787L336.262 71.7087L333.072 74.2887L328.892 76.0287L325.212 76.5787L323.722 75.8787L323.082 74.3187L320.462 75.8287L318.472 75.3087L315.812 73.6387L315.132 72.6987L313.722 68.0187L312.552 66.7887L303.332 67.5687L297.962 66.5787L287.572 67.9587L287.112 68.2587L287.132 70.9487L286.382 74.3487L286.452 78.1987L287.042 78.9187L289.902 79.8487L294.842 79.9687L295.672 80.6687L296.912 83.2887L292.282 83.6487L291.002 84.1687L288.862 88.7787L287.732 93.1687L286.952 94.0187L283.272 95.9487L275.632 98.3287L271.382 100.699L269.202 102.979L268.932 105.869L269.632 118.189L268.772 124.519L270.862 129.099L270.192 133.159L273.332 140.959L272.382 141.539L269.672 141.609L267.222 143.309L263.472 144.339L261.652 145.969L261.582 148.179L260.062 150.849L260.842 154.459L261.952 156.719L265.552 159.399L264.562 160.499L263.722 162.549L258.102 164.789L256.532 164.009L255.562 162.429L253.512 160.699L246.732 158.409L245.342 158.689L242.282 161.279L241.082 164.249L241.092 165.639L240.512 166.179L239.112 166.269L236.342 165.169L234.392 165.059L230.942 166.149L231.062 168.189L232.872 171.549L231.492 173.459L228.802 174.979L227.052 174.749L222.802 170.459L216.452 168.529L216.842 167.209L219.732 164.519L219.962 163.449L219.172 161.709L217.812 160.809L215.872 160.989L211.462 160.109L211.482 157.779L212.732 151.679L211.832 147.989L209.922 146.089L209.762 145.019L210.212 141.259L211.772 137.119L212.422 133.119L213.922 132.279L220.532 132.149L221.812 133.019L226.692 129.049L227.242 125.849L230.582 126.659L232.472 125.039L231.972 123.089L230.812 121.659L228.132 119.369L225.602 118.209L224.342 116.999L226.162 113.369L227.252 108.209L226.302 105.739L226.432 104.059L225.742 101.009L223.242 95.8087L223.642 92.2387L222.332 89.0287L221.942 84.2787L220.942 79.1087L221.012 73.0587L220.022 66.8887L221.462 56.0687L226.322 54.4987L231.602 49.1387L240.302 49.9187L243.882 49.1787L267.282 35.0287L268.562 34.6987L271.662 35.1387Z" fill="#ABA7FD" stroke="#3E25DA" mask="url(#path-5-inside-5_1_40)"/>
<mask id="path-6-inside-6_1_40" fill="white">
<path d="M127.432 0.228745L140.312 5.90874L160.842 13.1587L164.842 15.5087L169.482 14.0187L173.132 13.9987L181.672 18.1187L197.552 33.6787L203.532 44.0987L200.502 46.6987L193.402 50.6987L183.892 49.4187L181.992 48.7587L180.292 46.7087L178.022 46.0287L173.052 45.8387L172.462 51.3187L171.732 53.2087L171.232 53.4287L168.532 51.9887H165.742L160.892 53.5487L158.782 55.3687L158.672 56.0687L159.452 61.2087L159.522 69.6487L158.172 70.6487L154.132 72.2887L144.112 73.0787L138.022 74.0287L132.192 82.6087L130.312 84.4787L127.242 86.3887L127.302 89.2687L128.732 93.9087L129.382 98.1587L128.642 101.189L126.182 102.889L120.072 103.419L118.792 103.129L113.992 103.769L111.352 103.459L106.882 103.789L97.5517 102.119L96.6317 102.719L95.7017 107.229L95.8017 125.439L95.1417 139.219L93.5217 140.189L92.5817 140.119L91.8117 138.369L89.7717 139.089L87.8817 138.229L86.1917 138.349L74.1917 143.799L71.7917 146.799L70.0817 148.149L67.3017 147.859L66.5417 147.349L63.9917 143.699L65.1517 138.929L67.7617 133.299L69.8817 123.509L69.0917 110.459L69.2317 100.519L70.2417 96.7387L71.5217 95.2587L75.4717 94.0787L78.1517 94.0587L81.3217 96.0987L82.3417 96.0587L82.9817 94.4987L83.2217 86.4787L81.5417 80.9587L81.5017 78.9187L82.8017 72.8587L82.9817 69.5387L81.1817 65.2587L79.3217 63.1087L79.7417 59.4087L81.1617 56.4287L81.0717 54.0287L82.6917 50.0987L82.2917 48.8487L81.2117 47.9687L80.0517 48.2787L77.5617 51.9687L76.9317 52.5287L75.1117 52.9587L72.0517 52.2787L69.1017 50.2087L59.5417 47.0887L58.4817 45.9887L55.2917 44.1687L53.6417 42.0487L52.8817 41.7387L48.2517 43.3187L46.3917 42.5787L39.7717 42.7187L39.8617 26.2787L44.0017 26.2587L60.5617 11.6787L85.6817 6.66874L88.0917 8.80874L93.8017 9.28874L100.252 8.56874L105.102 9.12875L110.432 8.96875L115.682 2.70874"/>
</mask>
<path d="M127.432 0.228745L140.312 5.90874L160.842 13.1587L164.842 15.5087L169.482 14.0187L173.132 13.9987L181.672 18.1187L197.552 33.6787L203.532 44.0987L200.502 46.6987L193.402 50.6987L183.892 49.4187L181.992 48.7587L180.292 46.7087L178.022 46.0287L173.052 45.8387L172.462 51.3187L171.732 53.2087L171.232 53.4287L168.532 51.9887H165.742L160.892 53.5487L158.782 55.3687L158.672 56.0687L159.452 61.2087L159.522 69.6487L158.172 70.6487L154.132 72.2887L144.112 73.0787L138.022 74.0287L132.192 82.6087L130.312 84.4787L127.242 86.3887L127.302 89.2687L128.732 93.9087L129.382 98.1587L128.642 101.189L126.182 102.889L120.072 103.419L118.792 103.129L113.992 103.769L111.352 103.459L106.882 103.789L97.5517 102.119L96.6317 102.719L95.7017 107.229L95.8017 125.439L95.1417 139.219L93.5217 140.189L92.5817 140.119L91.8117 138.369L89.7717 139.089L87.8817 138.229L86.1917 138.349L74.1917 143.799L71.7917 146.799L70.0817 148.149L67.3017 147.859L66.5417 147.349L63.9917 143.699L65.1517 138.929L67.7617 133.299L69.8817 123.509L69.0917 110.459L69.2317 100.519L70.2417 96.7387L71.5217 95.2587L75.4717 94.0787L78.1517 94.0587L81.3217 96.0987L82.3417 96.0587L82.9817 94.4987L83.2217 86.4787L81.5417 80.9587L81.5017 78.9187L82.8017 72.8587L82.9817 69.5387L81.1817 65.2587L79.3217 63.1087L79.7417 59.4087L81.1617 56.4287L81.0717 54.0287L82.6917 50.0987L82.2917 48.8487L81.2117 47.9687L80.0517 48.2787L77.5617 51.9687L76.9317 52.5287L75.1117 52.9587L72.0517 52.2787L69.1017 50.2087L59.5417 47.0887L58.4817 45.9887L55.2917 44.1687L53.6417 42.0487L52.8817 41.7387L48.2517 43.3187L46.3917 42.5787L39.7717 42.7187L39.8617 26.2787L44.0017 26.2587L60.5617 11.6787L85.6817 6.66874L88.0917 8.80874L93.8017 9.28874L100.252 8.56874L105.102 9.12875L110.432 8.96875L115.682 2.70874" fill="#ABA7FD"/>
<path d="M140.312 5.90874L140.11 6.36623L140.127 6.37389L140.145 6.38021L140.312 5.90874ZM160.842 13.1587L161.095 12.7276L161.053 12.7033L161.008 12.6873L160.842 13.1587ZM164.842 15.5087L164.588 15.9399L164.781 16.0532L164.995 15.9848L164.842 15.5087ZM169.482 14.0187L169.479 13.5188L169.402 13.5192L169.329 13.5427L169.482 14.0187ZM173.132 13.9987L173.349 13.5484L173.245 13.4981L173.129 13.4988L173.132 13.9987ZM181.672 18.1187L182.022 17.7616L181.963 17.7041L181.889 17.6684L181.672 18.1187ZM197.552 33.6787L197.985 33.4299L197.951 33.37L197.902 33.3216L197.552 33.6787ZM203.532 44.0987L203.857 44.4782L204.171 44.2087L203.965 43.8499L203.532 44.0987ZM200.502 46.6987L200.747 47.1344L200.79 47.1102L200.827 47.0782L200.502 46.6987ZM193.402 50.6987L193.335 51.1943L193.501 51.2166L193.647 51.1344L193.402 50.6987ZM183.892 49.4187L183.728 49.8911L183.775 49.9076L183.825 49.9143L183.892 49.4187ZM181.992 48.7587L181.607 49.0779L181.696 49.1853L181.828 49.2311L181.992 48.7587ZM180.292 46.7087L180.677 46.3896L180.58 46.2732L180.435 46.2298L180.292 46.7087ZM178.022 46.0287L178.165 45.5498L178.104 45.5315L178.041 45.5291L178.022 46.0287ZM173.052 45.8387L173.071 45.3391L172.604 45.3213L172.555 45.7852L173.052 45.8387ZM172.462 51.3187L172.928 51.4989L172.952 51.4376L172.959 51.3723L172.462 51.3187ZM171.732 53.2087L171.933 53.6664L172.123 53.5827L172.198 53.3889L171.732 53.2087ZM171.232 53.4287L170.996 53.8699L171.211 53.9842L171.433 53.8864L171.232 53.4287ZM168.532 51.9887L168.767 51.5476L168.657 51.4887H168.532V51.9887ZM165.742 51.9887V51.4887H165.663L165.589 51.5128L165.742 51.9887ZM160.892 53.5487L160.739 53.0728L160.642 53.1038L160.565 53.1701L160.892 53.5487ZM158.782 55.3687L158.455 54.9901L158.316 55.1099L158.288 55.2911L158.782 55.3687ZM158.672 56.0687L158.178 55.9911L158.166 56.0674L158.177 56.1438L158.672 56.0687ZM159.452 61.2087L159.952 61.2046L159.951 61.169L159.946 61.1337L159.452 61.2087ZM159.522 69.6487L159.819 70.0505L160.024 69.8991L160.022 69.6446L159.522 69.6487ZM158.172 70.6487L158.36 71.112L158.418 71.0882L158.469 71.0505L158.172 70.6487ZM154.132 72.2887L154.171 72.7872L154.248 72.7811L154.32 72.752L154.132 72.2887ZM144.112 73.0787L144.072 72.5803L144.053 72.5818L144.035 72.5847L144.112 73.0787ZM138.022 74.0287L137.945 73.5347L137.73 73.5682L137.608 73.7477L138.022 74.0287ZM132.192 82.6087L132.544 82.9632L132.578 82.9294L132.605 82.8898L132.192 82.6087ZM130.312 84.4787L130.576 84.9033L130.624 84.8733L130.664 84.8332L130.312 84.4787ZM127.242 86.3887L126.978 85.9642L126.736 86.1146L126.742 86.3992L127.242 86.3887ZM127.302 89.2687L126.802 89.2792L126.803 89.3491L126.824 89.416L127.302 89.2687ZM128.732 93.9087L129.226 93.8332L129.22 93.7967L129.209 93.7615L128.732 93.9087ZM129.382 98.1587L129.867 98.2774L129.891 98.1811L129.876 98.0832L129.382 98.1587ZM128.642 101.189L128.926 101.6L129.082 101.492L129.127 101.307L128.642 101.189ZM126.182 102.889L126.225 103.387L126.357 103.375L126.466 103.3L126.182 102.889ZM120.072 103.419L119.961 103.906L120.037 103.924L120.115 103.917L120.072 103.419ZM118.792 103.129L118.902 102.641L118.815 102.621L118.726 102.633L118.792 103.129ZM113.992 103.769L113.933 104.265L113.996 104.273L114.058 104.264L113.992 103.769ZM111.352 103.459L111.41 102.962L111.363 102.957L111.315 102.96L111.352 103.459ZM106.882 103.789L106.794 104.281L106.856 104.292L106.918 104.287L106.882 103.789ZM97.5517 102.119L97.6398 101.627L97.4446 101.592L97.2785 101.7L97.5517 102.119ZM96.6317 102.719L96.3585 102.3L96.184 102.414L96.142 102.618L96.6317 102.719ZM95.7017 107.229L95.212 107.128L95.2014 107.179L95.2017 107.231L95.7017 107.229ZM95.8017 125.439L96.3011 125.463L96.3017 125.449L96.3017 125.436L95.8017 125.439ZM95.1417 139.219L95.3985 139.648L95.6283 139.51L95.6411 139.243L95.1417 139.219ZM93.5217 140.189L93.4845 140.687L93.6426 140.699L93.7785 140.618L93.5217 140.189ZM92.5817 140.119L92.124 140.32L92.245 140.595L92.5445 140.617L92.5817 140.119ZM91.8117 138.369L92.2693 138.167L92.0826 137.743L91.6452 137.897L91.8117 138.369ZM89.7717 139.089L89.5646 139.544L89.748 139.627L89.9381 139.56L89.7717 139.089ZM87.8817 138.229L88.0888 137.774L87.9731 137.721L87.8463 137.73L87.8817 138.229ZM86.1917 138.349L86.1563 137.85L86.0667 137.856L85.9849 137.893L86.1917 138.349ZM74.1917 143.799L73.9849 143.343L73.876 143.393L73.8012 143.486L74.1917 143.799ZM71.7917 146.799L72.1015 147.191L72.1464 147.156L72.1821 147.111L71.7917 146.799ZM70.0817 148.149L70.0298 148.646L70.232 148.667L70.3915 148.541L70.0817 148.149ZM67.3017 147.859L67.0231 148.274L67.1262 148.343L67.2498 148.356L67.3017 147.859ZM66.5417 147.349L66.1318 147.635L66.1854 147.712L66.2631 147.764L66.5417 147.349ZM63.9917 143.699L63.5058 143.581L63.4525 143.8L63.5818 143.985L63.9917 143.699ZM65.1517 138.929L64.698 138.718L64.6774 138.763L64.6658 138.811L65.1517 138.929ZM67.7617 133.299L68.2153 133.509L68.2386 133.459L68.2503 133.405L67.7617 133.299ZM69.8817 123.509L70.3703 123.615L70.3849 123.547L70.3808 123.479L69.8817 123.509ZM69.0917 110.459L68.5917 110.452L68.5915 110.47L68.5926 110.489L69.0917 110.459ZM69.2317 100.519L68.7486 100.39L68.7326 100.45L68.7317 100.512L69.2317 100.519ZM70.2417 96.7387L69.8635 96.4117L69.7883 96.4986L69.7586 96.6097L70.2417 96.7387ZM71.5217 95.2587L71.3785 94.7797L71.2389 94.8214L71.1435 94.9317L71.5217 95.2587ZM75.4717 94.0787L75.4679 93.5788L75.3968 93.5793L75.3285 93.5997L75.4717 94.0787ZM78.1517 94.0587L78.4223 93.6383L78.2969 93.5576L78.1479 93.5588L78.1517 94.0587ZM81.3217 96.0987L81.0511 96.5192L81.1837 96.6045L81.3413 96.5984L81.3217 96.0987ZM82.3417 96.0587L82.3613 96.5584L82.6823 96.5458L82.8042 96.2485L82.3417 96.0587ZM82.9817 94.4987L83.4442 94.6885L83.4787 94.6045L83.4814 94.5137L82.9817 94.4987ZM83.2217 86.4787L83.7214 86.4937L83.7239 86.4117L83.7 86.3332L83.2217 86.4787ZM81.5417 80.9587L81.0418 80.9686L81.0431 81.0379L81.0633 81.1043L81.5417 80.9587ZM81.5017 78.9187L81.0128 78.8139L81.0006 78.8706L81.0018 78.9286L81.5017 78.9187ZM82.8017 72.8587L83.2905 72.9636L83.2988 72.9251L83.3009 72.8858L82.8017 72.8587ZM82.9817 69.5387L83.4809 69.5658L83.4872 69.4509L83.4426 69.3449L82.9817 69.5387ZM81.1817 65.2587L81.6426 65.0649L81.6118 64.9917L81.5598 64.9316L81.1817 65.2587ZM79.3217 63.1087L78.8249 63.0524L78.8001 63.2701L78.9435 63.4359L79.3217 63.1087ZM79.7417 59.4087L79.2903 59.1937L79.2543 59.2692L79.2449 59.3524L79.7417 59.4087ZM81.1617 56.4287L81.613 56.6438L81.6659 56.5329L81.6613 56.41L81.1617 56.4287ZM81.0717 54.0287L80.6094 53.8382L80.5679 53.9388L80.572 54.0475L81.0717 54.0287ZM82.6917 50.0987L83.1539 50.2893L83.2236 50.1204L83.1679 49.9464L82.6917 50.0987ZM82.2917 48.8487L82.7679 48.6964L82.7226 48.5549L82.6075 48.4611L82.2917 48.8487ZM81.2117 47.9687L81.5275 47.5811L81.3294 47.4197L81.0826 47.4857L81.2117 47.9687ZM80.0517 48.2787L79.9226 47.7957L79.7418 47.844L79.6372 47.9991L80.0517 48.2787ZM77.5617 51.9687L77.8938 52.3425L77.9409 52.3006L77.9761 52.2484L77.5617 51.9687ZM76.9317 52.5287L77.0466 53.0153L77.1695 52.9863L77.2638 52.9024L76.9317 52.5287ZM75.1117 52.9587L75.0032 53.4468L75.1151 53.4717L75.2266 53.4453L75.1117 52.9587ZM72.0517 52.2787L71.7645 52.688L71.846 52.7452L71.9432 52.7668L72.0517 52.2787ZM69.1017 50.2087L69.3889 49.7995L69.3278 49.7566L69.2568 49.7334L69.1017 50.2087ZM59.5417 47.0887L59.1816 47.4357L59.2681 47.5254L59.3865 47.5641L59.5417 47.0887ZM58.4817 45.9887L58.8417 45.6418L58.7918 45.5901L58.7294 45.5545L58.4817 45.9887ZM55.2917 44.1687L54.8971 44.4758L54.9579 44.554L55.0439 44.603L55.2917 44.1687ZM53.6417 42.0487L54.0362 41.7416L53.9542 41.6362L53.8305 41.5858L53.6417 42.0487ZM52.8817 41.7387L53.0705 41.2758L52.8973 41.2051L52.7202 41.2655L52.8817 41.7387ZM48.2517 43.3187L48.0668 43.7833L48.2384 43.8516L48.4131 43.792L48.2517 43.3187ZM46.3917 42.5787L46.5765 42.1142L46.4824 42.0767L46.3811 42.0789L46.3917 42.5787ZM39.7717 42.7187L39.2717 42.716L39.2689 43.2295L39.7822 43.2186L39.7717 42.7187ZM39.8617 26.2787L39.8592 25.7788L39.3644 25.7811L39.3617 26.276L39.8617 26.2787ZM44.0017 26.2587L44.0041 26.7587L44.1914 26.7578L44.3321 26.634L44.0017 26.2587ZM60.5617 11.6787L60.4639 11.1884L60.3321 11.2147L60.2313 11.3035L60.5617 11.6787ZM85.6817 6.66874L86.0137 6.29487L85.8277 6.12977L85.5839 6.1784L85.6817 6.66874ZM88.0917 8.80874L87.7597 9.18262L87.884 9.29305L88.0498 9.30699L88.0917 8.80874ZM93.8017 9.28874L93.7598 9.78699L93.8085 9.79108L93.8571 9.78566L93.8017 9.28874ZM100.252 8.56874L100.309 8.07204L100.253 8.06553L100.196 8.07183L100.252 8.56874ZM105.102 9.12875L105.044 9.62545L105.08 9.62961L105.117 9.62852L105.102 9.12875ZM110.432 8.96875L110.447 9.46852L110.671 9.46179L110.815 9.29004L110.432 8.96875ZM127.23 0.686234L140.11 6.36623L140.513 5.45125L127.633 -0.228745L127.23 0.686234ZM140.145 6.38021L160.675 13.6302L161.008 12.6873L140.478 5.43728L140.145 6.38021ZM160.588 13.5899L164.588 15.9399L165.095 15.0776L161.095 12.7276L160.588 13.5899ZM164.995 15.9848L169.635 14.4948L169.329 13.5427L164.689 15.0327L164.995 15.9848ZM169.484 14.5187L173.134 14.4987L173.129 13.4988L169.479 13.5188L169.484 14.5187ZM172.914 14.4491L181.454 18.5691L181.889 17.6684L173.349 13.5484L172.914 14.4491ZM181.322 18.4759L197.202 34.0359L197.902 33.3216L182.022 17.7616L181.322 18.4759ZM197.118 33.9276L203.098 44.3476L203.965 43.8499L197.985 33.4299L197.118 33.9276ZM203.206 43.7193L200.176 46.3193L200.827 47.0782L203.857 44.4782L203.206 43.7193ZM200.256 46.2631L193.156 50.2631L193.647 51.1344L200.747 47.1344L200.256 46.2631ZM193.468 50.2032L183.958 48.9232L183.825 49.9143L193.335 51.1943L193.468 50.2032ZM184.056 48.9464L182.156 48.2864L181.828 49.2311L183.728 49.8911L184.056 48.9464ZM182.377 48.4396L180.677 46.3896L179.907 47.0279L181.607 49.0779L182.377 48.4396ZM180.435 46.2298L178.165 45.5498L177.878 46.5077L180.148 47.1877L180.435 46.2298ZM178.041 45.5291L173.071 45.3391L173.033 46.3384L178.003 46.5284L178.041 45.5291ZM172.555 45.7852L171.965 51.2652L172.959 51.3723L173.549 45.8923L172.555 45.7852ZM171.995 51.1386L171.265 53.0286L172.198 53.3889L172.928 51.4989L171.995 51.1386ZM171.53 52.7511L171.03 52.9711L171.433 53.8864L171.933 53.6664L171.53 52.7511ZM171.467 52.9876L168.767 51.5476L168.296 52.4299L170.996 53.8699L171.467 52.9876ZM168.532 51.4887H165.742V52.4887H168.532V51.4887ZM165.589 51.5128L160.739 53.0728L161.045 54.0247L165.895 52.4647L165.589 51.5128ZM160.565 53.1701L158.455 54.9901L159.108 55.7474L161.218 53.9274L160.565 53.1701ZM158.288 55.2911L158.178 55.9911L159.166 56.1464L159.276 55.4464L158.288 55.2911ZM158.177 56.1438L158.957 61.2838L159.946 61.1337L159.166 55.9937L158.177 56.1438ZM158.952 61.2129L159.022 69.6529L160.022 69.6446L159.952 61.2046L158.952 61.2129ZM159.224 69.247L157.874 70.247L158.469 71.0505L159.819 70.0505L159.224 69.247ZM157.984 70.1855L153.944 71.8255L154.32 72.752L158.36 71.112L157.984 70.1855ZM154.092 71.7903L144.072 72.5803L144.151 73.5772L154.171 72.7872L154.092 71.7903ZM144.035 72.5847L137.945 73.5347L138.099 74.5228L144.189 73.5728L144.035 72.5847ZM137.608 73.7477L131.778 82.3277L132.605 82.8898L138.435 74.3098L137.608 73.7477ZM131.839 82.2542L129.959 84.1242L130.664 84.8332L132.544 82.9632L131.839 82.2542ZM130.048 84.0542L126.978 85.9642L127.506 86.8133L130.576 84.9033L130.048 84.0542ZM126.742 86.3992L126.802 89.2792L127.802 89.2583L127.742 86.3783L126.742 86.3992ZM126.824 89.416L128.254 94.056L129.209 93.7615L127.779 89.1215L126.824 89.416ZM128.237 93.9843L128.887 98.2343L129.876 98.0832L129.226 93.8332L128.237 93.9843ZM128.896 98.0401L128.156 101.07L129.127 101.307L129.867 98.2774L128.896 98.0401ZM128.357 100.777L125.897 102.477L126.466 103.3L128.926 101.6L128.357 100.777ZM126.138 102.391L120.028 102.921L120.115 103.917L126.225 103.387L126.138 102.391ZM120.182 102.931L118.902 102.641L118.681 103.616L119.961 103.906L120.182 102.931ZM118.726 102.633L113.926 103.273L114.058 104.264L118.858 103.624L118.726 102.633ZM114.05 103.272L111.41 102.962L111.293 103.955L113.933 104.265L114.05 103.272ZM111.315 102.96L106.845 103.29L106.918 104.287L111.388 103.957L111.315 102.96ZM106.97 103.297L97.6398 101.627L97.4636 102.611L106.794 104.281L106.97 103.297ZM97.2785 101.7L96.3585 102.3L96.9048 103.138L97.8248 102.538L97.2785 101.7ZM96.142 102.618L95.212 107.128L96.1914 107.33L97.1214 102.82L96.142 102.618ZM95.2017 107.231L95.3017 125.441L96.3017 125.436L96.2017 107.226L95.2017 107.231ZM95.3022 125.415L94.6422 139.195L95.6411 139.243L96.3011 125.463L95.3022 125.415ZM94.8848 138.79L93.2648 139.76L93.7785 140.618L95.3985 139.648L94.8848 138.79ZM93.5588 139.69L92.6188 139.62L92.5445 140.617L93.4845 140.687L93.5588 139.69ZM93.0393 139.917L92.2693 138.167L91.354 138.57L92.124 140.32L93.0393 139.917ZM91.6452 137.897L89.6053 138.617L89.9381 139.56L91.9781 138.84L91.6452 137.897ZM89.9788 138.634L88.0888 137.774L87.6746 138.684L89.5646 139.544L89.9788 138.634ZM87.8463 137.73L86.1563 137.85L86.2271 138.847L87.9171 138.727L87.8463 137.73ZM85.9849 137.893L73.9849 143.343L74.3984 144.254L86.3984 138.804L85.9849 137.893ZM73.8012 143.486L71.4012 146.486L72.1821 147.111L74.5821 144.111L73.8012 143.486ZM71.4818 146.406L69.7718 147.756L70.3915 148.541L72.1015 147.191L71.4818 146.406ZM70.1335 147.651L67.3535 147.361L67.2498 148.356L70.0298 148.646L70.1335 147.651ZM67.5803 147.444L66.8203 146.934L66.2631 147.764L67.0231 148.274L67.5803 147.444ZM66.9515 147.062L64.4015 143.412L63.5818 143.985L66.1318 147.635L66.9515 147.062ZM64.4775 143.817L65.6375 139.047L64.6658 138.811L63.5058 143.581L64.4775 143.817ZM65.6053 139.139L68.2153 133.509L67.308 133.088L64.698 138.718L65.6053 139.139ZM68.2503 133.405L70.3703 123.615L69.393 123.403L67.273 133.193L68.2503 133.405ZM70.3808 123.479L69.5908 110.429L68.5926 110.489L69.3826 123.539L70.3808 123.479ZM69.5916 110.466L69.7316 100.526L68.7317 100.512L68.5917 110.452L69.5916 110.466ZM69.7147 100.648L70.7247 96.8678L69.7586 96.6097L68.7486 100.39L69.7147 100.648ZM70.6199 97.0658L71.8998 95.5858L71.1435 94.9317L69.8635 96.4117L70.6199 97.0658ZM71.6648 95.7378L75.6148 94.5578L75.3285 93.5997L71.3785 94.7797L71.6648 95.7378ZM75.4754 94.5787L78.1554 94.5587L78.1479 93.5588L75.4679 93.5788L75.4754 94.5787ZM77.8811 94.4792L81.0511 96.5192L81.5923 95.6783L78.4223 93.6383L77.8811 94.4792ZM81.3413 96.5984L82.3613 96.5584L82.3221 95.5591L81.3021 95.5991L81.3413 96.5984ZM82.8042 96.2485L83.4442 94.6885L82.5191 94.309L81.8791 95.869L82.8042 96.2485ZM83.4814 94.5137L83.7214 86.4937L82.7219 86.4638L82.4819 94.4838L83.4814 94.5137ZM83.7 86.3332L82.02 80.8132L81.0633 81.1043L82.7433 86.6243L83.7 86.3332ZM82.0416 80.9489L82.0016 78.9089L81.0018 78.9286L81.0418 80.9686L82.0416 80.9489ZM81.9905 79.0236L83.2905 72.9636L82.3128 72.7539L81.0128 78.8139L81.9905 79.0236ZM83.3009 72.8858L83.4809 69.5658L82.4824 69.5117L82.3024 72.8317L83.3009 72.8858ZM83.4426 69.3449L81.6426 65.0649L80.7208 65.4526L82.5208 69.7326L83.4426 69.3449ZM81.5598 64.9316L79.6998 62.7816L78.9435 63.4359L80.8035 65.5859L81.5598 64.9316ZM79.8185 63.1651L80.2385 59.4651L79.2449 59.3524L78.8249 63.0524L79.8185 63.1651ZM80.193 59.6238L81.613 56.6438L80.7103 56.2137L79.2903 59.1937L80.193 59.6238ZM81.6613 56.41L81.5713 54.01L80.572 54.0475L80.662 56.4475L81.6613 56.41ZM81.5339 54.2193L83.1539 50.2893L82.2294 49.9082L80.6094 53.8382L81.5339 54.2193ZM83.1679 49.9464L82.7679 48.6964L81.8155 49.0011L82.2155 50.2511L83.1679 49.9464ZM82.6075 48.4611L81.5275 47.5811L80.8958 48.3564L81.9758 49.2364L82.6075 48.4611ZM81.0826 47.4857L79.9226 47.7957L80.1808 48.7618L81.3408 48.4518L81.0826 47.4857ZM79.6372 47.9991L77.1472 51.6891L77.9761 52.2484L80.4661 48.5584L79.6372 47.9991ZM77.2295 51.595L76.5995 52.155L77.2638 52.9024L77.8938 52.3425L77.2295 51.595ZM76.8167 52.0421L74.9967 52.4721L75.2266 53.4453L77.0466 53.0153L76.8167 52.0421ZM75.2201 52.4707L72.1601 51.7907L71.9432 52.7668L75.0032 53.4468L75.2201 52.4707ZM72.3389 51.8695L69.3889 49.7995L68.8145 50.618L71.7645 52.688L72.3389 51.8695ZM69.2568 49.7334L59.6968 46.6134L59.3865 47.5641L68.9465 50.6841L69.2568 49.7334ZM59.9017 46.7418L58.8417 45.6418L58.1216 46.3357L59.1816 47.4357L59.9017 46.7418ZM58.7294 45.5545L55.5394 43.7345L55.0439 44.603L58.2339 46.423L58.7294 45.5545ZM55.6862 43.8616L54.0362 41.7416L53.2471 42.3558L54.8971 44.4758L55.6862 43.8616ZM53.8305 41.5858L53.0705 41.2758L52.6928 42.2017L53.4528 42.5117L53.8305 41.5858ZM52.7202 41.2655L48.0902 42.8455L48.4131 43.792L53.0432 42.212L52.7202 41.2655ZM48.4365 42.8542L46.5765 42.1142L46.2068 43.0433L48.0668 43.7833L48.4365 42.8542ZM46.3811 42.0789L39.7611 42.2189L39.7822 43.2186L46.4022 43.0786L46.3811 42.0789ZM40.2717 42.7215L40.3617 26.2815L39.3617 26.276L39.2717 42.716L40.2717 42.7215ZM39.8641 26.7787L44.0041 26.7587L43.9992 25.7588L39.8592 25.7788L39.8641 26.7787ZM44.3321 26.634L60.8921 12.054L60.2313 11.3035L43.6713 25.8835L44.3321 26.634ZM60.6595 12.1691L85.7795 7.15909L85.5839 6.1784L60.4639 11.1884L60.6595 12.1691ZM85.3497 7.04262L87.7597 9.18262L88.4236 8.43487L86.0137 6.29487L85.3497 7.04262ZM88.0498 9.30699L93.7598 9.78699L93.8436 8.7905L88.1335 8.3105L88.0498 9.30699ZM93.8571 9.78566L100.307 9.06566L100.196 8.07183L93.7462 8.79183L93.8571 9.78566ZM100.194 9.06544L105.044 9.62545L105.159 8.63205L100.309 8.07204L100.194 9.06544ZM105.117 9.62852L110.447 9.46852L110.417 8.46897L105.087 8.62897L105.117 9.62852ZM110.815 9.29004L116.065 3.03004L115.299 2.38745L110.049 8.64745L110.815 9.29004Z" fill="#3E25DA" mask="url(#path-6-inside-6_1_40)"/>
<mask id="path-8-inside-7_1_40" fill="white">
<path d="M207.592 50.2687L213.042 56.7887L218.122 56.6787L221.462 56.0687L220.022 66.8887L221.012 73.0587L220.942 79.1087L221.942 84.2787L222.332 89.0287L223.642 92.2387L223.242 95.8087L225.742 101.009L226.432 104.059L226.302 105.739L227.252 108.209L226.162 113.369L224.342 116.999L225.602 118.209L228.132 119.369L230.812 121.659L231.972 123.089L232.472 125.039L230.582 126.659L227.242 125.849L226.692 129.049L221.812 133.019L220.532 132.149L213.922 132.279L212.422 133.119L211.772 137.119L210.212 141.259L209.762 145.019L209.922 146.089L211.832 147.989L212.732 151.679L211.482 157.779L211.462 160.109L210.452 160.079L208.112 162.459L205.362 164.229L204.512 165.369L202.802 168.779L202.162 172.329L200.652 175.559L197.612 178.659L195.282 180.169L190.572 180.789L182.632 180.219L176.992 181.169L171.722 185.879L168.862 190.039L167.582 190.799L165.902 190.919L165.972 190.079L164.382 185.989L160.582 179.349L157.262 174.949L157.052 169.469L155.672 161.889L153.742 158.879L148.362 156.169V154.969L150.412 148.479L150.422 146.009L149.012 143.859L144.662 142.089L139.812 141.469L138.592 142.279L136.102 142.869L132.312 142.369L126.842 143.129L123.192 140.719L120.322 140.609L118.632 137.309L117.552 136.739L113.942 137.389L111.852 137.079L110.942 136.439L110.152 136.589L109.092 137.209L108.272 139.529L101.932 140.989L97.8217 138.739H96.0017L95.1417 139.219L95.8017 125.439L95.7017 107.229L96.6317 102.719L97.5517 102.119L106.882 103.789L111.352 103.459L113.992 103.769L118.792 103.129L120.072 103.419L126.182 102.889L128.642 101.189L129.382 98.1587L128.732 93.9087L127.302 89.2687L127.242 86.3887L130.312 84.4787L132.192 82.6087L138.022 74.0287L144.112 73.0787L154.132 72.2887L158.172 70.6487L159.522 69.6487L159.452 61.2087L158.672 56.0687L158.782 55.3687L160.892 53.5487L165.742 51.9887H168.532L171.232 53.4287L171.732 53.2087L172.462 51.3187L173.052 45.8387L178.022 46.0287L180.292 46.7087L181.992 48.7587L183.892 49.4187L193.402 50.6987L200.502 46.6987L203.532 44.0987L207.592 50.2687Z"/>
</mask>
<path d="M207.592 50.2687L213.042 56.7887L218.122 56.6787L221.462 56.0687L220.022 66.8887L221.012 73.0587L220.942 79.1087L221.942 84.2787L222.332 89.0287L223.642 92.2387L223.242 95.8087L225.742 101.009L226.432 104.059L226.302 105.739L227.252 108.209L226.162 113.369L224.342 116.999L225.602 118.209L228.132 119.369L230.812 121.659L231.972 123.089L232.472 125.039L230.582 126.659L227.242 125.849L226.692 129.049L221.812 133.019L220.532 132.149L213.922 132.279L212.422 133.119L211.772 137.119L210.212 141.259L209.762 145.019L209.922 146.089L211.832 147.989L212.732 151.679L211.482 157.779L211.462 160.109L210.452 160.079L208.112 162.459L205.362 164.229L204.512 165.369L202.802 168.779L202.162 172.329L200.652 175.559L197.612 178.659L195.282 180.169L190.572 180.789L182.632 180.219L176.992 181.169L171.722 185.879L168.862 190.039L167.582 190.799L165.902 190.919L165.972 190.079L164.382 185.989L160.582 179.349L157.262 174.949L157.052 169.469L155.672 161.889L153.742 158.879L148.362 156.169V154.969L150.412 148.479L150.422 146.009L149.012 143.859L144.662 142.089L139.812 141.469L138.592 142.279L136.102 142.869L132.312 142.369L126.842 143.129L123.192 140.719L120.322 140.609L118.632 137.309L117.552 136.739L113.942 137.389L111.852 137.079L110.942 136.439L110.152 136.589L109.092 137.209L108.272 139.529L101.932 140.989L97.8217 138.739H96.0017L95.1417 139.219L95.8017 125.439L95.7017 107.229L96.6317 102.719L97.5517 102.119L106.882 103.789L111.352 103.459L113.992 103.769L118.792 103.129L120.072 103.419L126.182 102.889L128.642 101.189L129.382 98.1587L128.732 93.9087L127.302 89.2687L127.242 86.3887L130.312 84.4787L132.192 82.6087L138.022 74.0287L144.112 73.0787L154.132 72.2887L158.172 70.6487L159.522 69.6487L159.452 61.2087L158.672 56.0687L158.782 55.3687L160.892 53.5487L165.742 51.9887H168.532L171.232 53.4287L171.732 53.2087L172.462 51.3187L173.052 45.8387L178.022 46.0287L180.292 46.7087L181.992 48.7587L183.892 49.4187L193.402 50.6987L200.502 46.6987L203.532 44.0987L207.592 50.2687Z" fill="#ABA7FD" stroke="#3E25DA" mask="url(#path-8-inside-7_1_40)"/>
</svg>
