<svg width="114" height="142" viewBox="0 0 114 142" fill="none" xmlns="http://www.w3.org/2000/svg">
<path d="M54.6103 140.28L54.6556 140.924L53.1738 139.8L53.1335 139.77L53.0879 139.748L50.1479 138.338L49.988 138.261L49.8155 138.302L48.1634 138.697L45.026 137.53L44.9312 137.495L44.8302 137.499L42.0402 137.619L41.9179 137.624L41.8119 137.686L40.7762 138.283L37.813 138.832L36.2549 138.598L34.9757 137.354L34.5002 136.468L34.6289 135.583L35.9531 132.007L39.324 127.739L39.3473 127.709L39.366 127.676L41.756 123.487L41.824 123.367L41.8216 123.23L41.7716 120.45L41.77 120.362L41.7385 120.28L41.0785 118.56L40.9672 118.27L40.727 118.247L43.6256 108.632L45.6616 104.88L47.4208 103.256L47.5059 103.178L47.5478 103.07L48.6902 100.126L49.5072 99.3003L49.61 99.1963L49.6406 99.0533L50.0706 97.0433L50.0872 96.9657L50.079 96.8868L49.7252 93.4968L49.997 91.5064L50.0214 91.3284L49.9268 91.1756L48.6786 89.1586L49.4869 88.6526L49.7342 88.4978L49.7211 88.2064L49.3411 79.7363L49.3379 79.6633L49.3138 79.5943L48.8438 78.2444L48.8201 78.1761L48.7779 78.1173L47.738 76.6673L47.6435 76.5356L47.4898 76.4844L42.2403 74.7346L40.6229 73.3747L41.6496 71.58L42.9063 70.3788L46.8741 68.2957L47.2173 68.7361L47.4038 68.9755L47.7023 68.9205L52.4626 68.0433L54.9804 68.2942L56.7586 69.4565L57.0325 70.6685L57.1009 74.9251L56.5606 77.7343L56.5484 77.7981L56.5528 77.8629L56.6028 78.5929L56.6147 78.767L56.7323 78.8958L57.6723 79.9258L57.8089 80.0755L58.0112 80.0878L71.8534 80.9327L72.8866 82.4825L73.0941 84.5487L73.1067 84.6737L73.1769 84.7779L73.8769 85.8179L73.9263 85.8914L73.9979 85.9434L77.2079 88.2734L77.3053 88.3441L77.4242 88.3627L78.5788 88.5436L79.3922 89.5152L78.8378 93.0104L78.8301 93.0592L78.8321 93.1086L78.9821 96.8885L78.9845 96.9508L79.0022 97.0106L80.3722 101.641L80.3809 101.67L80.3931 101.698L81.1231 103.378L81.1529 103.447L81.2016 103.504L82.8428 105.423L83.5163 107.683L83.1777 108.366L80.2783 107.721L77.6898 105.21L77.6075 105.13L77.4986 105.094L75.0402 104.281L72.4796 102.296L71.9438 100.346L71.916 100.245L71.8503 100.164L70.6603 98.6941L70.558 98.5678L70.4009 98.5257L67.0009 97.6158L66.9231 97.5949L66.8428 97.5996L64.4228 97.7396L64.0759 97.7597L63.9738 98.0917L63.6938 99.0017L63.6602 99.1107L63.6773 99.2234L64.1884 102.608L62.3913 107.589L62.3025 107.835L62.4542 108.048L62.7741 108.498L62.937 108.728L63.2174 108.707L64.7337 108.599L64.2591 110.253L63.7485 110.882L57.9148 110.729L57.7169 110.724L57.569 110.855L56.469 111.835L56.3221 111.966L56.3038 112.162L56.2338 112.912L56.2195 113.065L56.2938 113.2L57.2744 114.978L56.1021 120.607L56.0923 120.654L56.0917 120.702L56.0617 123.103L56.0608 123.171L56.0783 123.237L56.6956 125.566L55.6391 128.175L53.2266 130.033L53.0021 130.205L53.035 130.487L53.1022 131.061L52.7486 131.543L52.6266 131.709L52.6571 131.913L52.8771 133.383L52.899 133.529L52.9964 133.639L53.4649 134.171L53.48 135.054L52.8496 136.578L52.7596 136.795L52.8701 137.003L54.6103 140.28Z" fill="#DAE0E6" stroke="#96C3F1"/>
<path d="M19.2186 25.4285L22.9055 25.3033L25.2215 26.6417L25.3286 26.7035L25.4522 26.7084L27.4038 26.7845L30.8742 28.3662L31.072 28.8003L29.9138 31.9971L29.2544 32.9466L27.6421 34.0342L27.5717 34.0817L27.5209 34.1498L25.6709 36.6298L25.5291 36.8199L25.5866 37.05L25.769 37.7797L25.2911 38.4195L25.2209 38.5134L25.1998 38.6288L24.7698 40.9787L24.7314 41.1885L24.8563 41.3615L25.2463 41.9015L25.3454 42.0387L25.5074 42.0875L29.2066 43.202L30.4799 44.816L31.7924 48.3815L31.8153 48.4436L31.8536 48.4977L33.0206 50.1458L32.869 50.6308L32.2849 50.8374L31.8362 50.9961L31.9727 51.4521L32.3391 52.6765L31.8839 54.1513L31.7964 54.4348L32.0033 54.6474L32.7233 55.3874L32.999 55.6707L33.3382 55.4679L35.0596 54.4387L35.1654 54.4613L35.6842 56.7302L35.7383 56.9667L35.9576 57.0706L36.9477 57.5396L36.6581 59.3184L36.6323 59.477L36.7037 59.6209L38.5454 63.3336L38.7152 64.7579L38.7316 64.8956L38.8165 65.0051L39.5765 65.9852L39.6357 66.0614L39.7189 66.1102L42.1089 67.5102L42.3601 67.6573L42.612 67.5116L44.1363 66.63L44.9327 66.6964L45.7013 67.2042L45.683 67.4518L45.6568 67.8053L42.3792 69.5261L42.317 69.5587L42.2662 69.6073L40.9062 70.9073L40.8537 70.9575L40.8176 71.0205L39.6512 73.0594L34.6533 74.3935L29.3948 73.1717L29.2935 73.1482L29.1912 73.167L22.8812 74.327L22.7951 74.3428L22.7194 74.387L20.9394 75.427L20.7605 75.5316L20.708 75.732L19.7919 79.229L17.5712 83.5485L15.2893 83.7784L10.8975 81.9087L10.6862 81.8187L10.4803 81.9204L8.86026 82.7204L8.75821 82.7708L8.68803 82.8604L5.77142 86.584L3.91722 87.3203L1.83681 87.1383L1.14282 86.338L1.87014 85.4955L1.91197 85.447L1.94024 85.3896L3.86024 81.4896L3.89694 81.415L3.90756 81.3326L4.24009 78.7506L5.97693 74.1485L8.45986 69.6295L8.51361 69.5317L8.52066 69.4203L8.89631 63.4791L10.1535 59.8942L10.2095 59.7345L10.157 59.5736L8.93592 55.831L7.47459 48.633L7.5508 47.3279L7.56388 47.1039L7.4052 46.9452L6.37809 45.9181L4.3023 36.5916L5.4571 36.0591L8.89124 36.6905L9.08155 36.7255L9.24584 36.6232L10.6758 35.7332L10.7578 35.6822L10.8149 35.6044L12.6549 33.0943L12.7481 32.9673L12.7515 32.8097L12.81 30.1477L13.9953 26.2094L16.0995 24.0395L17.5754 23.2153L17.673 23.1608L17.7381 23.07L18.6245 21.8329L18.7018 24.9412L18.7144 25.4456L19.2186 25.4285Z" fill="#DAE0E6" stroke="#96C3F1"/>
<path d="M75.1142 30.575L75.0802 30.7569L75.0526 30.9047L75.111 31.0432L75.761 32.5832L75.8033 32.6835L75.8836 32.7571L79.8936 36.4371L79.9584 36.4966L80.0397 36.5304L81.8197 37.2704L82.0123 37.3505L82.2047 37.27L83.6147 36.68L83.7895 36.6068L83.8719 36.4362L84.8619 34.3862L84.8947 34.3183L84.906 34.2438L86.0986 26.3914L89.1194 26.0412L92.0194 26.2869L92.1561 26.2985L92.2796 26.2387L94.1996 25.3087L94.3311 25.245L94.4076 25.1205L96.0493 22.4494L99.2156 22.1058L99.5025 22.0747L99.619 21.8107L100.387 20.0719L101.489 20.8857L102.291 24.9555L102.313 25.0673L102.381 25.1585L104.009 27.3316L104.479 30.1023L104.499 30.2234L104.573 30.3212L106.563 32.9412L106.612 33.0045L106.677 33.0498L109.231 34.819L109.682 36.3591L109.723 36.499L109.832 36.595L110.93 37.5553L110.842 39.253L110.828 39.5271L111.052 39.6861L111.426 39.9527L111.789 41.2806L111.836 41.4503L111.978 41.5536L113.206 42.4434L113.365 43.138L112.725 44.4485L110.788 44.7757L110.633 44.802L110.52 44.913L108.87 46.543L108.72 46.6911L108.722 46.9019L108.732 48.5019L108.733 48.6606L108.825 48.7897L110.589 51.256L110.574 52.3161L103.766 60.5706L103.735 60.6076L103.712 60.6497L102.912 62.1197L102.857 62.2225L102.852 62.3394L102.754 64.8669L102.125 66.9952L101.636 67.5257L99.8018 66.4658L99.6494 66.3777L99.4754 66.4046L97.5954 66.6946L97.2548 66.7472L97.1827 67.0842L96.9408 68.2159L94.9482 69.7647L92.8638 70.5078L92.7035 70.5649L92.6113 70.7079L91.7075 72.1108L89.4308 68.3022L89.2734 68.0389L88.9674 68.0599L86.3474 68.2399L86.2526 68.2464L86.1668 68.2872L83.8969 69.3672L83.6689 69.4757L83.6208 69.7236L83.4308 70.7036L83.393 70.8985L83.4992 71.0663L84.5568 72.7362L84.4878 74.8255L82.6234 76.9817L82.5458 77.0715L82.5168 77.1866L82.2154 78.3834L80.875 79.5402L80.6698 79.7173L80.7062 79.9858L81.0386 82.4422L78.8221 85.3881L78.7474 85.4875L78.7279 85.6102L78.4262 87.5075L77.698 87.3934L74.657 85.1861L74.0766 84.3238L73.8691 82.2588L73.8567 82.1349L73.7877 82.0314L72.5477 80.1714L72.41 79.9648L72.1621 79.9497L58.2744 79.102L57.5886 78.3505L57.5549 77.8594L58.0927 75.0632L58.1024 75.0124L58.1016 74.9607L58.0378 70.9869L61.0393 70.1518L62.8269 71.6789L62.9425 71.7777L63.0936 71.7954L63.6666 71.8623L65.6489 74.2205L65.7804 74.3769L65.9839 74.3965L66.7139 74.4665L67.0702 74.5006L67.2174 74.1745L67.8674 72.7345L67.9415 72.5703L67.8939 72.3966L67.1079 69.5276L66.9734 67.1606L69.4891 64.5883L69.5493 64.5268L69.5855 64.4486L70.3855 62.7186L70.4482 62.5829L70.4262 62.435L69.4362 55.795L69.4328 55.7726L69.4275 55.7506L68.8075 53.2006L68.7741 53.0631L68.6736 52.9635L67.745 52.0436L67.7599 51.1296L70.4579 45.1133L70.5015 45.0161L70.5016 44.9096L70.5117 39.0896L70.5119 38.9576L70.4469 38.8427L69.8467 37.7808L69.4784 34.5914L69.4732 34.547L69.4603 34.5042L68.1933 30.3095L73.9092 30.7969L73.9803 30.803L74.0502 30.7889L75.1142 30.575Z" fill="#DAE0E6" stroke="#96C3F1"/>
<path d="M67.023 29.8933L68.4901 34.7505L68.865 37.9961L68.8766 38.0967L68.9264 38.1848L69.5114 39.2199L69.5018 44.8014L66.8054 50.8141L66.7634 50.9079L66.7617 51.0106L66.7417 52.2406L66.7382 52.4539L66.8897 52.604L67.8692 53.5743L68.4505 55.9649L69.4151 62.4346L68.714 63.9507L66.1042 66.6191L65.9499 66.7769L65.9624 66.9971L66.1125 69.6371L66.1155 69.6899L66.1294 69.7409L66.8818 72.4872L66.4532 73.4369L66.2828 73.4205L64.3044 71.067L64.1767 70.9151L63.9797 70.8921L63.3608 70.8198L61.4864 69.2186L61.284 69.0457L61.0276 69.1171L57.9036 69.9863L57.6894 69.0385L57.6447 68.841L57.4752 68.7302L55.4252 67.3902L55.3229 67.3233L55.2012 67.3112L52.4912 67.0412L52.4207 67.0342L52.351 67.047L47.8195 67.882L47.4061 67.3514L47.2927 67.2059L47.112 67.1689L46.7128 67.0872L46.7203 66.9857L46.742 66.6932L46.4973 66.5316L45.3773 65.7916L45.2706 65.7211L45.1432 65.7105L44.0632 65.6205L43.907 65.6075L43.7713 65.6859L42.3633 66.5002L40.3076 65.2961L39.6917 64.5019L39.5281 63.1296L39.5179 63.0439L39.4796 62.9666L37.671 59.3205L37.9952 57.3291L38.0556 56.9579L37.7157 56.7969L36.605 56.2707L36.0691 53.9273L35.9979 53.6162L35.6859 53.5497L35.0758 53.4197L34.8837 53.3788L34.7151 53.4796L33.1644 54.4067L32.9269 54.1627L33.3394 52.8262L33.3842 52.681L33.3407 52.5354L33.0671 51.6214L33.4384 51.4901L33.6742 51.4067L33.7489 51.1679L34.0489 50.2079L34.1227 49.9717L33.9797 49.7698L32.708 47.9739L31.3909 44.396L31.3634 44.3214L31.3142 44.259L29.8942 42.4591L29.7967 42.3354L29.6459 42.29L25.9579 41.1788L25.7919 40.9489L26.1624 38.9241L26.7122 38.188L26.8543 37.9978L26.7967 37.7675L26.6143 37.0376L28.2717 34.8158L29.8913 33.7233L29.9689 33.6709L30.0224 33.5939L30.7724 32.5139L30.8095 32.4604L30.8318 32.3991L32.0818 28.9491L32.1513 28.7572L32.0666 28.5714L31.7066 27.7814L31.6291 27.6113L31.459 27.5338L27.729 25.8338L27.6395 25.7929L27.5411 25.7891L25.6147 25.7139L23.2818 24.3658L23.1578 24.2942L23.0147 24.299L19.689 24.4119L19.6115 21.2963L19.6062 21.0826L19.448 20.9388L19.2987 20.803L21.6512 16.4858L21.8408 16.5379L21.9932 18.4681L22.0272 18.8985L22.4579 18.9276L22.9512 18.9609L24.1447 20.7646L24.2193 20.8775L24.3406 20.9372L25.0306 21.2772L25.1989 21.3602L25.3802 21.3119L26.6202 20.9819L26.7607 20.9446L26.8592 20.8377L31.7862 15.4944L37.7128 11.6688L37.777 11.6274L37.8258 11.5687L43.9208 4.2508L46.2364 3.38721L46.336 3.35006L46.4118 3.27561L48.4511 1.27446L51.4929 0.576065L53.6379 1.23538L54.5228 2.52685L54.446 2.83962L54.4066 3.00026L54.4708 3.15271L57.2108 9.66272L57.2415 9.73553L57.2931 9.79535L60.1831 13.1453L60.2162 13.1837L60.2564 13.2147L63.8364 15.9747L63.8715 16.0018L63.9108 16.0222L66.8308 17.5423L67.0221 17.6419L67.2258 17.571L69.3258 16.841L69.4284 16.8054L69.5069 16.7304L71.5453 14.7842L73.9868 15.0883L75.3321 16.1061L76.6451 18.0849L77.5077 23.4717L75.3653 29.5044L73.923 29.7945L67.5441 29.2506L66.81 29.188L67.023 29.8933Z" fill="#DAE0E6" stroke="#96C3F1"/>
<path d="M41.6699 75.5614L41.7429 75.6229L41.8335 75.6531L47.0198 77.3818L47.9232 78.6414L48.3454 79.8541L48.7091 87.9597L47.7263 88.5749L47.3047 88.8388L47.5665 89.2618L48.9819 91.5491L48.7262 93.4211L48.7181 93.4808L48.7243 93.5407L49.0761 96.9117L48.6933 98.7011L47.9061 99.4972L47.8331 99.571L47.7955 99.6678L46.6574 102.6L44.9225 104.201L44.8617 104.257L44.8222 104.33L42.7222 108.2L42.6977 108.245L42.6829 108.294L39.6648 118.306L37.4731 119.116L33.1029 118.024L33.0386 118.008L32.9723 118.009L30.8423 118.049L30.7842 118.05L30.7279 118.064L26.6971 119.094L22.1268 118.012L22.0649 117.998L22.0012 117.999L15.3339 118.138L13.3615 117.76L11.3861 116.251L9.71781 112.953L9.6617 112.842L9.56017 112.77L7.88521 111.587L7.68987 110.558L8.72669 107.932L8.7511 107.871L8.75852 107.805L9.27852 103.175L9.28916 103.08L9.26423 102.988L8.81423 101.328L8.74632 101.077L8.50235 100.989L6.38235 100.219L6.25237 100.172L6.11659 100.198L2.77537 100.845L1.8262 100.568L4.42576 88.1943L6.26619 87.4634L6.39188 87.4135L6.47527 87.3071L9.40509 83.5667L10.7171 82.9187L15.0158 84.7488L15.134 84.7991L15.2618 84.7862L17.9418 84.5162L18.2121 84.489L18.3363 84.2473L20.7063 79.6374L20.7314 79.5886L20.7453 79.5355L21.6228 76.1859L23.1482 75.2946L29.2698 74.1693L34.5485 75.3958L34.67 75.424L34.7906 75.3918L39.8591 74.039L41.6699 75.5614Z" fill="#DAE0E6" stroke="#96C3F1"/>
</svg>
