<svg width="745" height="600" viewBox="0 0 745 600" fill="none" xmlns="http://www.w3.org/2000/svg">
<g id="nigeria 1">
<g clip-path="url(#clip0_1_2)">
<g id="SE">
<path id="NG-AB" d="M291.012 491.659L291.612 492.429L296.442 491.539L299.152 491.809L301.202 493.149L301.532 494.609L301.602 498.969L301.052 501.829L301.102 502.559L302.042 503.589L316.132 504.449L317.372 506.309L317.592 508.499L318.292 509.539L321.502 511.869L322.842 512.079L323.922 513.369L323.332 517.089L323.482 520.869L324.852 525.499L325.582 527.179L327.292 529.179L328.052 531.729L327.452 532.939L324.032 532.179L321.342 529.569L318.802 528.729L316.042 526.589L315.462 524.479L314.272 523.009L310.872 522.099L308.452 522.239L308.172 523.149L308.702 526.659L306.862 531.759L307.182 532.209L309.412 532.049L308.712 534.489L307.982 535.389L301.902 535.229L300.802 536.209L300.732 536.959L301.802 538.899L300.592 544.709L300.562 547.109L301.222 549.599L300.052 552.489L297.532 554.429L297.622 555.199L297.152 555.839L297.372 557.309L297.962 557.979L297.982 559.149L297.312 560.769L299.102 564.139L299.232 565.989L296.872 564.199L293.932 562.789L292.132 563.219L288.852 561.999L286.062 562.119L284.952 562.759L281.822 563.339L280.022 563.069L278.572 561.659L277.982 560.559L278.142 559.459L279.512 555.759L282.932 551.429L285.322 547.239L285.272 544.459L284.612 542.739L284.072 542.689L287.162 532.439L289.262 528.569L291.082 526.889L292.262 523.849L293.152 522.949L293.582 520.939L293.222 517.489L293.502 515.439L291.992 512.999L293.222 512.229L292.842 503.759L292.372 502.409L291.332 500.959L285.992 499.179L283.982 497.489L285.252 495.269L286.612 493.969L291.012 491.659Z" fill="#DAE0E6"/>
<path id="NG-AN" d="M262.672 444.909L263.112 445.309L263.202 448.929L267.032 448.799L269.472 450.209L271.522 450.289L275.252 451.989L275.612 452.779L274.362 456.229L273.612 457.309L271.922 458.449L270.072 460.929L270.312 461.889L269.692 462.719L269.262 465.069L269.652 465.609L273.502 466.769L274.922 468.569L276.262 472.209L277.572 474.059L277.272 475.019L276.452 475.309L276.862 476.679L276.362 478.299L277.082 479.039L278.972 477.909L279.582 478.039L280.172 480.619L281.502 481.249L281.152 483.399L283.032 487.189L283.212 488.699L283.972 489.679L286.362 491.079L288.022 490.119L289.102 490.209L290.222 490.949L290.182 491.489L291.012 491.659L286.612 493.969L285.252 495.269L283.982 497.489L278.662 498.909L273.282 497.659L266.972 498.819L265.192 499.859L264.262 503.409L261.892 508.019L259.212 508.289L254.702 506.369L253.082 507.169L250.082 510.999L247.992 511.829L245.592 511.619L244.482 510.339L245.492 509.169L247.412 505.269L247.752 502.629L249.522 497.939L252.022 493.389L252.402 487.379L253.682 483.729L252.452 479.959L250.972 472.669L251.052 471.299L249.922 470.169L247.792 460.599L247.722 460.309L249.392 459.539L252.982 460.199L254.412 459.309L256.252 456.799L256.312 454.069L257.552 449.949L259.792 447.639L261.332 446.779L262.672 444.909Z" fill="#DAE0E6"/>
<path id="NG-EB" d="M319.742 453.939L319.572 454.849L320.222 456.389L324.232 460.069L326.012 460.809L327.422 460.219L328.412 458.169L329.662 449.939L333.112 449.539L336.062 449.789L337.982 448.859L339.752 445.979L343.162 445.609L344.182 443.299L345.942 444.599L346.782 448.859L348.482 451.129L348.972 454.019L350.962 456.639L353.662 458.509L354.162 460.219L355.442 461.339L355.342 463.279L355.862 463.649L356.272 465.149L357.652 466.149L357.892 467.199L357.062 468.899L354.872 469.269L353.222 470.899L353.232 472.499L355.092 475.099L355.072 476.499L348.152 484.889L347.352 486.359L347.252 488.949L346.572 491.249L345.732 492.159L343.552 490.899L341.672 491.189L341.392 492.499L339.192 494.209L337.032 494.979L335.692 497.059L333.002 492.559L330.382 492.739L328.112 493.819L327.922 494.799L329.062 496.599L328.982 499.019L327.002 501.309L326.662 502.659L325.202 503.919L325.562 506.579L323.222 509.689L322.842 512.079L321.502 511.869L318.292 509.539L317.592 508.499L317.372 506.309L316.132 504.449L302.042 503.589L301.102 502.559L301.052 501.829L301.602 498.969L301.532 494.609L305.162 493.599L307.152 495.299L307.922 495.389L310.032 497.899L310.762 497.969L311.412 496.529L310.612 493.609L310.462 490.969L313.132 488.239L313.932 486.509L312.942 479.869L312.322 477.319L311.242 476.249L311.262 475.019L314.002 468.909L314.012 463.089L313.362 461.939L312.982 458.649L311.502 453.749L317.952 454.299L319.742 453.939Z" fill="#DAE0E6"/>
<path id="NG-EN" d="M262.672 444.909L265.402 439.899L266.312 440.149L266.492 442.429L267.232 442.479L268.562 444.489L269.252 444.829L270.492 444.499L275.462 439.109L281.442 435.249L287.622 427.829L290.062 426.919L292.202 424.819L295.512 424.059L297.952 424.809L299.062 426.429L298.932 426.959L301.672 433.469L304.562 436.819L308.142 439.579L311.062 441.099L313.162 440.369L315.372 438.259L318.182 438.609L319.702 439.759L321.122 441.899L322.022 447.519L319.742 453.939L317.952 454.299L311.502 453.749L312.982 458.649L313.362 461.939L314.012 463.089L314.002 468.909L311.262 475.019L311.242 476.249L312.322 477.319L312.942 479.869L313.932 486.509L313.132 488.239L310.462 490.969L310.612 493.609L311.412 496.529L310.762 497.969L310.032 497.899L307.922 495.389L307.152 495.299L305.162 493.599L301.532 494.609L301.202 493.149L299.152 491.809L296.442 491.539L291.612 492.429L291.012 491.659L290.182 491.489L290.222 490.949L289.102 490.209L288.022 490.119L286.362 491.079L283.972 489.679L283.212 488.699L283.032 487.189L281.152 483.399L281.502 481.249L280.172 480.619L279.582 478.039L278.972 477.909L277.082 479.039L276.362 478.299L276.862 476.679L276.452 475.309L277.272 475.019L277.572 474.059L276.262 472.209L274.922 468.569L273.502 466.769L269.652 465.609L269.262 465.069L269.692 462.719L270.312 461.889L270.072 460.929L271.922 458.449L273.612 457.309L274.362 456.229L275.612 452.779L275.252 451.989L271.522 450.289L269.472 450.209L267.032 448.799L263.202 448.929L263.112 445.309L262.672 444.909Z" fill="#DAE0E6"/>
<path id="NG-IM" d="M283.982 497.489L285.992 499.179L291.332 500.959L292.372 502.409L292.842 503.759L293.222 512.229L291.992 512.999L293.502 515.439L293.222 517.489L293.582 520.939L293.152 522.949L292.262 523.849L291.082 526.889L289.262 528.569L287.162 532.439L284.072 542.689L281.502 543.639L276.982 542.509L274.852 542.549L270.702 543.609L266.012 542.499L259.292 542.639L257.152 542.229L254.992 540.579L253.272 537.179L251.432 535.879L251.172 534.509L252.262 531.749L252.782 527.119L252.332 525.459L250.212 524.689L246.752 525.359L245.242 524.919L247.992 511.829L250.082 510.999L253.082 507.169L254.702 506.369L259.212 508.289L261.892 508.019L264.262 503.409L265.192 499.859L266.972 498.819L273.282 497.659L278.662 498.909L283.982 497.489Z" fill="#DAE0E6"/>
</g>
</g>
</g>
</svg>
