<svg width="279" height="205" viewBox="0 0 279 205" fill="none" xmlns="http://www.w3.org/2000/svg">
<mask id="path-1-inside-1_1_47" fill="white">
<path d="M159.912 190.319V190.329L159.892 190.309L159.912 190.319ZM167.482 189.619L168.452 190.119L169.372 189.929L170.252 189.789L170.582 190.069L167.002 190.819L166.512 190.229L167.482 189.619ZM207.792 182.059L208.672 184.149L207.912 184.969L206.842 185.189L206.622 183.949L207.182 183.849L207.532 182.949L207.792 182.059ZM156.232 170.989L156.112 169.139L154.322 165.779L154.992 164.149L154.972 162.979L154.382 162.309L154.162 160.839L154.632 160.189L154.542 159.419L157.062 157.479L158.242 154.589L157.582 152.099L157.602 149.689L158.812 143.879L157.742 141.939L157.812 141.189L158.912 140.209L165.002 140.369L165.732 139.469L166.432 137.029L164.202 137.189L163.882 136.739L165.722 131.639L165.192 128.129L165.482 127.219L167.902 127.079L171.302 127.989L172.492 129.459L173.072 131.569L175.822 133.709L178.362 134.549L181.052 137.159L180.202 137.259L179.052 139.709L179.712 141.499L180.552 141.809L181.332 143.749L186.102 143.189L191.062 145.869L191.462 147.969L190.852 154.069L192.482 159.199L195.892 164.109L199.082 166.909L202.852 171.239L206.522 174.049L207.112 175.059L206.682 177.219L207.472 177.659L207.502 180.159L207.002 180.609L206.592 179.939L206.522 180.519L207.712 181.689L207.112 183.489L206.372 183.679L206.472 184.709L205.442 185.859L205.682 186.029L204.632 188.409L199.402 187.779L193.662 187.709L182.952 188.259L170.902 189.939L170.382 189.479L168.562 189.839L167.632 189.359L166.752 189.719L165.802 189.629L165.782 189.659L166.282 190.469L166.552 190.899L163.232 192.219L162.252 190.519L161.082 189.869L160.222 189.679L159.262 188.619L159.642 187.709L159.552 187.589L159.022 188.089L158.522 187.709L157.912 186.539L157.952 185.899L158.462 185.579L157.882 181.029L158.842 176.759L158.212 174.459L156.232 170.989Z"/>
</mask>
<path d="M159.912 190.319V190.329L159.892 190.309L159.912 190.319ZM167.482 189.619L168.452 190.119L169.372 189.929L170.252 189.789L170.582 190.069L167.002 190.819L166.512 190.229L167.482 189.619ZM207.792 182.059L208.672 184.149L207.912 184.969L206.842 185.189L206.622 183.949L207.182 183.849L207.532 182.949L207.792 182.059ZM156.232 170.989L156.112 169.139L154.322 165.779L154.992 164.149L154.972 162.979L154.382 162.309L154.162 160.839L154.632 160.189L154.542 159.419L157.062 157.479L158.242 154.589L157.582 152.099L157.602 149.689L158.812 143.879L157.742 141.939L157.812 141.189L158.912 140.209L165.002 140.369L165.732 139.469L166.432 137.029L164.202 137.189L163.882 136.739L165.722 131.639L165.192 128.129L165.482 127.219L167.902 127.079L171.302 127.989L172.492 129.459L173.072 131.569L175.822 133.709L178.362 134.549L181.052 137.159L180.202 137.259L179.052 139.709L179.712 141.499L180.552 141.809L181.332 143.749L186.102 143.189L191.062 145.869L191.462 147.969L190.852 154.069L192.482 159.199L195.892 164.109L199.082 166.909L202.852 171.239L206.522 174.049L207.112 175.059L206.682 177.219L207.472 177.659L207.502 180.159L207.002 180.609L206.592 179.939L206.522 180.519L207.712 181.689L207.112 183.489L206.372 183.679L206.472 184.709L205.442 185.859L205.682 186.029L204.632 188.409L199.402 187.779L193.662 187.709L182.952 188.259L170.902 189.939L170.382 189.479L168.562 189.839L167.632 189.359L166.752 189.719L165.802 189.629L165.782 189.659L166.282 190.469L166.552 190.899L163.232 192.219L162.252 190.519L161.082 189.869L160.222 189.679L159.262 188.619L159.642 187.709L159.552 187.589L159.022 188.089L158.522 187.709L157.912 186.539L157.952 185.899L158.462 185.579L157.882 181.029L158.842 176.759L158.212 174.459L156.232 170.989Z" fill="#B1CCFB" stroke="#548BEB" stroke-width="2" mask="url(#path-1-inside-1_1_47)"/>
<mask id="path-2-inside-2_1_47" fill="white">
<path d="M108.222 184.309L108.012 183.689L107.332 183.789L103.372 181.189L102.172 176.809L100.792 174.939L98.8016 174.919L92.2616 177.459L91.2216 177.199L90.8716 175.259L91.2916 173.799L87.9816 172.359L87.4816 171.529L87.5516 167.189L89.4516 164.519L90.2116 162.469L90.2416 161.199L88.9516 161.359L88.1116 160.579L89.4416 156.139L93.9316 148.299L96.7016 148.469L97.2516 147.969L98.0016 145.479L99.5416 144.689L99.3116 142.879L100.892 141.809L101.842 140.329L101.812 138.389L101.182 136.849L100.422 136.269L98.5016 135.439L95.5616 135.929L94.5216 135.649L95.2916 138.119L94.0916 138.969L89.0116 141.159L85.5216 140.719L82.7816 141.209L80.7716 145.309L78.6616 145.829L77.8716 145.229L76.4016 145.149L76.0416 146.099L76.3016 148.409L73.4716 149.969L71.8516 150.529L68.8416 150.289L67.6116 152.279L65.3016 152.899L63.4116 152.229L62.4216 150.569L60.3116 149.289L59.5616 149.789L58.0816 152.859L54.7816 154.499L52.1616 154.079L44.6816 158.179L43.7416 157.809L41.4216 158.209L40.4216 157.109L37.7316 155.509L34.6816 154.799L31.7816 153.139L29.6816 151.039L29.1216 151.759L28.4016 151.189L26.9716 151.719L26.6116 151.219L24.9816 152.059L27.3416 156.669L29.2516 162.479L28.9116 163.269L29.8616 164.789L30.2116 166.649L34.2716 173.419L34.4616 174.859L35.4016 175.409L35.4116 175.579L35.4616 176.679L42.9616 187.059L44.1516 187.679L44.1316 188.429L46.9016 189.779L46.6316 190.189L47.6816 190.939L47.8016 191.589L50.3616 193.179L50.5516 192.789L50.8616 193.129L50.6416 193.369L50.6616 193.709L53.2716 195.869L53.7516 195.849L53.6116 195.079L53.1616 194.869L54.7416 194.409L53.9816 195.109L54.3116 195.829L54.0516 196.099L54.1216 196.609L56.4416 198.309L61.5116 200.669L61.7016 198.669L60.9116 198.159L60.3616 196.909L60.7016 197.029L60.9916 197.919L61.7816 198.139L61.6616 197.439L62.0716 197.469L62.0516 198.169L62.5716 198.339L62.8316 199.109L62.2116 200.289L62.4716 200.719L62.1316 202.019L62.5316 202.309L67.7116 203.629L67.9016 201.399L68.5516 200.819L68.9316 204.659L77.2716 203.959L76.6316 201.559L77.6616 198.509L78.3116 197.409L78.0216 196.039L76.1116 194.889L76.5916 194.839L77.7816 195.109L78.7416 196.689L79.3416 195.559L78.7916 194.769L78.8816 192.629L78.0416 191.279L78.3516 190.539L78.5216 191.569L79.2116 192.119L79.2416 192.499L79.9816 194.519L79.8816 197.619L82.6016 195.149L82.0216 194.519L82.1216 192.579L84.0316 191.979L84.5316 191.349L85.2216 192.959L85.3416 194.249L84.8616 195.279L85.4616 196.599L85.5116 198.209L86.8516 198.469L87.9316 199.979L88.4116 199.929L88.2216 200.259L88.4416 200.689L90.6116 200.209L90.8016 200.549L90.1816 201.199L91.7116 201.989L100.172 201.079L100.192 200.599L99.7916 200.089L99.7216 199.319L99.6216 198.979L100.292 198.119L100.892 197.539L100.372 199.579L100.592 199.969L102.622 201.729L103.582 200.749L107.112 200.369L106.612 197.899L106.522 197.519L106.142 196.389L104.992 195.639L104.802 194.649L104.822 194.459L105.112 193.399L104.582 191.149L104.172 190.599L104.522 190.239L105.282 191.139L106.532 195.339L106.912 194.759L106.262 189.529L107.962 186.139L108.222 184.309ZM89.4316 202.379L81.2116 203.369L78.4116 203.269L78.1916 202.569L79.5516 200.049L79.7016 200.029L80.1516 200.069L80.2916 198.769L82.2716 196.579L82.3916 196.269L82.8216 195.379L83.2716 195.189L82.6816 194.419L82.5016 193.119L83.0516 192.769L84.0816 192.579L84.9816 193.919L84.4816 195.249L85.2616 196.869L85.0416 198.439L86.6716 198.879L87.3216 199.799L89.4316 202.379Z"/>
</mask>
<path d="M108.222 184.309L108.012 183.689L107.332 183.789L103.372 181.189L102.172 176.809L100.792 174.939L98.8016 174.919L92.2616 177.459L91.2216 177.199L90.8716 175.259L91.2916 173.799L87.9816 172.359L87.4816 171.529L87.5516 167.189L89.4516 164.519L90.2116 162.469L90.2416 161.199L88.9516 161.359L88.1116 160.579L89.4416 156.139L93.9316 148.299L96.7016 148.469L97.2516 147.969L98.0016 145.479L99.5416 144.689L99.3116 142.879L100.892 141.809L101.842 140.329L101.812 138.389L101.182 136.849L100.422 136.269L98.5016 135.439L95.5616 135.929L94.5216 135.649L95.2916 138.119L94.0916 138.969L89.0116 141.159L85.5216 140.719L82.7816 141.209L80.7716 145.309L78.6616 145.829L77.8716 145.229L76.4016 145.149L76.0416 146.099L76.3016 148.409L73.4716 149.969L71.8516 150.529L68.8416 150.289L67.6116 152.279L65.3016 152.899L63.4116 152.229L62.4216 150.569L60.3116 149.289L59.5616 149.789L58.0816 152.859L54.7816 154.499L52.1616 154.079L44.6816 158.179L43.7416 157.809L41.4216 158.209L40.4216 157.109L37.7316 155.509L34.6816 154.799L31.7816 153.139L29.6816 151.039L29.1216 151.759L28.4016 151.189L26.9716 151.719L26.6116 151.219L24.9816 152.059L27.3416 156.669L29.2516 162.479L28.9116 163.269L29.8616 164.789L30.2116 166.649L34.2716 173.419L34.4616 174.859L35.4016 175.409L35.4116 175.579L35.4616 176.679L42.9616 187.059L44.1516 187.679L44.1316 188.429L46.9016 189.779L46.6316 190.189L47.6816 190.939L47.8016 191.589L50.3616 193.179L50.5516 192.789L50.8616 193.129L50.6416 193.369L50.6616 193.709L53.2716 195.869L53.7516 195.849L53.6116 195.079L53.1616 194.869L54.7416 194.409L53.9816 195.109L54.3116 195.829L54.0516 196.099L54.1216 196.609L56.4416 198.309L61.5116 200.669L61.7016 198.669L60.9116 198.159L60.3616 196.909L60.7016 197.029L60.9916 197.919L61.7816 198.139L61.6616 197.439L62.0716 197.469L62.0516 198.169L62.5716 198.339L62.8316 199.109L62.2116 200.289L62.4716 200.719L62.1316 202.019L62.5316 202.309L67.7116 203.629L67.9016 201.399L68.5516 200.819L68.9316 204.659L77.2716 203.959L76.6316 201.559L77.6616 198.509L78.3116 197.409L78.0216 196.039L76.1116 194.889L76.5916 194.839L77.7816 195.109L78.7416 196.689L79.3416 195.559L78.7916 194.769L78.8816 192.629L78.0416 191.279L78.3516 190.539L78.5216 191.569L79.2116 192.119L79.2416 192.499L79.9816 194.519L79.8816 197.619L82.6016 195.149L82.0216 194.519L82.1216 192.579L84.0316 191.979L84.5316 191.349L85.2216 192.959L85.3416 194.249L84.8616 195.279L85.4616 196.599L85.5116 198.209L86.8516 198.469L87.9316 199.979L88.4116 199.929L88.2216 200.259L88.4416 200.689L90.6116 200.209L90.8016 200.549L90.1816 201.199L91.7116 201.989L100.172 201.079L100.192 200.599L99.7916 200.089L99.7216 199.319L99.6216 198.979L100.292 198.119L100.892 197.539L100.372 199.579L100.592 199.969L102.622 201.729L103.582 200.749L107.112 200.369L106.612 197.899L106.522 197.519L106.142 196.389L104.992 195.639L104.802 194.649L104.822 194.459L105.112 193.399L104.582 191.149L104.172 190.599L104.522 190.239L105.282 191.139L106.532 195.339L106.912 194.759L106.262 189.529L107.962 186.139L108.222 184.309ZM89.4316 202.379L81.2116 203.369L78.4116 203.269L78.1916 202.569L79.5516 200.049L79.7016 200.029L80.1516 200.069L80.2916 198.769L82.2716 196.579L82.3916 196.269L82.8216 195.379L83.2716 195.189L82.6816 194.419L82.5016 193.119L83.0516 192.769L84.0816 192.579L84.9816 193.919L84.4816 195.249L85.2616 196.869L85.0416 198.439L86.6716 198.879L87.3216 199.799L89.4316 202.379Z" fill="#B1CCFB"/>
<path d="M29.5681 165.252L29.5781 165.262L30.2852 164.555L30.2752 164.545L29.5681 165.252ZM108.222 184.309L109.212 184.449L109.245 184.214L109.169 183.988L108.222 184.309ZM108.012 183.689L108.959 183.368L108.691 182.578L107.866 182.699L108.012 183.689ZM107.332 183.789L106.783 184.625L107.101 184.833L107.477 184.778L107.332 183.789ZM103.372 181.189L102.407 181.453L102.507 181.817L102.823 182.025L103.372 181.189ZM102.172 176.809L103.136 176.544L103.087 176.365L102.976 176.215L102.172 176.809ZM100.792 174.939L101.596 174.345L101.3 173.944L100.802 173.939L100.792 174.939ZM98.8016 174.919L98.8117 173.919L98.6191 173.917L98.4396 173.987L98.8016 174.919ZM92.2616 177.459L92.0191 178.429L92.3274 178.506L92.6237 178.391L92.2616 177.459ZM91.2216 177.199L90.2375 177.376L90.3522 178.012L90.9791 178.169L91.2216 177.199ZM90.8716 175.259L89.9106 174.982L89.8461 175.207L89.8875 175.436L90.8716 175.259ZM91.2916 173.799L92.2527 174.075L92.4953 173.232L91.6906 172.882L91.2916 173.799ZM87.9816 172.359L87.125 172.875L87.2898 173.148L87.5827 173.276L87.9816 172.359ZM87.4816 171.529L86.4818 171.513L86.4771 171.799L86.625 172.045L87.4816 171.529ZM87.5516 167.189L86.7369 166.609L86.5568 166.862L86.5518 167.173L87.5516 167.189ZM89.4516 164.519L90.2664 165.099L90.3432 164.991L90.3893 164.866L89.4516 164.519ZM90.2116 162.469L91.1493 162.816L91.2074 162.66L91.2114 162.492L90.2116 162.469ZM90.2416 161.199L91.2414 161.222L91.2687 160.064L90.1185 160.206L90.2416 161.199ZM88.9516 161.359L88.2712 162.092L88.6125 162.409L89.0747 162.351L88.9516 161.359ZM88.1116 160.579L87.1537 160.292L86.9751 160.888L87.4312 161.312L88.1116 160.579ZM89.4416 156.139L88.5739 155.642L88.5167 155.742L88.4837 155.852L89.4416 156.139ZM93.9316 148.299L93.9929 147.301L93.3727 147.263L93.0639 147.802L93.9316 148.299ZM96.7016 148.469L96.6404 149.467L97.0618 149.493L97.3743 149.209L96.7016 148.469ZM97.2516 147.969L97.9243 148.709L98.1293 148.522L98.2091 148.257L97.2516 147.969ZM98.0016 145.479L97.5452 144.589L97.1668 144.783L97.0441 145.19L98.0016 145.479ZM99.5416 144.689L99.9981 145.578L100.622 145.258L100.534 144.563L99.5416 144.689ZM99.3116 142.879L98.7509 142.051L98.2422 142.395L98.3196 143.005L99.3116 142.879ZM100.892 141.809L101.452 142.637L101.622 142.522L101.733 142.349L100.892 141.809ZM101.842 140.329L102.683 140.869L102.846 140.615L102.842 140.313L101.842 140.329ZM101.812 138.389L102.812 138.373L102.809 138.185L102.737 138.01L101.812 138.389ZM101.182 136.849L102.107 136.47L102.004 136.219L101.788 136.054L101.182 136.849ZM100.422 136.269L101.028 135.474L100.931 135.399L100.818 135.351L100.422 136.269ZM98.5016 135.439L98.8984 134.521L98.6279 134.404L98.3372 134.452L98.5016 135.439ZM95.5616 135.929L95.3017 136.894L95.5116 136.951L95.726 136.915L95.5616 135.929ZM94.5216 135.649L94.7816 134.683L93.0258 134.21L93.567 135.946L94.5216 135.649ZM95.2916 138.119L95.8697 138.935L96.4626 138.515L96.2463 137.821L95.2916 138.119ZM94.0916 138.969L94.4875 139.887L94.584 139.845L94.6697 139.785L94.0916 138.969ZM89.0116 141.159L88.8865 142.151L89.1571 142.185L89.4075 142.077L89.0116 141.159ZM85.5216 140.719L85.6467 139.727L85.4956 139.708L85.3456 139.734L85.5216 140.719ZM82.7816 141.209L82.6056 140.224L82.1068 140.314L81.8837 140.769L82.7816 141.209ZM80.7716 145.309L81.0109 146.28L81.4641 146.168L81.6695 145.749L80.7716 145.309ZM78.6616 145.829L78.0568 146.625L78.4372 146.914L78.9009 146.8L78.6616 145.829ZM77.8716 145.229L78.4764 144.432L78.2322 144.247L77.926 144.23L77.8716 145.229ZM76.4016 145.149L76.456 144.15L75.7257 144.11L75.4665 144.794L76.4016 145.149ZM76.0416 146.099L75.1065 145.744L75.0209 145.97L75.0479 146.211L76.0416 146.099ZM76.3016 148.409L76.7844 149.285L77.3702 148.962L77.2954 148.297L76.3016 148.409ZM73.4716 149.969L73.7983 150.914L73.8793 150.886L73.9544 150.845L73.4716 149.969ZM71.8516 150.529L71.7722 151.526L71.9807 151.542L72.1783 151.474L71.8516 150.529ZM68.8416 150.289L68.9211 149.292L68.3122 149.243L67.991 149.763L68.8416 150.289ZM67.6116 152.279L67.8709 153.245L68.2538 153.142L68.4623 152.805L67.6116 152.279ZM65.3016 152.899L64.9675 153.841L65.2606 153.945L65.5609 153.865L65.3016 152.899ZM63.4116 152.229L62.5528 152.741L62.7375 153.051L63.0775 153.171L63.4116 152.229ZM62.4216 150.569L63.2805 150.057L63.153 149.843L62.9403 149.714L62.4216 150.569ZM60.3116 149.289L60.8303 148.434L60.2863 148.104L59.7569 148.457L60.3116 149.289ZM59.5616 149.789L59.0069 148.957L58.7795 149.108L58.6608 149.355L59.5616 149.789ZM58.0816 152.859L58.5267 153.754L58.8336 153.602L58.9824 153.293L58.0816 152.859ZM54.7816 154.499L54.6234 155.486L54.9397 155.537L55.2267 155.394L54.7816 154.499ZM52.1616 154.079L52.3199 153.091L51.9815 153.037L51.681 153.202L52.1616 154.079ZM44.6816 158.179L44.3154 159.109L44.7514 159.281L45.1623 159.056L44.6816 158.179ZM43.7416 157.809L44.1079 156.878L43.8475 156.776L43.5717 156.823L43.7416 157.809ZM41.4216 158.209L40.6817 158.881L41.0508 159.287L41.5915 159.194L41.4216 158.209ZM40.4216 157.109L41.1616 156.436L41.0611 156.326L40.9328 156.249L40.4216 157.109ZM37.7316 155.509L38.2428 154.649L38.1095 154.57L37.9583 154.535L37.7316 155.509ZM34.6816 154.799L34.1849 155.667L34.3121 155.739L34.4549 155.773L34.6816 154.799ZM31.7816 153.139L31.0745 153.846L31.169 153.94L31.2848 154.007L31.7816 153.139ZM29.6816 151.039L30.3887 150.332L29.5878 149.531L28.8923 150.425L29.6816 151.039ZM29.1216 151.759L28.5009 152.543L29.2917 153.169L29.911 152.373L29.1216 151.759ZM28.4016 151.189L29.0224 150.405L28.5814 150.056L28.0541 150.251L28.4016 151.189ZM26.9716 151.719L26.1601 152.303L26.6051 152.921L27.3192 152.656L26.9716 151.719ZM26.6116 151.219L27.4232 150.634L26.9196 149.935L26.1536 150.33L26.6116 151.219ZM24.9816 152.059L24.5236 151.17L23.637 151.627L24.0915 152.514L24.9816 152.059ZM27.3416 156.669L28.2916 156.356L28.2673 156.282L28.2318 156.213L27.3416 156.669ZM29.2516 162.479L30.1702 162.874L30.3199 162.526L30.2016 162.166L29.2516 162.479ZM28.9116 163.269L27.9931 162.873L27.786 163.355L28.0636 163.799L28.9116 163.269ZM29.8616 164.789L30.8444 164.604L30.8095 164.419L30.7096 164.259L29.8616 164.789ZM30.2116 166.649L29.2289 166.834L29.262 167.01L29.354 167.163L30.2116 166.649ZM34.2716 173.419L35.263 173.288L35.2359 173.082L35.1292 172.904L34.2716 173.419ZM34.4616 174.859L33.4702 174.99L33.5342 175.475L33.9566 175.722L34.4616 174.859ZM35.4016 175.409L36.3999 175.35L36.3685 174.816L35.9066 174.546L35.4016 175.409ZM35.4116 175.579L36.4107 175.533L36.4099 175.52L35.4116 175.579ZM35.4616 176.679L34.4627 176.724L34.4762 177.022L34.6511 177.264L35.4616 176.679ZM42.9616 187.059L42.1511 187.644L42.2897 187.836L42.4996 187.946L42.9616 187.059ZM44.1516 187.679L45.1513 187.705L45.1679 187.081L44.6137 186.792L44.1516 187.679ZM44.1316 188.429L43.132 188.402L43.1148 189.046L43.6935 189.328L44.1316 188.429ZM46.9016 189.779L47.7368 190.329L48.3627 189.378L47.3398 188.88L46.9016 189.779ZM46.6316 190.189L45.7965 189.639L45.2669 190.443L46.0504 191.002L46.6316 190.189ZM47.6816 190.939L48.665 190.757L48.5917 190.36L48.2629 190.125L47.6816 190.939ZM47.8016 191.589L46.8183 191.77L46.8985 192.205L47.274 192.438L47.8016 191.589ZM50.3616 193.179L49.834 194.028L50.7753 194.613L51.2606 193.617L50.3616 193.179ZM50.5516 192.789L51.2906 192.115L50.2979 191.026L49.6527 192.351L50.5516 192.789ZM50.8616 193.129L51.5988 193.804L52.2166 193.131L51.6006 192.455L50.8616 193.129ZM50.6416 193.369L49.9045 192.693L49.6185 193.005L49.6434 193.427L50.6416 193.369ZM50.6616 193.709L49.6634 193.767L49.6889 194.202L50.0241 194.479L50.6616 193.709ZM53.2716 195.869L52.6341 196.639L52.9297 196.884L53.3132 196.868L53.2716 195.869ZM53.7516 195.849L53.7932 196.848L54.941 196.8L54.7355 195.67L53.7516 195.849ZM53.6116 195.079L54.5955 194.9L54.503 194.391L54.0346 194.173L53.6116 195.079ZM53.1616 194.869L52.8821 193.909L50.3311 194.651L52.7387 195.775L53.1616 194.869ZM54.7416 194.409L55.4191 195.144L54.4621 193.449L54.7416 194.409ZM53.9816 195.109L53.3042 194.373L52.77 194.865L53.0726 195.525L53.9816 195.109ZM54.3116 195.829L55.032 196.522L55.5046 196.031L55.2207 195.412L54.3116 195.829ZM54.0516 196.099L53.3313 195.405L52.995 195.754L53.0609 196.235L54.0516 196.099ZM54.1216 196.609L53.1309 196.745L53.1886 197.165L53.5306 197.415L54.1216 196.609ZM56.4416 198.309L55.8506 199.115L55.9302 199.174L56.0196 199.215L56.4416 198.309ZM61.5116 200.669L61.0896 201.575L62.3732 202.173L62.5071 200.763L61.5116 200.669ZM61.7016 198.669L62.6971 198.763L62.7546 198.158L62.244 197.829L61.7016 198.669ZM60.9116 198.159L59.9963 198.561L60.1172 198.836L60.3693 198.999L60.9116 198.159ZM60.3616 196.909L60.6944 195.966L58.5159 195.197L59.4463 197.311L60.3616 196.909ZM60.7016 197.029L61.6524 196.719L61.4996 196.25L61.0344 196.086L60.7016 197.029ZM60.9916 197.919L60.0408 198.229L60.2069 198.738L60.7234 198.882L60.9916 197.919ZM61.7816 198.139L61.5134 199.102L63.0339 199.525L62.7673 197.97L61.7816 198.139ZM61.6616 197.439L61.7347 196.441L60.4601 196.348L60.676 197.608L61.6616 197.439ZM62.0716 197.469L63.0712 197.497L63.0986 196.541L62.1447 196.471L62.0716 197.469ZM62.0516 198.169L61.052 198.14L61.0307 198.887L61.7409 199.119L62.0516 198.169ZM62.5716 198.339L63.5191 198.019L63.3588 197.544L62.8823 197.388L62.5716 198.339ZM62.8316 199.109L63.7169 199.574L63.9161 199.195L63.7791 198.789L62.8316 199.109ZM62.2116 200.289L61.3264 199.824L61.0639 200.323L61.3559 200.806L62.2116 200.289ZM62.4716 200.719L63.4391 200.972L63.546 200.563L63.3274 200.201L62.4716 200.719ZM62.1316 202.019L61.1642 201.766L60.9912 202.427L61.5447 202.828L62.1316 202.019ZM62.5316 202.309L61.9447 203.118L62.0995 203.231L62.2847 203.278L62.5316 202.309ZM67.7116 203.629L67.4647 204.598L68.6079 204.889L68.708 203.714L67.7116 203.629ZM67.9016 201.399L67.2358 200.653L66.939 200.917L66.9053 201.314L67.9016 201.399ZM68.5516 200.819L69.5468 200.72L69.3531 198.763L67.8858 200.073L68.5516 200.819ZM68.9316 204.659L67.9365 204.757L68.0335 205.738L69.0153 205.655L68.9316 204.659ZM77.2716 203.959L77.3553 204.955L78.5457 204.855L78.2379 203.701L77.2716 203.959ZM76.6316 201.559L75.6842 201.239L75.5876 201.525L75.6654 201.816L76.6316 201.559ZM77.6616 198.509L76.8007 198L76.7476 198.09L76.7142 198.189L77.6616 198.509ZM78.3116 197.409L79.1726 197.917L79.3705 197.582L79.29 197.202L78.3116 197.409ZM78.0216 196.039L79 195.832L78.9099 195.406L78.5375 195.182L78.0216 196.039ZM76.1116 194.889L76.0081 193.894L73.0353 194.204L75.5958 195.745L76.1116 194.889ZM76.5916 194.839L76.8129 193.864L76.6521 193.827L76.488 193.844L76.5916 194.839ZM77.7816 195.109L78.6362 194.589L78.4162 194.227L78.0029 194.134L77.7816 195.109ZM78.7416 196.689L77.887 197.208L78.8002 198.711L79.6249 197.158L78.7416 196.689ZM79.3416 195.559L80.2248 196.028L80.5112 195.488L80.1623 194.987L79.3416 195.559ZM78.7916 194.769L77.7925 194.727L77.7784 195.063L77.9709 195.34L78.7916 194.769ZM78.8816 192.629L79.8808 192.671L79.8937 192.362L79.7307 192.1L78.8816 192.629ZM78.0416 191.279L77.1193 190.892L76.9198 191.369L77.1926 191.807L78.0416 191.279ZM78.3516 190.539L79.3383 190.376L78.7723 186.947L77.4293 190.152L78.3516 190.539ZM78.5216 191.569L77.535 191.732L77.5976 192.111L77.8983 192.351L78.5216 191.569ZM79.2116 192.119L80.2085 192.04L80.1744 191.607L79.8349 191.337L79.2116 192.119ZM79.2416 192.499L78.2447 192.577L78.2555 192.714L78.3027 192.843L79.2416 192.499ZM79.9816 194.519L80.9811 194.551L80.9874 194.357L80.9206 194.175L79.9816 194.519ZM79.8816 197.619L78.8822 197.586L78.806 199.946L80.5539 198.359L79.8816 197.619ZM82.6016 195.149L83.2739 195.889L84.0193 195.212L83.3373 194.471L82.6016 195.149ZM82.0216 194.519L81.023 194.467L81.0013 194.887L81.2859 195.196L82.0216 194.519ZM82.1216 192.579L81.8219 191.625L81.1587 191.833L81.123 192.527L82.1216 192.579ZM84.0316 191.979L84.3313 192.933L84.6241 192.841L84.8149 192.6L84.0316 191.979ZM84.5316 191.349L85.4508 190.955L84.7904 189.414L83.7483 190.727L84.5316 191.349ZM85.2216 192.959L86.2173 192.866L86.2028 192.709L86.1408 192.565L85.2216 192.959ZM85.3416 194.249L86.248 194.671L86.3624 194.426L86.3373 194.156L85.3416 194.249ZM84.8616 195.279L83.9552 194.856L83.7608 195.274L83.9513 195.693L84.8616 195.279ZM85.4616 196.599L86.4612 196.568L86.4549 196.367L86.372 196.185L85.4616 196.599ZM85.5116 198.209L84.5121 198.24L84.5369 199.038L85.3211 199.19L85.5116 198.209ZM86.8516 198.469L87.665 197.887L87.4332 197.563L87.0421 197.487L86.8516 198.469ZM87.9316 199.979L87.1183 200.561L87.4567 201.034L88.0353 200.973L87.9316 199.979ZM88.4116 199.929L89.2783 200.428L90.255 198.731L88.3079 198.934L88.4116 199.929ZM88.2216 200.259L87.355 199.76L87.0839 200.231L87.3314 200.714L88.2216 200.259ZM88.4416 200.689L87.5514 201.144L87.9033 201.832L88.6576 201.665L88.4416 200.689ZM90.6116 200.209L91.4846 199.721L91.1218 199.072L90.3957 199.232L90.6116 200.209ZM90.8016 200.549L91.5252 201.239L92.0345 200.705L91.6746 200.061L90.8016 200.549ZM90.1816 201.199L89.458 200.509L88.5364 201.475L89.7228 202.087L90.1816 201.199ZM91.7116 201.989L91.2528 202.877L91.5198 203.015L91.8186 202.983L91.7116 201.989ZM100.172 201.079L100.279 202.073L101.135 201.981L101.171 201.12L100.172 201.079ZM100.192 200.599L101.191 200.64L101.206 200.272L100.978 199.982L100.192 200.599ZM99.7916 200.089L98.7957 200.179L98.8225 200.473L99.0048 200.706L99.7916 200.089ZM99.7216 199.319L100.718 199.228L100.709 199.131L100.681 199.037L99.7216 199.319ZM99.6216 198.979L98.8328 198.364L98.5175 198.769L98.6623 199.261L99.6216 198.979ZM100.292 198.119L99.5966 197.4L99.546 197.449L99.5028 197.504L100.292 198.119ZM100.892 197.539L101.861 197.786L102.731 194.37L100.197 196.82L100.892 197.539ZM100.372 199.579L99.4026 199.332L99.3035 199.721L99.5006 200.07L100.372 199.579ZM100.592 199.969L99.7206 200.46L99.8057 200.611L99.9366 200.724L100.592 199.969ZM102.622 201.729L101.967 202.484L102.678 203.101L103.336 202.429L102.622 201.729ZM103.582 200.749L103.475 199.754L103.118 199.793L102.867 200.049L103.582 200.749ZM107.112 200.369L107.219 201.363L108.309 201.246L108.092 200.17L107.112 200.369ZM106.612 197.899L107.592 197.7L107.588 197.684L107.585 197.668L106.612 197.899ZM106.522 197.519L107.495 197.288L107.484 197.244L107.469 197.2L106.522 197.519ZM106.142 196.389L107.089 196.07L106.979 195.741L106.688 195.551L106.142 196.389ZM104.992 195.639L104.01 195.827L104.09 196.244L104.445 196.476L104.992 195.639ZM104.802 194.649L103.807 194.544L103.792 194.692L103.82 194.837L104.802 194.649ZM104.822 194.459L103.857 194.195L103.836 194.273L103.827 194.354L104.822 194.459ZM105.112 193.399L106.076 193.663L106.143 193.417L106.085 193.169L105.112 193.399ZM104.582 191.149L105.555 190.919L105.507 190.717L105.383 190.551L104.582 191.149ZM104.172 190.599L103.455 189.902L102.86 190.513L103.37 191.196L104.172 190.599ZM104.522 190.239L105.286 189.594L104.574 188.751L103.805 189.542L104.522 190.239ZM105.282 191.139L106.24 190.853L106.18 190.653L106.046 190.494L105.282 191.139ZM106.532 195.339L105.573 195.624L106.188 197.689L107.368 195.887L106.532 195.339ZM106.912 194.759L107.748 195.307L107.949 195L107.904 194.635L106.912 194.759ZM106.262 189.529L105.368 189.08L105.232 189.351L105.269 189.652L106.262 189.529ZM107.962 186.139L108.856 186.587L108.929 186.441L108.952 186.279L107.962 186.139ZM89.4316 202.379L89.5512 203.372L91.3575 203.154L90.2057 201.746L89.4316 202.379ZM81.2116 203.369L81.176 204.368L81.2538 204.371L81.3312 204.362L81.2116 203.369ZM78.4116 203.269L77.4576 203.569L77.6696 204.243L78.376 204.268L78.4116 203.269ZM78.1916 202.569L77.3116 202.094L77.111 202.466L77.2376 202.869L78.1916 202.569ZM79.5516 200.049L79.4193 199.058L78.9138 199.125L78.6716 199.574L79.5516 200.049ZM79.7016 200.029L79.7901 199.033L79.6795 199.023L79.5693 199.038L79.7016 200.029ZM80.1516 200.069L80.0632 201.065L81.0408 201.152L81.1459 200.176L80.1516 200.069ZM80.2916 198.769L79.5499 198.098L79.3321 198.339L79.2974 198.662L80.2916 198.769ZM82.2716 196.579L83.0134 197.249L83.1374 197.112L83.2042 196.94L82.2716 196.579ZM82.3916 196.269L81.4912 195.834L81.4736 195.87L81.4591 195.908L82.3916 196.269ZM82.8216 195.379L82.4327 194.457L82.0853 194.604L81.9212 194.944L82.8216 195.379ZM83.2716 195.189L83.6606 196.11L84.8519 195.607L84.0654 194.58L83.2716 195.189ZM82.6816 194.419L81.6911 194.556L81.7273 194.817L81.8879 195.027L82.6816 194.419ZM82.5016 193.119L81.9648 192.275L81.423 192.62L81.5111 193.256L82.5016 193.119ZM83.0516 192.769L82.8702 191.785L82.6789 191.821L82.5148 191.925L83.0516 192.769ZM84.0816 192.579L84.9118 192.021L84.5458 191.476L83.9002 191.595L84.0816 192.579ZM84.9816 193.919L85.9177 194.271L86.0989 193.789L85.8118 193.361L84.9816 193.919ZM84.4816 195.249L83.5456 194.897L83.3951 195.297L83.5806 195.683L84.4816 195.249ZM85.2616 196.869L86.252 197.007L86.294 196.708L86.1626 196.435L85.2616 196.869ZM85.0416 198.439L84.0513 198.3L83.9288 199.174L84.781 199.404L85.0416 198.439ZM86.6716 198.879L87.4884 198.302L87.2803 198.007L86.9322 197.913L86.6716 198.879ZM87.3216 199.799L86.5049 200.376L86.5252 200.405L86.5476 200.432L87.3216 199.799ZM109.169 183.988L108.959 183.368L107.064 184.01L107.274 184.63L109.169 183.988ZM107.866 182.699L107.186 182.799L107.477 184.778L108.157 184.678L107.866 182.699ZM107.88 182.953L103.92 180.353L102.823 182.025L106.783 184.625L107.88 182.953ZM104.336 180.924L103.136 176.544L101.207 177.073L102.407 181.453L104.336 180.924ZM102.976 176.215L101.596 174.345L99.987 175.533L101.367 177.402L102.976 176.215ZM100.802 173.939L98.8117 173.919L98.7916 175.919L100.782 175.939L100.802 173.939ZM98.4396 173.987L91.8996 176.527L92.6237 178.391L99.1637 175.851L98.4396 173.987ZM92.5042 176.489L91.4642 176.229L90.9791 178.169L92.0191 178.429L92.5042 176.489ZM92.2057 177.021L91.8557 175.081L89.8875 175.436L90.2375 177.376L92.2057 177.021ZM91.8326 175.535L92.2527 174.075L90.3306 173.522L89.9106 174.982L91.8326 175.535ZM91.6906 172.882L88.3806 171.442L87.5827 173.276L90.8927 174.716L91.6906 172.882ZM88.8382 171.843L88.3382 171.013L86.625 172.045L87.125 172.875L88.8382 171.843ZM88.4815 171.545L88.5515 167.205L86.5518 167.173L86.4818 171.513L88.4815 171.545ZM88.3664 167.769L90.2664 165.099L88.6369 163.939L86.7369 166.609L88.3664 167.769ZM90.3893 164.866L91.1493 162.816L89.274 162.121L88.514 164.171L90.3893 164.866ZM91.2114 162.492L91.2414 161.222L89.2419 161.175L89.2119 162.445L91.2114 162.492ZM90.1185 160.206L88.8285 160.366L89.0747 162.351L90.3648 162.191L90.1185 160.206ZM89.6321 160.626L88.7921 159.846L87.4312 161.312L88.2712 162.092L89.6321 160.626ZM89.0696 160.866L90.3996 156.426L88.4837 155.852L87.1537 160.292L89.0696 160.866ZM90.3094 156.636L94.7994 148.796L93.0639 147.802L88.5739 155.642L90.3094 156.636ZM93.8704 149.297L96.6404 149.467L96.7629 147.471L93.9929 147.301L93.8704 149.297ZM97.3743 149.209L97.9243 148.709L96.579 147.229L96.029 147.729L97.3743 149.209ZM98.2091 148.257L98.9591 145.767L97.0441 145.19L96.2941 147.68L98.2091 148.257ZM98.4581 146.369L99.9981 145.578L99.0852 143.799L97.5452 144.589L98.4581 146.369ZM100.534 144.563L100.304 142.753L98.3196 143.005L98.5496 144.815L100.534 144.563ZM99.8724 143.707L101.452 142.637L100.331 140.981L98.7509 142.051L99.8724 143.707ZM101.733 142.349L102.683 140.869L101 139.789L100.05 141.269L101.733 142.349ZM102.842 140.313L102.812 138.373L100.812 138.404L100.842 140.344L102.842 140.313ZM102.737 138.01L102.107 136.47L100.256 137.227L100.886 138.767L102.737 138.01ZM101.788 136.054L101.028 135.474L99.815 137.064L100.575 137.644L101.788 136.054ZM100.818 135.351L98.8984 134.521L98.1048 136.357L100.025 137.187L100.818 135.351ZM98.3372 134.452L95.3972 134.942L95.726 136.915L98.666 136.425L98.3372 134.452ZM95.8216 134.963L94.7816 134.683L94.2617 136.614L95.3017 136.894L95.8216 134.963ZM93.567 135.946L94.337 138.416L96.2463 137.821L95.4763 135.351L93.567 135.946ZM94.7136 137.303L93.5136 138.153L94.6697 139.785L95.8697 138.935L94.7136 137.303ZM93.6957 138.05L88.6157 140.24L89.4075 142.077L94.4875 139.887L93.6957 138.05ZM89.1367 140.167L85.6467 139.727L85.3966 141.711L88.8865 142.151L89.1367 140.167ZM85.3456 139.734L82.6056 140.224L82.9577 142.193L85.6977 141.703L85.3456 139.734ZM81.8837 140.769L79.8737 144.869L81.6695 145.749L83.6795 141.649L81.8837 140.769ZM80.5323 144.338L78.4223 144.858L78.9009 146.8L81.0109 146.28L80.5323 144.338ZM79.2664 145.032L78.4764 144.432L77.2668 146.025L78.0568 146.625L79.2664 145.032ZM77.926 144.23L76.456 144.15L76.3473 146.147L77.8173 146.227L77.926 144.23ZM75.4665 144.794L75.1065 145.744L76.9768 146.453L77.3368 145.503L75.4665 144.794ZM75.0479 146.211L75.3079 148.521L77.2954 148.297L77.0354 145.987L75.0479 146.211ZM75.8189 147.533L72.9889 149.093L73.9544 150.845L76.7844 149.285L75.8189 147.533ZM73.1449 149.024L71.5249 149.584L72.1783 151.474L73.7983 150.914L73.1449 149.024ZM71.9311 149.532L68.9211 149.292L68.7622 151.286L71.7722 151.526L71.9311 149.532ZM67.991 149.763L66.761 151.753L68.4623 152.805L69.6923 150.815L67.991 149.763ZM67.3524 151.313L65.0424 151.933L65.5609 153.865L67.8709 153.245L67.3524 151.313ZM65.6358 151.956L63.7458 151.286L63.0775 153.171L64.9675 153.841L65.6358 151.956ZM64.2705 151.717L63.2805 150.057L61.5628 151.081L62.5528 152.741L64.2705 151.717ZM62.9403 149.714L60.8303 148.434L59.793 150.144L61.903 151.424L62.9403 149.714ZM59.7569 148.457L59.0069 148.957L60.1163 150.621L60.8663 150.121L59.7569 148.457ZM58.6608 149.355L57.1808 152.425L58.9824 153.293L60.4624 150.223L58.6608 149.355ZM57.6366 151.963L54.3366 153.603L55.2267 155.394L58.5267 153.754L57.6366 151.963ZM54.9399 153.511L52.3199 153.091L52.0034 155.066L54.6234 155.486L54.9399 153.511ZM51.681 153.202L44.201 157.302L45.1623 159.056L52.6423 154.956L51.681 153.202ZM45.0479 157.248L44.1079 156.878L43.3754 158.739L44.3154 159.109L45.0479 157.248ZM43.5717 156.823L41.2517 157.223L41.5915 159.194L43.9116 158.794L43.5717 156.823ZM42.1616 157.536L41.1616 156.436L39.6817 157.781L40.6817 158.881L42.1616 157.536ZM40.9328 156.249L38.2428 154.649L37.2204 156.368L39.9104 157.968L40.9328 156.249ZM37.9583 154.535L34.9084 153.825L34.4549 155.773L37.5049 156.483L37.9583 154.535ZM35.1784 153.931L32.2784 152.271L31.2848 154.007L34.1849 155.667L35.1784 153.931ZM32.4887 152.432L30.3887 150.332L28.9745 151.746L31.0745 153.846L32.4887 152.432ZM28.8923 150.425L28.3323 151.145L29.911 152.373L30.471 151.653L28.8923 150.425ZM29.7423 150.975L29.0224 150.405L27.7809 151.973L28.5009 152.543L29.7423 150.975ZM28.0541 150.251L26.6241 150.781L27.3192 152.656L28.7492 152.126L28.0541 150.251ZM27.7832 151.134L27.4232 150.634L25.8001 151.803L26.1601 152.303L27.7832 151.134ZM26.1536 150.33L24.5236 151.17L25.4397 152.948L27.0697 152.108L26.1536 150.33ZM24.0915 152.514L26.4515 157.124L28.2318 156.213L25.8718 151.603L24.0915 152.514ZM26.3916 156.981L28.3016 162.791L30.2016 162.166L28.2916 156.356L26.3916 156.981ZM28.3331 162.083L27.9931 162.873L29.8302 163.664L30.1702 162.874L28.3331 162.083ZM28.0636 163.799L29.0136 165.319L30.7096 164.259L29.7596 162.739L28.0636 163.799ZM28.8789 164.974L29.2289 166.834L31.1944 166.464L30.8444 164.604L28.8789 164.974ZM29.354 167.163L33.414 173.933L35.1292 172.904L31.0692 166.134L29.354 167.163ZM33.2802 173.55L33.4702 174.99L35.453 174.728L35.263 173.288L33.2802 173.55ZM33.9566 175.722L34.8966 176.272L35.9066 174.546L34.9666 173.996L33.9566 175.722ZM34.4034 175.467L34.4134 175.637L36.4099 175.52L36.3999 175.35L34.4034 175.467ZM34.4127 175.624L34.4627 176.724L36.4606 176.633L36.4106 175.533L34.4127 175.624ZM34.6511 177.264L42.1511 187.644L43.7722 186.473L36.2722 176.093L34.6511 177.264ZM42.4996 187.946L43.6896 188.566L44.6137 186.792L43.4237 186.172L42.4996 187.946ZM43.152 187.652L43.132 188.402L45.1313 188.455L45.1513 187.705L43.152 187.652ZM43.6935 189.328L46.4635 190.678L47.3398 188.88L44.5698 187.53L43.6935 189.328ZM46.0665 189.229L45.7965 189.639L47.4668 190.739L47.7368 190.329L46.0665 189.229ZM46.0504 191.002L47.1004 191.752L48.2629 190.125L47.2129 189.375L46.0504 191.002ZM46.6983 191.12L46.8183 191.77L48.785 191.407L48.665 190.757L46.6983 191.12ZM47.274 192.438L49.834 194.028L50.8892 192.329L48.3292 190.739L47.274 192.438ZM51.2606 193.617L51.4506 193.227L49.6527 192.351L49.4627 192.741L51.2606 193.617ZM49.8127 193.463L50.1227 193.803L51.6006 192.455L51.2906 192.115L49.8127 193.463ZM50.1245 192.453L49.9045 192.693L51.3788 194.044L51.5988 193.804L50.1245 192.453ZM49.6434 193.427L49.6634 193.767L51.6599 193.65L51.6399 193.31L49.6434 193.427ZM50.0241 194.479L52.6341 196.639L53.9092 195.098L51.2992 192.938L50.0241 194.479ZM53.3132 196.868L53.7932 196.848L53.7101 194.85L53.2301 194.87L53.3132 196.868ZM54.7355 195.67L54.5955 194.9L52.6278 195.258L52.7678 196.028L54.7355 195.67ZM54.0346 194.173L53.5846 193.963L52.7387 195.775L53.1887 195.985L54.0346 194.173ZM53.4411 195.829L55.0211 195.369L54.4621 193.449L52.8821 193.909L53.4411 195.829ZM54.0642 193.673L53.3042 194.373L54.6591 195.844L55.4191 195.144L54.0642 193.673ZM53.0726 195.525L53.4026 196.245L55.2207 195.412L54.8907 194.692L53.0726 195.525ZM53.5913 195.135L53.3313 195.405L54.772 196.792L55.032 196.522L53.5913 195.135ZM53.0609 196.235L53.1309 196.745L55.1123 196.473L55.0423 195.963L53.0609 196.235ZM53.5306 197.415L55.8506 199.115L57.0327 197.502L54.7127 195.802L53.5306 197.415ZM56.0196 199.215L61.0896 201.575L61.9336 199.762L56.8636 197.402L56.0196 199.215ZM62.5071 200.763L62.6971 198.763L60.7061 198.574L60.5161 200.574L62.5071 200.763ZM62.244 197.829L61.454 197.319L60.3693 198.999L61.1592 199.509L62.244 197.829ZM61.827 197.756L61.2769 196.506L59.4463 197.311L59.9963 198.561L61.827 197.756ZM60.0288 197.852L60.3688 197.972L61.0344 196.086L60.6944 195.966L60.0288 197.852ZM59.7508 197.339L60.0408 198.229L61.9424 197.609L61.6524 196.719L59.7508 197.339ZM60.7234 198.882L61.5134 199.102L62.0499 197.175L61.2599 196.955L60.7234 198.882ZM62.7673 197.97L62.6473 197.27L60.676 197.608L60.796 198.308L62.7673 197.97ZM61.5886 198.436L61.9986 198.466L62.1447 196.471L61.7347 196.441L61.5886 198.436ZM61.072 197.44L61.052 198.14L63.0512 198.197L63.0712 197.497L61.072 197.44ZM61.7409 199.119L62.2609 199.289L62.8823 197.388L62.3623 197.218L61.7409 199.119ZM61.6242 198.659L61.8842 199.429L63.7791 198.789L63.5191 198.019L61.6242 198.659ZM61.9464 198.644L61.3264 199.824L63.0969 200.754L63.7169 199.574L61.9464 198.644ZM61.3559 200.806L61.6159 201.236L63.3274 200.201L63.0674 199.771L61.3559 200.806ZM61.5042 200.466L61.1642 201.766L63.0991 202.272L63.4391 200.972L61.5042 200.466ZM61.5447 202.828L61.9447 203.118L63.1186 201.499L62.7186 201.209L61.5447 202.828ZM62.2847 203.278L67.4647 204.598L67.9586 202.66L62.7786 201.34L62.2847 203.278ZM68.708 203.714L68.898 201.484L66.9053 201.314L66.7152 203.544L68.708 203.714ZM68.5674 202.145L69.2174 201.565L67.8858 200.073L67.2358 200.653L68.5674 202.145ZM67.5565 200.917L67.9365 204.757L69.9268 204.56L69.5468 200.72L67.5565 200.917ZM69.0153 205.655L77.3553 204.955L77.188 202.962L68.848 203.662L69.0153 205.655ZM78.2379 203.701L77.5979 201.301L75.6654 201.816L76.3054 204.216L78.2379 203.701ZM77.5791 201.879L78.6091 198.829L76.7142 198.189L75.6842 201.239L77.5791 201.879ZM78.5226 199.017L79.1726 197.917L77.4507 196.9L76.8007 198L78.5226 199.017ZM79.29 197.202L79 195.832L77.0433 196.246L77.3333 197.616L79.29 197.202ZM78.5375 195.182L76.6275 194.032L75.5958 195.745L77.5058 196.895L78.5375 195.182ZM76.2152 195.883L76.6952 195.833L76.488 193.844L76.0081 193.894L76.2152 195.883ZM76.3703 195.814L77.5603 196.084L78.0029 194.134L76.8129 193.864L76.3703 195.814ZM76.927 195.628L77.887 197.208L79.5962 196.169L78.6362 194.589L76.927 195.628ZM79.6249 197.158L80.2248 196.028L78.4584 195.09L77.8584 196.22L79.6249 197.158ZM80.1623 194.987L79.6123 194.197L77.9709 195.34L78.5209 196.13L80.1623 194.987ZM79.7908 194.811L79.8808 192.671L77.8825 192.587L77.7925 194.727L79.7908 194.811ZM79.7307 192.1L78.8907 190.75L77.1926 191.807L78.0326 193.157L79.7307 192.1ZM78.964 191.665L79.274 190.925L77.4293 190.152L77.1193 190.892L78.964 191.665ZM77.365 190.702L77.535 191.732L79.5083 191.406L79.3383 190.376L77.365 190.702ZM77.8983 192.351L78.5883 192.901L79.8349 191.337L79.1449 190.787L77.8983 192.351ZM78.2147 192.197L78.2447 192.577L80.2385 192.42L80.2085 192.04L78.2147 192.197ZM78.3027 192.843L79.0426 194.863L80.9206 194.175L80.1806 192.155L78.3027 192.843ZM78.9821 194.486L78.8822 197.586L80.8811 197.651L80.9811 194.551L78.9821 194.486ZM80.5539 198.359L83.2739 195.889L81.9294 194.408L79.2094 196.878L80.5539 198.359ZM83.3373 194.471L82.7573 193.841L81.2859 195.196L81.8659 195.826L83.3373 194.471ZM83.0203 194.57L83.1203 192.63L81.123 192.527L81.023 194.467L83.0203 194.57ZM82.4213 193.533L84.3313 192.933L83.7319 191.025L81.8219 191.625L82.4213 193.533ZM84.8149 192.6L85.3149 191.97L83.7483 190.727L83.2483 191.357L84.8149 192.6ZM83.6125 191.743L84.3025 193.353L86.1408 192.565L85.4508 190.955L83.6125 191.743ZM84.2259 193.051L84.3459 194.341L86.3373 194.156L86.2173 192.866L84.2259 193.051ZM84.4352 193.826L83.9552 194.856L85.768 195.701L86.248 194.671L84.4352 193.826ZM83.9513 195.693L84.5513 197.013L86.372 196.185L85.772 194.865L83.9513 195.693ZM84.4621 196.63L84.5121 198.24L86.5111 198.178L86.4612 196.568L84.4621 196.63ZM85.3211 199.19L86.6612 199.45L87.0421 197.487L85.7021 197.227L85.3211 199.19ZM86.0383 199.05L87.1183 200.561L88.745 199.397L87.665 197.887L86.0383 199.05ZM88.0353 200.973L88.5153 200.923L88.3079 198.934L87.8279 198.984L88.0353 200.973ZM87.545 199.43L87.355 199.76L89.0883 200.758L89.2783 200.428L87.545 199.43ZM87.3314 200.714L87.5514 201.144L89.3319 200.233L89.1119 199.803L87.3314 200.714ZM88.6576 201.665L90.8276 201.185L90.3957 199.232L88.2257 199.712L88.6576 201.665ZM89.7387 200.697L89.9287 201.037L91.6746 200.061L91.4846 199.721L89.7387 200.697ZM90.078 199.859L89.458 200.509L90.9052 201.889L91.5252 201.239L90.078 199.859ZM89.7228 202.087L91.2528 202.877L92.1704 201.1L90.6404 200.31L89.7228 202.087ZM91.8186 202.983L100.279 202.073L100.065 200.084L91.6047 200.995L91.8186 202.983ZM101.171 201.12L101.191 200.64L99.1925 200.557L99.1725 201.037L101.171 201.12ZM100.978 199.982L100.579 199.472L99.0048 200.706L99.4048 201.216L100.978 199.982ZM100.788 199.998L100.718 199.228L98.7257 199.409L98.7957 200.179L100.788 199.998ZM100.681 199.037L100.581 198.697L98.6623 199.261L98.7623 199.601L100.681 199.037ZM100.41 199.593L101.081 198.733L99.5028 197.504L98.8328 198.364L100.41 199.593ZM100.987 198.838L101.587 198.258L100.197 196.82L99.5966 197.4L100.987 198.838ZM99.9226 197.292L99.4026 199.332L101.341 199.826L101.861 197.786L99.9226 197.292ZM99.5006 200.07L99.7206 200.46L101.463 199.477L101.243 199.087L99.5006 200.07ZM99.9366 200.724L101.967 202.484L103.277 200.973L101.247 199.213L99.9366 200.724ZM103.336 202.429L104.296 201.448L102.867 200.049L101.907 201.029L103.336 202.429ZM103.689 201.743L107.219 201.363L107.005 199.374L103.475 199.754L103.689 201.743ZM108.092 200.17L107.592 197.7L105.632 198.097L106.132 200.567L108.092 200.17ZM107.585 197.668L107.495 197.288L105.549 197.749L105.639 198.129L107.585 197.668ZM107.469 197.2L107.089 196.07L105.194 196.707L105.574 197.837L107.469 197.2ZM106.688 195.551L105.538 194.801L104.445 196.476L105.595 197.226L106.688 195.551ZM105.974 195.45L105.784 194.46L103.82 194.837L104.01 195.827L105.974 195.45ZM105.796 194.753L105.816 194.563L103.827 194.354L103.807 194.544L105.796 194.753ZM105.786 194.723L106.076 193.663L104.147 193.135L103.857 194.195L105.786 194.723ZM106.085 193.169L105.555 190.919L103.608 191.378L104.138 193.628L106.085 193.169ZM105.383 190.551L104.973 190.001L103.37 191.196L103.78 191.746L105.383 190.551ZM104.889 191.296L105.239 190.936L103.805 189.542L103.455 189.902L104.889 191.296ZM103.758 190.884L104.518 191.784L106.046 190.494L105.286 189.594L103.758 190.884ZM104.323 191.424L105.573 195.624L107.49 195.053L106.24 190.853L104.323 191.424ZM107.368 195.887L107.748 195.307L106.075 194.211L105.695 194.791L107.368 195.887ZM107.904 194.635L107.254 189.405L105.269 189.652L105.919 194.882L107.904 194.635ZM107.156 189.977L108.856 186.587L107.068 185.69L105.368 189.08L107.156 189.977ZM108.952 186.279L109.212 184.449L107.232 184.168L106.972 185.998L108.952 186.279ZM89.3121 201.386L81.0921 202.376L81.3312 204.362L89.5512 203.372L89.3121 201.386ZM81.2473 202.369L78.4473 202.269L78.376 204.268L81.176 204.368L81.2473 202.369ZM79.3656 202.969L79.1456 202.269L77.2376 202.869L77.4576 203.569L79.3656 202.969ZM79.0717 203.044L80.4317 200.524L78.6716 199.574L77.3116 202.094L79.0717 203.044ZM79.6839 201.04L79.8339 201.02L79.5693 199.038L79.4193 199.058L79.6839 201.04ZM79.6131 201.025L80.0632 201.065L80.2401 199.073L79.7901 199.033L79.6131 201.025ZM81.1459 200.176L81.2859 198.876L79.2974 198.662L79.1574 199.962L81.1459 200.176ZM81.0334 199.439L83.0134 197.249L81.5299 195.908L79.5499 198.098L81.0334 199.439ZM83.2042 196.94L83.3242 196.63L81.4591 195.908L81.3391 196.218L83.2042 196.94ZM83.292 196.704L83.7221 195.814L81.9212 194.944L81.4912 195.834L83.292 196.704ZM83.2106 196.3L83.6606 196.11L82.8827 194.267L82.4327 194.457L83.2106 196.3ZM84.0654 194.58L83.4754 193.811L81.8879 195.027L82.4779 195.797L84.0654 194.58ZM83.6722 194.282L83.4922 192.982L81.5111 193.256L81.6911 194.556L83.6722 194.282ZM83.0385 193.962L83.5885 193.612L82.5148 191.925L81.9648 192.275L83.0385 193.962ZM83.233 193.752L84.263 193.562L83.9002 191.595L82.8702 191.785L83.233 193.752ZM83.2515 193.136L84.1515 194.476L85.8118 193.361L84.9118 192.021L83.2515 193.136ZM84.0456 193.567L83.5456 194.897L85.4177 195.601L85.9177 194.271L84.0456 193.567ZM83.5806 195.683L84.3606 197.303L86.1626 196.435L85.3826 194.815L83.5806 195.683ZM84.2713 196.73L84.0513 198.3L86.032 198.577L86.252 197.007L84.2713 196.73ZM84.781 199.404L86.411 199.844L86.9322 197.913L85.3023 197.473L84.781 199.404ZM85.8549 199.456L86.5049 200.376L88.1384 199.222L87.4884 198.302L85.8549 199.456ZM86.5476 200.432L88.6576 203.012L90.2057 201.746L88.0957 199.166L86.5476 200.432Z" fill="#548BEB" mask="url(#path-2-inside-2_1_47)"/>
<mask id="path-4-inside-3_1_47" fill="white">
<path d="M205.482 56.1288L208.472 55.6387L210.832 53.6787L212.192 51.9287L214.112 51.4787L216.172 52.1487L220.012 52.2887L223.142 51.4587L226.282 49.5387L225.512 45.0387L227.032 43.8387L229.142 43.1687L231.452 42.5787L233.562 42.6487L238.992 44.3387L247.632 49.7188L248.192 51.3587L247.532 56.1288L248.742 57.0187L253.122 57.4587L262.692 55.2188L265.782 55.4388L267.272 56.1588L272.802 61.8887L277.682 68.5187L278.332 70.0687L276.162 78.4088L271.012 76.1987L270.232 78.0387L270.212 80.0187L269.632 80.7487L268.552 81.6888L265.752 86.5487L262.522 87.4887L260.892 88.6787L259.692 89.8587L258.742 92.3587L257.752 93.3287L249.032 101.099L245.222 103.829L244.102 104.159L242.462 106.459L240.772 107.329L239.472 108.809L239.872 109.669L241.232 110.709L240.182 112.189L240.582 113.019L240.132 113.979L238.662 115.849L238.092 115.269L238.142 116.769L243.242 122.409L243.552 124.169L241.152 128.219L240.512 130.619L239.392 131.979L239.602 135.869L237.792 141.749L237.942 148.309L235.402 152.509L233.512 153.279L233.432 154.119L232.092 155.159L230.872 158.459L229.622 159.499L230.592 160.519L229.692 160.869L228.712 162.109L228.762 162.679L227.752 163.059L227.842 164.819L225.872 165.569L224.852 166.819L224.832 167.779L226.032 168.919L226.372 170.449L223.952 171.909L222.862 171.669L222.182 170.949L221.152 171.769L220.512 173.289L219.762 173.819L219.602 175.289L220.272 175.359L220.872 173.609L221.132 176.119L220.772 176.679L220.342 176.009L219.742 176.149L220.322 177.589L218.842 177.859L218.902 178.619L217.122 178.909L215.652 178.309L216.162 176.539L217.232 176.419L215.962 174.809L215.162 176.029L214.002 176.509L211.932 176.049L211.282 174.899L212.052 174.199L212.262 174.039L211.952 173.129L210.592 173.539L209.462 172.909L207.082 175.089L206.492 174.079L202.822 171.269L199.042 166.929L195.862 164.129L192.452 159.219L190.822 154.089L191.432 147.989L191.042 145.889L186.082 143.209L181.312 143.769L180.522 141.829L179.692 141.519L179.032 139.729L180.182 137.279L181.032 137.179L184.452 137.939L185.052 136.729L184.292 134.179L182.582 132.179L181.852 130.499L180.482 125.869L180.332 122.089L180.922 118.369L179.842 117.079L180.222 114.689L182.562 111.579L182.202 108.919L183.662 107.659L184.002 106.309L185.982 104.019L186.062 101.599L184.922 99.7987L185.112 98.8187L187.382 97.7387L190.002 97.5587L192.692 102.059L194.032 99.9787L196.192 99.2087L198.392 97.4987L198.672 96.1888L200.552 95.8987L202.732 97.1588L203.572 96.2487L204.252 93.9487L204.352 91.3587L205.152 89.8887L212.072 81.4987L212.092 80.0988L210.232 77.4987L210.222 75.8987L211.872 74.2687L214.062 73.8987L214.892 72.1987L214.652 71.1487L213.272 70.1487L212.862 68.6487L212.342 68.2787L212.442 66.3387L211.162 65.2188L210.662 63.5087L207.962 61.6387L205.972 59.0187L205.482 56.1288Z"/>
</mask>
<path d="M205.482 56.1288L208.472 55.6387L210.832 53.6787L212.192 51.9287L214.112 51.4787L216.172 52.1487L220.012 52.2887L223.142 51.4587L226.282 49.5387L225.512 45.0387L227.032 43.8387L229.142 43.1687L231.452 42.5787L233.562 42.6487L238.992 44.3387L247.632 49.7188L248.192 51.3587L247.532 56.1288L248.742 57.0187L253.122 57.4587L262.692 55.2188L265.782 55.4388L267.272 56.1588L272.802 61.8887L277.682 68.5187L278.332 70.0687L276.162 78.4088L271.012 76.1987L270.232 78.0387L270.212 80.0187L269.632 80.7487L268.552 81.6888L265.752 86.5487L262.522 87.4887L260.892 88.6787L259.692 89.8587L258.742 92.3587L257.752 93.3287L249.032 101.099L245.222 103.829L244.102 104.159L242.462 106.459L240.772 107.329L239.472 108.809L239.872 109.669L241.232 110.709L240.182 112.189L240.582 113.019L240.132 113.979L238.662 115.849L238.092 115.269L238.142 116.769L243.242 122.409L243.552 124.169L241.152 128.219L240.512 130.619L239.392 131.979L239.602 135.869L237.792 141.749L237.942 148.309L235.402 152.509L233.512 153.279L233.432 154.119L232.092 155.159L230.872 158.459L229.622 159.499L230.592 160.519L229.692 160.869L228.712 162.109L228.762 162.679L227.752 163.059L227.842 164.819L225.872 165.569L224.852 166.819L224.832 167.779L226.032 168.919L226.372 170.449L223.952 171.909L222.862 171.669L222.182 170.949L221.152 171.769L220.512 173.289L219.762 173.819L219.602 175.289L220.272 175.359L220.872 173.609L221.132 176.119L220.772 176.679L220.342 176.009L219.742 176.149L220.322 177.589L218.842 177.859L218.902 178.619L217.122 178.909L215.652 178.309L216.162 176.539L217.232 176.419L215.962 174.809L215.162 176.029L214.002 176.509L211.932 176.049L211.282 174.899L212.052 174.199L212.262 174.039L211.952 173.129L210.592 173.539L209.462 172.909L207.082 175.089L206.492 174.079L202.822 171.269L199.042 166.929L195.862 164.129L192.452 159.219L190.822 154.089L191.432 147.989L191.042 145.889L186.082 143.209L181.312 143.769L180.522 141.829L179.692 141.519L179.032 139.729L180.182 137.279L181.032 137.179L184.452 137.939L185.052 136.729L184.292 134.179L182.582 132.179L181.852 130.499L180.482 125.869L180.332 122.089L180.922 118.369L179.842 117.079L180.222 114.689L182.562 111.579L182.202 108.919L183.662 107.659L184.002 106.309L185.982 104.019L186.062 101.599L184.922 99.7987L185.112 98.8187L187.382 97.7387L190.002 97.5587L192.692 102.059L194.032 99.9787L196.192 99.2087L198.392 97.4987L198.672 96.1888L200.552 95.8987L202.732 97.1588L203.572 96.2487L204.252 93.9487L204.352 91.3587L205.152 89.8887L212.072 81.4987L212.092 80.0988L210.232 77.4987L210.222 75.8987L211.872 74.2687L214.062 73.8987L214.892 72.1987L214.652 71.1487L213.272 70.1487L212.862 68.6487L212.342 68.2787L212.442 66.3387L211.162 65.2188L210.662 63.5087L207.962 61.6387L205.972 59.0187L205.482 56.1288Z" fill="#B1CCFB" stroke="#548BEB" stroke-width="2" mask="url(#path-4-inside-3_1_47)"/>
<mask id="path-5-inside-4_1_47" fill="white">
<path d="M109.452 84.9587L107.972 77.6687L108.052 76.2987L106.922 75.1687L104.792 65.5988L102.912 67.6387L98.8117 67.2587L95.0817 68.0687L86.8917 73.1888L79.5417 76.2887L75.5117 80.8187L74.8717 80.8687L72.2917 76.9287L71.2817 76.5087L69.6117 76.1987L67.8317 77.7787L66.9417 79.8087L66.7917 82.1787L67.1917 82.9287L68.6517 83.7387L69.1917 88.5587L71.2217 92.1487L73.1817 94.5687L75.0617 96.0287L77.2917 96.8387L77.5817 98.5887L76.8817 101.829L75.3317 103.739L73.7017 105.399L70.6217 107.429L68.3317 110.499L65.5517 112.489L63.7417 113.089L58.5117 114.129L56.3817 113.569L57.0817 111.769L55.4817 110.159L57.5217 106.129L57.0517 105.299L53.1417 102.949L51.1417 100.119L46.4717 97.4987L43.3017 96.2487L41.6617 94.9088L36.5417 96.7587L34.6917 99.1387L32.9217 98.7387L30.6517 96.7587L29.2717 96.4688L26.1017 97.1387L23.1217 96.4187L22.1317 96.7287L21.5017 97.0287L21.4417 98.0587L22.3317 99.6288L21.8117 100.689L17.7117 103.909L16.0517 103.979L16.0017 101.509L15.3417 98.9587L16.0417 96.0287L15.8917 94.5988L14.2317 92.9287L8.80167 90.1288L1.90167 106.869L4.38167 111.349L5.77167 112.229L6.35167 110.629L7.66167 109.379L15.4217 105.159L16.6817 104.939L18.5317 103.659L19.6617 103.119L20.0217 103.629L20.0017 103.799L18.0017 104.749L16.9917 106.349L16.9217 106.609L16.0917 106.079L13.8417 107.059L10.6617 109.569L10.3217 110.319L8.34166 109.869L7.29167 110.689L6.50166 113.829L6.76166 115.369L9.39166 119.869L12.5717 123.009L13.6917 122.479L16.7017 121.139L19.6717 121.549L20.4117 118.389L21.5617 116.239L21.5417 115.859L21.9417 115.559V115.569L22.3217 115.689L22.0917 115.829L21.8517 117.729L20.7317 119.999L21.7317 122.129L23.6417 122.759L25.2717 122.489L26.8517 119.309L28.4517 119.409L28.6417 119.159V119.169L31.6317 120.709L32.7517 121.379L32.9417 121.859L31.7517 121.519L32.0217 122.289L32.1217 123.609L30.7917 123.259L31.7617 122.589L31.4317 121.249L30.3117 120.529L27.1817 120.239L26.5817 120.379L26.6717 122.009L26.1217 123.139L23.7817 125.109L24.7817 123.529L22.9917 123.679L20.8917 123.129L16.4517 122.459L14.4917 122.649L14.3717 123.489L12.7517 124.569L11.4917 126.239L14.2617 130.199L17.3017 132.809L23.3417 135.439L28.4317 135.729L28.4517 135.079L27.2617 133.689L26.3117 130.789L26.0517 130.339L26.1217 129.599L26.5917 129.479L26.4017 130.299L27.4017 132.499L28.2317 131.899H28.5917L28.5217 132.119L27.5717 133.199L27.8317 133.699L30.4817 134.819L31.0517 134.609L32.7017 129.809L33.5417 128.349L34.5017 127.729L33.8617 127.399L37.0617 127.519L37.5417 127.669L38.5917 127.209L39.0517 126.079L39.7917 125.699L40.9117 125.869L41.8617 126.779L42.4717 126.119L42.5617 126.349L42.4417 127.099L41.5517 127.139L40.1717 126.199L39.1617 127.879L37.5817 128.669L35.7717 128.549L35.9917 129.409L35.0317 128.429L33.7117 128.789L33.1617 131.809L33.4317 133.129L34.0117 134.209L34.4617 134.929L37.8217 136.019L37.5217 136.819L35.9717 135.699L35.3217 136.059L35.2917 136.759L35.2217 136.979L34.7317 137.109L35.0517 135.639L34.7417 135.519L34.3117 135.179L33.8617 134.719L33.4117 135.199L32.6717 135.699L32.3117 136.229L31.5217 136.349L30.4017 136.919L31.3117 137.379L33.3617 137.279L30.3917 138.239L29.9917 138.869L28.9917 137.259L28.3917 137.309L28.1117 137.289L25.5817 137.439L24.4117 138.069L24.3417 137.679L23.6517 137.609L23.2417 137.299L22.5717 137.519L21.7417 137.089L21.7917 139.529L23.7017 147.159L23.4617 148.819L25.5417 151.079L27.5917 150.199L30.2417 150.029L29.3517 148.679L29.2617 147.559L29.4117 147.319L29.9117 144.939L30.2017 144.909L30.0517 145.509L30.2017 145.919L29.6817 148.609L30.5617 149.159L30.4617 150.689L29.6617 150.999L31.7617 153.099L34.6617 154.759L37.7117 155.469L40.4017 157.069L41.4017 158.169L43.7217 157.769L44.6617 158.139L52.1417 154.039L54.7617 154.459L58.0617 152.819L59.5417 149.749L60.2917 149.249L62.4017 150.529L63.3917 152.189L65.2817 152.859L67.5917 152.239L68.8217 150.249L71.8317 150.489L73.4517 149.929L76.2817 148.369L76.0217 146.059L76.3817 145.109L77.8517 145.189L78.6417 145.789L80.7517 145.269L82.7617 141.169L85.5017 140.679L88.9917 141.119L94.0717 138.929L95.2717 138.079L94.5017 135.609L93.9317 134.569L94.1417 134.129L97.6617 132.319L97.8517 127.019L98.5517 125.539L100.602 124.119L101.492 122.369L102.312 119.189L101.222 115.649L101.452 115.299L102.462 114.129L104.382 110.229L104.722 107.599L106.482 102.909L108.982 98.3587L109.362 92.3488L110.632 88.6987L109.452 84.9587Z"/>
</mask>
<path d="M109.452 84.9587L107.972 77.6687L108.052 76.2987L106.922 75.1687L104.792 65.5988L102.912 67.6387L98.8117 67.2587L95.0817 68.0687L86.8917 73.1888L79.5417 76.2887L75.5117 80.8187L74.8717 80.8687L72.2917 76.9287L71.2817 76.5087L69.6117 76.1987L67.8317 77.7787L66.9417 79.8087L66.7917 82.1787L67.1917 82.9287L68.6517 83.7387L69.1917 88.5587L71.2217 92.1487L73.1817 94.5687L75.0617 96.0287L77.2917 96.8387L77.5817 98.5887L76.8817 101.829L75.3317 103.739L73.7017 105.399L70.6217 107.429L68.3317 110.499L65.5517 112.489L63.7417 113.089L58.5117 114.129L56.3817 113.569L57.0817 111.769L55.4817 110.159L57.5217 106.129L57.0517 105.299L53.1417 102.949L51.1417 100.119L46.4717 97.4987L43.3017 96.2487L41.6617 94.9088L36.5417 96.7587L34.6917 99.1387L32.9217 98.7387L30.6517 96.7587L29.2717 96.4688L26.1017 97.1387L23.1217 96.4187L22.1317 96.7287L21.5017 97.0287L21.4417 98.0587L22.3317 99.6288L21.8117 100.689L17.7117 103.909L16.0517 103.979L16.0017 101.509L15.3417 98.9587L16.0417 96.0287L15.8917 94.5988L14.2317 92.9287L8.80167 90.1288L1.90167 106.869L4.38167 111.349L5.77167 112.229L6.35167 110.629L7.66167 109.379L15.4217 105.159L16.6817 104.939L18.5317 103.659L19.6617 103.119L20.0217 103.629L20.0017 103.799L18.0017 104.749L16.9917 106.349L16.9217 106.609L16.0917 106.079L13.8417 107.059L10.6617 109.569L10.3217 110.319L8.34166 109.869L7.29167 110.689L6.50166 113.829L6.76166 115.369L9.39166 119.869L12.5717 123.009L13.6917 122.479L16.7017 121.139L19.6717 121.549L20.4117 118.389L21.5617 116.239L21.5417 115.859L21.9417 115.559V115.569L22.3217 115.689L22.0917 115.829L21.8517 117.729L20.7317 119.999L21.7317 122.129L23.6417 122.759L25.2717 122.489L26.8517 119.309L28.4517 119.409L28.6417 119.159V119.169L31.6317 120.709L32.7517 121.379L32.9417 121.859L31.7517 121.519L32.0217 122.289L32.1217 123.609L30.7917 123.259L31.7617 122.589L31.4317 121.249L30.3117 120.529L27.1817 120.239L26.5817 120.379L26.6717 122.009L26.1217 123.139L23.7817 125.109L24.7817 123.529L22.9917 123.679L20.8917 123.129L16.4517 122.459L14.4917 122.649L14.3717 123.489L12.7517 124.569L11.4917 126.239L14.2617 130.199L17.3017 132.809L23.3417 135.439L28.4317 135.729L28.4517 135.079L27.2617 133.689L26.3117 130.789L26.0517 130.339L26.1217 129.599L26.5917 129.479L26.4017 130.299L27.4017 132.499L28.2317 131.899H28.5917L28.5217 132.119L27.5717 133.199L27.8317 133.699L30.4817 134.819L31.0517 134.609L32.7017 129.809L33.5417 128.349L34.5017 127.729L33.8617 127.399L37.0617 127.519L37.5417 127.669L38.5917 127.209L39.0517 126.079L39.7917 125.699L40.9117 125.869L41.8617 126.779L42.4717 126.119L42.5617 126.349L42.4417 127.099L41.5517 127.139L40.1717 126.199L39.1617 127.879L37.5817 128.669L35.7717 128.549L35.9917 129.409L35.0317 128.429L33.7117 128.789L33.1617 131.809L33.4317 133.129L34.0117 134.209L34.4617 134.929L37.8217 136.019L37.5217 136.819L35.9717 135.699L35.3217 136.059L35.2917 136.759L35.2217 136.979L34.7317 137.109L35.0517 135.639L34.7417 135.519L34.3117 135.179L33.8617 134.719L33.4117 135.199L32.6717 135.699L32.3117 136.229L31.5217 136.349L30.4017 136.919L31.3117 137.379L33.3617 137.279L30.3917 138.239L29.9917 138.869L28.9917 137.259L28.3917 137.309L28.1117 137.289L25.5817 137.439L24.4117 138.069L24.3417 137.679L23.6517 137.609L23.2417 137.299L22.5717 137.519L21.7417 137.089L21.7917 139.529L23.7017 147.159L23.4617 148.819L25.5417 151.079L27.5917 150.199L30.2417 150.029L29.3517 148.679L29.2617 147.559L29.4117 147.319L29.9117 144.939L30.2017 144.909L30.0517 145.509L30.2017 145.919L29.6817 148.609L30.5617 149.159L30.4617 150.689L29.6617 150.999L31.7617 153.099L34.6617 154.759L37.7117 155.469L40.4017 157.069L41.4017 158.169L43.7217 157.769L44.6617 158.139L52.1417 154.039L54.7617 154.459L58.0617 152.819L59.5417 149.749L60.2917 149.249L62.4017 150.529L63.3917 152.189L65.2817 152.859L67.5917 152.239L68.8217 150.249L71.8317 150.489L73.4517 149.929L76.2817 148.369L76.0217 146.059L76.3817 145.109L77.8517 145.189L78.6417 145.789L80.7517 145.269L82.7617 141.169L85.5017 140.679L88.9917 141.119L94.0717 138.929L95.2717 138.079L94.5017 135.609L93.9317 134.569L94.1417 134.129L97.6617 132.319L97.8517 127.019L98.5517 125.539L100.602 124.119L101.492 122.369L102.312 119.189L101.222 115.649L101.452 115.299L102.462 114.129L104.382 110.229L104.722 107.599L106.482 102.909L108.982 98.3587L109.362 92.3488L110.632 88.6987L109.452 84.9587Z" fill="#B1CCFB" stroke="#548BEB" stroke-width="2" mask="url(#path-5-inside-4_1_47)"/>
<mask id="path-6-inside-5_1_47" fill="white">
<path d="M65.3517 0.488739L66.1217 1.12875L67.8717 0.758728L68.5717 1.11874L68.8517 1.79874L68.4717 2.68875L68.9317 3.33875L71.1117 3.08875L71.3817 3.88873L70.4217 5.73874L70.1917 7.66873L70.4717 8.71875L71.5517 9.49875L73.6817 10.0287L79.6217 7.09875L81.1817 9.19873L81.8317 9.12875L83.0917 10.5387L83.6417 10.4787L85.6017 12.7087L87.8617 12.5187L88.6017 12.0087L91.1617 12.1588L92.2217 14.1687L92.2917 15.3887L93.1417 15.9987L93.6217 17.7387L94.3617 18.2987L94.1217 18.8087L94.7817 20.4388L98.5317 19.5988L98.9617 19.9787L100.422 18.9887L102.292 18.5787L104.042 19.9887L104.592 22.1087L106.042 23.1888L106.832 25.1987L106.982 28.6087L106.672 30.5287L105.052 34.4688L105.112 38.6288L103.202 43.4487L101.042 46.9987L102.322 49.1487L101.392 54.6687L102.282 57.2687L103.692 59.2787L104.722 65.3087L104.792 65.5988L102.912 67.6288L98.8217 67.2487L95.0917 68.0587L86.9017 73.1687L79.5517 76.2687L75.5217 80.7987L74.8717 80.8387L72.2917 76.8987L71.2817 76.4887L69.6217 76.1687L67.8317 77.7587L66.9417 79.7787L66.7917 82.1487L67.1917 82.8987L68.6517 83.7087L69.1917 88.5287L71.2217 92.1087L73.1817 94.5287L75.0617 95.9887L77.2917 96.7987L77.5717 98.5387L76.8817 101.779L75.3317 103.689L73.7117 105.349L70.6317 107.379L68.3317 110.449L65.5617 112.439L63.7517 113.039L58.5117 114.079L56.3817 113.509L57.0817 111.709L55.4817 110.099L57.5117 106.069L57.0417 105.239L53.1417 102.889L51.1417 100.059L46.4617 97.4388L43.3017 96.1888L41.6617 94.8488L36.5417 96.6987L34.6917 99.0787L32.9217 98.6787L30.6517 96.6987L29.2717 96.4088L26.1017 97.0787L23.1317 96.3587L22.1417 96.6687L21.5017 96.9688L21.4417 97.9987L22.3317 99.5687L21.8117 100.629L17.7217 103.859L16.0617 103.929L16.0117 101.459L15.3517 98.9088L16.0617 95.9787L15.9117 94.5487L14.2517 92.8788L8.82167 90.0887L9.21167 88.9287L7.98166 86.6687L6.65167 85.6288L5.09166 85.5387L3.44167 82.5988L1.50166 81.2387L0.801666 81.1787L0.361664 80.2687L0.611664 79.6787L0.331665 80.1187L1.13167 79.4187L2.09166 75.7887L2.67166 75.1787L5.62166 74.3087L6.46167 70.5687L8.20166 68.8587L9.04167 66.8987L9.39166 65.1787L8.82167 63.7287L7.42166 61.4487L6.19167 60.8087V57.9688L7.00166 56.9887L6.90167 54.7687L7.39166 53.8087L9.14166 52.1888L9.59166 51.1588L11.3217 50.3587L12.1117 48.0887L13.0717 47.3987L13.1617 45.4487L13.6117 44.6687L15.8117 43.6588L17.9417 44.0587L20.2217 43.6787L21.9017 44.0387L28.5417 44.1487L31.8317 43.7687L33.4717 44.1087L35.2117 46.1888L33.2017 48.4487L35.3017 53.9088L36.0417 53.8788L39.8117 50.7188L41.1517 50.8387L42.3417 52.3187L43.1517 52.6687L45.8317 51.6487L47.3417 48.2587L48.2917 43.2987L48.5417 43.0487L49.7317 43.5587L49.7417 41.9287L50.6217 41.4088L50.4717 40.5988L49.2917 39.3187L49.9017 34.6787L51.1417 33.0187L52.6617 32.2887L53.0317 31.4388L52.7117 30.5988L55.9417 23.7087L55.7917 22.3187L56.2617 21.2787L58.0217 19.4487L60.1717 18.3987L61.6017 14.8587L61.1717 14.5787L60.4017 12.0988L61.2717 9.20874L59.2617 8.38873L58.8617 7.54874L59.0417 6.15875L60.4517 4.43875L62.0117 4.57874L62.9017 3.97873L65.3517 0.488739Z"/>
</mask>
<path d="M65.3517 0.488739L66.1217 1.12875L67.8717 0.758728L68.5717 1.11874L68.8517 1.79874L68.4717 2.68875L68.9317 3.33875L71.1117 3.08875L71.3817 3.88873L70.4217 5.73874L70.1917 7.66873L70.4717 8.71875L71.5517 9.49875L73.6817 10.0287L79.6217 7.09875L81.1817 9.19873L81.8317 9.12875L83.0917 10.5387L83.6417 10.4787L85.6017 12.7087L87.8617 12.5187L88.6017 12.0087L91.1617 12.1588L92.2217 14.1687L92.2917 15.3887L93.1417 15.9987L93.6217 17.7387L94.3617 18.2987L94.1217 18.8087L94.7817 20.4388L98.5317 19.5988L98.9617 19.9787L100.422 18.9887L102.292 18.5787L104.042 19.9887L104.592 22.1087L106.042 23.1888L106.832 25.1987L106.982 28.6087L106.672 30.5287L105.052 34.4688L105.112 38.6288L103.202 43.4487L101.042 46.9987L102.322 49.1487L101.392 54.6687L102.282 57.2687L103.692 59.2787L104.722 65.3087L104.792 65.5988L102.912 67.6288L98.8217 67.2487L95.0917 68.0587L86.9017 73.1687L79.5517 76.2687L75.5217 80.7987L74.8717 80.8387L72.2917 76.8987L71.2817 76.4887L69.6217 76.1687L67.8317 77.7587L66.9417 79.7787L66.7917 82.1487L67.1917 82.8987L68.6517 83.7087L69.1917 88.5287L71.2217 92.1087L73.1817 94.5287L75.0617 95.9887L77.2917 96.7987L77.5717 98.5387L76.8817 101.779L75.3317 103.689L73.7117 105.349L70.6317 107.379L68.3317 110.449L65.5617 112.439L63.7517 113.039L58.5117 114.079L56.3817 113.509L57.0817 111.709L55.4817 110.099L57.5117 106.069L57.0417 105.239L53.1417 102.889L51.1417 100.059L46.4617 97.4388L43.3017 96.1888L41.6617 94.8488L36.5417 96.6987L34.6917 99.0787L32.9217 98.6787L30.6517 96.6987L29.2717 96.4088L26.1017 97.0787L23.1317 96.3587L22.1417 96.6687L21.5017 96.9688L21.4417 97.9987L22.3317 99.5687L21.8117 100.629L17.7217 103.859L16.0617 103.929L16.0117 101.459L15.3517 98.9088L16.0617 95.9787L15.9117 94.5487L14.2517 92.8788L8.82167 90.0887L9.21167 88.9287L7.98166 86.6687L6.65167 85.6288L5.09166 85.5387L3.44167 82.5988L1.50166 81.2387L0.801666 81.1787L0.361664 80.2687L0.611664 79.6787L0.331665 80.1187L1.13167 79.4187L2.09166 75.7887L2.67166 75.1787L5.62166 74.3087L6.46167 70.5687L8.20166 68.8587L9.04167 66.8987L9.39166 65.1787L8.82167 63.7287L7.42166 61.4487L6.19167 60.8087V57.9688L7.00166 56.9887L6.90167 54.7687L7.39166 53.8087L9.14166 52.1888L9.59166 51.1588L11.3217 50.3587L12.1117 48.0887L13.0717 47.3987L13.1617 45.4487L13.6117 44.6687L15.8117 43.6588L17.9417 44.0587L20.2217 43.6787L21.9017 44.0387L28.5417 44.1487L31.8317 43.7687L33.4717 44.1087L35.2117 46.1888L33.2017 48.4487L35.3017 53.9088L36.0417 53.8788L39.8117 50.7188L41.1517 50.8387L42.3417 52.3187L43.1517 52.6687L45.8317 51.6487L47.3417 48.2587L48.2917 43.2987L48.5417 43.0487L49.7317 43.5587L49.7417 41.9287L50.6217 41.4088L50.4717 40.5988L49.2917 39.3187L49.9017 34.6787L51.1417 33.0187L52.6617 32.2887L53.0317 31.4388L52.7117 30.5988L55.9417 23.7087L55.7917 22.3187L56.2617 21.2787L58.0217 19.4487L60.1717 18.3987L61.6017 14.8587L61.1717 14.5787L60.4017 12.0988L61.2717 9.20874L59.2617 8.38873L58.8617 7.54874L59.0417 6.15875L60.4517 4.43875L62.0117 4.57874L62.9017 3.97873L65.3517 0.488739Z" fill="#B1CCFB" stroke="#548BEB" stroke-width="2" mask="url(#path-6-inside-5_1_47)"/>
<mask id="path-7-inside-6_1_47" fill="white">
<path d="M134.722 189.569L133.262 190.959L133.282 191.729L132.662 191.489L132.882 190.069L134.322 189.249L134.722 189.569ZM131.582 187.729L129.862 186.749L129.312 186.899L128.762 187.049L128.552 186.359L129.412 185.569L129.102 184.899L129.412 184.249L129.342 183.199L128.772 182.389L127.862 182.219L127.642 182.379L126.932 180.679L126.662 180.509L126.802 180.049L125.942 179.189L125.672 179.549L124.712 179.699L124.522 180.519L125.092 181.549L125.592 182.599L126.002 184.639L125.522 184.409L125.072 185.039L126.142 188.519L126.002 189.789L127.172 193.829L126.932 194.049L127.702 194.509L129.762 194.079L130.162 193.629L130.292 193.049L132.042 193.539L132.072 191.309L132.742 189.749L131.582 187.729ZM127.782 177.469L128.192 177.929L130.372 178.019L130.562 177.109L130.152 176.799L128.462 177.099L127.782 177.469ZM129.052 175.009L129.412 176.139L129.932 176.329L129.642 174.429L129.052 175.009ZM136.252 184.749L134.812 181.889L133.812 181.189L132.182 180.379L131.912 180.259L131.072 180.909L131.722 180.999L133.032 182.129L133.172 182.339L132.942 182.799L133.462 183.729L133.582 185.649L134.872 186.849L135.782 187.019L136.452 185.609L136.252 184.749ZM142.172 190.869L140.092 188.249L138.782 189.879L139.572 190.669L140.382 190.429L140.762 191.339H141.522L141.742 191.959L142.912 191.459L143.992 192.539L145.852 191.049L145.232 190.499L142.172 190.869ZM122.262 184.259L121.142 184.789L120.862 186.109L122.002 186.509L123.442 187.589L124.472 189.869L124.182 186.509L123.822 186.359L124.082 184.869L122.262 184.259ZM140.392 186.819L138.022 185.199L136.472 182.849L136.442 182.579L135.962 180.879L135.482 181.309L135.082 180.949L135.512 180.279L135.482 178.789L135.362 178.719L134.792 180.569L132.542 179.869L132.012 179.769L131.132 178.689L131.062 177.169L130.702 176.879L130.632 176.419L130.372 176.249L130.222 175.599L130.722 174.809L129.742 173.589L128.932 174.119L128.592 175.009L129.242 176.549L127.182 177.319L126.772 177.679L125.842 178.059L125.322 178.109L124.322 178.879L123.862 179.499L123.772 177.989L123.192 178.729L122.972 179.239L123.972 180.889L124.522 183.339L123.212 183.789L122.682 183.999L121.302 182.389L120.592 180.489L119.142 178.079L117.642 177.569L118.202 176.019L117.522 173.799L118.502 172.989L118.852 172.509L118.322 171.839L116.512 171.599L114.702 170.489L114.422 172.079L113.532 172.649L113.202 171.879L111.932 171.739L111.592 171.399L110.952 171.589L110.182 171.619L109.562 170.749L109.372 170.609L108.822 171.019L109.012 172.009L108.872 172.339L109.332 172.649L110.602 173.919L110.482 175.449L111.462 180.089L114.682 183.399L114.702 184.579L112.892 186.039L112.792 186.619L114.612 193.179L115.162 196.499L117.572 198.979L117.282 199.309L110.042 199.999L107.802 199.249L107.712 196.539L107.472 193.999L107.612 193.539L107.582 193.369L107.122 190.659L106.932 189.909L108.872 186.239L108.682 183.569L108.012 183.719L107.332 183.819L103.372 181.219L102.172 176.839L100.792 174.969L98.8017 174.949L92.2616 177.489L91.2216 177.229L90.8716 175.289L91.2917 173.829L87.9816 172.389L87.4816 171.559L87.5517 167.219L89.4516 164.549L90.2117 162.499L90.2417 161.229L88.9516 161.389L88.1116 160.609L89.4417 156.169L93.9317 148.329L96.7016 148.499L97.2516 147.999L98.0016 145.509L99.5417 144.719L99.3116 142.909L100.892 141.839L101.842 140.359L101.812 138.419L101.182 136.879L100.422 136.299L98.5016 135.469L95.5616 135.959L94.5217 135.679L93.9516 134.639L94.1617 134.199L97.6817 132.389L97.8716 127.089L98.5717 125.609L100.622 124.189L101.512 122.439L102.332 119.259L101.242 115.719L101.472 115.369L102.582 116.649L104.982 116.859L102.232 129.939L103.742 130.379L107.212 129.709L109.332 130.489L109.772 132.149L109.252 136.769L108.162 139.529L108.422 140.899L110.262 142.199L111.982 145.609L114.142 147.259L116.282 147.669L123.002 147.529L127.702 148.649L131.852 147.579L133.982 147.549L138.492 148.679L141.062 147.729L141.612 147.779L142.272 149.499L142.332 152.279L139.932 156.469L136.522 160.799L135.152 164.509L134.992 165.599L135.592 166.709L137.042 168.119L138.842 168.389L141.972 167.799L143.082 167.159L145.872 167.039L149.152 168.259L150.962 167.839L153.902 169.239L156.252 171.029L158.202 174.519L158.832 176.819L157.872 181.089L158.452 185.639L157.942 185.959L157.902 186.599L158.512 187.769L157.292 188.539L156.452 187.819L156.282 186.839L155.062 186.569L154.512 186.309L154.252 186.769L152.862 187.949L152.282 187.709L152.022 187.349L151.642 187.329L150.932 187.719L149.432 185.359L148.162 186.319L147.232 185.959L145.632 185.459L144.982 184.429L144.312 184.619L143.572 183.759L142.952 184.269L142.762 185.059L141.872 185.389L142.212 186.469L142.482 187.499L142.722 188.099L143.502 188.699L144.272 188.459L144.842 188.539L145.702 188.229L145.532 189.979L143.762 190.149L142.322 190.679L141.582 189.479L141.482 189.149L140.432 187.979L140.282 187.039L140.392 186.819ZM161.912 191.129L161.222 190.739L160.792 190.709L159.912 190.349L159.892 190.329L159.492 189.969L159.072 190.429L158.752 190.299L159.102 189.759L158.222 188.269L157.322 188.799L156.282 187.899L155.922 187.559L155.752 187.049L154.362 187.059L154.102 187.339L152.872 188.209L151.542 188.159L151.082 188.199L150.652 187.969L150.022 187.339L149.492 187.029L149.402 186.219L148.162 186.559L147.132 186.579L147.152 186.159L145.902 185.819L144.992 185.359L143.652 185.269L143.172 185.509L142.942 186.089L142.922 186.879H144.642L144.732 186.959L145.902 188.029L146.132 188.699L146.492 190.069L147.332 190.379L147.492 189.979L147.832 190.259L148.902 190.289L148.962 190.509L147.122 191.249L146.692 191.399L146.002 193.799L151.472 194.569L155.652 193.649L161.582 193.509L161.392 192.289L161.912 191.129ZM113.232 173.059L114.022 172.889L114.942 172.099L115.022 170.979L116.312 171.879L117.912 172.509L116.952 173.679L117.382 175.529L117.652 175.849L117.622 176.429L117.022 177.369L117.242 178.009L118.252 178.319L119.512 179.669L121.582 184.029L120.652 184.639L120.232 185.479L120.382 186.389L123.532 188.239L124.132 191.139L125.012 192.459L124.892 193.849L125.372 195.459L126.852 196.589L125.732 197.979L124.772 198.339L123.912 197.839L123.312 198.249L116.932 196.859L116.122 194.319L116.652 193.699L116.052 193.719L114.692 189.829L113.882 187.929L113.982 185.869L115.612 184.309L115.442 182.959L113.632 181.299L111.942 180.149L111.182 176.089L110.892 175.509L110.912 173.689L110.142 172.609L111.382 171.869L112.262 172.499H112.932L113.232 173.059Z"/>
</mask>
<path d="M134.722 189.569L133.262 190.959L133.282 191.729L132.662 191.489L132.882 190.069L134.322 189.249L134.722 189.569ZM131.582 187.729L129.862 186.749L129.312 186.899L128.762 187.049L128.552 186.359L129.412 185.569L129.102 184.899L129.412 184.249L129.342 183.199L128.772 182.389L127.862 182.219L127.642 182.379L126.932 180.679L126.662 180.509L126.802 180.049L125.942 179.189L125.672 179.549L124.712 179.699L124.522 180.519L125.092 181.549L125.592 182.599L126.002 184.639L125.522 184.409L125.072 185.039L126.142 188.519L126.002 189.789L127.172 193.829L126.932 194.049L127.702 194.509L129.762 194.079L130.162 193.629L130.292 193.049L132.042 193.539L132.072 191.309L132.742 189.749L131.582 187.729ZM127.782 177.469L128.192 177.929L130.372 178.019L130.562 177.109L130.152 176.799L128.462 177.099L127.782 177.469ZM129.052 175.009L129.412 176.139L129.932 176.329L129.642 174.429L129.052 175.009ZM136.252 184.749L134.812 181.889L133.812 181.189L132.182 180.379L131.912 180.259L131.072 180.909L131.722 180.999L133.032 182.129L133.172 182.339L132.942 182.799L133.462 183.729L133.582 185.649L134.872 186.849L135.782 187.019L136.452 185.609L136.252 184.749ZM142.172 190.869L140.092 188.249L138.782 189.879L139.572 190.669L140.382 190.429L140.762 191.339H141.522L141.742 191.959L142.912 191.459L143.992 192.539L145.852 191.049L145.232 190.499L142.172 190.869ZM122.262 184.259L121.142 184.789L120.862 186.109L122.002 186.509L123.442 187.589L124.472 189.869L124.182 186.509L123.822 186.359L124.082 184.869L122.262 184.259ZM140.392 186.819L138.022 185.199L136.472 182.849L136.442 182.579L135.962 180.879L135.482 181.309L135.082 180.949L135.512 180.279L135.482 178.789L135.362 178.719L134.792 180.569L132.542 179.869L132.012 179.769L131.132 178.689L131.062 177.169L130.702 176.879L130.632 176.419L130.372 176.249L130.222 175.599L130.722 174.809L129.742 173.589L128.932 174.119L128.592 175.009L129.242 176.549L127.182 177.319L126.772 177.679L125.842 178.059L125.322 178.109L124.322 178.879L123.862 179.499L123.772 177.989L123.192 178.729L122.972 179.239L123.972 180.889L124.522 183.339L123.212 183.789L122.682 183.999L121.302 182.389L120.592 180.489L119.142 178.079L117.642 177.569L118.202 176.019L117.522 173.799L118.502 172.989L118.852 172.509L118.322 171.839L116.512 171.599L114.702 170.489L114.422 172.079L113.532 172.649L113.202 171.879L111.932 171.739L111.592 171.399L110.952 171.589L110.182 171.619L109.562 170.749L109.372 170.609L108.822 171.019L109.012 172.009L108.872 172.339L109.332 172.649L110.602 173.919L110.482 175.449L111.462 180.089L114.682 183.399L114.702 184.579L112.892 186.039L112.792 186.619L114.612 193.179L115.162 196.499L117.572 198.979L117.282 199.309L110.042 199.999L107.802 199.249L107.712 196.539L107.472 193.999L107.612 193.539L107.582 193.369L107.122 190.659L106.932 189.909L108.872 186.239L108.682 183.569L108.012 183.719L107.332 183.819L103.372 181.219L102.172 176.839L100.792 174.969L98.8017 174.949L92.2616 177.489L91.2216 177.229L90.8716 175.289L91.2917 173.829L87.9816 172.389L87.4816 171.559L87.5517 167.219L89.4516 164.549L90.2117 162.499L90.2417 161.229L88.9516 161.389L88.1116 160.609L89.4417 156.169L93.9317 148.329L96.7016 148.499L97.2516 147.999L98.0016 145.509L99.5417 144.719L99.3116 142.909L100.892 141.839L101.842 140.359L101.812 138.419L101.182 136.879L100.422 136.299L98.5016 135.469L95.5616 135.959L94.5217 135.679L93.9516 134.639L94.1617 134.199L97.6817 132.389L97.8716 127.089L98.5717 125.609L100.622 124.189L101.512 122.439L102.332 119.259L101.242 115.719L101.472 115.369L102.582 116.649L104.982 116.859L102.232 129.939L103.742 130.379L107.212 129.709L109.332 130.489L109.772 132.149L109.252 136.769L108.162 139.529L108.422 140.899L110.262 142.199L111.982 145.609L114.142 147.259L116.282 147.669L123.002 147.529L127.702 148.649L131.852 147.579L133.982 147.549L138.492 148.679L141.062 147.729L141.612 147.779L142.272 149.499L142.332 152.279L139.932 156.469L136.522 160.799L135.152 164.509L134.992 165.599L135.592 166.709L137.042 168.119L138.842 168.389L141.972 167.799L143.082 167.159L145.872 167.039L149.152 168.259L150.962 167.839L153.902 169.239L156.252 171.029L158.202 174.519L158.832 176.819L157.872 181.089L158.452 185.639L157.942 185.959L157.902 186.599L158.512 187.769L157.292 188.539L156.452 187.819L156.282 186.839L155.062 186.569L154.512 186.309L154.252 186.769L152.862 187.949L152.282 187.709L152.022 187.349L151.642 187.329L150.932 187.719L149.432 185.359L148.162 186.319L147.232 185.959L145.632 185.459L144.982 184.429L144.312 184.619L143.572 183.759L142.952 184.269L142.762 185.059L141.872 185.389L142.212 186.469L142.482 187.499L142.722 188.099L143.502 188.699L144.272 188.459L144.842 188.539L145.702 188.229L145.532 189.979L143.762 190.149L142.322 190.679L141.582 189.479L141.482 189.149L140.432 187.979L140.282 187.039L140.392 186.819ZM161.912 191.129L161.222 190.739L160.792 190.709L159.912 190.349L159.892 190.329L159.492 189.969L159.072 190.429L158.752 190.299L159.102 189.759L158.222 188.269L157.322 188.799L156.282 187.899L155.922 187.559L155.752 187.049L154.362 187.059L154.102 187.339L152.872 188.209L151.542 188.159L151.082 188.199L150.652 187.969L150.022 187.339L149.492 187.029L149.402 186.219L148.162 186.559L147.132 186.579L147.152 186.159L145.902 185.819L144.992 185.359L143.652 185.269L143.172 185.509L142.942 186.089L142.922 186.879H144.642L144.732 186.959L145.902 188.029L146.132 188.699L146.492 190.069L147.332 190.379L147.492 189.979L147.832 190.259L148.902 190.289L148.962 190.509L147.122 191.249L146.692 191.399L146.002 193.799L151.472 194.569L155.652 193.649L161.582 193.509L161.392 192.289L161.912 191.129ZM113.232 173.059L114.022 172.889L114.942 172.099L115.022 170.979L116.312 171.879L117.912 172.509L116.952 173.679L117.382 175.529L117.652 175.849L117.622 176.429L117.022 177.369L117.242 178.009L118.252 178.319L119.512 179.669L121.582 184.029L120.652 184.639L120.232 185.479L120.382 186.389L123.532 188.239L124.132 191.139L125.012 192.459L124.892 193.849L125.372 195.459L126.852 196.589L125.732 197.979L124.772 198.339L123.912 197.839L123.312 198.249L116.932 196.859L116.122 194.319L116.652 193.699L116.052 193.719L114.692 189.829L113.882 187.929L113.982 185.869L115.612 184.309L115.442 182.959L113.632 181.299L111.942 180.149L111.182 176.089L110.892 175.509L110.912 173.689L110.142 172.609L111.382 171.869L112.262 172.499H112.932L113.232 173.059Z" fill="#B1CCFB" stroke="#548BEB" stroke-width="2" mask="url(#path-7-inside-6_1_47)"/>
</svg>
