<svg width="209" height="207" viewBox="0 0 209 207" fill="none" xmlns="http://www.w3.org/2000/svg">
<path d="M147.622 77.5466L148.927 72.9988L149.212 73.7803L149.282 73.9724L149.467 74.0602L150.497 74.5503L150.666 74.6306L150.846 74.5804L155.166 73.3752L155.821 73.6305L157.205 75.5692L157.275 75.6677L157.382 75.7231L158.332 76.2131L158.464 76.2808L158.611 76.2663L160.85 76.0453L163.062 76.6415L163.198 76.6784L163.334 76.638L165.111 76.1094L166.236 76.5887L166.675 76.776L166.882 76.3457L167.922 74.1857L168.024 73.9735L167.926 73.7597L167.722 73.3178L168.387 71.5191L172.195 70.2775L176.281 70.2137L176.252 74.3852L176.25 74.6243L176.435 74.7757L176.985 75.2257L177.251 75.4437L177.55 75.2726L179.954 73.8962L183.466 73.2838L185.5 73.5215L185.785 73.8782L185.602 74.7748L184.486 75.3075L184.377 75.3597L184.304 75.456L182.014 78.466L181.92 78.5889L181.912 78.7431L181.832 80.3031L181.827 80.4017L181.86 80.4948L183.18 84.2448L183.232 84.3916L183.358 84.4831L184.678 85.4431L184.804 85.5349L184.96 85.5386L186.053 85.5642L187.764 87.1279L187.84 87.1968L187.936 87.2306L194.163 89.4126L193.07 91.1376L192.68 91.2802L191.402 90.2146L191.216 90.0597L190.979 90.1094L189.119 90.4994L188.86 90.5536L188.759 90.798L187.968 92.7169L185.915 94.0824L185.87 94.1123L185.832 94.151L183.432 96.631L183.383 96.6822L183.35 96.7453L182.22 98.8853L182.187 98.9471L182.172 99.0155L180.473 107.066L178.812 110.895L175.848 115.201L170.588 118.52L168.77 118.048L167.83 115.736L167.963 115.02L167.987 114.895L167.947 114.774L166.907 111.584L166.887 111.523L166.853 111.469L165.433 109.249L165.338 109.101L165.171 109.045L163.621 108.525L163.532 108.495L163.439 108.499L156.495 108.808L148.74 108.37L148.648 108.364L148.56 108.392L144.421 109.711L143.807 108.453L142.98 104.721L142.968 104.667L142.945 104.617L140.126 98.5743L139.462 93.9762L140.621 90.0916L140.663 89.9511L140.622 89.8102L139.838 87.0892L139.943 85.8656L141.766 81.7861L143.248 80.4139L145.35 79.5079L145.415 79.4798L145.47 79.4346L147.46 77.7946L147.579 77.6959L147.622 77.5466Z" fill="#FFDBD7" stroke="#FDC1BA"/>
<path d="M3.77059 169.289L4.50926 169.525L4.61454 169.559L4.7242 169.545L7.99275 169.133L9.80316 169.963L10.0647 170.083L10.2998 169.917L13.7598 167.477L13.9717 167.328V167.069V165.868L17.3578 166.373L17.398 166.379L17.4386 166.379L31.1486 166.189L31.3446 166.186L31.4866 166.051L32.5466 165.041L32.6619 164.931L32.6924 164.774L33.4271 161.006L35.3624 159.47L35.5425 159.328L35.5513 159.098L35.6368 156.864L36.7768 154.76L38.2192 154.955L41.5241 156.341L42.5853 157.049L43.3366 158.375L43.4981 158.66L43.8239 158.626L48.3939 158.146L49.0233 158.08L48.8133 157.483L48.4322 156.399L49.5707 155.64L86.9505 156.028L87.7573 156.187L87.9875 156.57L85.5188 159.175L85.4275 159.271L85.396 159.4L85.166 160.34L85.1177 160.537L85.2208 160.712L85.8854 161.841L85.9218 163.172L85.9301 163.473L86.1989 163.606L88.3889 164.696L88.6489 164.826L88.8902 164.664L92.0102 162.571L95.0472 162.21L95.8615 163.347L95.9338 163.92L95.0566 164.75L92.3298 166.026L92.1809 166.095L92.1024 166.24L91.5424 167.27L91.4411 167.456L91.5047 167.659L91.7247 168.359L91.7701 168.503L91.8883 168.598L92.8083 169.338L92.8885 169.403L92.9877 169.43L95.6119 170.16L96.643 171.355L96.7481 171.477L96.9043 171.515L97.4843 171.655L97.6658 171.699L97.8316 171.613L98.8141 171.104L103.6 171.694L103.831 172.52L103.56 174.294L94.5555 173.208L92.4079 172.551L92.3732 172.54L92.3373 172.535L80.3173 170.695L80.293 170.691L80.2684 170.689L71.6784 170.229L71.6414 170.227L71.6044 170.231L61.7153 171.169L46.6264 171.329L46.502 171.33L46.3928 171.389L45.8228 171.699L45.6025 171.819L45.5667 172.067L45.4512 172.871L45.4344 172.867L44.2212 172.638L44.4968 173.029L40.2364 172.384L40.1988 172.379L40.1608 172.379L34.1408 172.389L34.1328 172.389L34.1248 172.389L12.5248 173.119L12.5044 173.12L12.4841 173.122L3.49083 174.164L3.19861 171.64L3.77059 169.289Z" fill="#FFDBD7" stroke="#FDC1BA"/>
<mask id="path-3-inside-1_1_45" fill="white">
<path d="M0.961654 80.3887L6.93165 76.0988L10.4217 75.8887L12.3217 76.8187L13.5617 78.6087L13.9717 80.0387L14.1217 86.5187L14.6817 88.8788L15.9917 91.0487L16.8317 91.1787L17.7717 85.6187L18.3417 84.3687L18.8117 83.9187H20.1817L21.0617 84.5287L21.6017 86.2787L21.4417 89.3687L19.7017 95.3488L19.2917 95.1087L18.7817 95.6787L19.3017 99.3387L21.4217 101.849L24.4717 104.319L25.4917 107.359L28.6917 111.869L31.7017 114.229L34.0417 115.359L38.0917 115.639L39.8317 115.149L42.6117 111.179L43.7517 106.939L45.3717 105.459L47.9717 105.749L49.7217 110.089L51.3117 111.219L52.3317 110.959L53.4617 109.849L55.9317 109.249L62.1317 109.469L63.3017 111.359L63.6317 117.019L64.0417 117.729L67.0217 118.949L67.6617 120.049L67.5617 122.269L68.6617 124.969L69.0716 127.839L65.1017 131.849L64.7717 132.979L65.1416 133.259L71.2317 133.009L73.9316 132.429L76.9716 132.559L80.1516 131.319L81.6617 129.949L87.5517 129.069L90.2916 127.989L91.6917 126.879L92.6317 127.269L93.1516 128.109L93.7417 132.389L95.7117 132.379L99.5617 130.399L102.952 130.989L105.922 138.099L108.982 136.139L110.082 136.119L111.232 136.809L113.352 135.889L117.512 135.629L117.822 135.759L117.522 136.769L116.772 142.269L115.712 145.529L113.362 147.629L111.302 148.599L107.672 151.879L104.692 156.799L104.722 160.209L106.732 162.179L111.542 162.989L113.372 162.859L114.792 161.799L116.442 159.529L118.202 159.019L118.852 159.799L118.832 164.269L119.682 167.839L118.962 169.649L116.522 170.309L115.752 171.449L114.632 172.129L112.232 172.239L110.912 173.579L111.892 174.009L114.682 173.759L117.982 175.499L118.192 176.579L117.372 178.299L113.362 178.019L108.362 175.779L103.982 174.849L104.342 172.489L103.992 171.239L98.7216 170.589L97.6017 171.169L97.0217 171.029L95.8916 169.719L93.1217 168.949L92.2017 168.209L91.9817 167.509L92.5416 166.479L95.3417 165.169L96.4617 164.109L96.3417 163.159L95.2817 161.679L91.8316 162.089L88.6116 164.249L86.4217 163.159L86.3817 161.699L85.6516 160.459L85.8817 159.519L88.6116 156.639L88.0716 155.739L87.0016 155.529L49.4217 155.139L47.8317 156.199L48.3417 157.649L43.7717 158.129L42.9617 156.699L41.7617 155.899L38.3517 154.469L36.5017 154.219L35.1417 156.729L35.0517 159.079L32.9717 160.729L32.2017 164.679L31.1417 165.689L17.4317 165.879L13.8817 165.349L13.4717 165.459V167.069L10.0117 169.509L8.07165 168.619L4.66165 169.049L3.41165 168.649L3.83165 165.369L4.96165 164.189L5.59165 162.649L4.25165 158.909L5.55165 156.749L7.66165 154.949L7.86165 152.209L7.65165 151.249L5.51165 150.969L4.73165 150.579L4.32165 149.719L4.15165 147.899L5.35165 145.999L5.01165 144.929L5.49165 141.469L5.27165 140.489L3.97165 140.349L3.43165 139.739L3.58165 136.879L4.98165 135.269L8.04165 133.489L5.58165 131.259L5.10165 130.299L6.97165 128.099L7.56165 126.179L6.90165 121.519L5.37165 119.859L5.25165 110.169L7.62165 110.089L8.44165 109.609L8.48165 108.889L8.06165 105.389L5.38165 103.349L5.16165 101.589L4.18165 100.069L3.88165 95.8687L4.13165 86.9088L3.83165 85.9587L3.01165 85.6087L2.04165 83.0287L0.351654 80.8587L0.961654 80.3887Z"/>
</mask>
<path d="M0.961654 80.3887L6.93165 76.0988L10.4217 75.8887L12.3217 76.8187L13.5617 78.6087L13.9717 80.0387L14.1217 86.5187L14.6817 88.8788L15.9917 91.0487L16.8317 91.1787L17.7717 85.6187L18.3417 84.3687L18.8117 83.9187H20.1817L21.0617 84.5287L21.6017 86.2787L21.4417 89.3687L19.7017 95.3488L19.2917 95.1087L18.7817 95.6787L19.3017 99.3387L21.4217 101.849L24.4717 104.319L25.4917 107.359L28.6917 111.869L31.7017 114.229L34.0417 115.359L38.0917 115.639L39.8317 115.149L42.6117 111.179L43.7517 106.939L45.3717 105.459L47.9717 105.749L49.7217 110.089L51.3117 111.219L52.3317 110.959L53.4617 109.849L55.9317 109.249L62.1317 109.469L63.3017 111.359L63.6317 117.019L64.0417 117.729L67.0217 118.949L67.6617 120.049L67.5617 122.269L68.6617 124.969L69.0716 127.839L65.1017 131.849L64.7717 132.979L65.1416 133.259L71.2317 133.009L73.9316 132.429L76.9716 132.559L80.1516 131.319L81.6617 129.949L87.5517 129.069L90.2916 127.989L91.6917 126.879L92.6317 127.269L93.1516 128.109L93.7417 132.389L95.7117 132.379L99.5617 130.399L102.952 130.989L105.922 138.099L108.982 136.139L110.082 136.119L111.232 136.809L113.352 135.889L117.512 135.629L117.822 135.759L117.522 136.769L116.772 142.269L115.712 145.529L113.362 147.629L111.302 148.599L107.672 151.879L104.692 156.799L104.722 160.209L106.732 162.179L111.542 162.989L113.372 162.859L114.792 161.799L116.442 159.529L118.202 159.019L118.852 159.799L118.832 164.269L119.682 167.839L118.962 169.649L116.522 170.309L115.752 171.449L114.632 172.129L112.232 172.239L110.912 173.579L111.892 174.009L114.682 173.759L117.982 175.499L118.192 176.579L117.372 178.299L113.362 178.019L108.362 175.779L103.982 174.849L104.342 172.489L103.992 171.239L98.7216 170.589L97.6017 171.169L97.0217 171.029L95.8916 169.719L93.1217 168.949L92.2017 168.209L91.9817 167.509L92.5416 166.479L95.3417 165.169L96.4617 164.109L96.3417 163.159L95.2817 161.679L91.8316 162.089L88.6116 164.249L86.4217 163.159L86.3817 161.699L85.6516 160.459L85.8817 159.519L88.6116 156.639L88.0716 155.739L87.0016 155.529L49.4217 155.139L47.8317 156.199L48.3417 157.649L43.7717 158.129L42.9617 156.699L41.7617 155.899L38.3517 154.469L36.5017 154.219L35.1417 156.729L35.0517 159.079L32.9717 160.729L32.2017 164.679L31.1417 165.689L17.4317 165.879L13.8817 165.349L13.4717 165.459V167.069L10.0117 169.509L8.07165 168.619L4.66165 169.049L3.41165 168.649L3.83165 165.369L4.96165 164.189L5.59165 162.649L4.25165 158.909L5.55165 156.749L7.66165 154.949L7.86165 152.209L7.65165 151.249L5.51165 150.969L4.73165 150.579L4.32165 149.719L4.15165 147.899L5.35165 145.999L5.01165 144.929L5.49165 141.469L5.27165 140.489L3.97165 140.349L3.43165 139.739L3.58165 136.879L4.98165 135.269L8.04165 133.489L5.58165 131.259L5.10165 130.299L6.97165 128.099L7.56165 126.179L6.90165 121.519L5.37165 119.859L5.25165 110.169L7.62165 110.089L8.44165 109.609L8.48165 108.889L8.06165 105.389L5.38165 103.349L5.16165 101.589L4.18165 100.069L3.88165 95.8687L4.13165 86.9088L3.83165 85.9587L3.01165 85.6087L2.04165 83.0287L0.351654 80.8587L0.961654 80.3887Z" fill="#FFDBD7" stroke="#FDC1BA" stroke-width="2" mask="url(#path-3-inside-1_1_45)"/>
<mask id="path-4-inside-2_1_45" fill="white">
<path d="M194.922 89.1487L199.542 88.2687L202.052 88.6987L201.342 92.8387L203.382 95.5387L208.122 99.7087L208.352 100.489L205.902 103.979L205.002 104.579L203.442 104.439L202.032 106.159L201.852 107.539L202.252 108.379L204.272 109.199L203.392 112.089L204.162 114.579L204.582 114.859L203.152 118.399L201.002 119.449L199.242 121.279L198.772 122.319L198.922 123.709L195.692 130.599L196.012 131.429L195.642 132.279L194.132 133.009L192.892 134.679L192.272 139.309L193.452 140.589L193.612 141.409L192.732 141.919L192.722 143.549L191.532 143.039L191.282 143.289L190.332 148.249L188.822 151.639L186.142 152.669L185.332 152.309L184.142 150.829L182.802 150.709L179.032 153.869L178.292 153.899L176.192 148.439L178.202 146.189L176.462 144.099L174.822 143.759L171.532 144.149L164.892 144.039L163.212 143.679L160.932 144.059L158.812 143.669L156.612 144.679L156.152 145.459L156.062 147.419L155.112 148.099L154.322 150.369L152.592 151.169L152.142 152.209L150.382 153.819L149.892 154.779L149.982 156.999L149.182 157.989V160.829L150.412 161.469L151.802 163.749L152.382 165.199L152.022 166.919L151.192 168.879L149.452 170.589L148.602 174.329L145.662 175.189L145.082 175.809L144.122 179.429L143.322 180.129L143.602 179.689L143.352 180.289L143.792 181.199L144.492 181.249L146.432 182.609L148.082 185.549L149.642 185.649L150.972 186.689L152.212 188.949L151.822 190.109L144.922 206.849L140.062 200.909L130.892 191.669L116.072 179.709L113.372 178.049L117.372 178.329L118.202 176.599L117.992 175.529L114.692 173.789L111.902 174.039L110.922 173.609L112.242 172.259L114.642 172.159L115.752 171.479L116.532 170.339L118.972 169.679L119.692 167.859L118.852 164.289L118.862 159.819L118.222 159.039L116.452 159.549L114.802 161.819L113.382 162.879L111.552 163.009L106.752 162.199L104.742 160.239L104.712 156.829L107.692 151.909L111.322 148.629L113.382 147.669L115.732 145.569L116.802 142.319L117.542 136.809L120.212 135.389L122.362 130.419L126.652 126.979L128.972 126.959L131.482 128.199L134.392 130.419L136.202 130.449L136.842 129.189L136.612 127.559L137.022 125.449L136.562 121.469L138.122 114.929L138.962 114.359L144.822 112.769L144.202 110.369L148.752 108.919L156.532 109.349L163.502 109.039L165.052 109.569L166.472 111.779L167.502 114.969L167.342 115.829L168.432 118.519L170.712 119.109L176.242 115.609L179.282 111.179L180.992 107.259L182.692 99.1588L183.822 97.0187L186.222 94.5387L188.402 93.0887L189.252 91.0287L191.112 90.6487L192.612 91.8887L193.432 91.5887L194.922 89.1487Z"/>
</mask>
<path d="M194.922 89.1487L199.542 88.2687L202.052 88.6987L201.342 92.8387L203.382 95.5387L208.122 99.7087L208.352 100.489L205.902 103.979L205.002 104.579L203.442 104.439L202.032 106.159L201.852 107.539L202.252 108.379L204.272 109.199L203.392 112.089L204.162 114.579L204.582 114.859L203.152 118.399L201.002 119.449L199.242 121.279L198.772 122.319L198.922 123.709L195.692 130.599L196.012 131.429L195.642 132.279L194.132 133.009L192.892 134.679L192.272 139.309L193.452 140.589L193.612 141.409L192.732 141.919L192.722 143.549L191.532 143.039L191.282 143.289L190.332 148.249L188.822 151.639L186.142 152.669L185.332 152.309L184.142 150.829L182.802 150.709L179.032 153.869L178.292 153.899L176.192 148.439L178.202 146.189L176.462 144.099L174.822 143.759L171.532 144.149L164.892 144.039L163.212 143.679L160.932 144.059L158.812 143.669L156.612 144.679L156.152 145.459L156.062 147.419L155.112 148.099L154.322 150.369L152.592 151.169L152.142 152.209L150.382 153.819L149.892 154.779L149.982 156.999L149.182 157.989V160.829L150.412 161.469L151.802 163.749L152.382 165.199L152.022 166.919L151.192 168.879L149.452 170.589L148.602 174.329L145.662 175.189L145.082 175.809L144.122 179.429L143.322 180.129L143.602 179.689L143.352 180.289L143.792 181.199L144.492 181.249L146.432 182.609L148.082 185.549L149.642 185.649L150.972 186.689L152.212 188.949L151.822 190.109L144.922 206.849L140.062 200.909L130.892 191.669L116.072 179.709L113.372 178.049L117.372 178.329L118.202 176.599L117.992 175.529L114.692 173.789L111.902 174.039L110.922 173.609L112.242 172.259L114.642 172.159L115.752 171.479L116.532 170.339L118.972 169.679L119.692 167.859L118.852 164.289L118.862 159.819L118.222 159.039L116.452 159.549L114.802 161.819L113.382 162.879L111.552 163.009L106.752 162.199L104.742 160.239L104.712 156.829L107.692 151.909L111.322 148.629L113.382 147.669L115.732 145.569L116.802 142.319L117.542 136.809L120.212 135.389L122.362 130.419L126.652 126.979L128.972 126.959L131.482 128.199L134.392 130.419L136.202 130.449L136.842 129.189L136.612 127.559L137.022 125.449L136.562 121.469L138.122 114.929L138.962 114.359L144.822 112.769L144.202 110.369L148.752 108.919L156.532 109.349L163.502 109.039L165.052 109.569L166.472 111.779L167.502 114.969L167.342 115.829L168.432 118.519L170.712 119.109L176.242 115.609L179.282 111.179L180.992 107.259L182.692 99.1588L183.822 97.0187L186.222 94.5387L188.402 93.0887L189.252 91.0287L191.112 90.6487L192.612 91.8887L193.432 91.5887L194.922 89.1487Z" fill="#FFDBD7" stroke="#FDC1BA" stroke-width="2" mask="url(#path-4-inside-2_1_45)"/>
<path d="M117.774 72.4047L125.438 72.6086L125.475 72.6095L125.511 72.6052L128.111 72.2952L128.188 72.2861L128.258 72.2541L131.587 70.7443L131.652 71.0523L132.64 70.9035L132.617 70.6535L134.641 70.9437L134.764 70.9613L134.88 70.9194L139.474 69.272L141.277 69.7519L142.659 72.7103L142.799 73.0107L143.13 72.9984L146.62 72.8684L146.724 72.8645L146.818 72.8197L148.111 72.2001L148.114 72.2045L146.704 77.1217L144.888 78.6177L142.774 79.5296L142.695 79.5636L142.632 79.6219L141.012 81.1219L140.937 81.1913L140.895 81.2847L138.995 85.5347L138.961 85.6118L138.953 85.696L138.833 87.096L138.826 87.1883L138.851 87.2772L139.621 89.9463L138.472 93.7958L138.441 93.9013L138.457 94.0102L139.147 98.7902L139.157 98.8632L139.189 98.9301L142.015 104.99L142.843 108.727L142.856 108.785L142.882 108.838L143.69 110.492L144.174 112.375L138.791 113.826L138.708 113.848L138.638 113.897L137.798 114.477L137.64 114.586L137.595 114.773L136.035 121.313L136.015 121.399L136.025 121.486L136.476 125.39L136.09 127.426L136.075 127.507L136.087 127.589L136.295 129.063L135.867 129.904L134.534 129.882L131.755 127.761L131.716 127.732L131.673 127.71L129.163 126.47L129.057 126.418L128.939 126.419L126.619 126.429L126.444 126.43L126.308 126.539L122.028 129.989L121.932 130.067L121.883 130.18L119.802 134.98L118.342 135.762L118.429 135.471L118.015 135.298L117.705 135.168L117.597 135.122L117.48 135.13L113.32 135.39L113.233 135.395L113.153 135.43L111.268 136.248L110.339 135.69L110.216 135.616L110.073 135.619L108.973 135.639L108.831 135.641L108.712 135.718L106.153 137.356L103.413 130.796L103.307 130.543L103.037 130.496L99.6474 129.906L99.4821 129.877L99.333 129.954L95.5894 131.879L94.1771 131.887L93.6469 128.04L93.6325 127.936L93.5768 127.846L93.0568 127.006L92.972 126.869L92.8232 126.807L91.8832 126.417L91.6115 126.304L91.381 126.487L90.0392 127.551L88.2598 128.252L90.3781 119.344L90.3869 119.307L90.39 119.269L90.8178 114.006L92.4827 105.313L92.5504 104.96L92.237 104.783L91.4781 104.356L88.4956 99.5838L88.4461 99.5046L88.3714 99.4486L85.3952 97.2188L85.1805 96.4793L85.0868 95.8904L86.0456 94.9816L86.1182 94.9128L86.1588 94.8213L86.9388 93.0613L86.9718 92.9867L86.9794 92.9055L87.8227 83.9207L87.9877 83.8437L92.1029 85.1261L92.2544 85.1733L92.4054 85.1245L94.7254 84.3745L94.8702 84.3277L94.9644 84.2082L95.7444 83.2182L95.8419 83.0944L95.8508 82.937L95.965 80.9165L96.7784 80.4791L96.862 80.4342L96.9233 80.3618L99.4565 77.3688L102.003 78.9258L105.532 84.39L105.762 84.7471L106.152 84.577L108.282 83.647L108.457 83.5702L108.537 83.3956L109.119 82.1138L111.028 81.0339L111.126 80.9786L111.19 80.8869L111.765 80.0712L111.947 80.3248L112.36 79.9844L114.118 78.5339L115.955 77.9242L115.994 77.9835L116.388 78.5823L116.814 78.0059L117.804 76.6659L117.864 76.5846L117.888 76.4864L118.198 75.2064L118.222 75.1075L118.205 75.007L117.774 72.4047Z" fill="#FFDBD7" stroke="#FDC1BA"/>
<mask id="path-6-inside-3_1_45" fill="white">
<path d="M5.38164 40.8887L8.57164 38.1087L11.7416 38.0887L15.8216 37.3687L17.3216 36.5787L17.5116 35.5887L21.4216 32.1487L23.0816 31.4887L30.0116 25.9587L32.5816 25.6888L33.2716 25.8788L34.1816 27.0087L34.6316 26.8987L35.1616 27.6487L36.0916 27.4987L43.0916 24.2387L46.1016 22.0287L47.2316 21.7687L49.7216 19.8287L55.5116 16.5287L62.1516 13.6087L66.5716 10.1787L67.0216 9.06873L67.0416 6.41873L68.7316 2.70874L72.5516 0.628754L74.5916 0.538727L78.6716 2.99875L79.2116 5.47873L80.9016 7.51874L84.1516 9.93875L89.8516 11.6787L92.2516 13.2188L93.3516 13.0887L97.1816 14.1687L99.3916 14.0887L102.222 12.2887L103.532 13.0687L103.692 14.3687L101.352 17.5287L98.1916 19.6187L97.6216 20.2087L97.2716 21.8087L95.1916 23.3587L94.1616 27.8587L94.9716 29.4388L96.2916 34.7287L97.9516 36.6387L100.952 43.7487L102.922 46.3788L103.712 49.1487L103.802 51.2487L105.022 54.6888L107.972 58.9287L111.432 61.1787L111.462 61.9787L112.242 62.6387L112.632 65.4088L114.532 70.2188L115.242 71.1588L116.692 71.2287L117.182 71.8887L117.712 75.0887L117.402 76.3687L116.412 77.7087L116.162 77.3287L113.872 78.0887L112.042 79.5988L111.762 79.2087L110.782 80.5988L108.732 81.7587L108.082 83.1888L105.952 84.1187L102.362 78.5587L99.3516 76.7188L96.5416 80.0387L95.4816 80.6087L95.3516 82.9088L94.5716 83.8987L92.2516 84.6487L87.9516 83.3087L87.3516 83.5887L86.4816 92.8587L85.7016 94.6187L84.5516 95.7087L84.6916 96.5887L84.9616 97.5187L88.0716 99.8488L91.1216 104.729L91.9916 105.219L90.3216 113.939L89.8916 119.229L87.5516 129.069L81.6616 129.949L80.1516 131.319L76.9716 132.559L73.9316 132.429L71.2316 133.009L65.1416 133.259L64.7716 132.979L65.1016 131.849L69.0716 127.839L68.6616 124.969L67.5616 122.269L67.6616 120.049L67.0216 118.949L64.0416 117.729L63.6316 117.019L63.3016 111.359L62.1316 109.469L55.9316 109.249L53.4616 109.849L52.3316 110.959L51.3116 111.219L49.7216 110.089L47.9716 105.749L45.3716 105.459L43.7516 106.939L42.6116 111.179L39.8316 115.149L38.0916 115.639L34.0416 115.359L31.7016 114.229L28.6916 111.869L25.4916 107.359L24.4716 104.319L21.4216 101.849L19.3016 99.3387L18.7816 95.6787L19.2916 95.1087L19.7016 95.3488L21.4416 89.3687L21.6016 86.2787L21.0616 84.5287L20.1816 83.9187H18.8116L18.3416 84.3687L17.7716 85.6187L16.8316 91.1787L15.9916 91.0487L14.6816 88.8788L14.1216 86.5187L13.9716 80.0387L13.5616 78.6087L12.3216 76.8187L10.4216 75.8887L6.93164 76.0988L0.961639 80.3887L2.03164 78.3087L2.76164 74.0087L4.09164 69.8587L3.79164 68.7387L4.16164 66.0387L5.29164 63.7787L5.65164 60.8887L3.21164 57.8287L2.04164 53.8387L2.12164 51.8187L3.17164 49.9487L2.73164 47.8987L3.21164 47.1987L4.46164 46.8987L5.83164 44.0187L5.40164 43.5787L6.13164 42.6087L6.14164 41.5387L5.38164 40.8887Z"/>
</mask>
<path d="M5.38164 40.8887L8.57164 38.1087L11.7416 38.0887L15.8216 37.3687L17.3216 36.5787L17.5116 35.5887L21.4216 32.1487L23.0816 31.4887L30.0116 25.9587L32.5816 25.6888L33.2716 25.8788L34.1816 27.0087L34.6316 26.8987L35.1616 27.6487L36.0916 27.4987L43.0916 24.2387L46.1016 22.0287L47.2316 21.7687L49.7216 19.8287L55.5116 16.5287L62.1516 13.6087L66.5716 10.1787L67.0216 9.06873L67.0416 6.41873L68.7316 2.70874L72.5516 0.628754L74.5916 0.538727L78.6716 2.99875L79.2116 5.47873L80.9016 7.51874L84.1516 9.93875L89.8516 11.6787L92.2516 13.2188L93.3516 13.0887L97.1816 14.1687L99.3916 14.0887L102.222 12.2887L103.532 13.0687L103.692 14.3687L101.352 17.5287L98.1916 19.6187L97.6216 20.2087L97.2716 21.8087L95.1916 23.3587L94.1616 27.8587L94.9716 29.4388L96.2916 34.7287L97.9516 36.6387L100.952 43.7487L102.922 46.3788L103.712 49.1487L103.802 51.2487L105.022 54.6888L107.972 58.9287L111.432 61.1787L111.462 61.9787L112.242 62.6387L112.632 65.4088L114.532 70.2188L115.242 71.1588L116.692 71.2287L117.182 71.8887L117.712 75.0887L117.402 76.3687L116.412 77.7087L116.162 77.3287L113.872 78.0887L112.042 79.5988L111.762 79.2087L110.782 80.5988L108.732 81.7587L108.082 83.1888L105.952 84.1187L102.362 78.5587L99.3516 76.7188L96.5416 80.0387L95.4816 80.6087L95.3516 82.9088L94.5716 83.8987L92.2516 84.6487L87.9516 83.3087L87.3516 83.5887L86.4816 92.8587L85.7016 94.6187L84.5516 95.7087L84.6916 96.5887L84.9616 97.5187L88.0716 99.8488L91.1216 104.729L91.9916 105.219L90.3216 113.939L89.8916 119.229L87.5516 129.069L81.6616 129.949L80.1516 131.319L76.9716 132.559L73.9316 132.429L71.2316 133.009L65.1416 133.259L64.7716 132.979L65.1016 131.849L69.0716 127.839L68.6616 124.969L67.5616 122.269L67.6616 120.049L67.0216 118.949L64.0416 117.729L63.6316 117.019L63.3016 111.359L62.1316 109.469L55.9316 109.249L53.4616 109.849L52.3316 110.959L51.3116 111.219L49.7216 110.089L47.9716 105.749L45.3716 105.459L43.7516 106.939L42.6116 111.179L39.8316 115.149L38.0916 115.639L34.0416 115.359L31.7016 114.229L28.6916 111.869L25.4916 107.359L24.4716 104.319L21.4216 101.849L19.3016 99.3387L18.7816 95.6787L19.2916 95.1087L19.7016 95.3488L21.4416 89.3687L21.6016 86.2787L21.0616 84.5287L20.1816 83.9187H18.8116L18.3416 84.3687L17.7716 85.6187L16.8316 91.1787L15.9916 91.0487L14.6816 88.8788L14.1216 86.5187L13.9716 80.0387L13.5616 78.6087L12.3216 76.8187L10.4216 75.8887L6.93164 76.0988L0.961639 80.3887L2.03164 78.3087L2.76164 74.0087L4.09164 69.8587L3.79164 68.7387L4.16164 66.0387L5.29164 63.7787L5.65164 60.8887L3.21164 57.8287L2.04164 53.8387L2.12164 51.8187L3.17164 49.9487L2.73164 47.8987L3.21164 47.1987L4.46164 46.8987L5.83164 44.0187L5.40164 43.5787L6.13164 42.6087L6.14164 41.5387L5.38164 40.8887Z" fill="#FFDBD7" stroke="#FDC1BA" stroke-width="2" mask="url(#path-6-inside-3_1_45)"/>
</svg>
