<svg width="295" height="184" viewBox="0 0 295 184" fill="none" xmlns="http://www.w3.org/2000/svg">
<mask id="path-1-inside-1_6_47" fill="white">
<path d="M183.43 124.672L188.911 126.161L194.018 126.912L199.246 129.044L202.2 130.738L205.351 131.332L205.993 131.248L207.986 132.93L211.185 134.269L211.869 133.609L211.923 132.792L209.102 125.801L209.054 124.287L209.666 122.57L210.411 121.723L212.782 120.402L213.61 120.233L215.165 120.125L216.773 120.39L222.83 122.624L226.947 123.555L229.876 123.801L232.253 123.669L232.259 123.248L239.336 128.612L237.061 132.197L238.201 132.54L241.875 130.96L246.359 130.389L251.268 130.678L255.758 131.741L258.843 134.684L261.508 138.077L266.532 142.624L266.448 143.014L267.151 143.831L266.994 144.455L267.331 145.524L266.976 147.464L265.548 151.002L265.722 154.557L265.17 155.416L263.315 156.581L261.25 158.533L259.264 162.233L257.997 169.14L258.363 169.578L258.165 170.227L258.147 175.488L257.007 180.407L256.574 180.587L255.302 180.149L254.834 181.002L254.894 182.203L253.201 183.248L252.127 183.38L250.458 183.116L250.068 182.185L247.139 178.203L243.82 174.761L242.925 174.329L241.071 174.197L235.326 175.542L232.697 175.278L231.971 174.743L232.367 171.879L232.031 170.894L226.845 167.662L223.586 166.647L222.319 166.605L220.933 166.96L219.666 167.362L218.754 168.083L219.216 170.786L217.331 171.939L215.453 172.437L213.148 172.353L211.911 171.951L210.759 172.221L209.943 173.272L208.526 174.449L206.731 174.743L205.711 173.38L205.207 170.822L204.15 170.041L203.538 171.428L201.491 171.65L200.429 173.38L199.276 173.939L197.506 173.788L195.435 174.029L194.685 178.972L194.091 180.203L193.244 180.557L192.176 180.113L189.769 177.903L189.379 176.978L189.481 176.431L190.849 172.575L190.309 169.2L189.457 167.915L188.544 167.224L186.858 167.014L185.531 168.281L184.271 168.719L182.518 167.807L180.369 166.149L178.635 164.137L176.99 160.227L177.068 159.909L177.314 159.608L177.818 159.957L179.841 161.933L180.333 161.873L181.144 162.503H182.2L182.404 159.849L182.98 158.984L186.846 157.11L188.826 155.242L189.991 151.741L190.243 149.38L190.525 148.606L191.263 147.879L191.479 146.792L190.591 146.509L188.604 146.702L187.842 146.071L187.098 142.75L186.756 138.66L186.75 134.516L186.312 133.404L184.691 131.837L183.562 129.903L183.238 126.377L183.43 124.672Z"/>
</mask>
<path d="M183.43 124.672L188.911 126.161L194.018 126.912L199.246 129.044L202.2 130.738L205.351 131.332L205.993 131.248L207.986 132.93L211.185 134.269L211.869 133.609L211.923 132.792L209.102 125.801L209.054 124.287L209.666 122.57L210.411 121.723L212.782 120.402L213.61 120.233L215.165 120.125L216.773 120.39L222.83 122.624L226.947 123.555L229.876 123.801L232.253 123.669L232.259 123.248L239.336 128.612L237.061 132.197L238.201 132.54L241.875 130.96L246.359 130.389L251.268 130.678L255.758 131.741L258.843 134.684L261.508 138.077L266.532 142.624L266.448 143.014L267.151 143.831L266.994 144.455L267.331 145.524L266.976 147.464L265.548 151.002L265.722 154.557L265.17 155.416L263.315 156.581L261.25 158.533L259.264 162.233L257.997 169.14L258.363 169.578L258.165 170.227L258.147 175.488L257.007 180.407L256.574 180.587L255.302 180.149L254.834 181.002L254.894 182.203L253.201 183.248L252.127 183.38L250.458 183.116L250.068 182.185L247.139 178.203L243.82 174.761L242.925 174.329L241.071 174.197L235.326 175.542L232.697 175.278L231.971 174.743L232.367 171.879L232.031 170.894L226.845 167.662L223.586 166.647L222.319 166.605L220.933 166.96L219.666 167.362L218.754 168.083L219.216 170.786L217.331 171.939L215.453 172.437L213.148 172.353L211.911 171.951L210.759 172.221L209.943 173.272L208.526 174.449L206.731 174.743L205.711 173.38L205.207 170.822L204.15 170.041L203.538 171.428L201.491 171.65L200.429 173.38L199.276 173.939L197.506 173.788L195.435 174.029L194.685 178.972L194.091 180.203L193.244 180.557L192.176 180.113L189.769 177.903L189.379 176.978L189.481 176.431L190.849 172.575L190.309 169.2L189.457 167.915L188.544 167.224L186.858 167.014L185.531 168.281L184.271 168.719L182.518 167.807L180.369 166.149L178.635 164.137L176.99 160.227L177.068 159.909L177.314 159.608L177.818 159.957L179.841 161.933L180.333 161.873L181.144 162.503H182.2L182.404 159.849L182.98 158.984L186.846 157.11L188.826 155.242L189.991 151.741L190.243 149.38L190.525 148.606L191.263 147.879L191.479 146.792L190.591 146.509L188.604 146.702L187.842 146.071L187.098 142.75L186.756 138.66L186.75 134.516L186.312 133.404L184.691 131.837L183.562 129.903L183.238 126.377L183.43 124.672Z" fill="#A6A29B" stroke="#A6A29B" stroke-width="2" mask="url(#path-1-inside-1_6_47)"/>
<mask id="path-2-inside-2_6_47" fill="white">
<path d="M129.404 98.3416L130.724 98.684L132.387 99.6329L134.5 101.585L136.162 104.179L137.693 109.134L139.92 110.516L141.546 112.131L144.83 116.498L146.462 118.023L147.441 118.173L147.639 117.963L148.011 116.227L148.755 114.708L148.869 114.552L149.463 115.08L149.74 115.026L149.776 113.242L151.918 112.197L152.591 110.245L157.068 110.336L157.909 110.059L157.549 111.645L156.618 113.242V113.759L157.11 114.774L158.425 116.372L158.749 120.077L158.047 122.906L158.023 125.723L157.056 126.726L156.546 127.999L156.444 130.245L156.858 130.582L159.415 128.81L164.973 126.365L172.416 124.341L176.66 123.921L178.809 124.329L183.43 124.672L183.238 126.377L183.563 129.903L184.691 131.837L186.312 133.404L186.75 134.516L186.756 138.66L187.098 142.75L187.842 146.071L188.604 146.702L190.591 146.509L191.48 146.792L191.263 147.879L190.525 148.606L190.243 149.38L189.991 151.741L188.827 155.242L186.846 157.11L182.98 158.984L182.404 159.849L182.2 162.503H181.144L180.333 161.873L179.841 161.933L177.818 159.957L177.314 159.608L177.068 159.909L176.402 158.936L174.937 158.485L172.95 158.942L171.666 160.203L170.201 160.75L166.492 165.206L162.903 167.524L159.919 170.762L159.175 170.96L158.761 170.755L157.963 169.548L157.518 169.518L157.41 168.149L156.864 167.999L155.226 171.008L154.421 172.131L153.497 172.647L152.152 174.035L151.408 176.509L151.372 178.149L150.268 179.656L149.409 180.191L147.255 179.794L146.252 180.257L145.634 176.635L144.788 175.428L144.253 173.867L144.812 170.551L144.043 169.26L145.34 167.128L146.486 164.233L146.45 161.735L147.423 159.368L147.609 158.215L147.519 156.167L147.044 154.96L146.174 154.311L145.844 153.038L144.794 152.191L143.671 152.437L142.795 153.032L142.537 152.804L140.286 153.308L139.89 152.329L140.034 152.023L139.59 151.687L139.302 150.642L138.791 150.275L138.749 149.542L138.113 148.335L136.576 148.245L136.132 148.551L134.776 148.666L133.599 147.326L133.269 147.362L132.513 146.515L132.123 146.557L131.186 145.296L127.621 147.056L126.343 146.738L125.694 146.269L125.526 145.639L125.664 144.479L126.241 143.368L126.078 142.888L124.77 143.038L124.494 142.648L124.722 142.113L124.554 141.705L124.134 141.488L123.083 141.711L122.621 141.326L122.483 140.858L119.638 138.353L118.413 136.732L118.84 134.245L117.333 133.987L114.56 134.516L110.466 133.08L109.356 132.065L108.588 132.047L107.795 131.47L107.003 129.218L107.051 128.281L108.426 126.474L109.23 126.089L109.398 125.266L109.062 124.846L107.675 124.684L105.473 125.068L103.984 125.921L103.654 125.651L103.672 123.08L104.326 122.828L104.776 121.963L104.284 120.516L101.427 118.966L101.349 118.612L99.8964 117.525L99.8544 117.122L98.4078 115.651L97.2554 113.429L97.3574 112.834L98.6419 111.375L100.016 109.026L102.243 106.6L104.404 105.224L105.467 106.798L106.769 107.855L110.995 109.663L112.099 109.711L113.756 110.36L115.983 110.233L117.261 110.648L119.614 110.576L123.395 111.489L125.214 111.188L126.156 108.93L126.541 105.032L127.927 100.354L129.404 98.3416Z"/>
</mask>
<path d="M129.404 98.3416L130.724 98.684L132.387 99.6329L134.5 101.585L136.162 104.179L137.693 109.134L139.92 110.516L141.546 112.131L144.83 116.498L146.462 118.023L147.441 118.173L147.639 117.963L148.011 116.227L148.755 114.708L148.869 114.552L149.463 115.08L149.74 115.026L149.776 113.242L151.918 112.197L152.591 110.245L157.068 110.336L157.909 110.059L157.549 111.645L156.618 113.242V113.759L157.11 114.774L158.425 116.372L158.749 120.077L158.047 122.906L158.023 125.723L157.056 126.726L156.546 127.999L156.444 130.245L156.858 130.582L159.415 128.81L164.973 126.365L172.416 124.341L176.66 123.921L178.809 124.329L183.43 124.672L183.238 126.377L183.563 129.903L184.691 131.837L186.312 133.404L186.75 134.516L186.756 138.66L187.098 142.75L187.842 146.071L188.604 146.702L190.591 146.509L191.48 146.792L191.263 147.879L190.525 148.606L190.243 149.38L189.991 151.741L188.827 155.242L186.846 157.11L182.98 158.984L182.404 159.849L182.2 162.503H181.144L180.333 161.873L179.841 161.933L177.818 159.957L177.314 159.608L177.068 159.909L176.402 158.936L174.937 158.485L172.95 158.942L171.666 160.203L170.201 160.75L166.492 165.206L162.903 167.524L159.919 170.762L159.175 170.96L158.761 170.755L157.963 169.548L157.518 169.518L157.41 168.149L156.864 167.999L155.226 171.008L154.421 172.131L153.497 172.647L152.152 174.035L151.408 176.509L151.372 178.149L150.268 179.656L149.409 180.191L147.255 179.794L146.252 180.257L145.634 176.635L144.788 175.428L144.253 173.867L144.812 170.551L144.043 169.26L145.34 167.128L146.486 164.233L146.45 161.735L147.423 159.368L147.609 158.215L147.519 156.167L147.044 154.96L146.174 154.311L145.844 153.038L144.794 152.191L143.671 152.437L142.795 153.032L142.537 152.804L140.286 153.308L139.89 152.329L140.034 152.023L139.59 151.687L139.302 150.642L138.791 150.275L138.749 149.542L138.113 148.335L136.576 148.245L136.132 148.551L134.776 148.666L133.599 147.326L133.269 147.362L132.513 146.515L132.123 146.557L131.186 145.296L127.621 147.056L126.343 146.738L125.694 146.269L125.526 145.639L125.664 144.479L126.241 143.368L126.078 142.888L124.77 143.038L124.494 142.648L124.722 142.113L124.554 141.705L124.134 141.488L123.083 141.711L122.621 141.326L122.483 140.858L119.638 138.353L118.413 136.732L118.84 134.245L117.333 133.987L114.56 134.516L110.466 133.08L109.356 132.065L108.588 132.047L107.795 131.47L107.003 129.218L107.051 128.281L108.426 126.474L109.23 126.089L109.398 125.266L109.062 124.846L107.675 124.684L105.473 125.068L103.984 125.921L103.654 125.651L103.672 123.08L104.326 122.828L104.776 121.963L104.284 120.516L101.427 118.966L101.349 118.612L99.8964 117.525L99.8544 117.122L98.4078 115.651L97.2554 113.429L97.3574 112.834L98.6419 111.375L100.016 109.026L102.243 106.6L104.404 105.224L105.467 106.798L106.769 107.855L110.995 109.663L112.099 109.711L113.756 110.36L115.983 110.233L117.261 110.648L119.614 110.576L123.395 111.489L125.214 111.188L126.156 108.93L126.541 105.032L127.927 100.354L129.404 98.3416Z" fill="#A6A29B" stroke="#A6A29B" stroke-width="2" mask="url(#path-2-inside-2_6_47)"/>
<mask id="path-3-inside-3_6_47" fill="white">
<path d="M34.9934 45.7534L38.2227 45.2009L45.0173 44.9907L47.1901 45.5492L55.5813 55.0747L56.7758 56.9365L60.1431 60.8284L61.5176 61.7773L62.538 61.6692L63.1622 61.9575L63.3243 63.7233L62.8861 66.516L62.9222 69.7472L63.4504 71.9574L64.2307 72.1917L68.7744 71.7172L69.2786 72.1616L69.5367 73.1346L69.4227 75.1946L69.6327 76.0355L70.0289 76.6481L71.9556 78.0955L73.7803 78.3298L74.4226 78.6601L74.9628 79.9273L75.407 83.2006L76.5414 83.9934L77.7419 83.9874L83.24 81.8492L84.6865 81.7531L88.498 83.5609L89.3503 84.2216L93.1618 88.5639L94.5123 88.9783L96.8892 88.2816L99.6022 88.7681L101.841 89.7351L102.225 89.5729L109.29 93.9693L112.405 96.1735L112.963 97.0683L113.84 97.4948L114.944 97.8551L117.897 98.0473L119.932 97.5008L124.446 97.3146L129.404 98.3416L127.927 100.354L126.541 105.032L126.156 108.93L125.214 111.188L123.395 111.489L119.614 110.576L117.261 110.648L115.983 110.233L113.756 110.36L112.099 109.711L110.995 109.663L106.769 107.855L105.466 106.798L104.404 105.224L102.243 106.6L100.016 109.026L98.6419 111.375L97.3574 112.834L97.2553 113.429L98.4078 115.651L99.8543 117.122L99.8964 117.525L101.349 118.612L101.427 118.966L104.284 120.516L104.776 121.963L104.326 122.828L100.869 122.882L98.4018 123.687L97.9096 125.02L98.0837 125.398L97.4594 126.696L96.6851 126.365L95.5147 126.714L94.1341 126.341L92.7356 126.48L92.1654 126.185L91.283 124.948L90.7128 124.726L88.0238 125.477L87.4056 125.182L87.0394 124.179L86.7933 124.281L86.5592 123.957L85.5569 124.438L83.462 124.516L82.5737 122.612L81.2652 122.263L78.4201 123.284L76.8295 123.056L76.8775 123.585L76.7695 123.074L76.5534 123.128L74.4226 124.095L72.862 124.281L67.8981 124.149L67.604 123.753L66.7336 123.711L66.3075 123.146L65.167 120.257L64.9329 118.594L64.4647 118.197L64.4467 117.717L62.3699 116.366L60.5993 113.819L59.867 111.753L59.813 110.492L59.3388 108.828L58.1563 107.248L56.3556 102.978L55.3593 101.831L54.5669 98.6539L54.0808 97.705L54.699 95.0023L55.9475 94.0714L56.1576 93.1104L56.4997 92.7561L58.3964 91.5008L59.801 89.6029L59.7049 88.8222L58.9186 88.3537L57.22 89.4348L55.8935 89.4828L53.5946 88.8342L52.9343 88.9123L51.4938 87.9873L48.0725 86.9423L46.1217 85.4889L45.1073 84.2636L44.7832 82.7742L42.3343 81.2967L41.1098 81.3508L38.8169 82.6L37.8025 84.8282L37.7905 86.4198L37.5204 87.0864L34.8674 89.1465L30.8819 90.9002L27.4065 92.8822L25.9119 94.0473L25.2337 94.2035L23.427 95.5308L19.2254 97.4888L18.6672 97.5789L18.349 97.1284L18.0789 97.1945L17.5327 96.5158L17.1186 96.4017L15.576 96.5638L11.4164 99.8851L10.42 100.282L8.0731 102.348L7.95906 102.942L7.05871 103.417L4.60977 103.849L2.70704 103.861L0.792304 105.531L1.12843 104.462L0.774297 103.645L0.768295 101.519L0.342131 100.978L0.486187 100.113L0.816313 99.2785L0.582223 97.6509L0 96.5759L0.44417 95.735L1.3025 95.1885L1.06241 93.1825L1.47657 93.0444L1.68065 92.0113L1.5606 91.639L1.5726 91.1104L1.98676 90.1255L2.24486 89.1885L1.99877 88.7321L1.83671 88.2696L1.62662 87.8012L1.70465 87.0984L1.85471 86.0594L1.95075 85.645L5.17399 85.7531L5.60015 85.657L6.23039 84.9483L8.36121 84.612L8.75736 85.1045L9.50165 85.3747L10.396 85.3147L13.3671 84.2757L13.5172 83.2186L14.6876 80.8883L14.7897 78.6421L15.9361 77.5129L15.732 74.0175L14.9637 71.6091L15.1498 70.7562L15.8461 69.6271L17.3287 68.7983L17.8208 67.6992L19.3754 65.525L19.8856 63.6632L20.5099 63.3088L21.7944 63.459L23.0489 62.42L23.1089 61.6872L22.3046 60.1497L22.1125 58.9906L22.3346 58.1858L23.0008 57.453L27.0524 55.8314L29.0872 55.9756L29.7714 55.7954L30.9839 54.5582L31.0559 53.7774L32.4725 52.2218L32.8146 50.7744L32.9647 47.7894L33.4749 47.1288L34.7233 46.6123L34.9934 45.7534Z"/>
</mask>
<path d="M34.9934 45.7534L38.2227 45.2009L45.0173 44.9907L47.1901 45.5492L55.5813 55.0747L56.7758 56.9365L60.1431 60.8284L61.5176 61.7773L62.538 61.6692L63.1622 61.9575L63.3243 63.7233L62.8861 66.516L62.9222 69.7472L63.4504 71.9574L64.2307 72.1917L68.7744 71.7172L69.2786 72.1616L69.5367 73.1346L69.4227 75.1946L69.6327 76.0355L70.0289 76.6481L71.9556 78.0955L73.7803 78.3298L74.4226 78.6601L74.9628 79.9273L75.407 83.2006L76.5414 83.9934L77.7419 83.9874L83.24 81.8492L84.6865 81.7531L88.498 83.5609L89.3503 84.2216L93.1618 88.5639L94.5123 88.9783L96.8892 88.2816L99.6022 88.7681L101.841 89.7351L102.225 89.5729L109.29 93.9693L112.405 96.1735L112.963 97.0683L113.84 97.4948L114.944 97.8551L117.897 98.0473L119.932 97.5008L124.446 97.3146L129.404 98.3416L127.927 100.354L126.541 105.032L126.156 108.93L125.214 111.188L123.395 111.489L119.614 110.576L117.261 110.648L115.983 110.233L113.756 110.36L112.099 109.711L110.995 109.663L106.769 107.855L105.466 106.798L104.404 105.224L102.243 106.6L100.016 109.026L98.6419 111.375L97.3574 112.834L97.2553 113.429L98.4078 115.651L99.8543 117.122L99.8964 117.525L101.349 118.612L101.427 118.966L104.284 120.516L104.776 121.963L104.326 122.828L100.869 122.882L98.4018 123.687L97.9096 125.02L98.0837 125.398L97.4594 126.696L96.6851 126.365L95.5147 126.714L94.1341 126.341L92.7356 126.48L92.1654 126.185L91.283 124.948L90.7128 124.726L88.0238 125.477L87.4056 125.182L87.0394 124.179L86.7933 124.281L86.5592 123.957L85.5569 124.438L83.462 124.516L82.5737 122.612L81.2652 122.263L78.4201 123.284L76.8295 123.056L76.8775 123.585L76.7695 123.074L76.5534 123.128L74.4226 124.095L72.862 124.281L67.8981 124.149L67.604 123.753L66.7336 123.711L66.3075 123.146L65.167 120.257L64.9329 118.594L64.4647 118.197L64.4467 117.717L62.3699 116.366L60.5993 113.819L59.867 111.753L59.813 110.492L59.3388 108.828L58.1563 107.248L56.3556 102.978L55.3593 101.831L54.5669 98.6539L54.0808 97.705L54.699 95.0023L55.9475 94.0714L56.1576 93.1104L56.4997 92.7561L58.3964 91.5008L59.801 89.6029L59.7049 88.8222L58.9186 88.3537L57.22 89.4348L55.8935 89.4828L53.5946 88.8342L52.9343 88.9123L51.4938 87.9873L48.0725 86.9423L46.1217 85.4889L45.1073 84.2636L44.7832 82.7742L42.3343 81.2967L41.1098 81.3508L38.8169 82.6L37.8025 84.8282L37.7905 86.4198L37.5204 87.0864L34.8674 89.1465L30.8819 90.9002L27.4065 92.8822L25.9119 94.0473L25.2337 94.2035L23.427 95.5308L19.2254 97.4888L18.6672 97.5789L18.349 97.1284L18.0789 97.1945L17.5327 96.5158L17.1186 96.4017L15.576 96.5638L11.4164 99.8851L10.42 100.282L8.0731 102.348L7.95906 102.942L7.05871 103.417L4.60977 103.849L2.70704 103.861L0.792304 105.531L1.12843 104.462L0.774297 103.645L0.768295 101.519L0.342131 100.978L0.486187 100.113L0.816313 99.2785L0.582223 97.6509L0 96.5759L0.44417 95.735L1.3025 95.1885L1.06241 93.1825L1.47657 93.0444L1.68065 92.0113L1.5606 91.639L1.5726 91.1104L1.98676 90.1255L2.24486 89.1885L1.99877 88.7321L1.83671 88.2696L1.62662 87.8012L1.70465 87.0984L1.85471 86.0594L1.95075 85.645L5.17399 85.7531L5.60015 85.657L6.23039 84.9483L8.36121 84.612L8.75736 85.1045L9.50165 85.3747L10.396 85.3147L13.3671 84.2757L13.5172 83.2186L14.6876 80.8883L14.7897 78.6421L15.9361 77.5129L15.732 74.0175L14.9637 71.6091L15.1498 70.7562L15.8461 69.6271L17.3287 68.7983L17.8208 67.6992L19.3754 65.525L19.8856 63.6632L20.5099 63.3088L21.7944 63.459L23.0489 62.42L23.1089 61.6872L22.3046 60.1497L22.1125 58.9906L22.3346 58.1858L23.0008 57.453L27.0524 55.8314L29.0872 55.9756L29.7714 55.7954L30.9839 54.5582L31.0559 53.7774L32.4725 52.2218L32.8146 50.7744L32.9647 47.7894L33.4749 47.1288L34.7233 46.6123L34.9934 45.7534Z" fill="#A6A29B" stroke="#A6A29B" stroke-width="2" mask="url(#path-3-inside-3_6_47)"/>
<mask id="path-4-inside-4_6_47" fill="white">
<path d="M181.978 76.4499L182.782 75.8373L183.232 75.9034L183.593 77.0325L184.013 77.5069L184.913 77.1406L185.471 77.2247L186.936 78.2997L187.74 78.1496L188.791 78.7862H189.451L190.837 77.525L191.402 75.9995L192.392 74.7262L192.998 74.516L193.658 74.7502L195.417 76.3538L195.609 78.3058L198.142 79.7712L198.76 80.7382L198.73 86.5639L198.97 87.3507L199.775 87.9273L200.465 87.8012L201.876 86.8402L204.372 83.9874L204.907 82.8463L205.681 82.2577L206.479 82.3898L207.38 83.1405L209.667 83.2847L212.872 86.8342L213.232 87.9754L214.714 88.0534L215.681 87.8012L216.173 87.3687L218.16 84.1255L219.75 80.7562L220.405 80.4138L221.419 81.4048L222.872 81.4709L224.12 81.9814L224.498 84.6721L225.657 86.7201L226.953 87.3087L230.146 87.645H232.367L234.03 86.8342L234.654 87.1705L235.861 88.4979L235.386 90.2576L233.766 92.666L232.499 93.8552L231.653 93.9753L230.777 94.6059L229.846 96.3236L228.916 97.1404L228.724 98.4918L229.108 99.5248L230.362 100.984L230.555 101.729L230.374 104.978L231.239 106.221L234.33 107.849L236.527 108.63L241.443 108.54L247.301 106.864L253.519 109.465L255.032 110.708L255.908 112.318L254.36 114.528L252.715 115.02L250.008 114.45L249.81 114.203L248.898 114.342L248.297 113.699L247.259 113.158H246.143L245.374 113.675L244.576 114.96L244.138 116.678L245.164 117.495L246.383 119.002L246.593 120.732L246.269 121.122L246.869 122.732L246.803 123.447L240.062 127.777L239.336 128.612L232.259 123.248L232.253 123.669L229.876 123.801L226.947 123.555L222.83 122.624L216.773 120.39L215.165 120.125L213.61 120.233L212.782 120.402L210.411 121.723L209.667 122.57L209.054 124.287L209.102 125.801L211.923 132.792L211.869 133.609L211.185 134.269L207.986 132.93L205.993 131.248L205.351 131.332L202.2 130.738L199.247 129.044L194.019 126.912L188.911 126.161L183.43 124.672L178.809 124.329L176.66 123.921L172.416 124.341L164.973 126.365L159.415 128.81L156.858 130.582L156.444 130.245L156.546 127.999L157.056 126.726L158.023 125.723L158.047 122.906L158.749 120.077L158.425 116.372L157.11 114.774L156.618 113.759V113.242L157.549 111.645L157.909 110.059L164.589 109.008L166.336 108.287L169.115 107.651L173.293 105.465L175.561 102.69L176.186 101.705L176.834 99.6629L177.308 99.4467L178.22 94.672L179.409 91.5068L179.739 87.3027L179.433 85.9874L179.481 82.612L180.747 78.6961L181.066 78.3298L181.684 78.2877L181.936 77.9154L181.978 76.4499Z"/>
</mask>
<path d="M181.978 76.4499L182.782 75.8373L183.232 75.9034L183.593 77.0325L184.013 77.5069L184.913 77.1406L185.471 77.2247L186.936 78.2997L187.74 78.1496L188.791 78.7862H189.451L190.837 77.525L191.402 75.9995L192.392 74.7262L192.998 74.516L193.658 74.7502L195.417 76.3538L195.609 78.3058L198.142 79.7712L198.76 80.7382L198.73 86.5639L198.97 87.3507L199.775 87.9273L200.465 87.8012L201.876 86.8402L204.372 83.9874L204.907 82.8463L205.681 82.2577L206.479 82.3898L207.38 83.1405L209.667 83.2847L212.872 86.8342L213.232 87.9754L214.714 88.0534L215.681 87.8012L216.173 87.3687L218.16 84.1255L219.75 80.7562L220.405 80.4138L221.419 81.4048L222.872 81.4709L224.12 81.9814L224.498 84.6721L225.657 86.7201L226.953 87.3087L230.146 87.645H232.367L234.03 86.8342L234.654 87.1705L235.861 88.4979L235.386 90.2576L233.766 92.666L232.499 93.8552L231.653 93.9753L230.777 94.6059L229.846 96.3236L228.916 97.1404L228.724 98.4918L229.108 99.5248L230.362 100.984L230.555 101.729L230.374 104.978L231.239 106.221L234.33 107.849L236.527 108.63L241.443 108.54L247.301 106.864L253.519 109.465L255.032 110.708L255.908 112.318L254.36 114.528L252.715 115.02L250.008 114.45L249.81 114.203L248.898 114.342L248.297 113.699L247.259 113.158H246.143L245.374 113.675L244.576 114.96L244.138 116.678L245.164 117.495L246.383 119.002L246.593 120.732L246.269 121.122L246.869 122.732L246.803 123.447L240.062 127.777L239.336 128.612L232.259 123.248L232.253 123.669L229.876 123.801L226.947 123.555L222.83 122.624L216.773 120.39L215.165 120.125L213.61 120.233L212.782 120.402L210.411 121.723L209.667 122.57L209.054 124.287L209.102 125.801L211.923 132.792L211.869 133.609L211.185 134.269L207.986 132.93L205.993 131.248L205.351 131.332L202.2 130.738L199.247 129.044L194.019 126.912L188.911 126.161L183.43 124.672L178.809 124.329L176.66 123.921L172.416 124.341L164.973 126.365L159.415 128.81L156.858 130.582L156.444 130.245L156.546 127.999L157.056 126.726L158.023 125.723L158.047 122.906L158.749 120.077L158.425 116.372L157.11 114.774L156.618 113.759V113.242L157.549 111.645L157.909 110.059L164.589 109.008L166.336 108.287L169.115 107.651L173.293 105.465L175.561 102.69L176.186 101.705L176.834 99.6629L177.308 99.4467L178.22 94.672L179.409 91.5068L179.739 87.3027L179.433 85.9874L179.481 82.612L180.747 78.6961L181.066 78.3298L181.684 78.2877L181.936 77.9154L181.978 76.4499Z" fill="#A6A29B" stroke="#A6A29B" stroke-width="2" mask="url(#path-4-inside-4_6_47)"/>
<mask id="path-5-inside-5_6_47" fill="white">
<path d="M36.578 8.24018L37.1122 7.92787L38.8469 8.14408L45.4734 11.7957L47.5683 12.6486L48.6847 12.8227L55.9895 12.3362L59.7049 12.5525L62.4059 12.042L64.1706 11.9999L67.3158 13.0149L72.3578 16.4383L73.3061 16.3783L75.0408 17.0149L75.3469 17.4593L75.2269 19.8917L73.7683 26.3241L70.9952 28.9848L68.6423 29.8496L67.754 30.4562L66.6496 31.6574L65.7732 33.6154L65.6652 37.4111L66.3375 38.8586L68.0961 40.4562L67.9221 42.8225L67.3038 44.7925L67.3158 46.1618L68.1682 46.7564L70.7612 47.0327L71.0973 46.7444L71.3974 43.2309L75.8511 41.7294L77.8799 41.5733L79.4645 40.6303L80.5269 39.3511L80.695 38.4321L80.2448 36.9667L79.1284 35.1469L78.0419 33.9637L77.2917 32.264L77.5618 31.4412L77.5858 25.6815L78.126 25.231L79.0563 24.9788L82.0575 25.2911L85.1907 23.7055L87.4716 23.123L88.0778 22.2281L88.1198 20.9848L87.4175 20.168L85.7729 19.189L85.4788 18.3182L85.8569 17.4353L87.1654 16.5644L87.3155 15.9218L86.6432 11.9819L86.1751 11.5374L85.1487 11.5555L84.5184 10.3483L81.3012 10.03L78.06 8.71465L75.8811 7.50745L75.3589 6.7507L75.2629 5.82578L76.0852 4.58255L78.9963 3.027L81.6553 2.05404L86.3791 0.954946L92.2974 0L94.4823 0.0240198L96.1869 0.450447L97.2013 1.4114L97.7895 5.32128L98.2757 6.07803L100.527 7.5615L100.815 8.63056L100.593 11.5194L100.809 13.9338L101.793 14.6846L108.198 14.2702L115.46 11.2191L117.819 10.9729L118.588 9.65158L120.64 7.99393L121.751 8.21015L122.567 8.87081L124.56 11.5134L126.841 15.5014L127.795 17.9578L127.753 18.4623L125.928 21.6935L125.688 24.5704L126.553 25.9998L126.637 26.8887L126.192 28.0899L126.336 30.3782L125.232 31.4592L125.034 32.8466L125.166 33.6694L126.997 34.8706L127.729 36.9847L128.587 37.3451L129.434 36.8105L132.663 32.6004L136.018 29.8977L137.495 28.9968L138.755 28.6304L140.502 28.5523L141.114 29.1529L141.738 30.7505L146.318 29.0328L148.701 29.3691L149.085 28.7806L148.683 27.3451L149.391 26.6244L152.23 26.9247L152.597 27.231L152.885 28.3842L153.053 31.0869L153.887 31.1709L155.238 30.7685L156.204 31.0328L157.392 33.3151L157.362 34.8586L156.552 37.3451L159.451 38.3421L161.39 39.3931L161.204 40.5823L160.592 41.6573L158.047 43.2189L157.536 44.1078L156.564 45.1168L155.262 45.9336L154.715 46.6783L155.334 47.8675L156.36 48.8645L160.364 50.36L168.089 50.3119L168.911 50.7143L169.109 51.3209L169.205 54.36L169.757 56.6903L169.817 58.5461L169.439 59.453L167.5 59.6993L166.972 59.9515L166.798 60.3359L166.9 60.8824L167.578 61.3449L169.751 62.1617L169.253 63.9755L171.054 64.9485L171.402 66.0776L169.547 67.9815L169.187 69.6571L168.713 70.1797L167.242 70.9544L166.906 71.513L166.852 72.9064L168.887 74.576L168.058 77.0565L169.535 76.6961L170.273 76.9484L165.081 84.3597L164.517 84.5039L159.001 79.6391L157.945 79.2607L151.324 79.543L149.715 79.7411L149.511 79.9694L149.295 88.1735L149.745 106.318L149.469 107.14L150.64 110.089L151.492 110.372L152.591 110.245L151.918 112.197L149.775 113.242L149.739 115.026L149.463 115.08L148.869 114.552L148.755 114.708L148.011 116.227L147.639 117.963L147.441 118.173L146.462 118.023L144.83 116.498L141.546 112.131L139.92 110.516L137.693 109.134L136.162 104.179L134.5 101.585L132.387 99.6329L130.724 98.6839L129.404 98.3416L124.446 97.3146L119.932 97.5008L117.897 98.0473L114.944 97.8551L113.84 97.4948L112.963 97.0683L112.405 96.1735L109.29 93.9693L102.225 89.5729L101.841 89.7351L99.6022 88.7681L96.8892 88.2816L94.5123 88.9783L93.1618 88.5639L89.3503 84.2216L88.498 83.5609L84.6865 81.7531L83.2399 81.8492L77.7418 83.9874L76.5414 83.9934L75.4069 83.2006L74.9628 79.9273L74.4226 78.6601L73.7803 78.3298L71.9556 78.0955L70.0289 76.6481L69.6327 76.0355L69.4226 75.1946L69.5367 73.1346L69.2786 72.1616L68.7744 71.7172L64.2306 72.1917L63.4503 71.9574L62.9221 69.7472L62.8861 66.516L63.3243 63.7233L63.1622 61.9575L62.538 61.6692L61.5176 61.7773L60.1431 60.8284L56.7758 56.9365L55.5813 55.0747L47.1901 45.5492L45.0173 44.9907L38.2227 45.2009L34.9934 45.7534L35.2875 43.9396L34.1111 43.5192L32.8506 42.306L31.8002 40.1799L33.6489 35.9937L33.5649 34.9787L34.0991 34.294L35.6477 33.4952L39.2971 35.4111L39.8973 33.5373L40.0474 31.7415L41.74 27.8797L41.3439 24.156L39.7292 23.0148L37.9466 19.6515L38.6728 16.8888L38.7509 15.6635L38.0126 12.6305L36.7341 12.138L36.9862 10.9669L36.8181 9.79572L37.1242 8.62456L36.578 8.24018Z"/>
</mask>
<path d="M36.578 8.24018L37.1122 7.92787L38.8469 8.14408L45.4734 11.7957L47.5683 12.6486L48.6847 12.8227L55.9895 12.3362L59.7049 12.5525L62.4059 12.042L64.1706 11.9999L67.3158 13.0149L72.3578 16.4383L73.3061 16.3783L75.0408 17.0149L75.3469 17.4593L75.2269 19.8917L73.7683 26.3241L70.9952 28.9848L68.6423 29.8496L67.754 30.4562L66.6496 31.6574L65.7732 33.6154L65.6652 37.4111L66.3375 38.8586L68.0961 40.4562L67.9221 42.8225L67.3038 44.7925L67.3158 46.1618L68.1682 46.7564L70.7612 47.0327L71.0973 46.7444L71.3974 43.2309L75.8511 41.7294L77.8799 41.5733L79.4645 40.6303L80.5269 39.3511L80.695 38.4321L80.2448 36.9667L79.1284 35.1469L78.0419 33.9637L77.2917 32.264L77.5618 31.4412L77.5858 25.6815L78.126 25.231L79.0563 24.9788L82.0575 25.2911L85.1907 23.7055L87.4716 23.123L88.0778 22.2281L88.1198 20.9848L87.4175 20.168L85.7729 19.189L85.4788 18.3182L85.8569 17.4353L87.1654 16.5644L87.3155 15.9218L86.6432 11.9819L86.1751 11.5374L85.1487 11.5555L84.5184 10.3483L81.3012 10.03L78.06 8.71465L75.8811 7.50745L75.3589 6.7507L75.2629 5.82578L76.0852 4.58255L78.9963 3.027L81.6553 2.05404L86.3791 0.954946L92.2974 0L94.4823 0.0240198L96.1869 0.450447L97.2013 1.4114L97.7895 5.32128L98.2757 6.07803L100.527 7.5615L100.815 8.63056L100.593 11.5194L100.809 13.9338L101.793 14.6846L108.198 14.2702L115.46 11.2191L117.819 10.9729L118.588 9.65158L120.64 7.99393L121.751 8.21015L122.567 8.87081L124.56 11.5134L126.841 15.5014L127.795 17.9578L127.753 18.4623L125.928 21.6935L125.688 24.5704L126.553 25.9998L126.637 26.8887L126.192 28.0899L126.336 30.3782L125.232 31.4592L125.034 32.8466L125.166 33.6694L126.997 34.8706L127.729 36.9847L128.587 37.3451L129.434 36.8105L132.663 32.6004L136.018 29.8977L137.495 28.9968L138.755 28.6304L140.502 28.5523L141.114 29.1529L141.738 30.7505L146.318 29.0328L148.701 29.3691L149.085 28.7806L148.683 27.3451L149.391 26.6244L152.23 26.9247L152.597 27.231L152.885 28.3842L153.053 31.0869L153.887 31.1709L155.238 30.7685L156.204 31.0328L157.392 33.3151L157.362 34.8586L156.552 37.3451L159.451 38.3421L161.39 39.3931L161.204 40.5823L160.592 41.6573L158.047 43.2189L157.536 44.1078L156.564 45.1168L155.262 45.9336L154.715 46.6783L155.334 47.8675L156.36 48.8645L160.364 50.36L168.089 50.3119L168.911 50.7143L169.109 51.3209L169.205 54.36L169.757 56.6903L169.817 58.5461L169.439 59.453L167.5 59.6993L166.972 59.9515L166.798 60.3359L166.9 60.8824L167.578 61.3449L169.751 62.1617L169.253 63.9755L171.054 64.9485L171.402 66.0776L169.547 67.9815L169.187 69.6571L168.713 70.1797L167.242 70.9544L166.906 71.513L166.852 72.9064L168.887 74.576L168.058 77.0565L169.535 76.6961L170.273 76.9484L165.081 84.3597L164.517 84.5039L159.001 79.6391L157.945 79.2607L151.324 79.543L149.715 79.7411L149.511 79.9694L149.295 88.1735L149.745 106.318L149.469 107.14L150.64 110.089L151.492 110.372L152.591 110.245L151.918 112.197L149.775 113.242L149.739 115.026L149.463 115.08L148.869 114.552L148.755 114.708L148.011 116.227L147.639 117.963L147.441 118.173L146.462 118.023L144.83 116.498L141.546 112.131L139.92 110.516L137.693 109.134L136.162 104.179L134.5 101.585L132.387 99.6329L130.724 98.6839L129.404 98.3416L124.446 97.3146L119.932 97.5008L117.897 98.0473L114.944 97.8551L113.84 97.4948L112.963 97.0683L112.405 96.1735L109.29 93.9693L102.225 89.5729L101.841 89.7351L99.6022 88.7681L96.8892 88.2816L94.5123 88.9783L93.1618 88.5639L89.3503 84.2216L88.498 83.5609L84.6865 81.7531L83.2399 81.8492L77.7418 83.9874L76.5414 83.9934L75.4069 83.2006L74.9628 79.9273L74.4226 78.6601L73.7803 78.3298L71.9556 78.0955L70.0289 76.6481L69.6327 76.0355L69.4226 75.1946L69.5367 73.1346L69.2786 72.1616L68.7744 71.7172L64.2306 72.1917L63.4503 71.9574L62.9221 69.7472L62.8861 66.516L63.3243 63.7233L63.1622 61.9575L62.538 61.6692L61.5176 61.7773L60.1431 60.8284L56.7758 56.9365L55.5813 55.0747L47.1901 45.5492L45.0173 44.9907L38.2227 45.2009L34.9934 45.7534L35.2875 43.9396L34.1111 43.5192L32.8506 42.306L31.8002 40.1799L33.6489 35.9937L33.5649 34.9787L34.0991 34.294L35.6477 33.4952L39.2971 35.4111L39.8973 33.5373L40.0474 31.7415L41.74 27.8797L41.3439 24.156L39.7292 23.0148L37.9466 19.6515L38.6728 16.8888L38.7509 15.6635L38.0126 12.6305L36.7341 12.138L36.9862 10.9669L36.8181 9.79572L37.1242 8.62456L36.578 8.24018Z" fill="#A6A29B" stroke="#A6A29B" stroke-width="2" mask="url(#path-5-inside-5_6_47)"/>
<mask id="path-6-inside-6_6_47" fill="white">
<path d="M225.05 38.0297L225.969 37.7354L227.877 37.7835L229.546 38.312L231.113 40.8105L231.581 43.6934L231.557 51.1287L238.141 49.8134L238.778 49.9396L239.858 51.0927L240.44 52.9726L240.596 56.5401L240.458 57.2428L239.03 59.9275L238.976 60.9425L239.336 61.453L241.689 62.3058L242.163 62.7323L242.703 63.4289L243.694 65.8734L244.63 66.6782L245.536 66.9965L248.417 67.1587L251.701 68.0475L257.727 67.6932L260.362 66.8463L262.097 63.7172L264.954 62.9365L265.254 61.9335L265.092 60.8884L263.189 58.45L263.369 57.5851L265.188 56.5161L269.75 58.8884L271.292 59.1947L276.85 62.1557L283.495 65.0025L287.204 67.4289L291.022 69.489L291.958 71.8553L292.084 73.1466L291.778 75.597L292.234 79.1766L293.615 81.4949L294.245 85.1105L293.915 85.9093L294.095 87.2606H294.353L294.479 90.5879L293.411 92.4377L286.1 95.9572L284.959 95.8912L279.245 97.1524L277.751 98.0173L276.514 100.534L273.669 103.969L269.401 106.227L264.792 110.822L263.333 111.537L260.686 112.143L258.219 112.468L255.908 112.317L255.032 110.708L253.519 109.465L247.301 106.864L241.443 108.54L236.527 108.63L234.33 107.849L231.239 106.221L230.374 104.978L230.555 101.729L230.362 100.984L229.108 99.5248L228.724 98.4917L228.916 97.1404L229.846 96.3236L230.777 94.6059L231.653 93.9753L232.499 93.8551L233.766 92.666L235.386 90.2576L235.861 88.4978L234.654 87.1705L234.03 86.8342L232.367 87.645H230.146L226.953 87.3086L225.657 86.7201L224.498 84.672L224.12 81.9814L222.872 81.4708L221.419 81.4048L220.405 80.4138L221.407 78.0475L221.335 75.9994L220.735 74.7442L219.708 74.0174L218.166 72.1676L216.209 68.9965L216.149 68.2998L216.779 67.4589L216.653 64.6121L217.71 63.8433L217.95 61.9935L219.096 61.0626L219.348 60.42L219.03 59.1587L219.45 54.4681L219.342 53.2849L219.546 52.6242L220.981 51.441L220.531 49.327L219.714 47.6333L219.846 46.0057L221.125 43.0207L222.265 42.1799L223.58 41.7414L224.372 40.8045L224.702 39.9456L224.828 38.2039L225.05 38.0297Z"/>
</mask>
<path d="M225.05 38.0297L225.969 37.7354L227.877 37.7835L229.546 38.312L231.113 40.8105L231.581 43.6934L231.557 51.1287L238.141 49.8134L238.778 49.9396L239.858 51.0927L240.44 52.9726L240.596 56.5401L240.458 57.2428L239.03 59.9275L238.976 60.9425L239.336 61.453L241.689 62.3058L242.163 62.7323L242.703 63.4289L243.694 65.8734L244.63 66.6782L245.536 66.9965L248.417 67.1587L251.701 68.0475L257.727 67.6932L260.362 66.8463L262.097 63.7172L264.954 62.9365L265.254 61.9335L265.092 60.8884L263.189 58.45L263.369 57.5851L265.188 56.5161L269.75 58.8884L271.292 59.1947L276.85 62.1557L283.495 65.0025L287.204 67.4289L291.022 69.489L291.958 71.8553L292.084 73.1466L291.778 75.597L292.234 79.1766L293.615 81.4949L294.245 85.1105L293.915 85.9093L294.095 87.2606H294.353L294.479 90.5879L293.411 92.4377L286.1 95.9572L284.959 95.8912L279.245 97.1524L277.751 98.0173L276.514 100.534L273.669 103.969L269.401 106.227L264.792 110.822L263.333 111.537L260.686 112.143L258.219 112.468L255.908 112.317L255.032 110.708L253.519 109.465L247.301 106.864L241.443 108.54L236.527 108.63L234.33 107.849L231.239 106.221L230.374 104.978L230.555 101.729L230.362 100.984L229.108 99.5248L228.724 98.4917L228.916 97.1404L229.846 96.3236L230.777 94.6059L231.653 93.9753L232.499 93.8551L233.766 92.666L235.386 90.2576L235.861 88.4978L234.654 87.1705L234.03 86.8342L232.367 87.645H230.146L226.953 87.3086L225.657 86.7201L224.498 84.672L224.12 81.9814L222.872 81.4708L221.419 81.4048L220.405 80.4138L221.407 78.0475L221.335 75.9994L220.735 74.7442L219.708 74.0174L218.166 72.1676L216.209 68.9965L216.149 68.2998L216.779 67.4589L216.653 64.6121L217.71 63.8433L217.95 61.9935L219.096 61.0626L219.348 60.42L219.03 59.1587L219.45 54.4681L219.342 53.2849L219.546 52.6242L220.981 51.441L220.531 49.327L219.714 47.6333L219.846 46.0057L221.125 43.0207L222.265 42.1799L223.58 41.7414L224.372 40.8045L224.702 39.9456L224.828 38.2039L225.05 38.0297Z" fill="#A6A29B" stroke="#A6A29B" stroke-width="2" mask="url(#path-6-inside-6_6_47)"/>
<path d="M176.536 77.709L176.82 77.8682L177.081 77.6722L177.759 77.1617L177.837 77.1025L177.888 77.0179L178.9 75.3162L179.205 75.1608L179.455 75.2611L180.253 76.9517L180.345 77.1457L180.549 77.213L181.113 77.3992L181.345 77.4757L181.45 77.4051L181.44 77.7555L181.406 77.8054L181.032 77.8309L180.824 77.845L180.688 78.0019L180.37 78.3683L180.303 78.4453L180.272 78.5422L179.005 82.4581L178.982 82.5297L178.981 82.6049L178.933 85.9802L178.932 86.0413L178.946 86.1007L179.234 87.3406L178.916 91.3972L177.752 94.4962L177.737 94.5362L177.729 94.5781L176.865 99.099L176.626 99.208L176.424 99.3001L176.357 99.5116L175.729 101.492L175.155 102.397L172.97 105.069L168.94 107.178L166.224 107.8L166.184 107.809L166.145 107.825L164.453 108.523L157.831 109.565L157.791 109.572L157.752 109.584L156.993 109.834L152.601 109.746L152.567 109.745L152.534 109.749L151.545 109.862L151.018 109.688L150.002 107.126L150.219 106.477L150.247 106.393L150.245 106.305L149.795 88.1739L150.005 80.2092L151.365 80.0416L157.868 79.7644L158.742 80.0774L164.186 84.8789L164.385 85.0538L164.641 84.9883L165.205 84.8442L165.385 84.7983L165.491 84.6466L170.552 77.4223L173.947 77.0726L175.714 77.2493L176.536 77.709Z" fill="#A6A29B" stroke="#A6A29B"/>
</svg>
