<svg width="150" height="150" viewBox="0 0 150 150" fill="none" xmlns="http://www.w3.org/2000/svg">
<g style="mix-blend-mode:luminosity">
<path d="M75.656 25.1432C75.656 22.2226 73.2942 19.8262 70.3325 19.8262H13.9485C11.0243 19.8262 8.625 22.1851 8.625 25.1432V110.44C8.625 113.36 10.9868 115.757 13.9485 115.757H123.043C125.967 115.757 128.366 113.398 128.366 110.44V35.7771C128.366 32.8565 126.004 30.4602 123.043 30.4602H80.942C78.0553 30.4602 75.656 28.1012 75.656 25.1432Z" fill="#F0F3F5"/>
<path fill-rule="evenodd" clip-rule="evenodd" d="M122.48 19.7894C122.48 15.4866 125.973 12 130.278 12C134.584 12 138.076 15.4866 138.076 19.7894C138.076 24.0922 134.584 27.5788 130.278 27.5788C125.973 27.5788 122.48 24.0922 122.48 19.7894ZM130.278 13.5C126.799 13.5 123.98 16.3167 123.98 19.7894C123.98 23.2621 126.799 26.0788 130.278 26.0788C133.758 26.0788 136.576 23.2621 136.576 19.7894C136.576 16.3167 133.758 13.5 130.278 13.5Z" fill="#999999"/>
<path fill-rule="evenodd" clip-rule="evenodd" d="M134.808 24.5384C135.101 24.2453 135.576 24.245 135.869 24.5377L141.53 30.1917C141.823 30.4844 141.823 30.9593 141.53 31.2524C141.238 31.5454 140.763 31.5457 140.47 31.253L134.809 25.599C134.516 25.3063 134.515 24.8314 134.808 24.5384ZM36.2541 46.8594C36.6683 46.8594 37.0041 47.1952 37.0041 47.6094V50.867C37.0041 51.2812 36.6683 51.617 36.2541 51.617C35.8399 51.617 35.5041 51.2812 35.5041 50.867V47.6094C35.5041 47.1952 35.8399 46.8594 36.2541 46.8594ZM28.1562 54.9484C28.1562 54.5342 28.492 54.1984 28.9062 54.1984H32.1678C32.582 54.1984 32.9178 54.5342 32.9178 54.9484C32.9178 55.3626 32.582 55.6984 32.1678 55.6984H28.9062C28.492 55.6984 28.1562 55.3626 28.1562 54.9484ZM39.5532 54.9484C39.5532 54.5342 39.889 54.1984 40.3032 54.1984H43.6023C44.0165 54.1984 44.3523 54.5342 44.3523 54.9484C44.3523 55.3626 44.0165 55.6984 43.6023 55.6984H40.3032C39.889 55.6984 39.5532 55.3626 39.5532 54.9484ZM36.2541 57.456C36.6683 57.456 37.0041 57.7917 37.0041 58.206V62.2873C37.0041 62.7015 36.6683 63.0373 36.2541 63.0373C35.8399 63.0373 35.5041 62.7015 35.5041 62.2873V58.206C35.5041 57.7917 35.8399 57.456 36.2541 57.456Z" fill="#999999"/>
<path fill-rule="evenodd" clip-rule="evenodd" d="M28.6815 77.416C25.3459 77.416 22.6084 80.1515 22.6084 83.4808V130.435C22.6084 133.764 25.3459 136.5 28.6815 136.5H101.186C104.522 136.5 107.259 133.764 107.259 130.435V83.4808C107.259 80.1515 104.522 77.416 101.186 77.416H28.6815ZM21.1084 83.4808C21.1084 79.3213 24.5192 75.916 28.6815 75.916H101.186C105.348 75.916 108.759 79.3213 108.759 83.4808V130.435C108.759 134.594 105.348 138 101.186 138H28.6815C24.5192 138 21.1084 134.594 21.1084 130.435V83.4808Z" fill="#999999"/>
<path d="M28.8694 85.4664C29.946 85.4664 30.8188 84.5947 30.8188 83.5193C30.8188 82.444 29.946 81.5723 28.8694 81.5723C27.7927 81.5723 26.9199 82.444 26.9199 83.5193C26.9199 84.5947 27.7927 85.4664 28.8694 85.4664Z" fill="#999999"/>
<path d="M35.2043 85.4664C36.281 85.4664 37.1538 84.5947 37.1538 83.5193C37.1538 82.444 36.281 81.5723 35.2043 81.5723C34.1277 81.5723 33.2549 82.444 33.2549 83.5193C33.2549 84.5947 34.1277 85.4664 35.2043 85.4664Z" fill="#999999"/>
<path d="M41.5403 85.4664C42.6169 85.4664 43.4897 84.5947 43.4897 83.5193C43.4897 82.444 42.6169 81.5723 41.5403 81.5723C40.4636 81.5723 39.5908 82.444 39.5908 83.5193C39.5908 84.5947 40.4636 85.4664 41.5403 85.4664Z" fill="#999999"/>
<path fill-rule="evenodd" clip-rule="evenodd" d="M21.1836 90.4453C21.1836 90.0311 21.5194 89.6953 21.9336 89.6953H107.747C108.161 89.6953 108.497 90.0311 108.497 90.4453C108.497 90.8595 108.161 91.1953 107.747 91.1953H21.9336C21.5194 91.1953 21.1836 90.8595 21.1836 90.4453Z" fill="#999999"/>
<path d="M59.3477 48.7706V108.194C59.3477 123.171 66.1707 124.332 69.2449 124.332C72.319 124.332 129.64 122.759 129.64 122.759C129.64 122.759 120.755 116.881 120.755 103.139V38.9229L70.3695 37.2754L59.3477 48.7706Z" fill="#FFD493"/>
<path fill-rule="evenodd" clip-rule="evenodd" d="M69.4323 48.9949L59.3477 48.7703L70.482 37.3125V47.909C70.482 48.5081 69.9946 48.9949 69.4323 48.9949ZM78.4295 115.42C78.4295 115.42 78.7295 122.872 69.2446 124.332C74.1547 124.332 88.5275 123.893 102.092 123.479C114.212 123.11 125.687 122.759 129.19 122.759C136.613 122.759 138.075 113.735 138.075 113.735L78.4295 115.42Z" fill="#FFBE5C"/>
<path fill-rule="evenodd" clip-rule="evenodd" d="M104.373 74.158C105.085 72.7352 105.422 70.9753 105.422 68.841C105.422 67.1561 105.16 65.5835 104.598 64.0483C104.035 62.588 103.248 61.2774 102.161 60.1916C101.074 59.1057 99.6866 58.2445 97.9621 57.608C96.2375 56.9714 94.2131 56.6719 91.8513 56.6719C89.4895 56.6719 87.615 56.8965 86.1904 57.3833C84.7658 57.8701 83.5661 58.3943 82.6289 58.881V63.4866C83.3412 63.0373 84.3909 62.5505 85.778 62.0263C87.1651 61.5395 89.0021 61.2774 91.3264 61.2774C93.2009 61.2774 94.7005 61.4647 95.8627 61.914C97.0248 62.3259 97.9246 62.925 98.5619 63.5989C99.1992 64.2729 99.6116 65.0592 99.8365 65.9579C100.061 66.8565 100.174 67.7926 100.174 68.7287C100.174 70.3762 99.8365 71.7242 99.1992 72.7726C98.5619 73.821 97.7371 74.7197 96.7249 75.4686C95.7127 76.2174 94.6255 76.8914 93.5008 77.4905C92.3387 78.1271 91.289 78.801 90.2767 79.6248C89.2645 80.4486 88.4398 81.4221 87.8024 82.6203C87.1651 83.8185 86.8277 85.3537 86.8277 87.2259V88.2368H91.2515V87.1884C91.2515 86.0651 91.5889 85.0916 92.3012 84.3053C93.0135 83.5189 93.8757 82.7701 94.9254 82.1335C95.9751 81.4595 97.0998 80.823 98.337 80.149C99.5741 79.5125 100.699 78.6887 101.748 77.7152C102.798 76.7791 103.66 75.5809 104.373 74.158ZM86.6028 98.8334C87.2776 99.5448 88.1774 99.8818 89.2271 99.8818C90.2768 99.8818 91.1765 99.5448 91.8513 98.8334C92.5636 98.1219 92.901 97.2607 92.901 96.2498C92.901 95.2388 92.5261 94.3776 91.8513 93.6662C91.1765 92.9547 90.2768 92.6177 89.2271 92.6177C88.1774 92.6177 87.2776 92.9547 86.6028 93.6662C85.8905 94.3776 85.5531 95.2388 85.5531 96.2498C85.5531 97.2982 85.928 98.1594 86.6028 98.8334Z" fill="#DD7E10"/>
</g>
</svg>
