<svg width="150" height="150" viewBox="0 0 150 150" fill="none" xmlns="http://www.w3.org/2000/svg">
<path d="M53.5717 17.6744V33.1205C53.5717 33.8714 54.1086 34.5146 54.86 34.6584C65.058 36.4813 72.7146 45.5623 72.3198 56.3603C71.9269 67.4079 62.9096 76.3822 51.8887 76.811C41.0832 77.2045 32.0306 69.5529 30.1691 59.399C30.1034 59.0386 29.9135 58.7126 29.6324 58.4775C29.3512 58.2423 28.9966 58.1129 28.63 58.1117H13.1747C12.2449 58.1117 11.5287 58.8987 11.6356 59.7916C13.7478 79.8144 30.7794 95.3673 51.426 95.1882C72.9663 95.01 90.5347 77.4189 90.714 55.8953C90.8923 35.2654 75.2912 18.247 55.253 16.1356C54.3585 16.0288 53.5717 16.7453 53.5717 17.6744Z" fill="#EEFBF2"/>
<path fill-rule="evenodd" clip-rule="evenodd" d="M25.5555 27.3633L36.4696 38.268C36.7367 38.5309 37.089 38.6898 37.463 38.716C37.837 38.7422 38.2081 38.634 38.5093 38.411C41.0498 36.5157 44.0547 35.2293 47.3112 34.6204C48.0627 34.4784 48.5995 33.8696 48.5995 33.0834V17.6735C48.5995 16.7444 47.8119 16.0288 46.8821 16.1356C39.0761 16.9624 31.6913 20.0857 25.6632 25.1098C24.948 25.6824 24.9118 26.7201 25.5555 27.3624V27.3633ZM19.7947 31.1176C15.3585 36.8387 12.4242 43.7738 11.6374 51.3548C11.5288 52.2486 12.2802 53.0347 13.1756 53.0347H28.5975C29.3489 53.0347 29.9926 52.4983 30.1366 51.7474C30.6351 48.9378 31.7066 46.2606 33.2845 43.8823C33.4763 43.5808 33.5628 43.2244 33.5306 42.8686C33.4983 42.5128 33.3491 42.1777 33.1062 41.9156L22.1206 31.0099C21.4769 30.3315 20.3678 30.402 19.7947 31.1176ZM61.0156 89.7177H81.2322C82.3775 89.7177 83.3073 90.6468 83.3435 91.8274V131.764C83.3426 132.324 83.1198 132.86 82.7241 133.255C82.3284 133.651 81.7919 133.873 81.2322 133.874H61.0156C60.456 133.873 59.9195 133.651 59.5238 133.255C59.128 132.86 58.9053 132.324 58.9043 131.764V91.8274C58.9053 91.2682 59.128 90.7321 59.5238 90.3367C59.9195 89.9412 60.456 89.7187 61.0156 89.7177ZM108.713 106.308H88.5683C87.9994 106.31 87.4541 106.536 87.0517 106.938C86.6493 107.34 86.4225 107.885 86.4208 108.453V131.694C86.4225 132.262 86.6492 132.807 87.0514 133.209C87.4536 133.611 87.9986 133.837 88.5674 133.839H108.713C109.281 133.837 109.826 133.611 110.229 133.209C110.631 132.807 110.857 132.262 110.859 131.694V108.453C110.857 107.885 110.631 107.34 110.229 106.938C109.826 106.536 109.281 106.31 108.713 106.308ZM116.191 117.5H136.158C136.745 117.503 137.307 117.737 137.723 118.152C138.138 118.567 138.373 119.129 138.376 119.716V131.587C138.373 132.174 138.138 132.736 137.723 133.151C137.307 133.566 136.745 133.8 136.158 133.804H116.191C115.603 133.801 115.041 133.566 114.626 133.151C114.21 132.736 113.976 132.174 113.973 131.587V119.716C113.976 119.129 114.21 118.567 114.626 118.152C115.041 117.737 115.603 117.503 116.191 117.5Z" fill="#EEFBF2"/>
<path fill-rule="evenodd" clip-rule="evenodd" d="M24.66 64.0114C21.4768 64.0114 18.863 66.6231 18.863 69.8039V114.64C18.863 117.82 21.4768 120.432 24.6591 120.432H93.8972C97.0841 120.432 99.6897 117.854 99.658 114.647V69.8048C99.658 66.6231 97.0442 64.0114 93.8619 64.0114H24.6591H24.66ZM93.8972 121.862H24.66C20.6855 121.862 17.4316 118.61 17.4316 114.64V69.8048C17.4316 65.8334 20.6864 62.582 24.66 62.582H93.8619C97.8346 62.582 101.089 65.8334 101.089 69.8039V114.636C101.127 118.65 97.8663 121.862 93.8972 121.862Z" fill="#999999"/>
<path d="M24.8752 71.6995C25.3687 71.6995 25.8421 71.5036 26.1911 71.1549C26.5401 70.8061 26.7361 70.3332 26.7361 69.84C26.7361 69.3468 26.5401 68.8738 26.1911 68.5251C25.8421 68.1764 25.3687 67.9805 24.8752 67.9805C24.3817 67.9805 23.9085 68.1763 23.5596 68.525C23.2107 68.8736 23.0146 69.3465 23.0146 69.8395C23.0146 70.3326 23.2107 70.8055 23.5596 71.1541C23.9085 71.5027 24.3817 71.6995 24.8752 71.6995ZM30.922 71.6995C31.4156 71.6995 31.8889 71.5036 32.2379 71.1549C32.5869 70.8061 32.783 70.3332 32.783 69.84C32.783 69.3468 32.5869 68.8738 32.2379 68.5251C31.8889 68.1764 31.4156 67.9805 30.922 67.9805C30.4286 67.9805 29.9554 68.1763 29.6065 68.525C29.2575 68.8736 29.0615 69.3465 29.0615 69.8395C29.0615 70.3326 29.2575 70.8055 29.6065 71.1541C29.9554 71.5027 30.4286 71.6995 30.922 71.6995ZM36.9698 71.6995C37.4634 71.6995 37.9367 71.5036 38.2857 71.1549C38.6347 70.8061 38.8308 70.3332 38.8308 69.84C38.8308 69.3468 38.6347 68.8738 38.2857 68.5251C37.9367 68.1764 37.4634 67.9805 36.9698 67.9805C36.4764 67.9805 36.0032 68.1763 35.6542 68.525C35.3053 68.8736 35.1093 69.3465 35.1093 69.8395C35.1093 70.3326 35.3053 70.8055 35.6542 71.1541C36.0032 71.5027 36.4764 71.6995 36.9698 71.6995Z" fill="#999999"/>
<path fill-rule="evenodd" clip-rule="evenodd" d="M17.5391 76.4881C17.5391 76.2986 17.6144 76.1168 17.7485 75.9828C17.8827 75.8487 18.0646 75.7734 18.2543 75.7734H100.159C100.349 75.7734 100.531 75.8487 100.665 75.9828C100.799 76.1168 100.874 76.2986 100.874 76.4881C100.874 76.6777 100.799 76.8595 100.665 76.9935C100.531 77.1275 100.349 77.2028 100.159 77.2028H18.2552C18.1613 77.2028 18.0683 77.1843 17.9815 77.1484C17.8947 77.1125 17.8159 77.0598 17.7495 76.9935C17.683 76.9271 17.6304 76.8483 17.5944 76.7616C17.5585 76.6749 17.5391 76.582 17.5391 76.4881Z" fill="#999999"/>
<path d="M124.705 107.453L47.0945 111.744C44.4825 111.887 42.3359 109.885 42.3359 107.274V47.4215C42.3359 44.8116 44.4825 42.8096 47.0945 42.9525L124.705 47.2433C126.709 47.3501 128.32 49.2806 128.32 51.5332V103.162C128.32 105.415 126.709 107.346 124.705 107.453Z" fill="#B2E8C3"/>
<path d="M84.9227 86.9159C84.4147 87.4587 83.4433 87.484 82.891 86.9684L73.3277 78.0277C72.7755 77.512 72.7356 76.5404 73.2435 75.9967L75.1937 74.0019C75.698 73.3696 76.5807 73.347 77.1366 73.9513L83.6624 79.9672L96.36 66.3775C96.8634 65.746 97.747 65.7234 98.302 66.3268L100.413 68.2157C100.966 68.7314 101.005 69.703 100.498 70.2467L84.9227 86.9159Z" fill="#41B06E"/>
<path fill-rule="evenodd" clip-rule="evenodd" d="M51.5327 49.2799C51.5327 50.4958 50.5658 51.4248 49.3499 51.3534C48.1331 51.3172 47.1671 50.2814 47.1671 49.0646C47.1643 48.7824 47.2197 48.5027 47.3298 48.2429C47.4399 47.9831 47.6024 47.7486 47.807 47.5542C48.0117 47.3598 48.2542 47.2096 48.5195 47.1129C48.7848 47.0161 49.0671 46.975 49.349 46.992C50.5305 47.0282 51.5327 48.064 51.5327 49.2799ZM58.5809 49.5649C58.5818 49.8435 58.5264 50.1195 58.418 50.3763C58.3095 50.633 58.1503 50.8652 57.9498 51.0589C57.7493 51.2527 57.5118 51.4039 57.2513 51.5036C56.9909 51.6034 56.713 51.6495 56.4343 51.6393C55.2537 51.6031 54.2877 50.5663 54.2877 49.3867C54.2869 49.1081 54.3424 48.8322 54.451 48.5755C54.5595 48.3189 54.7187 48.0868 54.9192 47.8932C55.1196 47.6996 55.3572 47.5484 55.6175 47.4487C55.8779 47.349 56.1557 47.3029 56.4343 47.3132C57.6149 47.3846 58.5809 48.3843 58.5809 49.5649ZM63.3757 51.9251C64.521 51.9966 65.4517 51.0666 65.4517 49.8869C65.4517 48.7073 64.521 47.7067 63.3757 47.6705C62.1951 47.5981 61.2653 48.5281 61.2653 49.7087C61.2653 50.8884 62.2313 51.8889 63.3757 51.9251Z" fill="#41B06E"/>
<path fill-rule="evenodd" clip-rule="evenodd" d="M109.142 24.4316C109.236 24.4316 109.329 24.4501 109.416 24.486C109.502 24.522 109.581 24.5746 109.648 24.641C109.714 24.7073 109.767 24.7861 109.803 24.8728C109.839 24.9595 109.857 25.0525 109.857 25.1463V27.721C109.857 27.9106 109.782 28.0925 109.648 28.2267C109.513 28.3608 109.331 28.4361 109.141 28.4361C108.952 28.4361 108.77 28.3608 108.635 28.2267C108.501 28.0925 108.426 27.9106 108.426 27.721V25.1472C108.426 25.0533 108.444 24.9603 108.48 24.8735C108.516 24.7868 108.569 24.7079 108.636 24.6415C108.702 24.5752 108.781 24.5226 108.868 24.4867C108.955 24.4508 109.048 24.4324 109.142 24.4325V24.4316ZM102.987 30.5471C102.987 30.4531 103.006 30.36 103.042 30.2731C103.078 30.1863 103.13 30.1073 103.197 30.0409C103.263 29.9744 103.342 29.9217 103.429 29.8858C103.516 29.8499 103.609 29.8314 103.703 29.8315H106.315C106.505 29.8315 106.687 29.9068 106.821 30.0409C106.955 30.1749 107.031 30.3567 107.031 30.5462C107.031 30.7358 106.955 30.9175 106.821 31.0516C106.687 31.1856 106.505 31.2609 106.315 31.2609H103.703C103.609 31.261 103.516 31.2426 103.429 31.2068C103.343 31.1709 103.264 31.1183 103.197 31.0519C103.131 30.9855 103.078 30.9067 103.042 30.8199C103.006 30.7332 102.987 30.6402 102.987 30.5462V30.5471ZM111.217 30.5471C111.217 30.4531 111.235 30.36 111.271 30.2731C111.307 30.1863 111.36 30.1073 111.426 30.0409C111.493 29.9744 111.572 29.9217 111.659 29.8858C111.746 29.8499 111.839 29.8314 111.933 29.8315H114.545C114.735 29.8315 114.917 29.9068 115.051 30.0409C115.185 30.1749 115.26 30.3567 115.26 30.5462C115.26 30.7358 115.185 30.9175 115.051 31.0516C114.917 31.1856 114.735 31.2609 114.545 31.2609H111.933C111.839 31.261 111.746 31.2426 111.659 31.2068C111.572 31.1709 111.493 31.1183 111.427 31.0519C111.36 30.9855 111.308 30.9067 111.272 30.8199C111.236 30.7332 111.217 30.6402 111.217 30.5462V30.5471ZM109.142 32.4397C109.236 32.4397 109.329 32.4582 109.416 32.4942C109.503 32.5301 109.582 32.5829 109.648 32.6493C109.714 32.7158 109.767 32.7947 109.803 32.8815C109.839 32.9683 109.857 33.0613 109.857 33.1553V35.9443C109.857 36.134 109.782 36.3159 109.648 36.45C109.513 36.5841 109.331 36.6594 109.141 36.6594C108.952 36.6594 108.77 36.5841 108.635 36.45C108.501 36.3159 108.426 36.134 108.426 35.9443V33.1553C108.426 33.0613 108.444 32.9683 108.48 32.8815C108.516 32.7948 108.569 32.716 108.636 32.6496C108.702 32.5832 108.781 32.5306 108.868 32.4947C108.955 32.4589 109.048 32.4396 109.142 32.4397Z" fill="#999999"/>
</svg>
