<svg width="80" height="80" viewBox="0 0 80 80" fill="none" xmlns="http://www.w3.org/2000/svg">
<path d="M0.5 40C0.5 39.6749 0.503927 39.3506 0.511737 39.0274L0.011883 39.0153C0.0277732 38.3576 0.0595386 37.7038 0.106811 37.0544L0.605492 37.0907C0.652636 36.443 0.715396 35.7996 0.793393 35.161L0.297081 35.1004C0.376765 34.4479 0.472159 33.8004 0.582871 33.158L1.07561 33.2429C1.1858 32.6036 1.31136 31.9696 1.45189 31.3412L0.963942 31.232C1.10727 30.5912 1.26597 29.9561 1.43965 29.3272L1.92161 29.4603C2.09416 28.8355 2.28168 28.2169 2.48375 27.605L2.00897 27.4482C2.21472 26.8251 2.43538 26.2087 2.67052 25.5996L3.13698 25.7796C3.37023 25.1754 3.61792 24.5783 3.87962 23.9888L3.42263 23.7859C3.68871 23.1866 3.96908 22.595 4.26332 22.0116L4.70976 22.2367C5.00126 21.6588 5.30655 21.0889 5.6252 20.5276L5.19038 20.2808C5.51393 19.7109 5.85108 19.1497 6.20137 18.5976L6.62355 18.8655C6.97021 18.3192 7.32991 17.782 7.70223 17.2543L7.29368 16.9661C7.67131 16.4308 8.06174 15.9053 8.46454 15.3899L8.8585 15.6978C9.25673 15.1882 9.6672 14.6887 10.0895 14.1996L9.711 13.8728C10.1389 13.3772 10.5787 12.8923 11.03 12.4184L11.3921 12.7632C11.8379 12.2951 12.2951 11.8379 12.7632 11.3921L12.4184 11.03C12.8923 10.5787 13.3773 10.1389 13.8728 9.71099L14.1996 10.0895C14.6887 9.66719 15.1882 9.25673 15.6978 8.8585L15.3899 8.46453C15.9053 8.06174 16.4308 7.67131 16.9661 7.29368L17.2543 7.70223C17.782 7.32991 18.3192 6.9702 18.8655 6.62354L18.5976 6.20137C19.1497 5.85107 19.7109 5.51393 20.2808 5.19038L20.5276 5.62519C21.0889 5.30655 21.6588 5.00126 22.2367 4.70975L22.0116 4.26332C22.595 3.96908 23.1866 3.68871 23.7859 3.42263L23.9888 3.87962C24.5783 3.61792 25.1754 3.37023 25.7797 3.13697L25.5996 2.67052C26.2087 2.43538 26.8251 2.21472 27.4482 2.00896L27.605 2.48375C28.2169 2.28167 28.8355 2.09416 29.4603 1.9216L29.3272 1.43965C29.9561 1.26597 30.5912 1.10727 31.232 0.963941L31.3412 1.45189C31.9696 1.31136 32.6036 1.1858 33.2429 1.07561L33.158 0.58287C33.8004 0.472158 34.4479 0.376765 35.1004 0.29708L35.161 0.793392C35.7996 0.715395 36.443 0.652636 37.0907 0.605491L37.0544 0.106811C37.7038 0.0595386 38.3576 0.0277731 39.0153 0.011883L39.0274 0.511737C39.3506 0.503927 39.6749 0.5 40 0.5C40.3251 0.5 40.6494 0.503927 40.9726 0.511737L40.9847 0.011883C41.6424 0.0277732 42.2962 0.0595386 42.9456 0.106811L42.9093 0.605492C43.557 0.652636 44.2004 0.715396 44.839 0.793393L44.8996 0.297081C45.5521 0.376765 46.1996 0.472159 46.842 0.582871L46.7571 1.07561C47.3964 1.1858 48.0304 1.31136 48.6588 1.45189L48.768 0.963943C49.4088 1.10727 50.0439 1.26597 50.6728 1.43965L50.5397 1.92161C51.1645 2.09416 51.7831 2.28168 52.3951 2.48375L52.5518 2.00897C53.1749 2.21472 53.7913 2.43538 54.4004 2.67052L54.2204 3.13698C54.8246 3.37023 55.4217 3.61792 56.0112 3.87962L56.2141 3.42263C56.8134 3.68871 57.405 3.96908 57.9884 4.26332L57.7633 4.70976C58.3412 5.00126 58.9111 5.30655 59.4724 5.6252L59.7192 5.19038C60.2891 5.51393 60.8503 5.85108 61.4024 6.20137L61.1345 6.62355C61.6808 6.97021 62.218 7.32991 62.7457 7.70223L63.0339 7.29368C63.5692 7.67131 64.0947 8.06174 64.6101 8.46453L64.3022 8.8585C64.8118 9.25673 65.3113 9.6672 65.8004 10.0895L66.1272 9.711C66.6227 10.1389 67.1077 10.5787 67.5816 11.03L67.2368 11.3921C67.7049 11.8379 68.1621 12.2951 68.6079 12.7632L68.97 12.4184C69.4213 12.8923 69.8611 13.3773 70.289 13.8728L69.9105 14.1996C70.3328 14.6887 70.7433 15.1882 71.1415 15.6978L71.5355 15.3899C71.9383 15.9053 72.3287 16.4308 72.7063 16.9661L72.2978 17.2543C72.6701 17.782 73.0298 18.3192 73.3765 18.8655L73.7986 18.5976C74.1489 19.1497 74.4861 19.7109 74.8096 20.2808L74.3748 20.5276C74.6935 21.0889 74.9987 21.6588 75.2902 22.2367L75.7367 22.0116C76.0309 22.595 76.3113 23.1866 76.5774 23.7859L76.1204 23.9888C76.3821 24.5783 76.6298 25.1754 76.863 25.7797L77.3295 25.5996C77.5646 26.2087 77.7853 26.8251 77.991 27.4482L77.5163 27.605C77.7183 28.2169 77.9058 28.8355 78.0784 29.4603L78.5604 29.3272C78.734 29.9561 78.8927 30.5912 79.0361 31.232L78.5481 31.3412C78.6886 31.9696 78.8142 32.6036 78.9244 33.2429L79.4171 33.158C79.5278 33.8004 79.6232 34.4479 79.7029 35.1004L79.2066 35.161C79.2846 35.7996 79.3474 36.443 79.3945 37.0907L79.8932 37.0544C79.9405 37.7038 79.9722 38.3576 79.9881 39.0153L79.4883 39.0274C79.4961 39.3506 79.5 39.6749 79.5 40C79.5 40.3251 79.4961 40.6494 79.4883 40.9726L79.9881 40.9847C79.9722 41.6424 79.9405 42.2962 79.8932 42.9456L79.3945 42.9093C79.3474 43.557 79.2846 44.2004 79.2066 44.839L79.7029 44.8996C79.6232 45.5521 79.5278 46.1996 79.4171 46.842L78.9244 46.7571C78.8142 47.3964 78.6886 48.0304 78.5481 48.6588L79.0361 48.768C78.8927 49.4089 78.734 50.0439 78.5603 50.6728L78.0784 50.5397C77.9058 51.1645 77.7183 51.7831 77.5163 52.3951L77.991 52.5518C77.7853 53.1749 77.5646 53.7913 77.3295 54.4004L76.863 54.2204C76.6298 54.8246 76.3821 55.4217 76.1204 56.0112L76.5774 56.2141C76.3113 56.8134 76.0309 57.405 75.7367 57.9884L75.2902 57.7633C74.9987 58.3412 74.6935 58.9111 74.3748 59.4724L74.8096 59.7192C74.4861 60.2891 74.1489 60.8503 73.7986 61.4024L73.3764 61.1345C73.0298 61.6808 72.6701 62.218 72.2978 62.7457L72.7063 63.0339C72.3287 63.5692 71.9383 64.0947 71.5355 64.6101L71.1415 64.3022C70.7433 64.8118 70.3328 65.3113 69.9105 65.8004L70.289 66.1272C69.8611 66.6227 69.4213 67.1077 68.97 67.5816L68.6079 67.2368C68.1621 67.7049 67.7049 68.1621 67.2368 68.6079L67.5816 68.97C67.1077 69.4213 66.6227 69.8611 66.1272 70.289L65.8004 69.9105C65.3113 70.3328 64.8118 70.7433 64.3022 71.1415L64.6101 71.5355C64.0947 71.9383 63.5692 72.3287 63.0339 72.7063L62.7457 72.2978C62.218 72.6701 61.6808 73.0298 61.1345 73.3765L61.4024 73.7986C60.8503 74.1489 60.2891 74.4861 59.7192 74.8096L59.4724 74.3748C58.9111 74.6935 58.3412 74.9987 57.7633 75.2902L57.9884 75.7367C57.405 76.0309 56.8134 76.3113 56.2141 76.5774L56.0112 76.1204C55.4217 76.3821 54.8246 76.6298 54.2203 76.863L54.4004 77.3295C53.7913 77.5646 53.1749 77.7853 52.5518 77.991L52.395 77.5163C51.7831 77.7183 51.1645 77.9058 50.5397 78.0784L50.6728 78.5604C50.0439 78.734 49.4088 78.8927 48.768 79.0361L48.6588 78.5481C48.0304 78.6886 47.3964 78.8142 46.7571 78.9244L46.842 79.4171C46.1996 79.5278 45.5521 79.6232 44.8996 79.7029L44.839 79.2066C44.2004 79.2846 43.557 79.3474 42.9093 79.3945L42.9456 79.8932C42.2962 79.9405 41.6424 79.9722 40.9847 79.9881L40.9726 79.4883C40.6494 79.4961 40.3251 79.5 40 79.5C39.6749 79.5 39.3506 79.4961 39.0274 79.4883L39.0153 79.9881C38.3576 79.9722 37.7038 79.9405 37.0544 79.8932L37.0907 79.3945C36.443 79.3474 35.7996 79.2846 35.161 79.2066L35.1004 79.7029C34.4479 79.6232 33.8004 79.5278 33.158 79.4171L33.2429 78.9244C32.6036 78.8142 31.9696 78.6886 31.3412 78.5481L31.232 79.0361C30.5911 78.8927 29.9561 78.734 29.3272 78.5603L29.4603 78.0784C28.8355 77.9058 28.2169 77.7183 27.605 77.5163L27.4482 77.991C26.8251 77.7853 26.2087 77.5646 25.5996 77.3295L25.7796 76.863C25.1754 76.6298 24.5783 76.3821 23.9888 76.1204L23.7859 76.5774C23.1866 76.3113 22.595 76.0309 22.0116 75.7367L22.2367 75.2902C21.6588 74.9987 21.0889 74.6935 20.5276 74.3748L20.2808 74.8096C19.7109 74.4861 19.1497 74.1489 18.5976 73.7986L18.8655 73.3764C18.3192 73.0298 17.782 72.6701 17.2543 72.2978L16.9661 72.7063C16.4308 72.3287 15.9053 71.9383 15.3899 71.5355L15.6978 71.1415C15.1882 70.7433 14.6887 70.3328 14.1996 69.9105L13.8728 70.289C13.3772 69.8611 12.8923 69.4213 12.4184 68.97L12.7632 68.6079C12.2951 68.1621 11.8379 67.7049 11.3921 67.2368L11.03 67.5816C10.5787 67.1077 10.1389 66.6227 9.71099 66.1272L10.0895 65.8004C9.66719 65.3113 9.25673 64.8118 8.8585 64.3022L8.46453 64.6101C8.06174 64.0947 7.67131 63.5692 7.29368 63.0339L7.70223 62.7457C7.32991 62.218 6.9702 61.6808 6.62354 61.1345L6.20137 61.4024C5.85107 60.8503 5.51393 60.2891 5.19038 59.7192L5.62519 59.4724C5.30655 58.9111 5.00126 58.3412 4.70975 57.7633L4.26332 57.9884C3.96908 57.405 3.68871 56.8134 3.42263 56.2141L3.87962 56.0112C3.61792 55.4217 3.37023 54.8246 3.13697 54.2203L2.67052 54.4004C2.43538 53.7913 2.21472 53.1749 2.00897 52.5518L2.48375 52.395C2.28167 51.7831 2.09416 51.1645 1.9216 50.5397L1.43965 50.6728C1.26597 50.0439 1.10727 49.4088 0.963941 48.768L1.45189 48.6588C1.31136 48.0304 1.1858 47.3964 1.07561 46.7571L0.58287 46.842C0.472158 46.1996 0.376765 45.5521 0.29708 44.8996L0.793392 44.839C0.715395 44.2004 0.652636 43.557 0.605491 42.9093L0.106811 42.9456C0.0595386 42.2962 0.0277731 41.6424 0.011883 40.9847L0.511737 40.9726C0.503927 40.6494 0.5 40.3251 0.5 40Z" fill="#F6F6F6"/>
<path d="M0.5 40C0.5 39.6749 0.503927 39.3506 0.511737 39.0274L0.011883 39.0153C0.0277732 38.3576 0.0595386 37.7038 0.106811 37.0544L0.605492 37.0907C0.652636 36.443 0.715396 35.7996 0.793393 35.161L0.297081 35.1004C0.376765 34.4479 0.472159 33.8004 0.582871 33.158L1.07561 33.2429C1.1858 32.6036 1.31136 31.9696 1.45189 31.3412L0.963942 31.232C1.10727 30.5912 1.26597 29.9561 1.43965 29.3272L1.92161 29.4603C2.09416 28.8355 2.28168 28.2169 2.48375 27.605L2.00897 27.4482C2.21472 26.8251 2.43538 26.2087 2.67052 25.5996L3.13698 25.7796C3.37023 25.1754 3.61792 24.5783 3.87962 23.9888L3.42263 23.7859C3.68871 23.1866 3.96908 22.595 4.26332 22.0116L4.70976 22.2367C5.00126 21.6588 5.30655 21.0889 5.6252 20.5276L5.19038 20.2808C5.51393 19.7109 5.85108 19.1497 6.20137 18.5976L6.62355 18.8655C6.97021 18.3192 7.32991 17.782 7.70223 17.2543L7.29368 16.9661C7.67131 16.4308 8.06174 15.9053 8.46454 15.3899L8.8585 15.6978C9.25673 15.1882 9.6672 14.6887 10.0895 14.1996L9.711 13.8728C10.1389 13.3772 10.5787 12.8923 11.03 12.4184L11.3921 12.7632C11.8379 12.2951 12.2951 11.8379 12.7632 11.3921L12.4184 11.03C12.8923 10.5787 13.3773 10.1389 13.8728 9.71099L14.1996 10.0895C14.6887 9.66719 15.1882 9.25673 15.6978 8.8585L15.3899 8.46453C15.9053 8.06174 16.4308 7.67131 16.9661 7.29368L17.2543 7.70223C17.782 7.32991 18.3192 6.9702 18.8655 6.62354L18.5976 6.20137C19.1497 5.85107 19.7109 5.51393 20.2808 5.19038L20.5276 5.62519C21.0889 5.30655 21.6588 5.00126 22.2367 4.70975L22.0116 4.26332C22.595 3.96908 23.1866 3.68871 23.7859 3.42263L23.9888 3.87962C24.5783 3.61792 25.1754 3.37023 25.7797 3.13697L25.5996 2.67052C26.2087 2.43538 26.8251 2.21472 27.4482 2.00896L27.605 2.48375C28.2169 2.28167 28.8355 2.09416 29.4603 1.9216L29.3272 1.43965C29.9561 1.26597 30.5912 1.10727 31.232 0.963941L31.3412 1.45189C31.9696 1.31136 32.6036 1.1858 33.2429 1.07561L33.158 0.58287C33.8004 0.472158 34.4479 0.376765 35.1004 0.29708L35.161 0.793392C35.7996 0.715395 36.443 0.652636 37.0907 0.605491L37.0544 0.106811C37.7038 0.0595386 38.3576 0.0277731 39.0153 0.011883L39.0274 0.511737C39.3506 0.503927 39.6749 0.5 40 0.5C40.3251 0.5 40.6494 0.503927 40.9726 0.511737L40.9847 0.011883C41.6424 0.0277732 42.2962 0.0595386 42.9456 0.106811L42.9093 0.605492C43.557 0.652636 44.2004 0.715396 44.839 0.793393L44.8996 0.297081C45.5521 0.376765 46.1996 0.472159 46.842 0.582871L46.7571 1.07561C47.3964 1.1858 48.0304 1.31136 48.6588 1.45189L48.768 0.963943C49.4088 1.10727 50.0439 1.26597 50.6728 1.43965L50.5397 1.92161C51.1645 2.09416 51.7831 2.28168 52.3951 2.48375L52.5518 2.00897C53.1749 2.21472 53.7913 2.43538 54.4004 2.67052L54.2204 3.13698C54.8246 3.37023 55.4217 3.61792 56.0112 3.87962L56.2141 3.42263C56.8134 3.68871 57.405 3.96908 57.9884 4.26332L57.7633 4.70976C58.3412 5.00126 58.9111 5.30655 59.4724 5.6252L59.7192 5.19038C60.2891 5.51393 60.8503 5.85108 61.4024 6.20137L61.1345 6.62355C61.6808 6.97021 62.218 7.32991 62.7457 7.70223L63.0339 7.29368C63.5692 7.67131 64.0947 8.06174 64.6101 8.46453L64.3022 8.8585C64.8118 9.25673 65.3113 9.6672 65.8004 10.0895L66.1272 9.711C66.6227 10.1389 67.1077 10.5787 67.5816 11.03L67.2368 11.3921C67.7049 11.8379 68.1621 12.2951 68.6079 12.7632L68.97 12.4184C69.4213 12.8923 69.8611 13.3773 70.289 13.8728L69.9105 14.1996C70.3328 14.6887 70.7433 15.1882 71.1415 15.6978L71.5355 15.3899C71.9383 15.9053 72.3287 16.4308 72.7063 16.9661L72.2978 17.2543C72.6701 17.782 73.0298 18.3192 73.3765 18.8655L73.7986 18.5976C74.1489 19.1497 74.4861 19.7109 74.8096 20.2808L74.3748 20.5276C74.6935 21.0889 74.9987 21.6588 75.2902 22.2367L75.7367 22.0116C76.0309 22.595 76.3113 23.1866 76.5774 23.7859L76.1204 23.9888C76.3821 24.5783 76.6298 25.1754 76.863 25.7797L77.3295 25.5996C77.5646 26.2087 77.7853 26.8251 77.991 27.4482L77.5163 27.605C77.7183 28.2169 77.9058 28.8355 78.0784 29.4603L78.5604 29.3272C78.734 29.9561 78.8927 30.5912 79.0361 31.232L78.5481 31.3412C78.6886 31.9696 78.8142 32.6036 78.9244 33.2429L79.4171 33.158C79.5278 33.8004 79.6232 34.4479 79.7029 35.1004L79.2066 35.161C79.2846 35.7996 79.3474 36.443 79.3945 37.0907L79.8932 37.0544C79.9405 37.7038 79.9722 38.3576 79.9881 39.0153L79.4883 39.0274C79.4961 39.3506 79.5 39.6749 79.5 40C79.5 40.3251 79.4961 40.6494 79.4883 40.9726L79.9881 40.9847C79.9722 41.6424 79.9405 42.2962 79.8932 42.9456L79.3945 42.9093C79.3474 43.557 79.2846 44.2004 79.2066 44.839L79.7029 44.8996C79.6232 45.5521 79.5278 46.1996 79.4171 46.842L78.9244 46.7571C78.8142 47.3964 78.6886 48.0304 78.5481 48.6588L79.0361 48.768C78.8927 49.4089 78.734 50.0439 78.5603 50.6728L78.0784 50.5397C77.9058 51.1645 77.7183 51.7831 77.5163 52.3951L77.991 52.5518C77.7853 53.1749 77.5646 53.7913 77.3295 54.4004L76.863 54.2204C76.6298 54.8246 76.3821 55.4217 76.1204 56.0112L76.5774 56.2141C76.3113 56.8134 76.0309 57.405 75.7367 57.9884L75.2902 57.7633C74.9987 58.3412 74.6935 58.9111 74.3748 59.4724L74.8096 59.7192C74.4861 60.2891 74.1489 60.8503 73.7986 61.4024L73.3764 61.1345C73.0298 61.6808 72.6701 62.218 72.2978 62.7457L72.7063 63.0339C72.3287 63.5692 71.9383 64.0947 71.5355 64.6101L71.1415 64.3022C70.7433 64.8118 70.3328 65.3113 69.9105 65.8004L70.289 66.1272C69.8611 66.6227 69.4213 67.1077 68.97 67.5816L68.6079 67.2368C68.1621 67.7049 67.7049 68.1621 67.2368 68.6079L67.5816 68.97C67.1077 69.4213 66.6227 69.8611 66.1272 70.289L65.8004 69.9105C65.3113 70.3328 64.8118 70.7433 64.3022 71.1415L64.6101 71.5355C64.0947 71.9383 63.5692 72.3287 63.0339 72.7063L62.7457 72.2978C62.218 72.6701 61.6808 73.0298 61.1345 73.3765L61.4024 73.7986C60.8503 74.1489 60.2891 74.4861 59.7192 74.8096L59.4724 74.3748C58.9111 74.6935 58.3412 74.9987 57.7633 75.2902L57.9884 75.7367C57.405 76.0309 56.8134 76.3113 56.2141 76.5774L56.0112 76.1204C55.4217 76.3821 54.8246 76.6298 54.2203 76.863L54.4004 77.3295C53.7913 77.5646 53.1749 77.7853 52.5518 77.991L52.395 77.5163C51.7831 77.7183 51.1645 77.9058 50.5397 78.0784L50.6728 78.5604C50.0439 78.734 49.4088 78.8927 48.768 79.0361L48.6588 78.5481C48.0304 78.6886 47.3964 78.8142 46.7571 78.9244L46.842 79.4171C46.1996 79.5278 45.5521 79.6232 44.8996 79.7029L44.839 79.2066C44.2004 79.2846 43.557 79.3474 42.9093 79.3945L42.9456 79.8932C42.2962 79.9405 41.6424 79.9722 40.9847 79.9881L40.9726 79.4883C40.6494 79.4961 40.3251 79.5 40 79.5C39.6749 79.5 39.3506 79.4961 39.0274 79.4883L39.0153 79.9881C38.3576 79.9722 37.7038 79.9405 37.0544 79.8932L37.0907 79.3945C36.443 79.3474 35.7996 79.2846 35.161 79.2066L35.1004 79.7029C34.4479 79.6232 33.8004 79.5278 33.158 79.4171L33.2429 78.9244C32.6036 78.8142 31.9696 78.6886 31.3412 78.5481L31.232 79.0361C30.5911 78.8927 29.9561 78.734 29.3272 78.5603L29.4603 78.0784C28.8355 77.9058 28.2169 77.7183 27.605 77.5163L27.4482 77.991C26.8251 77.7853 26.2087 77.5646 25.5996 77.3295L25.7796 76.863C25.1754 76.6298 24.5783 76.3821 23.9888 76.1204L23.7859 76.5774C23.1866 76.3113 22.595 76.0309 22.0116 75.7367L22.2367 75.2902C21.6588 74.9987 21.0889 74.6935 20.5276 74.3748L20.2808 74.8096C19.7109 74.4861 19.1497 74.1489 18.5976 73.7986L18.8655 73.3764C18.3192 73.0298 17.782 72.6701 17.2543 72.2978L16.9661 72.7063C16.4308 72.3287 15.9053 71.9383 15.3899 71.5355L15.6978 71.1415C15.1882 70.7433 14.6887 70.3328 14.1996 69.9105L13.8728 70.289C13.3772 69.8611 12.8923 69.4213 12.4184 68.97L12.7632 68.6079C12.2951 68.1621 11.8379 67.7049 11.3921 67.2368L11.03 67.5816C10.5787 67.1077 10.1389 66.6227 9.71099 66.1272L10.0895 65.8004C9.66719 65.3113 9.25673 64.8118 8.8585 64.3022L8.46453 64.6101C8.06174 64.0947 7.67131 63.5692 7.29368 63.0339L7.70223 62.7457C7.32991 62.218 6.9702 61.6808 6.62354 61.1345L6.20137 61.4024C5.85107 60.8503 5.51393 60.2891 5.19038 59.7192L5.62519 59.4724C5.30655 58.9111 5.00126 58.3412 4.70975 57.7633L4.26332 57.9884C3.96908 57.405 3.68871 56.8134 3.42263 56.2141L3.87962 56.0112C3.61792 55.4217 3.37023 54.8246 3.13697 54.2203L2.67052 54.4004C2.43538 53.7913 2.21472 53.1749 2.00897 52.5518L2.48375 52.395C2.28167 51.7831 2.09416 51.1645 1.9216 50.5397L1.43965 50.6728C1.26597 50.0439 1.10727 49.4088 0.963941 48.768L1.45189 48.6588C1.31136 48.0304 1.1858 47.3964 1.07561 46.7571L0.58287 46.842C0.472158 46.1996 0.376765 45.5521 0.29708 44.8996L0.793392 44.839C0.715395 44.2004 0.652636 43.557 0.605491 42.9093L0.106811 42.9456C0.0595386 42.2962 0.0277731 41.6424 0.011883 40.9847L0.511737 40.9726C0.503927 40.6494 0.5 40.3251 0.5 40Z" stroke="#EDEDED" stroke-dasharray="2 2"/>
<g clip-path="url(#clip0_601_23289)">
<path d="M28.375 52.9173C34.3986 46.6084 45.5367 46.3113 51.625 52.9173M46.4457 33.5423C46.4457 37.1092 43.55 40.0007 39.9781 40.0007C36.4062 40.0007 33.5106 37.1092 33.5106 33.5423C33.5106 29.9755 36.4062 27.084 39.9781 27.084C43.55 27.084 46.4457 29.9755 46.4457 33.5423Z" stroke="#454545" stroke-width="2.5" stroke-linecap="round"/>
</g>
<defs>
<clipPath id="clip0_601_23289">
<path d="M9 40C9 22.8792 22.8792 9 40 9C57.1208 9 71 22.8792 71 40C71 57.1208 57.1208 71 40 71C22.8792 71 9 57.1208 9 40Z" fill="white"/>
</clipPath>
</defs>
</svg>
