<svg width="153" height="32" viewBox="0 0 153 32" fill="none" xmlns="http://www.w3.org/2000/svg">
<path d="M28.5 5.99998L16.8655 0.415399C16.3184 0.152793 15.6816 0.152794 15.1345 0.415399L3.5 5.99998V19L4.91421 17.5858C5.28929 17.2107 5.5 16.702 5.5 16.1715V6.95998L15.1345 11.5846C15.6816 11.8472 16.3184 11.8472 16.8655 11.5846L28.5 5.99998Z" fill="white"/>
<path fill-rule="evenodd" clip-rule="evenodd" d="M7 15.4999V10.1799L13.4688 13.2849L16 17.25L18.5312 13.2849L25 10.1799V31.9999H24.5C14.835 31.9999 7 25.1649 7 15.4999ZM13.625 17.375C13.625 18.4105 12.7855 19.25 11.75 19.25C10.7145 19.25 9.875 18.4105 9.875 17.375C9.875 16.3394 10.7145 15.5 11.75 15.5C12.7855 15.5 13.625 16.3394 13.625 17.375ZM22.125 17.375C22.125 18.4105 21.2855 19.25 20.25 19.25C19.2145 19.25 18.375 18.4105 18.375 17.375C18.375 16.3394 19.2145 15.5 20.25 15.5C21.2855 15.5 22.125 16.3394 22.125 17.375Z" fill="white"/>
<path d="M39.0502 18.9L41.9902 18.94C42.0902 20.3 43.1702 21.24 44.8902 21.24C46.2702 21.24 47.2902 20.64 47.2902 19.54C47.2902 18.36 46.1502 18.12 43.8102 17.66C41.4502 17.22 39.3702 16.46 39.3702 13.62C39.3702 11.14 41.4302 9.38 44.5902 9.38C47.8902 9.38 49.9902 11.1 50.0302 13.78H47.0902C46.9502 12.6 46.0502 11.78 44.5902 11.78C43.3102 11.78 42.3902 12.32 42.3902 13.4C42.3902 14.54 43.4902 14.78 45.8102 15.22C48.2102 15.66 50.3302 16.38 50.3102 19.2C50.2902 21.82 48.1302 23.62 44.8502 23.62C41.2902 23.62 39.0702 21.74 39.0502 18.9ZM53.5823 23.5H50.4823L55.6023 9.5H59.2023L64.2823 23.5H61.0623L59.9823 20.44H54.6623L53.5823 23.5ZM57.3023 12.7L55.4623 18.02H59.1623L57.3023 12.7ZM65.5672 23.5V9.5H74.8072V12.08H68.5672V15.36H73.6872V17.82H68.5672V23.5H65.5672ZM76.4461 23.5V9.5H82.1461C85.2261 9.5 87.2861 11.32 87.2861 14.16C87.2861 15.96 86.3461 17.4 84.8861 18.1L87.6461 23.5H84.3261L81.9661 18.8H79.4461V23.5H76.4461ZM81.9061 12H79.4461V16.3H81.9061C83.3261 16.3 84.2261 15.46 84.2261 14.16C84.2261 12.84 83.3261 12 81.9061 12ZM93.6108 23.62C90.1908 23.62 88.1308 21.56 88.1308 18.38C88.1308 15.18 90.2308 13.1 93.4108 13.1C96.4908 13.1 98.5708 15.02 98.6108 18.04C98.6108 18.34 98.5908 18.68 98.5308 19H91.0708V19.14C91.1308 20.6 92.0708 21.48 93.4908 21.48C94.6308 21.48 95.4308 20.98 95.6708 20.02H98.4508C98.1308 22.02 96.3508 23.62 93.6108 23.62ZM91.1308 17.16H95.7708C95.5708 15.9 94.7108 15.2 93.4308 15.2C92.2108 15.2 91.2908 15.94 91.1308 17.16ZM104.992 23.62C101.732 23.62 99.7519 21.6 99.7519 18.36C99.7519 15.18 101.832 13.1 105.092 13.1C107.892 13.1 109.632 14.62 110.032 17.06H107.092C106.852 16.04 106.152 15.4 105.052 15.4C103.572 15.4 102.632 16.62 102.632 18.36C102.632 20.12 103.572 21.32 105.052 21.32C106.152 21.32 106.892 20.66 107.092 19.62H110.052C109.652 22.08 107.792 23.62 104.992 23.62ZM116.559 23.62C113.279 23.62 111.139 21.52 111.139 18.36C111.139 15.2 113.279 13.1 116.559 13.1C119.839 13.1 121.979 15.2 121.979 18.36C121.979 21.54 119.839 23.62 116.559 23.62ZM116.559 21.32C118.139 21.32 119.119 20.1 119.119 18.36C119.119 16.62 118.139 15.4 116.559 15.4C114.979 15.4 114.019 16.62 114.019 18.36C114.019 20.1 114.979 21.32 116.559 21.32ZM129.311 13.22H129.791V15.78H128.671C126.991 15.78 126.351 16.9 126.351 18.46V23.5H123.531V13.22H126.091L126.351 14.76C126.911 13.84 127.711 13.22 129.311 13.22ZM138.178 14.5V9.5H140.998V23.5H138.538L138.258 22.08C137.578 22.96 136.578 23.62 135.098 23.62C132.338 23.62 130.318 21.6 130.318 18.34C130.318 15.16 132.338 13.1 135.078 13.1C136.498 13.1 137.518 13.66 138.178 14.5ZM135.718 21.32C137.258 21.32 138.218 20.12 138.218 18.38C138.218 16.62 137.258 15.4 135.718 15.4C134.178 15.4 133.198 16.6 133.198 18.36C133.198 20.12 134.178 21.32 135.718 21.32ZM142.484 20.08H145.164C145.264 20.98 146.044 21.6 147.424 21.6C148.604 21.6 149.324 21.22 149.324 20.5C149.324 19.66 148.624 19.6 146.964 19.38C144.564 19.1 142.704 18.56 142.704 16.44C142.704 14.4 144.484 13.06 147.124 13.08C149.884 13.08 151.784 14.3 151.924 16.4H149.224C149.144 15.58 148.364 15.08 147.224 15.08C146.124 15.08 145.404 15.48 145.404 16.14C145.404 16.92 146.284 17 147.764 17.18C150.124 17.42 152.084 17.96 152.084 20.28C152.084 22.32 150.164 23.62 147.404 23.62C144.544 23.62 142.604 22.28 142.484 20.08Z" fill="white"/>
</svg>
