<svg width="280" height="358" viewBox="0 0 280 358" fill="none" xmlns="http://www.w3.org/2000/svg">
<g opacity="0.5">
<path d="M140 208C181.421 208 215 174.421 215 133C215 91.5786 181.421 58 140 58C98.5786 58 65 91.5786 65 133C65 174.421 98.5786 208 140 208Z" fill="#ECECEC"/>
<g filter="url(#filter0_d_1693_23311)">
<path d="M183 101H97C94.2386 101 92 103.239 92 106V211C92 213.761 94.2386 216 97 216H183C185.761 216 188 213.761 188 211V106C188 103.239 185.761 101 183 101Z" fill="white"/>
</g>
<path d="M130 116H104C102.343 116 101 117.343 101 119C101 120.657 102.343 122 104 122H130C131.657 122 133 120.657 133 119C133 117.343 131.657 116 130 116Z" fill="#D5D4DC"/>
<path d="M148 129H104C102.343 129 101 130.343 101 132C101 133.657 102.343 135 104 135H148C149.657 135 151 133.657 151 132C151 130.343 149.657 129 148 129Z" fill="#8B849B"/>
<path d="M130 143H104C102.343 143 101 144.343 101 146C101 147.657 102.343 149 104 149H130C131.657 149 133 147.657 133 146C133 144.343 131.657 143 130 143Z" fill="#D5D4DC"/>
<path d="M148 156H104C102.343 156 101 157.343 101 159C101 160.657 102.343 162 104 162H148C149.657 162 151 160.657 151 159C151 157.343 149.657 156 148 156Z" fill="#8B849B"/>
<path d="M130 170H104C102.343 170 101 171.343 101 173C101 174.657 102.343 176 104 176H130C131.657 176 133 174.657 133 173C133 171.343 131.657 170 130 170Z" fill="#D5D4DC"/>
<path d="M148 183H104C102.343 183 101 184.343 101 186C101 187.657 102.343 189 104 189H148C149.657 189 151 187.657 151 186C151 184.343 149.657 183 148 183Z" fill="#8B849B"/>
<g filter="url(#filter1_d_1693_23311)">
<path d="M183 50H97C94.2386 50 92 52.2386 92 55V85C92 87.7614 94.2386 90 97 90H183C185.761 90 188 87.7614 188 85V55C188 52.2386 185.761 50 183 50Z" fill="#383A3F"/>
</g>
<path d="M130 61H104C102.343 61 101 62.3431 101 64C101 65.6569 102.343 67 104 67H130C131.657 67 133 65.6569 133 64C133 62.3431 131.657 61 130 61Z" fill="#8B849B"/>
<path d="M148 74H104C102.343 74 101 75.3431 101 77C101 78.6569 102.343 80 104 80H148C149.657 80 151 78.6569 151 77C151 75.3431 149.657 74 148 74Z" fill="white"/>
</g>
<path d="M118.049 235.909V249H115.94L109.771 240.083H109.663V249H107.291V235.909H109.413L115.575 244.832H115.69V235.909H118.049ZM124.813 249.192C123.855 249.192 123.024 248.981 122.32 248.559C121.617 248.137 121.072 247.547 120.684 246.788C120.301 246.03 120.109 245.143 120.109 244.129C120.109 243.115 120.301 242.227 120.684 241.464C121.072 240.701 121.617 240.109 122.32 239.687C123.024 239.265 123.855 239.054 124.813 239.054C125.772 239.054 126.603 239.265 127.306 239.687C128.009 240.109 128.553 240.701 128.936 241.464C129.324 242.227 129.518 243.115 129.518 244.129C129.518 245.143 129.324 246.03 128.936 246.788C128.553 247.547 128.009 248.137 127.306 248.559C126.603 248.981 125.772 249.192 124.813 249.192ZM124.826 247.338C125.346 247.338 125.781 247.195 126.13 246.91C126.48 246.62 126.74 246.232 126.91 245.746C127.085 245.261 127.172 244.719 127.172 244.123C127.172 243.522 127.085 242.979 126.91 242.493C126.74 242.003 126.48 241.613 126.13 241.323C125.781 241.033 125.346 240.888 124.826 240.888C124.294 240.888 123.85 241.033 123.497 241.323C123.147 241.613 122.885 242.003 122.71 242.493C122.54 242.979 122.455 243.522 122.455 244.123C122.455 244.719 122.54 245.261 122.71 245.746C122.885 246.232 123.147 246.62 123.497 246.91C123.85 247.195 124.294 247.338 124.826 247.338ZM139.59 249.173C138.819 249.173 138.129 248.974 137.519 248.578C136.91 248.182 136.428 247.607 136.075 246.852C135.721 246.098 135.544 245.182 135.544 244.104C135.544 243.013 135.723 242.092 136.081 241.342C136.443 240.588 136.931 240.019 137.545 239.636C138.158 239.248 138.842 239.054 139.597 239.054C140.172 239.054 140.645 239.152 141.016 239.348C141.386 239.54 141.68 239.772 141.898 240.045C142.115 240.313 142.283 240.567 142.403 240.805H142.499V235.909H144.819V249H142.543V247.453H142.403C142.283 247.692 142.111 247.945 141.885 248.214C141.659 248.478 141.361 248.704 140.99 248.891C140.619 249.079 140.153 249.173 139.59 249.173ZM140.236 247.274C140.726 247.274 141.143 247.142 141.489 246.878C141.834 246.609 142.096 246.237 142.275 245.759C142.454 245.282 142.543 244.726 142.543 244.091C142.543 243.456 142.454 242.904 142.275 242.435C142.1 241.967 141.84 241.602 141.495 241.342C141.154 241.082 140.734 240.952 140.236 240.952C139.72 240.952 139.29 241.087 138.945 241.355C138.599 241.624 138.339 241.994 138.165 242.467C137.99 242.94 137.903 243.482 137.903 244.091C137.903 244.705 137.99 245.252 138.165 245.734C138.344 246.211 138.606 246.588 138.951 246.865C139.3 247.138 139.729 247.274 140.236 247.274ZM150.11 249.198C149.488 249.198 148.927 249.087 148.429 248.866C147.934 248.64 147.542 248.308 147.253 247.869C146.967 247.43 146.824 246.888 146.824 246.245C146.824 245.691 146.927 245.233 147.131 244.871C147.336 244.509 147.615 244.219 147.969 244.001C148.322 243.784 148.721 243.62 149.164 243.509C149.611 243.394 150.074 243.311 150.551 243.26C151.126 243.2 151.593 243.147 151.951 243.1C152.309 243.049 152.569 242.972 152.731 242.87C152.897 242.763 152.98 242.599 152.98 242.378V242.339C152.98 241.858 152.837 241.485 152.552 241.221C152.266 240.957 151.855 240.825 151.318 240.825C150.751 240.825 150.302 240.948 149.969 241.195C149.641 241.442 149.42 241.734 149.305 242.071L147.144 241.764C147.314 241.168 147.596 240.669 147.988 240.268C148.38 239.864 148.859 239.561 149.426 239.361C149.993 239.156 150.619 239.054 151.305 239.054C151.778 239.054 152.249 239.109 152.718 239.22C153.187 239.331 153.615 239.514 154.003 239.77C154.39 240.021 154.702 240.364 154.936 240.799C155.175 241.234 155.294 241.777 155.294 242.429V249H153.069V247.651H152.993C152.852 247.924 152.654 248.18 152.398 248.418C152.147 248.653 151.829 248.842 151.446 248.987C151.067 249.128 150.621 249.198 150.11 249.198ZM150.711 247.498C151.175 247.498 151.578 247.406 151.919 247.223C152.26 247.036 152.522 246.788 152.705 246.482C152.893 246.175 152.986 245.84 152.986 245.478V244.321C152.914 244.381 152.79 244.436 152.616 244.487C152.445 244.538 152.253 244.583 152.04 244.621C151.827 244.66 151.616 244.694 151.407 244.724C151.199 244.754 151.018 244.779 150.864 244.8C150.519 244.847 150.21 244.924 149.937 245.031C149.665 245.137 149.449 245.286 149.292 245.478C149.134 245.665 149.055 245.908 149.055 246.207C149.055 246.633 149.211 246.955 149.522 247.172C149.833 247.389 150.229 247.498 150.711 247.498ZM162.523 239.182V240.972H156.879V239.182H162.523ZM158.273 236.83H160.586V246.047C160.586 246.358 160.633 246.597 160.727 246.763C160.825 246.925 160.953 247.036 161.111 247.095C161.268 247.155 161.443 247.185 161.635 247.185C161.78 247.185 161.912 247.174 162.031 247.153C162.155 247.131 162.248 247.112 162.312 247.095L162.702 248.904C162.579 248.947 162.402 248.994 162.172 249.045C161.946 249.096 161.669 249.126 161.341 249.134C160.761 249.151 160.239 249.064 159.775 248.872C159.31 248.676 158.942 248.374 158.669 247.964C158.4 247.555 158.268 247.044 158.273 246.43V236.83ZM167.284 249.198C166.662 249.198 166.101 249.087 165.603 248.866C165.108 248.64 164.716 248.308 164.426 247.869C164.141 247.43 163.998 246.888 163.998 246.245C163.998 245.691 164.1 245.233 164.305 244.871C164.51 244.509 164.789 244.219 165.142 244.001C165.496 243.784 165.895 243.62 166.338 243.509C166.785 243.394 167.248 243.311 167.725 243.26C168.3 243.2 168.767 243.147 169.125 243.1C169.483 243.049 169.743 242.972 169.904 242.87C170.071 242.763 170.154 242.599 170.154 242.378V242.339C170.154 241.858 170.011 241.485 169.725 241.221C169.44 240.957 169.029 240.825 168.492 240.825C167.925 240.825 167.475 240.948 167.143 241.195C166.815 241.442 166.593 241.734 166.478 242.071L164.318 241.764C164.488 241.168 164.77 240.669 165.162 240.268C165.554 239.864 166.033 239.561 166.6 239.361C167.167 239.156 167.793 239.054 168.479 239.054C168.952 239.054 169.423 239.109 169.892 239.22C170.36 239.331 170.789 239.514 171.176 239.77C171.564 240.021 171.875 240.364 172.11 240.799C172.348 241.234 172.468 241.777 172.468 242.429V249H170.243V247.651H170.167C170.026 247.924 169.828 248.18 169.572 248.418C169.321 248.653 169.003 248.842 168.62 248.987C168.24 249.128 167.795 249.198 167.284 249.198ZM167.885 247.498C168.349 247.498 168.752 247.406 169.093 247.223C169.434 247.036 169.696 246.788 169.879 246.482C170.066 246.175 170.16 245.84 170.16 245.478V244.321C170.088 244.381 169.964 244.436 169.789 244.487C169.619 244.538 169.427 244.583 169.214 244.621C169.001 244.66 168.79 244.694 168.581 244.724C168.373 244.754 168.191 244.779 168.038 244.8C167.693 244.847 167.384 244.924 167.111 245.031C166.838 245.137 166.623 245.286 166.466 245.478C166.308 245.665 166.229 245.908 166.229 246.207C166.229 246.633 166.385 246.955 166.696 247.172C167.007 247.389 167.403 247.498 167.885 247.498Z" fill="#383A3F"/>
<path d="M29.9955 275.364C29.9358 274.86 29.6939 274.469 29.2696 274.19C28.8454 273.912 28.325 273.773 27.7085 273.773C27.2578 273.773 26.8634 273.846 26.5253 273.991C26.1905 274.137 25.9287 274.338 25.7398 274.593C25.5542 274.848 25.4614 275.138 25.4614 275.463C25.4614 275.735 25.526 275.969 25.6553 276.164C25.7878 276.356 25.9569 276.517 26.1624 276.646C26.3679 276.772 26.5833 276.877 26.8087 276.96C27.0341 277.039 27.2412 277.104 27.4301 277.153L28.4642 277.432C28.7294 277.501 29.0244 277.598 29.3492 277.72C29.6773 277.843 29.9905 278.01 30.2888 278.222C30.5904 278.431 30.839 278.7 31.0345 279.028C31.2301 279.356 31.3279 279.759 31.3279 280.236C31.3279 280.786 31.1837 281.283 30.8953 281.727C30.6103 282.171 30.1927 282.524 29.6425 282.786C29.0956 283.048 28.4311 283.179 27.6489 283.179C26.9197 283.179 26.2883 283.061 25.7547 282.826C25.2244 282.591 24.8068 282.263 24.5019 281.842C24.2003 281.421 24.0296 280.932 23.9898 280.375H25.2625C25.2957 280.759 25.4249 281.078 25.6503 281.33C25.879 281.578 26.1673 281.764 26.5154 281.886C26.8667 282.006 27.2445 282.065 27.6489 282.065C28.1195 282.065 28.5421 281.989 28.9166 281.837C29.2912 281.681 29.5878 281.465 29.8066 281.19C30.0253 280.912 30.1347 280.587 30.1347 280.216C30.1347 279.878 30.0402 279.603 29.8513 279.391C29.6624 279.179 29.4138 279.006 29.1056 278.874C28.7973 278.741 28.4642 278.625 28.1063 278.526L26.8534 278.168C26.058 277.939 25.4282 277.612 24.9642 277.188C24.5002 276.764 24.2682 276.209 24.2682 275.523C24.2682 274.953 24.4223 274.455 24.7306 274.031C25.0421 273.604 25.4597 273.272 25.9834 273.037C26.5104 272.798 27.0987 272.679 27.7483 272.679C28.4046 272.679 28.9879 272.797 29.4983 273.032C30.0087 273.264 30.4131 273.582 30.7114 273.987C31.013 274.391 31.1721 274.85 31.1887 275.364H29.9955ZM36.3976 283.159C35.6618 283.159 35.0271 282.997 34.4935 282.672C33.9632 282.344 33.5539 281.886 33.2655 281.3C32.9805 280.71 32.838 280.024 32.838 279.241C32.838 278.459 32.9805 277.77 33.2655 277.173C33.5539 276.573 33.9549 276.106 34.4687 275.771C34.9857 275.433 35.5889 275.264 36.2783 275.264C36.676 275.264 37.0688 275.33 37.4566 275.463C37.8444 275.596 38.1974 275.811 38.5155 276.109C38.8337 276.404 39.0873 276.795 39.2762 277.283C39.4651 277.77 39.5596 278.37 39.5596 279.082V279.58H33.6732V278.565H38.3664C38.3664 278.134 38.2802 277.75 38.1079 277.412C37.9388 277.074 37.6969 276.807 37.382 276.612C37.0705 276.416 36.7026 276.318 36.2783 276.318C35.811 276.318 35.4066 276.434 35.0653 276.666C34.7272 276.895 34.467 277.193 34.2847 277.561C34.1024 277.929 34.0113 278.323 34.0113 278.744V279.42C34.0113 279.997 34.1107 280.486 34.3096 280.887C34.5117 281.285 34.7918 281.588 35.1498 281.797C35.5077 282.002 35.9237 282.105 36.3976 282.105C36.7059 282.105 36.9843 282.062 37.2329 281.976C37.4848 281.886 37.7019 281.754 37.8841 281.578C38.0664 281.399 38.2073 281.177 38.3067 280.912L39.4403 281.23C39.3209 281.615 39.1204 281.953 38.8387 282.244C38.557 282.533 38.209 282.758 37.7947 282.92C37.3804 283.08 36.9147 283.159 36.3976 283.159ZM42.5177 272.818V283H41.3444V272.818H42.5177ZM47.8683 283.159C47.1325 283.159 46.4978 282.997 45.9642 282.672C45.4339 282.344 45.0246 281.886 44.7362 281.3C44.4512 280.71 44.3087 280.024 44.3087 279.241C44.3087 278.459 44.4512 277.77 44.7362 277.173C45.0246 276.573 45.4256 276.106 45.9394 275.771C46.4564 275.433 47.0596 275.264 47.749 275.264C48.1468 275.264 48.5395 275.33 48.9273 275.463C49.3151 275.596 49.6681 275.811 49.9862 276.109C50.3044 276.404 50.558 276.795 50.7469 277.283C50.9358 277.77 51.0303 278.37 51.0303 279.082V279.58H45.1439V278.565H49.8371C49.8371 278.134 49.7509 277.75 49.5786 277.412C49.4095 277.074 49.1676 276.807 48.8527 276.612C48.5412 276.416 48.1733 276.318 47.749 276.318C47.2817 276.318 46.8773 276.434 46.536 276.666C46.1979 276.895 45.9377 277.193 45.7554 277.561C45.5731 277.929 45.482 278.323 45.482 278.744V279.42C45.482 279.997 45.5814 280.486 45.7803 280.887C45.9825 281.285 46.2625 281.588 46.6205 281.797C46.9784 282.002 47.3944 282.105 47.8683 282.105C48.1766 282.105 48.455 282.062 48.7036 281.976C48.9555 281.886 49.1726 281.754 49.3548 281.578C49.5371 281.399 49.678 281.177 49.7774 280.912L50.911 281.23C50.7916 281.615 50.5911 281.953 50.3094 282.244C50.0277 282.533 49.6797 282.758 49.2654 282.92C48.8511 283.08 48.3854 283.159 47.8683 283.159ZM55.9173 283.159C55.2014 283.159 54.585 282.99 54.0679 282.652C53.5509 282.314 53.1531 281.848 52.8747 281.255C52.5963 280.662 52.4571 279.984 52.4571 279.222C52.4571 278.446 52.5996 277.762 52.8847 277.168C53.173 276.572 53.5741 276.106 54.0878 275.771C54.6048 275.433 55.2081 275.264 55.8975 275.264C56.4344 275.264 56.9183 275.364 57.3492 275.562C57.78 275.761 58.133 276.04 58.4081 276.398C58.6832 276.756 58.8539 277.173 58.9202 277.651H57.7469C57.6574 277.303 57.4585 276.994 57.1503 276.726C56.8454 276.454 56.4344 276.318 55.9173 276.318C55.46 276.318 55.0589 276.437 54.7142 276.676C54.3728 276.911 54.106 277.245 53.9138 277.675C53.7249 278.103 53.6304 278.605 53.6304 279.182C53.6304 279.772 53.7232 280.286 53.9088 280.723C54.0977 281.161 54.3629 281.5 54.7043 281.742C55.049 281.984 55.4533 282.105 55.9173 282.105C56.2223 282.105 56.499 282.052 56.7476 281.946C56.9962 281.84 57.2066 281.688 57.379 281.489C57.5513 281.29 57.674 281.051 57.7469 280.773H58.9202C58.8539 281.223 58.6898 281.629 58.428 281.991C58.1695 282.349 57.8264 282.634 57.3989 282.846C56.9746 283.055 56.4808 283.159 55.9173 283.159ZM63.9564 275.364V276.358H59.999V275.364H63.9564ZM61.1524 273.534H62.3257V280.812C62.3257 281.144 62.3738 281.393 62.4699 281.558C62.5693 281.721 62.6953 281.83 62.8477 281.886C63.0035 281.939 63.1676 281.966 63.3399 281.966C63.4692 281.966 63.5753 281.959 63.6581 281.946C63.741 281.929 63.8073 281.916 63.857 281.906L64.0956 282.96C64.0161 282.99 63.905 283.02 63.7625 283.05C63.62 283.083 63.4394 283.099 63.2206 283.099C62.8892 283.099 62.5644 283.028 62.2462 282.886C61.9313 282.743 61.6695 282.526 61.4607 282.234C61.2552 281.943 61.1524 281.575 61.1524 281.131V273.534ZM71.906 283.179C71.4221 283.179 70.9829 283.088 70.5885 282.906C70.1941 282.72 69.8809 282.453 69.6489 282.105C69.4169 281.754 69.3009 281.33 69.3009 280.832C69.3009 280.395 69.387 280.04 69.5594 279.768C69.7317 279.493 69.9621 279.278 70.2504 279.122C70.5388 278.966 70.857 278.85 71.205 278.774C71.5563 278.695 71.9093 278.632 72.2639 278.585C72.728 278.526 73.1041 278.481 73.3925 278.451C73.6842 278.418 73.8963 278.363 74.0289 278.287C74.1647 278.211 74.2327 278.078 74.2327 277.889V277.849C74.2327 277.359 74.0985 276.978 73.83 276.706C73.5648 276.434 73.1621 276.298 72.6219 276.298C72.0618 276.298 71.6226 276.421 71.3044 276.666C70.9862 276.911 70.7625 277.173 70.6333 277.452L69.5196 277.054C69.7185 276.59 69.9836 276.229 70.3151 275.97C70.6498 275.708 71.0144 275.526 71.4088 275.423C71.8066 275.317 72.1977 275.264 72.5821 275.264C72.8274 275.264 73.1091 275.294 73.4273 275.354C73.7488 275.41 74.0587 275.528 74.357 275.707C74.6586 275.886 74.9088 276.156 75.1077 276.517C75.3066 276.878 75.406 277.362 75.406 277.969V283H74.2327V281.966H74.173C74.0935 282.132 73.9609 282.309 73.7753 282.498C73.5897 282.687 73.3428 282.848 73.0345 282.98C72.7263 283.113 72.3501 283.179 71.906 283.179ZM72.085 282.125C72.549 282.125 72.9401 282.034 73.2583 281.852C73.5798 281.669 73.8217 281.434 73.9841 281.146C74.1498 280.857 74.2327 280.554 74.2327 280.236V279.162C74.183 279.222 74.0736 279.276 73.9046 279.326C73.7388 279.372 73.5466 279.414 73.3279 279.45C73.1124 279.483 72.902 279.513 72.6965 279.54C72.4943 279.563 72.3302 279.583 72.2043 279.599C71.8994 279.639 71.6143 279.704 71.3492 279.793C71.0873 279.879 70.8752 280.01 70.7128 280.186C70.5537 280.358 70.4742 280.594 70.4742 280.892C70.4742 281.3 70.625 281.608 70.9266 281.817C71.2315 282.022 71.6176 282.125 72.085 282.125ZM78.7208 278.406V283H77.5475V275.364H78.681V276.557H78.7805C78.9594 276.169 79.2312 275.857 79.5958 275.622C79.9604 275.384 80.431 275.264 81.0077 275.264C81.5248 275.264 81.9772 275.37 82.365 275.582C82.7528 275.791 83.0544 276.109 83.2698 276.537C83.4852 276.961 83.593 277.498 83.593 278.148V283H82.4197V278.227C82.4197 277.627 82.2639 277.16 81.9523 276.825C81.6408 276.487 81.2132 276.318 80.6697 276.318C80.2951 276.318 79.9604 276.399 79.6654 276.562C79.3737 276.724 79.1434 276.961 78.9743 277.273C78.8053 277.584 78.7208 277.962 78.7208 278.406ZM89.6744 283V275.364H90.8477V283H89.6744ZM90.271 274.091C90.0423 274.091 89.8451 274.013 89.6794 273.857C89.517 273.701 89.4358 273.514 89.4358 273.295C89.4358 273.077 89.517 272.889 89.6794 272.734C89.8451 272.578 90.0423 272.5 90.271 272.5C90.4997 272.5 90.6953 272.578 90.8577 272.734C91.0234 272.889 91.1063 273.077 91.1063 273.295C91.1063 273.514 91.0234 273.701 90.8577 273.857C90.6953 274.013 90.4997 274.091 90.271 274.091ZM98.4058 277.074L97.3518 277.372C97.2855 277.196 97.1878 277.026 97.0585 276.86C96.9326 276.691 96.7602 276.552 96.5415 276.442C96.3227 276.333 96.0426 276.278 95.7013 276.278C95.2339 276.278 94.8445 276.386 94.5329 276.602C94.2247 276.814 94.0706 277.084 94.0706 277.412C94.0706 277.704 94.1766 277.934 94.3888 278.103C94.6009 278.272 94.9323 278.413 95.3831 278.526L96.5166 278.804C97.1994 278.97 97.7081 279.223 98.0429 279.565C98.3776 279.903 98.545 280.339 98.545 280.872C98.545 281.31 98.4191 281.701 98.1672 282.045C97.9186 282.39 97.5706 282.662 97.1231 282.861C96.6757 283.06 96.1553 283.159 95.5621 283.159C94.7832 283.159 94.1385 282.99 93.6281 282.652C93.1177 282.314 92.7945 281.82 92.6586 281.17L93.7723 280.892C93.8783 281.303 94.0789 281.611 94.3738 281.817C94.6721 282.022 95.0616 282.125 95.5422 282.125C96.089 282.125 96.5232 282.009 96.8447 281.777C97.1695 281.542 97.3319 281.26 97.3319 280.932C97.3319 280.667 97.2391 280.445 97.0535 280.266C96.8679 280.083 96.5829 279.947 96.1984 279.858L94.9257 279.56C94.2264 279.394 93.7126 279.137 93.3845 278.789C93.0597 278.438 92.8973 277.999 92.8973 277.472C92.8973 277.041 93.0183 276.66 93.2602 276.328C93.5055 275.997 93.8386 275.737 94.2595 275.548C94.6837 275.359 95.1643 275.264 95.7013 275.264C96.4569 275.264 97.0502 275.43 97.4811 275.761C97.9153 276.093 98.2235 276.53 98.4058 277.074ZM105.72 277.074L104.666 277.372C104.6 277.196 104.502 277.026 104.373 276.86C104.247 276.691 104.075 276.552 103.856 276.442C103.637 276.333 103.357 276.278 103.016 276.278C102.548 276.278 102.159 276.386 101.847 276.602C101.539 276.814 101.385 277.084 101.385 277.412C101.385 277.704 101.491 277.934 101.703 278.103C101.915 278.272 102.247 278.413 102.698 278.526L103.831 278.804C104.514 278.97 105.023 279.223 105.357 279.565C105.692 279.903 105.859 280.339 105.859 280.872C105.859 281.31 105.734 281.701 105.482 282.045C105.233 282.39 104.885 282.662 104.438 282.861C103.99 283.06 103.47 283.159 102.877 283.159C102.098 283.159 101.453 282.99 100.943 282.652C100.432 282.314 100.109 281.82 99.9731 281.17L101.087 280.892C101.193 281.303 101.393 281.611 101.688 281.817C101.987 282.022 102.376 282.125 102.857 282.125C103.403 282.125 103.838 282.009 104.159 281.777C104.484 281.542 104.646 281.26 104.646 280.932C104.646 280.667 104.554 280.445 104.368 280.266C104.182 280.083 103.897 279.947 103.513 279.858L102.24 279.56C101.541 279.394 101.027 279.137 100.699 278.789C100.374 278.438 100.212 277.999 100.212 277.472C100.212 277.041 100.333 276.66 100.575 276.328C100.82 275.997 101.153 275.737 101.574 275.548C101.998 275.359 102.479 275.264 103.016 275.264C103.771 275.264 104.365 275.43 104.796 275.761C105.23 276.093 105.538 276.53 105.72 277.074ZM112.438 279.878V275.364H113.611V283H112.438V281.707H112.359C112.18 282.095 111.901 282.425 111.523 282.697C111.146 282.965 110.668 283.099 110.092 283.099C109.614 283.099 109.19 282.995 108.819 282.786C108.448 282.574 108.156 282.256 107.944 281.832C107.732 281.404 107.626 280.866 107.626 280.216V275.364H108.799V280.136C108.799 280.693 108.955 281.137 109.266 281.469C109.581 281.8 109.982 281.966 110.469 281.966C110.761 281.966 111.058 281.891 111.359 281.742C111.664 281.593 111.919 281.364 112.125 281.056C112.334 280.748 112.438 280.355 112.438 279.878ZM118.962 283.159C118.226 283.159 117.592 282.997 117.058 282.672C116.528 282.344 116.118 281.886 115.83 281.3C115.545 280.71 115.402 280.024 115.402 279.241C115.402 278.459 115.545 277.77 115.83 277.173C116.118 276.573 116.519 276.106 117.033 275.771C117.55 275.433 118.153 275.264 118.843 275.264C119.241 275.264 119.633 275.33 120.021 275.463C120.409 275.596 120.762 275.811 121.08 276.109C121.398 276.404 121.652 276.795 121.841 277.283C122.03 277.77 122.124 278.37 122.124 279.082V279.58H116.238V278.565H120.931C120.931 278.134 120.845 277.75 120.672 277.412C120.503 277.074 120.261 276.807 119.946 276.612C119.635 276.416 119.267 276.318 118.843 276.318C118.375 276.318 117.971 276.434 117.63 276.666C117.292 276.895 117.031 277.193 116.849 277.561C116.667 277.929 116.576 278.323 116.576 278.744V279.42C116.576 279.997 116.675 280.486 116.874 280.887C117.076 281.285 117.356 281.588 117.714 281.797C118.072 282.002 118.488 282.105 118.962 282.105C119.27 282.105 119.549 282.062 119.797 281.976C120.049 281.886 120.266 281.754 120.449 281.578C120.631 281.399 120.772 281.177 120.871 280.912L122.005 281.23C121.885 281.615 121.685 281.953 121.403 282.244C121.121 282.533 120.773 282.758 120.359 282.92C119.945 283.08 119.479 283.159 118.962 283.159ZM130.929 286.023C130.362 286.023 129.875 285.95 129.467 285.804C129.059 285.661 128.72 285.473 128.448 285.237C128.179 285.005 127.966 284.757 127.807 284.491L128.741 283.835C128.847 283.974 128.982 284.134 129.144 284.312C129.306 284.495 129.528 284.652 129.81 284.785C130.095 284.921 130.468 284.989 130.929 284.989C131.545 284.989 132.054 284.839 132.455 284.541C132.856 284.243 133.057 283.776 133.057 283.139V281.588H132.957C132.871 281.727 132.748 281.9 132.589 282.105C132.433 282.307 132.208 282.488 131.913 282.647C131.621 282.803 131.227 282.881 130.73 282.881C130.113 282.881 129.56 282.735 129.069 282.443C128.582 282.152 128.196 281.727 127.911 281.17C127.629 280.614 127.488 279.937 127.488 279.142C127.488 278.36 127.626 277.679 127.901 277.099C128.176 276.515 128.559 276.065 129.049 275.746C129.54 275.425 130.107 275.264 130.75 275.264C131.247 275.264 131.641 275.347 131.933 275.513C132.228 275.675 132.453 275.861 132.609 276.07C132.768 276.275 132.891 276.444 132.977 276.577H133.096V275.364H134.23V283.219C134.23 283.875 134.081 284.409 133.782 284.82C133.487 285.234 133.09 285.537 132.589 285.729C132.092 285.925 131.539 286.023 130.929 286.023ZM130.889 281.827C131.36 281.827 131.757 281.719 132.082 281.504C132.407 281.288 132.654 280.978 132.823 280.574C132.992 280.17 133.076 279.686 133.076 279.122C133.076 278.572 132.994 278.086 132.828 277.665C132.662 277.245 132.417 276.915 132.092 276.676C131.767 276.437 131.366 276.318 130.889 276.318C130.392 276.318 129.977 276.444 129.646 276.696C129.318 276.948 129.071 277.286 128.905 277.71C128.743 278.134 128.662 278.605 128.662 279.122C128.662 279.652 128.745 280.121 128.91 280.529C129.079 280.933 129.328 281.252 129.656 281.484C129.987 281.712 130.398 281.827 130.889 281.827ZM136.378 283V275.364H137.511V276.517H137.591C137.73 276.139 137.982 275.833 138.346 275.597C138.711 275.362 139.122 275.244 139.579 275.244C139.665 275.244 139.773 275.246 139.902 275.249C140.032 275.253 140.129 275.258 140.196 275.264V276.457C140.156 276.447 140.065 276.433 139.922 276.413C139.783 276.389 139.636 276.378 139.48 276.378C139.109 276.378 138.777 276.456 138.486 276.612C138.197 276.764 137.968 276.976 137.799 277.248C137.634 277.516 137.551 277.823 137.551 278.168V283H136.378ZM144.456 283.159C143.767 283.159 143.162 282.995 142.642 282.667C142.125 282.339 141.72 281.88 141.429 281.29C141.14 280.7 140.996 280.01 140.996 279.222C140.996 278.426 141.14 277.732 141.429 277.138C141.72 276.545 142.125 276.085 142.642 275.756C143.162 275.428 143.767 275.264 144.456 275.264C145.146 275.264 145.749 275.428 146.266 275.756C146.786 276.085 147.191 276.545 147.479 277.138C147.771 277.732 147.917 278.426 147.917 279.222C147.917 280.01 147.771 280.7 147.479 281.29C147.191 281.88 146.786 282.339 146.266 282.667C145.749 282.995 145.146 283.159 144.456 283.159ZM144.456 282.105C144.98 282.105 145.411 281.971 145.749 281.702C146.087 281.434 146.337 281.081 146.5 280.643C146.662 280.206 146.743 279.732 146.743 279.222C146.743 278.711 146.662 278.236 146.5 277.795C146.337 277.354 146.087 276.998 145.749 276.726C145.411 276.454 144.98 276.318 144.456 276.318C143.933 276.318 143.502 276.454 143.164 276.726C142.826 276.998 142.575 277.354 142.413 277.795C142.251 278.236 142.169 278.711 142.169 279.222C142.169 279.732 142.251 280.206 142.413 280.643C142.575 281.081 142.826 281.434 143.164 281.702C143.502 281.971 143.933 282.105 144.456 282.105ZM154.52 279.878V275.364H155.693V283H154.52V281.707H154.441C154.262 282.095 153.983 282.425 153.605 282.697C153.228 282.965 152.75 283.099 152.174 283.099C151.696 283.099 151.272 282.995 150.901 282.786C150.53 282.574 150.238 282.256 150.026 281.832C149.814 281.404 149.708 280.866 149.708 280.216V275.364H150.881V280.136C150.881 280.693 151.037 281.137 151.348 281.469C151.663 281.8 152.064 281.966 152.551 281.966C152.843 281.966 153.14 281.891 153.441 281.742C153.746 281.593 154.001 281.364 154.207 281.056C154.416 280.748 154.52 280.355 154.52 279.878ZM157.842 285.864V275.364H158.976V276.577H159.115C159.201 276.444 159.321 276.275 159.473 276.07C159.629 275.861 159.851 275.675 160.139 275.513C160.431 275.347 160.825 275.264 161.323 275.264C161.966 275.264 162.532 275.425 163.023 275.746C163.513 276.068 163.896 276.524 164.171 277.114C164.446 277.704 164.584 278.4 164.584 279.202C164.584 280.01 164.446 280.711 164.171 281.305C163.896 281.895 163.515 282.352 163.028 282.677C162.541 282.998 161.979 283.159 161.342 283.159C160.852 283.159 160.459 283.078 160.164 282.915C159.869 282.75 159.642 282.562 159.483 282.354C159.324 282.142 159.201 281.966 159.115 281.827H159.016V285.864H157.842ZM158.996 279.182C158.996 279.759 159.08 280.267 159.249 280.708C159.418 281.146 159.665 281.489 159.99 281.737C160.315 281.982 160.713 282.105 161.183 282.105C161.674 282.105 162.083 281.976 162.411 281.717C162.743 281.455 162.991 281.104 163.157 280.663C163.326 280.219 163.411 279.725 163.411 279.182C163.411 278.645 163.328 278.161 163.162 277.73C163 277.296 162.753 276.953 162.421 276.701C162.093 276.446 161.68 276.318 161.183 276.318C160.706 276.318 160.305 276.439 159.98 276.681C159.655 276.92 159.41 277.254 159.244 277.685C159.079 278.113 158.996 278.612 158.996 279.182ZM173.712 275.364V276.358H169.595V275.364H173.712ZM170.828 283V274.31C170.828 273.872 170.931 273.508 171.136 273.216C171.342 272.924 171.609 272.705 171.937 272.56C172.265 272.414 172.611 272.341 172.976 272.341C173.264 272.341 173.5 272.364 173.682 272.411C173.864 272.457 174 272.5 174.09 272.54L173.752 273.554C173.692 273.534 173.609 273.509 173.503 273.479C173.4 273.45 173.264 273.435 173.095 273.435C172.707 273.435 172.427 273.532 172.255 273.728C172.086 273.924 172.002 274.21 172.002 274.588V283H170.828ZM175.356 283V275.364H176.49V276.517H176.569C176.708 276.139 176.96 275.833 177.325 275.597C177.689 275.362 178.1 275.244 178.558 275.244C178.644 275.244 178.752 275.246 178.881 275.249C179.01 275.253 179.108 275.258 179.174 275.264V276.457C179.134 276.447 179.043 276.433 178.901 276.413C178.762 276.389 178.614 276.378 178.458 276.378C178.087 276.378 177.756 276.456 177.464 276.612C177.176 276.764 176.947 276.976 176.778 277.248C176.612 277.516 176.529 277.823 176.529 278.168V283H175.356ZM183.435 283.159C182.746 283.159 182.141 282.995 181.62 282.667C181.103 282.339 180.699 281.88 180.407 281.29C180.119 280.7 179.975 280.01 179.975 279.222C179.975 278.426 180.119 277.732 180.407 277.138C180.699 276.545 181.103 276.085 181.62 275.756C182.141 275.428 182.746 275.264 183.435 275.264C184.124 275.264 184.728 275.428 185.245 275.756C185.765 276.085 186.169 276.545 186.458 277.138C186.749 277.732 186.895 278.426 186.895 279.222C186.895 280.01 186.749 280.7 186.458 281.29C186.169 281.88 185.765 282.339 185.245 282.667C184.728 282.995 184.124 283.159 183.435 283.159ZM183.435 282.105C183.959 282.105 184.389 281.971 184.728 281.702C185.066 281.434 185.316 281.081 185.478 280.643C185.641 280.206 185.722 279.732 185.722 279.222C185.722 278.711 185.641 278.236 185.478 277.795C185.316 277.354 185.066 276.998 184.728 276.726C184.389 276.454 183.959 276.318 183.435 276.318C182.911 276.318 182.48 276.454 182.142 276.726C181.804 276.998 181.554 277.354 181.392 277.795C181.229 278.236 181.148 278.711 181.148 279.222C181.148 279.732 181.229 280.206 181.392 280.643C181.554 281.081 181.804 281.434 182.142 281.702C182.48 281.971 182.911 282.105 183.435 282.105ZM188.686 283V275.364H189.82V276.557H189.919C190.078 276.149 190.335 275.833 190.69 275.607C191.044 275.379 191.47 275.264 191.967 275.264C192.471 275.264 192.89 275.379 193.225 275.607C193.563 275.833 193.827 276.149 194.016 276.557H194.095C194.291 276.162 194.584 275.849 194.975 275.617C195.366 275.382 195.835 275.264 196.382 275.264C197.065 275.264 197.623 275.478 198.058 275.906C198.492 276.33 198.709 276.991 198.709 277.889V283H197.536V277.889C197.536 277.326 197.381 276.923 197.073 276.681C196.765 276.439 196.402 276.318 195.984 276.318C195.448 276.318 195.032 276.481 194.737 276.805C194.442 277.127 194.294 277.535 194.294 278.028V283H193.101V277.77C193.101 277.336 192.96 276.986 192.678 276.721C192.397 276.452 192.034 276.318 191.59 276.318C191.285 276.318 191 276.399 190.734 276.562C190.473 276.724 190.261 276.95 190.098 277.238C189.939 277.523 189.859 277.853 189.859 278.227V283H188.686ZM208.113 275.364V276.358H204.155V275.364H208.113ZM205.309 273.534H206.482V280.812C206.482 281.144 206.53 281.393 206.626 281.558C206.726 281.721 206.852 281.83 207.004 281.886C207.16 281.939 207.324 281.966 207.496 281.966C207.625 281.966 207.732 281.959 207.814 281.946C207.897 281.929 207.964 281.916 208.013 281.906L208.252 282.96C208.172 282.99 208.061 283.02 207.919 283.05C207.776 283.083 207.596 283.099 207.377 283.099C207.045 283.099 206.721 283.028 206.402 282.886C206.088 282.743 205.826 282.526 205.617 282.234C205.411 281.943 205.309 281.575 205.309 281.131V273.534ZM211.215 278.406V283H210.042V272.818H211.215V276.557H211.314C211.493 276.162 211.762 275.849 212.12 275.617C212.481 275.382 212.962 275.264 213.562 275.264C214.082 275.264 214.538 275.369 214.929 275.577C215.32 275.783 215.623 276.099 215.839 276.527C216.057 276.951 216.167 277.491 216.167 278.148V283H214.993V278.227C214.993 277.621 214.836 277.152 214.521 276.82C214.209 276.486 213.777 276.318 213.223 276.318C212.839 276.318 212.494 276.399 212.189 276.562C211.888 276.724 211.649 276.961 211.473 277.273C211.301 277.584 211.215 277.962 211.215 278.406ZM221.515 283.159C220.779 283.159 220.144 282.997 219.611 282.672C219.08 282.344 218.671 281.886 218.383 281.3C218.098 280.71 217.955 280.024 217.955 279.241C217.955 278.459 218.098 277.77 218.383 277.173C218.671 276.573 219.072 276.106 219.586 275.771C220.103 275.433 220.706 275.264 221.396 275.264C221.793 275.264 222.186 275.33 222.574 275.463C222.962 275.596 223.315 275.811 223.633 276.109C223.951 276.404 224.204 276.795 224.393 277.283C224.582 277.77 224.677 278.37 224.677 279.082V279.58H218.79V278.565H223.484C223.484 278.134 223.397 277.75 223.225 277.412C223.056 277.074 222.814 276.807 222.499 276.612C222.188 276.416 221.82 276.318 221.396 276.318C220.928 276.318 220.524 276.434 220.182 276.666C219.844 276.895 219.584 277.193 219.402 277.561C219.22 277.929 219.128 278.323 219.128 278.744V279.42C219.128 279.997 219.228 280.486 219.427 280.887C219.629 281.285 219.909 281.588 220.267 281.797C220.625 282.002 221.041 282.105 221.515 282.105C221.823 282.105 222.101 282.062 222.35 281.976C222.602 281.886 222.819 281.754 223.001 281.578C223.184 281.399 223.324 281.177 223.424 280.912L224.557 281.23C224.438 281.615 224.238 281.953 223.956 282.244C223.674 282.533 223.326 282.758 222.912 282.92C222.498 283.08 222.032 283.159 221.515 283.159ZM235.808 277.074L234.754 277.372C234.688 277.196 234.59 277.026 234.461 276.86C234.335 276.691 234.163 276.552 233.944 276.442C233.725 276.333 233.445 276.278 233.104 276.278C232.636 276.278 232.247 276.386 231.935 276.602C231.627 276.814 231.473 277.084 231.473 277.412C231.473 277.704 231.579 277.934 231.791 278.103C232.003 278.272 232.335 278.413 232.785 278.526L233.919 278.804C234.602 278.97 235.11 279.223 235.445 279.565C235.78 279.903 235.947 280.339 235.947 280.872C235.947 281.31 235.821 281.701 235.57 282.045C235.321 282.39 234.973 282.662 234.525 282.861C234.078 283.06 233.558 283.159 232.964 283.159C232.186 283.159 231.541 282.99 231.03 282.652C230.52 282.314 230.197 281.82 230.061 281.17L231.175 280.892C231.281 281.303 231.481 281.611 231.776 281.817C232.074 282.022 232.464 282.125 232.945 282.125C233.491 282.125 233.926 282.009 234.247 281.777C234.572 281.542 234.734 281.26 234.734 280.932C234.734 280.667 234.641 280.445 234.456 280.266C234.27 280.083 233.985 279.947 233.601 279.858L232.328 279.56C231.629 279.394 231.115 279.137 230.787 278.789C230.462 278.438 230.3 277.999 230.3 277.472C230.3 277.041 230.421 276.66 230.663 276.328C230.908 275.997 231.241 275.737 231.662 275.548C232.086 275.359 232.567 275.264 233.104 275.264C233.859 275.264 234.453 275.43 234.883 275.761C235.318 276.093 235.626 276.53 235.808 277.074ZM237.714 283V275.364H238.887V283H237.714ZM238.31 274.091C238.081 274.091 237.884 274.013 237.718 273.857C237.556 273.701 237.475 273.514 237.475 273.295C237.475 273.077 237.556 272.889 237.718 272.734C237.884 272.578 238.081 272.5 238.31 272.5C238.539 272.5 238.734 272.578 238.897 272.734C239.062 272.889 239.145 273.077 239.145 273.295C239.145 273.514 239.062 273.701 238.897 273.857C238.734 274.013 238.539 274.091 238.31 274.091ZM243.919 283.159C243.283 283.159 242.721 282.998 242.234 282.677C241.747 282.352 241.366 281.895 241.09 281.305C240.815 280.711 240.678 280.01 240.678 279.202C240.678 278.4 240.815 277.704 241.09 277.114C241.366 276.524 241.748 276.068 242.239 275.746C242.729 275.425 243.296 275.264 243.939 275.264C244.436 275.264 244.829 275.347 245.117 275.513C245.409 275.675 245.631 275.861 245.784 276.07C245.939 276.275 246.06 276.444 246.147 276.577H246.246V272.818H247.419V283H246.286V281.827H246.147C246.06 281.966 245.938 282.142 245.779 282.354C245.62 282.562 245.393 282.75 245.098 282.915C244.803 283.078 244.41 283.159 243.919 283.159ZM244.078 282.105C244.549 282.105 244.947 281.982 245.272 281.737C245.596 281.489 245.843 281.146 246.012 280.708C246.181 280.267 246.266 279.759 246.266 279.182C246.266 278.612 246.183 278.113 246.017 277.685C245.852 277.254 245.606 276.92 245.282 276.681C244.957 276.439 244.556 276.318 244.078 276.318C243.581 276.318 243.167 276.446 242.835 276.701C242.507 276.953 242.26 277.296 242.095 277.73C241.932 278.161 241.851 278.645 241.851 279.182C241.851 279.725 241.934 280.219 242.1 280.663C242.269 281.104 242.517 281.455 242.845 281.717C243.177 281.976 243.588 282.105 244.078 282.105ZM252.933 283.159C252.197 283.159 251.562 282.997 251.029 282.672C250.498 282.344 250.089 281.886 249.801 281.3C249.516 280.71 249.373 280.024 249.373 279.241C249.373 278.459 249.516 277.77 249.801 277.173C250.089 276.573 250.49 276.106 251.004 275.771C251.521 275.433 252.124 275.264 252.813 275.264C253.211 275.264 253.604 275.33 253.992 275.463C254.38 275.596 254.733 275.811 255.051 276.109C255.369 276.404 255.622 276.795 255.811 277.283C256 277.77 256.095 278.37 256.095 279.082V279.58H250.208V278.565H254.902C254.902 278.134 254.815 277.75 254.643 277.412C254.474 277.074 254.232 276.807 253.917 276.612C253.606 276.416 253.238 276.318 252.813 276.318C252.346 276.318 251.942 276.434 251.6 276.666C251.262 276.895 251.002 277.193 250.82 277.561C250.638 277.929 250.546 278.323 250.546 278.744V279.42C250.546 279.997 250.646 280.486 250.845 280.887C251.047 281.285 251.327 281.588 251.685 281.797C252.043 282.002 252.459 282.105 252.933 282.105C253.241 282.105 253.519 282.062 253.768 281.976C254.02 281.886 254.237 281.754 254.419 281.578C254.602 281.399 254.742 281.177 254.842 280.912L255.975 281.23C255.856 281.615 255.656 281.953 255.374 282.244C255.092 282.533 254.744 282.758 254.33 282.92C253.916 283.08 253.45 283.159 252.933 283.159ZM75.3737 303V295.364H76.5072V296.557H76.6066C76.7657 296.149 77.0226 295.833 77.3772 295.607C77.7319 295.379 78.1578 295.264 78.6549 295.264C79.1587 295.264 79.578 295.379 79.9127 295.607C80.2508 295.833 80.5143 296.149 80.7032 296.557H80.7828C80.9783 296.162 81.2716 295.849 81.6627 295.617C82.0538 295.382 82.5228 295.264 83.0697 295.264C83.7525 295.264 84.3109 295.478 84.7451 295.906C85.1793 296.33 85.3964 296.991 85.3964 297.889V303H84.2231V297.889C84.2231 297.326 84.069 296.923 83.7607 296.681C83.4525 296.439 83.0896 296.318 82.672 296.318C82.135 296.318 81.7191 296.481 81.4241 296.805C81.1291 297.127 80.9816 297.535 80.9816 298.028V303H79.7884V297.77C79.7884 297.336 79.6476 296.986 79.3659 296.721C79.0841 296.452 78.7212 296.318 78.2771 296.318C77.9722 296.318 77.6871 296.399 77.422 296.562C77.1601 296.724 76.948 296.95 76.7856 297.238C76.6265 297.523 76.547 297.853 76.547 298.227V303H75.3737ZM90.7433 303.159C90.0075 303.159 89.3728 302.997 88.8392 302.672C88.3089 302.344 87.8996 301.886 87.6112 301.3C87.3262 300.71 87.1837 300.024 87.1837 299.241C87.1837 298.459 87.3262 297.77 87.6112 297.173C87.8996 296.573 88.3006 296.106 88.8144 295.771C89.3314 295.433 89.9346 295.264 90.624 295.264C91.0218 295.264 91.4145 295.33 91.8023 295.463C92.1901 295.596 92.5431 295.811 92.8612 296.109C93.1794 296.404 93.433 296.795 93.6219 297.283C93.8108 297.77 93.9053 298.37 93.9053 299.082V299.58H88.0189V298.565H92.7121C92.7121 298.134 92.6259 297.75 92.4536 297.412C92.2845 297.074 92.0426 296.807 91.7277 296.612C91.4162 296.416 91.0483 296.318 90.624 296.318C90.1567 296.318 89.7523 296.434 89.411 296.666C89.0729 296.895 88.8127 297.193 88.6304 297.561C88.4481 297.929 88.357 298.323 88.357 298.744V299.42C88.357 299.997 88.4564 300.486 88.6553 300.887C88.8575 301.285 89.1375 301.588 89.4955 301.797C89.8534 302.002 90.2694 302.105 90.7433 302.105C91.0516 302.105 91.33 302.062 91.5786 301.976C91.8305 301.886 92.0476 301.754 92.2298 301.578C92.4121 301.399 92.553 301.177 92.6524 300.912L93.786 301.23C93.6666 301.615 93.4661 301.953 93.1844 302.244C92.9027 302.533 92.5547 302.758 92.1404 302.92C91.7261 303.08 91.2604 303.159 90.7433 303.159ZM96.8634 298.406V303H95.6901V295.364H96.8236V296.557H96.923C97.102 296.169 97.3738 295.857 97.7384 295.622C98.103 295.384 98.5736 295.264 99.1503 295.264C99.6673 295.264 100.12 295.37 100.508 295.582C100.895 295.791 101.197 296.109 101.412 296.537C101.628 296.961 101.736 297.498 101.736 298.148V303H100.562V298.227C100.562 297.627 100.406 297.16 100.095 296.825C99.7834 296.487 99.3558 296.318 98.8122 296.318C98.4377 296.318 98.103 296.399 97.808 296.562C97.5163 296.724 97.286 296.961 97.1169 297.273C96.9479 297.584 96.8634 297.962 96.8634 298.406ZM108.692 299.878V295.364H109.865V303H108.692V301.707H108.612C108.434 302.095 108.155 302.425 107.777 302.697C107.399 302.965 106.922 303.099 106.345 303.099C105.868 303.099 105.444 302.995 105.073 302.786C104.701 302.574 104.41 302.256 104.198 301.832C103.986 301.404 103.88 300.866 103.88 300.216V295.364H105.053V300.136C105.053 300.693 105.209 301.137 105.52 301.469C105.835 301.8 106.236 301.966 106.723 301.966C107.015 301.966 107.312 301.891 107.613 301.742C107.918 301.593 108.173 301.364 108.379 301.056C108.588 300.748 108.692 300.355 108.692 299.878ZM119.273 295.364V296.358H115.315V295.364H119.273ZM116.469 293.534H117.642V300.812C117.642 301.144 117.69 301.393 117.786 301.558C117.886 301.721 118.012 301.83 118.164 301.886C118.32 301.939 118.484 301.966 118.656 301.966C118.786 301.966 118.892 301.959 118.975 301.946C119.057 301.929 119.124 301.916 119.173 301.906L119.412 302.96C119.332 302.99 119.221 303.02 119.079 303.05C118.936 303.083 118.756 303.099 118.537 303.099C118.206 303.099 117.881 303.028 117.563 302.886C117.248 302.743 116.986 302.526 116.777 302.234C116.572 301.943 116.469 301.575 116.469 301.131V293.534ZM124.058 303.159C123.369 303.159 122.764 302.995 122.243 302.667C121.726 302.339 121.322 301.88 121.03 301.29C120.742 300.7 120.598 300.01 120.598 299.222C120.598 298.426 120.742 297.732 121.03 297.138C121.322 296.545 121.726 296.085 122.243 295.756C122.764 295.428 123.369 295.264 124.058 295.264C124.747 295.264 125.351 295.428 125.868 295.756C126.388 296.085 126.792 296.545 127.081 297.138C127.372 297.732 127.518 298.426 127.518 299.222C127.518 300.01 127.372 300.7 127.081 301.29C126.792 301.88 126.388 302.339 125.868 302.667C125.351 302.995 124.747 303.159 124.058 303.159ZM124.058 302.105C124.582 302.105 125.013 301.971 125.351 301.702C125.689 301.434 125.939 301.081 126.101 300.643C126.264 300.206 126.345 299.732 126.345 299.222C126.345 298.711 126.264 298.236 126.101 297.795C125.939 297.354 125.689 296.998 125.351 296.726C125.013 296.454 124.582 296.318 124.058 296.318C123.534 296.318 123.103 296.454 122.765 296.726C122.427 296.998 122.177 297.354 122.015 297.795C121.852 298.236 121.771 298.711 121.771 299.222C121.771 299.732 121.852 300.206 122.015 300.643C122.177 301.081 122.427 301.434 122.765 301.702C123.103 301.971 123.534 302.105 124.058 302.105ZM136.329 306.023C135.762 306.023 135.275 305.95 134.867 305.804C134.46 305.661 134.12 305.473 133.848 305.237C133.58 305.005 133.366 304.757 133.207 304.491L134.142 303.835C134.248 303.974 134.382 304.134 134.544 304.312C134.707 304.495 134.929 304.652 135.21 304.785C135.496 304.921 135.868 304.989 136.329 304.989C136.946 304.989 137.454 304.839 137.855 304.541C138.256 304.243 138.457 303.776 138.457 303.139V301.588H138.358C138.271 301.727 138.149 301.9 137.99 302.105C137.834 302.307 137.608 302.488 137.313 302.647C137.022 302.803 136.627 302.881 136.13 302.881C135.514 302.881 134.96 302.735 134.47 302.443C133.983 302.152 133.596 301.727 133.311 301.17C133.03 300.614 132.889 299.937 132.889 299.142C132.889 298.36 133.026 297.679 133.301 297.099C133.576 296.515 133.959 296.065 134.45 295.746C134.94 295.425 135.507 295.264 136.15 295.264C136.647 295.264 137.042 295.347 137.333 295.513C137.628 295.675 137.854 295.861 138.009 296.07C138.169 296.275 138.291 296.444 138.377 296.577H138.497V295.364H139.63V303.219C139.63 303.875 139.481 304.409 139.183 304.82C138.888 305.234 138.49 305.537 137.99 305.729C137.492 305.925 136.939 306.023 136.329 306.023ZM136.289 301.827C136.76 301.827 137.158 301.719 137.483 301.504C137.807 301.288 138.054 300.978 138.223 300.574C138.392 300.17 138.477 299.686 138.477 299.122C138.477 298.572 138.394 298.086 138.228 297.665C138.063 297.245 137.817 296.915 137.492 296.676C137.168 296.437 136.767 296.318 136.289 296.318C135.792 296.318 135.378 296.444 135.046 296.696C134.718 296.948 134.471 297.286 134.306 297.71C134.143 298.134 134.062 298.605 134.062 299.122C134.062 299.652 134.145 300.121 134.311 300.529C134.48 300.933 134.728 301.252 135.056 301.484C135.388 301.712 135.799 301.827 136.289 301.827ZM144.98 303.159C144.244 303.159 143.609 302.997 143.076 302.672C142.545 302.344 142.136 301.886 141.848 301.3C141.563 300.71 141.42 300.024 141.42 299.241C141.42 298.459 141.563 297.77 141.848 297.173C142.136 296.573 142.537 296.106 143.051 295.771C143.568 295.433 144.171 295.264 144.86 295.264C145.258 295.264 145.651 295.33 146.039 295.463C146.426 295.596 146.779 295.811 147.098 296.109C147.416 296.404 147.669 296.795 147.858 297.283C148.047 297.77 148.142 298.37 148.142 299.082V299.58H142.255V298.565H146.948C146.948 298.134 146.862 297.75 146.69 297.412C146.521 297.074 146.279 296.807 145.964 296.612C145.652 296.416 145.285 296.318 144.86 296.318C144.393 296.318 143.989 296.434 143.647 296.666C143.309 296.895 143.049 297.193 142.867 297.561C142.684 297.929 142.593 298.323 142.593 298.744V299.42C142.593 299.997 142.693 300.486 142.892 300.887C143.094 301.285 143.374 301.588 143.732 301.797C144.09 302.002 144.506 302.105 144.98 302.105C145.288 302.105 145.566 302.062 145.815 301.976C146.067 301.886 146.284 301.754 146.466 301.578C146.648 301.399 146.789 301.177 146.889 300.912L148.022 301.23C147.903 301.615 147.702 301.953 147.421 302.244C147.139 302.533 146.791 302.758 146.377 302.92C145.962 303.08 145.497 303.159 144.98 303.159ZM153.247 295.364V296.358H149.29V295.364H153.247ZM150.443 293.534H151.617V300.812C151.617 301.144 151.665 301.393 151.761 301.558C151.86 301.721 151.986 301.83 152.139 301.886C152.295 301.939 152.459 301.966 152.631 301.966C152.76 301.966 152.866 301.959 152.949 301.946C153.032 301.929 153.098 301.916 153.148 301.906L153.387 302.96C153.307 302.99 153.196 303.02 153.054 303.05C152.911 303.083 152.73 303.099 152.512 303.099C152.18 303.099 151.855 303.028 151.537 302.886C151.222 302.743 150.96 302.526 150.752 302.234C150.546 301.943 150.443 301.575 150.443 301.131V293.534ZM164.359 297.074L163.305 297.372C163.239 297.196 163.141 297.026 163.012 296.86C162.886 296.691 162.713 296.552 162.495 296.442C162.276 296.333 161.996 296.278 161.654 296.278C161.187 296.278 160.798 296.386 160.486 296.602C160.178 296.814 160.024 297.084 160.024 297.412C160.024 297.704 160.13 297.934 160.342 298.103C160.554 298.272 160.885 298.413 161.336 298.526L162.47 298.804C163.152 298.97 163.661 299.223 163.996 299.565C164.331 299.903 164.498 300.339 164.498 300.872C164.498 301.31 164.372 301.701 164.12 302.045C163.872 302.39 163.524 302.662 163.076 302.861C162.629 303.06 162.108 303.159 161.515 303.159C160.736 303.159 160.092 302.99 159.581 302.652C159.071 302.314 158.748 301.82 158.612 301.17L159.725 300.892C159.831 301.303 160.032 301.611 160.327 301.817C160.625 302.022 161.015 302.125 161.495 302.125C162.042 302.125 162.476 302.009 162.798 301.777C163.123 301.542 163.285 301.26 163.285 300.932C163.285 300.667 163.192 300.445 163.007 300.266C162.821 300.083 162.536 299.947 162.152 299.858L160.879 299.56C160.179 299.394 159.666 299.137 159.338 298.789C159.013 298.438 158.85 297.999 158.85 297.472C158.85 297.041 158.971 296.66 159.213 296.328C159.459 295.997 159.792 295.737 160.213 295.548C160.637 295.359 161.117 295.264 161.654 295.264C162.41 295.264 163.003 295.43 163.434 295.761C163.868 296.093 164.177 296.53 164.359 297.074ZM169.585 295.364V296.358H165.628V295.364H169.585ZM166.781 293.534H167.955V300.812C167.955 301.144 168.003 301.393 168.099 301.558C168.198 301.721 168.324 301.83 168.477 301.886C168.632 301.939 168.796 301.966 168.969 301.966C169.098 301.966 169.204 301.959 169.287 301.946C169.37 301.929 169.436 301.916 169.486 301.906L169.725 302.96C169.645 302.99 169.534 303.02 169.391 303.05C169.249 303.083 169.068 303.099 168.85 303.099C168.518 303.099 168.193 303.028 167.875 302.886C167.56 302.743 167.298 302.526 167.09 302.234C166.884 301.943 166.781 301.575 166.781 301.131V293.534ZM173.597 303.179C173.113 303.179 172.674 303.088 172.28 302.906C171.886 302.72 171.572 302.453 171.34 302.105C171.108 301.754 170.992 301.33 170.992 300.832C170.992 300.395 171.078 300.04 171.251 299.768C171.423 299.493 171.653 299.278 171.942 299.122C172.23 298.966 172.548 298.85 172.896 298.774C173.248 298.695 173.601 298.632 173.955 298.585C174.419 298.526 174.796 298.481 175.084 298.451C175.376 298.418 175.588 298.363 175.72 298.287C175.856 298.211 175.924 298.078 175.924 297.889V297.849C175.924 297.359 175.79 296.978 175.521 296.706C175.256 296.434 174.854 296.298 174.313 296.298C173.753 296.298 173.314 296.421 172.996 296.666C172.678 296.911 172.454 297.173 172.325 297.452L171.211 297.054C171.41 296.59 171.675 296.229 172.006 295.97C172.341 295.708 172.706 295.526 173.1 295.423C173.498 295.317 173.889 295.264 174.274 295.264C174.519 295.264 174.801 295.294 175.119 295.354C175.44 295.41 175.75 295.528 176.048 295.707C176.35 295.886 176.6 296.156 176.799 296.517C176.998 296.878 177.097 297.362 177.097 297.969V303H175.924V301.966H175.864C175.785 302.132 175.652 302.309 175.467 302.498C175.281 302.687 175.034 302.848 174.726 302.98C174.418 303.113 174.042 303.179 173.597 303.179ZM173.776 302.125C174.24 302.125 174.631 302.034 174.95 301.852C175.271 301.669 175.513 301.434 175.676 301.146C175.841 300.857 175.924 300.554 175.924 300.236V299.162C175.874 299.222 175.765 299.276 175.596 299.326C175.43 299.372 175.238 299.414 175.019 299.45C174.804 299.483 174.593 299.513 174.388 299.54C174.186 299.563 174.022 299.583 173.896 299.599C173.591 299.639 173.306 299.704 173.041 299.793C172.779 299.879 172.567 300.01 172.404 300.186C172.245 300.358 172.166 300.594 172.166 300.892C172.166 301.3 172.316 301.608 172.618 301.817C172.923 302.022 173.309 302.125 173.776 302.125ZM179.239 303V295.364H180.372V296.517H180.452C180.591 296.139 180.843 295.833 181.208 295.597C181.572 295.362 181.983 295.244 182.441 295.244C182.527 295.244 182.634 295.246 182.764 295.249C182.893 295.253 182.991 295.258 183.057 295.264V296.457C183.017 296.447 182.926 296.433 182.784 296.413C182.644 296.389 182.497 296.378 182.341 296.378C181.97 296.378 181.639 296.456 181.347 296.612C181.059 296.764 180.83 296.976 180.661 297.248C180.495 297.516 180.412 297.823 180.412 298.168V303H179.239ZM188.247 295.364V296.358H184.29V295.364H188.247ZM185.443 293.534H186.617V300.812C186.617 301.144 186.665 301.393 186.761 301.558C186.86 301.721 186.986 301.83 187.139 301.886C187.295 301.939 187.459 301.966 187.631 301.966C187.76 301.966 187.866 301.959 187.949 301.946C188.032 301.929 188.098 301.916 188.148 301.906L188.387 302.96C188.307 302.99 188.196 303.02 188.054 303.05C187.911 303.083 187.73 303.099 187.512 303.099C187.18 303.099 186.855 303.028 186.537 302.886C186.222 302.743 185.96 302.526 185.752 302.234C185.546 301.943 185.443 301.575 185.443 301.131V293.534ZM193.132 303.159C192.396 303.159 191.762 302.997 191.228 302.672C190.698 302.344 190.288 301.886 190 301.3C189.715 300.71 189.572 300.024 189.572 299.241C189.572 298.459 189.715 297.77 190 297.173C190.288 296.573 190.689 296.106 191.203 295.771C191.72 295.433 192.323 295.264 193.013 295.264C193.41 295.264 193.803 295.33 194.191 295.463C194.579 295.596 194.932 295.811 195.25 296.109C195.568 296.404 195.822 296.795 196.011 297.283C196.199 297.77 196.294 298.37 196.294 299.082V299.58H190.408V298.565H195.101C195.101 298.134 195.015 297.75 194.842 297.412C194.673 297.074 194.431 296.807 194.116 296.612C193.805 296.416 193.437 296.318 193.013 296.318C192.545 296.318 192.141 296.434 191.8 296.666C191.462 296.895 191.201 297.193 191.019 297.561C190.837 297.929 190.746 298.323 190.746 298.744V299.42C190.746 299.997 190.845 300.486 191.044 300.887C191.246 301.285 191.526 301.588 191.884 301.797C192.242 302.002 192.658 302.105 193.132 302.105C193.44 302.105 193.719 302.062 193.967 301.976C194.219 301.886 194.436 301.754 194.619 301.578C194.801 301.399 194.942 301.177 195.041 300.912L196.175 301.23C196.055 301.615 195.855 301.953 195.573 302.244C195.291 302.533 194.943 302.758 194.529 302.92C194.115 303.08 193.649 303.159 193.132 303.159ZM200.962 303.159C200.326 303.159 199.764 302.998 199.277 302.677C198.79 302.352 198.409 301.895 198.133 301.305C197.858 300.711 197.721 300.01 197.721 299.202C197.721 298.4 197.858 297.704 198.133 297.114C198.409 296.524 198.791 296.068 199.282 295.746C199.772 295.425 200.339 295.264 200.982 295.264C201.479 295.264 201.872 295.347 202.16 295.513C202.452 295.675 202.674 295.861 202.827 296.07C202.982 296.275 203.103 296.444 203.19 296.577H203.289V292.818H204.462V303H203.329V301.827H203.19C203.103 301.966 202.981 302.142 202.822 302.354C202.663 302.562 202.436 302.75 202.141 302.915C201.846 303.078 201.453 303.159 200.962 303.159ZM201.121 302.105C201.592 302.105 201.99 301.982 202.315 301.737C202.639 301.489 202.886 301.146 203.055 300.708C203.224 300.267 203.309 299.759 203.309 299.182C203.309 298.612 203.226 298.113 203.06 297.685C202.895 297.254 202.649 296.92 202.324 296.681C202 296.439 201.599 296.318 201.121 296.318C200.624 296.318 200.21 296.446 199.878 296.701C199.55 296.953 199.303 297.296 199.138 297.73C198.975 298.161 198.894 298.645 198.894 299.182C198.894 299.725 198.977 300.219 199.143 300.663C199.312 301.104 199.56 301.455 199.888 301.717C200.22 301.976 200.631 302.105 201.121 302.105Z" fill="#383A3F"/>
<defs>
<filter id="filter0_d_1693_23311" x="86" y="92" width="108" height="127" filterUnits="userSpaceOnUse" color-interpolation-filters="sRGB">
<feFlood flood-opacity="0" result="BackgroundImageFix"/>
<feColorMatrix in="SourceAlpha" type="matrix" values="0 0 0 0 0 0 0 0 0 0 0 0 0 0 0 0 0 0 127 0" result="hardAlpha"/>
<feOffset dy="-3"/>
<feGaussianBlur stdDeviation="3"/>
<feColorMatrix type="matrix" values="0 0 0 0 0.788235 0 0 0 0 0.803922 0 0 0 0 0.85098 0 0 0 0.349 0"/>
<feBlend mode="normal" in2="BackgroundImageFix" result="effect1_dropShadow_1693_23311"/>
<feBlend mode="normal" in="SourceGraphic" in2="effect1_dropShadow_1693_23311" result="shape"/>
</filter>
<filter id="filter1_d_1693_23311" x="86" y="41" width="108" height="52" filterUnits="userSpaceOnUse" color-interpolation-filters="sRGB">
<feFlood flood-opacity="0" result="BackgroundImageFix"/>
<feColorMatrix in="SourceAlpha" type="matrix" values="0 0 0 0 0 0 0 0 0 0 0 0 0 0 0 0 0 0 127 0" result="hardAlpha"/>
<feOffset dy="-3"/>
<feGaussianBlur stdDeviation="3"/>
<feColorMatrix type="matrix" values="0 0 0 0 0.788235 0 0 0 0 0.803922 0 0 0 0 0.85098 0 0 0 0.349 0"/>
<feBlend mode="normal" in2="BackgroundImageFix" result="effect1_dropShadow_1693_23311"/>
<feBlend mode="normal" in="SourceGraphic" in2="effect1_dropShadow_1693_23311" result="shape"/>
</filter>
</defs>
</svg>
