<svg width="110" height="110" viewBox="0 0 110 110" fill="none" xmlns="http://www.w3.org/2000/svg">
<g style="mix-blend-mode:luminosity">
<path d="M53.4459 8.79913C53.4459 6.81966 51.8504 5.2251 49.8698 5.2251H11.8261C9.84547 5.2251 8.25 6.81966 8.25 8.79913V66.3685C8.25 68.3479 9.84547 69.9425 11.8261 69.9425H85.4379C87.4184 69.9425 89.0139 68.3479 89.0139 66.3685V15.9472C89.0139 13.9677 87.4184 12.3732 85.4379 12.3732H57.0494C55.0414 12.3732 53.4459 10.7786 53.4459 8.79913Z" fill="#F0F3F5"/>
<path fill-rule="evenodd" clip-rule="evenodd" d="M14.9071 38.821C14.9071 38.5172 15.1533 38.271 15.4571 38.271H20.161C20.4648 38.271 20.711 38.5172 20.711 38.821V43.3573C20.711 43.661 20.4648 43.9073 20.161 43.9073H15.4571C15.1533 43.9073 14.9071 43.661 14.9071 43.3573V38.821ZM16.0071 39.371V42.8073H19.611V39.371H16.0071ZM63.2389 38.821C63.2389 38.5172 63.4851 38.271 63.7889 38.271H68.4928C68.7965 38.271 69.0428 38.5172 69.0428 38.821V43.3573C69.0428 43.661 68.7965 43.9073 68.4928 43.9073H63.7889C63.4851 43.9073 63.2389 43.661 63.2389 43.3573V38.821ZM64.3389 39.371V42.8073H67.9428V39.371H64.3389ZM14.9071 100.239C14.9071 99.9351 15.1533 99.6889 15.4571 99.6889H20.161C20.4648 99.6889 20.711 99.9351 20.711 100.239V104.775C20.711 105.079 20.4648 105.325 20.161 105.325H15.4571C15.1533 105.325 14.9071 105.079 14.9071 104.775V100.239ZM16.0071 100.789V104.225H19.611V100.789H16.0071ZM63.239 100.239C63.239 99.9351 63.4852 99.6889 63.789 99.6889H68.4929C68.7966 99.6889 69.0429 99.9351 69.0429 100.239V104.775C69.0429 105.079 68.7966 105.325 68.4929 105.325H63.789C63.4852 105.325 63.239 105.079 63.239 104.775V100.239ZM64.339 100.789V104.225H67.9429V100.789H64.339Z" fill="#999999"/>
<path fill-rule="evenodd" clip-rule="evenodd" d="M21.5092 41.0749C21.5092 40.7711 21.7554 40.5249 22.0592 40.5249H22.6092C22.9129 40.5249 23.1592 40.7711 23.1592 41.0749C23.1592 41.3787 22.9129 41.6249 22.6092 41.6249H22.0592C21.7554 41.6249 21.5092 41.3787 21.5092 41.0749Z" fill="#999999"/>
<path fill-rule="evenodd" clip-rule="evenodd" d="M24.9203 41.0749C24.9203 40.7711 25.1665 40.5249 25.4703 40.5249H26.0196C26.3233 40.5249 26.5696 40.7711 26.5696 41.0749C26.5696 41.3787 26.3233 41.6249 26.0196 41.6249H25.4703C25.1665 41.6249 24.9203 41.3787 24.9203 41.0749ZM28.216 41.0749C28.216 40.7711 28.4623 40.5249 28.766 40.5249H29.8646C30.1684 40.5249 30.4146 40.7711 30.4146 41.0749C30.4146 41.3787 30.1684 41.6249 29.8646 41.6249H28.766C28.4623 41.6249 28.216 41.3787 28.216 41.0749ZM32.0611 41.0749C32.0611 40.7711 32.3073 40.5249 32.6111 40.5249H33.7096C34.0134 40.5249 34.2596 40.7711 34.2596 41.0749C34.2596 41.3787 34.0134 41.6249 33.7096 41.6249H32.6111C32.3073 41.6249 32.0611 41.3787 32.0611 41.0749ZM35.9061 41.0749C35.9061 40.7711 36.1523 40.5249 36.4561 40.5249H37.5547C37.8584 40.5249 38.1047 40.7711 38.1047 41.0749C38.1047 41.3787 37.8584 41.6249 37.5547 41.6249H36.4561C36.1523 41.6249 35.9061 41.3787 35.9061 41.0749ZM39.7511 41.0749C39.7511 40.7711 39.9974 40.5249 40.3011 40.5249H41.3997C41.7034 40.5249 41.9497 40.7711 41.9497 41.0749C41.9497 41.3787 41.7034 41.6249 41.3997 41.6249H40.3011C39.9974 41.6249 39.7511 41.3787 39.7511 41.0749ZM43.5961 41.0749C43.5961 40.7711 43.8424 40.5249 44.1461 40.5249H45.2447C45.5485 40.5249 45.7947 40.7711 45.7947 41.0749C45.7947 41.3787 45.5485 41.6249 45.2447 41.6249H44.1461C43.8424 41.6249 43.5961 41.3787 43.5961 41.0749ZM47.4412 41.0749C47.4412 40.7711 47.6874 40.5249 47.9912 40.5249H49.0897C49.3935 40.5249 49.6397 40.7711 49.6397 41.0749C49.6397 41.3787 49.3935 41.6249 49.0897 41.6249H47.9912C47.6874 41.6249 47.4412 41.3787 47.4412 41.0749ZM51.2862 41.0749C51.2862 40.7711 51.5324 40.5249 51.8362 40.5249H52.9348C53.2385 40.5249 53.4848 40.7711 53.4848 41.0749C53.4848 41.3787 53.2385 41.6249 52.9348 41.6249H51.8362C51.5324 41.6249 51.2862 41.3787 51.2862 41.0749ZM55.1312 41.0749C55.1312 40.7711 55.3775 40.5249 55.6812 40.5249H56.7798C57.0836 40.5249 57.3298 40.7711 57.3298 41.0749C57.3298 41.3787 57.0836 41.6249 56.7798 41.6249H55.6812C55.3775 41.6249 55.1312 41.3787 55.1312 41.0749ZM58.9762 41.0749C58.9762 40.7711 59.2225 40.5249 59.5262 40.5249H60.0755C60.3793 40.5249 60.6255 40.7711 60.6255 41.0749C60.6255 41.3787 60.3793 41.6249 60.0755 41.6249H59.5262C59.2225 41.6249 58.9762 41.3787 58.9762 41.0749Z" fill="#999999"/>
<path fill-rule="evenodd" clip-rule="evenodd" d="M60.9559 41.0749C60.9559 40.7711 61.2022 40.5249 61.5059 40.5249H62.0559C62.3597 40.5249 62.6059 40.7711 62.6059 41.0749C62.6059 41.3787 62.3597 41.6249 62.0559 41.6249H61.5059C61.2022 41.6249 60.9559 41.3787 60.9559 41.0749Z" fill="#999999"/>
<path fill-rule="evenodd" clip-rule="evenodd" d="M21.5091 102.494C21.5091 102.19 21.7553 101.944 22.0591 101.944H22.6091C22.9129 101.944 23.1591 102.19 23.1591 102.494C23.1591 102.798 22.9129 103.044 22.6091 103.044H22.0591C21.7553 103.044 21.5091 102.798 21.5091 102.494Z" fill="#999999"/>
<path fill-rule="evenodd" clip-rule="evenodd" d="M24.9202 102.494C24.9202 102.19 25.1665 101.944 25.4702 101.944H26.0195C26.3233 101.944 26.5695 102.19 26.5695 102.494C26.5695 102.798 26.3233 103.044 26.0195 103.044H25.4702C25.1665 103.044 24.9202 102.798 24.9202 102.494ZM28.216 102.494C28.216 102.19 28.4622 101.944 28.766 101.944H29.8645C30.1683 101.944 30.4145 102.19 30.4145 102.494C30.4145 102.798 30.1683 103.044 29.8645 103.044H28.766C28.4622 103.044 28.216 102.798 28.216 102.494ZM32.061 102.494C32.061 102.19 32.3072 101.944 32.611 101.944H33.7096C34.0133 101.944 34.2596 102.19 34.2596 102.494C34.2596 102.798 34.0133 103.044 33.7096 103.044H32.611C32.3072 103.044 32.061 102.798 32.061 102.494ZM35.906 102.494C35.906 102.19 36.1523 101.944 36.456 101.944H37.5546C37.8584 101.944 38.1046 102.19 38.1046 102.494C38.1046 102.798 37.8584 103.044 37.5546 103.044H36.456C36.1523 103.044 35.906 102.798 35.906 102.494ZM39.751 102.494C39.751 102.19 39.9973 101.944 40.301 101.944H41.3996C41.7034 101.944 41.9496 102.19 41.9496 102.494C41.9496 102.798 41.7034 103.044 41.3996 103.044H40.301C39.9973 103.044 39.751 102.798 39.751 102.494ZM43.5961 102.494C43.5961 102.19 43.8423 101.944 44.1461 101.944H45.2447C45.5484 101.944 45.7947 102.19 45.7947 102.494C45.7947 102.798 45.5484 103.044 45.2447 103.044H44.1461C43.8423 103.044 43.5961 102.798 43.5961 102.494ZM47.4411 102.494C47.4411 102.19 47.6873 101.944 47.9911 101.944H49.0897C49.3934 101.944 49.6397 102.19 49.6397 102.494C49.6397 102.798 49.3934 103.044 49.0897 103.044H47.9911C47.6873 103.044 47.4411 102.798 47.4411 102.494ZM51.2861 102.494C51.2861 102.19 51.5324 101.944 51.8361 101.944H52.9347C53.2385 101.944 53.4847 102.19 53.4847 102.494C53.4847 102.798 53.2385 103.044 52.9347 103.044H51.8361C51.5324 103.044 51.2861 102.798 51.2861 102.494ZM55.1312 102.494C55.1312 102.19 55.3774 101.944 55.6812 101.944H56.7797C57.0835 101.944 57.3297 102.19 57.3297 102.494C57.3297 102.798 57.0835 103.044 56.7797 103.044H55.6812C55.3774 103.044 55.1312 102.798 55.1312 102.494ZM58.9762 102.494C58.9762 102.19 59.2224 101.944 59.5262 101.944H60.0755C60.3792 101.944 60.6255 102.19 60.6255 102.494C60.6255 102.798 60.3792 103.044 60.0755 103.044H59.5262C59.2224 103.044 58.9762 102.798 58.9762 102.494Z" fill="#999999"/>
<path fill-rule="evenodd" clip-rule="evenodd" d="M60.9559 102.494C60.9559 102.19 61.2021 101.944 61.5059 101.944H62.0559C62.3596 101.944 62.6059 102.19 62.6059 102.494C62.6059 102.798 62.3596 103.044 62.0559 103.044H61.5059C61.2021 103.044 60.9559 102.798 60.9559 102.494Z" fill="#999999"/>
<path fill-rule="evenodd" clip-rule="evenodd" d="M17.8227 44.5112C18.1265 44.5112 18.3727 44.7575 18.3727 45.0612V45.6112C18.3727 45.915 18.1265 46.1612 17.8227 46.1612C17.5189 46.1612 17.2727 45.915 17.2727 45.6112V45.0612C17.2727 44.7575 17.5189 44.5112 17.8227 44.5112Z" fill="#999999"/>
<path fill-rule="evenodd" clip-rule="evenodd" d="M17.8227 47.7554C18.1265 47.7554 18.3727 48.0016 18.3727 48.3054V48.8335C18.3727 49.1372 18.1265 49.3835 17.8227 49.3835C17.5189 49.3835 17.2727 49.1372 17.2727 48.8335V48.3054C17.2727 48.0016 17.5189 47.7554 17.8227 47.7554ZM17.8227 50.924C18.1265 50.924 18.3727 51.1702 18.3727 51.474V52.5302C18.3727 52.8339 18.1265 53.0802 17.8227 53.0802C17.5189 53.0802 17.2727 52.8339 17.2727 52.5302V51.474C17.2727 51.1702 17.5189 50.924 17.8227 50.924ZM17.8227 54.6206C18.1265 54.6206 18.3727 54.8669 18.3727 55.1706V56.2268C18.3727 56.5306 18.1265 56.7768 17.8227 56.7768C17.5189 56.7768 17.2727 56.5306 17.2727 56.2268V55.1706C17.2727 54.8669 17.5189 54.6206 17.8227 54.6206ZM17.8227 58.3173C18.1265 58.3173 18.3727 58.5636 18.3727 58.8673V59.9235C18.3727 60.2273 18.1265 60.4735 17.8227 60.4735C17.5189 60.4735 17.2727 60.2273 17.2727 59.9235V58.8673C17.2727 58.5636 17.5189 58.3173 17.8227 58.3173ZM17.8227 62.014C18.1265 62.014 18.3727 62.2603 18.3727 62.564V63.6202C18.3727 63.924 18.1265 64.1702 17.8227 64.1702C17.5189 64.1702 17.2727 63.924 17.2727 63.6202V62.564C17.2727 62.2603 17.5189 62.014 17.8227 62.014ZM17.8227 65.7107C18.1265 65.7107 18.3727 65.957 18.3727 66.2607V67.3169C18.3727 67.6207 18.1265 67.8669 17.8227 67.8669C17.5189 67.8669 17.2727 67.6207 17.2727 67.3169V66.2607C17.2727 65.957 17.5189 65.7107 17.8227 65.7107ZM17.8227 69.4074C18.1265 69.4074 18.3727 69.6536 18.3727 69.9574V71.0136C18.3727 71.3173 18.1265 71.5636 17.8227 71.5636C17.5189 71.5636 17.2727 71.3173 17.2727 71.0136V69.9574C17.2727 69.6536 17.5189 69.4074 17.8227 69.4074ZM17.8227 73.1041C18.1265 73.1041 18.3727 73.3503 18.3727 73.6541V74.7103C18.3727 75.014 18.1265 75.2603 17.8227 75.2603C17.5189 75.2603 17.2727 75.014 17.2727 74.7103V73.6541C17.2727 73.3503 17.5189 73.1041 17.8227 73.1041ZM17.8227 76.8008C18.1265 76.8008 18.3727 77.047 18.3727 77.3508V78.407C18.3727 78.7107 18.1265 78.957 17.8227 78.957C17.5189 78.957 17.2727 78.7107 17.2727 78.407V77.3508C17.2727 77.047 17.5189 76.8008 17.8227 76.8008ZM17.8227 80.4975C18.1265 80.4975 18.3727 80.7437 18.3727 81.0475V82.1036C18.3727 82.4074 18.1265 82.6536 17.8227 82.6536C17.5189 82.6536 17.2727 82.4074 17.2727 82.1036V81.0475C17.2727 80.7437 17.5189 80.4975 17.8227 80.4975ZM17.8227 84.1941C18.1265 84.1941 18.3727 84.4404 18.3727 84.7441V85.8003C18.3727 86.1041 18.1265 86.3503 17.8227 86.3503C17.5189 86.3503 17.2727 86.1041 17.2727 85.8003V84.7441C17.2727 84.4404 17.5189 84.1941 17.8227 84.1941ZM17.8227 87.8908C18.1265 87.8908 18.3727 88.1371 18.3727 88.4408V89.497C18.3727 89.8008 18.1265 90.047 17.8227 90.047C17.5189 90.047 17.2727 89.8008 17.2727 89.497V88.4408C17.2727 88.1371 17.5189 87.8908 17.8227 87.8908ZM17.8227 91.5875C18.1265 91.5875 18.3727 91.8338 18.3727 92.1375V93.1937C18.3727 93.4975 18.1265 93.7437 17.8227 93.7437C17.5189 93.7437 17.2727 93.4975 17.2727 93.1937V92.1375C17.2727 91.8338 17.5189 91.5875 17.8227 91.5875ZM17.8227 95.2842C18.1265 95.2842 18.3727 95.5304 18.3727 95.8342V96.3623C18.3727 96.6661 18.1265 96.9123 17.8227 96.9123C17.5189 96.9123 17.2727 96.6661 17.2727 96.3623V95.8342C17.2727 95.5304 17.5189 95.2842 17.8227 95.2842Z" fill="#999999"/>
<path fill-rule="evenodd" clip-rule="evenodd" d="M17.8227 97.1592C18.1265 97.1592 18.3727 97.4054 18.3727 97.7092V98.2592C18.3727 98.5629 18.1265 98.8092 17.8227 98.8092C17.5189 98.8092 17.2727 98.5629 17.2727 98.2592V97.7092C17.2727 97.4054 17.5189 97.1592 17.8227 97.1592Z" fill="#999999"/>
<path fill-rule="evenodd" clip-rule="evenodd" d="M66.1546 44.5112C66.4584 44.5112 66.7046 44.7575 66.7046 45.0612V45.6112C66.7046 45.915 66.4584 46.1612 66.1546 46.1612C65.8509 46.1612 65.6046 45.915 65.6046 45.6112V45.0612C65.6046 44.7575 65.8509 44.5112 66.1546 44.5112Z" fill="#999999"/>
<path fill-rule="evenodd" clip-rule="evenodd" d="M66.1546 47.7554C66.4584 47.7554 66.7046 48.0016 66.7046 48.3054V48.8335C66.7046 49.1372 66.4584 49.3835 66.1546 49.3835C65.8509 49.3835 65.6046 49.1372 65.6046 48.8335V48.3054C65.6046 48.0016 65.8509 47.7554 66.1546 47.7554ZM66.1546 50.924C66.4584 50.924 66.7046 51.1702 66.7046 51.474V52.5302C66.7046 52.8339 66.4584 53.0802 66.1546 53.0802C65.8509 53.0802 65.6046 52.8339 65.6046 52.5302V51.474C65.6046 51.1702 65.8509 50.924 66.1546 50.924ZM66.1546 54.6206C66.4584 54.6206 66.7046 54.8669 66.7046 55.1706V56.2268C66.7046 56.5306 66.4584 56.7768 66.1546 56.7768C65.8509 56.7768 65.6046 56.5306 65.6046 56.2268V55.1706C65.6046 54.8669 65.8509 54.6206 66.1546 54.6206ZM66.1546 58.3173C66.4584 58.3173 66.7046 58.5636 66.7046 58.8673V59.9235C66.7046 60.2273 66.4584 60.4735 66.1546 60.4735C65.8509 60.4735 65.6046 60.2273 65.6046 59.9235V58.8673C65.6046 58.5636 65.8509 58.3173 66.1546 58.3173ZM66.1546 62.014C66.4584 62.014 66.7046 62.2603 66.7046 62.564V63.6202C66.7046 63.924 66.4584 64.1702 66.1546 64.1702C65.8509 64.1702 65.6046 63.924 65.6046 63.6202V62.564C65.6046 62.2603 65.8509 62.014 66.1546 62.014ZM66.1546 65.7107C66.4584 65.7107 66.7046 65.957 66.7046 66.2607V67.3169C66.7046 67.6207 66.4584 67.8669 66.1546 67.8669C65.8509 67.8669 65.6046 67.6207 65.6046 67.3169V66.2607C65.6046 65.957 65.8509 65.7107 66.1546 65.7107ZM66.1546 69.4074C66.4584 69.4074 66.7046 69.6536 66.7046 69.9574V71.0136C66.7046 71.3173 66.4584 71.5636 66.1546 71.5636C65.8509 71.5636 65.6046 71.3173 65.6046 71.0136V69.9574C65.6046 69.6536 65.8509 69.4074 66.1546 69.4074ZM66.1546 73.1041C66.4584 73.1041 66.7046 73.3503 66.7046 73.6541V74.7103C66.7046 75.014 66.4584 75.2603 66.1546 75.2603C65.8509 75.2603 65.6046 75.014 65.6046 74.7103V73.6541C65.6046 73.3503 65.8509 73.1041 66.1546 73.1041ZM66.1546 76.8008C66.4584 76.8008 66.7046 77.047 66.7046 77.3508V78.407C66.7046 78.7107 66.4584 78.957 66.1546 78.957C65.8509 78.957 65.6046 78.7107 65.6046 78.407V77.3508C65.6046 77.047 65.8509 76.8008 66.1546 76.8008ZM66.1546 80.4975C66.4584 80.4975 66.7046 80.7437 66.7046 81.0475V82.1036C66.7046 82.4074 66.4584 82.6536 66.1546 82.6536C65.8509 82.6536 65.6046 82.4074 65.6046 82.1036V81.0475C65.6046 80.7437 65.8509 80.4975 66.1546 80.4975ZM66.1546 84.1941C66.4584 84.1941 66.7046 84.4404 66.7046 84.7441V85.8003C66.7046 86.1041 66.4584 86.3503 66.1546 86.3503C65.8509 86.3503 65.6046 86.1041 65.6046 85.8003V84.7441C65.6046 84.4404 65.8509 84.1941 66.1546 84.1941ZM66.1546 87.8908C66.4584 87.8908 66.7046 88.1371 66.7046 88.4408V89.497C66.7046 89.8008 66.4584 90.047 66.1546 90.047C65.8509 90.047 65.6046 89.8008 65.6046 89.497V88.4408C65.6046 88.1371 65.8509 87.8908 66.1546 87.8908ZM66.1546 91.5875C66.4584 91.5875 66.7046 91.8338 66.7046 92.1375V93.1937C66.7046 93.4975 66.4584 93.7437 66.1546 93.7437C65.8509 93.7437 65.6046 93.4975 65.6046 93.1937V92.1375C65.6046 91.8338 65.8509 91.5875 66.1546 91.5875ZM66.1546 95.2842C66.4584 95.2842 66.7046 95.5304 66.7046 95.8342V96.3623C66.7046 96.6661 66.4584 96.9123 66.1546 96.9123C65.8509 96.9123 65.6046 96.6661 65.6046 96.3623V95.8342C65.6046 95.5304 65.8509 95.2842 66.1546 95.2842Z" fill="#999999"/>
<path fill-rule="evenodd" clip-rule="evenodd" d="M66.1546 97.1592C66.4584 97.1592 66.7046 97.4054 66.7046 97.7092V98.2592C66.7046 98.5629 66.4584 98.8092 66.1546 98.8092C65.8509 98.8092 65.6046 98.5629 65.6046 98.2592V97.7092C65.6046 97.4054 65.8509 97.1592 66.1546 97.1592Z" fill="#999999"/>
<path fill-rule="evenodd" clip-rule="evenodd" d="M42.8827 24.3876C37.9597 24.3876 33.9699 28.3755 33.9699 33.295C33.9699 33.5988 33.7237 33.845 33.4199 33.845C33.1162 33.845 32.8699 33.5988 32.8699 33.295C32.8699 27.7674 37.3527 23.2876 42.8827 23.2876C43.1865 23.2876 43.4327 23.5338 43.4327 23.8376C43.4327 24.1414 43.1865 24.3876 42.8827 24.3876Z" fill="#999999"/>
<path d="M33.8326 36.4023L36.0607 33.0208C36.2808 32.6909 36.0332 32.251 35.6481 32.251H31.1918C30.8067 32.251 30.5591 32.6909 30.7791 33.0208L33.0073 36.4023C33.1999 36.7048 33.64 36.7048 33.8326 36.4023Z" fill="#999999"/>
<path d="M95.2856 86.5205L50.4198 89.2973C48.5768 89.4072 47.0638 88.0326 47.0638 86.1906V21.6656C47.0638 19.8236 48.5768 18.5315 50.4198 18.7514L95.2856 24.1949C96.716 24.3599 97.8714 25.7895 97.8714 27.3841V83.4688C97.8714 85.0634 96.716 86.438 95.2856 86.5205Z" fill="#FFD493"/>
<path fill-rule="evenodd" clip-rule="evenodd" d="M55.0294 25.2358C54.8884 25.2185 54.7506 25.2192 54.6178 25.2355C54.3164 25.2727 54.0419 25.0584 54.0047 24.7569C53.9676 24.4554 54.1819 24.1809 54.4834 24.1438C54.7032 24.1167 54.9295 24.1157 55.1589 24.1434L55.731 24.205C56.033 24.2375 56.2515 24.5086 56.219 24.8106C56.1865 25.1127 55.9154 25.3311 55.6133 25.2987L55.0374 25.2367L55.0294 25.2358ZM58.005 25.0028C58.0375 24.7008 58.3086 24.4823 58.6106 24.5148L59.7625 24.6387C60.0645 24.6712 60.283 24.9424 60.2505 25.2444C60.218 25.5464 59.9468 25.7649 59.6448 25.7324L58.493 25.6085C58.1909 25.576 57.9725 25.3048 58.005 25.0028ZM62.0364 25.4366C62.0689 25.1346 62.3401 24.9161 62.6421 24.9486L63.794 25.0725C64.096 25.105 64.3145 25.3762 64.282 25.6782C64.2495 25.9802 63.9783 26.1987 63.6763 26.1662L62.5244 26.0423C62.2224 26.0098 62.0039 25.7386 62.0364 25.4366ZM66.0679 25.8703C66.1004 25.5683 66.3716 25.3498 66.6736 25.3823L67.8254 25.5063C68.1274 25.5388 68.3459 25.8099 68.3134 26.112C68.2809 26.414 68.0098 26.6325 67.7078 26.6L66.5559 26.476C66.2539 26.4435 66.0354 26.1724 66.0679 25.8703ZM70.0994 26.3041C70.1319 26.0021 70.403 25.7836 70.7051 25.8161L71.8569 25.94C72.1589 25.9725 72.3774 26.2437 72.3449 26.5457C72.3124 26.8477 72.0412 27.0662 71.7392 27.0337L70.5874 26.9098C70.2854 26.8773 70.0669 26.6061 70.0994 26.3041ZM52.7624 25.8685C53.0574 25.9411 53.2376 26.239 53.165 26.534C53.1328 26.665 53.1155 26.8023 53.1155 26.9442V27.4779C53.1155 27.7816 52.8693 28.0279 52.5655 28.0279C52.2617 28.0279 52.0155 27.7816 52.0155 27.4779V26.9442C52.0155 26.7127 52.0437 26.4872 52.0969 26.271C52.1695 25.9761 52.4675 25.7959 52.7624 25.8685ZM74.1308 26.7379C74.1633 26.4359 74.4345 26.2174 74.7365 26.2499L75.8884 26.3738C76.1904 26.4063 76.4089 26.6775 76.3764 26.9795C76.3439 27.2815 76.0727 27.5 75.7707 27.4675L74.6189 27.3436C74.3168 27.3111 74.0984 27.0399 74.1308 26.7379ZM78.1623 27.1717C78.1948 26.8696 78.466 26.6512 78.768 26.6837L79.9198 26.8076C80.2219 26.8401 80.4403 27.1113 80.4079 27.4133C80.3754 27.7153 80.1042 27.9338 79.8022 27.9013L78.6503 27.7773C78.3483 27.7448 78.1298 27.4737 78.1623 27.1717ZM82.1938 27.6054C82.2263 27.3034 82.4975 27.0849 82.7995 27.1174L83.9513 27.2414C84.2533 27.2739 84.4718 27.545 84.4393 27.847C84.4068 28.1491 84.1357 28.3675 83.8336 28.335L82.6818 28.2111C82.3798 28.1786 82.1613 27.9074 82.1938 27.6054ZM86.2253 28.0392C86.2578 27.7372 86.5289 27.5187 86.8309 27.5512L87.9828 27.6751C88.2848 27.7076 88.5033 27.9788 88.4708 28.2808C88.4383 28.5828 88.1671 28.8013 87.8651 28.7688L86.7133 28.6449C86.4112 28.6124 86.1928 28.3412 86.2253 28.0392ZM90.2567 28.473C90.2892 28.171 90.5604 27.9525 90.8624 27.985L91.4383 28.0469L91.4445 28.0476C91.6415 28.0711 91.8324 28.114 92.0151 28.1746C92.3034 28.2701 92.4597 28.5813 92.3642 28.8697C92.2686 29.158 91.9574 29.3143 91.6691 29.2187C91.557 29.1816 91.4394 29.155 91.3174 29.1403C91.3165 29.1402 91.3155 29.14 91.3145 29.1399L90.7447 29.0787C90.4427 29.0462 90.2242 28.775 90.2567 28.473ZM52.5655 29.5961C52.8693 29.5961 53.1155 29.8424 53.1155 30.1461V31.2134C53.1155 31.5172 52.8693 31.7634 52.5655 31.7634C52.2617 31.7634 52.0155 31.5172 52.0155 31.2134V30.1461C52.0155 29.8424 52.2617 29.5961 52.5655 29.5961ZM93.2495 29.8393C93.5464 29.7754 93.839 29.9643 93.9029 30.2613C93.9437 30.4512 93.9651 30.6476 93.9651 30.8482V31.3907C93.9651 31.6945 93.7189 31.9407 93.4151 31.9407C93.1113 31.9407 92.8651 31.6945 92.8651 31.3907V30.8482C92.8651 30.726 92.8521 30.6071 92.8275 30.4927C92.7636 30.1958 92.9525 29.9032 93.2495 29.8393ZM52.5655 33.3317C52.8693 33.3317 53.1155 33.5779 53.1155 33.8817V34.949C53.1155 35.2527 52.8693 35.499 52.5655 35.499C52.2617 35.499 52.0155 35.2527 52.0155 34.949V33.8817C52.0155 33.5779 52.2617 33.3317 52.5655 33.3317ZM93.4151 33.5535C93.7189 33.5535 93.9651 33.7997 93.9651 34.1035V35.1886C93.9651 35.4924 93.7189 35.7386 93.4151 35.7386C93.1113 35.7386 92.8651 35.4924 92.8651 35.1886V34.1035C92.8651 33.7997 93.1113 33.5535 93.4151 33.5535ZM52.5655 37.0672C52.8693 37.0672 53.1155 37.3135 53.1155 37.6172V38.6845C53.1155 38.9883 52.8693 39.2345 52.5655 39.2345C52.2617 39.2345 52.0155 38.9883 52.0155 38.6845V37.6172C52.0155 37.3135 52.2617 37.0672 52.5655 37.0672ZM93.4151 37.3514C93.7189 37.3514 93.9651 37.5976 93.9651 37.9014V38.9865C93.9651 39.2903 93.7189 39.5365 93.4151 39.5365C93.1113 39.5365 92.8651 39.2903 92.8651 38.9865V37.9014C92.8651 37.5976 93.1113 37.3514 93.4151 37.3514ZM52.5655 40.8028C52.8693 40.8028 53.1155 41.049 53.1155 41.3528V42.4201C53.1155 42.7238 52.8693 42.9701 52.5655 42.9701C52.2617 42.9701 52.0155 42.7238 52.0155 42.4201V41.3528C52.0155 41.049 52.2617 40.8028 52.5655 40.8028ZM93.4151 41.1493C93.7189 41.1493 93.9651 41.3955 93.9651 41.6993V42.7844C93.9651 43.0882 93.7189 43.3344 93.4151 43.3344C93.1113 43.3344 92.8651 43.0882 92.8651 42.7844V41.6993C92.8651 41.3955 93.1113 41.1493 93.4151 41.1493ZM52.5655 44.5383C52.8693 44.5383 53.1155 44.7846 53.1155 45.0883V46.1556C53.1155 46.4594 52.8693 46.7056 52.5655 46.7056C52.2617 46.7056 52.0155 46.4594 52.0155 46.1556V45.0883C52.0155 44.7846 52.2617 44.5383 52.5655 44.5383ZM93.4151 44.9472C93.7189 44.9472 93.9651 45.1934 93.9651 45.4972V46.5823C93.9651 46.8861 93.7189 47.1323 93.4151 47.1323C93.1113 47.1323 92.8651 46.8861 92.8651 46.5823V45.4972C92.8651 45.1934 93.1113 44.9472 93.4151 44.9472ZM52.5655 48.2739C52.8693 48.2739 53.1155 48.5201 53.1155 48.8239V49.8912C53.1155 50.1949 52.8693 50.4412 52.5655 50.4412C52.2617 50.4412 52.0155 50.1949 52.0155 49.8912V48.8239C52.0155 48.5201 52.2617 48.2739 52.5655 48.2739ZM93.4151 48.7451C93.7189 48.7451 93.9651 48.9913 93.9651 49.2951V50.3802C93.9651 50.684 93.7189 50.9302 93.4151 50.9302C93.1113 50.9302 92.8651 50.684 92.8651 50.3802V49.2951C92.8651 48.9913 93.1113 48.7451 93.4151 48.7451ZM52.5655 52.0094C52.8693 52.0094 53.1155 52.2556 53.1155 52.5594V53.6267C53.1155 53.9305 52.8693 54.1767 52.5655 54.1767C52.2617 54.1767 52.0155 53.9305 52.0155 53.6267V52.5594C52.0155 52.2556 52.2617 52.0094 52.5655 52.0094ZM93.4151 52.543C93.7189 52.543 93.9651 52.7892 93.9651 53.093V54.1781C93.9651 54.4819 93.7189 54.7281 93.4151 54.7281C93.1113 54.7281 92.8651 54.4819 92.8651 54.1781V53.093C92.8651 52.7892 93.1113 52.543 93.4151 52.543ZM52.5655 55.745C52.8693 55.745 53.1155 55.9912 53.1155 56.295V56.8286C53.1155 56.959 53.1304 57.0857 53.1586 57.2075C53.2271 57.5034 53.0426 57.7988 52.7467 57.8673C52.4507 57.9357 52.1553 57.7513 52.0869 57.4553C52.0402 57.2533 52.0155 57.0434 52.0155 56.8286V56.295C52.0155 55.9912 52.2617 55.745 52.5655 55.745ZM93.4151 56.3409C93.7189 56.3409 93.9651 56.5871 93.9651 56.8909V57.4334C93.9651 57.6525 93.9407 57.8662 93.894 58.0718C93.8267 58.368 93.532 58.5536 93.2358 58.4863C92.9396 58.4191 92.754 58.1244 92.8213 57.8282C92.8498 57.7025 92.8651 57.5705 92.8651 57.4334V56.8909C92.8651 56.5871 93.1113 56.3409 93.4151 56.3409ZM53.7857 58.9112C53.8588 58.6164 54.157 58.4367 54.4519 58.5098C54.5742 58.5401 54.7014 58.5576 54.832 58.5606C54.8325 58.5606 54.8329 58.5606 54.8334 58.5606L55.4058 58.5702C55.7095 58.5752 55.9516 58.8255 55.9466 59.1293C55.9415 59.433 55.6912 59.6751 55.3875 59.67L54.812 59.6604L54.809 59.6603C54.5957 59.6556 54.3875 59.6271 54.1871 59.5774C53.8923 59.5043 53.7125 59.2061 53.7857 58.9112ZM57.7242 59.1589C57.7292 58.8552 57.9796 58.6131 58.2833 58.6182L59.4342 58.6374C59.738 58.6424 59.9801 58.8927 59.975 59.1965C59.9699 59.5002 59.7196 59.7423 59.4159 59.7372L58.2649 59.718C57.9612 59.7129 57.7191 59.4626 57.7242 59.1589ZM61.7526 59.2261C61.7577 58.9224 62.008 58.6803 62.3117 58.6854L63.4627 58.7046C63.7664 58.7096 64.0085 58.9599 64.0034 59.2637C63.9983 59.5674 63.748 59.8095 63.4443 59.8044L62.2933 59.7852C61.9896 59.7801 61.7475 59.5298 61.7526 59.2261ZM65.781 59.2933C65.7861 58.9896 66.0364 58.7475 66.3401 58.7526L67.4911 58.7718C67.7948 58.7768 68.0369 59.0271 68.0318 59.3309C68.0268 59.6346 67.7764 59.8767 67.4727 59.8716L66.3218 59.8524C66.018 59.8473 65.7759 59.597 65.781 59.2933ZM69.8094 59.3605C69.8145 59.0568 70.0648 58.8147 70.3685 58.8198L71.5195 58.839C71.8232 58.844 72.0653 59.0944 72.0602 59.3981C72.0552 59.7018 71.8049 59.9439 71.5011 59.9388L70.3502 59.9196C70.0465 59.9146 69.8044 59.6642 69.8094 59.3605ZM73.8378 59.4277C73.8429 59.124 74.0932 58.8819 74.3969 58.887L75.5479 58.9062C75.8516 58.9112 76.0937 59.1616 76.0887 59.4653C76.0836 59.769 75.8333 60.0111 75.5296 60.006L74.3786 59.9868C74.0749 59.9818 73.8328 59.7314 73.8378 59.4277ZM77.8663 59.4949C77.8713 59.1912 78.1216 58.9491 78.4254 58.9542L79.5763 58.9734C79.88 58.9784 80.1221 59.2288 80.1171 59.5325C80.112 59.8362 79.8617 60.0783 79.558 60.0732L78.407 60.054C78.1033 60.049 77.8612 59.7986 77.8663 59.4949ZM81.8947 59.5621C81.8997 59.2584 82.1501 59.0163 82.4538 59.0214L83.6047 59.0406C83.9085 59.0457 84.1506 59.296 84.1455 59.5997C84.1404 59.9034 83.8901 60.1455 83.5864 60.1404L82.4354 60.1212C82.1317 60.1162 81.8896 59.8658 81.8947 59.5621ZM85.9231 59.6293C85.9282 59.3256 86.1785 59.0835 86.4822 59.0886L87.6332 59.1078C87.9369 59.1129 88.179 59.3632 88.1739 59.6669C88.1688 59.9706 87.9185 60.2127 87.6148 60.2076L86.4638 60.1884C86.1601 60.1834 85.918 59.9331 85.9231 59.6293ZM92.1336 59.5599C92.1941 59.8576 92.0017 60.1479 91.704 60.2083C91.498 60.2501 91.2844 60.2698 91.0661 60.2652C91.0658 60.2652 91.0655 60.2652 91.0652 60.2652L90.4922 60.2556C90.1885 60.2506 89.9464 60.0003 89.9515 59.6965C89.9566 59.3928 90.2069 59.1507 90.5106 59.1558L91.0861 59.1654M91.0886 59.1654C91.2259 59.1684 91.3585 59.156 91.4852 59.1303C91.7829 59.0699 92.0732 59.2622 92.1336 59.5599" fill="#DD7E10"/>
<path opacity="0.2" d="M95.0107 56.0871L57.022 55.4547C56.1692 55.4272 55.4815 54.7399 55.4815 53.8877V22.2713C55.4815 21.3365 56.3068 20.5942 57.2145 20.7042L95.2033 24.7731C96.001 24.8556 96.6062 25.5429 96.6062 26.3402V54.52C96.6062 55.3997 95.891 56.1146 95.0107 56.0871Z" fill="#999999"/>
<path d="M100.045 53.0348L60.2127 52.375C59.4425 52.375 58.8373 51.7427 58.8373 50.9729V17.707C58.8373 16.8822 59.5526 16.2224 60.3778 16.3323L100.237 20.6212C100.952 20.7036 101.475 21.281 101.475 21.9958V51.6327C101.475 52.43 100.842 53.0348 100.045 53.0348Z" fill="#FFBE5C"/>
<path fill-rule="evenodd" clip-rule="evenodd" d="M81.8341 28.5391C82.1379 28.5391 82.3841 28.7853 82.3841 29.0891V34.5826L87.5611 34.8914C87.8643 34.9095 88.0955 35.17 88.0774 35.4732C88.0593 35.7764 87.7989 36.0076 87.4956 35.9895L82.3841 35.6846V41.0758C82.3841 41.3796 82.1379 41.6258 81.8341 41.6258C81.5304 41.6258 81.2841 41.3796 81.2841 41.0758V35.619L75.9697 35.302C75.6665 35.2839 75.4354 35.0234 75.4534 34.7202C75.4715 34.417 75.732 34.1858 76.0352 34.2039L81.2841 34.517V29.0891C81.2841 28.7853 81.5304 28.5391 81.8341 28.5391Z" fill="white"/>
</g>
</svg>
