<svg width="280" height="358" viewBox="0 0 280 358" fill="none" xmlns="http://www.w3.org/2000/svg">
<g opacity="0.5">
<path d="M140 208C181.421 208 215 174.421 215 133C215 91.5786 181.421 58 140 58C98.5786 58 65 91.5786 65 133C65 174.421 98.5786 208 140 208Z" fill="#ECECEC"/>
<g filter="url(#filter0_d_959_20900)">
<path d="M183 101H97C94.2386 101 92 103.239 92 106V211C92 213.761 94.2386 216 97 216H183C185.761 216 188 213.761 188 211V106C188 103.239 185.761 101 183 101Z" fill="white"/>
</g>
<path d="M130 116H104C102.343 116 101 117.343 101 119C101 120.657 102.343 122 104 122H130C131.657 122 133 120.657 133 119C133 117.343 131.657 116 130 116Z" fill="#D5D4DC"/>
<path d="M148 129H104C102.343 129 101 130.343 101 132C101 133.657 102.343 135 104 135H148C149.657 135 151 133.657 151 132C151 130.343 149.657 129 148 129Z" fill="#8B849B"/>
<path d="M130 143H104C102.343 143 101 144.343 101 146C101 147.657 102.343 149 104 149H130C131.657 149 133 147.657 133 146C133 144.343 131.657 143 130 143Z" fill="#D5D4DC"/>
<path d="M148 156H104C102.343 156 101 157.343 101 159C101 160.657 102.343 162 104 162H148C149.657 162 151 160.657 151 159C151 157.343 149.657 156 148 156Z" fill="#8B849B"/>
<path d="M130 170H104C102.343 170 101 171.343 101 173C101 174.657 102.343 176 104 176H130C131.657 176 133 174.657 133 173C133 171.343 131.657 170 130 170Z" fill="#D5D4DC"/>
<path d="M148 183H104C102.343 183 101 184.343 101 186C101 187.657 102.343 189 104 189H148C149.657 189 151 187.657 151 186C151 184.343 149.657 183 148 183Z" fill="#8B849B"/>
<g filter="url(#filter1_d_959_20900)">
<path d="M183 50H97C94.2386 50 92 52.2386 92 55V85C92 87.7614 94.2386 90 97 90H183C185.761 90 188 87.7614 188 85V55C188 52.2386 185.761 50 183 50Z" fill="#383A3F"/>
</g>
<path d="M130 61H104C102.343 61 101 62.3431 101 64C101 65.6569 102.343 67 104 67H130C131.657 67 133 65.6569 133 64C133 62.3431 131.657 61 130 61Z" fill="#8B849B"/>
<path d="M148 74H104C102.343 74 101 75.3431 101 77C101 78.6569 102.343 80 104 80H148C149.657 80 151 78.6569 151 77C151 75.3431 149.657 74 148 74Z" fill="white"/>
</g>
<path d="M118.049 235.909V249H115.94L109.771 240.083H109.663V249H107.291V235.909H109.413L115.575 244.832H115.69V235.909H118.049ZM124.813 249.192C123.855 249.192 123.024 248.981 122.32 248.559C121.617 248.137 121.072 247.547 120.684 246.788C120.301 246.03 120.109 245.143 120.109 244.129C120.109 243.115 120.301 242.227 120.684 241.464C121.072 240.701 121.617 240.109 122.32 239.687C123.024 239.265 123.855 239.054 124.813 239.054C125.772 239.054 126.603 239.265 127.306 239.687C128.009 240.109 128.553 240.701 128.936 241.464C129.324 242.227 129.518 243.115 129.518 244.129C129.518 245.143 129.324 246.03 128.936 246.788C128.553 247.547 128.009 248.137 127.306 248.559C126.603 248.981 125.772 249.192 124.813 249.192ZM124.826 247.338C125.346 247.338 125.781 247.195 126.13 246.91C126.48 246.62 126.74 246.232 126.91 245.746C127.085 245.261 127.172 244.719 127.172 244.123C127.172 243.522 127.085 242.979 126.91 242.493C126.74 242.003 126.48 241.613 126.13 241.323C125.781 241.033 125.346 240.888 124.826 240.888C124.294 240.888 123.85 241.033 123.497 241.323C123.147 241.613 122.885 242.003 122.71 242.493C122.54 242.979 122.455 243.522 122.455 244.123C122.455 244.719 122.54 245.261 122.71 245.746C122.885 246.232 123.147 246.62 123.497 246.91C123.85 247.195 124.294 247.338 124.826 247.338ZM139.59 249.173C138.819 249.173 138.129 248.974 137.519 248.578C136.91 248.182 136.428 247.607 136.075 246.852C135.721 246.098 135.544 245.182 135.544 244.104C135.544 243.013 135.723 242.092 136.081 241.342C136.443 240.588 136.931 240.019 137.545 239.636C138.158 239.248 138.842 239.054 139.597 239.054C140.172 239.054 140.645 239.152 141.016 239.348C141.386 239.54 141.68 239.772 141.898 240.045C142.115 240.313 142.283 240.567 142.403 240.805H142.499V235.909H144.819V249H142.543V247.453H142.403C142.283 247.692 142.111 247.945 141.885 248.214C141.659 248.478 141.361 248.704 140.99 248.891C140.619 249.079 140.153 249.173 139.59 249.173ZM140.236 247.274C140.726 247.274 141.143 247.142 141.489 246.878C141.834 246.609 142.096 246.237 142.275 245.759C142.454 245.282 142.543 244.726 142.543 244.091C142.543 243.456 142.454 242.904 142.275 242.435C142.1 241.967 141.84 241.602 141.495 241.342C141.154 241.082 140.734 240.952 140.236 240.952C139.72 240.952 139.29 241.087 138.945 241.355C138.599 241.624 138.339 241.994 138.165 242.467C137.99 242.94 137.903 243.482 137.903 244.091C137.903 244.705 137.99 245.252 138.165 245.734C138.344 246.211 138.606 246.588 138.951 246.865C139.3 247.138 139.729 247.274 140.236 247.274ZM150.11 249.198C149.488 249.198 148.927 249.087 148.429 248.866C147.934 248.64 147.542 248.308 147.253 247.869C146.967 247.43 146.824 246.888 146.824 246.245C146.824 245.691 146.927 245.233 147.131 244.871C147.336 244.509 147.615 244.219 147.969 244.001C148.322 243.784 148.721 243.62 149.164 243.509C149.611 243.394 150.074 243.311 150.551 243.26C151.126 243.2 151.593 243.147 151.951 243.1C152.309 243.049 152.569 242.972 152.731 242.87C152.897 242.763 152.98 242.599 152.98 242.378V242.339C152.98 241.858 152.837 241.485 152.552 241.221C152.266 240.957 151.855 240.825 151.318 240.825C150.751 240.825 150.302 240.948 149.969 241.195C149.641 241.442 149.42 241.734 149.305 242.071L147.144 241.764C147.314 241.168 147.596 240.669 147.988 240.268C148.38 239.864 148.859 239.561 149.426 239.361C149.993 239.156 150.619 239.054 151.305 239.054C151.778 239.054 152.249 239.109 152.718 239.22C153.187 239.331 153.615 239.514 154.003 239.77C154.39 240.021 154.702 240.364 154.936 240.799C155.175 241.234 155.294 241.777 155.294 242.429V249H153.069V247.651H152.993C152.852 247.924 152.654 248.18 152.398 248.418C152.147 248.653 151.829 248.842 151.446 248.987C151.067 249.128 150.621 249.198 150.11 249.198ZM150.711 247.498C151.175 247.498 151.578 247.406 151.919 247.223C152.26 247.036 152.522 246.788 152.705 246.482C152.893 246.175 152.986 245.84 152.986 245.478V244.321C152.914 244.381 152.79 244.436 152.616 244.487C152.445 244.538 152.253 244.583 152.04 244.621C151.827 244.66 151.616 244.694 151.407 244.724C151.199 244.754 151.018 244.779 150.864 244.8C150.519 244.847 150.21 244.924 149.937 245.031C149.665 245.137 149.449 245.286 149.292 245.478C149.134 245.665 149.055 245.908 149.055 246.207C149.055 246.633 149.211 246.955 149.522 247.172C149.833 247.389 150.229 247.498 150.711 247.498ZM162.523 239.182V240.972H156.879V239.182H162.523ZM158.273 236.83H160.586V246.047C160.586 246.358 160.633 246.597 160.727 246.763C160.825 246.925 160.953 247.036 161.111 247.095C161.268 247.155 161.443 247.185 161.635 247.185C161.78 247.185 161.912 247.174 162.031 247.153C162.155 247.131 162.248 247.112 162.312 247.095L162.702 248.904C162.579 248.947 162.402 248.994 162.172 249.045C161.946 249.096 161.669 249.126 161.341 249.134C160.761 249.151 160.239 249.064 159.775 248.872C159.31 248.676 158.942 248.374 158.669 247.964C158.4 247.555 158.268 247.044 158.273 246.43V236.83ZM167.284 249.198C166.662 249.198 166.101 249.087 165.603 248.866C165.108 248.64 164.716 248.308 164.426 247.869C164.141 247.43 163.998 246.888 163.998 246.245C163.998 245.691 164.1 245.233 164.305 244.871C164.51 244.509 164.789 244.219 165.142 244.001C165.496 243.784 165.895 243.62 166.338 243.509C166.785 243.394 167.248 243.311 167.725 243.26C168.3 243.2 168.767 243.147 169.125 243.1C169.483 243.049 169.743 242.972 169.904 242.87C170.071 242.763 170.154 242.599 170.154 242.378V242.339C170.154 241.858 170.011 241.485 169.725 241.221C169.44 240.957 169.029 240.825 168.492 240.825C167.925 240.825 167.475 240.948 167.143 241.195C166.815 241.442 166.593 241.734 166.478 242.071L164.318 241.764C164.488 241.168 164.77 240.669 165.162 240.268C165.554 239.864 166.033 239.561 166.6 239.361C167.167 239.156 167.793 239.054 168.479 239.054C168.952 239.054 169.423 239.109 169.892 239.22C170.36 239.331 170.789 239.514 171.176 239.77C171.564 240.021 171.875 240.364 172.11 240.799C172.348 241.234 172.468 241.777 172.468 242.429V249H170.243V247.651H170.167C170.026 247.924 169.828 248.18 169.572 248.418C169.321 248.653 169.003 248.842 168.62 248.987C168.24 249.128 167.795 249.198 167.284 249.198ZM167.885 247.498C168.349 247.498 168.752 247.406 169.093 247.223C169.434 247.036 169.696 246.788 169.879 246.482C170.066 246.175 170.16 245.84 170.16 245.478V244.321C170.088 244.381 169.964 244.436 169.789 244.487C169.619 244.538 169.427 244.583 169.214 244.621C169.001 244.66 168.79 244.694 168.581 244.724C168.373 244.754 168.191 244.779 168.038 244.8C167.693 244.847 167.384 244.924 167.111 245.031C166.838 245.137 166.623 245.286 166.466 245.478C166.308 245.665 166.229 245.908 166.229 246.207C166.229 246.633 166.385 246.955 166.696 247.172C167.007 247.389 167.403 247.498 167.885 247.498Z" fill="#383A3F"/>
<path d="M30.9283 272.818H32.3402L35.1641 277.571H35.2834L38.1072 272.818H39.5192L35.8402 278.804V283H34.6072V278.804L30.9283 272.818ZM42.9769 283.159C42.2875 283.159 41.6826 282.995 41.1623 282.667C40.6452 282.339 40.2409 281.88 39.9492 281.29C39.6609 280.7 39.5167 280.01 39.5167 279.222C39.5167 278.426 39.6609 277.732 39.9492 277.138C40.2409 276.545 40.6452 276.085 41.1623 275.756C41.6826 275.428 42.2875 275.264 42.9769 275.264C43.6663 275.264 44.2695 275.428 44.7866 275.756C45.3069 276.085 45.7113 276.545 45.9996 277.138C46.2913 277.732 46.4371 278.426 46.4371 279.222C46.4371 280.01 46.2913 280.7 45.9996 281.29C45.7113 281.88 45.3069 282.339 44.7866 282.667C44.2695 282.995 43.6663 283.159 42.9769 283.159ZM42.9769 282.105C43.5006 282.105 43.9315 281.971 44.2695 281.702C44.6076 281.434 44.8578 281.081 45.0202 280.643C45.1826 280.206 45.2638 279.732 45.2638 279.222C45.2638 278.711 45.1826 278.236 45.0202 277.795C44.8578 277.354 44.6076 276.998 44.2695 276.726C43.9315 276.454 43.5006 276.318 42.9769 276.318C42.4532 276.318 42.0224 276.454 41.6843 276.726C41.3462 276.998 41.096 277.354 40.9336 277.795C40.7712 278.236 40.69 278.711 40.69 279.222C40.69 279.732 40.7712 280.206 40.9336 280.643C41.096 281.081 41.3462 281.434 41.6843 281.702C42.0224 281.971 42.4532 282.105 42.9769 282.105ZM53.0407 279.878V275.364H54.214V283H53.0407V281.707H52.9611C52.7821 282.095 52.5037 282.425 52.1259 282.697C51.748 282.965 51.2708 283.099 50.6941 283.099C50.2168 283.099 49.7926 282.995 49.4213 282.786C49.0501 282.574 48.7585 282.256 48.5463 281.832C48.3342 281.404 48.2282 280.866 48.2282 280.216V275.364H49.4015V280.136C49.4015 280.693 49.5572 281.137 49.8688 281.469C50.1837 281.8 50.5847 281.966 51.0719 281.966C51.3636 281.966 51.6602 281.891 51.9618 281.742C52.2667 281.593 52.522 281.364 52.7275 281.056C52.9363 280.748 53.0407 280.355 53.0407 279.878ZM61.4737 278.406V283H60.3004V272.818H61.4737V276.557H61.5732C61.7521 276.162 62.0206 275.849 62.3786 275.617C62.7398 275.382 63.2204 275.264 63.8203 275.264C64.3407 275.264 64.7964 275.369 65.1875 275.577C65.5786 275.783 65.8819 276.099 66.0973 276.527C66.3161 276.951 66.4254 277.491 66.4254 278.148V283H65.2521V278.227C65.2521 277.621 65.0947 277.152 64.7798 276.82C64.4683 276.486 64.0357 276.318 63.4822 276.318C63.0978 276.318 62.7531 276.399 62.4482 276.562C62.1465 276.724 61.9079 276.961 61.7322 277.273C61.5599 277.584 61.4737 277.962 61.4737 278.406ZM70.8191 283.179C70.3352 283.179 69.896 283.088 69.5016 282.906C69.1072 282.72 68.794 282.453 68.562 282.105C68.33 281.754 68.214 281.33 68.214 280.832C68.214 280.395 68.3001 280.04 68.4725 279.768C68.6448 279.493 68.8752 279.278 69.1635 279.122C69.4519 278.966 69.7701 278.85 70.1181 278.774C70.4694 278.695 70.8224 278.632 71.177 278.585C71.641 278.526 72.0172 278.481 72.3056 278.451C72.5972 278.418 72.8094 278.363 72.9419 278.287C73.0778 278.211 73.1458 278.078 73.1458 277.889V277.849C73.1458 277.359 73.0115 276.978 72.7431 276.706C72.4779 276.434 72.0752 276.298 71.535 276.298C70.9748 276.298 70.5357 276.421 70.2175 276.666C69.8993 276.911 69.6756 277.173 69.5463 277.452L68.4327 277.054C68.6316 276.59 68.8967 276.229 69.2282 275.97C69.5629 275.708 69.9275 275.526 70.3219 275.423C70.7196 275.317 71.1107 275.264 71.4952 275.264C71.7405 275.264 72.0222 275.294 72.3404 275.354C72.6619 275.41 72.9718 275.528 73.2701 275.707C73.5717 275.886 73.8219 276.156 74.0208 276.517C74.2196 276.878 74.3191 277.362 74.3191 277.969V283H73.1458V281.966H73.0861C73.0066 282.132 72.874 282.309 72.6884 282.498C72.5028 282.687 72.2559 282.848 71.9476 282.98C71.6394 283.113 71.2632 283.179 70.8191 283.179ZM70.998 282.125C71.4621 282.125 71.8532 282.034 72.1713 281.852C72.4928 281.669 72.7348 281.434 72.8972 281.146C73.0629 280.857 73.1458 280.554 73.1458 280.236V279.162C73.0961 279.222 72.9867 279.276 72.8176 279.326C72.6519 279.372 72.4597 279.414 72.2409 279.45C72.0255 279.483 71.815 279.513 71.6096 279.54C71.4074 279.563 71.2433 279.583 71.1174 279.599C70.8124 279.639 70.5274 279.704 70.2623 279.793C70.0004 279.879 69.7883 280.01 69.6259 280.186C69.4668 280.358 69.3873 280.594 69.3873 280.892C69.3873 281.3 69.5381 281.608 69.8397 281.817C70.1446 282.022 70.5307 282.125 70.998 282.125ZM82.4315 275.364L79.6076 283H78.4144L75.5906 275.364H76.8633L78.9712 281.449H79.0508L81.1587 275.364H82.4315ZM86.9084 283.159C86.1726 283.159 85.5379 282.997 85.0043 282.672C84.474 282.344 84.0646 281.886 83.7763 281.3C83.4912 280.71 83.3487 280.024 83.3487 279.241C83.3487 278.459 83.4912 277.77 83.7763 277.173C84.0646 276.573 84.4657 276.106 84.9794 275.771C85.4964 275.433 86.0997 275.264 86.7891 275.264C87.1868 275.264 87.5795 275.33 87.9673 275.463C88.3551 275.596 88.7081 275.811 89.0263 276.109C89.3445 276.404 89.598 276.795 89.7869 277.283C89.9759 277.77 90.0703 278.37 90.0703 279.082V279.58H84.1839V278.565H88.8771C88.8771 278.134 88.791 277.75 88.6186 277.412C88.4496 277.074 88.2076 276.807 87.8928 276.612C87.5812 276.416 87.2133 276.318 86.7891 276.318C86.3217 276.318 85.9174 276.434 85.576 276.666C85.2379 276.895 84.9777 277.193 84.7955 277.561C84.6132 277.929 84.522 278.323 84.522 278.744V279.42C84.522 279.997 84.6214 280.486 84.8203 280.887C85.0225 281.285 85.3026 281.588 85.6605 281.797C86.0185 282.002 86.4344 282.105 86.9084 282.105C87.2166 282.105 87.495 282.062 87.7436 281.976C87.9955 281.886 88.2126 281.754 88.3949 281.578C88.5772 281.399 88.718 281.177 88.8175 280.912L89.951 281.23C89.8317 281.615 89.6312 281.953 89.3494 282.244C89.0677 282.533 88.7197 282.758 88.3054 282.92C87.8911 283.08 87.4254 283.159 86.9084 283.159ZM96.9659 278.406V283H95.7926V275.364H96.9261V276.557H97.0256C97.2045 276.169 97.4763 275.857 97.8409 275.622C98.2055 275.384 98.6761 275.264 99.2528 275.264C99.7699 275.264 100.222 275.37 100.61 275.582C100.998 275.791 101.299 276.109 101.515 276.537C101.73 276.961 101.838 277.498 101.838 278.148V283H100.665V278.227C100.665 277.627 100.509 277.16 100.197 276.825C99.8859 276.487 99.4583 276.318 98.9148 276.318C98.5402 276.318 98.2055 276.399 97.9105 276.562C97.6188 276.724 97.3885 276.961 97.2195 277.273C97.0504 277.584 96.9659 277.962 96.9659 278.406ZM107.084 283.159C106.395 283.159 105.79 282.995 105.27 282.667C104.753 282.339 104.348 281.88 104.057 281.29C103.768 280.7 103.624 280.01 103.624 279.222C103.624 278.426 103.768 277.732 104.057 277.138C104.348 276.545 104.753 276.085 105.27 275.756C105.79 275.428 106.395 275.264 107.084 275.264C107.774 275.264 108.377 275.428 108.894 275.756C109.414 276.085 109.819 276.545 110.107 277.138C110.399 277.732 110.545 278.426 110.545 279.222C110.545 280.01 110.399 280.7 110.107 281.29C109.819 281.88 109.414 282.339 108.894 282.667C108.377 282.995 107.774 283.159 107.084 283.159ZM107.084 282.105C107.608 282.105 108.039 281.971 108.377 281.702C108.715 281.434 108.965 281.081 109.128 280.643C109.29 280.206 109.371 279.732 109.371 279.222C109.371 278.711 109.29 278.236 109.128 277.795C108.965 277.354 108.715 276.998 108.377 276.726C108.039 276.454 107.608 276.318 107.084 276.318C106.561 276.318 106.13 276.454 105.792 276.726C105.454 276.998 105.203 277.354 105.041 277.795C104.879 278.236 104.797 278.711 104.797 279.222C104.797 279.732 104.879 280.206 105.041 280.643C105.203 281.081 105.454 281.434 105.792 281.702C106.13 281.971 106.561 282.105 107.084 282.105ZM115.657 275.364V276.358H111.699V275.364H115.657ZM112.853 273.534H114.026V280.812C114.026 281.144 114.074 281.393 114.17 281.558C114.27 281.721 114.395 281.83 114.548 281.886C114.704 281.939 114.868 281.966 115.04 281.966C115.169 281.966 115.275 281.959 115.358 281.946C115.441 281.929 115.507 281.916 115.557 281.906L115.796 282.96C115.716 282.99 115.605 283.02 115.463 283.05C115.32 283.083 115.14 283.099 114.921 283.099C114.589 283.099 114.265 283.028 113.946 282.886C113.632 282.743 113.37 282.526 113.161 282.234C112.955 281.943 112.853 281.575 112.853 281.131V273.534ZM124.76 275.364V276.358H120.643V275.364H124.76ZM121.876 283V274.31C121.876 273.872 121.979 273.508 122.184 273.216C122.39 272.924 122.657 272.705 122.985 272.56C123.313 272.414 123.659 272.341 124.024 272.341C124.312 272.341 124.547 272.364 124.73 272.411C124.912 272.457 125.048 272.5 125.137 272.54L124.799 273.554C124.74 273.534 124.657 273.509 124.551 273.479C124.448 273.45 124.312 273.435 124.143 273.435C123.755 273.435 123.475 273.532 123.303 273.728C123.134 273.924 123.049 274.21 123.049 274.588V283H121.876ZM129.291 283.159C128.555 283.159 127.921 282.997 127.387 282.672C126.857 282.344 126.447 281.886 126.159 281.3C125.874 280.71 125.732 280.024 125.732 279.241C125.732 278.459 125.874 277.77 126.159 277.173C126.447 276.573 126.848 276.106 127.362 275.771C127.879 275.433 128.482 275.264 129.172 275.264C129.57 275.264 129.962 275.33 130.35 275.463C130.738 275.596 131.091 275.811 131.409 276.109C131.727 276.404 131.981 276.795 132.17 277.283C132.359 277.77 132.453 278.37 132.453 279.082V279.58H126.567V278.565H131.26C131.26 278.134 131.174 277.75 131.001 277.412C130.832 277.074 130.59 276.807 130.276 276.612C129.964 276.416 129.596 276.318 129.172 276.318C128.705 276.318 128.3 276.434 127.959 276.666C127.621 276.895 127.361 277.193 127.178 277.561C126.996 277.929 126.905 278.323 126.905 278.744V279.42C126.905 279.997 127.004 280.486 127.203 280.887C127.405 281.285 127.685 281.588 128.043 281.797C128.401 282.002 128.817 282.105 129.291 282.105C129.599 282.105 129.878 282.062 130.126 281.976C130.378 281.886 130.595 281.754 130.778 281.578C130.96 281.399 131.101 281.177 131.2 280.912L132.334 281.23C132.214 281.615 132.014 281.953 131.732 282.244C131.451 282.533 131.103 282.758 130.688 282.92C130.274 283.08 129.808 283.159 129.291 283.159ZM137.559 275.364V276.358H133.602V275.364H137.559ZM134.755 273.534H135.928V280.812C135.928 281.144 135.976 281.393 136.072 281.558C136.172 281.721 136.298 281.83 136.45 281.886C136.606 281.939 136.77 281.966 136.942 281.966C137.072 281.966 137.178 281.959 137.261 281.946C137.344 281.929 137.41 281.916 137.46 281.906L137.698 282.96C137.619 282.99 137.508 283.02 137.365 283.05C137.223 283.083 137.042 283.099 136.823 283.099C136.492 283.099 136.167 283.028 135.849 282.886C135.534 282.743 135.272 282.526 135.063 282.234C134.858 281.943 134.755 281.575 134.755 281.131V273.534ZM142.344 283.159C141.628 283.159 141.012 282.99 140.495 282.652C139.978 282.314 139.58 281.848 139.301 281.255C139.023 280.662 138.884 279.984 138.884 279.222C138.884 278.446 139.026 277.762 139.311 277.168C139.6 276.572 140.001 276.106 140.515 275.771C141.032 275.433 141.635 275.264 142.324 275.264C142.861 275.264 143.345 275.364 143.776 275.562C144.207 275.761 144.56 276.04 144.835 276.398C145.11 276.756 145.281 277.173 145.347 277.651H144.174C144.084 277.303 143.885 276.994 143.577 276.726C143.272 276.454 142.861 276.318 142.344 276.318C141.887 276.318 141.486 276.437 141.141 276.676C140.8 276.911 140.533 277.245 140.341 277.675C140.152 278.103 140.057 278.605 140.057 279.182C140.057 279.772 140.15 280.286 140.336 280.723C140.525 281.161 140.79 281.5 141.131 281.742C141.476 281.984 141.88 282.105 142.344 282.105C142.649 282.105 142.926 282.052 143.174 281.946C143.423 281.84 143.633 281.688 143.806 281.489C143.978 281.29 144.101 281.051 144.174 280.773H145.347C145.281 281.223 145.117 281.629 144.855 281.991C144.596 282.349 144.253 282.634 143.826 282.846C143.401 283.055 142.908 283.159 142.344 283.159ZM148.235 278.406V283H147.062V272.818H148.235V276.557H148.335C148.514 276.162 148.782 275.849 149.14 275.617C149.502 275.382 149.982 275.264 150.582 275.264C151.102 275.264 151.558 275.369 151.949 275.577C152.34 275.783 152.644 276.099 152.859 276.527C153.078 276.951 153.187 277.491 153.187 278.148V283H152.014V278.227C152.014 277.621 151.856 277.152 151.542 276.82C151.23 276.486 150.797 276.318 150.244 276.318C149.859 276.318 149.515 276.399 149.21 276.562C148.908 276.724 148.67 276.961 148.494 277.273C148.322 277.584 148.235 277.962 148.235 278.406ZM158.535 283.159C157.8 283.159 157.165 282.997 156.631 282.672C156.101 282.344 155.692 281.886 155.403 281.3C155.118 280.71 154.976 280.024 154.976 279.241C154.976 278.459 155.118 277.77 155.403 277.173C155.692 276.573 156.093 276.106 156.606 275.771C157.123 275.433 157.727 275.264 158.416 275.264C158.814 275.264 159.206 275.33 159.594 275.463C159.982 275.596 160.335 275.811 160.653 276.109C160.971 276.404 161.225 276.795 161.414 277.283C161.603 277.77 161.697 278.37 161.697 279.082V279.58H155.811V278.565H160.504C160.504 278.134 160.418 277.75 160.246 277.412C160.077 277.074 159.835 276.807 159.52 276.612C159.208 276.416 158.84 276.318 158.416 276.318C157.949 276.318 157.544 276.434 157.203 276.666C156.865 276.895 156.605 277.193 156.422 277.561C156.24 277.929 156.149 278.323 156.149 278.744V279.42C156.149 279.997 156.248 280.486 156.447 280.887C156.649 281.285 156.93 281.588 157.287 281.797C157.645 282.002 158.061 282.105 158.535 282.105C158.844 282.105 159.122 282.062 159.371 281.976C159.622 281.886 159.84 281.754 160.022 281.578C160.204 281.399 160.345 281.177 160.444 280.912L161.578 281.23C161.459 281.615 161.258 281.953 160.976 282.244C160.695 282.533 160.347 282.758 159.932 282.92C159.518 283.08 159.052 283.159 158.535 283.159ZM166.366 283.159C165.729 283.159 165.167 282.998 164.68 282.677C164.193 282.352 163.812 281.895 163.537 281.305C163.262 280.711 163.124 280.01 163.124 279.202C163.124 278.4 163.262 277.704 163.537 277.114C163.812 276.524 164.195 276.068 164.685 275.746C165.176 275.425 165.742 275.264 166.385 275.264C166.883 275.264 167.275 275.347 167.564 275.513C167.855 275.675 168.077 275.861 168.23 276.07C168.386 276.275 168.507 276.444 168.593 276.577H168.692V272.818H169.866V283H168.732V281.827H168.593C168.507 281.966 168.384 282.142 168.225 282.354C168.066 282.562 167.839 282.75 167.544 282.915C167.249 283.078 166.856 283.159 166.366 283.159ZM166.525 282.105C166.995 282.105 167.393 281.982 167.718 281.737C168.043 281.489 168.29 281.146 168.459 280.708C168.628 280.267 168.712 279.759 168.712 279.182C168.712 278.612 168.629 278.113 168.464 277.685C168.298 277.254 168.053 276.92 167.728 276.681C167.403 276.439 167.002 276.318 166.525 276.318C166.028 276.318 165.613 276.446 165.282 276.701C164.954 276.953 164.707 277.296 164.541 277.73C164.379 278.161 164.297 278.645 164.297 279.182C164.297 279.725 164.38 280.219 164.546 280.663C164.715 281.104 164.964 281.455 165.292 281.717C165.623 281.976 166.034 282.105 166.525 282.105ZM178.362 283.179C177.878 283.179 177.439 283.088 177.045 282.906C176.65 282.72 176.337 282.453 176.105 282.105C175.873 281.754 175.757 281.33 175.757 280.832C175.757 280.395 175.843 280.04 176.015 279.768C176.188 279.493 176.418 279.278 176.706 279.122C176.995 278.966 177.313 278.85 177.661 278.774C178.012 278.695 178.365 278.632 178.72 278.585C179.184 278.526 179.56 278.481 179.849 278.451C180.14 278.418 180.352 278.363 180.485 278.287C180.621 278.211 180.689 278.078 180.689 277.889V277.849C180.689 277.359 180.555 276.978 180.286 276.706C180.021 276.434 179.618 276.298 179.078 276.298C178.518 276.298 178.079 276.421 177.76 276.666C177.442 276.911 177.219 277.173 177.089 277.452L175.976 277.054C176.175 276.59 176.44 276.229 176.771 275.97C177.106 275.708 177.47 275.526 177.865 275.423C178.263 275.317 178.654 275.264 179.038 275.264C179.283 275.264 179.565 275.294 179.883 275.354C180.205 275.41 180.515 275.528 180.813 275.707C181.115 275.886 181.365 276.156 181.564 276.517C181.763 276.878 181.862 277.362 181.862 277.969V283H180.689V281.966H180.629C180.55 282.132 180.417 282.309 180.231 282.498C180.046 282.687 179.799 282.848 179.491 282.98C179.182 283.113 178.806 283.179 178.362 283.179ZM178.541 282.125C179.005 282.125 179.396 282.034 179.714 281.852C180.036 281.669 180.278 281.434 180.44 281.146C180.606 280.857 180.689 280.554 180.689 280.236V279.162C180.639 279.222 180.53 279.276 180.361 279.326C180.195 279.372 180.003 279.414 179.784 279.45C179.568 279.483 179.358 279.513 179.153 279.54C178.95 279.563 178.786 279.583 178.66 279.599C178.355 279.639 178.07 279.704 177.805 279.793C177.543 279.879 177.331 280.01 177.169 280.186C177.01 280.358 176.93 280.594 176.93 280.892C176.93 281.3 177.081 281.608 177.383 281.817C177.688 282.022 178.074 282.125 178.541 282.125ZM185.177 278.406V283H184.004V275.364H185.137V276.557H185.237C185.415 276.169 185.687 275.857 186.052 275.622C186.416 275.384 186.887 275.264 187.464 275.264C187.981 275.264 188.433 275.37 188.821 275.582C189.209 275.791 189.51 276.109 189.726 276.537C189.941 276.961 190.049 277.498 190.049 278.148V283H188.876V278.227C188.876 277.627 188.72 277.16 188.408 276.825C188.097 276.487 187.669 276.318 187.126 276.318C186.751 276.318 186.416 276.399 186.121 276.562C185.83 276.724 185.599 276.961 185.43 277.273C185.261 277.584 185.177 277.962 185.177 278.406ZM192.675 285.864C192.476 285.864 192.299 285.847 192.143 285.814C191.988 285.784 191.88 285.754 191.82 285.724L192.118 284.69C192.403 284.763 192.655 284.79 192.874 284.77C193.093 284.75 193.287 284.652 193.456 284.477C193.628 284.304 193.786 284.024 193.928 283.636L194.147 283.04L191.323 275.364H192.596L194.704 281.449H194.783L196.891 275.364H198.164L194.922 284.114C194.777 284.508 194.596 284.835 194.381 285.093C194.165 285.355 193.915 285.549 193.63 285.675C193.348 285.801 193.03 285.864 192.675 285.864ZM206.534 283.159C205.897 283.159 205.335 282.998 204.848 282.677C204.361 282.352 203.98 281.895 203.705 281.305C203.43 280.711 203.292 280.01 203.292 279.202C203.292 278.4 203.43 277.704 203.705 277.114C203.98 276.524 204.363 276.068 204.853 275.746C205.344 275.425 205.91 275.264 206.553 275.264C207.051 275.264 207.443 275.347 207.732 275.513C208.023 275.675 208.245 275.861 208.398 276.07C208.554 276.275 208.675 276.444 208.761 276.577H208.86V272.818H210.034V283H208.9V281.827H208.761C208.675 281.966 208.552 282.142 208.393 282.354C208.234 282.562 208.007 282.75 207.712 282.915C207.417 283.078 207.024 283.159 206.534 283.159ZM206.693 282.105C207.163 282.105 207.561 281.982 207.886 281.737C208.211 281.489 208.458 281.146 208.627 280.708C208.796 280.267 208.88 279.759 208.88 279.182C208.88 278.612 208.797 278.113 208.632 277.685C208.466 277.254 208.221 276.92 207.896 276.681C207.571 276.439 207.17 276.318 206.693 276.318C206.195 276.318 205.781 276.446 205.45 276.701C205.122 276.953 204.875 277.296 204.709 277.73C204.547 278.161 204.465 278.645 204.465 279.182C204.465 279.725 204.548 280.219 204.714 280.663C204.883 281.104 205.132 281.455 205.46 281.717C205.791 281.976 206.202 282.105 206.693 282.105ZM214.593 283.179C214.109 283.179 213.669 283.088 213.275 282.906C212.881 282.72 212.567 282.453 212.335 282.105C212.103 281.754 211.987 281.33 211.987 280.832C211.987 280.395 212.074 280.04 212.246 279.768C212.418 279.493 212.649 279.278 212.937 279.122C213.225 278.966 213.544 278.85 213.892 278.774C214.243 278.695 214.596 278.632 214.95 278.585C215.414 278.526 215.791 278.481 216.079 278.451C216.371 278.418 216.583 278.363 216.715 278.287C216.851 278.211 216.919 278.078 216.919 277.889V277.849C216.919 277.359 216.785 276.978 216.517 276.706C216.251 276.434 215.849 276.298 215.308 276.298C214.748 276.298 214.309 276.421 213.991 276.666C213.673 276.911 213.449 277.173 213.32 277.452L212.206 277.054C212.405 276.59 212.67 276.229 213.002 275.97C213.336 275.708 213.701 275.526 214.095 275.423C214.493 275.317 214.884 275.264 215.269 275.264C215.514 275.264 215.796 275.294 216.114 275.354C216.435 275.41 216.745 275.528 217.044 275.707C217.345 275.886 217.595 276.156 217.794 276.517C217.993 276.878 218.093 277.362 218.093 277.969V283H216.919V281.966H216.86C216.78 282.132 216.647 282.309 216.462 282.498C216.276 282.687 216.029 282.848 215.721 282.98C215.413 283.113 215.037 283.179 214.593 283.179ZM214.771 282.125C215.235 282.125 215.627 282.034 215.945 281.852C216.266 281.669 216.508 281.434 216.671 281.146C216.836 280.857 216.919 280.554 216.919 280.236V279.162C216.869 279.222 216.76 279.276 216.591 279.326C216.425 279.372 216.233 279.414 216.014 279.45C215.799 279.483 215.588 279.513 215.383 279.54C215.181 279.563 215.017 279.583 214.891 279.599C214.586 279.639 214.301 279.704 214.036 279.793C213.774 279.879 213.562 280.01 213.399 280.186C213.24 280.358 213.161 280.594 213.161 280.892C213.161 281.3 213.311 281.608 213.613 281.817C213.918 282.022 214.304 282.125 214.771 282.125ZM223.555 275.364V276.358H219.598V275.364H223.555ZM220.751 273.534H221.924V280.812C221.924 281.144 221.972 281.393 222.069 281.558C222.168 281.721 222.294 281.83 222.446 281.886C222.602 281.939 222.766 281.966 222.939 281.966C223.068 281.966 223.174 281.959 223.257 281.946C223.34 281.929 223.406 281.916 223.456 281.906L223.694 282.96C223.615 282.99 223.504 283.02 223.361 283.05C223.219 283.083 223.038 283.099 222.819 283.099C222.488 283.099 222.163 283.028 221.845 282.886C221.53 282.743 221.268 282.526 221.059 282.234C220.854 281.943 220.751 281.575 220.751 281.131V273.534ZM227.567 283.179C227.083 283.179 226.644 283.088 226.25 282.906C225.855 282.72 225.542 282.453 225.31 282.105C225.078 281.754 224.962 281.33 224.962 280.832C224.962 280.395 225.048 280.04 225.221 279.768C225.393 279.493 225.623 279.278 225.912 279.122C226.2 278.966 226.518 278.85 226.866 278.774C227.217 278.695 227.57 278.632 227.925 278.585C228.389 278.526 228.765 278.481 229.054 278.451C229.345 278.418 229.557 278.363 229.69 278.287C229.826 278.211 229.894 278.078 229.894 277.889V277.849C229.894 277.359 229.76 276.978 229.491 276.706C229.226 276.434 228.823 276.298 228.283 276.298C227.723 276.298 227.284 276.421 226.966 276.666C226.647 276.911 226.424 277.173 226.294 277.452L225.181 277.054C225.38 276.59 225.645 276.229 225.976 275.97C226.311 275.708 226.676 275.526 227.07 275.423C227.468 275.317 227.859 275.264 228.243 275.264C228.489 275.264 228.77 275.294 229.088 275.354C229.41 275.41 229.72 275.528 230.018 275.707C230.32 275.886 230.57 276.156 230.769 276.517C230.968 276.878 231.067 277.362 231.067 277.969V283H229.894V281.966H229.834C229.755 282.132 229.622 282.309 229.436 282.498C229.251 282.687 229.004 282.848 228.696 282.98C228.387 283.113 228.011 283.179 227.567 283.179ZM227.746 282.125C228.21 282.125 228.601 282.034 228.919 281.852C229.241 281.669 229.483 281.434 229.645 281.146C229.811 280.857 229.894 280.554 229.894 280.236V279.162C229.844 279.222 229.735 279.276 229.566 279.326C229.4 279.372 229.208 279.414 228.989 279.45C228.774 279.483 228.563 279.513 228.358 279.54C228.155 279.563 227.991 279.583 227.865 279.599C227.56 279.639 227.275 279.704 227.01 279.793C226.748 279.879 226.536 280.01 226.374 280.186C226.215 280.358 226.135 280.594 226.135 280.892C226.135 281.3 226.286 281.608 226.588 281.817C226.893 282.022 227.279 282.125 227.746 282.125ZM240.467 275.364V276.358H236.51V275.364H240.467ZM237.663 273.534H238.836V280.812C238.836 281.144 238.885 281.393 238.981 281.558C239.08 281.721 239.206 281.83 239.358 281.886C239.514 281.939 239.678 281.966 239.851 281.966C239.98 281.966 240.086 281.959 240.169 281.946C240.252 281.929 240.318 281.916 240.368 281.906L240.606 282.96C240.527 282.99 240.416 283.02 240.273 283.05C240.131 283.083 239.95 283.099 239.731 283.099C239.4 283.099 239.075 283.028 238.757 282.886C238.442 282.743 238.18 282.526 237.971 282.234C237.766 281.943 237.663 281.575 237.663 281.131V273.534ZM245.252 283.159C244.563 283.159 243.958 282.995 243.438 282.667C242.921 282.339 242.516 281.88 242.225 281.29C241.936 280.7 241.792 280.01 241.792 279.222C241.792 278.426 241.936 277.732 242.225 277.138C242.516 276.545 242.921 276.085 243.438 275.756C243.958 275.428 244.563 275.264 245.252 275.264C245.942 275.264 246.545 275.428 247.062 275.756C247.582 276.085 247.987 276.545 248.275 277.138C248.567 277.732 248.713 278.426 248.713 279.222C248.713 280.01 248.567 280.7 248.275 281.29C247.987 281.88 247.582 282.339 247.062 282.667C246.545 282.995 245.942 283.159 245.252 283.159ZM245.252 282.105C245.776 282.105 246.207 281.971 246.545 281.702C246.883 281.434 247.133 281.081 247.296 280.643C247.458 280.206 247.539 279.732 247.539 279.222C247.539 278.711 247.458 278.236 247.296 277.795C247.133 277.354 246.883 276.998 246.545 276.726C246.207 276.454 245.776 276.318 245.252 276.318C244.729 276.318 244.298 276.454 243.96 276.726C243.622 276.998 243.371 277.354 243.209 277.795C243.047 278.236 242.965 278.711 242.965 279.222C242.965 279.732 243.047 280.206 243.209 280.643C243.371 281.081 243.622 281.434 243.96 281.702C244.298 281.971 244.729 282.105 245.252 282.105ZM117.725 295.364L114.902 303H113.708L110.884 295.364H112.157L114.265 301.449H114.345L116.453 295.364H117.725ZM119.274 303V295.364H120.447V303H119.274ZM119.871 294.091C119.642 294.091 119.445 294.013 119.279 293.857C119.117 293.701 119.035 293.514 119.035 293.295C119.035 293.077 119.117 292.889 119.279 292.734C119.445 292.578 119.642 292.5 119.871 292.5C120.099 292.5 120.295 292.578 120.457 292.734C120.623 292.889 120.706 293.077 120.706 293.295C120.706 293.514 120.623 293.701 120.457 293.857C120.295 294.013 120.099 294.091 119.871 294.091ZM125.798 303.159C125.062 303.159 124.428 302.997 123.894 302.672C123.364 302.344 122.954 301.886 122.666 301.3C122.381 300.71 122.238 300.024 122.238 299.241C122.238 298.459 122.381 297.77 122.666 297.173C122.954 296.573 123.355 296.106 123.869 295.771C124.386 295.433 124.989 295.264 125.679 295.264C126.076 295.264 126.469 295.33 126.857 295.463C127.245 295.596 127.598 295.811 127.916 296.109C128.234 296.404 128.488 296.795 128.677 297.283C128.866 297.77 128.96 298.37 128.96 299.082V299.58H123.074V298.565H127.767C127.767 298.134 127.681 297.75 127.508 297.412C127.339 297.074 127.097 296.807 126.782 296.612C126.471 296.416 126.103 296.318 125.679 296.318C125.211 296.318 124.807 296.434 124.466 296.666C124.128 296.895 123.867 297.193 123.685 297.561C123.503 297.929 123.412 298.323 123.412 298.744V299.42C123.412 299.997 123.511 300.486 123.71 300.887C123.912 301.285 124.192 301.588 124.55 301.797C124.908 302.002 125.324 302.105 125.798 302.105C126.106 302.105 126.385 302.062 126.633 301.976C126.885 301.886 127.102 301.754 127.285 301.578C127.467 301.399 127.608 301.177 127.707 300.912L128.841 301.23C128.721 301.615 128.521 301.953 128.239 302.244C127.957 302.533 127.609 302.758 127.195 302.92C126.781 303.08 126.315 303.159 125.798 303.159ZM132.475 303L130.148 295.364H131.381L133.032 301.21H133.111L134.742 295.364H135.995L137.606 301.19H137.685L139.336 295.364H140.569L138.242 303H137.089L135.418 297.134H135.299L133.628 303H132.475ZM146.813 305.864C146.614 305.864 146.437 305.847 146.281 305.814C146.125 305.784 146.017 305.754 145.958 305.724L146.256 304.69C146.541 304.763 146.793 304.79 147.012 304.77C147.231 304.75 147.424 304.652 147.593 304.477C147.766 304.304 147.923 304.024 148.066 303.636L148.285 303.04L145.461 295.364H146.733L148.841 301.449H148.921L151.029 295.364H152.302L149.06 304.114C148.914 304.508 148.734 304.835 148.518 305.093C148.303 305.355 148.053 305.549 147.767 305.675C147.486 305.801 147.168 305.864 146.813 305.864ZM156.778 303.159C156.043 303.159 155.408 302.997 154.874 302.672C154.344 302.344 153.935 301.886 153.646 301.3C153.361 300.71 153.219 300.024 153.219 299.241C153.219 298.459 153.361 297.77 153.646 297.173C153.935 296.573 154.336 296.106 154.85 295.771C155.367 295.433 155.97 295.264 156.659 295.264C157.057 295.264 157.45 295.33 157.837 295.463C158.225 295.596 158.578 295.811 158.896 296.109C159.215 296.404 159.468 296.795 159.657 297.283C159.846 297.77 159.94 298.37 159.94 299.082V299.58H154.054V298.565H158.747C158.747 298.134 158.661 297.75 158.489 297.412C158.32 297.074 158.078 296.807 157.763 296.612C157.451 296.416 157.083 296.318 156.659 296.318C156.192 296.318 155.787 296.434 155.446 296.666C155.108 296.895 154.848 297.193 154.666 297.561C154.483 297.929 154.392 298.323 154.392 298.744V299.42C154.392 299.997 154.492 300.486 154.69 300.887C154.893 301.285 155.173 301.588 155.531 301.797C155.889 302.002 156.305 302.105 156.778 302.105C157.087 302.105 157.365 302.062 157.614 301.976C157.866 301.886 158.083 301.754 158.265 301.578C158.447 301.399 158.588 301.177 158.688 300.912L159.821 301.23C159.702 301.615 159.501 301.953 159.22 302.244C158.938 302.533 158.59 302.758 158.176 302.92C157.761 303.08 157.296 303.159 156.778 303.159ZM165.046 295.364V296.358H161.089V295.364H165.046ZM162.242 293.534H163.416V300.812C163.416 301.144 163.464 301.393 163.56 301.558C163.659 301.721 163.785 301.83 163.938 301.886C164.093 301.939 164.257 301.966 164.43 301.966C164.559 301.966 164.665 301.959 164.748 301.946C164.831 301.929 164.897 301.916 164.947 301.906L165.185 302.96C165.106 302.99 164.995 303.02 164.852 303.05C164.71 303.083 164.529 303.099 164.31 303.099C163.979 303.099 163.654 303.028 163.336 302.886C163.021 302.743 162.759 302.526 162.551 302.234C162.345 301.943 162.242 301.575 162.242 301.131V293.534ZM167.666 303.08C167.421 303.08 167.211 302.992 167.035 302.816C166.859 302.64 166.771 302.43 166.771 302.185C166.771 301.939 166.859 301.729 167.035 301.553C167.211 301.378 167.421 301.29 167.666 301.29C167.912 301.29 168.122 301.378 168.298 301.553C168.473 301.729 168.561 301.939 168.561 302.185C168.561 302.347 168.52 302.496 168.437 302.632C168.357 302.768 168.25 302.877 168.114 302.96C167.981 303.04 167.832 303.08 167.666 303.08Z" fill="#383A3F"/>
<defs>
<filter id="filter0_d_959_20900" x="86" y="92" width="108" height="127" filterUnits="userSpaceOnUse" color-interpolation-filters="sRGB">
<feFlood flood-opacity="0" result="BackgroundImageFix"/>
<feColorMatrix in="SourceAlpha" type="matrix" values="0 0 0 0 0 0 0 0 0 0 0 0 0 0 0 0 0 0 127 0" result="hardAlpha"/>
<feOffset dy="-3"/>
<feGaussianBlur stdDeviation="3"/>
<feColorMatrix type="matrix" values="0 0 0 0 0.788235 0 0 0 0 0.803922 0 0 0 0 0.85098 0 0 0 0.349 0"/>
<feBlend mode="normal" in2="BackgroundImageFix" result="effect1_dropShadow_959_20900"/>
<feBlend mode="normal" in="SourceGraphic" in2="effect1_dropShadow_959_20900" result="shape"/>
</filter>
<filter id="filter1_d_959_20900" x="86" y="41" width="108" height="52" filterUnits="userSpaceOnUse" color-interpolation-filters="sRGB">
<feFlood flood-opacity="0" result="BackgroundImageFix"/>
<feColorMatrix in="SourceAlpha" type="matrix" values="0 0 0 0 0 0 0 0 0 0 0 0 0 0 0 0 0 0 127 0" result="hardAlpha"/>
<feOffset dy="-3"/>
<feGaussianBlur stdDeviation="3"/>
<feColorMatrix type="matrix" values="0 0 0 0 0.788235 0 0 0 0 0.803922 0 0 0 0 0.85098 0 0 0 0.349 0"/>
<feBlend mode="normal" in2="BackgroundImageFix" result="effect1_dropShadow_959_20900"/>
<feBlend mode="normal" in="SourceGraphic" in2="effect1_dropShadow_959_20900" result="shape"/>
</filter>
</defs>
</svg>
