<svg width="625" height="481" viewBox="0 0 625 481" fill="none" xmlns="http://www.w3.org/2000/svg">
<path d="M624.172 480.489H0V0H624.172V480.489Z" fill="white"/>
<path d="M624.172 480.489H0V0H624.172V480.489ZM9.22209 471.267H614.95V9.22208H9.22209V471.267Z" fill="#E5E5E5"/>
<path d="M163.355 362.197H116.098C114.818 362.195 113.591 361.686 112.687 360.781C111.782 359.877 111.273 358.65 111.271 357.37V292.226C111.273 290.946 111.782 289.719 112.687 288.814C113.591 287.91 114.818 287.401 116.098 287.399H163.355C164.635 287.401 165.862 287.91 166.767 288.814C167.672 289.719 168.181 290.946 168.182 292.226V357.37C168.181 358.65 167.672 359.877 166.767 360.781C165.862 361.686 164.635 362.195 163.355 362.197Z" fill="#E6E6E6"/>
<path d="M249.535 362.197H202.278C200.998 362.195 199.771 361.686 198.866 360.781C197.961 359.877 197.452 358.65 197.451 357.37V230.436C197.452 229.157 197.961 227.93 198.866 227.025C199.771 226.12 200.998 225.611 202.278 225.61H249.535C250.815 225.611 252.041 226.12 252.946 227.025C253.851 227.93 254.36 229.157 254.362 230.436V357.37C254.36 358.65 253.851 359.877 252.946 360.781C252.041 361.686 250.815 362.195 249.535 362.197Z" fill="#E6E6E6"/>
<path d="M335.715 362.197H288.457C287.178 362.195 285.951 361.686 285.046 360.781C284.141 359.877 283.632 358.65 283.63 357.37V292.226C283.632 290.946 284.141 289.719 285.046 288.814C285.951 287.91 287.178 287.401 288.457 287.399H335.715C336.994 287.401 338.221 287.91 339.126 288.814C340.031 289.719 340.54 290.946 340.541 292.226V357.37C340.54 358.65 340.031 359.877 339.126 360.781C338.221 361.686 336.994 362.195 335.715 362.197Z" fill="#E6E6E6"/>
<path d="M421.894 362.197H374.637C373.386 362.224 372.176 361.754 371.271 360.89C370.367 360.026 369.841 358.839 369.81 357.589V205.827C369.841 204.577 370.367 203.39 371.271 202.526C372.176 201.662 373.386 201.193 374.637 201.22H421.894C423.145 201.193 424.355 201.662 425.26 202.526C426.164 203.39 426.69 204.577 426.721 205.827V357.589C426.69 358.839 426.164 360.026 425.26 360.89C424.355 361.754 423.145 362.224 421.894 362.197Z" fill="#E6E6E6"/>
<path d="M508.074 362.197H460.817C459.537 362.195 458.31 361.686 457.405 360.781C456.5 359.877 455.991 358.65 455.99 357.37V162.143C455.991 160.864 456.5 159.637 457.405 158.732C458.31 157.827 459.537 157.318 460.817 157.317H508.074C509.354 157.318 510.58 157.827 511.485 158.732C512.39 159.637 512.899 160.864 512.901 162.143V357.37C512.899 358.65 512.39 359.877 511.485 360.781C510.58 361.686 509.354 362.195 508.074 362.197Z" fill="#F2F2F2"/>
<path d="M139.727 267.887C145.115 267.887 149.483 263.519 149.483 258.131C149.483 252.742 145.115 248.374 139.727 248.374C134.338 248.374 129.97 252.742 129.97 258.131C129.97 263.519 134.338 267.887 139.727 267.887Z" fill="#3F3D56"/>
<path d="M225.906 204.472C231.295 204.472 235.663 200.104 235.663 194.715C235.663 189.327 231.295 184.959 225.906 184.959C220.518 184.959 216.15 189.327 216.15 194.715C216.15 200.104 220.518 204.472 225.906 204.472Z" fill="#3F3D56"/>
<path d="M312.086 267.887C317.474 267.887 321.842 263.519 321.842 258.131C321.842 252.742 317.474 248.374 312.086 248.374C306.698 248.374 302.33 252.742 302.33 258.131C302.33 263.519 306.698 267.887 312.086 267.887Z" fill="#3F3D56"/>
<path d="M398.265 173.577C403.654 173.577 408.022 169.209 408.022 163.821C408.022 158.433 403.654 154.065 398.265 154.065C392.877 154.065 388.509 158.433 388.509 163.821C388.509 169.209 392.877 173.577 398.265 173.577Z" fill="#3F3D56"/>
<path d="M484.445 137.804C489.833 137.804 494.201 133.436 494.201 128.048C494.201 122.66 489.833 118.292 484.445 118.292C479.057 118.292 474.689 122.66 474.689 128.048C474.689 133.436 479.057 137.804 484.445 137.804Z" fill="#3F3D56"/>
<path d="M312.292 260.316L225.906 195.613L140.702 259.432L138.752 256.829L225.906 191.549L311.88 255.945L397.315 162.451L397.658 162.312L483.837 127.589L485.053 130.606L399.216 165.19L312.292 260.316Z" fill="#3F3D56" fill-opacity="0.4"/>
<path d="M524.837 377.762H477.579C476.3 377.761 475.073 377.252 474.168 376.347C473.263 375.442 472.754 374.215 472.753 372.936V177.709C472.754 176.429 473.263 175.202 474.168 174.298C475.073 173.393 476.3 172.884 477.579 172.882H524.837C526.116 172.884 527.343 173.393 528.248 174.298C529.153 175.202 529.662 176.429 529.664 177.709V372.936C529.662 374.215 529.153 375.442 528.248 376.347C527.343 377.252 526.116 377.761 524.837 377.762Z" fill="#21CE27" fill-opacity="0.4"/>
</svg>
