<svg width="127" height="138" viewBox="0 0 127 138" fill="none" xmlns="http://www.w3.org/2000/svg">
<path d="M5.23324 21.899C6.75951 21.4029 7.59373 19.7606 7.09653 18.2309C6.59932 16.7011 4.95897 15.8632 3.43269 16.3593C1.90642 16.8554 1.07219 18.4976 1.5694 20.0274C2.06661 21.5571 3.70696 22.395 5.23324 21.899Z" fill="#E2EBFF"/>
<path d="M11.5699 12.3928C12.6075 12.0546 13.1752 10.9369 12.838 9.89642C12.5007 8.85592 11.3862 8.28658 10.3486 8.62477C9.31104 8.96296 8.7433 10.0806 9.08054 11.1211C9.41779 12.1616 10.5323 12.731 11.5699 12.3928Z" fill="#E2EBFF"/>
<path d="M100.171 10.5457C100.787 9.98125 100.83 9.023 100.267 8.40537C99.7044 7.78773 98.7489 7.7446 98.1329 8.30902C97.517 8.87344 97.474 9.83169 98.0369 10.4493C98.5997 11.067 99.5553 11.1101 100.171 10.5457Z" fill="#E2EBFF"/>
<path d="M12.6899 107.787C13.4479 107.092 13.5009 105.913 12.8082 105.152C12.1154 104.392 10.9394 104.339 10.1813 105.034C9.42329 105.729 9.37035 106.908 10.0631 107.668C10.7558 108.428 11.9319 108.481 12.6899 107.787Z" fill="#E2EBFF"/>
<path d="M110.669 38.7026V82.6357C110.669 83.3349 110.669 83.9176 110.553 84.6168C109.972 89.6277 107.067 94.056 102.651 96.6197L64.7676 118.528C61.1652 120.626 56.8655 121.208 52.9145 120.16C51.4038 119.81 50.0093 119.227 48.731 118.528L10.7314 96.5032C7.82618 94.8717 5.61824 92.4245 4.22376 89.5112C3.1779 87.4136 2.59686 84.9664 2.59686 82.5192V38.7026C2.59686 36.3719 3.06169 34.1577 3.99135 32.0601C5.38583 29.0303 7.59376 26.4665 10.6151 24.7185L48.6148 2.81021C52.3334 0.712605 56.5169 0.129937 60.5841 1.17874C61.9786 1.52834 63.3731 2.11101 64.7676 2.81021L102.651 24.7185C106.021 26.6996 108.461 29.7295 109.74 33.342C110.321 34.9735 110.669 36.838 110.669 38.7026Z" fill="#F5C6D6"/>
<path d="M56.7488 23.9029C56.6326 23.9029 56.4002 23.9029 56.284 23.7863C55.703 23.5533 55.4705 22.8541 55.703 22.2714L64.8833 3.27641C65.1157 2.69374 65.813 2.46068 66.394 2.69374C66.975 2.92681 67.2074 3.62601 66.975 4.20868L57.7947 23.2037C57.5623 23.6698 57.0974 23.9029 56.7488 23.9029Z" fill="#D81E5B"/>
<path d="M91.7273 16.2116V106.176C91.7273 108.739 89.6356 110.837 87.079 110.837H26.1865C23.63 110.837 21.5383 108.739 21.5383 106.176V16.2116C21.5383 13.6479 23.63 11.5503 26.1865 11.5503H87.079C89.6356 11.5503 91.7273 13.6479 91.7273 16.2116Z" fill="white"/>
<path d="M25.838 53.2693H23.6301V55.4835H25.838V53.2693Z" fill="#E2EBFF"/>
<path d="M25.838 48.8411H23.6301V51.0552H25.838V48.8411Z" fill="#E2EBFF"/>
<path d="M25.838 44.4128H23.6301V46.6269H25.838V44.4128Z" fill="#E2EBFF"/>
<path d="M25.838 40.101H23.6301V42.3151H25.838V40.101Z" fill="#EA67A4"/>
<path d="M25.838 31.2445H23.6301V33.4586H25.838V31.2445Z" fill="#E2EBFF"/>
<path d="M30.3701 57.5811H28.1622V59.7952H30.3701V57.5811Z" fill="#E2EBFF"/>
<path d="M30.3701 53.2693H28.1622V55.4834H30.3701V53.2693Z" fill="#E2EBFF"/>
<path d="M30.3701 40.101H28.1622V42.3151H30.3701V40.101Z" fill="#E2EBFF"/>
<path d="M30.3701 22.5045H28.1622V24.7186H30.3701V22.5045Z" fill="#EA67A4"/>
<path d="M34.9018 57.5811H32.6938V59.7952H34.9018V57.5811Z" fill="#E2EBFF"/>
<path d="M34.9018 48.8411H32.6938V51.0552H34.9018V48.8411Z" fill="#E2EBFF"/>
<path d="M34.9018 44.4128H32.6938V46.6269H34.9018V44.4128Z" fill="#E2EBFF"/>
<path d="M34.9018 40.101H32.6938V42.3151H34.9018V40.101Z" fill="#EA67A4"/>
<path d="M34.9018 35.6727H32.6938V37.8869H34.9018V35.6727Z" fill="#E2EBFF"/>
<path d="M34.9018 31.2445H32.6938V33.4586H34.9018V31.2445Z" fill="#E2EBFF"/>
<path d="M34.9018 22.5045H32.6938V24.7186H34.9018V22.5045Z" fill="#E2EBFF"/>
<path d="M34.9018 18.0762H32.6938V20.2903H34.9018V18.0762Z" fill="#E2EBFF"/>
<path d="M39.4344 53.2693H37.2265V55.4834H39.4344V53.2693Z" fill="#E2EBFF"/>
<path d="M39.4344 48.8411H37.2265V51.0552H39.4344V48.8411Z" fill="#E2EBFF"/>
<path d="M39.4344 35.6727H37.2265V37.8869H39.4344V35.6727Z" fill="#E2EBFF"/>
<path d="M39.4344 26.9327H37.2265V29.1469H39.4344V26.9327Z" fill="#E2EBFF"/>
<path d="M44.0825 57.5811H41.8746V59.7952H44.0825V57.5811Z" fill="#E2EBFF"/>
<path d="M44.0825 53.2693H41.8746V55.4834H44.0825V53.2693Z" fill="#E2EBFF"/>
<path d="M44.0825 40.101H41.8746V42.3151H44.0825V40.101Z" fill="#E2EBFF"/>
<path d="M44.0825 35.6727H41.8746V37.8869H44.0825V35.6727Z" fill="#EA67A4"/>
<path d="M44.0825 31.2445H41.8746V33.4586H44.0825V31.2445Z" fill="#E2EBFF"/>
<path d="M48.6147 57.5811H46.4068V59.7952H48.6147V57.5811Z" fill="#E2EBFF"/>
<path d="M48.6147 53.2693H46.4068V55.4834H48.6147V53.2693Z" fill="#E2EBFF"/>
<path d="M48.6147 48.8411H46.4068V51.0552H48.6147V48.8411Z" fill="#E2EBFF"/>
<path d="M48.6147 44.4128H46.4068V46.6269H48.6147V44.4128Z" fill="#E2EBFF"/>
<path d="M48.6147 40.101H46.4068V42.3151H48.6147V40.101Z" fill="#E2EBFF"/>
<path d="M48.6147 35.6727H46.4068V37.8869H48.6147V35.6727Z" fill="#E2EBFF"/>
<path d="M48.6147 22.5045H46.4068V24.7186H48.6147V22.5045Z" fill="#E2EBFF"/>
<path d="M53.1464 57.5811H50.9385V59.7952H53.1464V57.5811Z" fill="#E2EBFF"/>
<path d="M53.1464 53.2693H50.9385V55.4834H53.1464V53.2693Z" fill="#E2EBFF"/>
<path d="M53.1464 48.8411H50.9385V51.0552H53.1464V48.8411Z" fill="#E2EBFF"/>
<path d="M53.1464 40.101H50.9385V42.3151H53.1464V40.101Z" fill="#E2EBFF"/>
<path d="M53.1464 35.6727H50.9385V37.8869H53.1464V35.6727Z" fill="#E2EBFF"/>
<path d="M57.6786 57.5811H55.4706V59.7952H57.6786V57.5811Z" fill="#84A2FF"/>
<path d="M57.6786 53.2693H55.4706V55.4834H57.6786V53.2693Z" fill="#E2EBFF"/>
<path d="M57.6786 48.8411H55.4706V51.0552H57.6786V48.8411Z" fill="#E2EBFF"/>
<path d="M57.6786 44.4128H55.4706V46.6269H57.6786V44.4128Z" fill="#E2EBFF"/>
<path d="M57.6786 40.101H55.4706V42.3151H57.6786V40.101Z" fill="#E2EBFF"/>
<path d="M57.6786 31.2445H55.4706V33.4586H57.6786V31.2445Z" fill="#E2EBFF"/>
<path d="M62.2103 57.5811H60.0024V59.7952H62.2103V57.5811Z" fill="#E2EBFF"/>
<path d="M62.2103 53.2693H60.0024V55.4834H62.2103V53.2693Z" fill="#E2EBFF"/>
<path d="M62.2103 48.8411H60.0024V51.0552H62.2103V48.8411Z" fill="url(#paint0_linear_1451_8374)"/>
<path d="M62.2103 44.4128H60.0024V46.6269H62.2103V44.4128Z" fill="#E2EBFF"/>
<path d="M62.2103 40.101H60.0024V42.3151H62.2103V40.101Z" fill="#E2EBFF"/>
<path d="M62.2103 35.6727H60.0024V37.8869H62.2103V35.6727Z" fill="#E2EBFF"/>
<path d="M66.743 57.5811H64.535V59.7952H66.743V57.5811Z" fill="#E2EBFF"/>
<path d="M66.743 53.2693H64.535V55.4834H66.743V53.2693Z" fill="#E2EBFF"/>
<path d="M66.743 48.8411H64.535V51.0552H66.743V48.8411Z" fill="#E2EBFF"/>
<path d="M66.743 40.101H64.535V42.3151H66.743V40.101Z" fill="#E2EBFF"/>
<path d="M66.743 31.2445H64.535V33.4586H66.743V31.2445Z" fill="#E2EBFF"/>
<path d="M66.743 18.0762H64.535V20.2903H66.743V18.0762Z" fill="#E2EBFF"/>
<path d="M71.2751 53.2693H69.0672V55.4834H71.2751V53.2693Z" fill="#E2EBFF"/>
<path d="M71.2751 48.8411H69.0672V51.0552H71.2751V48.8411Z" fill="#E2EBFF"/>
<path d="M71.2751 44.4128H69.0672V46.6269H71.2751V44.4128Z" fill="#E2EBFF"/>
<path d="M71.2751 26.9327H69.0672V29.1469H71.2751V26.9327Z" fill="#E2EBFF"/>
<path d="M75.8068 57.5811H73.5989V59.7952H75.8068V57.5811Z" fill="#E2EBFF"/>
<path d="M75.8068 48.8411H73.5989V51.0552H75.8068V48.8411Z" fill="#E2EBFF"/>
<path d="M75.8068 44.4128H73.5989V46.6269H75.8068V44.4128Z" fill="#EA67A4"/>
<path d="M75.8068 40.101H73.5989V42.3151H75.8068V40.101Z" fill="#E2EBFF"/>
<path d="M75.8068 35.6727H73.5989V37.8869H75.8068V35.6727Z" fill="#E2EBFF"/>
<path d="M75.8068 31.2445H73.5989V33.4586H75.8068V31.2445Z" fill="#EA67A4"/>
<path d="M80.4554 57.5811H78.2474V59.7952H80.4554V57.5811Z" fill="#E2EBFF"/>
<path d="M80.4554 44.4128H78.2474V46.6269H80.4554V44.4128Z" fill="#E2EBFF"/>
<path d="M80.4554 35.6727H78.2474V37.8869H80.4554V35.6727Z" fill="#E2EBFF"/>
<path d="M84.9871 57.5811H82.7792V59.7952H84.9871V57.5811Z" fill="#E2EBFF"/>
<path d="M84.9871 53.2693H82.7792V55.4834H84.9871V53.2693Z" fill="#E2EBFF"/>
<path d="M84.9871 48.8411H82.7792V51.0552H84.9871V48.8411Z" fill="#E2EBFF"/>
<path d="M84.9871 44.4128H82.7792V46.6269H84.9871V44.4128Z" fill="#E2EBFF"/>
<path d="M84.9871 40.101H82.7792V42.3151H84.9871V40.101Z" fill="#E2EBFF"/>
<path d="M84.9871 26.9327H82.7792V29.1469H84.9871V26.9327Z" fill="#E2EBFF"/>
<path d="M89.5193 57.5811H87.3113V59.7952H89.5193V57.5811Z" fill="#E2EBFF"/>
<path d="M89.5193 48.8411H87.3113V51.0552H89.5193V48.8411Z" fill="#E2EBFF"/>
<path d="M89.5193 44.4128H87.3113V46.6269H89.5193V44.4128Z" fill="#E2EBFF"/>
<path d="M87.2736 73.0527L89.4815 73.0527L89.4815 70.8385L87.2736 70.8385L87.2736 73.0527Z" fill="#E2EBFF"/>
<path d="M87.2736 68.5909L89.4815 68.5909L89.4815 66.3768L87.2736 66.3768L87.2736 68.5909Z" fill="#E2EBFF"/>
<path d="M87.2736 64.2456L89.4815 64.2456L89.4815 62.0315L87.2736 62.0315L87.2736 64.2456Z" fill="#E2EBFF"/>
<path d="M82.7136 77.3979L84.9216 77.3979L84.9216 75.1838L82.7136 75.1838L82.7136 77.3979Z" fill="#E2EBFF"/>
<path d="M82.7136 73.0527L84.9216 73.0527L84.9216 70.8385L82.7136 70.8385L82.7136 73.0527Z" fill="#E2EBFF"/>
<path d="M82.7136 64.2456L84.9216 64.2456L84.9216 62.0315L82.7136 62.0315L82.7136 64.2456Z" fill="#E2EBFF"/>
<path d="M78.1537 77.3979L80.3616 77.3979L80.3616 75.1838L78.1537 75.1838L78.1537 77.3979Z" fill="#E2EBFF"/>
<path d="M78.1537 73.0527L80.3616 73.0527L80.3616 70.8385L78.1537 70.8385L78.1537 73.0527Z" fill="#E2EBFF"/>
<path d="M78.1537 68.5909L80.3616 68.5909L80.3616 66.3768L78.1537 66.3768L78.1537 68.5909Z" fill="#E2EBFF"/>
<path d="M78.1537 64.2456L80.3616 64.2456L80.3616 62.0315L78.1537 62.0315L78.1537 64.2456Z" fill="#E2EBFF"/>
<path d="M73.7102 77.3979L75.9181 77.3979L75.9181 75.1838L73.7102 75.1838L73.7102 77.3979Z" fill="#E2EBFF"/>
<path d="M73.7102 73.0527L75.9181 73.0527L75.9181 70.8385L73.7102 70.8385L73.7102 73.0527Z" fill="#E2EBFF"/>
<path d="M73.7102 68.5909L75.9181 68.5909L75.9181 66.3768L73.7102 66.3768L73.7102 68.5909Z" fill="#E2EBFF"/>
<path d="M73.7102 64.2456L75.9181 64.2456L75.9181 62.0315L73.7102 62.0315L73.7102 64.2456Z" fill="#E2EBFF"/>
<path d="M69.1497 77.3979L71.3577 77.3979L71.3577 75.1838L69.1497 75.1838L69.1497 77.3979Z" fill="#E2EBFF"/>
<path d="M69.1497 73.0527L71.3577 73.0527L71.3577 70.8385L69.1497 70.8385L69.1497 73.0527Z" fill="#E2EBFF"/>
<path d="M69.1497 68.5909L71.3577 68.5909L71.3577 66.3768L69.1497 66.3768L69.1497 68.5909Z" fill="#E2EBFF"/>
<path d="M64.5898 77.3979L66.7977 77.3979L66.7977 75.1838L64.5898 75.1838L64.5898 77.3979Z" fill="#E2EBFF"/>
<path d="M64.5898 73.0527L66.7977 73.0527L66.7977 70.8385L64.5898 70.8385L64.5898 73.0527Z" fill="#E2EBFF"/>
<path d="M64.5898 68.5909L66.7977 68.5909L66.7977 66.3768L64.5898 66.3768L64.5898 68.5909Z" fill="#E2EBFF"/>
<path d="M64.5898 64.2456L66.7977 64.2456L66.7977 62.0315L64.5898 62.0315L64.5898 64.2456Z" fill="#E2EBFF"/>
<path d="M60.0304 77.3979L62.2383 77.3979L62.2383 75.1838L60.0304 75.1838L60.0304 77.3979Z" fill="#E2EBFF"/>
<path d="M60.0304 73.0527L62.2383 73.0527L62.2383 70.8385L60.0304 70.8385L60.0304 73.0527Z" fill="#E2EBFF"/>
<path d="M60.0304 68.5909L62.2383 68.5909L62.2383 66.3768L60.0304 66.3768L60.0304 68.5909Z" fill="#E2EBFF"/>
<path d="M55.4706 77.3918H57.6786V75.1776H55.4706V77.3918Z" fill="url(#paint1_linear_1451_8374)"/>
<path d="M55.4699 73.0527L57.6779 73.0527L57.6779 70.8385L55.4699 70.8385L55.4699 73.0527Z" fill="#E2EBFF"/>
<path d="M55.4699 68.5909L57.6779 68.5909L57.6779 66.3768L55.4699 66.3768L55.4699 68.5909Z" fill="#E2EBFF"/>
<path d="M55.4699 64.2456L57.6779 64.2456L57.6779 62.0315L55.4699 62.0315L55.4699 64.2456Z" fill="#E2EBFF"/>
<path d="M50.91 77.3979L53.1179 77.3979L53.1179 75.1838L50.91 75.1838L50.91 77.3979Z" fill="#E2EBFF"/>
<path d="M50.91 73.0527L53.1179 73.0527L53.1179 70.8385L50.91 70.8385L50.91 73.0527Z" fill="#E2EBFF"/>
<path d="M50.9385 68.6518H53.1464V66.4376H50.9385V68.6518Z" fill="url(#paint2_linear_1451_8374)"/>
<path d="M50.91 64.2456L53.1179 64.2456L53.1179 62.0315L50.91 62.0315L50.91 64.2456Z" fill="#E2EBFF"/>
<path d="M46.3501 77.3979L48.558 77.3979L48.558 75.1838L46.3501 75.1838L46.3501 77.3979Z" fill="#E2EBFF"/>
<path d="M46.3501 73.0527L48.558 73.0527L48.558 70.8385L46.3501 70.8385L46.3501 73.0527Z" fill="#E2EBFF"/>
<path d="M46.3501 68.5909L48.558 68.5909L48.558 66.3768L46.3501 66.3768L46.3501 68.5909Z" fill="#E2EBFF"/>
<path d="M41.7901 73.0527L43.998 73.0527L43.998 70.8385L41.7901 70.8385L41.7901 73.0527Z" fill="#E2EBFF"/>
<path d="M41.7901 68.5909L43.998 68.5909L43.998 66.3768L41.7901 66.3768L41.7901 68.5909Z" fill="#E2EBFF"/>
<path d="M41.7901 64.2456L43.998 64.2456L43.998 62.0315L41.7901 62.0315L41.7901 64.2456Z" fill="#E2EBFF"/>
<path d="M37.346 77.3979L39.554 77.3979L39.554 75.1838L37.346 75.1838L37.346 77.3979Z" fill="#E2EBFF"/>
<path d="M37.346 68.5909L39.554 68.5909L39.554 66.3768L37.346 66.3768L37.346 68.5909Z" fill="#E2EBFF"/>
<path d="M37.346 64.2456L39.554 64.2456L39.554 62.0315L37.346 62.0315L37.346 64.2456Z" fill="#EA67A4"/>
<path d="M32.7861 77.3979L34.994 77.3979L34.994 75.1838L32.7861 75.1838L32.7861 77.3979Z" fill="#E2EBFF"/>
<path d="M32.7861 64.2456L34.994 64.2456L34.994 62.0315L32.7861 62.0315L32.7861 64.2456Z" fill="#E2EBFF"/>
<path d="M28.2266 77.3979L30.4346 77.3979L30.4346 75.1838L28.2266 75.1838L28.2266 77.3979Z" fill="#E2EBFF"/>
<path d="M28.2266 73.0527L30.4346 73.0527L30.4346 70.8385L28.2266 70.8385L28.2266 73.0527Z" fill="#E2EBFF"/>
<path d="M28.2266 68.5909L30.4346 68.5909L30.4346 66.3768L28.2266 66.3768L28.2266 68.5909Z" fill="#E2EBFF"/>
<path d="M23.6662 77.3979L25.8741 77.3979L25.8741 75.1838L23.6662 75.1838L23.6662 77.3979Z" fill="#E2EBFF"/>
<path d="M23.6662 68.5909L25.8741 68.5909L25.8741 66.3768L23.6662 66.3768L23.6662 68.5909Z" fill="#E2EBFF"/>
<path d="M23.6662 64.2456L25.8741 64.2456L25.8741 62.0315L23.6662 62.0315L23.6662 64.2456Z" fill="#E2EBFF"/>
<path d="M56.6329 27.2823C59.3284 27.2823 61.5136 25.091 61.5136 22.3879C61.5136 19.6848 59.3284 17.4935 56.6329 17.4935C53.9374 17.4935 51.7522 19.6848 51.7522 22.3879C51.7522 25.091 53.9374 27.2823 56.6329 27.2823Z" fill="#C7D9FF"/>
<path d="M60.4677 19.3581C61.165 20.1738 61.5136 21.2226 61.5136 22.388C61.5136 25.0682 59.3057 27.2824 56.6329 27.2824C53.9601 27.2824 51.7522 25.0682 51.7522 22.388C51.7522 20.64 52.6819 19.125 54.0763 18.1927" stroke="#182052" stroke-miterlimit="10" stroke-linecap="round" stroke-linejoin="round"/>
<path d="M77.5498 73.6627C77.085 74.1288 76.7363 74.595 76.2715 74.9446C71.0422 79.839 64.0698 82.7523 56.2839 82.7523C50.1249 82.7523 44.3146 80.8878 39.5501 77.5083C38.1556 76.576 36.8773 75.4107 35.7153 74.2454C36.2963 73.4296 37.4584 72.847 39.7825 71.9147L40.7122 71.5651C42.4553 70.8659 44.8956 69.9336 48.0332 68.6518C48.498 68.4187 48.9629 68.1856 49.1953 67.7195C49.3115 67.4864 49.5439 67.2533 49.5439 67.0203C49.7763 66.6707 49.7763 66.2045 49.7763 65.7384V59.7952C49.6601 59.6787 49.6601 59.5621 49.5439 59.4456C49.0791 58.6299 48.7305 57.8141 48.6142 56.8819L48.1494 56.6488C46.6387 56.9984 46.7549 55.3669 46.4063 52.2205C46.2901 50.9386 46.4063 50.7056 46.9873 50.4725L47.4522 49.7733C46.2901 47.2096 45.8253 45.112 45.8253 43.2474C45.8253 40.3341 47.1036 38.353 48.8467 37.4208C48.0332 35.5562 47.917 34.7405 47.917 34.7405C47.917 34.7405 54.076 35.7893 56.1677 35.3231C58.8405 34.7405 63.0239 35.4397 64.5346 39.0522C64.8832 39.1688 65.1156 39.2853 65.4643 39.4018C67.4398 40.4506 68.137 41.849 68.3694 43.364C68.7181 46.1608 67.2074 49.1906 66.8587 50.4725C66.8587 50.4725 66.8587 50.589 66.975 50.589C67.4398 50.8221 67.556 51.1717 67.3236 52.3371C66.9749 55.3669 67.0912 57.1149 65.5805 56.7653L64.186 59.096C64.186 59.3291 64.0698 59.4456 64.0698 59.6787C64.0698 60.1448 64.0698 60.9605 64.0698 65.8549C64.0698 65.9715 64.0698 66.2045 64.0698 66.3211C64.0698 66.7872 64.3022 67.1368 64.5346 67.4864C64.6508 67.603 64.767 67.7195 64.8832 67.836C65.2318 68.1856 65.5805 68.4187 66.0453 68.6518C69.5315 70.1667 72.0881 71.099 73.9474 71.7982C75.6905 72.6139 76.8525 73.1966 77.5498 73.6627Z" fill="#F5C6D6"/>
<path d="M80.3387 82.4028C75.1094 87.2972 64.0698 82.8689 56.2839 82.8689C50.1249 82.8689 37.226 87.7633 32.4615 84.5004C31.5318 83.8012 32.6939 81.1209 33.0425 80.3052C33.6235 78.6737 34.2046 77.0422 35.018 75.5273C36.7611 72.1478 44.7794 70.5163 48.0332 68.7683C48.6142 68.4187 48.9629 68.1857 49.1953 67.8361C53.0301 73.1966 60.9322 73.1966 64.767 67.9526C65.1156 68.3022 65.4642 68.5353 65.9291 68.7683C66.0453 68.7683 66.1615 68.8849 66.2777 68.8849C77.0849 73.3131 77.7822 72.7305 79.1767 76.8091C79.4091 77.5083 80.8036 81.9366 80.3387 82.4028Z" fill="white"/>
<path d="M80.3387 82.4027C75.1094 87.2971 64.0698 82.8689 56.2839 82.8689C50.1249 82.8689 37.226 87.7633 32.4615 84.5003C31.5318 83.8011 32.6939 81.1209 33.0425 80.3051C33.6235 78.6737 34.2046 77.0422 35.018 75.5273C36.7611 72.1478 44.7794 70.5163 48.0332 68.7683C48.0332 68.7683 48.0332 68.7683 48.1494 68.7683C52.5653 74.9446 61.7456 74.9446 66.1615 68.8848H66.2777C77.0849 73.3131 77.7822 72.7305 79.1767 76.8091C79.4091 77.5083 80.8036 81.9366 80.3387 82.4027Z" fill="#EB8EAD"/>
<path d="M49.6599 59.2125C50.0085 59.7952 50.3572 60.2613 50.9382 60.6109L55.5865 63.8739C56.6323 64.8061 58.2592 64.8061 59.3051 63.8739L60.932 62.3589" stroke="#182052" stroke-miterlimit="10" stroke-linecap="round" stroke-linejoin="round"/>
<path d="M80.3386 82.4027C80.8034 81.9366 79.5252 77.5083 79.2928 76.9257C77.8983 72.7305 78.0145 73.7793 66.0452 68.7683C64.9993 68.4187 64.3021 67.3699 64.1859 66.4377C64.0696 65.9715 64.0696 60.3779 64.3021 59.2126L65.6965 56.8819C67.2072 57.348 67.091 55.4835 67.4396 52.4536C67.5559 51.2883 67.4396 50.9387 67.091 50.7056C67.091 50.7056 67.091 50.5891 66.9748 50.5891C67.4396 48.4915 71.3907 41.8491 64.6507 39.1688C63.14 35.5563 58.9565 34.9736 56.2838 35.4397C54.1921 35.9059 48.0331 34.8571 48.0331 34.8571C48.0331 34.8571 48.0331 35.6728 49.0789 37.7704C44.8955 39.868 45.5927 45.4616 47.6845 50.123L47.2196 50.8222C46.6386 51.0552 46.4062 51.2883 46.6386 52.5702C46.9872 55.7166 46.9872 57.348 48.3817 56.9984L48.8465 57.2315C48.9627 58.5134 49.4276 59.2126 50.0086 60.1448C50.0086 65.6219 50.1248 66.5542 49.7762 67.3699C48.8465 69.5841 40.9445 71.4486 37.342 73.4297" stroke="#182052" stroke-miterlimit="10" stroke-linecap="round" stroke-linejoin="round"/>
<path d="M91.7273 77.6248V106.176C91.7273 108.739 89.6356 110.837 87.079 110.837H26.1865C23.63 110.837 21.5383 108.739 21.5383 106.176V77.6248H91.7273Z" fill="white"/>
<path d="M65.697 88.579H47.5687C46.6391 88.579 45.9418 87.8798 45.9418 86.9475C45.9418 86.0152 46.6391 85.316 47.5687 85.316H65.697C66.6267 85.316 67.3239 86.0152 67.3239 86.9475C67.3239 87.8798 66.6267 88.579 65.697 88.579Z" fill="#EB8EAD"/>
<path d="M73.1341 95.8041H40.2475C39.3178 95.8041 38.6206 95.1049 38.6206 94.1726C38.6206 93.2403 39.3178 92.5411 40.2475 92.5411H73.1341C74.0637 92.5411 74.761 93.2403 74.761 94.1726C74.761 95.1049 73.9475 95.8041 73.1341 95.8041Z" fill="#E15684"/>
<path d="M63.1402 103.146H50.2412C49.6602 103.146 49.1954 102.68 49.1954 102.097V100.932C49.1954 100.349 49.6602 99.8828 50.2412 99.8828H63.1402C63.7212 99.8828 64.1861 100.349 64.1861 100.932V102.097C64.1861 102.68 63.7212 103.146 63.1402 103.146Z" fill="#F5C6D6"/>
<path d="M21.5383 26.9327V26.5831" stroke="#182052" stroke-miterlimit="10" stroke-linecap="round" stroke-linejoin="round"/>
<path d="M56.9814 11.5503H87.079C89.6356 11.5503 91.7273 13.6479 91.7273 16.2116V106.176C91.7273 108.739 89.6356 110.837 87.079 110.837H26.1865C23.63 110.837 21.5383 108.739 21.5383 106.176V31.2445" stroke="#D81E5B" stroke-miterlimit="10" stroke-linecap="round" stroke-linejoin="round"/>
<path d="M21.5383 20.4068V16.3282C21.5383 13.7644 23.63 11.6668 26.1865 11.6668H49.7766" stroke="#D81E5B" stroke-miterlimit="10" stroke-linecap="round" stroke-linejoin="round"/>
<path d="M56.5161 23.9029C56.0513 23.9029 55.7027 23.6698 55.4703 23.2037L46.2899 4.20868C46.0575 3.62601 46.2899 2.92681 46.871 2.69374C47.452 2.46068 48.1492 2.69374 48.3817 3.27641L57.562 22.2714C57.7944 22.8541 57.562 23.5533 56.981 23.7863C56.8648 23.9029 56.6324 23.9029 56.5161 23.9029Z" fill="#D81E5B"/>
<path d="M85.3361 77.8578H85.6857" stroke="#182052" stroke-miterlimit="10" stroke-linecap="round" stroke-linejoin="round"/>
<path d="M21.5383 77.8578H80.4552" stroke="#182052" stroke-miterlimit="10" stroke-linecap="round" stroke-linejoin="round"/>
<path d="M79.1125 99.7237C80.6967 96.4047 83.1478 93.5199 86.3217 91.3579C89.64 89.1962 93.5371 88.0458 97.4356 88.0506C104.294 87.9868 110.724 91.5321 114.485 97.3123C115.497 98.9018 116.294 100.563 116.873 102.297C118.25 106.413 118.183 110.817 116.889 114.858C115.522 119.116 112.711 122.939 108.672 125.533C99.2938 131.73 86.6565 129.044 80.4364 119.651C78.1942 116.255 77.1066 112.427 77.0297 108.601" stroke="#383A3F" stroke-miterlimit="10" stroke-linecap="round" stroke-linejoin="round"/>
<path d="M77.4592 105.425C77.5311 105.209 77.531 105.064 77.6029 104.848" stroke="#383A3F" stroke-miterlimit="10" stroke-linecap="round" stroke-linejoin="round"/>
<path d="M114.485 98.1788C115.426 99.696 116.222 101.357 116.802 102.946C118.034 106.919 118.039 111.106 116.744 115.003C115.449 119.044 112.783 122.723 108.887 125.317C99.7982 131.226 87.6666 128.756 81.7355 119.653C75.8045 110.549 78.2443 98.4233 87.3335 92.5145C90.5797 90.4248 94.2603 89.3464 98.0865 89.2789C104.728 89.287 110.869 92.6876 114.485 98.1788Z" fill="#D81E5B"/>
<path d="M101.262 103.291L98.0897 106.464L94.9093 103.283C94.2587 102.633 93.1756 102.559 92.4546 103.28C91.8056 103.929 91.7349 105.012 92.4578 105.735L95.6381 108.915L92.4653 112.088C91.8164 112.737 91.7457 113.82 92.4685 114.543C93.1913 115.265 94.2018 115.266 94.9229 114.545L98.0956 111.373L101.276 114.553C101.927 115.204 103.01 115.277 103.731 114.556C104.38 113.907 104.451 112.825 103.728 112.102L100.547 108.921L103.72 105.748C104.369 105.099 104.44 104.017 103.717 103.294C102.994 102.571 101.911 102.642 101.262 103.291Z" fill="white"/>
<defs>
<linearGradient id="paint0_linear_1451_8374" x1="60.0097" y1="49.9584" x2="62.2398" y2="49.9584" gradientUnits="userSpaceOnUse">
<stop stop-color="#FF66A9"/>
<stop offset="1" stop-color="#F53689"/>
</linearGradient>
<linearGradient id="paint1_linear_1451_8374" x1="57.6894" y1="76.2878" x2="55.4593" y2="76.2878" gradientUnits="userSpaceOnUse">
<stop stop-color="#84A2FF"/>
<stop offset="1" stop-color="#84A2FF"/>
</linearGradient>
<linearGradient id="paint2_linear_1451_8374" x1="53.1433" y1="67.5143" x2="50.9131" y2="67.5143" gradientUnits="userSpaceOnUse">
<stop stop-color="#FF66A9"/>
<stop offset="1" stop-color="#F53689"/>
</linearGradient>
</defs>
</svg>
