<svg width="164" height="153" viewBox="0 0 164 153" fill="none" xmlns="http://www.w3.org/2000/svg">
<circle cx="91.8931" cy="58.2881" r="46.6768" fill="#EE4266"/>
<path d="M143.995 58.3934C143.995 65.2853 142.626 72.1087 139.968 78.4674C137.31 84.8262 133.416 90.5938 128.511 95.4355C123.606 100.277 117.788 104.097 111.396 106.672C105.003 109.248 98.1627 110.528 91.2713 110.439C84.3799 110.349 77.5749 108.892 71.2511 106.152C64.9272 103.412 59.2106 99.4435 54.4328 94.4764C49.655 89.5093 45.9112 83.6429 43.4187 77.2174C40.9262 70.792 39.7345 63.9355 39.913 57.0459L41.0555 57.0755C40.881 63.8138 42.0465 70.5197 44.4843 76.8041C46.922 83.0884 50.5836 88.8261 55.2565 93.6841C59.9294 98.542 65.5205 102.424 71.7055 105.104C77.8904 107.784 84.5461 109.208 91.2861 109.296C98.0262 109.383 104.716 108.131 110.969 105.612C117.221 103.093 122.911 99.3574 127.708 94.6221C132.505 89.8867 136.314 84.2458 138.913 78.0266C141.513 71.8075 142.852 65.134 142.852 58.3934H143.995Z" fill="#DB2352"/>
<path d="M42.5815 40.2605C40.7813 39.722 40.1409 39.0557 39.5592 37.2383C39.0698 38.8857 38.4581 39.5812 36.537 40.2605C38.4837 41.0323 39.0881 41.7189 39.5592 43.2828C40.14 41.6687 40.8038 40.991 42.5815 40.2605Z" stroke="#DB2352"/>
<path d="M134.334 18.7664C132.534 18.2279 131.893 17.5616 131.312 15.7441C130.822 17.3916 130.21 18.0871 128.289 18.7664C130.236 19.5381 130.84 20.2248 131.312 21.7886C131.892 20.1746 132.556 19.4969 134.334 18.7664Z" stroke="#DB2352"/>
<path d="M46.9832 26.6858C52.1785 19.4524 59.1428 13.6731 67.2101 9.90058C75.2774 6.12808 84.1777 4.4886 93.0596 5.13898L92.9762 6.27888C84.2892 5.64278 75.5844 7.24626 67.6943 10.9359C59.8042 14.6256 52.9927 20.278 47.9115 27.3525L46.9832 26.6858Z" fill="#DB2352"/>
<path opacity="0.4" d="M5.53992 111.217L61.335 96.752L129.529 127.749L117.13 130.229L110.104 134.362L98.5318 140.975L5.53992 111.217Z" fill="#151515"/>
<path opacity="0.4" d="M142.755 148.001L110.104 134.776L125.396 126.51L158.047 138.082L142.755 148.001Z" fill="#151515"/>
<path d="M53.069 99.6453L31.1643 106.671C29.5111 98.0747 33.5067 93.9969 35.711 93.4458L41.9104 91.3793L50.1764 90.5527L53.069 99.6453Z" fill="#B5A5DD"/>
<path d="M124.156 111.631L65.8815 91.793L36.5374 101.712V113.698L101.425 133.123L124.156 121.55V111.631Z" fill="#7F27FF"/>
<path d="M124.156 121.552V111.633L101.425 121.552L36.5374 102.127V113.699L101.425 133.124L124.156 121.552Z" fill="#381E7E"/>
<path d="M124.156 111.631L65.8815 91.793L36.5374 101.712M124.156 111.631L101.425 121.55L36.5374 101.712M124.156 111.631V121.55L101.425 133.123L36.5374 113.698V101.712" stroke="#151515"/>
<path d="M122.09 117.416L104.318 125.682" stroke="#151515"/>
<path d="M101.425 121.549V133.121" stroke="#151515"/>
<path d="M156.526 135.735L126.65 125.011C126.379 124.913 126.078 124.938 125.826 125.078L113.225 132.078C112.482 132.491 112.561 133.585 113.356 133.887L143.529 145.345C143.822 145.457 144.151 145.424 144.416 145.257L156.72 137.523C157.426 137.079 157.311 136.017 156.526 135.735Z" fill="#7F27FF" stroke="#151515"/>
<path d="M67.1214 93.8594L83.6533 99.6455L63.8151 107.911L43.9768 101.712L67.1214 93.8594Z" fill="#F5F1FF" stroke="#151515"/>
<path d="M90.2657 102.128L85.3062 100.475L80.3466 102.541L85.3062 104.194L90.2657 102.128Z" fill="#151515"/>
<path d="M85.3062 99.2324L90.2657 100.886V101.712L85.3062 103.779L80.3466 102.126V101.299L85.3062 99.2324Z" fill="#EE4266"/>
<path d="M85.3062 102.953L90.2657 100.887V101.713L85.3062 103.78L80.3466 102.127V101.3L85.3062 102.953Z" fill="#9B1640"/>
<path d="M84.4794 104.606L79.9331 102.953L73.7336 105.846L78.2799 107.499L84.4794 104.606Z" fill="#151515"/>
<path d="M77.4536 107.911L72.9073 106.258L66.2946 109.151L70.8409 110.391L77.4536 107.911Z" fill="#151515"/>
<path d="M84.0664 104.19V103.363L79.9334 102.123L74.1473 104.603V105.429L77.8669 106.669L84.0664 104.19Z" fill="#C0C0C0"/>
<path d="M77.8669 105.845L84.0664 103.365V104.192L77.8669 106.672L74.1473 105.432V104.605L77.8669 105.845Z" fill="#666666"/>
<path d="M76.6271 107.498V106.672L72.9074 105.432L66.2946 107.911V108.738L70.4276 109.978L76.6271 107.498Z" fill="#6AFAD7"/>
<path d="M70.4276 109.154L76.6271 106.674V107.5L70.4276 109.98L66.2946 108.74V107.914L70.4276 109.154Z" fill="#311383"/>
<path d="M41.9102 93.4445C44.5553 94.7671 45.4921 97.853 45.6299 99.2307L60.9219 94.271C60.5913 90.634 56.3757 88.4852 53.8958 88.8982C52.2426 89.1737 42.8194 90.634 36.5373 92.6178C30.2552 94.6017 30.3379 102.951 31.1645 106.67C29.0981 93.0315 38.6038 91.7913 41.9102 93.4445Z" fill="#E3D9FF"/>
<path d="M46.4564 96.34L59.2686 92.207" stroke="#DB2352" stroke-width="0.5" stroke-linecap="round"/>
<path d="M44.8033 93.8591L56.3757 90.5527" stroke="#DB2352" stroke-width="0.5" stroke-linecap="round"/>
<path d="M42.7369 91.7903L53.896 89.3105" stroke="#DB2352" stroke-width="0.5" stroke-linecap="round"/>
<path fill-rule="evenodd" clip-rule="evenodd" d="M91.919 60.8709L107.962 76.9135L110.517 74.358L94.4745 58.3154L110.517 42.2725L107.962 39.717L91.919 55.7599L75.8759 39.7168L73.3204 42.2723L89.3635 58.3154L73.3206 74.3582L75.8761 76.9137L91.919 60.8709Z" fill="white"/>
<ellipse cx="134.489" cy="133.949" rx="5.78616" ry="2.47978" fill="#6AFAD7"/>
</svg>
