<svg width="16" height="16" viewBox="0 0 16 16" fill="none" xmlns="http://www.w3.org/2000/svg">
<path d="M3.93331 4.33398C3.93331 4.00261 3.66468 3.73398 3.33331 3.73398C3.00194 3.73398 2.73331 4.00261 2.73331 4.33398H3.93331ZM2.73331 14.0007C2.73331 14.332 3.00194 14.6007 3.33331 14.6007C3.66468 14.6007 3.93331 14.332 3.93331 14.0007H2.73331ZM2.73331 4.33398L2.73331 14.0007H3.93331L3.93331 4.33398H2.73331Z" fill="#8B849B"/>
<path d="M6.59515 2.69144L6.37338 3.24895L6.59515 2.69144ZM8.73912 3.54428L8.51735 4.10179L8.73912 3.54428ZM8.73912 8.5163L8.96089 9.07381L8.73912 8.5163ZM3.33331 10.6667H2.73331C2.73331 10.8656 2.83187 11.0515 2.99646 11.1632C3.16105 11.2748 3.37028 11.2977 3.55508 11.2242L3.33331 10.6667ZM3.85987 2.12974L3.55047 1.61567L3.55047 1.61567L3.85987 2.12974ZM6.37338 3.24895L8.51735 4.10179L8.96089 2.98677L6.81693 2.13393L6.37338 3.24895ZM8.51735 7.95879L3.11154 10.1092L3.55508 11.2242L8.96089 9.07381L8.51735 7.95879ZM8.51735 4.10179C9.84554 4.63013 10.7779 5.00265 11.386 5.35182C12.0134 5.71203 12.0666 5.91889 12.0666 6.03029H13.2666C13.2666 5.21801 12.6653 4.70264 11.9835 4.31116C11.2825 3.90863 10.251 3.49998 8.96089 2.98677L8.51735 4.10179ZM8.96089 9.07381C10.2511 8.5606 11.2825 8.15196 11.9835 7.74942C12.6653 7.35794 13.2666 6.84257 13.2666 6.03029H12.0666C12.0666 6.1417 12.0134 6.34855 11.386 6.70877C10.7779 7.05793 9.84554 7.43045 8.51735 7.95879L8.96089 9.07381ZM2.73331 4.65458V10.6667H3.93331V4.65458H2.73331ZM6.81693 2.13393C6.0977 1.84783 5.49992 1.60856 5.01621 1.48949C4.5247 1.3685 4.01605 1.33546 3.55047 1.61567L4.16927 2.64382C4.23025 2.60712 4.35299 2.56205 4.72937 2.6547C5.11354 2.74927 5.62012 2.94931 6.37338 3.24895L6.81693 2.13393ZM3.93331 4.65458C3.93331 3.89702 3.93519 3.40316 3.99146 3.05467C4.04429 2.7275 4.12322 2.67153 4.16927 2.64382L3.55047 1.61567C3.06996 1.90486 2.88561 2.37534 2.80681 2.86337C2.73144 3.33008 2.73331 3.94019 2.73331 4.65458H3.93331Z" fill="#8B849B"/>
</svg>
