<svg width="150" height="151" viewBox="0 0 150 151" fill="none" xmlns="http://www.w3.org/2000/svg">
<path d="M141.116 96.7619H139.319V75.7994C139.319 74.2244 138.046 72.9494 136.473 72.9494H113.254L113.292 17.2994C113.292 17.2244 113.217 17.1494 113.142 17.1494H75.955C68.5775 17.1494 67.7536 21.2744 67.7536 25.7744V80.7119H58.2415V60.5369C58.2415 59.1494 57.1181 58.0619 55.7699 58.0619H20.5677C19.1821 58.0619 18.0961 59.1869 18.0961 60.5369V96.7244H15.9615C14.3886 96.7244 13.1154 97.9994 13.1154 99.5744V110.787C13.1154 112.362 14.3886 113.637 15.9615 113.637H141.154C142.727 113.637 144 112.362 144 110.787V99.5744C143.963 98.0369 142.689 96.7619 141.116 96.7619Z" fill="#F0F3F5"/>
<path fill-rule="evenodd" clip-rule="evenodd" d="M10.1943 84.0869C9.92891 84.0869 9.67166 84.1166 9.42532 84.1724C9.02135 84.264 8.61965 84.0107 8.52808 83.6067C8.43652 83.2028 8.68977 82.8011 9.09374 82.7095C9.44832 82.6291 9.81677 82.5869 10.1943 82.5869H11.003C11.4172 82.5869 11.753 82.9227 11.753 83.3369C11.753 83.7511 11.4172 84.0869 11.003 84.0869H10.1943ZM14.2966 83.3369C14.2966 82.9227 14.6324 82.5869 15.0466 82.5869H16.6641C17.0783 82.5869 17.4141 82.9227 17.4141 83.3369C17.4141 83.7511 17.0783 84.0869 16.6641 84.0869H15.0466C14.6324 84.0869 14.2966 83.7511 14.2966 83.3369ZM19.9577 83.3369C19.9577 82.9227 20.2935 82.5869 20.7077 82.5869H22.3251C22.7394 82.5869 23.0751 82.9227 23.0751 83.3369C23.0751 83.7511 22.7394 84.0869 22.3251 84.0869H20.7077C20.2935 84.0869 19.9577 83.7511 19.9577 83.3369ZM25.6188 83.3369C25.6188 82.9227 25.9545 82.5869 26.3688 82.5869H27.9862C28.4004 82.5869 28.7362 82.9227 28.7362 83.3369C28.7362 83.7511 28.4004 84.0869 27.9862 84.0869H26.3688C25.9545 84.0869 25.6188 83.7511 25.6188 83.3369ZM31.2798 83.3369C31.2798 82.9227 31.6156 82.5869 32.0298 82.5869H33.6473C34.0615 82.5869 34.3973 82.9227 34.3973 83.3369C34.3973 83.7511 34.0615 84.0869 33.6473 84.0869H32.0298C31.6156 84.0869 31.2798 83.7511 31.2798 83.3369ZM36.9409 83.3369C36.9409 82.9227 37.2767 82.5869 37.6909 82.5869H39.3083C39.7225 82.5869 40.0583 82.9227 40.0583 83.3369C40.0583 83.7511 39.7225 84.0869 39.3083 84.0869H37.6909C37.2767 84.0869 36.9409 83.7511 36.9409 83.3369ZM42.6019 83.3369C42.6019 82.9227 42.9377 82.5869 43.3519 82.5869H44.1607C44.5382 82.5869 44.9066 82.6291 45.2612 82.7095C45.6652 82.8011 45.9184 83.2028 45.8269 83.6067C45.7353 84.0107 45.3336 84.264 44.9296 84.1724C44.6833 84.1166 44.426 84.0869 44.1607 84.0869H43.3519C42.9377 84.0869 42.6019 83.7511 42.6019 83.3369ZM6.26877 85.8705C6.67282 85.9617 6.92643 86.3632 6.83522 86.7672C6.77956 87.0138 6.75 87.2713 6.75 87.5369V88.2528C6.75 88.667 6.41421 89.0028 6 89.0028C5.58579 89.0028 5.25 88.667 5.25 88.2528V87.5369C5.25 87.1596 5.29203 86.7914 5.37204 86.4369C5.46324 86.0329 5.86473 85.7793 6.26877 85.8705ZM48.0862 85.8705C48.4902 85.7793 48.8917 86.0329 48.9829 86.4369C49.0629 86.7914 49.105 87.1596 49.105 87.5369V88.2528C49.105 88.667 48.7692 89.0028 48.355 89.0028C47.9407 89.0028 47.605 88.667 47.605 88.2528V87.5369C47.605 87.2713 47.5754 87.0138 47.5197 86.7672C47.4285 86.3632 47.6821 85.9617 48.0862 85.8705ZM6 91.082C6.41421 91.082 6.75 91.4178 6.75 91.832V93.2637C6.75 93.6779 6.41421 94.0137 6 94.0137C5.58579 94.0137 5.25 93.6779 5.25 93.2637V91.832C5.25 91.4178 5.58579 91.082 6 91.082ZM48.355 91.082C48.7692 91.082 49.105 91.4178 49.105 91.832V93.2637C49.105 93.6779 48.7692 94.0137 48.355 94.0137C47.9407 94.0137 47.605 93.6779 47.605 93.2637V91.832C47.605 91.4178 47.9407 91.082 48.355 91.082ZM48.355 96.0929C48.7692 96.0929 49.105 96.4287 49.105 96.8429V98.2746C49.105 98.6889 48.7692 99.0246 48.355 99.0246C47.9407 99.0246 47.605 98.6889 47.605 98.2746V96.8429C47.605 96.4287 47.9407 96.0929 48.355 96.0929ZM6 96.0929C6.41421 96.0929 6.75 96.4287 6.75 96.8429V98.2746C6.75 98.6889 6.41421 99.0246 6 99.0246C5.58579 99.0246 5.25 98.6889 5.25 98.2746V96.8429C5.25 96.4287 5.58579 96.0929 6 96.0929ZM6 101.104C6.41421 101.104 6.75 101.44 6.75 101.854V103.286C6.75 103.7 6.41421 104.036 6 104.036C5.58579 104.036 5.25 103.7 5.25 103.286V101.854C5.25 101.44 5.58579 101.104 6 101.104ZM48.355 101.104C48.7692 101.104 49.105 101.44 49.105 101.854V103.286C49.105 103.7 48.7692 104.036 48.355 104.036C47.9407 104.036 47.605 103.7 47.605 103.286V101.854C47.605 101.44 47.9407 101.104 48.355 101.104ZM6 106.115C6.41421 106.115 6.75 106.451 6.75 106.865V108.297C6.75 108.711 6.41421 109.047 6 109.047C5.58579 109.047 5.25 108.711 5.25 108.297V106.865C5.25 106.451 5.58579 106.115 6 106.115ZM48.355 106.115C48.7692 106.115 49.105 106.451 49.105 106.865V108.297C49.105 108.711 48.7692 109.047 48.355 109.047C47.9407 109.047 47.605 108.711 47.605 108.297V106.865C47.605 106.451 47.9407 106.115 48.355 106.115ZM6 111.126C6.41421 111.126 6.75 111.462 6.75 111.876V113.307C6.75 113.722 6.41421 114.057 6 114.057C5.58579 114.057 5.25 113.722 5.25 113.307V111.876C5.25 111.462 5.58579 111.126 6 111.126ZM48.355 111.126C48.7692 111.126 49.105 111.462 49.105 111.876V113.307C49.105 113.722 48.7692 114.057 48.355 114.057C47.9407 114.057 47.605 113.722 47.605 113.307V111.876C47.605 111.462 47.9407 111.126 48.355 111.126ZM6 116.137C6.41421 116.137 6.75 116.472 6.75 116.887V118.318C6.75 118.733 6.41421 119.068 6 119.068C5.58579 119.068 5.25 118.733 5.25 118.318V116.887C5.25 116.472 5.58579 116.137 6 116.137ZM48.355 116.137C48.7692 116.137 49.105 116.472 49.105 116.887V118.318C49.105 118.733 48.7692 119.068 48.355 119.068C47.9407 119.068 47.605 118.733 47.605 118.318V116.887C47.605 116.472 47.9407 116.137 48.355 116.137ZM6 121.148C6.41421 121.148 6.75 121.483 6.75 121.898V123.329C6.75 123.744 6.41421 124.079 6 124.079C5.58579 124.079 5.25 123.744 5.25 123.329V121.898C5.25 121.483 5.58579 121.148 6 121.148ZM48.355 121.148C48.7692 121.148 49.105 121.483 49.105 121.898V123.329C49.105 123.744 48.7692 124.079 48.355 124.079C47.9407 124.079 47.605 123.744 47.605 123.329V121.898C47.605 121.483 47.9407 121.148 48.355 121.148ZM6 126.159C6.41421 126.159 6.75 126.494 6.75 126.909V127.624C6.75 127.89 6.77956 128.148 6.83522 128.394C6.92643 128.798 6.67282 129.2 6.26877 129.291C5.86473 129.382 5.46324 129.128 5.37204 128.724C5.29203 128.37 5.25 128.002 5.25 127.624V126.909C5.25 126.494 5.58579 126.159 6 126.159ZM48.355 126.159C48.7692 126.159 49.105 126.494 49.105 126.909V127.624C49.105 128.002 49.0629 128.37 48.9829 128.724C48.8917 129.128 48.4902 129.382 48.0862 129.291C47.6821 129.2 47.4285 128.798 47.5197 128.394C47.5754 128.148 47.605 127.89 47.605 127.624V126.909C47.605 126.494 47.9407 126.159 48.355 126.159ZM8.52808 131.555C8.61965 131.151 9.02135 130.897 9.42532 130.989C9.67166 131.045 9.92891 131.074 10.1943 131.074H11.003C11.4172 131.074 11.753 131.41 11.753 131.824C11.753 132.239 11.4172 132.574 11.003 132.574H10.1943C9.81677 132.574 9.44832 132.532 9.09374 132.452C8.68977 132.36 8.43652 131.959 8.52808 131.555ZM45.8269 131.555C45.9184 131.959 45.6652 132.36 45.2612 132.452C44.9066 132.532 44.5382 132.574 44.1607 132.574H43.3519C42.9377 132.574 42.6019 132.239 42.6019 131.824C42.6019 131.41 42.9377 131.074 43.3519 131.074H44.1607C44.426 131.074 44.6833 131.045 44.9296 130.989C45.3336 130.897 45.7353 131.151 45.8269 131.555ZM14.2966 131.824C14.2966 131.41 14.6324 131.074 15.0466 131.074H16.6641C17.0783 131.074 17.4141 131.41 17.4141 131.824C17.4141 132.239 17.0783 132.574 16.6641 132.574H15.0466C14.6324 132.574 14.2966 132.239 14.2966 131.824ZM19.9577 131.824C19.9577 131.41 20.2935 131.074 20.7077 131.074H22.3251C22.7394 131.074 23.0751 131.41 23.0751 131.824C23.0751 132.239 22.7394 132.574 22.3251 132.574H20.7077C20.2935 132.574 19.9577 132.239 19.9577 131.824ZM25.6188 131.824C25.6188 131.41 25.9545 131.074 26.3688 131.074H27.9862C28.4004 131.074 28.7362 131.41 28.7362 131.824C28.7362 132.239 28.4004 132.574 27.9862 132.574H26.3688C25.9545 132.574 25.6188 132.239 25.6188 131.824ZM31.2798 131.824C31.2798 131.41 31.6156 131.074 32.0298 131.074H33.6473C34.0615 131.074 34.3973 131.41 34.3973 131.824C34.3973 132.239 34.0615 132.574 33.6473 132.574H32.0298C31.6156 132.574 31.2798 132.239 31.2798 131.824ZM36.9409 131.824C36.9409 131.41 37.2767 131.074 37.6909 131.074H39.3083C39.7225 131.074 40.0583 131.41 40.0583 131.824C40.0583 132.239 39.7225 132.574 39.3083 132.574H37.6909C37.2767 132.574 36.9409 132.239 36.9409 131.824Z" fill="#999999"/>
<path fill-rule="evenodd" clip-rule="evenodd" d="M12.1862 91.4431C12.4113 91.0954 12.8757 90.996 13.2234 91.2211L20.6383 96.0211C20.8509 96.1587 20.9797 96.3943 20.9807 96.6476C20.9818 96.9009 20.8549 97.1375 20.6435 97.2769L13.3034 102.114C12.9576 102.342 12.4924 102.247 12.2645 101.901C12.0366 101.555 12.1321 101.09 12.478 100.862L18.8593 96.6563L12.4083 92.4803C12.0605 92.2552 11.9611 91.7908 12.1862 91.4431ZM22.5889 107.488C22.5889 107.074 22.9247 106.738 23.3389 106.738H31.1283C31.5425 106.738 31.8783 107.074 31.8783 107.488C31.8783 107.902 31.5425 108.238 31.1283 108.238H23.3389C22.9247 108.238 22.5889 107.902 22.5889 107.488Z" fill="#999999"/>
<path fill-rule="evenodd" clip-rule="evenodd" d="M126.697 23.6006C126.697 23.1864 127.033 22.8506 127.447 22.8506H128.196C128.395 22.8506 128.586 22.9297 128.727 23.0706L129.251 23.5956C129.544 23.8887 129.544 24.3636 129.251 24.6563C128.958 24.949 128.483 24.9486 128.19 24.6556L127.885 24.3506H127.447C127.033 24.3506 126.697 24.0148 126.697 23.6006Z" fill="#999999"/>
<path fill-rule="evenodd" clip-rule="evenodd" d="M78.4737 22.9639C78.7965 22.8897 79.1319 22.8506 79.4753 22.8506H80.2644C80.6786 22.8506 81.0144 23.1864 81.0144 23.6006C81.0144 24.0148 80.6786 24.3506 80.2644 24.3506H79.4753C79.2461 24.3506 79.0234 24.3767 78.8097 24.4258C78.406 24.5186 78.0035 24.2666 77.9107 23.8629C77.818 23.4592 78.07 23.0567 78.4737 22.9639ZM83.4599 23.6006C83.4599 23.1864 83.7957 22.8506 84.2099 22.8506H85.7881C86.2023 22.8506 86.5381 23.1864 86.5381 23.6006C86.5381 24.0148 86.2023 24.3506 85.7881 24.3506H84.2099C83.7957 24.3506 83.4599 24.0148 83.4599 23.6006ZM88.9836 23.6006C88.9836 23.1864 89.3194 22.8506 89.7336 22.8506H91.3119C91.7261 22.8506 92.0619 23.1864 92.0619 23.6006C92.0619 24.0148 91.7261 24.3506 91.3119 24.3506H89.7336C89.3194 24.3506 88.9836 24.0148 88.9836 23.6006ZM94.5074 23.6006C94.5074 23.1864 94.8432 22.8506 95.2574 22.8506H96.8356C97.2498 22.8506 97.5856 23.1864 97.5856 23.6006C97.5856 24.0148 97.2498 24.3506 96.8356 24.3506H95.2574C94.8432 24.3506 94.5074 24.0148 94.5074 23.6006ZM100.031 23.6006C100.031 23.1864 100.367 22.8506 100.781 22.8506H102.359C102.774 22.8506 103.109 23.1864 103.109 23.6006C103.109 24.0148 102.774 24.3506 102.359 24.3506H100.781C100.367 24.3506 100.031 24.0148 100.031 23.6006ZM105.555 23.6006C105.555 23.1864 105.891 22.8506 106.305 22.8506H107.883C108.297 22.8506 108.633 23.1864 108.633 23.6006C108.633 24.0148 108.297 24.3506 107.883 24.3506H106.305C105.891 24.3506 105.555 24.0148 105.555 23.6006ZM111.079 23.6006C111.079 23.1864 111.414 22.8506 111.829 22.8506H113.407C113.821 22.8506 114.157 23.1864 114.157 23.6006C114.157 24.0148 113.821 24.3506 113.407 24.3506H111.829C111.414 24.3506 111.079 24.0148 111.079 23.6006ZM116.602 23.6006C116.602 23.1864 116.938 22.8506 117.352 22.8506H118.931C119.345 22.8506 119.681 23.1864 119.681 23.6006C119.681 24.0148 119.345 24.3506 118.931 24.3506H117.352C116.938 24.3506 116.602 24.0148 116.602 23.6006ZM122.126 23.6006C122.126 23.1864 122.462 22.8506 122.876 22.8506H123.665C124.079 22.8506 124.415 23.1864 124.415 23.6006C124.415 24.0148 124.079 24.3506 123.665 24.3506H122.876C122.462 24.3506 122.126 24.0148 122.126 23.6006ZM129.501 24.9459C129.793 24.6527 130.268 24.6521 130.561 24.9446L131.034 25.416C131.327 25.7086 131.328 26.1835 131.035 26.4767C130.743 26.77 130.268 26.7705 129.974 26.478L129.502 26.0066C129.209 25.714 129.208 25.2391 129.501 24.9459ZM75.9916 25.7859C76.3954 25.8783 76.6478 26.2806 76.5553 26.6843C76.5063 26.8983 76.4803 27.1212 76.4803 27.3506V28.1278C76.4803 28.542 76.1446 28.8778 75.7303 28.8778C75.3161 28.8778 74.9803 28.542 74.9803 28.1278V27.3506C74.9803 27.0074 75.0193 26.6723 75.0932 26.3496C75.1856 25.9458 75.5878 25.6934 75.9916 25.7859ZM132.336 27.7745C132.629 27.4812 133.103 27.4806 133.397 27.7732L134.342 28.716C134.635 29.0086 134.636 29.4835 134.343 29.7767C134.051 30.07 133.576 30.0705 133.282 29.778L132.337 28.8351C132.044 28.5426 132.043 28.0677 132.336 27.7745ZM135.644 31.0745C135.937 30.7812 136.411 30.7806 136.705 31.0732L137.65 32.016C137.943 32.3086 137.944 32.7835 137.651 33.0767C137.359 33.37 136.884 33.3705 136.59 33.078L135.645 32.1351C135.352 31.8426 135.351 31.3677 135.644 31.0745ZM75.7303 31.2636C76.1446 31.2636 76.4803 31.5994 76.4803 32.0136V33.5679C76.4803 33.9822 76.1446 34.3179 75.7303 34.3179C75.3161 34.3179 74.9803 33.9822 74.9803 33.5679V32.0136C74.9803 31.5994 75.3161 31.2636 75.7303 31.2636ZM138.952 34.3745C139.245 34.0812 139.719 34.0806 140.013 34.3732L140.485 34.8446C140.626 34.9853 140.706 35.1764 140.706 35.3756V36.1243C140.706 36.5386 140.37 36.8743 139.956 36.8743C139.541 36.8743 139.206 36.5386 139.206 36.1243V35.6868L138.953 35.4351C138.66 35.1426 138.659 34.6677 138.952 34.3745ZM75.7303 36.7038C76.1446 36.7038 76.4803 37.0396 76.4803 37.4538V39.0081C76.4803 39.4223 76.1446 39.7581 75.7303 39.7581C75.3161 39.7581 74.9803 39.4223 74.9803 39.0081V37.4538C74.9803 37.0396 75.3161 36.7038 75.7303 36.7038ZM139.956 39.1182C140.37 39.1182 140.706 39.4539 140.706 39.8682V41.3657C140.706 41.7799 140.37 42.1157 139.956 42.1157C139.541 42.1157 139.206 41.7799 139.206 41.3657V39.8682C139.206 39.4539 139.541 39.1182 139.956 39.1182ZM75.7303 42.1439C76.1446 42.1439 76.4803 42.4797 76.4803 42.8939V44.4483C76.4803 44.8625 76.1446 45.1983 75.7303 45.1983C75.3161 45.1983 74.9803 44.8625 74.9803 44.4483V42.8939C74.9803 42.4797 75.3161 42.1439 75.7303 42.1439ZM139.956 44.3595C140.37 44.3595 140.706 44.6953 140.706 45.1095V46.607C140.706 47.0213 140.37 47.357 139.956 47.357C139.541 47.357 139.206 47.0213 139.206 46.607V45.1095C139.206 44.6953 139.541 44.3595 139.956 44.3595ZM75.7303 47.5841C76.1446 47.5841 76.4803 47.9199 76.4803 48.3341V49.8885C76.4803 50.3027 76.1446 50.6385 75.7303 50.6385C75.3161 50.6385 74.9803 50.3027 74.9803 49.8885V48.3341C74.9803 47.9199 75.3161 47.5841 75.7303 47.5841ZM139.956 49.6008C140.37 49.6008 140.706 49.9366 140.706 50.3508V51.8484C140.706 52.2626 140.37 52.5984 139.956 52.5984C139.541 52.5984 139.206 52.2626 139.206 51.8484V50.3508C139.206 49.9366 139.541 49.6008 139.956 49.6008ZM75.7303 53.0243C76.1446 53.0243 76.4803 53.3601 76.4803 53.7743V55.3287C76.4803 55.7429 76.1446 56.0787 75.7303 56.0787C75.3161 56.0787 74.9803 55.7429 74.9803 55.3287V53.7743C74.9803 53.3601 75.3161 53.0243 75.7303 53.0243ZM139.956 54.8422C140.37 54.8422 140.706 55.178 140.706 55.5922V57.0897C140.706 57.504 140.37 57.8397 139.956 57.8397C139.541 57.8397 139.206 57.504 139.206 57.0897V55.5922C139.206 55.178 139.541 54.8422 139.956 54.8422ZM75.7303 58.4645C76.1446 58.4645 76.4803 58.8003 76.4803 59.2145V60.7688C76.4803 61.183 76.1446 61.5188 75.7303 61.5188C75.3161 61.5188 74.9803 61.183 74.9803 60.7688V59.2145C74.9803 58.8003 75.3161 58.4645 75.7303 58.4645ZM139.956 60.0835C140.37 60.0835 140.706 60.4193 140.706 60.8335V62.3311C140.706 62.7453 140.37 63.0811 139.956 63.0811C139.541 63.0811 139.206 62.7453 139.206 62.3311V60.8335C139.206 60.4193 139.541 60.0835 139.956 60.0835ZM75.7303 63.9047C76.1446 63.9047 76.4803 64.2405 76.4803 64.6547V66.209C76.4803 66.6232 76.1446 66.959 75.7303 66.959C75.3161 66.959 74.9803 66.6232 74.9803 66.209V64.6547C74.9803 64.2405 75.3161 63.9047 75.7303 63.9047ZM139.956 65.3249C140.37 65.3249 140.706 65.6607 140.706 66.0749V67.5724C140.706 67.9867 140.37 68.3224 139.956 68.3224C139.541 68.3224 139.206 67.9867 139.206 67.5724V66.0749C139.206 65.6607 139.541 65.3249 139.956 65.3249ZM75.7303 69.3448C76.1446 69.3448 76.4803 69.6806 76.4803 70.0948V71.6492C76.4803 72.0634 76.1446 72.3992 75.7303 72.3992C75.3161 72.3992 74.9803 72.0634 74.9803 71.6492V70.0948C74.9803 69.6806 75.3161 69.3448 75.7303 69.3448ZM139.956 70.5662C140.37 70.5662 140.706 70.902 140.706 71.3162V72.8138C140.706 73.228 140.37 73.5638 139.956 73.5638C139.541 73.5638 139.206 73.228 139.206 72.8138V71.3162C139.206 70.902 139.541 70.5662 139.956 70.5662ZM75.7303 74.785C76.1446 74.785 76.4803 75.1208 76.4803 75.535V77.0894C76.4803 77.5036 76.1446 77.8394 75.7303 77.8394C75.3161 77.8394 74.9803 77.5036 74.9803 77.0894V75.535C74.9803 75.1208 75.3161 74.785 75.7303 74.785ZM139.956 75.8076C140.37 75.8076 140.706 76.1434 140.706 76.5576V78.0551C140.706 78.4693 140.37 78.8051 139.956 78.8051C139.541 78.8051 139.206 78.4693 139.206 78.0551V76.5576C139.206 76.1434 139.541 75.8076 139.956 75.8076ZM75.7303 80.2252C76.1446 80.2252 76.4803 80.561 76.4803 80.9752V82.5295C76.4803 82.9438 76.1446 83.2795 75.7303 83.2795C75.3161 83.2795 74.9803 82.9438 74.9803 82.5295V80.9752C74.9803 80.561 75.3161 80.2252 75.7303 80.2252ZM139.956 81.0489C140.37 81.0489 140.706 81.3847 140.706 81.7989V83.2965C140.706 83.7107 140.37 84.0465 139.956 84.0465C139.541 84.0465 139.206 83.7107 139.206 83.2965V81.7989C139.206 81.3847 139.541 81.0489 139.956 81.0489ZM75.7303 85.6654C76.1446 85.6654 76.4803 86.0012 76.4803 86.4154V87.9697C76.4803 88.3839 76.1446 88.7197 75.7303 88.7197C75.3161 88.7197 74.9803 88.3839 74.9803 87.9697V86.4154C74.9803 86.0012 75.3161 85.6654 75.7303 85.6654ZM139.956 86.2903C140.37 86.2903 140.706 86.6261 140.706 87.0403V88.5378C140.706 88.952 140.37 89.2878 139.956 89.2878C139.541 89.2878 139.206 88.952 139.206 88.5378V87.0403C139.206 86.6261 139.541 86.2903 139.956 86.2903ZM75.7303 91.1056C76.1446 91.1056 76.4803 91.4413 76.4803 91.8556V93.4099C76.4803 93.8241 76.1446 94.1599 75.7303 94.1599C75.3161 94.1599 74.9803 93.8241 74.9803 93.4099V91.8556C74.9803 91.4413 75.3161 91.1056 75.7303 91.1056ZM139.956 91.5316C140.37 91.5316 140.706 91.8674 140.706 92.2816V93.7792C140.706 94.1934 140.37 94.5292 139.956 94.5292C139.541 94.5292 139.206 94.1934 139.206 93.7792V92.2816C139.206 91.8674 139.541 91.5316 139.956 91.5316ZM75.7303 96.5457C76.1446 96.5457 76.4803 96.8815 76.4803 97.2957V98.8501C76.4803 99.2643 76.1446 99.6001 75.7303 99.6001C75.3161 99.6001 74.9803 99.2643 74.9803 98.8501V97.2957C74.9803 96.8815 75.3161 96.5457 75.7303 96.5457ZM139.956 96.773C140.37 96.773 140.706 97.1088 140.706 97.523V99.0205C140.706 99.4347 140.37 99.7705 139.956 99.7705C139.541 99.7705 139.206 99.4347 139.206 99.0205V97.523C139.206 97.1088 139.541 96.773 139.956 96.773ZM75.7303 101.986C76.1446 101.986 76.4803 102.322 76.4803 102.736V103.513C76.4803 103.742 76.5063 103.965 76.5553 104.179C76.6478 104.583 76.3954 104.985 75.9916 105.078C75.5878 105.17 75.1856 104.918 75.0932 104.514C75.0193 104.191 74.9803 103.856 74.9803 103.513V102.736C74.9803 102.322 75.3161 101.986 75.7303 101.986ZM139.956 102.014C140.37 102.014 140.706 102.35 140.706 102.764V103.513C140.706 103.856 140.667 104.191 140.593 104.514C140.5 104.918 140.098 105.17 139.694 105.078C139.291 104.985 139.038 104.583 139.131 104.179C139.18 103.965 139.206 103.742 139.206 103.513V102.764C139.206 102.35 139.541 102.014 139.956 102.014ZM77.9107 107.001C78.0035 106.597 78.406 106.345 78.8097 106.438C79.0234 106.487 79.2461 106.513 79.4753 106.513H80.2121C80.6263 106.513 80.9621 106.849 80.9621 107.263C80.9621 107.677 80.6263 108.013 80.2121 108.013H79.4753C79.1319 108.013 78.7965 107.974 78.4737 107.9C78.07 107.807 77.818 107.404 77.9107 107.001ZM137.775 107.001C137.868 107.404 137.616 107.807 137.212 107.9C136.889 107.974 136.554 108.013 136.211 108.013H135.474C135.06 108.013 134.724 107.677 134.724 107.263C134.724 106.849 135.06 106.513 135.474 106.513H136.211C136.44 106.513 136.663 106.487 136.876 106.438C137.28 106.345 137.682 106.597 137.775 107.001ZM83.1462 107.263C83.1462 106.849 83.482 106.513 83.8962 106.513H85.3699C85.7841 106.513 86.1199 106.849 86.1199 107.263C86.1199 107.677 85.7841 108.013 85.3699 108.013H83.8962C83.482 108.013 83.1462 107.677 83.1462 107.263ZM88.304 107.263C88.304 106.849 88.6397 106.513 89.054 106.513H90.5276C90.9418 106.513 91.2776 106.849 91.2776 107.263C91.2776 107.677 90.9418 108.013 90.5276 108.013H89.054C88.6397 108.013 88.304 107.677 88.304 107.263ZM93.4617 107.263C93.4617 106.849 93.7975 106.513 94.2117 106.513H95.6854C96.0996 106.513 96.4354 106.849 96.4354 107.263C96.4354 107.677 96.0996 108.013 95.6854 108.013H94.2117C93.7975 108.013 93.4617 107.677 93.4617 107.263ZM98.6195 107.263C98.6195 106.849 98.9553 106.513 99.3695 106.513H100.843C101.257 106.513 101.593 106.849 101.593 107.263C101.593 107.677 101.257 108.013 100.843 108.013H99.3695C98.9553 108.013 98.6195 107.677 98.6195 107.263ZM103.777 107.263C103.777 106.849 104.113 106.513 104.527 106.513H106.001C106.415 106.513 106.751 106.849 106.751 107.263C106.751 107.677 106.415 108.013 106.001 108.013H104.527C104.113 108.013 103.777 107.677 103.777 107.263ZM108.935 107.263C108.935 106.849 109.271 106.513 109.685 106.513H111.159C111.573 106.513 111.909 106.849 111.909 107.263C111.909 107.677 111.573 108.013 111.159 108.013H109.685C109.271 108.013 108.935 107.677 108.935 107.263ZM114.093 107.263C114.093 106.849 114.429 106.513 114.843 106.513H116.316C116.731 106.513 117.066 106.849 117.066 107.263C117.066 107.677 116.731 108.013 116.316 108.013H114.843C114.429 108.013 114.093 107.677 114.093 107.263ZM119.251 107.263C119.251 106.849 119.586 106.513 120.001 106.513H121.474C121.888 106.513 122.224 106.849 122.224 107.263C122.224 107.677 121.888 108.013 121.474 108.013H120.001C119.586 108.013 119.251 107.677 119.251 107.263ZM124.408 107.263C124.408 106.849 124.744 106.513 125.158 106.513H126.632C127.046 106.513 127.382 106.849 127.382 107.263C127.382 107.677 127.046 108.013 126.632 108.013H125.158C124.744 108.013 124.408 107.677 124.408 107.263ZM129.566 107.263C129.566 106.849 129.902 106.513 130.316 106.513H131.79C132.204 106.513 132.54 106.849 132.54 107.263C132.54 107.677 132.204 108.013 131.79 108.013H130.316C129.902 108.013 129.566 107.677 129.566 107.263Z" fill="#999999"/>
<path fill-rule="evenodd" clip-rule="evenodd" d="M128.196 22.8506C128.611 22.8506 128.946 23.1864 128.946 23.6006V24.3506C128.946 24.7648 128.611 25.1006 128.196 25.1006C127.782 25.1006 127.446 24.7648 127.446 24.3506V23.6006C127.446 23.1864 127.782 22.8506 128.196 22.8506Z" fill="#999999"/>
<path fill-rule="evenodd" clip-rule="evenodd" d="M128.196 27.6133C128.611 27.6133 128.946 27.9491 128.946 28.3633V28.9686C128.946 29.3829 128.611 29.7186 128.196 29.7186C127.782 29.7186 127.446 29.3829 127.446 28.9686V28.3633C127.446 27.9491 127.782 27.6133 128.196 27.6133ZM128.196 31.2454C128.611 31.2454 128.946 31.5812 128.946 31.9954V32.6008C128.946 32.7576 128.964 32.909 128.996 33.0537C129.087 33.4578 128.834 33.8592 128.43 33.9502C128.026 34.0412 127.624 33.7875 127.533 33.3834C127.476 33.131 127.446 32.869 127.446 32.6008V31.9954C127.446 31.5812 127.782 31.2454 128.196 31.2454ZM129.618 35.1417C129.71 34.7377 130.111 34.4843 130.515 34.5757C130.66 34.6083 130.811 34.6258 130.968 34.6258H131.856C132.27 34.6258 132.606 34.9616 132.606 35.3758C132.606 35.79 132.27 36.1258 131.856 36.1258H130.968C130.699 36.1258 130.437 36.0958 130.184 36.0387C129.78 35.9473 129.527 35.5457 129.618 35.1417ZM135.546 35.3758C135.546 34.9616 135.882 34.6258 136.296 34.6258H137.184C137.598 34.6258 137.934 34.9616 137.934 35.3758C137.934 35.79 137.598 36.1258 137.184 36.1258H136.296C135.882 36.1258 135.546 35.79 135.546 35.3758Z" fill="#999999"/>
<path fill-rule="evenodd" clip-rule="evenodd" d="M138.419 35.375C138.419 34.9608 138.755 34.625 139.169 34.625H139.918C140.332 34.625 140.668 34.9608 140.668 35.375C140.668 35.7892 140.332 36.125 139.918 36.125H139.169C138.755 36.125 138.419 35.7892 138.419 35.375Z" fill="#999999"/>
<path d="M29.4807 121.85L30.342 48.5004C30.3795 45.6129 32.4017 43.2879 34.7985 43.4004L117.374 47.7129C119.096 47.7879 120.445 49.2504 120.445 51.0129V118.325L29.4807 121.85Z" fill="#FFBE5C"/>
<path d="M84.5683 54.4256C84.9803 52.1756 87.1523 50.4131 89.3993 50.5256L130.893 52.3631C132.953 52.4381 134.301 54.2381 133.889 56.3756L122.804 117.951C122.429 120.051 120.445 121.813 118.385 121.926L33.3754 125.451C30.8289 125.563 29.1062 123.726 29.5181 121.401L39.7792 61.3631C40.1911 59.0006 42.5504 57.1256 45.0595 57.2381L79.6251 58.4381C82.0218 58.4381 84.5683 54.4256 84.5683 54.4256Z" fill="#FFD493"/>
<path fill-rule="evenodd" clip-rule="evenodd" d="M35.7721 14.375C36.1863 14.375 36.5221 14.7108 36.5221 15.125V19.175C36.5221 19.5892 36.1863 19.925 35.7721 19.925C35.3579 19.925 35.0221 19.5892 35.0221 19.175V15.125C35.0221 14.7108 35.3579 14.375 35.7721 14.375ZM26.5587 23.6006C26.5587 23.1864 26.8945 22.8506 27.3087 22.8506H31.3532C31.7674 22.8506 32.1032 23.1864 32.1032 23.6006C32.1032 24.0148 31.7674 24.3506 31.3532 24.3506H27.3087C26.8945 24.3506 26.5587 24.0148 26.5587 23.6006ZM39.4037 23.6006C39.4037 23.1864 39.7395 22.8506 40.1537 22.8506H44.2356C44.6499 22.8506 44.9856 23.1864 44.9856 23.6006C44.9856 24.0148 44.6499 24.3506 44.2356 24.3506H40.1537C39.7395 24.3506 39.4037 24.0148 39.4037 23.6006ZM35.7721 26.9375C36.1863 26.9375 36.5221 27.2733 36.5221 27.6875V32.075C36.5221 32.4892 36.1863 32.825 35.7721 32.825C35.3579 32.825 35.0221 32.4892 35.0221 32.075V27.6875C35.0221 27.2733 35.3579 26.9375 35.7721 26.9375Z" fill="#999999"/>
<path fill-rule="evenodd" clip-rule="evenodd" d="M132.69 126.688C133.105 126.688 133.44 127.023 133.44 127.438V129.538C133.44 129.952 133.105 130.288 132.69 130.288C132.276 130.288 131.94 129.952 131.94 129.538V127.438C131.94 127.023 132.276 126.688 132.69 126.688ZM127.521 131.825C127.521 131.411 127.857 131.075 128.271 131.075H130.406C130.82 131.075 131.156 131.411 131.156 131.825C131.156 132.239 130.82 132.575 130.406 132.575H128.271C127.857 132.575 127.521 132.239 127.521 131.825ZM134.225 131.825C134.225 131.411 134.561 131.075 134.975 131.075H137.109C137.524 131.075 137.859 131.411 137.859 131.825C137.859 132.239 137.524 132.575 137.109 132.575H134.975C134.561 132.575 134.225 132.239 134.225 131.825ZM132.69 133.212C133.104 133.212 133.44 133.548 133.44 133.962V136.249C133.44 136.664 133.104 136.999 132.69 136.999C132.276 136.999 131.94 136.664 131.94 136.249V133.962C131.94 133.548 132.276 133.212 132.69 133.212Z" fill="#999999"/>
</svg>
