<svg width="680" height="986" viewBox="0 0 680 986" fill="none" xmlns="http://www.w3.org/2000/svg">
    <mask
        id="mask0_23_835"
        style="mask-type:alpha"
        maskUnits="userSpaceOnUse"
        x="0"
        y="0"
        width="680"
        height="986"
    >
        <rect width="680" height="986" fill="#D9D9D9" />
    </mask>
    <g mask="url(#mask0_23_835)">
        <path
            d="M145.6 1007.92C116.311 978.627 116.311 931.139 145.6 901.85L293.449 754.001L350.725 811.276C380.014 840.566 380.014 888.053 350.725 917.342L202.876 1065.19L145.6 1007.92Z"
            fill="#1890FF"
        />
        <path
            d="M578.033 343.657C548.744 314.367 548.744 266.88 578.033 237.591L847.624 -31.9999L915.866 36.2424C945.155 65.5318 945.155 113.019 915.866 142.308L646.275 411.899L578.033 343.657Z"
            fill="#36F1CD"
        />
        <path
            d="M53.033 145.482C23.7437 116.193 23.7437 68.7056 53.033 39.4163L84.2168 8.23255L141.492 65.5082C170.782 94.7975 170.782 142.285 141.492 171.574L110.309 202.758L53.033 145.482Z"
            fill="#FDE615"
        />
    </g>
</svg>
