<svg width="728" height="1032" viewBox="0 0 728 1032" fill="none" xmlns="http://www.w3.org/2000/svg">
<g filter="url(#filter0_d_3006_18425)">
<g clip-path="url(#clip0_3006_18425)">
<rect width="720" height="1024" transform="translate(4)" fill="#7F27FF"/>
<path d="M229.612 -277.499C207.153 -260.547 184.707 -243.605 162.294 -226.618L-33.8566 -75.4044C-44.8017 -67.9605 -54.5299 -58.869 -62.6967 -48.4519C-169.595 102.102 -276.805 252.468 -384.328 402.646C-389.259 408.208 -391.832 415.471 -391.501 422.898C-391.171 430.326 -387.963 437.334 -382.558 442.439C-367.199 461.965 -352.029 482.236 -337.097 502.187C-328.233 514.03 -319.454 525.76 -310.769 537.156C-287.454 567.751 -287.211 567.567 -257.213 544.83C-217.948 515.07 -178.773 485.21 -139.602 455.351L-139.577 455.332L-139.568 455.325C-61.2214 395.605 17.116 335.892 96.1403 277.017C133.682 249.474 166.491 216.005 193.281 177.921C288.102 42.5066 384.369 -91.8395 480.921 -226.146C493.632 -244.313 496.34 -258.209 480.656 -276.886C454.76 -308.199 430.48 -340.737 407.09 -373.949C393.796 -393.673 382.311 -393.374 364.441 -379.83C319.568 -345.395 274.566 -311.429 229.612 -277.499Z" fill="#7116EB"/>
<path d="M458.574 32.5449L458.521 32.5853C435.597 49.8751 412.676 67.1627 389.813 84.4905C383.803 89.0459 377.756 93.5666 371.717 98.081L371.699 98.0946C356.622 109.366 341.598 120.598 327.332 132.229C308.503 147.282 289.079 161.623 269.655 175.963L269.647 175.969C216.377 215.298 163.111 254.624 122.14 308.634C99.1815 338.914 74.0918 367.526 49.0004 396.141C38.1187 408.55 27.2368 420.96 16.5282 433.506C4.89205 447.136 -6.7403 460.771 -18.373 474.406L-18.5557 474.62C-72.458 537.801 -126.374 600.999 -180.712 663.739C-193.966 679.006 -196.057 690.524 -181.845 707.26C-172.365 718.423 -163.694 730.313 -155.041 742.178C-150.721 748.101 -146.406 754.018 -141.997 759.836C-119.907 788.813 -118.931 789.092 -90.2266 767.336L302.909 469.37C312.188 462.686 320.721 455.023 328.361 446.514C383.422 382.268 438.387 317.931 493.35 253.596L493.374 253.568C557.166 178.898 620.957 104.231 684.895 29.7086C687.503 27.3943 689.596 24.5568 691.036 21.3806C692.476 18.2044 693.231 14.7605 693.253 11.2727C693.275 7.78494 692.563 4.33125 691.163 1.13621C689.764 -2.05888 687.707 -4.92391 685.128 -7.27265C669.211 -26.0903 654.313 -45.7467 640.498 -66.1576C626.811 -87.2396 614.358 -85.6971 595.842 -71.6629C550.373 -36.6919 504.466 -2.06731 458.574 32.5449Z" fill="#7116EB"/>
<path d="M234.104 780.039C211.434 797.222 188.739 814.352 166.046 831.481C120.67 865.731 75.3061 899.972 30.1785 934.599C11.6619 948.633 -0.369826 949.22 -14.7232 928.77C-20.9414 919.909 -26.2946 912.767 -30.7293 906.85C-41.145 892.955 -46.4938 885.819 -46.083 879.033C-45.6495 871.871 -38.7979 865.099 -24.7137 851.178C-20.09 846.608 -14.6861 841.267 -8.47464 834.889C106.41 716.148 221.308 597.481 336.22 478.889C343.667 471.462 351.679 464.624 360.183 458.435L759.625 155.689C774.779 144.203 782.479 138.367 789.31 139.253C796.366 140.167 802.494 148.254 814.954 164.693C816.871 167.223 818.682 169.6 820.385 171.837C835.957 192.286 842.634 201.054 841.523 208.685C840.69 214.411 835.472 219.497 826.337 228.4C822.714 231.932 818.474 236.064 813.648 241.075C798.268 257.07 782.897 273.073 767.526 289.075L767.517 289.085C664.208 396.64 560.895 504.199 454.973 609.2C416.109 647.673 371.541 679.631 326.965 711.595C303.549 728.385 280.131 745.177 257.537 762.916C249.529 768.476 241.786 774.217 234.104 780.039Z" fill="#7116EB"/>
<path d="M123.466 1057.34L348.496 886.787C374.019 866.227 401.681 845.464 430.347 823.946C491.795 777.823 557.858 728.235 617.364 669.761C690.187 599.322 764.37 529.721 838.538 460.133C872.176 428.573 905.81 397.016 939.313 365.385L940.092 364.625C945.607 359.253 950.952 354.045 949.355 345.039C943.295 311.681 911.506 298.461 884.904 318.624C842.144 351.032 799.417 383.501 756.687 415.972L756.623 416.021C671.138 480.981 585.641 545.951 499.854 610.462C472.884 631.658 447.068 654.285 422.519 678.244C365.235 732.168 308.027 786.193 250.819 840.217L250.714 840.316C193.541 894.308 136.369 948.299 79.1192 1002.19C57.5902 1022.33 58.4093 1023.74 80.3032 1054.14C95.083 1074.65 107.294 1069.6 123.466 1057.34Z" fill="#7116EB"/>
<path d="M417.32 981.458L192.371 1151.95C177.897 1162.92 166.299 1168.78 152.848 1150.2C143.463 1136.81 143.455 1127.39 156.122 1116.39C208.325 1070.71 260.283 1024.71 312.057 978.462C339.147 954.538 366.215 930.604 393.28 906.671L393.367 906.594C446.578 859.542 499.779 812.499 553.122 765.571C567.688 752.875 583.071 741.089 598.454 729.303L981.078 439.304C998.22 426.311 1011.46 420.097 1026.23 443.284C1037.12 460.503 1027.79 469.358 1017.04 479.031C992.416 500.942 967.642 522.735 942.856 544.538C930.681 555.248 918.503 565.96 906.338 576.69C880.472 599.57 854.773 622.672 829.07 645.777L829.054 645.791C769.792 699.064 710.508 752.357 649.087 802.995C597.148 845.971 542.924 886.173 488.664 926.402L488.65 926.412C464.447 944.357 440.237 962.306 416.219 980.51L417.32 981.458Z" fill="#7116EB"/>
<path d="M248.618 1228.01L510.601 1029.45C609.459 961.087 716.259 871.136 826.908 777.945L826.921 777.934C864.359 746.402 902.238 714.5 940.399 682.937C974.886 654.237 1009.01 625.152 1043.1 596.101C1056.47 584.709 1069.84 573.317 1083.21 561.962L1084.08 561.22L1084.59 560.795C1093.71 553.082 1103 545.235 1092.55 531.451C1080.98 515.514 1070.06 523.788 1059.15 532.061L1048.64 540.028C1024.01 558.638 999.362 577.223 974.716 595.807C770.51 749.782 566.331 903.736 373.735 1072.44C340.356 1101.37 306.42 1129.73 272.485 1158.08L272.451 1158.11C256.486 1171.45 240.522 1184.79 224.617 1198.19C213.079 1207.83 202.494 1217.38 216.902 1232.69C228.131 1244.57 236.931 1237.43 245.13 1230.78C246.303 1229.83 247.464 1228.89 248.618 1228.01Z" fill="#7116EB"/>
<path d="M847.95 810.059L1123.11 601.507C1128.77 597.218 1137.17 593.016 1144.1 601.141C1151.02 609.266 1146.45 617.691 1139.34 623.592C1110.8 647.745 1081.94 671.642 1053.15 695.477L1053.13 695.491L1052.21 696.253C807.9 897.976 559.422 1094.2 304.528 1282.29C302.236 1284.03 299.823 1286.37 297.307 1288.81C287.843 1297.99 276.93 1308.57 265.582 1293.73C254.836 1279.55 267.993 1270.45 279.145 1262.74C281.672 1260.99 284.095 1259.31 286.115 1257.66C323.178 1227.29 360.537 1197.29 397.895 1167.29C458.613 1118.52 519.328 1069.76 578.758 1019.43C635.804 971.647 694.993 926.877 750.36 884.997C784.852 858.907 817.865 833.937 847.95 810.059Z" fill="#7116EB"/>
<path d="M1150.2 675.216L737.823 987.767C716.371 1004.03 694.917 1020.28 673.465 1036.53C555.436 1125.96 437.438 1215.36 319.807 1305.48C317.634 1307.13 314.928 1308.72 312.115 1310.38C300.905 1316.99 287.985 1324.6 300.203 1340.59C312.363 1356.5 323.101 1346.08 332.44 1337.02C334.839 1334.69 337.146 1332.46 339.361 1330.78L1172.21 699.545C1178.51 694.765 1184.84 689.843 1190.64 684.557C1192.26 683.387 1193.6 681.881 1194.59 680.142C1195.57 678.404 1196.17 676.474 1196.34 674.483C1196.51 672.493 1196.25 670.489 1195.58 668.608C1194.9 666.727 1193.83 665.013 1192.44 663.582C1191.4 661.873 1190 660.407 1188.35 659.281C1186.7 658.156 1184.82 657.397 1182.85 657.056C1180.88 656.716 1178.86 656.802 1176.92 657.308C1174.99 657.814 1173.19 658.729 1171.64 659.99C1164.19 664.614 1157.16 669.945 1150.2 675.216Z" fill="#7116EB"/>
</g>
</g>
<defs>
<filter id="filter0_d_3006_18425" x="0" y="0" width="728" height="1032" filterUnits="userSpaceOnUse" color-interpolation-filters="sRGB">
<feFlood flood-opacity="0" result="BackgroundImageFix"/>
<feColorMatrix in="SourceAlpha" type="matrix" values="0 0 0 0 0 0 0 0 0 0 0 0 0 0 0 0 0 0 127 0" result="hardAlpha"/>
<feOffset dy="4"/>
<feGaussianBlur stdDeviation="2"/>
<feComposite in2="hardAlpha" operator="out"/>
<feColorMatrix type="matrix" values="0 0 0 0 0 0 0 0 0 0 0 0 0 0 0 0 0 0 0.25 0"/>
<feBlend mode="normal" in2="BackgroundImageFix" result="effect1_dropShadow_3006_18425"/>
<feBlend mode="normal" in="SourceGraphic" in2="effect1_dropShadow_3006_18425" result="shape"/>
</filter>
<clipPath id="clip0_3006_18425">
<rect width="720" height="1024" fill="white" transform="translate(4)"/>
</clipPath>
</defs>
</svg>
