<svg width="164" height="153" viewBox="0 0 164 153" fill="none" xmlns="http://www.w3.org/2000/svg">
<circle cx="91.8931" cy="58.2881" r="46.1768" fill="#FF9F29" stroke="#DD5202"/>
<path fill-rule="evenodd" clip-rule="evenodd" d="M104.793 52.3504C105.703 50.5318 106.134 48.2824 106.134 45.5544C106.134 43.4007 105.799 41.3906 105.08 39.4283C104.361 37.5618 103.355 35.8867 101.965 34.4988C100.576 33.1109 98.8027 32.0101 96.5985 31.1965C94.3943 30.3829 91.8067 30 88.7879 30C85.769 30 83.3731 30.2872 81.5522 30.9093C79.7313 31.5315 78.198 32.2015 77 32.8237V38.7105C77.9104 38.1361 79.2522 37.514 81.0251 36.8439C82.7981 36.2218 85.1461 35.8867 88.117 35.8867C90.5129 35.8867 92.4296 36.126 93.9151 36.7003C95.4006 37.2268 96.5506 37.9926 97.3652 38.854C98.1798 39.7155 98.7069 40.7206 98.9944 41.8692C99.2819 43.0178 99.4257 44.2143 99.4257 45.4108C99.4257 47.5166 98.9944 49.2396 98.1798 50.5796C97.3652 51.9197 96.311 53.0683 95.0172 54.0255C93.7234 54.9827 92.3338 55.8442 90.8963 56.6099C89.4108 57.4236 88.0691 58.285 86.7753 59.3379C85.4815 60.3909 84.4273 61.6352 83.6127 63.1667C82.7981 64.6982 82.3668 66.6605 82.3668 69.0534V70.3457H88.0212V69.0056C88.0212 67.5698 88.4524 66.3255 89.3629 65.3204C90.2733 64.3153 91.3754 63.3582 92.7171 62.5445C94.0588 61.6831 95.4964 60.8695 97.0777 60.008C98.659 59.1944 100.097 58.1415 101.438 56.8971C102.78 55.7006 103.882 54.1691 104.793 52.3504ZM82.0793 83.8899C82.9419 84.7993 84.0919 85.23 85.4336 85.23C86.7753 85.23 87.9254 84.7993 88.7879 83.8899C89.6983 82.9806 90.1296 81.8798 90.1296 80.5876C90.1296 79.2954 89.6504 78.1946 88.7879 77.2853C87.9254 76.376 86.7753 75.9452 85.4336 75.9452C84.0919 75.9452 82.9419 76.376 82.0793 77.2853C81.1689 78.1946 80.7376 79.2954 80.7376 80.5876C80.7376 81.9277 81.2168 83.0285 82.0793 83.8899Z" fill="white"/>
<mask id="path-3-inside-1_1038_21437" fill="white">
<path d="M143.995 58.3934C143.995 65.2853 142.626 72.1087 139.968 78.4674C137.31 84.8262 133.416 90.5938 128.511 95.4355C123.606 100.277 117.788 104.097 111.396 106.672C105.003 109.248 98.1627 110.528 91.2713 110.439C84.3799 110.349 77.5749 108.892 71.2511 106.152C64.9272 103.412 59.2106 99.4435 54.4328 94.4764C49.655 89.5093 45.9112 83.6429 43.4187 77.2174C40.9262 70.792 39.7345 63.9355 39.913 57.0459L41.0555 57.0755C40.881 63.8138 42.0465 70.5197 44.4843 76.8041C46.922 83.0884 50.5836 88.8261 55.2565 93.6841C59.9294 98.542 65.5205 102.424 71.7055 105.104C77.8904 107.784 84.5461 109.208 91.2861 109.296C98.0262 109.383 104.716 108.131 110.969 105.612C117.221 103.093 122.911 99.3574 127.708 94.6221C132.505 89.8867 136.314 84.2458 138.913 78.0266C141.513 71.8075 142.852 65.134 142.852 58.3934H143.995Z"/>
</mask>
<path d="M143.995 58.3934C143.995 65.2853 142.626 72.1087 139.968 78.4674C137.31 84.8262 133.416 90.5938 128.511 95.4355C123.606 100.277 117.788 104.097 111.396 106.672C105.003 109.248 98.1627 110.528 91.2713 110.439C84.3799 110.349 77.5749 108.892 71.2511 106.152C64.9272 103.412 59.2106 99.4435 54.4328 94.4764C49.655 89.5093 45.9112 83.6429 43.4187 77.2174C40.9262 70.792 39.7345 63.9355 39.913 57.0459L41.0555 57.0755C40.881 63.8138 42.0465 70.5197 44.4843 76.8041C46.922 83.0884 50.5836 88.8261 55.2565 93.6841C59.9294 98.542 65.5205 102.424 71.7055 105.104C77.8904 107.784 84.5461 109.208 91.2861 109.296C98.0262 109.383 104.716 108.131 110.969 105.612C117.221 103.093 122.911 99.3574 127.708 94.6221C132.505 89.8867 136.314 84.2458 138.913 78.0266C141.513 71.8075 142.852 65.134 142.852 58.3934H143.995Z" fill="#DB2352" stroke="#DD5202" stroke-width="2" mask="url(#path-3-inside-1_1038_21437)"/>
<path d="M42.5816 40.2605C40.7815 39.722 40.141 39.0557 39.5593 37.2383C39.0699 38.8857 38.4582 39.5812 36.5371 40.2605C38.4838 41.0323 39.0883 41.7189 39.5593 43.2828C40.1401 41.6687 40.8039 40.991 42.5816 40.2605Z" stroke="#DD5202"/>
<path d="M134.334 18.7664C132.534 18.2279 131.893 17.5616 131.312 15.7441C130.822 17.3916 130.21 18.0871 128.289 18.7664C130.236 19.5381 130.84 20.2248 131.312 21.7886C131.892 20.1746 132.556 19.4969 134.334 18.7664Z" stroke="#DD5202"/>
<mask id="path-6-inside-2_1038_21437" fill="white">
<path d="M46.9833 26.6858C52.1786 19.4524 59.143 13.6731 67.2102 9.90058C75.2775 6.12808 84.1778 4.4886 93.0597 5.13898L92.9763 6.27888C84.2893 5.64278 75.5845 7.24626 67.6944 10.9359C59.8043 14.6256 52.9928 20.278 47.9116 27.3525L46.9833 26.6858Z"/>
</mask>
<path d="M46.9833 26.6858C52.1786 19.4524 59.143 13.6731 67.2102 9.90058C75.2775 6.12808 84.1778 4.4886 93.0597 5.13898L92.9763 6.27888C84.2893 5.64278 75.5845 7.24626 67.6944 10.9359C59.8043 14.6256 52.9928 20.278 47.9116 27.3525L46.9833 26.6858Z" fill="#DB2352" stroke="#DD5202" stroke-width="2" mask="url(#path-6-inside-2_1038_21437)"/>
<path opacity="0.4" d="M5.54004 111.217L61.3352 96.752L129.529 127.749L117.13 130.229L110.104 134.362L98.5319 140.975L5.54004 111.217Z" fill="#151515"/>
<path opacity="0.4" d="M142.755 148.001L110.104 134.776L125.396 126.51L158.047 138.082L142.755 148.001Z" fill="#151515"/>
<path d="M53.069 99.6453L31.1643 106.671C29.5111 98.0747 33.5067 93.9969 35.711 93.4458L41.9104 91.3793L50.1764 90.5527L53.069 99.6453Z" fill="#B5A5DD"/>
<path d="M124.156 111.631L65.8816 91.793L36.5375 101.712V113.698L101.425 133.123L124.156 121.55V111.631Z" fill="#7F27FF"/>
<path d="M124.156 121.552V111.633L101.425 121.552L36.5375 102.127V113.699L101.425 133.124L124.156 121.552Z" fill="#381E7E"/>
<path d="M124.156 111.631L65.8816 91.793L36.5375 101.712M124.156 111.631L101.425 121.55L36.5375 101.712M124.156 111.631V121.55L101.425 133.123L36.5375 113.698V101.712" stroke="#151515"/>
<path d="M122.09 117.416L104.318 125.682" stroke="#151515"/>
<path d="M101.425 121.549V133.121" stroke="#151515"/>
<path d="M156.526 135.735L126.65 125.011C126.379 124.913 126.078 124.938 125.826 125.078L113.225 132.078C112.482 132.491 112.561 133.585 113.356 133.887L143.529 145.345C143.822 145.457 144.151 145.424 144.416 145.257L156.72 137.523C157.427 137.079 157.311 136.017 156.526 135.735Z" fill="#7F27FF" stroke="#151515"/>
<path d="M67.1214 93.8594L83.6533 99.6455L63.8151 107.911L43.9768 101.712L67.1214 93.8594Z" fill="#F5F1FF" stroke="#151515"/>
<path d="M90.2659 102.128L85.3063 100.475L80.3467 102.541L85.3063 104.194L90.2659 102.128Z" fill="#151515"/>
<path d="M85.3063 99.2324L90.2659 100.886V101.712L85.3063 103.779L80.3467 102.126V101.299L85.3063 99.2324Z" fill="#EE4266"/>
<path d="M85.3063 102.953L90.2659 100.887V101.713L85.3063 103.78L80.3467 102.127V101.3L85.3063 102.953Z" fill="#9B1640"/>
<path d="M84.4795 104.606L79.9332 102.953L73.7338 105.846L78.28 107.499L84.4795 104.606Z" fill="#151515"/>
<path d="M77.4539 107.911L72.9076 106.258L66.2948 109.151L70.8411 110.391L77.4539 107.911Z" fill="#151515"/>
<path d="M84.0667 104.19V103.363L79.9337 102.123L74.1475 104.603V105.429L77.8672 106.669L84.0667 104.19Z" fill="#C0C0C0"/>
<path d="M77.8672 105.845L84.0667 103.365V104.192L77.8672 106.672L74.1475 105.432V104.605L77.8672 105.845Z" fill="#666666"/>
<path d="M76.6272 107.498V106.672L72.9075 105.432L66.2948 107.911V108.738L70.4277 109.978L76.6272 107.498Z" fill="#6AFAD7"/>
<path d="M70.4277 109.154L76.6272 106.674V107.5L70.4277 109.98L66.2948 108.74V107.914L70.4277 109.154Z" fill="#311383"/>
<path d="M41.9103 93.4445C44.5554 94.7671 45.4922 97.853 45.63 99.2307L60.922 94.271C60.5914 90.634 56.3758 88.4852 53.896 88.8982C52.2427 89.1737 42.8195 90.634 36.5374 92.6178C30.2553 94.6017 30.3381 102.951 31.1647 106.67C29.0982 93.0315 38.6039 91.7913 41.9103 93.4445Z" fill="#E3D9FF"/>
<path d="M46.4565 96.34L59.2688 92.207" stroke="#DB2352" stroke-width="0.5" stroke-linecap="round"/>
<path d="M44.8035 93.8591L56.3758 90.5527" stroke="#DB2352" stroke-width="0.5" stroke-linecap="round"/>
<path d="M42.7371 91.7903L53.8961 89.3105" stroke="#DB2352" stroke-width="0.5" stroke-linecap="round"/>
<ellipse cx="134.489" cy="133.949" rx="5.78616" ry="2.47978" fill="#6AFAD7"/>
</svg>
