<svg width="810" height="124" viewBox="0 0 810 124" fill="none" xmlns="http://www.w3.org/2000/svg">
<g clip-path="url(#clip0_5001_64026)">
<rect width="810" height="124" fill="#4F11A1"/>
<g opacity="0.2">
<path opacity="0.0144928" d="M741.428 158.538L805.748 42.6722C808.69 37.3722 809.421 31.125 807.781 25.289L753.032 -169.609C751.743 -174.199 749.059 -178.275 745.353 -181.272L610.581 -290.272C603.86 -295.707 594.659 -296.916 586.762 -293.4L483.795 -247.556C475.898 -244.04 470.639 -236.394 470.182 -227.762L461.004 -54.6724C460.752 -49.9119 461.985 -45.1905 464.533 -41.1613L572.736 129.938C575.976 135.061 581.108 138.698 587.015 140.058L716.159 169.789C726.148 172.089 736.453 167.5 741.428 158.538Z" stroke="url(#paint0_linear_5001_64026)" stroke-width="4"/>
<path opacity="0.0289855" d="M719.451 164.794L789.373 53.4447C792.602 48.3035 793.667 42.0944 792.336 36.1713L748.389 -159.42C747.341 -164.085 744.865 -168.308 741.305 -171.501L613.459 -286.16C607.033 -291.923 597.92 -293.603 589.86 -290.509L485.329 -250.384C477.27 -247.29 471.622 -239.944 470.703 -231.36L452.416 -60.6067C451.907 -55.8522 452.892 -51.0573 455.235 -46.8889L553.453 127.87C556.427 133.162 561.373 137.064 567.213 138.724L693.682 174.685C703.515 177.481 714.014 173.451 719.451 164.794Z" stroke="url(#paint1_linear_5001_64026)" stroke-width="4"/>
<path opacity="0.0434783" d="M697.414 170.355L772.645 63.789C776.151 58.8221 777.548 52.6689 776.53 46.6747L743.307 -149.018C742.504 -153.747 740.243 -158.106 736.841 -161.486L616.141 -281.383C610.025 -287.458 601.024 -289.603 592.825 -286.939L487.044 -252.569C478.845 -249.905 472.824 -242.879 471.447 -234.369L444.273 -66.425C443.506 -61.6904 444.24 -56.8347 446.37 -52.5374L534.517 125.31C537.217 130.757 541.964 134.914 547.72 136.871L671.22 178.866C680.873 182.148 691.535 178.684 697.414 170.355Z" stroke="url(#paint2_linear_5001_64026)" stroke-width="4"/>
<path opacity="0.057971" d="M675.361 175.228L755.591 73.6912C759.366 68.9136 761.092 62.834 760.392 56.7854L737.78 -138.427C737.227 -143.206 735.188 -147.691 731.952 -151.252L618.595 -275.956C612.804 -282.326 603.939 -284.929 595.623 -282.701L488.906 -254.106C480.59 -251.878 474.215 -245.192 472.385 -236.779L436.566 -72.1031C435.544 -67.402 436.021 -62.4985 437.932 -58.0829L515.956 122.282C518.373 127.87 522.908 132.272 528.566 134.522L648.816 182.34C658.264 186.097 669.057 183.205 675.361 175.228Z" stroke="url(#paint3_linear_5001_64026)" stroke-width="4"/>
<path opacity="0.0724638" d="M653.323 179.414L738.232 83.1364C742.266 78.5627 744.318 72.5743 743.938 66.4878L731.796 -127.673C731.495 -132.49 729.686 -137.09 726.626 -140.822L620.782 -269.896C615.33 -276.545 606.625 -279.597 598.215 -277.809L490.875 -254.994C482.465 -253.206 475.754 -246.877 473.478 -238.586L429.284 -77.6198C428.006 -72.9658 428.225 -68.0278 429.909 -63.505L497.789 118.808C499.917 124.523 504.228 129.159 509.773 131.697L626.502 185.115C635.721 189.334 646.616 187.019 653.323 179.414Z" stroke="url(#paint4_linear_5001_64026)" stroke-width="4"/>
<path opacity="0.0869565" d="M631.339 182.925L720.6 92.1132C724.882 87.7574 727.255 81.8775 727.197 75.7701L725.352 -116.784C725.306 -121.626 723.733 -126.329 720.857 -130.224L622.671 -263.23C617.571 -270.137 609.049 -273.629 600.569 -272.286L492.914 -255.236C484.434 -253.892 477.407 -247.937 474.692 -239.792L422.412 -82.9551C420.881 -78.3621 420.839 -73.403 422.291 -68.7843L480.039 114.916C481.871 120.743 485.945 125.601 491.363 128.421L604.318 187.205C613.287 191.872 624.251 190.136 631.339 182.925Z" stroke="url(#paint5_linear_5001_64026)" stroke-width="4"/>
<path opacity="0.101449" d="M609.447 185.777L702.723 100.619C707.241 96.4948 709.929 90.7406 710.194 84.6292L718.444 -105.779C718.655 -110.631 717.323 -115.426 714.641 -119.476L624.232 -255.969C619.497 -263.117 611.179 -267.038 602.653 -266.142L494.989 -254.826C486.462 -253.93 479.142 -248.365 475.997 -240.389L415.942 -88.081C414.16 -83.5624 413.854 -78.5957 415.069 -73.8928L462.727 110.639C464.257 116.562 468.083 121.631 473.359 124.726L582.303 188.63C590.998 193.731 602.002 192.575 609.447 185.777Z" stroke="url(#paint6_linear_5001_64026)" stroke-width="4"/>
<path opacity="0.115942" d="M587.682 187.954L684.627 108.619C689.368 104.738 692.366 99.1268 692.954 93.0283L711.069 -94.7084C711.538 -99.559 710.453 -104.433 707.972 -108.627L625.434 -248.163C621.076 -255.532 612.985 -259.87 604.435 -259.422L497.065 -253.795C488.516 -253.347 480.922 -248.187 477.358 -240.403L409.858 -93.0036C407.829 -88.573 407.259 -83.6124 408.232 -78.8374L445.872 105.977C447.095 111.981 450.662 117.249 455.783 120.612L560.49 189.38C568.891 194.898 579.903 194.32 587.682 187.954Z" stroke="url(#paint7_linear_5001_64026)" stroke-width="4"/>
<path opacity="0.130435" d="M566.077 189.509L666.339 116.143C671.291 112.519 674.59 107.067 675.501 100.998L703.224 -83.5612C703.951 -88.3963 703.117 -93.3371 700.845 -97.6664L626.249 -239.799C622.276 -247.369 614.433 -252.111 605.884 -252.111H499.106C490.557 -252.111 482.713 -247.369 478.74 -239.799L404.144 -97.6664C401.872 -93.3371 401.039 -88.3963 401.765 -83.5613L429.488 100.998C430.4 107.067 433.698 112.519 438.651 116.143L538.913 189.509C547 195.427 557.989 195.427 566.077 189.509Z" stroke="url(#paint8_linear_5001_64026)" stroke-width="4"/>
<path opacity="0.144928" d="M544.664 190.439L647.886 123.169C653.035 119.814 656.627 114.536 657.86 108.515L694.908 -72.3809C695.893 -77.1869 695.314 -82.1818 693.258 -86.6358L626.649 -230.921C623.071 -238.671 615.495 -243.802 606.97 -244.249L501.076 -249.799C492.551 -250.246 484.481 -245.934 480.112 -238.601L398.785 -102.068C396.275 -97.8537 395.178 -92.9467 395.654 -88.0641L413.59 95.7132C414.187 101.831 417.208 107.454 421.979 111.33L517.603 189.02C525.358 195.321 536.293 195.894 544.664 190.439Z" stroke="url(#paint9_linear_5001_64026)" stroke-width="4"/>
<path opacity="0.15942" d="M523.477 190.734L629.297 129.667C634.63 126.59 638.506 121.504 640.058 115.547L686.124 -61.22C687.365 -65.9835 687.046 -71.0196 685.212 -75.588L626.609 -221.584C623.434 -229.494 616.145 -234.999 607.668 -235.89L502.943 -246.897C494.466 -247.788 486.192 -243.918 481.442 -236.841L393.765 -106.22C391.021 -102.133 389.662 -97.2734 389.885 -92.3559L398.193 90.1256C398.473 96.2756 401.206 102.057 405.782 106.175L496.594 187.909C503.998 194.572 514.849 195.713 523.477 190.734Z" stroke="url(#paint10_linear_5001_64026)" stroke-width="4"/>
<path opacity="0.173913" d="M502.55 190.459L610.606 135.68C616.106 132.892 620.256 128.012 622.125 122.135L676.879 -50.059C678.375 -54.7665 678.317 -59.8308 676.712 -64.5024L626.111 -211.771C623.346 -219.819 616.363 -225.683 607.957 -227.014L504.679 -243.371C496.273 -244.703 487.82 -241.284 482.703 -234.484L389.07 -110.06C386.1 -106.113 384.48 -101.315 384.449 -96.3754L383.311 84.3107C383.273 90.477 385.712 96.4007 390.081 100.752L475.92 186.241C482.956 193.248 493.694 194.949 502.55 190.459Z" stroke="url(#paint11_linear_5001_64026)" stroke-width="4"/>
<path opacity="0.188406" d="M481.908 189.613L591.834 141.185C597.486 138.695 601.9 134.036 604.08 128.257L667.17 -38.9447C668.92 -43.5826 669.125 -48.6619 667.754 -53.4256L625.128 -201.534C622.778 -209.699 616.118 -215.903 607.808 -217.67L506.246 -239.257C497.935 -241.024 489.327 -238.065 483.859 -231.561L384.678 -113.595C381.488 -109.801 379.609 -105.078 379.321 -100.129L368.95 78.2783C368.591 84.4446 370.728 90.4959 374.879 95.0699L455.603 184.022C462.255 191.351 472.85 193.603 481.908 189.613Z" stroke="url(#paint12_linear_5001_64026)" stroke-width="4"/>
<path opacity="0.202899" d="M461.583 188.212L573.013 146.178C578.802 143.995 583.467 139.571 585.955 133.906L657.009 -27.9067C659.01 -32.4618 659.479 -37.5426 658.347 -42.387L623.646 -190.908C621.716 -199.168 615.396 -205.696 607.202 -207.891L507.618 -234.575C499.424 -236.77 490.687 -234.277 484.886 -228.089L380.573 -116.816C377.17 -113.187 375.037 -108.552 374.491 -103.607L355.12 72.054C354.442 78.2037 356.27 84.3674 360.191 89.1529L435.676 181.27C441.929 188.901 452.352 191.694 461.583 188.212Z" stroke="url(#paint13_linear_5001_64026)" stroke-width="4"/>
<path opacity="0.217391" d="M441.599 186.285L554.167 150.668C560.075 148.799 564.98 144.624 567.768 139.089L646.398 -16.963C648.644 -21.422 649.379 -26.4909 648.491 -31.4042L621.641 -179.919C620.134 -188.253 614.17 -195.084 606.115 -197.701L508.763 -229.333C500.708 -231.95 491.867 -229.929 485.75 -224.072L376.733 -119.704C373.127 -116.251 370.741 -111.718 369.938 -106.79L341.825 65.676C340.828 71.7928 342.342 78.0531 346.023 83.0387L416.158 178.019C421.999 185.929 432.223 189.251 441.599 186.285Z" stroke="url(#paint14_linear_5001_64026)" stroke-width="4"/>
<path opacity="0.231884" d="M421.982 183.864L535.326 154.666C541.338 153.118 546.469 149.204 549.552 143.816L635.35 -6.13186C637.839 -10.4816 638.839 -15.5252 638.198 -20.4955L619.104 -168.594C618.023 -176.979 612.428 -184.096 604.535 -187.125L509.655 -223.547C501.762 -226.576 492.843 -225.032 486.428 -219.523L373.141 -122.241C369.339 -118.976 366.708 -114.559 365.647 -109.661L329.072 59.1819C327.758 65.2493 328.952 71.5904 332.384 76.764L397.077 174.304C402.494 182.471 412.492 186.309 421.982 183.864Z" stroke="url(#paint15_linear_5001_64026)" stroke-width="4"/>
<path opacity="0.246377" d="M402.756 180.959L516.516 158.162C522.613 156.94 527.956 153.301 531.326 148.074L623.871 4.54924C626.597 0.321661 627.861 -4.68296 627.471 -9.69805L616.017 -156.98C615.363 -165.395 610.152 -172.775 602.441 -176.208L510.266 -217.248C502.555 -220.681 493.584 -219.614 486.892 -214.47L369.776 -124.431C365.788 -121.365 362.915 -117.077 361.598 -112.222L316.862 52.5885C315.233 58.5902 316.104 64.9958 319.276 70.3449L378.454 170.139C383.435 178.54 393.18 182.879 402.756 180.959Z" stroke="url(#paint16_linear_5001_64026)" stroke-width="4"/>
<path opacity="0.26087" d="M383.941 177.604L497.76 161.167C503.926 160.277 509.466 156.923 513.115 151.874L611.971 15.063C614.928 10.9703 616.457 6.01808 616.32 0.970585L612.369 -145.106C612.141 -153.528 607.327 -161.152 599.819 -164.977L510.568 -210.453C503.061 -214.278 494.063 -213.692 487.115 -208.926L366.615 -126.26C362.451 -123.404 359.343 -119.257 357.77 -114.459L305.194 45.9329C303.253 51.8526 303.797 58.3064 306.701 63.818L360.305 165.56C364.842 174.172 374.308 178.995 383.941 177.604Z" stroke="url(#paint17_linear_5001_64026)" stroke-width="4"/>
<path opacity="0.275362" d="M365.561 173.842L479.089 163.709C485.305 163.154 491.029 160.097 494.947 155.24L599.667 25.4059C602.849 21.4605 604.639 16.5742 604.758 11.5068L608.154 -132.986C608.352 -141.394 603.944 -149.24 596.66 -153.445L510.543 -203.165C503.259 -207.37 494.261 -207.265 487.078 -202.889L363.642 -127.702C359.313 -125.065 355.976 -121.072 354.15 -116.343L294.071 39.2641C291.823 45.086 292.038 51.5713 294.665 57.232L342.654 160.616C346.738 169.413 355.901 174.704 365.561 173.842Z" stroke="url(#paint18_linear_5001_64026)" stroke-width="4"/>
<path opacity="0.289855" d="M347.631 169.669L460.523 165.763C466.771 165.547 472.662 162.796 476.839 158.145L586.967 35.5234C590.367 31.7374 592.416 26.9306 592.792 21.8557L603.36 -120.689C603.981 -129.062 599.991 -137.107 592.95 -141.679L510.163 -195.442C503.123 -200.014 494.15 -200.387 486.754 -196.414L360.831 -128.782C356.348 -126.374 352.79 -122.547 350.714 -117.901L283.487 32.5799C280.936 38.2881 280.82 44.7884 283.164 50.5843L325.513 155.305C329.136 164.264 337.973 170.003 347.631 169.669Z" stroke="url(#paint19_linear_5001_64026)" stroke-width="4"/>
<path opacity="0.304348" d="M330.169 165.141L442.089 167.365C448.351 167.49 454.393 165.055 458.819 160.624L573.888 45.421C577.499 41.8062 579.803 37.0921 580.437 32.0225L597.985 -108.224C599.025 -116.539 595.461 -124.762 588.682 -129.687L509.411 -187.281C502.631 -192.207 493.71 -193.055 486.123 -189.496L358.163 -129.469C353.538 -127.299 349.766 -123.651 347.444 -119.1L273.438 25.9368C270.591 31.5157 270.143 38.0142 272.196 43.9312L308.897 149.686C312.054 158.782 320.543 164.949 330.169 165.141Z" stroke="url(#paint20_linear_5001_64026)" stroke-width="4"/>
<path opacity="0.318841" d="M313.19 160.276L423.808 168.518C430.065 168.984 436.242 166.873 440.905 162.675L560.444 55.0686C564.256 51.6365 566.812 47.0283 567.705 41.9767L592.022 -95.6358C593.478 -103.872 590.347 -112.249 583.848 -117.512L508.263 -178.719C501.764 -183.983 492.919 -185.303 485.165 -182.167L355.616 -129.77C350.86 -127.846 346.884 -124.388 344.32 -119.945L263.918 19.354C260.781 24.7883 260.001 31.2683 261.758 37.2919L292.819 143.78C295.505 152.988 303.624 159.563 313.19 160.276Z" stroke="url(#paint21_linear_5001_64026)" stroke-width="4"/>
<path opacity="0.333333" d="M296.705 155.1L405.704 169.228C411.938 170.036 418.231 168.258 423.119 164.306L546.651 64.4434C550.657 61.2051 553.46 56.7159 554.61 51.695L585.472 -82.963C587.337 -91.0996 584.647 -99.6078 578.444 -105.193L506.705 -169.787C500.501 -175.373 491.759 -177.159 483.862 -174.454L353.167 -129.685C348.294 -128.016 344.122 -124.759 341.321 -120.437L254.918 12.8563C251.499 18.1313 250.387 24.5759 251.843 30.6913L277.287 137.616C279.499 146.912 287.229 153.872 296.705 155.1Z" stroke="url(#paint22_linear_5001_64026)" stroke-width="4"/>
<path opacity="0.347826" d="M280.73 149.669L387.799 169.535C393.991 170.684 400.383 169.243 405.484 165.549L532.528 73.5516C536.718 70.5177 539.763 66.1602 541.17 61.1829L578.337 -70.2162C580.604 -78.2327 578.36 -86.8488 572.469 -92.7397L504.72 -160.488C498.83 -166.379 490.214 -168.624 482.197 -166.356L350.798 -129.19C345.821 -127.782 341.463 -124.737 338.429 -120.548L246.431 6.4964C242.738 11.5974 241.297 17.9899 242.446 24.1821L262.312 131.25C264.049 140.61 271.371 147.932 280.73 149.669Z" stroke="url(#paint23_linear_5001_64026)" stroke-width="4"/>
<path opacity="0.362319" d="M265.271 143.978L370.112 169.418C376.244 170.906 382.718 169.81 388.017 166.385L518.093 82.3423C522.456 79.5233 525.736 75.3102 527.4 70.389L570.617 -57.4642C573.28 -65.3406 571.484 -74.0407 565.921 -80.2194L502.294 -150.884C496.731 -157.062 488.266 -159.758 480.155 -157.933L348.484 -128.317C343.416 -127.177 338.883 -124.355 335.624 -120.31L238.445 0.267885C234.485 5.18074 232.718 11.5045 233.557 17.7583L247.899 124.684C249.159 134.081 256.057 141.742 265.271 143.978Z" stroke="url(#paint24_linear_5001_64026)" stroke-width="4"/>
<path opacity="0.376812" d="M250.336 138.081L352.664 168.917C358.717 170.741 365.254 169.993 370.739 166.849L503.365 90.823C507.891 88.2284 511.4 84.172 513.317 79.3197L562.32 -44.7185C565.368 -52.4352 564.024 -61.1956 558.803 -67.6436L499.415 -140.981C494.194 -147.429 485.904 -150.565 477.722 -149.188L346.206 -127.045C341.062 -126.179 336.364 -123.589 332.885 -119.702L230.946 -5.78047C226.73 -1.06938 224.64 5.1692 225.165 11.4692L234.052 117.972C234.837 127.382 241.295 135.356 250.336 138.081Z" stroke="url(#paint25_linear_5001_64026)" stroke-width="4"/>
<path opacity="0.391304" d="M235.931 132.018L335.471 168.055C341.426 170.211 348.008 169.816 353.663 166.962L488.359 98.9873C493.037 96.6264 496.769 92.7388 498.936 87.9679L553.445 -32.0023C556.87 -39.5402 555.979 -48.3372 551.113 -55.0355L496.068 -130.798C491.201 -137.497 483.11 -141.062 474.883 -140.134L343.94 -125.366C338.733 -124.779 333.882 -122.431 330.191 -118.711L223.92 -11.6133C219.458 -7.11709 217.049 -0.980039 217.259 5.35051L220.773 111.155C221.085 120.554 227.088 128.816 235.931 132.018Z" stroke="url(#paint26_linear_5001_64026)" stroke-width="4"/>
<path opacity="0.405797" d="M222.059 125.788L318.552 166.819C324.393 169.303 331 169.262 336.809 166.708L473.1 106.79C477.919 104.671 481.865 100.964 484.28 96.2873L544.008 -19.3822C547.799 -26.723 547.361 -35.5328 542.861 -42.4616L492.248 -120.399C487.748 -127.328 479.878 -131.311 471.63 -130.834L341.668 -123.317C336.413 -123.013 331.421 -120.916 327.526 -117.375L217.353 -17.2383C212.657 -12.9697 209.933 -6.95036 209.826 -0.604875L208.063 104.235C207.905 113.599 213.441 122.123 222.059 125.788Z" stroke="url(#paint27_linear_5001_64026)" stroke-width="4"/>
<path opacity="0.42029" d="M208.724 119.459L301.924 165.265C307.631 168.07 314.244 168.387 320.193 166.14L457.609 114.257C462.556 112.389 466.708 108.874 469.366 104.303L534.016 -6.85145C538.16 -13.9772 538.174 -22.7761 534.053 -29.915L487.946 -109.774C483.824 -116.913 476.197 -121.3 467.954 -121.274L339.367 -120.863C334.079 -120.846 328.959 -119.008 324.868 -115.658L211.227 -22.5943C206.308 -18.5654 203.275 -12.6795 202.851 -6.33482L195.92 97.2819C195.298 106.586 200.355 115.345 208.724 119.459Z" stroke="url(#paint28_linear_5001_64026)" stroke-width="4"/>
<path opacity="0.434783" d="M195.922 113.036L285.598 163.384C291.154 166.504 297.754 167.178 303.826 165.248L441.903 121.35C446.965 119.74 451.315 116.428 454.212 111.976L523.478 5.53211C527.964 -1.36159 528.427 -10.126 524.693 -17.4543L483.154 -98.9796C479.42 -106.308 472.057 -111.085 463.843 -111.507L337.015 -118.036C331.71 -118.309 326.474 -116.737 322.196 -113.588L205.522 -27.6844C200.392 -23.9067 197.058 -18.1699 196.316 -11.8417L184.338 90.3018C183.257 99.5231 187.826 108.49 195.922 113.036Z" stroke="url(#paint29_linear_5001_64026)" stroke-width="4"/>
<path opacity="0.449275" d="M183.656 106.56L269.592 161.209C274.979 164.635 281.548 165.667 287.727 164.06L426.008 128.072C431.173 126.728 435.71 123.629 438.841 119.307L512.412 17.75C517.226 11.1047 518.135 2.39806 514.798 -5.09825L477.872 -88.034C474.535 -95.5303 467.456 -100.681 459.296 -101.55L334.597 -114.831C329.29 -115.396 323.951 -114.098 319.496 -111.159L200.223 -32.4761C194.894 -28.9605 191.266 -23.3879 190.207 -17.092L173.316 83.3378C171.783 92.453 175.856 101.6 183.656 106.56Z" stroke="url(#paint30_linear_5001_64026)" stroke-width="4"/>
<path opacity="0.463768" d="M171.921 100.048L253.917 158.744C259.119 162.468 265.636 163.857 271.904 162.577L409.946 134.399C415.2 133.327 419.915 130.452 423.274 126.271L500.831 29.7582C505.959 23.377 507.309 14.7511 504.375 7.10848L472.096 -76.9813C469.163 -84.6239 462.388 -90.1311 454.307 -91.442L332.091 -111.269C326.797 -112.128 321.37 -111.11 316.747 -108.391L195.308 -36.9639C189.793 -33.7205 185.879 -28.3271 184.505 -22.079L162.846 76.406C160.869 85.3926 164.439 94.6924 171.921 100.048Z" stroke="url(#paint31_linear_5001_64026)" stroke-width="4"/>
<path opacity="0.478261" d="M160.711 93.5567L238.582 156.038C243.582 160.05 250.029 161.793 256.37 160.847L393.736 140.353C399.066 139.558 403.948 136.916 407.529 132.889L488.751 41.5567C494.178 35.4543 495.962 26.9318 493.439 19.165L465.824 -65.823C463.301 -73.5898 456.848 -79.436 448.871 -81.1832L329.476 -107.331C324.212 -108.484 318.71 -107.752 313.93 -105.262L190.753 -41.1007C185.068 -38.1392 180.876 -32.9393 179.189 -26.7547L152.916 69.565C150.506 78.401 153.568 87.8249 160.711 93.5567Z" stroke="url(#paint32_linear_5001_64026)" stroke-width="4"/>
<path opacity="0.492754" d="M150.022 87.1062L223.6 153.104C228.382 157.393 234.74 159.487 241.135 158.879L377.404 145.92C382.795 145.407 387.833 143.008 391.63 139.145L476.192 53.1106C481.902 47.3009 484.113 38.904 482.005 31.0354L459.059 -54.597C456.951 -62.4656 450.838 -68.6319 442.988 -70.8082L326.737 -103.036C321.518 -104.482 315.956 -104.041 311.03 -101.789L186.539 -44.878C180.696 -42.2072 176.237 -37.2148 174.241 -31.1091L143.518 62.8357C140.685 71.4998 143.236 81.0196 150.022 87.1062Z" stroke="url(#paint33_linear_5001_64026)" stroke-width="4"/>
<path opacity="0.507246" d="M139.843 80.7094L208.979 149.946C213.527 154.502 219.777 156.942 226.208 156.675L360.972 151.078C366.41 150.852 371.593 148.705 375.597 145.017L463.171 64.3784C469.148 58.8744 471.778 50.6248 470.088 42.6769L451.803 -43.3471C450.114 -51.2951 444.356 -57.7618 436.657 -60.3588L323.855 -98.4067C318.698 -100.146 313.09 -100 308.029 -97.9947L182.641 -48.2948C176.656 -45.9228 171.94 -41.1514 169.637 -35.1399L134.64 56.2311C131.395 64.7027 133.433 74.2901 139.843 80.7094Z" stroke="url(#paint34_linear_5001_64026)" stroke-width="4"/>
<path opacity="0.521739" d="M130.164 74.4009L194.724 146.595C199.024 151.404 205.146 154.185 211.596 154.262L344.461 155.833C349.932 155.897 355.247 154.009 359.451 150.508L449.709 75.3429C455.936 70.1567 458.975 62.0756 457.707 54.0711L444.06 -32.0953C442.792 -40.0998 437.405 -46.8464 429.879 -49.8544L320.812 -93.4496C315.732 -95.4803 310.093 -95.6334 304.91 -93.8812L179.034 -51.3298C172.923 -49.264 167.96 -44.7265 165.356 -38.8243L126.266 49.7861C122.622 58.0451 124.147 67.672 130.164 74.4009Z" stroke="url(#paint35_linear_5001_64026)" stroke-width="4"/>
<path opacity="0.536232" d="M120.976 68.2277L180.843 143.091C184.88 148.14 190.857 151.257 197.308 151.678L327.897 160.202C333.385 160.56 338.821 158.939 343.217 155.634L435.829 86.0019C442.29 81.1446 445.726 73.2527 444.881 65.2143L435.836 -20.8485C434.991 -28.8869 429.989 -35.8919 422.66 -39.2999L317.593 -88.1552C312.606 -90.4743 306.953 -90.9294 301.659 -89.4378L175.695 -53.9495C169.473 -52.1964 164.275 -47.9053 161.376 -42.1272L118.382 43.5475C114.354 51.575 115.367 61.2131 120.976 68.2277Z" stroke="url(#paint36_linear_5001_64026)" stroke-width="4"/>
<path opacity="0.550725" d="M112.265 62.1875L167.34 139.43C171.101 144.705 176.913 148.149 183.347 148.916L311.301 164.157C316.792 164.811 322.335 163.465 326.914 160.366L421.555 96.3062C428.23 91.7879 432.053 84.105 431.631 76.0555L427.139 -9.66215C426.717 -17.7117 422.112 -24.953 415.001 -28.7487L314.182 -82.5646C309.304 -85.1686 303.651 -85.9279 298.259 -84.7035L172.599 -56.1704C166.281 -54.7358 160.861 -50.703 157.671 -45.0634L110.972 37.5126C106.573 45.2905 107.077 54.912 112.265 62.1875Z" stroke="url(#paint37_linear_5001_64026)" stroke-width="4"/>
<path opacity="0.565217" d="M104.016 56.3178L154.218 135.645C157.69 141.131 163.32 144.895 169.717 146.006L294.695 167.713C300.173 168.664 305.81 167.599 310.563 164.714L406.907 106.249C413.779 102.079 417.975 94.624 417.975 86.586V1.45039C417.975 -6.58754 413.779 -14.0423 406.907 -18.2123L310.563 -76.678C305.81 -79.5624 300.173 -80.6275 294.695 -79.6761L169.717 -57.9695C163.32 -56.8584 157.69 -53.095 154.218 -47.6083L104.016 31.7187C99.2624 39.2295 99.2624 48.8069 104.016 56.3178Z" stroke="url(#paint38_linear_5001_64026)" stroke-width="4"/>
<path opacity="0.57971" d="M96.2141 50.6553L141.48 131.771C144.651 137.453 150.081 141.527 156.424 142.981L278.103 170.882C283.553 172.132 289.27 171.354 294.188 168.694L391.914 115.824C398.963 112.011 403.519 104.803 403.938 96.7988L408.357 12.4767C408.777 4.47294 404.999 -3.17202 398.387 -7.70162L306.723 -70.4962C302.111 -73.6559 296.506 -75.0274 290.956 -74.3543L167.026 -59.3249C160.566 -58.5415 154.74 -55.0581 150.992 -49.7381L97.4956 26.2015C92.4041 33.429 91.9059 42.9352 96.2141 50.6553Z" stroke="url(#paint39_linear_5001_64026)" stroke-width="4"/>
<path opacity="0.594203" d="M88.8426 45.1902L129.126 127.798C131.984 133.66 137.198 138.033 143.468 139.829L261.547 173.638C266.952 175.186 272.737 174.7 277.809 172.273L376.6 124.985C383.808 121.534 388.708 114.59 389.543 106.643L398.297 23.3594C399.132 15.4121 395.783 7.60086 389.45 2.72747L302.649 -64.067C298.193 -67.4958 292.636 -69.1738 287.027 -68.7837L164.498 -60.263C157.992 -59.8105 151.983 -56.617 147.968 -51.4773L91.3903 20.9502C85.9777 27.8791 84.9889 37.2874 88.8426 45.1902Z" stroke="url(#paint40_linear_5001_64026)" stroke-width="4"/>
<path opacity="0.608696" d="M81.8847 39.9802L117.156 123.784C119.692 129.809 124.672 134.47 130.851 136.603L245.049 176.021C250.394 177.866 256.232 177.677 261.447 175.49L360.991 133.751C368.338 130.67 373.568 124.007 374.814 116.138L387.806 34.1117C389.052 26.2429 386.138 18.2896 380.102 13.0893L298.328 -57.3683C294.044 -61.0595 288.551 -63.043 282.897 -62.9401L162.107 -60.7409C155.571 -60.6219 149.395 -57.7276 145.121 -52.7811L85.6794 16.0216C79.9636 22.6374 78.4931 31.9219 81.8847 39.9802Z" stroke="url(#paint41_linear_5001_64026)" stroke-width="4"/>
<path opacity="0.623188" d="M75.32 35.0174L105.568 119.722C107.772 125.892 112.502 130.83 118.572 133.296L228.629 178.008C233.899 180.149 239.775 180.261 245.123 178.323L345.115 142.081C352.582 139.375 358.124 133.008 359.776 125.24L376.899 44.6823C378.55 36.9139 376.077 28.8432 370.356 23.3339L293.749 -50.4444C289.652 -54.3903 284.238 -56.6779 278.553 -56.8655L159.825 -60.7836C153.276 -60.9997 146.947 -58.4129 142.424 -53.6724L80.3387 11.4062C74.3383 17.6958 72.3966 26.831 75.32 35.0174Z" stroke="url(#paint42_linear_5001_64026)" stroke-width="4"/>
<path opacity="0.637681" d="M69.1287 30.3529L94.359 115.666C96.2214 121.963 100.687 127.164 106.63 129.958L212.309 179.639C217.488 182.073 223.388 182.49 228.857 180.807L328.999 149.998C336.566 147.67 342.404 141.614 344.453 133.968L365.59 55.0824C367.639 47.4355 365.611 39.2724 360.222 33.4731L288.901 -43.2793C285.006 -47.4713 279.688 -50.0606 273.986 -50.5416L157.624 -60.3565C151.081 -60.9084 144.613 -58.637 139.852 -54.1146L75.3449 7.15345C69.0791 13.1047 66.6779 22.066 69.1287 30.3529Z" stroke="url(#paint43_linear_5001_64026)" stroke-width="4"/>
<path opacity="0.652174" d="M63.2914 25.9681L83.5259 111.6C85.0396 118.005 89.2252 123.456 95.0234 126.571L196.11 180.885C201.182 183.61 207.091 184.334 212.671 182.914L312.673 157.455C320.319 155.508 326.434 149.777 328.873 142.273L353.897 65.2553C356.336 57.751 354.757 49.5206 349.715 43.4511L283.776 -35.9255C280.097 -40.3542 274.891 -43.242 269.186 -44.0185L155.48 -59.4947C148.958 -60.3824 142.368 -58.4333 137.378 -54.1406L70.6752 3.24315C64.1636 8.84505 61.3161 17.6086 63.2914 25.9681Z" stroke="url(#paint44_linear_5001_64026)" stroke-width="4"/>
<path opacity="0.666667" d="M57.7857 21.8969L73.0627 107.561C74.2211 114.057 78.1129 119.742 83.749 123.171L180.051 181.775C185.001 184.786 190.904 185.82 196.582 184.667L296.163 164.461C303.869 162.897 310.243 157.504 313.061 150.163L341.837 75.1994C344.655 67.8579 343.527 59.5855 338.846 53.2665L278.364 -28.3824C274.915 -33.0377 269.837 -36.2202 264.144 -37.2936L153.364 -58.1817C146.881 -59.4042 140.184 -57.7836 134.977 -53.7318L66.3036 -0.292958C59.5662 4.94971 56.2869 13.4927 57.7857 21.8969Z" stroke="url(#paint45_linear_5001_64026)" stroke-width="4"/>
<path opacity="0.681159" d="M52.5899 18.1637L62.9641 103.581C63.7614 110.146 67.3461 116.05 72.8031 119.786L164.153 182.328C168.964 185.621 174.847 186.965 180.61 186.087L279.499 171.021C287.246 169.841 293.859 164.798 297.047 157.639L329.429 84.9071C332.616 77.7481 331.939 69.4589 327.633 62.912L272.659 -20.6573C269.455 -25.5283 264.52 -29.0006 258.853 -30.3719L151.251 -56.41C144.823 -57.9654 138.037 -56.6787 132.624 -52.8784L62.2051 -3.43248C55.2627 1.44226 51.5671 9.74266 52.5899 18.1637Z" stroke="url(#paint46_linear_5001_64026)" stroke-width="4"/>
<path opacity="0.695652" d="M47.6793 14.7632L53.2205 99.6591C53.6522 106.274 56.9173 112.381 62.1784 116.415L148.431 182.536C153.089 186.107 158.935 187.762 164.773 187.163L262.708 177.113C270.475 176.315 277.308 171.632 280.853 164.675L316.689 94.3424C320.234 87.385 320.007 79.1044 316.086 72.3517L266.652 -12.7868C263.705 -17.8618 258.93 -21.6185 253.304 -23.2878L149.112 -54.2025C142.757 -56.0882 135.897 -55.14 130.291 -51.601L58.352 -6.18328C51.2254 -1.68397 47.1304 6.35292 47.6793 14.7632Z" stroke="url(#paint47_linear_5001_64026)" stroke-width="4"/>
<path opacity="0.710145" d="M43.0324 11.7071L43.8258 95.8137C43.8885 102.459 46.8221 108.752 51.8712 113.072L132.906 182.413C137.395 186.254 143.189 188.22 149.088 187.905L245.82 182.732C253.589 182.316 260.621 178.002 264.51 171.265L303.64 103.491C307.53 96.7533 307.75 88.5062 304.225 81.5707L260.339 -4.78796C257.663 -10.0544 253.063 -14.0891 247.492 -16.0559L146.924 -51.5639C140.658 -53.7763 133.741 -53.1704 127.955 -49.9022L54.7198 -8.53602C47.4299 -4.41843 42.9534 3.33516 43.0324 11.7071Z" stroke="url(#paint48_linear_5001_64026)" stroke-width="4"/>
<path opacity="0.724638" d="M38.6241 9.01761L34.7693 92.0752C34.4604 98.7295 37.0518 105.191 41.8731 109.788L117.593 181.983C121.898 186.088 127.625 188.365 133.572 188.337L228.863 187.891C236.613 187.854 243.824 183.917 248.045 177.417L290.3 112.349C294.521 105.85 295.185 97.6612 292.066 90.5664L253.716 3.33261C251.322 -2.11204 246.912 -6.41778 241.412 -8.68086L144.66 -48.4901C138.499 -51.0248 131.543 -50.7641 125.589 -47.7754L51.2803 -10.4713C43.8487 -6.74056 39.0096 0.711046 38.6241 9.01761Z" stroke="url(#paint49_linear_5001_64026)" stroke-width="4"/>
<path opacity="0.73913" d="M34.4324 6.70457L26.0431 88.4616C25.3615 95.1047 27.6007 101.716 32.1789 106.578L102.511 181.263C106.617 185.623 112.261 188.209 118.245 188.472L211.868 192.591C219.581 192.93 226.949 189.378 231.486 183.132L276.695 120.908C281.233 114.663 282.334 106.557 279.628 99.3271L246.78 11.5584C244.681 5.94955 240.477 1.38064 235.062 -1.1769L142.298 -44.9879C136.259 -47.8397 129.28 -47.9263 123.172 -45.2252L48.0092 -11.9822C40.4572 -8.64214 35.2754 -1.50994 34.4324 6.70457Z" stroke="url(#paint50_linear_5001_64026)" stroke-width="4"/>
<path opacity="0.753623" d="M30.4294 4.77452L17.6325 84.9883C16.5779 91.5992 18.4559 98.3416 22.7764 103.455L87.6707 180.265C91.5632 184.872 97.1095 187.766 103.115 188.323L194.858 196.834C202.514 197.544 210.018 194.382 214.857 188.407L262.84 129.153C267.678 123.178 269.211 115.18 266.925 107.839L239.525 19.8703C237.732 14.1119 233.748 9.28839 228.432 6.43889L139.809 -41.0678C133.909 -44.2307 126.923 -44.6658 120.676 -42.2597L44.8757 -13.0651C37.2248 -10.1184 31.7211 -3.32178 30.4294 4.77452Z" stroke="url(#paint51_linear_5001_64026)" stroke-width="4"/>
<path opacity="0.768116" d="M26.5931 3.21415L9.52838 81.6525C8.10167 88.2104 9.6105 95.0644 13.6592 100.417L73.0899 178.987C76.7547 183.832 82.1875 187.031 88.2022 187.884L177.865 200.607C185.446 201.682 193.065 198.915 198.189 193.225L248.762 137.058C253.885 131.367 255.841 123.501 253.979 116.074L231.954 28.2318C230.476 22.3392 226.728 17.2705 221.526 14.1322L137.174 -36.76C131.427 -40.2271 124.453 -41.0112 118.08 -38.9068L41.8555 -13.7365C34.1274 -11.1846 28.3232 -4.73847 26.5931 3.21415Z" stroke="url(#paint52_linear_5001_64026)" stroke-width="4"/>
<path opacity="0.782609" d="M22.8975 2.06461L1.71646 78.5058C-0.0801843 84.9898 1.05245 91.9354 4.81596 97.5126L58.7799 177.484C62.2031 182.557 67.507 186.056 73.5177 187.208L160.915 203.951C168.403 205.386 176.115 203.016 181.506 197.625L234.481 144.65C239.872 139.259 242.242 131.547 240.807 124.059L224.064 36.6616C222.912 30.6509 219.413 25.347 214.34 21.9238L134.369 -32.0401C128.791 -35.8036 121.846 -36.9363 115.362 -35.1396L38.9207 -13.9586C31.1366 -11.8017 25.0544 -5.71953 22.8975 2.06461Z" stroke="url(#paint53_linear_5001_64026)" stroke-width="4"/>
<path opacity="0.797101" d="M19.3173 1.2836L-5.81717 75.517C-7.98045 81.9062 -7.22996 88.9229 -3.76434 94.71L44.7526 175.726C47.9207 181.017 53.0804 184.813 59.0735 186.264L144.033 206.83C151.41 208.616 159.193 206.647 164.834 201.568L220.021 151.878C225.661 146.799 228.433 139.264 227.428 131.741L215.855 45.0971C215.039 38.9851 211.802 33.4568 206.872 29.7531L131.371 -26.9666C125.978 -31.0181 119.078 -32.4979 112.498 -31.0144L36.0439 -13.777C28.225 -12.0142 21.8878 -6.30814 19.3173 1.2836Z" stroke="url(#paint54_linear_5001_64026)" stroke-width="4"/>
<path opacity="0.811594" d="M15.83 0.912636L-13.0844 72.7385C-15.6099 79.012 -15.2464 86.0791 -12.0906 92.0604L31.0209 173.772C33.9206 179.268 38.9208 183.356 44.8831 185.107L127.246 209.292C134.495 211.42 142.328 209.853 148.2 205.098L205.403 158.776C211.275 154.021 214.437 146.685 213.862 139.151L207.33 53.5605C206.857 47.3645 203.897 41.6234 199.124 37.6444L128.162 -21.5137C122.967 -25.8441 116.13 -27.6689 109.469 -26.503L33.2007 -13.1539C25.3682 -11.7829 18.7995 -6.46365 15.83 0.912636Z" stroke="url(#paint55_linear_5001_64026)" stroke-width="4"/>
<path opacity="0.826087" d="M12.4098 0.932107L-20.1013 70.1635C-22.9834 76.3007 -23.0107 83.3969 -20.1759 89.5561L17.5936 171.62C20.2123 177.309 25.0379 181.685 30.9559 183.736L110.578 211.328C117.684 213.79 125.544 212.623 131.628 208.203L190.65 165.322C196.734 160.901 200.273 153.786 200.126 146.267L198.489 62.0156C198.368 55.7535 195.697 49.8118 191.096 45.5632L124.72 -15.7168C119.738 -20.3161 112.981 -22.483 106.253 -21.6385L30.3639 -12.1123C22.5385 -11.13 15.7622 -6.20669 12.4098 0.932107Z" stroke="url(#paint56_linear_5001_64026)" stroke-width="4"/>
<path opacity="0.84058" d="M9.03304 1.3418L-26.8827 67.8043C-30.1145 73.7848 -30.5352 80.8886 -28.0319 87.2088L4.48023 169.291C6.80542 175.161 11.4417 179.817 17.3019 182.168L94.055 212.952C101.001 215.738 108.867 214.97 115.144 210.895L175.785 171.513C182.062 167.438 185.963 160.563 186.243 153.085L189.338 70.4463C189.574 64.1367 187.206 58.0074 182.789 53.4955L121.027 -9.59151C116.272 -14.4491 109.611 -16.9541 102.833 -16.4342L27.5085 -10.6563C19.7107 -10.0581 12.7511 -5.53856 9.03304 1.3418Z" stroke="url(#paint57_linear_5001_64026)" stroke-width="4"/>
<path opacity="0.855072" d="M5.67449 2.14172L-33.4457 65.6741C-37.0194 71.4778 -37.8349 78.5675 -35.6725 85.031L-8.3128 166.807C-6.29286 172.845 -1.86077 177.775 3.92834 180.424L77.698 214.182C84.4686 217.28 92.3202 216.909 98.7685 213.186L160.831 177.354C167.279 173.631 171.526 167.017 172.228 159.605L179.878 78.8395C180.479 72.5015 178.425 66.1981 174.206 61.43L117.066 -3.15238C112.55 -8.2569 106.002 -11.0955 99.1889 -10.9025L24.6081 -8.78958C16.8578 -8.57002 9.73978 -4.46042 5.67449 2.14172Z" stroke="url(#paint58_linear_5001_64026)" stroke-width="4"/>
<path opacity="0.869565" d="M2.31441 3.3279L-39.8027 63.7819C-43.709 69.389 -44.9197 76.4427 -43.1067 83.0314L-20.7753 164.189C-19.0719 170.379 -14.8585 175.576 -9.15389 178.522L61.5322 215.03C68.1133 218.429 75.9287 218.45 82.5284 215.088L145.811 182.844C152.411 179.481 156.987 173.146 158.105 165.823L170.118 87.1785C171.088 80.8316 169.36 74.3684 165.353 69.3516L112.822 3.58208C108.557 -1.7574 102.139 -4.92397 95.3063 -5.05943L21.6421 -6.52002C13.9589 -6.67236 6.70723 -2.97746 2.31441 3.3279Z" stroke="url(#paint59_linear_5001_64026)" stroke-width="4"/>
<path opacity="0.884058" d="M-1.0749 4.87955L-45.9753 62.1214C-50.2041 67.5124 -51.8091 74.5081 -50.3533 81.2034L-32.9069 161.441C-31.5308 167.769 -27.5504 173.225 -21.9436 176.466L45.5744 215.5C51.9524 219.187 59.7107 219.596 66.4409 216.6L130.744 187.97C137.474 184.974 142.362 178.934 143.889 171.727L160.06 95.433C161.403 89.0974 160.012 82.4892 156.23 77.232L108.275 10.5773C104.274 5.0155 98.0012 1.52723 91.1653 1.06248L18.5821 -3.8723C10.985 -4.38881 3.62471 -1.1118 -1.0749 4.87955Z" stroke="url(#paint60_linear_5001_64026)" stroke-width="4"/>
<path opacity="0.898551" d="M-4.51051 6.82388L-51.9748 60.733C-56.5145 65.8891 -58.5117 72.8047 -57.4199 79.5872L-44.6978 158.617C-43.6593 165.068 -39.9259 170.773 -34.43 174.307L29.8492 215.641C36.0112 219.603 43.6921 220.393 50.5315 217.768L115.656 192.769C122.495 190.144 127.675 184.417 129.602 177.349L149.713 103.621C151.433 97.3173 150.39 90.5797 146.845 85.0907L103.418 17.8473C99.6912 12.0763 93.5796 8.27344 86.7557 7.47935L15.4106 -0.823128C7.91803 -1.69505 0.474139 1.1624 -4.51051 6.82388Z" stroke="url(#paint61_linear_5001_64026)" stroke-width="4"/>
<path opacity="0.913043" d="M-8.01602 9.11057L-57.8203 59.5809C-62.6586 64.4838 -65.0447 71.2971 -64.3225 78.1474L-56.147 155.696C-55.4557 162.254 -51.9831 168.199 -46.6112 172.023L14.3735 215.431C20.3074 219.655 27.8912 220.818 34.8183 218.567L100.566 197.205C107.493 194.954 112.944 189.555 115.262 182.65L139.086 111.686C141.184 105.435 140.499 98.5844 137.204 92.873L98.2356 25.3291C94.7934 19.3626 88.8582 15.2531 82.0622 14.1303L12.1039 2.57322C4.73357 1.35565 -2.76899 3.79337 -8.01602 9.11057Z" stroke="url(#paint62_linear_5001_64026)" stroke-width="4"/>
<path opacity="0.927536" d="M-11.6128 11.7592L-63.5294 58.6988C-68.6525 63.3307 -71.4229 70.0197 -71.0751 76.9176L-67.2528 152.727C-66.9177 159.375 -63.7195 165.551 -58.4844 169.66L-0.83597 214.917C4.85874 219.388 12.3261 220.916 19.3193 219.042L85.494 201.311C92.4871 199.437 98.1899 194.38 100.886 187.661L128.183 119.643C130.662 113.466 130.344 106.519 127.31 100.594L92.7155 33.03C89.5678 26.8824 83.8241 22.4748 77.0714 21.0249L8.64052 6.33232C1.40953 4.77978 -6.1269 6.79916 -11.6128 11.7592Z" stroke="url(#paint63_linear_5001_64026)" stroke-width="4"/>
<path opacity="0.942029" d="M-15.3206 14.7424L-69.1189 58.0737C-74.5121 62.4176 -77.661 68.9604 -77.6913 75.8854L-78.0142 149.714C-78.0436 156.434 -75.133 162.83 -70.0474 167.222L-15.7627 214.103C-10.3175 218.805 -2.98538 220.689 4.0522 219.193L70.4607 205.077C77.4983 203.581 83.4304 198.879 86.4922 192.368L117.016 127.46C119.875 121.38 119.932 114.353 117.173 108.226L86.8487 40.9114C84.0044 34.5974 78.4665 29.9011 71.7727 28.1263L5.00112 10.4229C-2.07422 8.547 -9.62 10.1509 -15.3206 14.7424Z" stroke="url(#paint64_linear_5001_64026)" stroke-width="4"/>
<path opacity="0.956522" d="M-19.1575 18.0602L-74.605 57.72C-80.2526 61.7596 -83.773 68.1344 -84.184 75.0659L-88.4304 146.689C-88.8321 153.462 -86.2219 160.068 -81.2984 164.738L-30.3913 213.021C-25.2048 217.94 -18.0259 220.168 -10.9656 219.05L55.4863 208.525C62.5466 207.407 68.6856 203.069 72.0982 196.788L105.593 135.137C108.833 129.174 109.274 122.086 106.799 115.767L80.6276 48.9623C78.0948 42.4971 72.7768 37.5221 66.1573 35.4255L1.16806 14.8409C-5.73612 12.6541 -13.267 13.8469 -19.1575 18.0602Z" stroke="url(#paint65_linear_5001_64026)" stroke-width="4"/>
<path opacity="0.971014" d="M-23.1413 21.7001L-80.0035 57.6391C-85.8888 61.3588 -89.7724 67.5442 -90.5655 74.4611L-98.5015 143.67C-99.2824 150.479 -96.9853 157.283 -92.2362 162.225L-44.7076 211.691C-39.7882 216.811 -32.7799 219.372 -25.7185 218.629L40.5891 211.66C47.6505 210.918 53.9733 206.956 57.7207 200.925L93.9262 142.659C97.5438 136.837 98.3763 129.705 96.1966 123.206L74.0448 57.1599C71.8309 50.5591 66.7461 45.3163 60.2161 42.9015L-2.87567 19.5701C-9.59401 17.0856 -17.0863 17.8731 -23.1413 21.7001Z" stroke="url(#paint66_linear_5001_64026)" stroke-width="4"/>
<path opacity="0.985507" d="M-27.2907 25.6363L-85.3347 57.8207C-91.4399 61.2059 -95.6772 67.1807 -96.8529 74.0618L-108.233 140.668C-109.4 147.495 -107.428 154.484 -102.865 159.694L-58.7017 210.128C-54.0567 215.433 -47.2355 218.314 -40.1944 217.945L25.7871 214.487C32.8281 214.118 39.3109 210.54 43.3759 204.779L82.0258 150.005C86.0187 144.346 87.2492 137.189 85.3756 130.522L67.0952 65.4697C65.2067 58.7491 60.3681 53.25 53.9425 50.5215L-7.14776 24.5806C-13.6665 21.8126 -21.097 22.202 -27.2907 25.6363Z" stroke="url(#paint67_linear_5001_64026)" stroke-width="4"/>
<path d="M-31.6204 29.8674L-90.6132 58.2769C-96.9195 61.3138 -101.5 67.0572 -103.057 73.8812L-117.627 137.717C-119.185 144.541 -117.55 151.702 -113.186 157.175L-72.3617 208.367C-67.9976 213.839 -61.3791 217.027 -54.3796 217.027H11.0975C18.097 217.027 24.7155 213.839 29.0796 208.367L69.9039 157.175C74.268 151.702 75.9027 144.541 74.3452 137.717L59.7751 73.8812C58.2176 67.0572 53.6374 61.3138 47.3311 58.2768L-11.6618 29.8674C-17.968 26.8305 -25.3141 26.8305 -31.6204 29.8674Z" stroke="url(#paint68_linear_5001_64026)" stroke-width="4"/>
</g>
</g>
<defs>
<linearGradient id="paint0_linear_5001_64026" x1="734.045" y1="175.959" x2="516.194" y2="-313.343" gradientUnits="userSpaceOnUse">
<stop offset="0.2" stop-color="#4792EA"/>
<stop offset="1" stop-color="#DD5202"/>
</linearGradient>
<linearGradient id="paint1_linear_5001_64026" x1="711.172" y1="181.738" x2="520.922" y2="-313.882" gradientUnits="userSpaceOnUse">
<stop offset="0.2" stop-color="#4792EA"/>
<stop offset="1" stop-color="#DD5202"/>
</linearGradient>
<linearGradient id="paint2_linear_5001_64026" x1="688.27" y1="186.776" x2="525.68" y2="-313.625" gradientUnits="userSpaceOnUse">
<stop offset="0.2" stop-color="#4792EA"/>
<stop offset="1" stop-color="#DD5202"/>
</linearGradient>
<linearGradient id="paint3_linear_5001_64026" x1="665.383" y1="191.081" x2="530.428" y2="-312.578" gradientUnits="userSpaceOnUse">
<stop offset="0.2" stop-color="#4792EA"/>
<stop offset="1" stop-color="#DD5202"/>
</linearGradient>
<linearGradient id="paint4_linear_5001_64026" x1="642.546" y1="194.657" x2="535.12" y2="-310.746" gradientUnits="userSpaceOnUse">
<stop offset="0.2" stop-color="#4792EA"/>
<stop offset="1" stop-color="#DD5202"/>
</linearGradient>
<linearGradient id="paint5_linear_5001_64026" x1="619.801" y1="197.517" x2="539.711" y2="-308.147" gradientUnits="userSpaceOnUse">
<stop offset="0.2" stop-color="#4792EA"/>
<stop offset="1" stop-color="#DD5202"/>
</linearGradient>
<linearGradient id="paint6_linear_5001_64026" x1="597.186" y1="199.68" x2="544.165" y2="-304.783" gradientUnits="userSpaceOnUse">
<stop offset="0.2" stop-color="#4792EA"/>
<stop offset="1" stop-color="#DD5202"/>
</linearGradient>
<linearGradient id="paint7_linear_5001_64026" x1="574.739" y1="201.131" x2="548.44" y2="-300.694" gradientUnits="userSpaceOnUse">
<stop offset="0.2" stop-color="#4792EA"/>
<stop offset="1" stop-color="#DD5202"/>
</linearGradient>
<linearGradient id="paint8_linear_5001_64026" x1="552.495" y1="201.926" x2="552.495" y2="-295.86" gradientUnits="userSpaceOnUse">
<stop offset="0.2" stop-color="#4792EA"/>
<stop offset="1" stop-color="#DD5202"/>
</linearGradient>
<linearGradient id="paint9_linear_5001_64026" x1="530.487" y1="202.065" x2="556.292" y2="-290.317" gradientUnits="userSpaceOnUse">
<stop offset="0.2" stop-color="#4792EA"/>
<stop offset="1" stop-color="#DD5202"/>
</linearGradient>
<linearGradient id="paint10_linear_5001_64026" x1="508.751" y1="201.541" x2="559.796" y2="-284.115" gradientUnits="userSpaceOnUse">
<stop offset="0.2" stop-color="#4792EA"/>
<stop offset="1" stop-color="#DD5202"/>
</linearGradient>
<linearGradient id="paint11_linear_5001_64026" x1="487.324" y1="200.421" x2="562.976" y2="-277.229" gradientUnits="userSpaceOnUse">
<stop offset="0.2" stop-color="#4792EA"/>
<stop offset="1" stop-color="#DD5202"/>
</linearGradient>
<linearGradient id="paint12_linear_5001_64026" x1="466.229" y1="198.706" x2="565.793" y2="-269.706" gradientUnits="userSpaceOnUse">
<stop offset="0.2" stop-color="#4792EA"/>
<stop offset="1" stop-color="#DD5202"/>
</linearGradient>
<linearGradient id="paint13_linear_5001_64026" x1="445.501" y1="196.416" x2="568.22" y2="-261.577" gradientUnits="userSpaceOnUse">
<stop offset="0.2" stop-color="#4792EA"/>
<stop offset="1" stop-color="#DD5202"/>
</linearGradient>
<linearGradient id="paint14_linear_5001_64026" x1="425.164" y1="193.582" x2="570.223" y2="-252.863" gradientUnits="userSpaceOnUse">
<stop offset="0.2" stop-color="#4792EA"/>
<stop offset="1" stop-color="#DD5202"/>
</linearGradient>
<linearGradient id="paint15_linear_5001_64026" x1="405.247" y1="190.241" x2="571.779" y2="-243.589" gradientUnits="userSpaceOnUse">
<stop offset="0.2" stop-color="#4792EA"/>
<stop offset="1" stop-color="#DD5202"/>
</linearGradient>
<linearGradient id="paint16_linear_5001_64026" x1="385.773" y1="186.403" x2="572.858" y2="-233.797" gradientUnits="userSpaceOnUse">
<stop offset="0.2" stop-color="#4792EA"/>
<stop offset="1" stop-color="#DD5202"/>
</linearGradient>
<linearGradient id="paint17_linear_5001_64026" x1="366.761" y1="182.105" x2="573.435" y2="-223.517" gradientUnits="userSpaceOnUse">
<stop offset="0.2" stop-color="#4792EA"/>
<stop offset="1" stop-color="#DD5202"/>
</linearGradient>
<linearGradient id="paint18_linear_5001_64026" x1="348.238" y1="177.396" x2="573.494" y2="-212.76" gradientUnits="userSpaceOnUse">
<stop offset="0.2" stop-color="#4792EA"/>
<stop offset="1" stop-color="#DD5202"/>
</linearGradient>
<linearGradient id="paint19_linear_5001_64026" x1="330.217" y1="172.273" x2="573.009" y2="-201.594" gradientUnits="userSpaceOnUse">
<stop offset="0.2" stop-color="#4792EA"/>
<stop offset="1" stop-color="#DD5202"/>
</linearGradient>
<linearGradient id="paint20_linear_5001_64026" x1="312.718" y1="166.794" x2="571.965" y2="-190.029" gradientUnits="userSpaceOnUse">
<stop offset="0.2" stop-color="#4792EA"/>
<stop offset="1" stop-color="#DD5202"/>
</linearGradient>
<linearGradient id="paint21_linear_5001_64026" x1="295.753" y1="160.982" x2="570.344" y2="-178.11" gradientUnits="userSpaceOnUse">
<stop offset="0.2" stop-color="#4792EA"/>
<stop offset="1" stop-color="#DD5202"/>
</linearGradient>
<linearGradient id="paint22_linear_5001_64026" x1="279.336" y1="154.866" x2="568.134" y2="-165.878" gradientUnits="userSpaceOnUse">
<stop offset="0.2" stop-color="#4792EA"/>
<stop offset="1" stop-color="#DD5202"/>
</linearGradient>
<linearGradient id="paint23_linear_5001_64026" x1="263.479" y1="148.502" x2="565.325" y2="-153.344" gradientUnits="userSpaceOnUse">
<stop offset="0.2" stop-color="#4792EA"/>
<stop offset="1" stop-color="#DD5202"/>
</linearGradient>
<linearGradient id="paint24_linear_5001_64026" x1="248.189" y1="141.891" x2="561.905" y2="-140.581" gradientUnits="userSpaceOnUse">
<stop offset="0.2" stop-color="#4792EA"/>
<stop offset="1" stop-color="#DD5202"/>
</linearGradient>
<linearGradient id="paint25_linear_5001_64026" x1="233.474" y1="135.088" x2="557.871" y2="-127.603" gradientUnits="userSpaceOnUse">
<stop offset="0.2" stop-color="#4792EA"/>
<stop offset="1" stop-color="#DD5202"/>
</linearGradient>
<linearGradient id="paint26_linear_5001_64026" x1="219.336" y1="128.137" x2="553.21" y2="-114.437" gradientUnits="userSpaceOnUse">
<stop offset="0.2" stop-color="#4792EA"/>
<stop offset="1" stop-color="#DD5202"/>
</linearGradient>
<linearGradient id="paint27_linear_5001_64026" x1="205.78" y1="121.038" x2="547.928" y2="-101.155" gradientUnits="userSpaceOnUse">
<stop offset="0.2" stop-color="#4792EA"/>
<stop offset="1" stop-color="#DD5202"/>
</linearGradient>
<linearGradient id="paint28_linear_5001_64026" x1="192.806" y1="113.864" x2="542.02" y2="-87.7545" gradientUnits="userSpaceOnUse">
<stop offset="0.2" stop-color="#4792EA"/>
<stop offset="1" stop-color="#DD5202"/>
</linearGradient>
<linearGradient id="paint29_linear_5001_64026" x1="180.411" y1="106.621" x2="535.486" y2="-74.299" gradientUnits="userSpaceOnUse">
<stop offset="0.2" stop-color="#4792EA"/>
<stop offset="1" stop-color="#DD5202"/>
</linearGradient>
<linearGradient id="paint30_linear_5001_64026" x1="168.595" y1="99.353" x2="528.333" y2="-60.8129" gradientUnits="userSpaceOnUse">
<stop offset="0.2" stop-color="#4792EA"/>
<stop offset="1" stop-color="#DD5202"/>
</linearGradient>
<linearGradient id="paint31_linear_5001_64026" x1="157.351" y1="92.0781" x2="520.566" y2="-47.3469" gradientUnits="userSpaceOnUse">
<stop offset="0.2" stop-color="#4792EA"/>
<stop offset="1" stop-color="#DD5202"/>
</linearGradient>
<linearGradient id="paint32_linear_5001_64026" x1="146.672" y1="84.8561" x2="512.19" y2="-33.9079" gradientUnits="userSpaceOnUse">
<stop offset="0.2" stop-color="#4792EA"/>
<stop offset="1" stop-color="#DD5202"/>
</linearGradient>
<linearGradient id="paint33_linear_5001_64026" x1="136.55" y1="77.7094" x2="503.216" y2="-20.5385" gradientUnits="userSpaceOnUse">
<stop offset="0.2" stop-color="#4792EA"/>
<stop offset="1" stop-color="#DD5202"/>
</linearGradient>
<linearGradient id="paint34_linear_5001_64026" x1="126.974" y1="70.6526" x2="493.656" y2="-7.28806" gradientUnits="userSpaceOnUse">
<stop offset="0.2" stop-color="#4792EA"/>
<stop offset="1" stop-color="#DD5202"/>
</linearGradient>
<linearGradient id="paint35_linear_5001_64026" x1="117.932" y1="63.7222" x2="483.521" y2="5.81856" gradientUnits="userSpaceOnUse">
<stop offset="0.2" stop-color="#4792EA"/>
<stop offset="1" stop-color="#DD5202"/>
</linearGradient>
<linearGradient id="paint36_linear_5001_64026" x1="109.411" y1="56.9669" x2="472.828" y2="18.7702" gradientUnits="userSpaceOnUse">
<stop offset="0.2" stop-color="#4792EA"/>
<stop offset="1" stop-color="#DD5202"/>
</linearGradient>
<linearGradient id="paint37_linear_5001_64026" x1="101.394" y1="50.3859" x2="461.592" y2="31.5087" gradientUnits="userSpaceOnUse">
<stop offset="0.2" stop-color="#4792EA"/>
<stop offset="1" stop-color="#DD5202"/>
</linearGradient>
<linearGradient id="paint38_linear_5001_64026" x1="93.865" y1="44.0182" x2="449.83" y2="44.0182" gradientUnits="userSpaceOnUse">
<stop offset="0.2" stop-color="#4792EA"/>
<stop offset="1" stop-color="#DD5202"/>
</linearGradient>
<linearGradient id="paint39_linear_5001_64026" x1="86.8067" y1="37.9018" x2="437.563" y2="56.2842" gradientUnits="userSpaceOnUse">
<stop offset="0.2" stop-color="#4792EA"/>
<stop offset="1" stop-color="#DD5202"/>
</linearGradient>
<linearGradient id="paint40_linear_5001_64026" x1="80.199" y1="32.0278" x2="424.812" y2="68.2482" gradientUnits="userSpaceOnUse">
<stop offset="0.2" stop-color="#4792EA"/>
<stop offset="1" stop-color="#DD5202"/>
</linearGradient>
<linearGradient id="paint41_linear_5001_64026" x1="74.0223" y1="26.4551" x2="411.598" y2="79.9219" gradientUnits="userSpaceOnUse">
<stop offset="0.2" stop-color="#4792EA"/>
<stop offset="1" stop-color="#DD5202"/>
</linearGradient>
<linearGradient id="paint42_linear_5001_64026" x1="68.2536" y1="21.1764" x2="397.945" y2="91.2545" gradientUnits="userSpaceOnUse">
<stop offset="0.2" stop-color="#4792EA"/>
<stop offset="1" stop-color="#DD5202"/>
</linearGradient>
<linearGradient id="paint43_linear_5001_64026" x1="62.8703" y1="16.2434" x2="383.876" y2="102.257" gradientUnits="userSpaceOnUse">
<stop offset="0.2" stop-color="#4792EA"/>
<stop offset="1" stop-color="#DD5202"/>
</linearGradient>
<linearGradient id="paint44_linear_5001_64026" x1="57.8502" y1="11.6381" x2="369.418" y2="112.873" gradientUnits="userSpaceOnUse">
<stop offset="0.2" stop-color="#4792EA"/>
<stop offset="1" stop-color="#DD5202"/>
</linearGradient>
<linearGradient id="paint45_linear_5001_64026" x1="53.1678" y1="7.39448" x2="354.597" y2="123.102" gradientUnits="userSpaceOnUse">
<stop offset="0.2" stop-color="#4792EA"/>
<stop offset="1" stop-color="#DD5202"/>
</linearGradient>
<linearGradient id="paint46_linear_5001_64026" x1="48.7988" y1="3.53721" x2="339.441" y2="132.94" gradientUnits="userSpaceOnUse">
<stop offset="0.2" stop-color="#4792EA"/>
<stop offset="1" stop-color="#DD5202"/>
</linearGradient>
<linearGradient id="paint47_linear_5001_64026" x1="44.7154" y1="0.0607425" x2="323.975" y2="142.351" gradientUnits="userSpaceOnUse">
<stop offset="0.2" stop-color="#4792EA"/>
<stop offset="1" stop-color="#DD5202"/>
</linearGradient>
<linearGradient id="paint48_linear_5001_64026" x1="40.8933" y1="-3.02328" x2="308.229" y2="151.323" gradientUnits="userSpaceOnUse">
<stop offset="0.2" stop-color="#4792EA"/>
<stop offset="1" stop-color="#DD5202"/>
</linearGradient>
<linearGradient id="paint49_linear_5001_64026" x1="37.3047" y1="-5.69323" x2="292.231" y2="159.858" gradientUnits="userSpaceOnUse">
<stop offset="0.2" stop-color="#4792EA"/>
<stop offset="1" stop-color="#DD5202"/>
</linearGradient>
<linearGradient id="paint50_linear_5001_64026" x1="33.9246" y1="-7.93981" x2="276.013" y2="167.948" gradientUnits="userSpaceOnUse">
<stop offset="0.2" stop-color="#4792EA"/>
<stop offset="1" stop-color="#DD5202"/>
</linearGradient>
<linearGradient id="paint51_linear_5001_64026" x1="30.7224" y1="-9.75718" x2="259.599" y2="175.583" gradientUnits="userSpaceOnUse">
<stop offset="0.2" stop-color="#4792EA"/>
<stop offset="1" stop-color="#DD5202"/>
</linearGradient>
<linearGradient id="paint52_linear_5001_64026" x1="27.6734" y1="-11.1597" x2="243.023" y2="182.742" gradientUnits="userSpaceOnUse">
<stop offset="0.2" stop-color="#4792EA"/>
<stop offset="1" stop-color="#DD5202"/>
</linearGradient>
<linearGradient id="paint53_linear_5001_64026" x1="24.749" y1="-12.1071" x2="226.313" y2="189.457" gradientUnits="userSpaceOnUse">
<stop offset="0.2" stop-color="#4792EA"/>
<stop offset="1" stop-color="#DD5202"/>
</linearGradient>
<linearGradient id="paint54_linear_5001_64026" x1="21.9212" y1="-12.6432" x2="209.498" y2="195.682" gradientUnits="userSpaceOnUse">
<stop offset="0.2" stop-color="#4792EA"/>
<stop offset="1" stop-color="#DD5202"/>
</linearGradient>
<linearGradient id="paint55_linear_5001_64026" x1="19.1651" y1="-12.7276" x2="192.607" y2="201.455" gradientUnits="userSpaceOnUse">
<stop offset="0.2" stop-color="#4792EA"/>
<stop offset="1" stop-color="#DD5202"/>
</linearGradient>
<linearGradient id="paint56_linear_5001_64026" x1="16.4524" y1="-12.3817" x2="175.668" y2="206.76" gradientUnits="userSpaceOnUse">
<stop offset="0.2" stop-color="#4792EA"/>
<stop offset="1" stop-color="#DD5202"/>
</linearGradient>
<linearGradient id="paint57_linear_5001_64026" x1="13.7573" y1="-11.6073" x2="158.711" y2="211.602" gradientUnits="userSpaceOnUse">
<stop offset="0.2" stop-color="#4792EA"/>
<stop offset="1" stop-color="#DD5202"/>
</linearGradient>
<linearGradient id="paint58_linear_5001_64026" x1="11.0523" y1="-10.4063" x2="141.762" y2="215.99" gradientUnits="userSpaceOnUse">
<stop offset="0.2" stop-color="#4792EA"/>
<stop offset="1" stop-color="#DD5202"/>
</linearGradient>
<linearGradient id="paint59_linear_5001_64026" x1="8.31547" y1="-8.78465" x2="124.851" y2="219.93" gradientUnits="userSpaceOnUse">
<stop offset="0.2" stop-color="#4792EA"/>
<stop offset="1" stop-color="#DD5202"/>
</linearGradient>
<linearGradient id="paint60_linear_5001_64026" x1="5.51732" y1="-6.76516" x2="108.001" y2="223.417" gradientUnits="userSpaceOnUse">
<stop offset="0.2" stop-color="#4792EA"/>
<stop offset="1" stop-color="#DD5202"/>
</linearGradient>
<linearGradient id="paint61_linear_5001_64026" x1="2.63892" y1="-4.32287" x2="91.2413" y2="226.494" gradientUnits="userSpaceOnUse">
<stop offset="0.2" stop-color="#4792EA"/>
<stop offset="1" stop-color="#DD5202"/>
</linearGradient>
<linearGradient id="paint62_linear_5001_64026" x1="-0.344987" y1="-1.51044" x2="74.5953" y2="229.132" gradientUnits="userSpaceOnUse">
<stop offset="0.2" stop-color="#4792EA"/>
<stop offset="1" stop-color="#DD5202"/>
</linearGradient>
<linearGradient id="paint63_linear_5001_64026" x1="-3.45734" y1="1.68924" x2="58.0859" y2="231.372" gradientUnits="userSpaceOnUse">
<stop offset="0.2" stop-color="#4792EA"/>
<stop offset="1" stop-color="#DD5202"/>
</linearGradient>
<linearGradient id="paint64_linear_5001_64026" x1="-6.71915" y1="5.24637" x2="41.7361" y2="233.211" gradientUnits="userSpaceOnUse">
<stop offset="0.2" stop-color="#4792EA"/>
<stop offset="1" stop-color="#DD5202"/>
</linearGradient>
<linearGradient id="paint65_linear_5001_64026" x1="-10.1497" y1="9.15822" x2="25.5689" y2="234.677" gradientUnits="userSpaceOnUse">
<stop offset="0.2" stop-color="#4792EA"/>
<stop offset="1" stop-color="#DD5202"/>
</linearGradient>
<linearGradient id="paint66_linear_5001_64026" x1="-13.7679" y1="13.4097" x2="9.60459" y2="235.785" gradientUnits="userSpaceOnUse">
<stop offset="0.2" stop-color="#4792EA"/>
<stop offset="1" stop-color="#DD5202"/>
</linearGradient>
<linearGradient id="paint67_linear_5001_64026" x1="-17.5932" y1="17.9723" x2="-6.13833" y2="236.545" gradientUnits="userSpaceOnUse">
<stop offset="0.2" stop-color="#4792EA"/>
<stop offset="1" stop-color="#DD5202"/>
</linearGradient>
<linearGradient id="paint68_linear_5001_64026" x1="-21.6411" y1="22.8418" x2="-21.6411" y2="236.987" gradientUnits="userSpaceOnUse">
<stop offset="0.2" stop-color="#4792EA"/>
<stop offset="1" stop-color="#DD5202"/>
</linearGradient>
<clipPath id="clip0_5001_64026">
<rect width="810" height="124" fill="white"/>
</clipPath>
</defs>
</svg>
