<svg width="158" height="154" viewBox="0 0 158 154" fill="none" xmlns="http://www.w3.org/2000/svg">
<circle cx="97.1287" cy="61.348" r="48.7601" fill="#41B06E" stroke="#135232"/>
<mask id="path-2-inside-1_1008_29024" fill="white">
<path d="M152.059 61.3463C152.059 68.6197 150.614 75.8207 147.809 82.5314C145.004 89.2421 140.894 95.3288 135.718 100.439C130.541 105.548 124.402 109.579 117.655 112.297C110.909 115.015 103.69 116.366 96.4172 116.272C89.1444 116.178 81.9628 114.64 75.2889 111.749C68.6151 108.857 62.5821 104.668 57.5398 99.4264C52.4976 94.1844 48.5466 87.9933 45.9161 81.2122C43.2857 74.4311 42.0281 67.1952 42.2164 59.9242L43.4222 59.9555C43.238 67.0668 44.468 74.1438 47.0407 80.776C49.6134 87.4081 53.4776 93.4633 58.4091 98.5902C63.3407 103.717 69.2412 107.813 75.7685 110.642C82.2958 113.47 89.3197 114.974 96.4328 115.066C103.546 115.158 110.606 113.837 117.205 111.178C123.803 108.52 129.808 104.578 134.87 99.5801C139.933 94.5826 143.953 88.6295 146.696 82.0662C149.44 75.5028 150.852 68.46 150.852 61.3463H152.059Z"/>
</mask>
<path d="M152.059 61.3463C152.059 68.6197 150.614 75.8207 147.809 82.5314C145.004 89.2421 140.894 95.3288 135.718 100.439C130.541 105.548 124.402 109.579 117.655 112.297C110.909 115.015 103.69 116.366 96.4172 116.272C89.1444 116.178 81.9628 114.64 75.2889 111.749C68.6151 108.857 62.5821 104.668 57.5398 99.4264C52.4976 94.1844 48.5466 87.9933 45.9161 81.2122C43.2857 74.4311 42.0281 67.1952 42.2164 59.9242L43.4222 59.9555C43.238 67.0668 44.468 74.1438 47.0407 80.776C49.6134 87.4081 53.4776 93.4633 58.4091 98.5902C63.3407 103.717 69.2412 107.813 75.7685 110.642C82.2958 113.47 89.3197 114.974 96.4328 115.066C103.546 115.158 110.606 113.837 117.205 111.178C123.803 108.52 129.808 104.578 134.87 99.5801C139.933 94.5826 143.953 88.6295 146.696 82.0662C149.44 75.5028 150.852 68.46 150.852 61.3463H152.059Z" fill="#562BCA" stroke="#135232" stroke-width="2" mask="url(#path-2-inside-1_1008_29024)"/>
<path d="M88.2485 81.549L71.2578 64.3244L74.9514 60.5799L88.2485 74.06L120.014 41.8574L123.707 45.6019L88.2485 81.549Z" fill="white" stroke="#135232"/>
<path d="M45.0335 42.211C43.1338 41.6427 42.4579 40.9395 41.844 39.0215C41.3275 40.7601 40.682 41.4941 38.6545 42.211C40.709 43.0255 41.3469 43.7501 41.844 45.4005C42.4569 43.6971 43.1575 42.9819 45.0335 42.211Z" stroke="#135232"/>
<path d="M141.863 19.5293C139.964 18.9611 139.288 18.2579 138.674 16.3398C138.157 18.0785 137.512 18.8125 135.484 19.5293C137.539 20.3438 138.177 21.0685 138.674 22.7188C139.287 21.0155 139.987 20.3003 141.863 19.5293Z" stroke="#135232"/>
<mask id="path-6-inside-2_1008_29024" fill="white">
<path d="M49.6781 27.886C55.1609 20.2523 62.5107 14.1531 71.0245 10.1718C79.5382 6.19051 88.9311 4.4603 98.3046 5.14668L98.2165 6.34966C89.0488 5.67836 79.8622 7.37057 71.5354 11.2644C63.2086 15.1583 56.0202 21.1236 50.6578 28.5896L49.6781 27.886Z"/>
</mask>
<path d="M49.6781 27.886C55.1609 20.2523 62.5107 14.1531 71.0245 10.1718C79.5382 6.19051 88.9311 4.4603 98.3046 5.14668L98.2165 6.34966C89.0488 5.67836 79.8622 7.37057 71.5354 11.2644C63.2086 15.1583 56.0202 21.1236 50.6578 28.5896L49.6781 27.886Z" fill="#562BCA" stroke="#135232" stroke-width="2" mask="url(#path-6-inside-2_1008_29024)"/>
<path opacity="0.4" d="M5.94141 117.096L64.8245 101.83L136.793 134.543L123.708 137.16L116.293 141.522L104.08 148.5L5.94141 117.096Z" fill="#151515"/>
<path d="M56.101 104.887L32.984 112.302C31.2393 103.229 35.4561 98.9258 37.7823 98.3442L44.3249 96.1634L53.0483 95.291L56.101 104.887Z" fill="#B5A5DD"/>
<path d="M131.123 117.534L69.6224 96.5977L38.6543 107.066V119.715L107.133 140.215L131.123 128.002V117.534Z" fill="#7544FA"/>
<path d="M131.123 128.002V117.534L107.133 128.002L38.6543 107.502V119.715L107.133 140.215L131.123 128.002Z" fill="#381E7E"/>
<path d="M131.123 117.534L69.6224 96.5977L38.6543 107.066M131.123 117.534L107.133 128.002L38.6543 107.066M131.123 117.534V128.002L107.133 140.215L38.6543 119.715V107.066" stroke="#151515"/>
<path d="M128.941 123.639L110.186 132.362" stroke="#151515"/>
<path d="M107.133 128.004V140.217" stroke="#151515"/>
<path d="M145.729 131.244L126.717 124.648C126.466 124.561 126.19 124.577 125.951 124.693L112.191 131.388C111.415 131.765 111.449 132.883 112.248 133.212L131.954 141.326C132.253 141.449 132.594 141.42 132.867 141.248L145.933 133.035C146.644 132.589 146.522 131.519 145.729 131.244Z" fill="#FAD26A" stroke="#151515"/>
<path d="M70.9311 98.7773L88.3779 104.884L67.4417 113.607L46.5055 107.065L70.9311 98.7773Z" fill="#F5F1FF" stroke="#151515"/>
<path d="M95.3564 107.501L90.1224 105.756L84.8883 107.937L90.1224 109.681L95.3564 107.501Z" fill="#151515"/>
<path d="M90.1224 104.449L95.3564 106.194V107.066L90.1224 109.247L84.8883 107.502V106.63L90.1224 104.449Z" fill="#EE4266"/>
<path d="M90.1224 108.376L95.3564 106.195V107.068L90.1224 109.249L84.8883 107.504V106.631L90.1224 108.376Z" fill="#9B1640"/>
<path d="M89.25 110.12L84.4521 108.375L77.9096 111.428L82.7074 113.173L89.25 110.12Z" fill="#151515"/>
<path d="M81.835 113.608L77.0371 111.863L70.0583 114.916L74.8562 116.225L81.835 113.608Z" fill="#151515"/>
<path d="M88.814 109.683V108.81L84.4523 107.502L78.3459 110.119V110.991L82.2714 112.3L88.814 109.683Z" fill="#C0C0C0"/>
<path d="M82.2714 111.426L88.814 108.809V109.681L82.2714 112.298L78.3459 110.989V110.117L82.2714 111.426Z" fill="#666666"/>
<path d="M80.9626 113.175V112.303L77.0371 110.994L70.0584 113.611V114.484L74.4201 115.792L80.9626 113.175Z" fill="#6AFAD7"/>
<path d="M74.4201 114.918L80.9626 112.301V113.173L74.4201 115.79L70.0584 114.482V113.609L74.4201 114.918Z" fill="#311383"/>
<path d="M44.3243 98.3415C47.1158 99.7372 48.1045 102.994 48.2499 104.448L64.3882 99.2138C64.0393 95.3755 59.5904 93.1077 56.9733 93.5435C55.2286 93.8343 45.2838 95.3755 38.654 97.4691C32.0242 99.5627 32.1116 108.374 32.984 112.299C30.8031 97.9056 40.835 96.5968 44.3243 98.3415Z" fill="#E3D9FF"/>
<path d="M49.1226 101.397L62.6439 97.0352" stroke="#7F27FF" stroke-width="0.5" stroke-linecap="round"/>
<path d="M47.3779 98.7804L59.5907 95.291" stroke="#7F27FF" stroke-width="0.5" stroke-linecap="round"/>
<path d="M45.1968 96.5975L56.9734 93.9805" stroke="#7F27FF" stroke-width="0.5" stroke-linecap="round"/>
</svg>
