<svg width="150" height="150" viewBox="0 0 150 150" fill="none" xmlns="http://www.w3.org/2000/svg">
<g style="mix-blend-mode:luminosity">
<path d="M75.656 25.1432C75.656 22.2226 73.2942 19.8262 70.3325 19.8262H13.9485C11.0243 19.8262 8.625 22.1851 8.625 25.1432V110.44C8.625 113.36 10.9868 115.757 13.9485 115.757H123.043C125.967 115.757 128.366 113.398 128.366 110.44V35.7771C128.366 32.8565 126.004 30.4602 123.043 30.4602H80.942C78.0553 30.4602 75.656 28.1012 75.656 25.1432Z" fill="#F0F3F5"/>
<path fill-rule="evenodd" clip-rule="evenodd" d="M122.48 19.7894C122.48 15.4866 125.972 12 130.278 12C134.584 12 138.076 15.4866 138.076 19.7894C138.076 24.0922 134.584 27.5788 130.278 27.5788C125.972 27.5788 122.48 24.0922 122.48 19.7894ZM130.278 13.5C126.799 13.5 123.98 16.3167 123.98 19.7894C123.98 23.2621 126.799 26.0788 130.278 26.0788C133.757 26.0788 136.576 23.2621 136.576 19.7894C136.576 16.3167 133.757 13.5 130.278 13.5Z" fill="#999999"/>
<path fill-rule="evenodd" clip-rule="evenodd" d="M134.809 24.5384C135.101 24.2453 135.576 24.245 135.869 24.5377L141.53 30.1917C141.823 30.4844 141.824 30.9593 141.531 31.2524C141.238 31.5454 140.763 31.5457 140.47 31.253L134.809 25.599C134.516 25.3063 134.516 24.8314 134.809 24.5384ZM36.2546 46.8594C36.6688 46.8594 37.0046 47.1952 37.0046 47.6094V50.867C37.0046 51.2812 36.6688 51.617 36.2546 51.617C35.8404 51.617 35.5046 51.2812 35.5046 50.867V47.6094C35.5046 47.1952 35.8404 46.8594 36.2546 46.8594ZM28.1567 54.9484C28.1567 54.5342 28.4925 54.1984 28.9067 54.1984H32.1683C32.5825 54.1984 32.9183 54.5342 32.9183 54.9484C32.9183 55.3626 32.5825 55.6984 32.1683 55.6984H28.9067C28.4925 55.6984 28.1567 55.3626 28.1567 54.9484ZM39.5537 54.9484C39.5537 54.5342 39.8895 54.1984 40.3037 54.1984H43.6027C44.017 54.1984 44.3527 54.5342 44.3527 54.9484C44.3527 55.3626 44.017 55.6984 43.6027 55.6984H40.3037C39.8895 55.6984 39.5537 55.3626 39.5537 54.9484ZM36.2546 57.456C36.6688 57.456 37.0046 57.7917 37.0046 58.206V62.2873C37.0046 62.7015 36.6688 63.0373 36.2546 63.0373C35.8404 63.0373 35.5046 62.7015 35.5046 62.2873V58.206C35.5046 57.7917 35.8404 57.456 36.2546 57.456Z" fill="#999999"/>
<path fill-rule="evenodd" clip-rule="evenodd" d="M28.682 77.416C25.3464 77.416 22.6089 80.1515 22.6089 83.4808V130.435C22.6089 133.764 25.3464 136.5 28.682 136.5H101.186C104.522 136.5 107.259 133.764 107.259 130.435V83.4808C107.259 80.1515 104.522 77.416 101.186 77.416H28.682ZM21.1089 83.4808C21.1089 79.3213 24.5197 75.916 28.682 75.916H101.186C105.349 75.916 108.759 79.3213 108.759 83.4808V130.435C108.759 134.594 105.349 138 101.186 138H28.682C24.5197 138 21.1089 134.594 21.1089 130.435V83.4808Z" fill="#999999"/>
<path d="M28.8694 85.4664C29.946 85.4664 30.8188 84.5947 30.8188 83.5193C30.8188 82.444 29.946 81.5723 28.8694 81.5723C27.7927 81.5723 26.9199 82.444 26.9199 83.5193C26.9199 84.5947 27.7927 85.4664 28.8694 85.4664Z" fill="#999999"/>
<path d="M35.2048 85.4664C36.2815 85.4664 37.1543 84.5947 37.1543 83.5193C37.1543 82.444 36.2815 81.5723 35.2048 81.5723C34.1282 81.5723 33.2554 82.444 33.2554 83.5193C33.2554 84.5947 34.1282 85.4664 35.2048 85.4664Z" fill="#999999"/>
<path d="M41.5408 85.4664C42.6174 85.4664 43.4902 84.5947 43.4902 83.5193C43.4902 82.444 42.6174 81.5723 41.5408 81.5723C40.4641 81.5723 39.5913 82.444 39.5913 83.5193C39.5913 84.5947 40.4641 85.4664 41.5408 85.4664Z" fill="#999999"/>
<path fill-rule="evenodd" clip-rule="evenodd" d="M21.1841 90.4453C21.1841 90.0311 21.5199 89.6953 21.9341 89.6953H107.747C108.161 89.6953 108.497 90.0311 108.497 90.4453C108.497 90.8595 108.161 91.1953 107.747 91.1953H21.9341C21.5199 91.1953 21.1841 90.8595 21.1841 90.4453Z" fill="#999999"/>
<path d="M59.3481 48.7706V108.194C59.3481 123.171 66.1712 124.332 69.2453 124.332C72.3195 124.332 129.641 122.759 129.641 122.759C129.641 122.759 120.756 116.881 120.756 103.139V38.9229L70.37 37.2754L59.3481 48.7706Z" fill="#FFD493"/>
<path fill-rule="evenodd" clip-rule="evenodd" d="M69.4328 48.9949L59.3481 48.7703L70.4825 37.3125V47.909C70.4825 48.5081 69.9951 48.9949 69.4328 48.9949ZM78.43 115.42C78.43 115.42 78.7299 122.872 69.2451 124.332C74.1552 124.332 88.528 123.893 102.093 123.479C114.213 123.11 125.688 122.759 129.191 122.759C136.614 122.759 138.076 113.735 138.076 113.735L78.43 115.42Z" fill="#FFBE5C"/>
<path d="M90 89H99C103.971 89 108 84.9706 108 80C108 75.0294 103.971 71 99 71H78" stroke="#FF9F29" stroke-width="5" stroke-linecap="round" stroke-linejoin="round"/>
<path d="M82 65L76.7071 70.2929C76.3738 70.6262 76.2071 70.7929 76.2071 71C76.2071 71.2071 76.3738 71.3738 76.7071 71.7071L82 77" stroke="#FF9F29" stroke-width="5" stroke-linecap="round" stroke-linejoin="round"/>
</g>
</svg>
